<svg width="626" height="67" viewBox="0 0 626 67" fill="none" xmlns="http://www.w3.org/2000/svg">
<path d="M47.2681 49.3739L41.3909 49.9264C39.4875 50.202 37.7289 51.0997 36.3893 52.4797C35.0498 53.8597 34.2046 55.6442 33.9856 57.5549L33.4214 63.5967C33.4214 63.6672 33.3156 63.6672 33.2804 63.5967C33.1863 62.7739 32.9512 59.4004 32.7162 57.5549C32.4934 55.6457 31.647 53.8632 30.3081 52.484C28.9692 51.1048 27.2127 50.2058 25.3109 49.9264L19.4338 49.3386C19.3632 49.3386 19.3632 49.2329 19.4338 49.1976L25.3109 48.6217C27.2143 48.3461 28.9729 47.4483 30.3125 46.0683C31.6521 44.6884 32.4972 42.9038 32.7162 40.9931C32.9512 39.1359 33.1863 35.7741 33.2804 34.9513C33.2804 34.8808 33.3862 34.8808 33.4214 34.9513L33.9856 40.9931C34.2046 42.9038 35.0498 44.6884 36.3893 46.0683C37.7289 47.4483 39.4875 48.3461 41.3909 48.6217L47.2681 49.1976C47.286 49.2043 47.3016 49.2163 47.3125 49.232C47.3235 49.2478 47.3294 49.2667 47.3294 49.2858C47.3294 49.305 47.3235 49.3238 47.3125 49.3395C47.3016 49.3553 47.286 49.3673 47.2681 49.3739Z" fill="white"/>
<path d="M20.1747 34.0885L16.0254 34.4881C14.6987 34.661 13.4664 35.2677 12.5204 36.2138C11.5743 37.1598 10.9676 38.3922 10.7947 39.7189L10.3951 43.868H10.3011C10.3011 43.3273 10.0542 41.0001 9.90142 39.7189C9.72855 38.3922 9.12184 37.1598 8.17579 36.2138C7.22974 35.2677 5.99742 34.661 4.67072 34.4881L0.533203 34.0885V33.9945L4.67072 33.6065C5.99764 33.4292 7.22917 32.8196 8.17472 31.8719C9.12026 30.9242 9.72714 29.6914 9.90142 28.3641C10.0542 27.0829 10.207 24.7673 10.3011 24.2266H10.3951L10.7947 28.3641C10.969 29.6914 11.5759 30.9242 12.5214 31.8719C13.467 32.8196 14.6985 33.4292 16.0254 33.6065L20.1747 33.9945C20.1747 33.9945 20.2217 34.0885 20.1747 34.0885Z" fill="white"/>
<path d="M36.6067 17.6293L33.6798 17.8878C32.7583 17.9831 31.8942 18.3808 31.2223 19.0187C30.5504 19.6565 30.1085 20.4988 29.9655 21.4142L29.6951 24.1764C29.6951 24.1764 29.6951 24.1764 29.6128 24.1764C29.6128 23.812 29.46 22.2605 29.3425 21.4142C29.1995 20.4988 28.7576 19.6565 28.0857 19.0187C27.4138 18.3808 26.5496 17.9831 25.6281 17.8878L22.666 17.6293C22.666 17.6293 22.666 17.6292 22.666 17.5587L25.5928 17.3354C26.5144 17.2401 27.3785 16.8425 28.0504 16.2046C28.7223 15.5667 29.1642 14.7245 29.3072 13.8091C29.4248 12.9628 29.5423 11.4583 29.5776 11.0469C29.5776 11.0469 29.5776 11.0469 29.6599 11.0469L29.9302 13.8091C30.0732 14.7245 30.5151 15.5667 31.187 16.2046C31.8589 16.8425 32.723 17.2401 33.6446 17.3354L36.5714 17.594C36.5714 17.594 36.6419 17.6293 36.6067 17.6293Z" fill="white"/>
<path d="M585.299 50.1708L591.176 50.7232C593.081 50.9969 594.84 51.8941 596.18 53.2744C597.52 54.6548 598.365 56.4404 598.582 58.3518L599.146 64.3936C599.146 64.4641 599.252 64.4641 599.287 64.3936C599.381 63.5708 599.616 60.1972 599.851 58.3518C600.074 56.4425 600.92 54.6601 602.259 53.2809C603.598 51.9016 605.355 51.0026 607.256 50.7232L613.134 50.1355C613.204 50.1355 613.204 50.0297 613.134 49.9945L607.256 49.4185C605.353 49.1429 603.594 48.245 602.255 46.8651C600.915 45.4851 600.07 43.7007 599.851 41.79C599.616 39.9328 599.381 36.571 599.287 35.7482C599.287 35.6777 599.181 35.6777 599.146 35.7482L598.582 41.79C598.365 43.7014 597.52 45.4869 596.18 46.8672C594.84 48.2475 593.081 49.1448 591.176 49.4185L585.299 49.9945C585.285 50.0041 585.273 50.0173 585.265 50.0326C585.256 50.048 585.252 50.0651 585.252 50.0826C585.252 50.1 585.256 50.1173 585.265 50.1327C585.273 50.148 585.285 50.1612 585.299 50.1708Z" fill="white"/>
<path d="M605.824 28.3385L609.973 28.7381C611.3 28.911 612.532 29.5177 613.478 30.4638C614.424 31.4098 615.031 32.6422 615.204 33.9689L615.603 38.1182H615.697C615.697 37.5775 615.944 35.2501 616.097 33.9689C616.27 32.6422 616.877 31.4098 617.823 30.4638C618.769 29.5177 620.001 28.911 621.328 28.7381L625.465 28.3385V28.2445L621.328 27.8447C620.001 27.6719 618.769 27.0652 617.823 26.1192C616.877 25.1731 616.27 23.9408 616.097 22.6141C615.944 21.3329 615.791 19.0173 615.697 18.4766H615.603L615.204 22.6141C615.031 23.9408 614.424 25.1731 613.478 26.1192C612.532 27.0652 611.3 27.6719 609.973 27.8447L605.824 28.2445C605.824 28.2445 605.777 28.3385 605.824 28.3385Z" fill="white"/>
<path d="M581.998 21.7426L584.925 22.0012C585.847 22.0945 586.712 22.4915 587.385 23.1297C588.057 23.7679 588.498 24.6113 588.639 25.5275L588.91 28.2897C588.91 28.2897 588.91 28.2897 588.992 28.2897C588.992 27.9136 589.145 26.3738 589.262 25.5275C589.405 24.6121 589.847 23.7699 590.519 23.132C591.191 22.4941 592.055 22.0965 592.977 22.0012L595.903 21.7426C595.903 21.7426 595.903 21.7427 595.903 21.6604L592.977 21.4488C592.056 21.3515 591.193 20.9533 590.521 20.3158C589.85 19.6783 589.407 18.837 589.262 17.9224C589.145 17.0644 589.027 15.5716 588.992 15.1484C588.992 15.1484 588.992 15.1484 588.91 15.1484L588.639 17.9224C588.494 18.837 588.052 19.6783 587.38 20.3158C586.709 20.9533 585.846 21.3515 584.925 21.4488L581.998 21.6955V21.7426Z" fill="white"/>
<path d="M79.239 53.8819L80.3087 42.4685H110.999L111.975 53.8819H79.239ZM95.4365 26.6354L86.7618 46.6178L87.4671 49.8854L79.768 65.8244H62.877L95.4365 0L128.078 65.8244H111.093L103.665 50.5437L104.193 46.7353L95.4365 26.6354ZM144.476 65.8244V53.5294H175.707V65.8244H144.476ZM144.476 16.1858V3.89076H175.707V16.1858H144.476ZM144.476 39.2831V27.2467H173.944V39.2831H144.476ZM134.567 3.89076H148.907V65.8244H134.567V3.89076ZM187.884 3.89076H203.271V65.8244H187.884V3.89076ZM209.994 65.8244H197.805V52.5537H209.477C211.779 52.5613 214.071 52.2649 216.295 51.6721C218.446 51.1425 220.453 50.143 222.172 48.7453C223.951 47.3062 225.351 45.4541 226.251 43.3501C227.327 40.6536 227.839 37.7654 227.755 34.8635C227.845 31.9878 227.332 29.125 226.251 26.4591C225.368 24.319 223.966 22.4325 222.172 20.9697C220.45 19.5766 218.444 18.5776 216.295 18.0429C214.071 17.4501 211.779 17.1537 209.477 17.1613H197.805V3.89076H210.006C216.103 3.7323 222.15 5.03827 227.638 7.69916C232.43 10.0788 236.427 13.7988 239.145 18.4074C241.96 23.4256 243.365 29.1117 243.212 34.8635C243.349 40.6134 241.945 46.2953 239.145 51.3195C236.427 55.9246 232.429 59.6406 227.638 62.016C222.146 64.6787 216.096 65.9847 209.994 65.8244ZM274.514 65.8244L302.113 37.2495C303.771 35.4158 305.181 33.7232 306.368 32.2892C307.494 30.9938 308.418 29.5354 309.107 27.9637C309.757 26.4816 310.089 24.88 310.083 23.2619C310.081 22.2922 309.897 21.3313 309.542 20.4291C309.201 19.4963 308.659 18.6497 307.955 17.9489C307.217 17.1619 306.308 16.5546 305.299 16.174C304.203 15.6741 303.018 15.3994 301.815 15.366C300.611 15.3327 299.413 15.5415 298.291 15.98C297.17 16.4185 296.148 17.0778 295.286 17.9188C294.424 18.7598 293.74 19.7653 293.274 20.8757C292.534 22.7453 292.171 24.7426 292.204 26.7529H277.523C277.474 22.5508 278.412 18.3958 280.262 14.6223C282.096 10.966 284.955 7.92307 288.49 5.86541C292.629 3.58247 297.306 2.45384 302.031 2.59767C305.501 2.5338 308.952 3.1322 312.199 4.36082C314.946 5.35852 317.451 6.92921 319.545 8.96858C321.468 10.7257 323.005 12.8631 324.059 15.2454C325.046 17.4657 325.559 19.8679 325.563 22.298C325.591 25.5606 324.734 28.7698 323.083 31.5839C321.355 34.4498 319.176 37.0179 316.63 39.189L302.207 52.1188H326.974V65.8244H274.514ZM384.335 46.0066C384.411 49.2781 383.65 52.5148 382.125 55.41C380.728 58.0379 378.71 60.2851 376.248 61.9571C373.824 63.7001 371.115 65.0086 368.243 65.8244C365.356 66.5978 362.381 66.9929 359.392 66.9998C355.937 67.0267 352.491 66.632 349.131 65.8244C346.315 65.2104 343.584 64.2593 340.997 62.9915C338.734 61.8152 336.572 60.455 334.532 58.9246L340.409 46.6296C342.037 47.9894 343.784 49.2009 345.628 50.2499C347.387 51.1896 349.223 51.9761 351.117 52.6007C352.721 53.0969 354.387 53.366 356.066 53.4001C358.261 53.4519 360.449 53.1217 362.531 52.4244C364.166 51.8677 365.587 50.8161 366.598 49.4153C367.57 47.9522 368.063 46.2226 368.008 44.4667C368.099 42.6452 367.465 40.8618 366.245 39.5064C365.059 38.1696 363.525 37.1887 361.814 36.6735C359.958 36.0714 358.017 35.7737 356.066 35.7919C354.289 35.8041 352.515 35.9219 350.753 36.1446C346.538 36.5997 342.435 37.7934 338.634 39.6709L347.309 3.92591H383.054V16.8557H358.229L354.702 27.9166C356.335 27.1587 358.063 26.6249 359.839 26.3298C361.701 25.9638 363.595 25.7826 365.493 25.789C368.771 25.7797 371.995 26.6342 374.838 28.2664C377.681 29.8986 380.045 32.2509 381.69 35.0867C383.531 38.4252 384.444 42.1958 384.335 46.0066ZM405.787 34.8635C405.767 37.537 406.035 40.2049 406.586 42.8212C407.043 44.9658 407.837 47.0246 408.937 48.9216C409.824 50.4568 411.025 51.7868 412.463 52.824C413.872 53.7045 415.504 54.1617 417.165 54.1406C418.793 54.1663 420.393 53.708 421.761 52.824C423.24 51.8022 424.48 50.4706 425.393 48.9216C426.467 47.0187 427.241 44.9608 427.685 42.8212C428.236 40.2049 428.504 37.537 428.484 34.8635C428.508 32.2169 428.24 29.5757 427.685 26.9879C427.259 24.8392 426.485 22.7747 425.393 20.8757C424.512 19.3059 423.267 17.9712 421.761 16.985C420.413 16.0473 418.806 15.5542 417.165 15.5745C415.491 15.5553 413.85 16.0474 412.463 16.985C410.999 17.9875 409.791 19.3204 408.937 20.8757C407.819 22.7686 407.025 24.8342 406.586 26.9879C406.031 29.5757 405.763 32.2169 405.787 34.8635ZM391.364 34.8635C391.212 28.9525 392.297 23.075 394.55 17.608C396.462 13.1453 399.631 9.33506 403.671 6.64124C407.74 4.09114 412.445 2.73857 417.247 2.73857C422.049 2.73857 426.754 4.09114 430.823 6.64124C434.798 9.33577 437.88 13.1539 439.674 17.608C443.922 28.7155 443.922 40.9995 439.674 52.107C437.862 56.576 434.786 60.4199 430.823 63.1679C426.733 65.6583 422.036 66.9757 417.247 66.9757C412.458 66.9757 407.761 65.6583 403.671 63.1679C399.643 60.42 396.48 56.584 394.55 52.107C392.295 46.6446 391.21 40.7707 391.364 34.8635ZM464.37 34.8635C464.345 37.5373 464.613 40.2058 465.17 42.8212C465.614 44.9608 466.387 47.0187 467.462 48.9216C468.355 50.4517 469.556 51.7803 470.988 52.824C472.398 53.7015 474.029 54.1584 475.69 54.1406C477.322 54.1687 478.926 53.7103 480.298 52.824C481.776 51.8049 483.012 50.4726 483.918 48.9216C485.018 47.0246 485.811 44.9658 486.269 42.8212C486.819 40.2049 487.087 37.537 487.068 34.8635C487.092 32.2169 486.824 29.5757 486.269 26.9879C485.83 24.8342 485.035 22.7686 483.918 20.8757C483.045 19.3039 481.803 17.9684 480.298 16.985C478.946 16.0471 477.335 15.5541 475.69 15.5745C474.016 15.5613 472.378 16.0528 470.988 16.985C469.53 17.9941 468.323 19.3254 467.462 20.8757C466.37 22.7747 465.596 24.8392 465.17 26.9879C464.609 29.5748 464.34 32.2166 464.37 34.8635ZM449.948 34.8635C449.79 28.9521 450.875 23.0734 453.133 17.608C455.046 13.1486 458.21 9.3393 462.243 6.64124C466.314 4.09144 471.021 2.73914 475.825 2.73914C480.629 2.73914 485.336 4.09144 489.407 6.64124C493.379 9.33895 496.46 13.156 498.258 17.608C502.505 28.7155 502.505 40.9995 498.258 52.107C496.442 56.5736 493.367 60.4163 489.407 63.1679C485.315 65.6594 480.616 66.9773 475.825 66.9773C471.034 66.9773 466.335 65.6594 462.243 63.1679C458.222 60.416 455.063 56.5808 453.133 52.107C450.875 46.6458 449.79 40.771 449.948 34.8635ZM522.942 34.8635C522.923 37.537 523.191 40.2049 523.742 42.8212C524.204 44.9642 524.997 47.0222 526.092 48.9216C526.983 50.4541 528.184 51.7834 529.619 52.824C531.027 53.7045 532.659 54.1617 534.32 54.1406C535.949 54.1663 537.549 53.708 538.916 52.824C540.402 51.8089 541.643 50.4759 542.549 48.9216C543.639 47.0198 544.431 44.9626 544.899 42.8212C545.446 40.2044 545.71 37.5366 545.687 34.8635C545.714 32.2174 545.45 29.5762 544.899 26.9879C544.45 24.8373 543.656 22.7734 542.549 20.8757C541.675 19.3008 540.428 17.9647 538.916 16.985C537.57 16.0458 535.962 15.5526 534.32 15.5745C532.646 15.5553 531.006 16.0474 529.619 16.985C528.157 17.9908 526.95 19.3229 526.092 20.8757C524.98 22.7709 524.186 24.8357 523.742 26.9879C523.186 29.5757 522.918 32.2169 522.942 34.8635ZM508.531 34.8635C508.373 28.9521 509.459 23.0734 511.717 17.608C513.626 13.1465 516.791 9.33626 520.827 6.64124C524.812 4.01295 529.5 2.65241 534.273 2.73871C539.137 2.61222 543.922 3.97382 547.991 6.64124C551.962 9.33645 555.04 13.1547 556.83 17.608C561.077 28.7155 561.077 40.9995 556.83 52.107C555.022 56.5752 551.95 60.4192 547.991 63.1679C543.901 65.7792 539.124 67.1057 534.273 66.9763C529.513 67.0666 524.833 65.7411 520.827 63.1679C516.803 60.4193 513.643 56.5832 511.717 52.107C509.459 46.6458 508.373 40.771 508.531 34.8635Z" fill="url(#paint0_linear_1_178)"/>
<defs>
<linearGradient id="paint0_linear_1_178" x1="283.295" y1="-67.2819" x2="334.132" y2="139.348" gradientUnits="userSpaceOnUse">
<stop stop-color="white"/>
<stop offset="1" stop-color="#FFF48E"/>
</linearGradient>
</defs>
</svg>
