<svg width="699" height="1149" viewBox="0 0 699 1149" fill="none" xmlns="http://www.w3.org/2000/svg">
<path d="M65.03 1148.75H633.95C651.189 1148.75 667.722 1141.9 679.912 1129.71C692.102 1117.52 698.95 1100.99 698.95 1083.75V287.91H664.34C665.313 279.561 665.834 271.165 665.9 262.76C665.9 117.61 349.49 0 349.49 0C349.49 0 33.14 117.61 33.14 262.76C33.1562 271.166 33.6671 279.564 34.67 287.91H6.92687e-06V1083.72C-0.00393597 1092.26 1.67543 1100.72 4.9421 1108.61C8.20877 1116.5 12.9987 1123.67 19.0381 1129.71C25.0774 1135.75 32.2479 1140.54 40.1394 1143.81C48.031 1147.07 56.489 1148.75 65.03 1148.75Z" fill="#4A0258"/>
<path d="M77.4902 1134.22H621.49C630.026 1134.22 638.479 1132.54 646.365 1129.27C654.251 1126.01 661.416 1121.22 667.452 1115.18C673.488 1109.15 678.276 1101.98 681.542 1094.1C684.809 1086.21 686.49 1077.76 686.49 1069.22V295.221H653.09C654.029 287.167 654.529 279.069 654.59 270.961C654.59 130.961 349.44 17.5508 349.44 17.5508C349.44 17.5508 44.3402 130.981 44.3402 270.961C44.3544 279.069 44.8486 287.17 45.8202 295.221H12.4902V1069.22C12.4902 1077.76 14.1715 1086.21 17.4381 1094.1C20.7046 1101.98 25.4925 1109.15 31.5283 1115.18C37.5641 1121.22 44.7297 1126.01 52.6158 1129.27C60.502 1132.54 68.9543 1134.22 77.4902 1134.22Z" stroke="#FFD100" stroke-miterlimit="10"/>
</svg>
