<svg width="292" height="20" viewBox="0 0 292 20" fill="none" xmlns="http://www.w3.org/2000/svg">
<path d="M147.521 16.1953L146.625 19.8697L145.729 16.1953C145.15 13.8292 143.687 12.0031 141.834 11.3406L138.25 10.0601L141.8 8.79077C143.67 8.12269 145.15 6.26323 145.712 3.86929L146.625 1.46433e-06L147.538 3.86929C148.1 6.26323 149.58 8.12269 151.45 8.79077L155 10.0601L151.416 11.3406C149.563 12.0031 148.094 13.8292 147.521 16.1953Z" fill="#FFF3C2"/>
<path d="M292 9.00005L160 9L160 11L292 11L292 9.00005Z" fill="#FFF3C2"/>
<path d="M132 9.00005L0 9L-1.74842e-07 11L132 11L132 9.00005Z" fill="#FFF3C2"/>
</svg>
