<svg width="774" height="880" viewBox="0 0 774 880" fill="none" xmlns="http://www.w3.org/2000/svg">
<path d="M388.521 603.195L387.625 606.87L386.729 603.195C386.15 600.829 384.687 599.003 382.834 598.341L379.25 597.06L382.8 595.791C384.67 595.123 386.15 593.263 386.712 590.869L387.625 587L388.538 590.869C389.1 593.263 390.58 595.123 392.45 595.791L396 597.06L392.416 598.341C390.563 599.003 389.094 600.829 388.521 603.195Z" fill="#FFF3C2"/>
<path d="M533 596L401 596L401 598L533 598L533 596Z" fill="#FFF3C2"/>
<path d="M373 596L241 596L241 598L373 598L373 596Z" fill="#FFF3C2"/>
<path d="M568.949 496.6H572.649L571.909 515.1H569.689L568.949 496.6ZM568.764 521.02C568.764 520.453 568.961 519.972 569.356 519.577C569.775 519.182 570.256 518.985 570.799 518.985C571.366 518.985 571.847 519.182 572.242 519.577C572.637 519.972 572.834 520.453 572.834 521.02C572.834 521.563 572.637 522.044 572.242 522.463C571.847 522.858 571.366 523.055 570.799 523.055C570.256 523.055 569.775 522.858 569.356 522.463C568.961 522.044 568.764 521.563 568.764 521.02Z" fill="#FFE161"/>
<path d="M553.804 517.283C554.149 517.801 554.544 518.282 554.988 518.726C555.432 519.17 555.938 519.528 556.505 519.799C557.097 520.046 557.738 520.169 558.429 520.169C559.268 520.169 559.921 519.984 560.39 519.614C560.883 519.219 561.13 518.689 561.13 518.023C561.13 517.431 560.933 516.938 560.538 516.543C560.168 516.124 559.687 515.778 559.095 515.507C558.503 515.211 557.874 514.94 557.208 514.693C556.468 514.397 555.716 514.052 554.951 513.657C554.211 513.238 553.582 512.707 553.064 512.066C552.571 511.4 552.324 510.574 552.324 509.587C552.324 508.576 552.583 507.737 553.101 507.071C553.644 506.405 554.334 505.912 555.173 505.591C556.036 505.27 556.924 505.11 557.837 505.11C558.75 505.11 559.601 505.258 560.39 505.554C561.204 505.85 561.919 506.245 562.536 506.738C563.153 507.231 563.634 507.799 563.979 508.44L561.611 509.957C561.142 509.316 560.55 508.785 559.835 508.366C559.144 507.947 558.355 507.737 557.467 507.737C556.85 507.737 556.32 507.873 555.876 508.144C555.432 508.415 555.21 508.835 555.21 509.402C555.21 509.846 555.383 510.241 555.728 510.586C556.073 510.931 556.517 511.24 557.06 511.511C557.603 511.782 558.17 512.041 558.762 512.288C559.749 512.683 560.649 513.114 561.463 513.583C562.277 514.027 562.918 514.57 563.387 515.211C563.88 515.852 564.127 516.679 564.127 517.69C564.127 519.17 563.584 520.403 562.499 521.39C561.438 522.377 560.032 522.87 558.281 522.87C557.146 522.87 556.123 522.673 555.21 522.278C554.297 521.859 553.52 521.328 552.879 520.687C552.262 520.046 551.794 519.392 551.473 518.726L553.804 517.283Z" fill="#FFE161"/>
<path d="M540.645 522.87C539.066 522.87 537.66 522.5 536.427 521.76C535.218 520.995 534.269 519.947 533.578 518.615C532.912 517.283 532.579 515.741 532.579 513.99C532.579 512.214 532.924 510.66 533.615 509.328C534.33 507.996 535.317 506.96 536.575 506.22C537.858 505.48 539.338 505.11 541.015 505.11C542.692 505.11 544.123 505.468 545.307 506.183C546.516 506.874 547.441 507.873 548.082 509.18C548.723 510.487 549.044 512.041 549.044 513.842C549.044 514.015 549.032 514.2 549.007 514.397C549.007 514.57 549.007 514.681 549.007 514.73H534.466V512.214H546.676L545.492 513.916C545.566 513.793 545.64 513.608 545.714 513.361C545.788 513.09 545.825 512.868 545.825 512.695C545.825 511.684 545.615 510.808 545.196 510.068C544.801 509.328 544.246 508.748 543.531 508.329C542.816 507.91 541.977 507.7 541.015 507.7C539.88 507.7 538.906 507.947 538.092 508.44C537.303 508.909 536.686 509.599 536.242 510.512C535.823 511.4 535.601 512.498 535.576 513.805C535.576 515.137 535.786 516.272 536.205 517.209C536.624 518.146 537.241 518.862 538.055 519.355C538.869 519.848 539.856 520.095 541.015 520.095C542.174 520.095 543.198 519.848 544.086 519.355C544.974 518.837 545.726 518.06 546.343 517.024L548.748 518.541C547.86 519.972 546.738 521.057 545.381 521.797C544.049 522.512 542.47 522.87 540.645 522.87Z" fill="#FFE161"/>
<path d="M522.581 505.48H531.091V508.255H522.581V505.48ZM525.356 499.56H528.316V522.5H525.356V499.56Z" fill="#FFE161"/>
<path d="M508.689 517.246C508.689 517.887 508.837 518.442 509.133 518.911C509.454 519.38 509.886 519.737 510.428 519.984C510.996 520.206 511.637 520.317 512.352 520.317C513.265 520.317 514.079 520.132 514.794 519.762C515.534 519.392 516.114 518.874 516.533 518.208C516.977 517.517 517.199 516.728 517.199 515.84L517.791 518.06C517.791 519.145 517.458 520.046 516.792 520.761C516.151 521.476 515.349 522.007 514.387 522.352C513.45 522.697 512.513 522.87 511.575 522.87C510.539 522.87 509.565 522.66 508.652 522.241C507.764 521.797 507.049 521.168 506.506 520.354C505.964 519.54 505.692 518.553 505.692 517.394C505.692 515.741 506.272 514.422 507.431 513.435C508.615 512.424 510.256 511.918 512.352 511.918C513.586 511.918 514.609 512.066 515.423 512.362C516.262 512.633 516.928 512.954 517.421 513.324C517.915 513.669 518.248 513.953 518.42 514.175V515.914C517.557 515.322 516.669 514.903 515.756 514.656C514.844 514.385 513.869 514.249 512.833 514.249C511.871 514.249 511.082 514.372 510.465 514.619C509.873 514.866 509.429 515.211 509.133 515.655C508.837 516.099 508.689 516.629 508.689 517.246ZM508.245 509.402L506.802 507.219C507.444 506.75 508.319 506.282 509.429 505.813C510.564 505.344 511.921 505.11 513.499 505.11C514.831 505.11 515.991 505.32 516.977 505.739C517.989 506.134 518.766 506.713 519.308 507.478C519.876 508.243 520.159 509.18 520.159 510.29V522.5H517.199V510.697C517.199 510.105 517.101 509.624 516.903 509.254C516.706 508.859 516.422 508.551 516.052 508.329C515.707 508.107 515.3 507.947 514.831 507.848C514.363 507.749 513.869 507.7 513.351 507.7C512.513 507.7 511.748 507.799 511.057 507.996C510.391 508.193 509.824 508.428 509.355 508.699C508.887 508.97 508.517 509.205 508.245 509.402Z" fill="#FFE161"/>
<path d="M499.02 493.64H501.98V522.5H499.02V493.64ZM484.775 513.99C484.775 512.14 485.158 510.561 485.922 509.254C486.687 507.922 487.711 506.898 488.993 506.183C490.276 505.468 491.682 505.11 493.211 505.11C494.642 505.11 495.888 505.468 496.948 506.183C498.009 506.898 498.835 507.922 499.427 509.254C500.044 510.561 500.352 512.14 500.352 513.99C500.352 515.815 500.044 517.394 499.427 518.726C498.835 520.058 498.009 521.082 496.948 521.797C495.888 522.512 494.642 522.87 493.211 522.87C491.682 522.87 490.276 522.512 488.993 521.797C487.711 521.082 486.687 520.058 485.922 518.726C485.158 517.394 484.775 515.815 484.775 513.99ZM487.772 513.99C487.772 515.297 488.031 516.407 488.549 517.32C489.092 518.233 489.807 518.923 490.695 519.392C491.583 519.861 492.545 520.095 493.581 520.095C494.445 520.095 495.296 519.861 496.134 519.392C496.973 518.923 497.664 518.233 498.206 517.32C498.749 516.407 499.02 515.297 499.02 513.99C499.02 512.683 498.749 511.573 498.206 510.66C497.664 509.747 496.973 509.057 496.134 508.588C495.296 508.119 494.445 507.885 493.581 507.885C492.545 507.885 491.583 508.119 490.695 508.588C489.807 509.057 489.092 509.747 488.549 510.66C488.031 511.573 487.772 512.683 487.772 513.99Z" fill="#FFE161"/>
<path d="M467.929 530.64H464.969V505.48H467.929V530.64ZM482.174 513.99C482.174 515.815 481.791 517.394 481.027 518.726C480.262 520.058 479.238 521.082 477.956 521.797C476.698 522.512 475.292 522.87 473.738 522.87C472.332 522.87 471.086 522.512 470.001 521.797C468.94 521.082 468.101 520.058 467.485 518.726C466.893 517.394 466.597 515.815 466.597 513.99C466.597 512.14 466.893 510.561 467.485 509.254C468.101 507.922 468.94 506.898 470.001 506.183C471.086 505.468 472.332 505.11 473.738 505.11C475.292 505.11 476.698 505.468 477.956 506.183C479.238 506.898 480.262 507.922 481.027 509.254C481.791 510.561 482.174 512.14 482.174 513.99ZM479.177 513.99C479.177 512.683 478.905 511.573 478.363 510.66C477.845 509.747 477.142 509.057 476.254 508.588C475.39 508.119 474.428 507.885 473.368 507.885C472.504 507.885 471.653 508.119 470.815 508.588C469.976 509.057 469.285 509.747 468.743 510.66C468.2 511.573 467.929 512.683 467.929 513.99C467.929 515.297 468.2 516.407 468.743 517.32C469.285 518.233 469.976 518.923 470.815 519.392C471.653 519.861 472.504 520.095 473.368 520.095C474.428 520.095 475.39 519.861 476.254 519.392C477.142 518.923 477.845 518.233 478.363 517.32C478.905 516.407 479.177 515.297 479.177 513.99Z" fill="#FFE161"/>
<path d="M448.675 515.84C448.675 517.197 448.983 518.245 449.6 518.985C450.217 519.725 451.117 520.095 452.301 520.095C453.164 520.095 453.917 519.922 454.558 519.577C455.224 519.207 455.73 518.701 456.075 518.06C456.445 517.419 456.63 516.679 456.63 515.84V505.48H459.59V522.5H456.63V519.836C456.063 520.847 455.36 521.612 454.521 522.13C453.682 522.623 452.696 522.87 451.561 522.87C449.785 522.87 448.367 522.266 447.306 521.057C446.245 519.848 445.715 518.233 445.715 516.21V505.48H448.675V515.84Z" fill="#FFE161"/>
<path d="M424.899 505.48V522.5H421.939V505.48H424.899ZM430.042 508.736C429.648 508.44 429.29 508.23 428.969 508.107C428.649 507.959 428.242 507.885 427.748 507.885C427.008 507.885 426.429 508.07 426.009 508.44C425.59 508.81 425.294 509.316 425.121 509.957C424.973 510.598 424.899 511.326 424.899 512.14H423.567C423.567 510.783 423.802 509.587 424.27 508.551C424.764 507.49 425.393 506.652 426.157 506.035C426.922 505.418 427.699 505.11 428.488 505.11C429.105 505.11 429.672 505.196 430.19 505.369C430.733 505.517 431.226 505.825 431.67 506.294L430.042 508.736Z" fill="#FFE161"/>
<path d="M400.261 513.99C400.261 512.263 400.643 510.734 401.408 509.402C402.197 508.07 403.258 507.022 404.59 506.257C405.922 505.492 407.414 505.11 409.067 505.11C410.744 505.11 412.236 505.492 413.544 506.257C414.876 507.022 415.924 508.07 416.689 509.402C417.478 510.734 417.873 512.263 417.873 513.99C417.873 515.692 417.478 517.221 416.689 518.578C415.924 519.91 414.876 520.958 413.544 521.723C412.236 522.488 410.744 522.87 409.067 522.87C407.414 522.87 405.922 522.488 404.59 521.723C403.258 520.958 402.197 519.91 401.408 518.578C400.643 517.221 400.261 515.692 400.261 513.99ZM403.258 513.99C403.258 515.174 403.504 516.222 403.998 517.135C404.516 518.048 405.206 518.775 406.07 519.318C406.958 519.836 407.957 520.095 409.067 520.095C410.177 520.095 411.163 519.836 412.027 519.318C412.915 518.775 413.605 518.048 414.099 517.135C414.617 516.222 414.876 515.174 414.876 513.99C414.876 512.806 414.617 511.758 414.099 510.845C413.605 509.908 412.915 509.18 412.027 508.662C411.163 508.144 410.177 507.885 409.067 507.885C407.957 507.885 406.958 508.144 406.07 508.662C405.206 509.18 404.516 509.908 403.998 510.845C403.504 511.758 403.258 512.806 403.258 513.99Z" fill="#FFE161"/>
<path d="M389.859 505.48H398.369V508.255H389.859V505.48ZM398.073 497.192C397.826 496.773 397.53 496.514 397.185 496.415C396.864 496.292 396.556 496.23 396.26 496.23C395.89 496.23 395.569 496.341 395.298 496.563C395.051 496.76 394.854 497.106 394.706 497.599C394.558 498.092 394.484 498.746 394.484 499.56V522.5H391.524V499.19C391.524 497.833 391.721 496.723 392.116 495.86C392.511 494.997 393.066 494.355 393.781 493.936C394.521 493.492 395.409 493.27 396.445 493.27C396.988 493.27 397.469 493.344 397.888 493.492C398.307 493.64 398.665 493.825 398.961 494.047C399.282 494.269 399.528 494.503 399.701 494.75L398.073 497.192Z" fill="#FFE161"/>
<path d="M367.605 522.87C366.026 522.87 364.62 522.5 363.387 521.76C362.178 520.995 361.229 519.947 360.538 518.615C359.872 517.283 359.539 515.741 359.539 513.99C359.539 512.214 359.884 510.66 360.575 509.328C361.29 507.996 362.277 506.96 363.535 506.22C364.818 505.48 366.298 505.11 367.975 505.11C369.652 505.11 371.083 505.468 372.267 506.183C373.476 506.874 374.401 507.873 375.042 509.18C375.683 510.487 376.004 512.041 376.004 513.842C376.004 514.015 375.992 514.2 375.967 514.397C375.967 514.57 375.967 514.681 375.967 514.73H361.426V512.214H373.636L372.452 513.916C372.526 513.793 372.6 513.608 372.674 513.361C372.748 513.09 372.785 512.868 372.785 512.695C372.785 511.684 372.575 510.808 372.156 510.068C371.761 509.328 371.206 508.748 370.491 508.329C369.776 507.91 368.937 507.7 367.975 507.7C366.84 507.7 365.866 507.947 365.052 508.44C364.263 508.909 363.646 509.599 363.202 510.512C362.783 511.4 362.561 512.498 362.536 513.805C362.536 515.137 362.746 516.272 363.165 517.209C363.584 518.146 364.201 518.862 365.015 519.355C365.829 519.848 366.816 520.095 367.975 520.095C369.134 520.095 370.158 519.848 371.046 519.355C371.934 518.837 372.686 518.06 373.303 517.024L375.708 518.541C374.82 519.972 373.698 521.057 372.341 521.797C371.009 522.512 369.43 522.87 367.605 522.87Z" fill="#FFE161"/>
<path d="M349.541 505.48H358.051V508.255H349.541V505.48ZM352.316 499.56H355.276V522.5H352.316V499.56Z" fill="#FFE161"/>
<path d="M342.519 498.45C342.519 497.883 342.716 497.402 343.111 497.007C343.53 496.612 344.011 496.415 344.554 496.415C345.121 496.415 345.602 496.612 345.997 497.007C346.392 497.402 346.589 497.883 346.589 498.45C346.589 498.993 346.392 499.474 345.997 499.893C345.602 500.288 345.121 500.485 344.554 500.485C344.011 500.485 343.53 500.288 343.111 499.893C342.716 499.474 342.519 498.993 342.519 498.45ZM343.074 505.48H346.034V522.5H343.074V505.48Z" fill="#FFE161"/>
<path d="M328.299 517.283C328.645 517.801 329.039 518.282 329.483 518.726C329.927 519.17 330.433 519.528 331 519.799C331.592 520.046 332.234 520.169 332.924 520.169C333.763 520.169 334.417 519.984 334.885 519.614C335.379 519.219 335.625 518.689 335.625 518.023C335.625 517.431 335.428 516.938 335.033 516.543C334.663 516.124 334.182 515.778 333.59 515.507C332.998 515.211 332.369 514.94 331.703 514.693C330.963 514.397 330.211 514.052 329.446 513.657C328.706 513.238 328.077 512.707 327.559 512.066C327.066 511.4 326.819 510.574 326.819 509.587C326.819 508.576 327.078 507.737 327.596 507.071C328.139 506.405 328.83 505.912 329.668 505.591C330.532 505.27 331.42 505.11 332.332 505.11C333.245 505.11 334.096 505.258 334.885 505.554C335.699 505.85 336.415 506.245 337.031 506.738C337.648 507.231 338.129 507.799 338.474 508.44L336.106 509.957C335.638 509.316 335.046 508.785 334.33 508.366C333.64 507.947 332.85 507.737 331.962 507.737C331.346 507.737 330.815 507.873 330.371 508.144C329.927 508.415 329.705 508.835 329.705 509.402C329.705 509.846 329.878 510.241 330.223 510.586C330.569 510.931 331.013 511.24 331.555 511.511C332.098 511.782 332.665 512.041 333.257 512.288C334.244 512.683 335.144 513.114 335.958 513.583C336.772 514.027 337.414 514.57 337.882 515.211C338.376 515.852 338.622 516.679 338.622 517.69C338.622 519.17 338.08 520.403 336.994 521.39C335.934 522.377 334.528 522.87 332.776 522.87C331.642 522.87 330.618 522.673 329.705 522.278C328.793 521.859 328.016 521.328 327.374 520.687C326.758 520.046 326.289 519.392 325.968 518.726L328.299 517.283Z" fill="#FFE161"/>
<path d="M309.27 493.64V522.5H306.31V493.64H309.27ZM323.515 513.99C323.515 515.815 323.133 517.394 322.368 518.726C321.603 520.058 320.58 521.082 319.297 521.797C318.039 522.512 316.633 522.87 315.079 522.87C313.673 522.87 312.427 522.512 311.342 521.797C310.281 521.082 309.443 520.058 308.826 518.726C308.234 517.394 307.938 515.815 307.938 513.99C307.938 512.14 308.234 510.561 308.826 509.254C309.443 507.922 310.281 506.898 311.342 506.183C312.427 505.468 313.673 505.11 315.079 505.11C316.633 505.11 318.039 505.468 319.297 506.183C320.58 506.898 321.603 507.922 322.368 509.254C323.133 510.561 323.515 512.14 323.515 513.99ZM320.518 513.99C320.518 512.683 320.247 511.573 319.704 510.66C319.186 509.747 318.483 509.057 317.595 508.588C316.732 508.119 315.77 507.885 314.709 507.885C313.846 507.885 312.995 508.119 312.156 508.588C311.317 509.057 310.627 509.747 310.084 510.66C309.541 511.573 309.27 512.683 309.27 513.99C309.27 515.297 309.541 516.407 310.084 517.32C310.627 518.233 311.317 518.923 312.156 519.392C312.995 519.861 313.846 520.095 314.709 520.095C315.77 520.095 316.732 519.861 317.595 519.392C318.483 518.923 319.186 518.233 319.704 517.32C320.247 516.407 320.518 515.297 320.518 513.99Z" fill="#FFE161"/>
<path d="M294.039 522.87C292.46 522.87 291.054 522.5 289.821 521.76C288.612 520.995 287.662 519.947 286.972 518.615C286.306 517.283 285.973 515.741 285.973 513.99C285.973 512.214 286.318 510.66 287.009 509.328C287.724 507.996 288.711 506.96 289.969 506.22C291.251 505.48 292.731 505.11 294.409 505.11C296.086 505.11 297.517 505.468 298.701 506.183C299.909 506.874 300.834 507.873 301.476 509.18C302.117 510.487 302.438 512.041 302.438 513.842C302.438 514.015 302.425 514.2 302.401 514.397C302.401 514.57 302.401 514.681 302.401 514.73H287.86V512.214H300.07L298.886 513.916C298.96 513.793 299.034 513.608 299.108 513.361C299.182 513.09 299.219 512.868 299.219 512.695C299.219 511.684 299.009 510.808 298.59 510.068C298.195 509.328 297.64 508.748 296.925 508.329C296.209 507.91 295.371 507.7 294.409 507.7C293.274 507.7 292.3 507.947 291.486 508.44C290.696 508.909 290.08 509.599 289.636 510.512C289.216 511.4 288.994 512.498 288.97 513.805C288.97 515.137 289.179 516.272 289.599 517.209C290.018 518.146 290.635 518.862 291.449 519.355C292.263 519.848 293.249 520.095 294.409 520.095C295.568 520.095 296.592 519.848 297.48 519.355C298.368 518.837 299.12 518.06 299.737 517.024L302.142 518.541C301.254 519.972 300.131 521.057 298.775 521.797C297.443 522.512 295.864 522.87 294.039 522.87Z" fill="#FFE161"/>
<path d="M260.256 505.48H263.586L267.841 516.543L272.466 504.185L277.424 516.617L281.716 505.48H285.046L277.646 523.795L272.503 511.4L267.656 523.795L260.256 505.48Z" fill="#FFE161"/>
<path d="M242.031 505.48V522.5H239.071V505.48H242.031ZM247.174 508.736C246.779 508.44 246.421 508.23 246.101 508.107C245.78 507.959 245.373 507.885 244.88 507.885C244.14 507.885 243.56 508.07 243.141 508.44C242.721 508.81 242.425 509.316 242.253 509.957C242.105 510.598 242.031 511.326 242.031 512.14H240.699C240.699 510.783 240.933 509.587 241.402 508.551C241.895 507.49 242.524 506.652 243.289 506.035C244.053 505.418 244.83 505.11 245.62 505.11C246.236 505.11 246.804 505.196 247.322 505.369C247.864 505.517 248.358 505.825 248.802 506.294L247.174 508.736Z" fill="#FFE161"/>
<path d="M222.591 515.84C222.591 517.197 222.9 518.245 223.516 518.985C224.133 519.725 225.033 520.095 226.217 520.095C227.081 520.095 227.833 519.922 228.474 519.577C229.14 519.207 229.646 518.701 229.991 518.06C230.361 517.419 230.546 516.679 230.546 515.84V505.48H233.506V522.5H230.546V519.836C229.979 520.847 229.276 521.612 228.437 522.13C227.599 522.623 226.612 522.87 225.477 522.87C223.701 522.87 222.283 522.266 221.222 521.057C220.162 519.848 219.631 518.233 219.631 516.21V505.48H222.591V515.84Z" fill="#FFE161"/>
<path d="M197.953 513.99C197.953 512.263 198.335 510.734 199.1 509.402C199.889 508.07 200.95 507.022 202.282 506.257C203.614 505.492 205.106 505.11 206.759 505.11C208.436 505.11 209.929 505.492 211.236 506.257C212.568 507.022 213.616 508.07 214.381 509.402C215.17 510.734 215.565 512.263 215.565 513.99C215.565 515.692 215.17 517.221 214.381 518.578C213.616 519.91 212.568 520.958 211.236 521.723C209.929 522.488 208.436 522.87 206.759 522.87C205.106 522.87 203.614 522.488 202.282 521.723C200.95 520.958 199.889 519.91 199.1 518.578C198.335 517.221 197.953 515.692 197.953 513.99ZM200.95 513.99C200.95 515.174 201.197 516.222 201.69 517.135C202.208 518.048 202.899 518.775 203.762 519.318C204.65 519.836 205.649 520.095 206.759 520.095C207.869 520.095 208.856 519.836 209.719 519.318C210.607 518.775 211.298 518.048 211.791 517.135C212.309 516.222 212.568 515.174 212.568 513.99C212.568 512.806 212.309 511.758 211.791 510.845C211.298 509.908 210.607 509.18 209.719 508.662C208.856 508.144 207.869 507.885 206.759 507.885C205.649 507.885 204.65 508.144 203.762 508.662C202.899 509.18 202.208 509.908 201.69 510.845C201.197 511.758 200.95 512.806 200.95 513.99Z" fill="#FFE161"/>
<path d="M620.89 469.14C620.89 467.734 620.581 466.673 619.965 465.958C619.348 465.243 618.448 464.885 617.264 464.885C616.4 464.885 615.636 465.07 614.97 465.44C614.328 465.785 613.823 466.279 613.453 466.92C613.107 467.561 612.935 468.301 612.935 469.14V479.5H609.975V462.48H612.935V465.144C613.502 464.108 614.205 463.343 615.044 462.85C615.907 462.357 616.894 462.11 618.004 462.11C619.804 462.11 621.223 462.714 622.259 463.923C623.319 465.107 623.85 466.723 623.85 468.77V479.5H620.89V469.14Z" fill="#FFE161"/>
<path d="M588.296 470.99C588.296 469.263 588.678 467.734 589.443 466.402C590.232 465.07 591.293 464.022 592.625 463.257C593.957 462.492 595.449 462.11 597.102 462.11C598.779 462.11 600.272 462.492 601.579 463.257C602.911 464.022 603.959 465.07 604.724 466.402C605.513 467.734 605.908 469.263 605.908 470.99C605.908 472.692 605.513 474.221 604.724 475.578C603.959 476.91 602.911 477.958 601.579 478.723C600.272 479.488 598.779 479.87 597.102 479.87C595.449 479.87 593.957 479.488 592.625 478.723C591.293 477.958 590.232 476.91 589.443 475.578C588.678 474.221 588.296 472.692 588.296 470.99ZM591.293 470.99C591.293 472.174 591.54 473.222 592.033 474.135C592.551 475.048 593.242 475.775 594.105 476.318C594.993 476.836 595.992 477.095 597.102 477.095C598.212 477.095 599.199 476.836 600.062 476.318C600.95 475.775 601.641 475.048 602.134 474.135C602.652 473.222 602.911 472.174 602.911 470.99C602.911 469.806 602.652 468.758 602.134 467.845C601.641 466.908 600.95 466.18 600.062 465.662C599.199 465.144 598.212 464.885 597.102 464.885C595.992 464.885 594.993 465.144 594.105 465.662C593.242 466.18 592.551 466.908 592.033 467.845C591.54 468.758 591.293 469.806 591.293 470.99Z" fill="#FFE161"/>
<path d="M566.227 479.87C564.648 479.87 563.242 479.5 562.009 478.76C560.8 477.995 559.851 476.947 559.16 475.615C558.494 474.283 558.161 472.741 558.161 470.99C558.161 469.214 558.506 467.66 559.197 466.328C559.912 464.996 560.899 463.96 562.157 463.22C563.44 462.48 564.92 462.11 566.597 462.11C568.274 462.11 569.705 462.468 570.889 463.183C572.098 463.874 573.023 464.873 573.664 466.18C574.305 467.487 574.626 469.041 574.626 470.842C574.626 471.015 574.614 471.2 574.589 471.397C574.589 471.57 574.589 471.681 574.589 471.73H560.048V469.214H572.258L571.074 470.916C571.148 470.793 571.222 470.608 571.296 470.361C571.37 470.09 571.407 469.868 571.407 469.695C571.407 468.684 571.197 467.808 570.778 467.068C570.383 466.328 569.828 465.748 569.113 465.329C568.398 464.91 567.559 464.7 566.597 464.7C565.462 464.7 564.488 464.947 563.674 465.44C562.885 465.909 562.268 466.599 561.824 467.512C561.405 468.4 561.183 469.498 561.158 470.805C561.158 472.137 561.368 473.272 561.787 474.209C562.206 475.146 562.823 475.862 563.637 476.355C564.451 476.848 565.438 477.095 566.597 477.095C567.756 477.095 568.78 476.848 569.668 476.355C570.556 475.837 571.308 475.06 571.925 474.024L574.33 475.541C573.442 476.972 572.32 478.057 570.963 478.797C569.631 479.512 568.052 479.87 566.227 479.87Z" fill="#FFE161"/>
<path d="M557.392 462.48L546.292 487.64H542.962L547.624 477.095L541.112 462.48H544.627L550.029 475.8L548.808 475.652L554.062 462.48H557.392Z" fill="#FFE161"/>
<path d="M531.973 479.87C530.395 479.87 528.989 479.5 527.755 478.76C526.547 477.995 525.597 476.947 524.906 475.615C524.24 474.283 523.907 472.741 523.907 470.99C523.907 469.214 524.253 467.66 524.943 466.328C525.659 464.996 526.645 463.96 527.903 463.22C529.186 462.48 530.666 462.11 532.343 462.11C534.021 462.11 535.451 462.468 536.635 463.183C537.844 463.874 538.769 464.873 539.41 466.18C540.052 467.487 540.372 469.041 540.372 470.842C540.372 471.015 540.36 471.2 540.335 471.397C540.335 471.57 540.335 471.681 540.335 471.73H525.794V469.214H538.004L536.82 470.916C536.894 470.793 536.968 470.608 537.042 470.361C537.116 470.09 537.153 469.868 537.153 469.695C537.153 468.684 536.944 467.808 536.524 467.068C536.13 466.328 535.575 465.748 534.859 465.329C534.144 464.91 533.305 464.7 532.343 464.7C531.209 464.7 530.234 464.947 529.42 465.44C528.631 465.909 528.014 466.599 527.57 467.512C527.151 468.4 526.929 469.498 526.904 470.805C526.904 472.137 527.114 473.272 527.533 474.209C527.953 475.146 528.569 475.862 529.383 476.355C530.197 476.848 531.184 477.095 532.343 477.095C533.503 477.095 534.526 476.848 535.414 476.355C536.302 475.837 537.055 475.06 537.671 474.024L540.076 475.541C539.188 476.972 538.066 478.057 536.709 478.797C535.377 479.512 533.799 479.87 531.973 479.87Z" fill="#FFE161"/>
<path d="M505.77 469.14C505.77 467.734 505.462 466.673 504.845 465.958C504.229 465.243 503.328 464.885 502.144 464.885C501.281 464.885 500.516 465.07 499.85 465.44C499.209 465.785 498.703 466.279 498.333 466.92C497.988 467.561 497.815 468.301 497.815 469.14V479.5H494.855V462.48H497.815V465.144C498.383 464.108 499.086 463.343 499.924 462.85C500.788 462.357 501.774 462.11 502.884 462.11C504.685 462.11 506.103 462.714 507.139 463.923C508.2 465.107 508.73 466.723 508.73 468.77V479.5H505.77V469.14Z" fill="#FFE161"/>
<path d="M478.374 474.246C478.374 474.887 478.522 475.442 478.818 475.911C479.139 476.38 479.57 476.737 480.113 476.984C480.68 477.206 481.322 477.317 482.037 477.317C482.95 477.317 483.764 477.132 484.479 476.762C485.219 476.392 485.799 475.874 486.218 475.208C486.662 474.517 486.884 473.728 486.884 472.84L487.476 475.06C487.476 476.145 487.143 477.046 486.477 477.761C485.836 478.476 485.034 479.007 484.072 479.352C483.135 479.697 482.197 479.87 481.26 479.87C480.224 479.87 479.25 479.66 478.337 479.241C477.449 478.797 476.734 478.168 476.191 477.354C475.648 476.54 475.377 475.553 475.377 474.394C475.377 472.741 475.957 471.422 477.116 470.435C478.3 469.424 479.94 468.918 482.037 468.918C483.27 468.918 484.294 469.066 485.108 469.362C485.947 469.633 486.613 469.954 487.106 470.324C487.599 470.669 487.932 470.953 488.105 471.175V472.914C487.242 472.322 486.354 471.903 485.441 471.656C484.528 471.385 483.554 471.249 482.518 471.249C481.556 471.249 480.767 471.372 480.15 471.619C479.558 471.866 479.114 472.211 478.818 472.655C478.522 473.099 478.374 473.629 478.374 474.246ZM477.93 466.402L476.487 464.219C477.128 463.75 478.004 463.282 479.114 462.813C480.249 462.344 481.605 462.11 483.184 462.11C484.516 462.11 485.675 462.32 486.662 462.739C487.673 463.134 488.45 463.713 488.993 464.478C489.56 465.243 489.844 466.18 489.844 467.29V479.5H486.884V467.697C486.884 467.105 486.785 466.624 486.588 466.254C486.391 465.859 486.107 465.551 485.737 465.329C485.392 465.107 484.985 464.947 484.516 464.848C484.047 464.749 483.554 464.7 483.036 464.7C482.197 464.7 481.433 464.799 480.742 464.996C480.076 465.193 479.509 465.428 479.04 465.699C478.571 465.97 478.201 466.205 477.93 466.402Z" fill="#FFE161"/>
<path d="M447.622 487.64H444.662V462.48H447.622V487.64ZM461.867 470.99C461.867 472.815 461.485 474.394 460.72 475.726C459.955 477.058 458.932 478.082 457.649 478.797C456.391 479.512 454.985 479.87 453.431 479.87C452.025 479.87 450.779 479.512 449.694 478.797C448.633 478.082 447.795 477.058 447.178 475.726C446.586 474.394 446.29 472.815 446.29 470.99C446.29 469.14 446.586 467.561 447.178 466.254C447.795 464.922 448.633 463.898 449.694 463.183C450.779 462.468 452.025 462.11 453.431 462.11C454.985 462.11 456.391 462.468 457.649 463.183C458.932 463.898 459.955 464.922 460.72 466.254C461.485 467.561 461.867 469.14 461.867 470.99ZM458.87 470.99C458.87 469.683 458.599 468.573 458.056 467.66C457.538 466.747 456.835 466.057 455.947 465.588C455.084 465.119 454.122 464.885 453.061 464.885C452.198 464.885 451.347 465.119 450.508 465.588C449.669 466.057 448.979 466.747 448.436 467.66C447.893 468.573 447.622 469.683 447.622 470.99C447.622 472.297 447.893 473.407 448.436 474.32C448.979 475.233 449.669 475.923 450.508 476.392C451.347 476.861 452.198 477.095 453.061 477.095C454.122 477.095 455.084 476.861 455.947 476.392C456.835 475.923 457.538 475.233 458.056 474.32C458.599 473.407 458.87 472.297 458.87 470.99Z" fill="#FFE161"/>
<path d="M432.391 479.87C430.813 479.87 429.407 479.5 428.173 478.76C426.965 477.995 426.015 476.947 425.324 475.615C424.658 474.283 424.325 472.741 424.325 470.99C424.325 469.214 424.671 467.66 425.361 466.328C426.077 464.996 427.063 463.96 428.321 463.22C429.604 462.48 431.084 462.11 432.761 462.11C434.439 462.11 435.869 462.468 437.053 463.183C438.262 463.874 439.187 464.873 439.828 466.18C440.47 467.487 440.79 469.041 440.79 470.842C440.79 471.015 440.778 471.2 440.753 471.397C440.753 471.57 440.753 471.681 440.753 471.73H426.212V469.214H438.422L437.238 470.916C437.312 470.793 437.386 470.608 437.46 470.361C437.534 470.09 437.571 469.868 437.571 469.695C437.571 468.684 437.362 467.808 436.942 467.068C436.548 466.328 435.993 465.748 435.277 465.329C434.562 464.91 433.723 464.7 432.761 464.7C431.627 464.7 430.652 464.947 429.838 465.44C429.049 465.909 428.432 466.599 427.988 467.512C427.569 468.4 427.347 469.498 427.322 470.805C427.322 472.137 427.532 473.272 427.951 474.209C428.371 475.146 428.987 475.862 429.801 476.355C430.615 476.848 431.602 477.095 432.761 477.095C433.921 477.095 434.944 476.848 435.832 476.355C436.72 475.837 437.473 475.06 438.089 474.024L440.494 475.541C439.606 476.972 438.484 478.057 437.127 478.797C435.795 479.512 434.217 479.87 432.391 479.87Z" fill="#FFE161"/>
<path d="M413.349 479.87C411.771 479.87 410.365 479.5 409.131 478.76C407.923 477.995 406.973 476.947 406.282 475.615C405.616 474.283 405.283 472.741 405.283 470.99C405.283 469.214 405.629 467.66 406.319 466.328C407.035 464.996 408.021 463.96 409.279 463.22C410.562 462.48 412.042 462.11 413.719 462.11C415.397 462.11 416.827 462.468 418.011 463.183C419.22 463.874 420.145 464.873 420.786 466.18C421.428 467.487 421.748 469.041 421.748 470.842C421.748 471.015 421.736 471.2 421.711 471.397C421.711 471.57 421.711 471.681 421.711 471.73H407.17V469.214H419.38L418.196 470.916C418.27 470.793 418.344 470.608 418.418 470.361C418.492 470.09 418.529 469.868 418.529 469.695C418.529 468.684 418.32 467.808 417.9 467.068C417.506 466.328 416.951 465.748 416.235 465.329C415.52 464.91 414.681 464.7 413.719 464.7C412.585 464.7 411.61 464.947 410.796 465.44C410.007 465.909 409.39 466.599 408.946 467.512C408.527 468.4 408.305 469.498 408.28 470.805C408.28 472.137 408.49 473.272 408.909 474.209C409.329 475.146 409.945 475.862 410.759 476.355C411.573 476.848 412.56 477.095 413.719 477.095C414.879 477.095 415.902 476.848 416.79 476.355C417.678 475.837 418.431 475.06 419.047 474.024L421.452 475.541C420.564 476.972 419.442 478.057 418.085 478.797C416.753 479.512 415.175 479.87 413.349 479.87Z" fill="#FFE161"/>
<path d="M387.147 453.6H390.292V479.5H387.147V453.6ZM400.467 453.6H404.352L393.141 465.736L404.907 479.5H401.022L389.33 465.81L400.467 453.6Z" fill="#FFE161"/>
<path d="M365.517 478.02C365.517 477.453 365.714 476.972 366.109 476.577C366.528 476.182 367.009 475.985 367.552 475.985C368.119 475.985 368.6 476.182 368.995 476.577C369.39 476.972 369.587 477.453 369.587 478.02C369.587 478.563 369.39 479.044 368.995 479.463C368.6 479.858 368.119 480.055 367.552 480.055C367.009 480.055 366.528 479.858 366.109 479.463C365.714 479.044 365.517 478.563 365.517 478.02Z" fill="#FFE161"/>
<path d="M356.252 469.14C356.252 467.734 355.944 466.673 355.327 465.958C354.711 465.243 353.81 464.885 352.626 464.885C351.763 464.885 350.998 465.07 350.332 465.44C349.691 465.785 349.185 466.279 348.815 466.92C348.47 467.561 348.297 468.301 348.297 469.14V479.5H345.337V462.48H348.297V465.144C348.865 464.108 349.568 463.343 350.406 462.85C351.27 462.357 352.256 462.11 353.366 462.11C355.167 462.11 356.585 462.714 357.621 463.923C358.682 465.107 359.212 466.723 359.212 468.77V479.5H356.252V469.14Z" fill="#FFE161"/>
<path d="M323.659 470.99C323.659 469.263 324.042 467.734 324.806 466.402C325.596 465.07 326.656 464.022 327.988 463.257C329.32 462.492 330.813 462.11 332.465 462.11C334.143 462.11 335.635 462.492 336.942 463.257C338.274 464.022 339.323 465.07 340.087 466.402C340.877 467.734 341.271 469.263 341.271 470.99C341.271 472.692 340.877 474.221 340.087 475.578C339.323 476.91 338.274 477.958 336.942 478.723C335.635 479.488 334.143 479.87 332.465 479.87C330.813 479.87 329.32 479.488 327.988 478.723C326.656 477.958 325.596 476.91 324.806 475.578C324.042 474.221 323.659 472.692 323.659 470.99ZM326.656 470.99C326.656 472.174 326.903 473.222 327.396 474.135C327.914 475.048 328.605 475.775 329.468 476.318C330.356 476.836 331.355 477.095 332.465 477.095C333.575 477.095 334.562 476.836 335.425 476.318C336.313 475.775 337.004 475.048 337.497 474.135C338.015 473.222 338.274 472.174 338.274 470.99C338.274 469.806 338.015 468.758 337.497 467.845C337.004 466.908 336.313 466.18 335.425 465.662C334.562 465.144 333.575 464.885 332.465 464.885C331.355 464.885 330.356 465.144 329.468 465.662C328.605 466.18 327.914 466.908 327.396 467.845C326.903 468.758 326.656 469.806 326.656 470.99Z" fill="#FFE161"/>
<path d="M303.461 470.99C303.461 469.263 303.843 467.734 304.608 466.402C305.397 465.07 306.458 464.022 307.79 463.257C309.122 462.492 310.614 462.11 312.267 462.11C313.944 462.11 315.437 462.492 316.744 463.257C318.076 464.022 319.124 465.07 319.889 466.402C320.678 467.734 321.073 469.263 321.073 470.99C321.073 472.692 320.678 474.221 319.889 475.578C319.124 476.91 318.076 477.958 316.744 478.723C315.437 479.488 313.944 479.87 312.267 479.87C310.614 479.87 309.122 479.488 307.79 478.723C306.458 477.958 305.397 476.91 304.608 475.578C303.843 474.221 303.461 472.692 303.461 470.99ZM306.458 470.99C306.458 472.174 306.705 473.222 307.198 474.135C307.716 475.048 308.407 475.775 309.27 476.318C310.158 476.836 311.157 477.095 312.267 477.095C313.377 477.095 314.364 476.836 315.227 476.318C316.115 475.775 316.806 475.048 317.299 474.135C317.817 473.222 318.076 472.174 318.076 470.99C318.076 469.806 317.817 468.758 317.299 467.845C316.806 466.908 316.115 466.18 315.227 465.662C314.364 465.144 313.377 464.885 312.267 464.885C311.157 464.885 310.158 465.144 309.27 465.662C308.407 466.18 307.716 466.908 307.198 467.845C306.705 468.758 306.458 469.806 306.458 470.99Z" fill="#FFE161"/>
<path d="M290.721 474.283C291.066 474.801 291.461 475.282 291.905 475.726C292.349 476.17 292.855 476.528 293.422 476.799C294.014 477.046 294.655 477.169 295.346 477.169C296.185 477.169 296.838 476.984 297.307 476.614C297.8 476.219 298.047 475.689 298.047 475.023C298.047 474.431 297.85 473.938 297.455 473.543C297.085 473.124 296.604 472.778 296.012 472.507C295.42 472.211 294.791 471.94 294.125 471.693C293.385 471.397 292.633 471.052 291.868 470.657C291.128 470.238 290.499 469.707 289.981 469.066C289.488 468.4 289.241 467.574 289.241 466.587C289.241 465.576 289.5 464.737 290.018 464.071C290.561 463.405 291.251 462.912 292.09 462.591C292.953 462.27 293.841 462.11 294.754 462.11C295.667 462.11 296.518 462.258 297.307 462.554C298.121 462.85 298.836 463.245 299.453 463.738C300.07 464.231 300.551 464.799 300.896 465.44L298.528 466.957C298.059 466.316 297.467 465.785 296.752 465.366C296.061 464.947 295.272 464.737 294.384 464.737C293.767 464.737 293.237 464.873 292.793 465.144C292.349 465.415 292.127 465.835 292.127 466.402C292.127 466.846 292.3 467.241 292.645 467.586C292.99 467.931 293.434 468.24 293.977 468.511C294.52 468.782 295.087 469.041 295.679 469.288C296.666 469.683 297.566 470.114 298.38 470.583C299.194 471.027 299.835 471.57 300.304 472.211C300.797 472.852 301.044 473.679 301.044 474.69C301.044 476.17 300.501 477.403 299.416 478.39C298.355 479.377 296.949 479.87 295.198 479.87C294.063 479.87 293.04 479.673 292.127 479.278C291.214 478.859 290.437 478.328 289.796 477.687C289.179 477.046 288.711 476.392 288.39 475.726L290.721 474.283Z" fill="#FFE161"/>
<path d="M267.447 462.48H275.957V465.255H267.447V462.48ZM270.222 456.56H273.182V479.5H270.222V456.56Z" fill="#FFE161"/>
<path d="M260.425 455.45C260.425 454.883 260.623 454.402 261.017 454.007C261.437 453.612 261.918 453.415 262.46 453.415C263.028 453.415 263.509 453.612 263.903 454.007C264.298 454.402 264.495 454.883 264.495 455.45C264.495 455.993 264.298 456.474 263.903 456.893C263.509 457.288 263.028 457.485 262.46 457.485C261.918 457.485 261.437 457.288 261.017 456.893C260.623 456.474 260.425 455.993 260.425 455.45ZM260.98 462.48H263.94V479.5H260.98V462.48Z" fill="#FFE161"/>
<path d="M221.594 462.48H224.924L229.179 473.543L233.804 461.185L238.762 473.617L243.054 462.48H246.384L238.984 480.795L233.841 468.4L228.994 480.795L221.594 462.48Z" fill="#FFE161"/>
<path d="M212.27 479.87C210.691 479.87 209.285 479.5 208.052 478.76C206.843 477.995 205.894 476.947 205.203 475.615C204.537 474.283 204.204 472.741 204.204 470.99C204.204 469.214 204.549 467.66 205.24 466.328C205.955 464.996 206.942 463.96 208.2 463.22C209.483 462.48 210.963 462.11 212.64 462.11C214.317 462.11 215.748 462.468 216.932 463.183C218.141 463.874 219.066 464.873 219.707 466.18C220.348 467.487 220.669 469.041 220.669 470.842C220.669 471.015 220.657 471.2 220.632 471.397C220.632 471.57 220.632 471.681 220.632 471.73H206.091V469.214H218.301L217.117 470.916C217.191 470.793 217.265 470.608 217.339 470.361C217.413 470.09 217.45 469.868 217.45 469.695C217.45 468.684 217.24 467.808 216.821 467.068C216.426 466.328 215.871 465.748 215.156 465.329C214.441 464.91 213.602 464.7 212.64 464.7C211.505 464.7 210.531 464.947 209.717 465.44C208.928 465.909 208.311 466.599 207.867 467.512C207.448 468.4 207.226 469.498 207.201 470.805C207.201 472.137 207.411 473.272 207.83 474.209C208.249 475.146 208.866 475.862 209.68 476.355C210.494 476.848 211.481 477.095 212.64 477.095C213.799 477.095 214.823 476.848 215.711 476.355C216.599 475.837 217.351 475.06 217.968 474.024L220.373 475.541C219.485 476.972 218.363 478.057 217.006 478.797C215.674 479.512 214.095 479.87 212.27 479.87Z" fill="#FFE161"/>
<path d="M196.073 455.45C196.073 454.883 196.27 454.402 196.665 454.007C197.084 453.612 197.565 453.415 198.108 453.415C198.675 453.415 199.156 453.612 199.551 454.007C199.945 454.402 200.143 454.883 200.143 455.45C200.143 455.993 199.945 456.474 199.551 456.893C199.156 457.288 198.675 457.485 198.108 457.485C197.565 457.485 197.084 457.288 196.665 456.893C196.27 456.474 196.073 455.993 196.073 455.45ZM196.628 462.48H199.588V479.5H196.628V462.48Z" fill="#FFE161"/>
<path d="M177.002 462.48H180.332L185.142 474.505L189.952 462.48H193.282L185.142 480.795L177.002 462.48Z" fill="#FFE161"/>
<path d="M167.863 479.87C166.284 479.87 164.878 479.5 163.645 478.76C162.436 477.995 161.487 476.947 160.796 475.615C160.13 474.283 159.797 472.741 159.797 470.99C159.797 469.214 160.142 467.66 160.833 466.328C161.548 464.996 162.535 463.96 163.793 463.22C165.076 462.48 166.556 462.11 168.233 462.11C169.91 462.11 171.341 462.468 172.525 463.183C173.734 463.874 174.659 464.873 175.3 466.18C175.941 467.487 176.262 469.041 176.262 470.842C176.262 471.015 176.25 471.2 176.225 471.397C176.225 471.57 176.225 471.681 176.225 471.73H161.684V469.214H173.894L172.71 470.916C172.784 470.793 172.858 470.608 172.932 470.361C173.006 470.09 173.043 469.868 173.043 469.695C173.043 468.684 172.833 467.808 172.414 467.068C172.019 466.328 171.464 465.748 170.749 465.329C170.034 464.91 169.195 464.7 168.233 464.7C167.098 464.7 166.124 464.947 165.31 465.44C164.521 465.909 163.904 466.599 163.46 467.512C163.041 468.4 162.819 469.498 162.794 470.805C162.794 472.137 163.004 473.272 163.423 474.209C163.842 475.146 164.459 475.862 165.273 476.355C166.087 476.848 167.074 477.095 168.233 477.095C169.392 477.095 170.416 476.848 171.304 476.355C172.192 475.837 172.944 475.06 173.561 474.024L175.966 475.541C175.078 476.972 173.956 478.057 172.599 478.797C171.267 479.512 169.688 479.87 167.863 479.87Z" fill="#FFE161"/>
<path d="M152.096 462.48V479.5H149.136V462.48H152.096ZM157.239 465.736C156.845 465.44 156.487 465.23 156.166 465.107C155.846 464.959 155.439 464.885 154.945 464.885C154.205 464.885 153.626 465.07 153.206 465.44C152.787 465.81 152.491 466.316 152.318 466.957C152.17 467.598 152.096 468.326 152.096 469.14H150.764C150.764 467.783 150.999 466.587 151.467 465.551C151.961 464.49 152.59 463.652 153.354 463.035C154.119 462.418 154.896 462.11 155.685 462.11C156.302 462.11 156.869 462.196 157.387 462.369C157.93 462.517 158.423 462.825 158.867 463.294L157.239 465.736Z" fill="#FFE161"/>
<path d="M647.155 407.64H650.115V436.5H647.155V407.64Z" fill="#FFE161"/>
<path d="M638.628 407.64H641.588V436.5H638.628V407.64Z" fill="#FFE161"/>
<path d="M629.017 412.45C629.017 411.883 629.214 411.402 629.609 411.007C630.028 410.612 630.509 410.415 631.052 410.415C631.619 410.415 632.1 410.612 632.495 411.007C632.889 411.402 633.087 411.883 633.087 412.45C633.087 412.993 632.889 413.474 632.495 413.893C632.1 414.288 631.619 414.485 631.052 414.485C630.509 414.485 630.028 414.288 629.609 413.893C629.214 413.474 629.017 412.993 629.017 412.45ZM629.572 419.48H632.532V436.5H629.572V419.48Z" fill="#FFE161"/>
<path d="M601.278 419.48H604.608L608.863 430.543L613.488 418.185L618.446 430.617L622.738 419.48H626.068L618.668 437.795L613.525 425.4L608.678 437.795L601.278 419.48Z" fill="#FFE161"/>
<path d="M584.438 407.64H587.398V436.5H584.438V407.64ZM570.193 427.99C570.193 426.14 570.576 424.561 571.34 423.254C572.105 421.922 573.129 420.898 574.411 420.183C575.694 419.468 577.1 419.11 578.629 419.11C580.06 419.11 581.306 419.468 582.366 420.183C583.427 420.898 584.253 421.922 584.845 423.254C585.462 424.561 585.77 426.14 585.77 427.99C585.77 429.815 585.462 431.394 584.845 432.726C584.253 434.058 583.427 435.082 582.366 435.797C581.306 436.512 580.06 436.87 578.629 436.87C577.1 436.87 575.694 436.512 574.411 435.797C573.129 435.082 572.105 434.058 571.34 432.726C570.576 431.394 570.193 429.815 570.193 427.99ZM573.19 427.99C573.19 429.297 573.449 430.407 573.967 431.32C574.51 432.233 575.225 432.923 576.113 433.392C577.001 433.861 577.963 434.095 578.999 434.095C579.863 434.095 580.714 433.861 581.552 433.392C582.391 432.923 583.082 432.233 583.624 431.32C584.167 430.407 584.438 429.297 584.438 427.99C584.438 426.683 584.167 425.573 583.624 424.66C583.082 423.747 582.391 423.057 581.552 422.588C580.714 422.119 579.863 421.885 578.999 421.885C577.963 421.885 577.001 422.119 576.113 422.588C575.225 423.057 574.51 423.747 573.967 424.66C573.449 425.573 573.19 426.683 573.19 427.99Z" fill="#FFE161"/>
<path d="M563.149 426.14C563.149 424.734 562.841 423.673 562.224 422.958C561.608 422.243 560.707 421.885 559.523 421.885C558.66 421.885 557.895 422.07 557.229 422.44C556.588 422.785 556.082 423.279 555.712 423.92C555.367 424.561 555.194 425.301 555.194 426.14V436.5H552.234V419.48H555.194V422.144C555.762 421.108 556.465 420.343 557.303 419.85C558.167 419.357 559.153 419.11 560.263 419.11C562.064 419.11 563.482 419.714 564.518 420.923C565.579 422.107 566.109 423.723 566.109 425.77V436.5H563.149V426.14Z" fill="#FFE161"/>
<path d="M535.753 431.246C535.753 431.887 535.901 432.442 536.197 432.911C536.518 433.38 536.949 433.737 537.492 433.984C538.059 434.206 538.701 434.317 539.416 434.317C540.329 434.317 541.143 434.132 541.858 433.762C542.598 433.392 543.178 432.874 543.597 432.208C544.041 431.517 544.263 430.728 544.263 429.84L544.855 432.06C544.855 433.145 544.522 434.046 543.856 434.761C543.215 435.476 542.413 436.007 541.451 436.352C540.514 436.697 539.576 436.87 538.639 436.87C537.603 436.87 536.629 436.66 535.716 436.241C534.828 435.797 534.113 435.168 533.57 434.354C533.027 433.54 532.756 432.553 532.756 431.394C532.756 429.741 533.336 428.422 534.495 427.435C535.679 426.424 537.319 425.918 539.416 425.918C540.649 425.918 541.673 426.066 542.487 426.362C543.326 426.633 543.992 426.954 544.485 427.324C544.978 427.669 545.311 427.953 545.484 428.175V429.914C544.621 429.322 543.733 428.903 542.82 428.656C541.907 428.385 540.933 428.249 539.897 428.249C538.935 428.249 538.146 428.372 537.529 428.619C536.937 428.866 536.493 429.211 536.197 429.655C535.901 430.099 535.753 430.629 535.753 431.246ZM535.309 423.402L533.866 421.219C534.507 420.75 535.383 420.282 536.493 419.813C537.628 419.344 538.984 419.11 540.563 419.11C541.895 419.11 543.054 419.32 544.041 419.739C545.052 420.134 545.829 420.713 546.372 421.478C546.939 422.243 547.223 423.18 547.223 424.29V436.5H544.263V424.697C544.263 424.105 544.164 423.624 543.967 423.254C543.77 422.859 543.486 422.551 543.116 422.329C542.771 422.107 542.364 421.947 541.895 421.848C541.426 421.749 540.933 421.7 540.415 421.7C539.576 421.7 538.812 421.799 538.121 421.996C537.455 422.193 536.888 422.428 536.419 422.699C535.95 422.97 535.58 423.205 535.309 423.402Z" fill="#FFE161"/>
<path d="M506.849 407.64V436.5H503.889V407.64H506.849ZM514.804 426.14C514.804 424.734 514.495 423.673 513.879 422.958C513.287 422.243 512.386 421.885 511.178 421.885C510.314 421.885 509.55 422.07 508.884 422.44C508.242 422.81 507.737 423.316 507.367 423.957C507.021 424.598 506.849 425.326 506.849 426.14H505.887C505.887 424.783 506.146 423.587 506.664 422.551C507.182 421.49 507.885 420.652 508.773 420.035C509.685 419.418 510.734 419.11 511.918 419.11C513.102 419.11 514.125 419.357 514.989 419.85C515.877 420.343 516.555 421.083 517.024 422.07C517.517 423.057 517.764 424.29 517.764 425.77V436.5H514.804V426.14Z" fill="#FFE161"/>
<path d="M489.668 431.283C490.014 431.801 490.408 432.282 490.852 432.726C491.296 433.17 491.802 433.528 492.369 433.799C492.961 434.046 493.603 434.169 494.293 434.169C495.132 434.169 495.786 433.984 496.254 433.614C496.748 433.219 496.994 432.689 496.994 432.023C496.994 431.431 496.797 430.938 496.402 430.543C496.032 430.124 495.551 429.778 494.959 429.507C494.367 429.211 493.738 428.94 493.072 428.693C492.332 428.397 491.58 428.052 490.815 427.657C490.075 427.238 489.446 426.707 488.928 426.066C488.435 425.4 488.188 424.574 488.188 423.587C488.188 422.576 488.447 421.737 488.965 421.071C489.508 420.405 490.199 419.912 491.037 419.591C491.901 419.27 492.789 419.11 493.701 419.11C494.614 419.11 495.465 419.258 496.254 419.554C497.068 419.85 497.784 420.245 498.4 420.738C499.017 421.231 499.498 421.799 499.843 422.44L497.475 423.957C497.007 423.316 496.415 422.785 495.699 422.366C495.009 421.947 494.219 421.737 493.331 421.737C492.715 421.737 492.184 421.873 491.74 422.144C491.296 422.415 491.074 422.835 491.074 423.402C491.074 423.846 491.247 424.241 491.592 424.586C491.938 424.931 492.382 425.24 492.924 425.511C493.467 425.782 494.034 426.041 494.626 426.288C495.613 426.683 496.513 427.114 497.327 427.583C498.141 428.027 498.783 428.57 499.251 429.211C499.745 429.852 499.991 430.679 499.991 431.69C499.991 433.17 499.449 434.403 498.363 435.39C497.303 436.377 495.897 436.87 494.145 436.87C493.011 436.87 491.987 436.673 491.074 436.278C490.162 435.859 489.385 435.328 488.743 434.687C488.127 434.046 487.658 433.392 487.337 432.726L489.668 431.283Z" fill="#FFE161"/>
<path d="M479.354 412.45C479.354 411.883 479.552 411.402 479.947 411.007C480.366 410.612 480.847 410.415 481.389 410.415C481.957 410.415 482.438 410.612 482.832 411.007C483.227 411.402 483.424 411.883 483.424 412.45C483.424 412.993 483.227 413.474 482.832 413.893C482.438 414.288 481.957 414.485 481.389 414.485C480.847 414.485 480.366 414.288 479.947 413.893C479.552 413.474 479.354 412.993 479.354 412.45ZM479.909 419.48H482.87V436.5H479.909V419.48Z" fill="#FFE161"/>
<path d="M451.616 419.48H454.946L459.201 430.543L463.826 418.185L468.784 430.617L473.076 419.48H476.406L469.006 437.795L463.863 425.4L459.016 437.795L451.616 419.48Z" fill="#FFE161"/>
<path d="M433.391 419.48V436.5H430.431V419.48H433.391ZM438.534 422.736C438.139 422.44 437.781 422.23 437.461 422.107C437.14 421.959 436.733 421.885 436.24 421.885C435.5 421.885 434.92 422.07 434.501 422.44C434.081 422.81 433.785 423.316 433.613 423.957C433.465 424.598 433.391 425.326 433.391 426.14H432.059C432.059 424.783 432.293 423.587 432.762 422.551C433.255 421.49 433.884 420.652 434.649 420.035C435.413 419.418 436.19 419.11 436.98 419.11C437.596 419.11 438.164 419.196 438.682 419.369C439.224 419.517 439.718 419.825 440.162 420.294L438.534 422.736Z" fill="#FFE161"/>
<path d="M413.951 429.84C413.951 431.197 414.26 432.245 414.876 432.985C415.493 433.725 416.393 434.095 417.577 434.095C418.441 434.095 419.193 433.922 419.834 433.577C420.5 433.207 421.006 432.701 421.351 432.06C421.721 431.419 421.906 430.679 421.906 429.84V419.48H424.866V436.5H421.906V433.836C421.339 434.847 420.636 435.612 419.797 436.13C418.959 436.623 417.972 436.87 416.837 436.87C415.061 436.87 413.643 436.266 412.582 435.057C411.522 433.848 410.991 432.233 410.991 430.21V419.48H413.951V429.84Z" fill="#FFE161"/>
<path d="M389.312 427.99C389.312 426.263 389.695 424.734 390.459 423.402C391.249 422.07 392.309 421.022 393.641 420.257C394.973 419.492 396.466 419.11 398.118 419.11C399.796 419.11 401.288 419.492 402.595 420.257C403.927 421.022 404.976 422.07 405.74 423.402C406.53 424.734 406.924 426.263 406.924 427.99C406.924 429.692 406.53 431.221 405.74 432.578C404.976 433.91 403.927 434.958 402.595 435.723C401.288 436.488 399.796 436.87 398.118 436.87C396.466 436.87 394.973 436.488 393.641 435.723C392.309 434.958 391.249 433.91 390.459 432.578C389.695 431.221 389.312 429.692 389.312 427.99ZM392.309 427.99C392.309 429.174 392.556 430.222 393.049 431.135C393.567 432.048 394.258 432.775 395.121 433.318C396.009 433.836 397.009 434.095 398.118 434.095C399.229 434.095 400.215 433.836 401.078 433.318C401.966 432.775 402.657 432.048 403.15 431.135C403.668 430.222 403.927 429.174 403.927 427.99C403.927 426.806 403.668 425.758 403.15 424.845C402.657 423.908 401.966 423.18 401.078 422.662C400.215 422.144 399.229 421.885 398.118 421.885C397.009 421.885 396.009 422.144 395.121 422.662C394.258 423.18 393.567 423.908 393.049 424.845C392.556 425.758 392.309 426.806 392.309 427.99Z" fill="#FFE161"/>
<path d="M388.544 419.48L377.444 444.64H374.114L378.776 434.095L372.264 419.48H375.779L381.181 432.8L379.96 432.652L385.214 419.48H388.544Z" fill="#FFE161"/>
<path d="M355.609 407.64H358.569V436.5H355.609V407.64ZM341.364 427.99C341.364 426.14 341.747 424.561 342.511 423.254C343.276 421.922 344.3 420.898 345.582 420.183C346.865 419.468 348.271 419.11 349.8 419.11C351.231 419.11 352.477 419.468 353.537 420.183C354.598 420.898 355.424 421.922 356.016 423.254C356.633 424.561 356.941 426.14 356.941 427.99C356.941 429.815 356.633 431.394 356.016 432.726C355.424 434.058 354.598 435.082 353.537 435.797C352.477 436.512 351.231 436.87 349.8 436.87C348.271 436.87 346.865 436.512 345.582 435.797C344.3 435.082 343.276 434.058 342.511 432.726C341.747 431.394 341.364 429.815 341.364 427.99ZM344.361 427.99C344.361 429.297 344.62 430.407 345.138 431.32C345.681 432.233 346.396 432.923 347.284 433.392C348.172 433.861 349.134 434.095 350.17 434.095C351.034 434.095 351.885 433.861 352.723 433.392C353.562 432.923 354.253 432.233 354.795 431.32C355.338 430.407 355.609 429.297 355.609 427.99C355.609 426.683 355.338 425.573 354.795 424.66C354.253 423.747 353.562 423.057 352.723 422.588C351.885 422.119 351.034 421.885 350.17 421.885C349.134 421.885 348.172 422.119 347.284 422.588C346.396 423.057 345.681 423.747 345.138 424.66C344.62 425.573 344.361 426.683 344.361 427.99Z" fill="#FFE161"/>
<path d="M330.388 436.87C328.81 436.87 327.404 436.5 326.17 435.76C324.962 434.995 324.012 433.947 323.321 432.615C322.655 431.283 322.322 429.741 322.322 427.99C322.322 426.214 322.668 424.66 323.358 423.328C324.074 421.996 325.06 420.96 326.318 420.22C327.601 419.48 329.081 419.11 330.758 419.11C332.436 419.11 333.866 419.468 335.05 420.183C336.259 420.874 337.184 421.873 337.825 423.18C338.467 424.487 338.787 426.041 338.787 427.842C338.787 428.015 338.775 428.2 338.75 428.397C338.75 428.57 338.75 428.681 338.75 428.73H324.209V426.214H336.419L335.235 427.916C335.309 427.793 335.383 427.608 335.457 427.361C335.531 427.09 335.568 426.868 335.568 426.695C335.568 425.684 335.359 424.808 334.939 424.068C334.545 423.328 333.99 422.748 333.274 422.329C332.559 421.91 331.72 421.7 330.758 421.7C329.624 421.7 328.649 421.947 327.835 422.44C327.046 422.909 326.429 423.599 325.985 424.512C325.566 425.4 325.344 426.498 325.319 427.805C325.319 429.137 325.529 430.272 325.948 431.209C326.368 432.146 326.984 432.862 327.798 433.355C328.612 433.848 329.599 434.095 330.758 434.095C331.918 434.095 332.941 433.848 333.829 433.355C334.717 432.837 335.47 432.06 336.086 431.024L338.491 432.541C337.603 433.972 336.481 435.057 335.124 435.797C333.792 436.512 332.214 436.87 330.388 436.87Z" fill="#FFE161"/>
<path d="M305.273 419.48H308.603L313.413 431.505L318.223 419.48H321.553L313.413 437.795L305.273 419.48Z" fill="#FFE161"/>
<path d="M298.437 412.45C298.437 411.883 298.634 411.402 299.029 411.007C299.448 410.612 299.929 410.415 300.472 410.415C301.039 410.415 301.52 410.612 301.915 411.007C302.31 411.402 302.507 411.883 302.507 412.45C302.507 412.993 302.31 413.474 301.915 413.893C301.52 414.288 301.039 414.485 300.472 414.485C299.929 414.485 299.448 414.288 299.029 413.893C298.634 413.474 298.437 412.993 298.437 412.45ZM298.992 419.48H301.952V436.5H298.992V419.48Z" fill="#FFE161"/>
<path d="M285.981 436.87C284.402 436.87 282.996 436.5 281.763 435.76C280.554 434.995 279.605 433.947 278.914 432.615C278.248 431.283 277.915 429.741 277.915 427.99C277.915 426.214 278.26 424.66 278.951 423.328C279.666 421.996 280.653 420.96 281.911 420.22C283.194 419.48 284.674 419.11 286.351 419.11C288.028 419.11 289.459 419.468 290.643 420.183C291.852 420.874 292.777 421.873 293.418 423.18C294.059 424.487 294.38 426.041 294.38 427.842C294.38 428.015 294.368 428.2 294.343 428.397C294.343 428.57 294.343 428.681 294.343 428.73H279.802V426.214H292.012L290.828 427.916C290.902 427.793 290.976 427.608 291.05 427.361C291.124 427.09 291.161 426.868 291.161 426.695C291.161 425.684 290.951 424.808 290.532 424.068C290.137 423.328 289.582 422.748 288.867 422.329C288.152 421.91 287.313 421.7 286.351 421.7C285.216 421.7 284.242 421.947 283.428 422.44C282.639 422.909 282.022 423.599 281.578 424.512C281.159 425.4 280.937 426.498 280.912 427.805C280.912 429.137 281.122 430.272 281.541 431.209C281.96 432.146 282.577 432.862 283.391 433.355C284.205 433.848 285.192 434.095 286.351 434.095C287.51 434.095 288.534 433.848 289.422 433.355C290.31 432.837 291.062 432.06 291.679 431.024L294.084 432.541C293.196 433.972 292.074 435.057 290.717 435.797C289.385 436.512 287.806 436.87 285.981 436.87Z" fill="#FFE161"/>
<path d="M263.059 427.99C263.059 429.174 263.305 430.222 263.799 431.135C264.317 432.048 265.007 432.775 265.871 433.318C266.759 433.836 267.758 434.095 268.868 434.095C269.78 434.095 270.631 433.959 271.421 433.688C272.235 433.392 272.938 433.01 273.53 432.541C274.122 432.048 274.541 431.53 274.788 430.987V434.687C274.196 435.378 273.345 435.92 272.235 436.315C271.149 436.685 270.027 436.87 268.868 436.87C267.215 436.87 265.723 436.488 264.391 435.723C263.059 434.958 261.998 433.91 261.209 432.578C260.444 431.221 260.062 429.692 260.062 427.99C260.062 426.263 260.444 424.734 261.209 423.402C261.998 422.07 263.059 421.022 264.391 420.257C265.723 419.492 267.215 419.11 268.868 419.11C270.027 419.11 271.149 419.307 272.235 419.702C273.345 420.072 274.196 420.602 274.788 421.293V424.993C274.541 424.426 274.122 423.908 273.53 423.439C272.938 422.97 272.235 422.6 271.421 422.329C270.631 422.033 269.78 421.885 268.868 421.885C267.758 421.885 266.759 422.144 265.871 422.662C265.007 423.18 264.317 423.908 263.799 424.845C263.305 425.758 263.059 426.806 263.059 427.99Z" fill="#FFE161"/>
<path d="M249.27 436.87C247.691 436.87 246.285 436.5 245.052 435.76C243.843 434.995 242.894 433.947 242.203 432.615C241.537 431.283 241.204 429.741 241.204 427.99C241.204 426.214 241.549 424.66 242.24 423.328C242.955 421.996 243.942 420.96 245.2 420.22C246.483 419.48 247.963 419.11 249.64 419.11C251.317 419.11 252.748 419.468 253.932 420.183C255.141 420.874 256.066 421.873 256.707 423.18C257.348 424.487 257.669 426.041 257.669 427.842C257.669 428.015 257.657 428.2 257.632 428.397C257.632 428.57 257.632 428.681 257.632 428.73H243.091V426.214H255.301L254.117 427.916C254.191 427.793 254.265 427.608 254.339 427.361C254.413 427.09 254.45 426.868 254.45 426.695C254.45 425.684 254.24 424.808 253.821 424.068C253.426 423.328 252.871 422.748 252.156 422.329C251.441 421.91 250.602 421.7 249.64 421.7C248.505 421.7 247.531 421.947 246.717 422.44C245.928 422.909 245.311 423.599 244.867 424.512C244.448 425.4 244.226 426.498 244.201 427.805C244.201 429.137 244.411 430.272 244.83 431.209C245.249 432.146 245.866 432.862 246.68 433.355C247.494 433.848 248.481 434.095 249.64 434.095C250.799 434.095 251.823 433.848 252.711 433.355C253.599 432.837 254.351 432.06 254.968 431.024L257.373 432.541C256.485 433.972 255.363 435.057 254.006 435.797C252.674 436.512 251.095 436.87 249.27 436.87Z" fill="#FFE161"/>
<path d="M233.503 419.48V436.5H230.543V419.48H233.503ZM238.646 422.736C238.252 422.44 237.894 422.23 237.573 422.107C237.253 421.959 236.846 421.885 236.352 421.885C235.612 421.885 235.033 422.07 234.613 422.44C234.194 422.81 233.898 423.316 233.725 423.957C233.577 424.598 233.503 425.326 233.503 426.14H232.171C232.171 424.783 232.406 423.587 232.874 422.551C233.368 421.49 233.997 420.652 234.761 420.035C235.526 419.418 236.303 419.11 237.092 419.11C237.709 419.11 238.276 419.196 238.794 419.369C239.337 419.517 239.83 419.825 240.274 420.294L238.646 422.736Z" fill="#FFE161"/>
<path d="M206.995 436.87C205.416 436.87 204.01 436.5 202.777 435.76C201.568 434.995 200.618 433.947 199.928 432.615C199.262 431.283 198.929 429.741 198.929 427.99C198.929 426.214 199.274 424.66 199.965 423.328C200.68 421.996 201.667 420.96 202.925 420.22C204.207 419.48 205.687 419.11 207.365 419.11C209.042 419.11 210.473 419.468 211.657 420.183C212.865 420.874 213.79 421.873 214.432 423.18C215.073 424.487 215.394 426.041 215.394 427.842C215.394 428.015 215.381 428.2 215.357 428.397C215.357 428.57 215.357 428.681 215.357 428.73H200.816V426.214H213.026L211.842 427.916C211.916 427.793 211.99 427.608 212.064 427.361C212.138 427.09 212.175 426.868 212.175 426.695C212.175 425.684 211.965 424.808 211.546 424.068C211.151 423.328 210.596 422.748 209.881 422.329C209.165 421.91 208.327 421.7 207.365 421.7C206.23 421.7 205.256 421.947 204.442 422.44C203.652 422.909 203.036 423.599 202.592 424.512C202.172 425.4 201.95 426.498 201.926 427.805C201.926 429.137 202.135 430.272 202.555 431.209C202.974 432.146 203.591 432.862 204.405 433.355C205.219 433.848 206.205 434.095 207.365 434.095C208.524 434.095 209.548 433.848 210.436 433.355C211.324 432.837 212.076 432.06 212.693 431.024L215.098 432.541C214.21 433.972 213.087 435.057 211.731 435.797C210.399 436.512 208.82 436.87 206.995 436.87Z" fill="#FFE161"/>
<path d="M181.88 419.48H185.21L190.02 431.505L194.83 419.48H198.16L190.02 437.795L181.88 419.48Z" fill="#FFE161"/>
<path d="M175.761 410.6H179.276L175.576 419.11H173.541L175.761 410.6Z" fill="#FFE161"/>
<path d="M163.129 436.87C161.551 436.87 160.145 436.5 158.911 435.76C157.703 434.995 156.753 433.947 156.062 432.615C155.396 431.283 155.063 429.741 155.063 427.99C155.063 426.214 155.409 424.66 156.099 423.328C156.815 421.996 157.801 420.96 159.059 420.22C160.342 419.48 161.822 419.11 163.499 419.11C165.177 419.11 166.607 419.468 167.791 420.183C169 420.874 169.925 421.873 170.566 423.18C171.208 424.487 171.528 426.041 171.528 427.842C171.528 428.015 171.516 428.2 171.491 428.397C171.491 428.57 171.491 428.681 171.491 428.73H156.95V426.214H169.16L167.976 427.916C168.05 427.793 168.124 427.608 168.198 427.361C168.272 427.09 168.309 426.868 168.309 426.695C168.309 425.684 168.1 424.808 167.68 424.068C167.286 423.328 166.731 422.748 166.015 422.329C165.3 421.91 164.461 421.7 163.499 421.7C162.365 421.7 161.39 421.947 160.576 422.44C159.787 422.909 159.17 423.599 158.726 424.512C158.307 425.4 158.085 426.498 158.06 427.805C158.06 429.137 158.27 430.272 158.689 431.209C159.109 432.146 159.725 432.862 160.539 433.355C161.353 433.848 162.34 434.095 163.499 434.095C164.659 434.095 165.682 433.848 166.57 433.355C167.458 432.837 168.211 432.06 168.827 431.024L171.232 432.541C170.344 433.972 169.222 435.057 167.865 435.797C166.533 436.512 164.955 436.87 163.129 436.87Z" fill="#FFE161"/>
<path d="M146.104 429.655L152.838 410.6H156.353L146.178 437.795L138.408 417.667L130.638 437.795L120.463 410.6H123.978L130.86 429.655L138.408 409.305L146.104 429.655Z" fill="#FFE161"/>
<path d="M538.996 738.05C538.996 739.826 539.366 741.417 540.106 742.823C540.87 744.204 541.919 745.29 543.251 746.079C544.583 746.868 546.1 747.263 547.802 747.263C549.528 747.263 551.045 746.868 552.353 746.079C553.685 745.29 554.721 744.204 555.461 742.823C556.225 741.417 556.608 739.826 556.608 738.05C556.608 736.274 556.238 734.695 555.498 733.314C554.758 731.908 553.722 730.81 552.39 730.021C551.082 729.232 549.553 728.837 547.802 728.837C546.1 728.837 544.583 729.232 543.251 730.021C541.919 730.81 540.87 731.908 540.106 733.314C539.366 734.695 538.996 736.274 538.996 738.05ZM534.371 738.05C534.371 736.101 534.704 734.313 535.37 732.685C536.036 731.057 536.973 729.651 538.182 728.467C539.415 727.258 540.846 726.321 542.474 725.655C544.126 724.989 545.902 724.656 547.802 724.656C549.75 724.656 551.539 724.989 553.167 725.655C554.795 726.321 556.213 727.258 557.422 728.467C558.655 729.651 559.605 731.057 560.271 732.685C560.937 734.313 561.27 736.101 561.27 738.05C561.27 739.974 560.937 741.762 560.271 743.415C559.605 745.068 558.667 746.498 557.459 747.707C556.25 748.916 554.819 749.865 553.167 750.556C551.539 751.222 549.75 751.555 547.802 751.555C545.878 751.555 544.089 751.222 542.437 750.556C540.784 749.865 539.353 748.916 538.145 747.707C536.961 746.498 536.036 745.068 535.37 743.415C534.704 741.762 534.371 739.974 534.371 738.05Z" fill="#FFF3C2"/>
<path d="M509.331 738.05C509.331 739.826 509.701 741.417 510.441 742.823C511.205 744.204 512.254 745.29 513.586 746.079C514.918 746.868 516.435 747.263 518.137 747.263C519.863 747.263 521.38 746.868 522.688 746.079C524.02 745.29 525.056 744.204 525.796 742.823C526.56 741.417 526.943 739.826 526.943 738.05C526.943 736.274 526.573 734.695 525.833 733.314C525.093 731.908 524.057 730.81 522.725 730.021C521.417 729.232 519.888 728.837 518.137 728.837C516.435 728.837 514.918 729.232 513.586 730.021C512.254 730.81 511.205 731.908 510.441 733.314C509.701 734.695 509.331 736.274 509.331 738.05ZM504.706 738.05C504.706 736.101 505.039 734.313 505.705 732.685C506.371 731.057 507.308 729.651 508.517 728.467C509.75 727.258 511.181 726.321 512.809 725.655C514.461 724.989 516.237 724.656 518.137 724.656C520.085 724.656 521.874 724.989 523.502 725.655C525.13 726.321 526.548 727.258 527.757 728.467C528.99 729.651 529.94 731.057 530.606 732.685C531.272 734.313 531.605 736.101 531.605 738.05C531.605 739.974 531.272 741.762 530.606 743.415C529.94 745.068 529.002 746.498 527.794 747.707C526.585 748.916 525.154 749.865 523.502 750.556C521.874 751.222 520.085 751.555 518.137 751.555C516.213 751.555 514.424 751.222 512.772 750.556C511.119 749.865 509.688 748.916 508.48 747.707C507.296 746.498 506.371 745.068 505.705 743.415C505.039 741.762 504.706 739.974 504.706 738.05Z" fill="#FFF3C2"/>
<path d="M486.794 729.133V725.1H504.85V729.133H498.005V751H493.602V729.133H486.794Z" fill="#FFF3C2"/>
<path d="M458.567 742.675C459.134 743.662 459.738 744.537 460.38 745.302C461.046 746.042 461.773 746.622 462.563 747.041C463.352 747.436 464.24 747.633 465.227 747.633C466.411 747.633 467.373 747.312 468.113 746.671C468.853 746.03 469.223 745.203 469.223 744.192C469.223 743.23 468.988 742.465 468.52 741.898C468.051 741.306 467.397 740.813 466.559 740.418C465.745 739.999 464.795 739.592 463.71 739.197C463.068 738.975 462.353 738.679 461.564 738.309C460.774 737.914 460.022 737.433 459.307 736.866C458.591 736.274 457.999 735.559 457.531 734.72C457.062 733.857 456.828 732.821 456.828 731.612C456.828 730.231 457.185 729.022 457.901 727.986C458.616 726.925 459.578 726.111 460.787 725.544C462.02 724.952 463.414 724.656 464.968 724.656C466.497 724.656 467.829 724.927 468.964 725.47C470.098 726.013 471.048 726.703 471.813 727.542C472.602 728.381 473.219 729.256 473.663 730.169L470.111 732.167C469.79 731.526 469.383 730.934 468.89 730.391C468.396 729.824 467.817 729.38 467.151 729.059C466.509 728.714 465.757 728.541 464.894 728.541C463.685 728.541 462.797 728.825 462.23 729.392C461.662 729.935 461.379 730.576 461.379 731.316C461.379 731.982 461.576 732.586 461.971 733.129C462.39 733.647 463.031 734.14 463.895 734.609C464.758 735.078 465.88 735.559 467.262 736.052C468.026 736.323 468.791 736.669 469.556 737.088C470.345 737.507 471.06 738.038 471.702 738.679C472.343 739.296 472.849 740.023 473.219 740.862C473.613 741.701 473.811 742.687 473.811 743.822C473.811 745.031 473.576 746.116 473.108 747.078C472.639 748.04 471.998 748.854 471.184 749.52C470.37 750.161 469.445 750.655 468.409 751C467.397 751.37 466.337 751.555 465.227 751.555C463.697 751.555 462.279 751.259 460.972 750.667C459.689 750.05 458.567 749.236 457.605 748.225C456.643 747.214 455.878 746.116 455.311 744.932L458.567 742.675Z" fill="#FFF3C2"/>
<path d="M440.187 738.642H444.923L453.692 751H448.438L440.187 738.642ZM434.859 725.1H439.225V751H434.859V725.1ZM437.449 728.874V725.1H442.851C444.726 725.1 446.354 725.433 447.735 726.099C449.141 726.765 450.227 727.702 450.991 728.911C451.756 730.095 452.138 731.501 452.138 733.129C452.138 734.757 451.756 736.175 450.991 737.384C450.227 738.593 449.141 739.53 447.735 740.196C446.354 740.862 444.726 741.195 442.851 741.195H437.449V737.606H442.666C443.653 737.606 444.516 737.433 445.256 737.088C446.021 736.743 446.613 736.249 447.032 735.608C447.452 734.942 447.661 734.153 447.661 733.24C447.661 732.303 447.452 731.513 447.032 730.872C446.613 730.231 446.021 729.737 445.256 729.392C444.516 729.047 443.653 728.874 442.666 728.874H437.449Z" fill="#FFF3C2"/>
<path d="M416.423 751V747.152H429.484V751H416.423ZM416.423 728.948V725.1H429.484V728.948H416.423ZM416.423 739.012V735.238H428.744V739.012H416.423ZM413.722 725.1H418.014V751H413.722V725.1Z" fill="#FFF3C2"/>
<path d="M387.927 739.123V735.09H406.39V739.123H387.927ZM403.578 725.1H407.944V751H403.578V725.1ZM386.188 725.1H390.554V751H386.188V725.1Z" fill="#FFF3C2"/>
<path d="M364.954 729.133V725.1H383.01V729.133H376.165V751H371.762V729.133H364.954Z" fill="#FFF3C2"/>
<path d="M342.144 738.05C342.144 739.826 342.514 741.417 343.254 742.823C344.019 744.204 345.067 745.29 346.399 746.079C347.731 746.868 349.248 747.263 350.95 747.263C352.677 747.263 354.194 746.868 355.501 746.079C356.833 745.29 357.869 744.204 358.609 742.823C359.374 741.417 359.756 739.826 359.756 738.05C359.756 736.274 359.386 734.695 358.646 733.314C357.906 731.908 356.87 730.81 355.538 730.021C354.231 729.232 352.701 728.837 350.95 728.837C349.248 728.837 347.731 729.232 346.399 730.021C345.067 730.81 344.019 731.908 343.254 733.314C342.514 734.695 342.144 736.274 342.144 738.05ZM337.519 738.05C337.519 736.101 337.852 734.313 338.518 732.685C339.184 731.057 340.121 729.651 341.33 728.467C342.563 727.258 343.994 726.321 345.622 725.655C347.275 724.989 349.051 724.656 350.95 724.656C352.899 724.656 354.687 724.989 356.315 725.655C357.943 726.321 359.361 727.258 360.57 728.467C361.803 729.651 362.753 731.057 363.419 732.685C364.085 734.313 364.418 736.101 364.418 738.05C364.418 739.974 364.085 741.762 363.419 743.415C362.753 745.068 361.816 746.498 360.607 747.707C359.398 748.916 357.968 749.865 356.315 750.556C354.687 751.222 352.899 751.555 350.95 751.555C349.026 751.555 347.238 751.222 345.585 750.556C343.932 749.865 342.502 748.916 341.293 747.707C340.109 746.498 339.184 745.068 338.518 743.415C337.852 741.762 337.519 739.974 337.519 738.05Z" fill="#FFF3C2"/>
<path d="M309.47 751V747.152H322.531V751H309.47ZM309.47 728.948V725.1H322.531V728.948H309.47ZM309.47 739.012V735.238H321.791V739.012H309.47ZM306.769 725.1H311.061V751H306.769V725.1Z" fill="#FFF3C2"/>
<path d="M285.534 729.133V725.1H303.59V729.133H296.745V751H292.342V729.133H285.534Z" fill="#FFF3C2"/>
<path d="M277.935 725.1H282.338V751H277.935V725.1Z" fill="#FFF3C2"/>
<path d="M262.268 743.304L269.89 725.1H274.922L262.268 752.443L249.614 725.1H254.646L262.268 743.304Z" fill="#FFF3C2"/>
<path d="M242.353 725.1H246.645V752.295L227.738 733.61V751H223.446V723.805L242.353 742.49V725.1Z" fill="#FFF3C2"/>
<path d="M213.257 725.1H217.66V751H213.257V725.1Z" fill="#FFF3C2"/>
<path d="M526.682 701.007V697.418H534.267V701.007H526.682Z" fill="#FFF3C2"/>
<path d="M521.406 682.1H526.401L517.595 697.085V708H513.155V697.122L504.386 682.1H509.344L515.375 693.2L521.406 682.1Z" fill="#FFF3C2"/>
<path d="M481.761 695.05C481.761 696.826 482.131 698.417 482.871 699.823C483.636 701.204 484.684 702.29 486.016 703.079C487.348 703.868 488.865 704.263 490.567 704.263C492.294 704.263 493.811 703.868 495.118 703.079C496.45 702.29 497.486 701.204 498.226 699.823C498.991 698.417 499.373 696.826 499.373 695.05C499.373 693.274 499.003 691.695 498.263 690.314C497.523 688.908 496.487 687.81 495.155 687.021C493.848 686.232 492.319 685.837 490.567 685.837C488.865 685.837 487.348 686.232 486.016 687.021C484.684 687.81 483.636 688.908 482.871 690.314C482.131 691.695 481.761 693.274 481.761 695.05ZM477.136 695.05C477.136 693.101 477.469 691.313 478.135 689.685C478.801 688.057 479.739 686.651 480.947 685.467C482.181 684.258 483.611 683.321 485.239 682.655C486.892 681.989 488.668 681.656 490.567 681.656C492.516 681.656 494.304 681.989 495.932 682.655C497.56 683.321 498.979 684.258 500.187 685.467C501.421 686.651 502.37 688.057 503.036 689.685C503.702 691.313 504.035 693.101 504.035 695.05C504.035 696.974 503.702 698.762 503.036 700.415C502.37 702.068 501.433 703.498 500.224 704.707C499.016 705.916 497.585 706.865 495.932 707.556C494.304 708.222 492.516 708.555 490.567 708.555C488.643 708.555 486.855 708.222 485.202 707.556C483.55 706.865 482.119 705.916 480.91 704.707C479.726 703.498 478.801 702.068 478.135 700.415C477.469 698.762 477.136 696.974 477.136 695.05Z" fill="#FFF3C2"/>
<path d="M462.952 711.256C463.272 711.626 463.692 711.934 464.21 712.181C464.728 712.428 465.295 712.551 465.912 712.551C466.479 712.551 467.034 712.304 467.577 711.811C468.119 711.342 468.391 710.516 468.391 709.332V682.1H472.868V710.146C472.868 711.231 472.695 712.169 472.35 712.958C472.004 713.747 471.523 714.401 470.907 714.919C470.315 715.437 469.599 715.807 468.761 716.029C467.922 716.276 467.009 716.399 466.023 716.399C465.258 716.399 464.518 716.288 463.803 716.066C463.087 715.869 462.458 715.622 461.916 715.326C461.373 715.03 460.941 714.746 460.621 714.475L462.952 711.256Z" fill="#FFF3C2"/>
<path d="M438.861 708V704.152H451.922V708H438.861ZM438.861 685.948V682.1H451.922V685.948H438.861ZM438.861 696.012V692.238H451.182V696.012H438.861ZM436.16 682.1H440.452V708H436.16V682.1Z" fill="#FFF3C2"/>
<path d="M410.366 696.123V692.09H428.829V696.123H410.366ZM426.017 682.1H430.383V708H426.017V682.1ZM408.627 682.1H412.993V708H408.627V682.1Z" fill="#FFF3C2"/>
<path d="M387.393 686.133V682.1H405.449V686.133H398.604V708H394.201V686.133H387.393Z" fill="#FFF3C2"/>
<path d="M352.946 682.1H357.386V708H352.946V682.1ZM361.308 708H355.647V703.893H361.197C362.48 703.893 363.664 703.708 364.749 703.338C365.835 702.968 366.772 702.413 367.561 701.673C368.375 700.933 369.004 700.008 369.448 698.898C369.917 697.788 370.151 696.505 370.151 695.05C370.151 693.595 369.917 692.312 369.448 691.202C369.004 690.092 368.375 689.167 367.561 688.427C366.772 687.687 365.835 687.132 364.749 686.762C363.664 686.392 362.48 686.207 361.197 686.207H355.647V682.1H361.308C363.948 682.1 366.266 682.643 368.264 683.728C370.262 684.789 371.816 686.293 372.926 688.242C374.061 690.166 374.628 692.435 374.628 695.05C374.628 697.665 374.061 699.946 372.926 701.895C371.816 703.819 370.262 705.324 368.264 706.409C366.266 707.47 363.948 708 361.308 708Z" fill="#FFF3C2"/>
<path d="M330.508 701.34L331.322 697.64H343.347L344.198 701.34H330.508ZM337.279 689.426L333.209 698.935L333.135 699.897L329.546 708H324.625L337.279 680.657L349.933 708H345.012L341.497 700.119L341.386 699.046L337.279 689.426Z" fill="#FFF3C2"/>
<path d="M308.964 708V704.152H322.025V708H308.964ZM308.964 685.948V682.1H322.025V685.948H308.964ZM308.964 696.012V692.238H321.285V696.012H308.964ZM306.263 682.1H310.555V708H306.263V682.1Z" fill="#FFF3C2"/>
<path d="M289.586 695.642H294.322L303.091 708H297.837L289.586 695.642ZM284.258 682.1H288.624V708H284.258V682.1ZM286.848 685.874V682.1H292.25C294.124 682.1 295.752 682.433 297.134 683.099C298.54 683.765 299.625 684.702 300.39 685.911C301.154 687.095 301.537 688.501 301.537 690.129C301.537 691.757 301.154 693.175 300.39 694.384C299.625 695.593 298.54 696.53 297.134 697.196C295.752 697.862 294.124 698.195 292.25 698.195H286.848V694.606H292.065C293.051 694.606 293.915 694.433 294.655 694.088C295.419 693.743 296.011 693.249 296.431 692.608C296.85 691.942 297.06 691.153 297.06 690.24C297.06 689.303 296.85 688.513 296.431 687.872C296.011 687.231 295.419 686.737 294.655 686.392C293.915 686.047 293.051 685.874 292.065 685.874H286.848Z" fill="#FFF3C2"/>
<path d="M262.867 682.1H267.233V708H262.867V682.1ZM265.457 685.948V682.1H270.674C272.549 682.1 274.177 682.433 275.558 683.099C276.964 683.74 278.05 684.665 278.814 685.874C279.579 687.058 279.961 688.476 279.961 690.129C279.961 691.782 279.579 693.212 278.814 694.421C278.05 695.63 276.964 696.567 275.558 697.233C274.177 697.874 272.549 698.195 270.674 698.195H265.457V694.347H270.674C272.179 694.347 273.388 693.989 274.3 693.274C275.213 692.559 275.669 691.51 275.669 690.129C275.669 688.748 275.213 687.712 274.3 687.021C273.388 686.306 272.179 685.948 270.674 685.948H265.457Z" fill="#FFF3C2"/>
<path d="M243.142 699.675C243.71 700.662 244.314 701.537 244.955 702.302C245.621 703.042 246.349 703.622 247.138 704.041C247.928 704.436 248.816 704.633 249.802 704.633C250.986 704.633 251.948 704.312 252.688 703.671C253.428 703.03 253.798 702.203 253.798 701.192C253.798 700.23 253.564 699.465 253.095 698.898C252.627 698.306 251.973 697.813 251.134 697.418C250.32 696.999 249.371 696.592 248.285 696.197C247.644 695.975 246.929 695.679 246.139 695.309C245.35 694.914 244.598 694.433 243.882 693.866C243.167 693.274 242.575 692.559 242.106 691.72C241.638 690.857 241.403 689.821 241.403 688.612C241.403 687.231 241.761 686.022 242.476 684.986C243.192 683.925 244.154 683.111 245.362 682.544C246.596 681.952 247.989 681.656 249.543 681.656C251.073 681.656 252.405 681.927 253.539 682.47C254.674 683.013 255.624 683.703 256.388 684.542C257.178 685.381 257.794 686.256 258.238 687.169L254.686 689.167C254.366 688.526 253.959 687.934 253.465 687.391C252.972 686.824 252.392 686.38 251.726 686.059C251.085 685.714 250.333 685.541 249.469 685.541C248.261 685.541 247.373 685.825 246.805 686.392C246.238 686.935 245.954 687.576 245.954 688.316C245.954 688.982 246.152 689.586 246.546 690.129C246.966 690.647 247.607 691.14 248.47 691.609C249.334 692.078 250.456 692.559 251.837 693.052C252.602 693.323 253.367 693.669 254.131 694.088C254.921 694.507 255.636 695.038 256.277 695.679C256.919 696.296 257.424 697.023 257.794 697.862C258.189 698.701 258.386 699.687 258.386 700.822C258.386 702.031 258.152 703.116 257.683 704.078C257.215 705.04 256.573 705.854 255.759 706.52C254.945 707.161 254.02 707.655 252.984 708C251.973 708.37 250.912 708.555 249.802 708.555C248.273 708.555 246.855 708.259 245.547 707.667C244.265 707.05 243.142 706.236 242.18 705.225C241.218 704.214 240.454 703.116 239.886 701.932L243.142 699.675Z" fill="#FFF3C2"/>
<g filter="url(#filter0_dddddd_47_195)">
<path d="M173.927 708.648L165.305 707.864C159.623 707.129 155.165 702.671 154.431 696.989L153.598 688.368C153.598 688.27 153.451 688.27 153.402 688.368C153.255 689.544 152.912 694.344 152.569 696.989C151.835 702.623 147.377 707.129 141.695 707.864L133.073 708.697C132.976 708.697 132.976 708.844 133.073 708.893L141.695 709.725C147.377 710.46 151.835 714.918 152.569 720.6C152.912 723.245 153.255 728.045 153.402 729.221C153.402 729.319 153.549 729.319 153.598 729.221L154.431 720.6C155.165 714.918 159.623 710.46 165.305 709.725L173.927 708.893C174.024 708.844 174.024 708.697 173.927 708.648Z" fill="#FFFDF5"/>
</g>
<g filter="url(#filter1_dddddd_47_195)">
<path d="M150.54 738.151L146.845 737.815C144.41 737.501 142.499 735.59 142.185 733.155L141.828 729.46C141.828 729.418 141.765 729.418 141.744 729.46C141.681 729.964 141.534 732.021 141.387 733.155C141.072 735.569 139.162 737.501 136.726 737.815L133.031 738.172C132.99 738.172 132.99 738.235 133.031 738.256L136.726 738.613C139.162 738.928 141.072 740.838 141.387 743.274C141.534 744.407 141.681 746.465 141.744 746.969C141.744 747.011 141.807 747.011 141.828 746.969L142.185 743.274C142.499 740.838 144.41 738.928 146.845 738.613L150.54 738.256C150.582 738.235 150.582 738.172 150.54 738.151Z" fill="#FFFDF5"/>
</g>
<g filter="url(#filter2_dddddd_47_195)">
<path d="M600.073 726.352L608.695 727.136C614.377 727.871 618.835 732.329 619.569 738.011L620.402 746.632C620.402 746.73 620.549 746.73 620.598 746.632C620.745 745.456 621.088 740.656 621.431 738.011C622.165 732.377 626.623 727.871 632.305 727.136L640.927 726.303C641.024 726.303 641.024 726.156 640.927 726.107L632.305 725.275C626.623 724.54 622.165 720.082 621.431 714.4C621.088 711.755 620.745 706.955 620.598 705.779C620.598 705.681 620.451 705.681 620.402 705.779L619.569 714.4C618.835 720.082 614.377 724.54 608.695 725.275L600.073 726.107C599.976 726.156 599.976 726.303 600.073 726.352Z" fill="#FFFDF5"/>
</g>
<g filter="url(#filter3_dddddd_47_195)">
<path d="M623.46 696.849L627.155 697.185C629.59 697.499 631.501 699.41 631.815 701.845L632.172 705.54C632.172 705.582 632.235 705.582 632.256 705.54C632.319 705.036 632.466 702.979 632.613 701.845C632.928 699.431 634.838 697.499 637.274 697.185L640.969 696.828C641.01 696.828 641.01 696.765 640.969 696.744L637.274 696.387C634.838 696.072 632.928 694.162 632.613 691.726C632.466 690.593 632.319 688.535 632.256 688.031C632.256 687.989 632.193 687.989 632.172 688.031L631.815 691.726C631.501 694.162 629.59 696.072 627.155 696.387L623.46 696.744C623.418 696.765 623.418 696.828 623.46 696.849Z" fill="#FFFDF5"/>
</g>
<path d="M613.751 342.852L609.911 291.3H620.471L616.631 342.852H613.751ZM609.815 353.028C609.815 350.052 612.215 347.652 615.287 347.652C618.263 347.652 620.663 350.052 620.663 353.028C620.663 356.1 618.263 358.5 615.287 358.5C612.215 358.5 609.815 356.1 609.815 353.028Z" fill="#FFD100"/>
<path d="M551.796 291.3H564.756L596.82 352.26V291.3H599.7V358.5H587.124L556.5 300.324C555.54 298.596 554.772 297.924 554.004 297.636C554.676 298.308 555.06 299.364 555.06 300.612V358.5H552.18V292.068L551.796 291.3Z" fill="#FFD100"/>
<path d="M528.733 358.5V291.3H541.213V358.5H528.733Z" fill="#FFD100"/>
<path d="M473.765 360.42C459.461 360.42 446.693 354.372 442.085 350.34V329.22H442.469C447.173 339.684 463.877 358.5 478.661 358.5C485.861 358.5 490.949 354.468 490.949 348.324C490.949 324.9 443.429 325.38 443.429 305.604C443.429 292.26 457.349 289.38 470.309 289.38C485.285 289.38 492.773 293.22 498.149 297.348V312.9H497.765C489.413 299.748 479.909 291.3 467.141 291.3C461.189 291.3 453.413 294.084 453.413 299.46C453.413 314.34 500.837 315.78 500.837 340.068C500.837 354.18 490.373 360.42 473.765 360.42Z" fill="#FFD100"/>
<path d="M419.983 358.5V291.3H432.463V358.5H419.983Z" fill="#FFD100"/>
<path d="M335.14 358.5V291.3H347.62V322.404H377.764V291.3H390.244V358.5H377.764V325.284H345.22V325.188C344.932 325.284 344.644 325.284 344.356 325.284C345.316 325.476 347.62 326.628 347.62 330.852V358.5H335.14Z" fill="#FFD100"/>
<path d="M299.39 360.42C285.086 360.42 272.318 354.372 267.71 350.34V329.22H268.094C272.798 339.684 289.502 358.5 304.286 358.5C311.486 358.5 316.574 354.468 316.574 348.324C316.574 324.9 269.054 325.38 269.054 305.604C269.054 292.26 282.974 289.38 295.934 289.38C310.91 289.38 318.398 293.22 323.774 297.348V312.9H323.39C315.038 299.748 305.534 291.3 292.766 291.3C286.814 291.3 279.038 294.084 279.038 299.46C279.038 314.34 326.462 315.78 326.462 340.068C326.462 354.18 315.998 360.42 299.39 360.42Z" fill="#FFD100"/>
<path d="M245.608 358.5V291.3H258.088V358.5H245.608Z" fill="#FFD100"/>
<path d="M171.011 358.5L147.587 291.3H160.067L182.243 354.756L192.803 324.516L181.187 291.3H193.667L199.043 306.564L204.323 291.3H207.395L200.579 310.98L215.843 354.756L237.923 291.3H240.995L217.571 358.5H204.611L194.339 328.932L183.971 358.5H171.011Z" fill="#FFD100"/>
<path d="M457.53 247.5V180.3H485.37C499.77 180.3 506.682 187.212 506.682 197.1C506.682 206.412 500.154 213.228 488.154 214.284L509.274 247.5H496.218L475.194 214.38H470.01V247.5H457.53ZM467.706 183.18C468.954 183.756 470.01 185.004 470.01 188.172V211.5H479.322C488.634 211.5 494.202 206.508 494.202 197.292C494.202 190.284 489.498 183.18 479.802 183.18H468.474H467.706Z" fill="#FFD100"/>
<path d="M420.566 249.42C407.51 249.42 393.206 245.292 393.206 226.092V180.3H405.686V226.092C405.686 241.452 411.35 247.5 420.566 247.5C429.782 247.5 434.486 241.452 434.486 226.092V180.3H446.966V226.092C446.966 245.292 433.622 249.42 420.566 249.42Z" fill="#FFD100"/>
<path d="M350.851 249.42C333.283 249.42 316.579 237.42 316.579 214.092C316.579 190.86 333.571 178.38 350.851 178.38C368.035 178.38 385.027 190.86 385.027 214.092C385.027 237.42 368.611 249.42 350.851 249.42ZM330.499 214.092C330.499 238.764 340.771 246.54 350.659 246.54C360.643 246.54 371.011 238.764 371.011 214.092C371.011 189.516 360.355 181.26 350.659 181.26C340.867 181.26 330.499 189.516 330.499 214.092Z" fill="#FFD100"/>
<path d="M285.796 247.5V222.828L264.292 180.3H277.54L296.356 218.22L310.66 180.3H313.732L298.276 221.1V247.5H285.796Z" fill="#FFD100"/>
<path d="M383.53 3.53988C383.828 5.79505 382.293 7.89364 380.038 8.22252C377.814 8.53574 375.762 6.96962 375.465 4.71445C375.167 2.44361 376.718 0.360741 378.957 0.0475223C381.197 -0.297018 383.233 1.26904 383.53 3.53988Z" fill="#FFD100"/>
<path d="M398.689 3.71009C399.002 5.99658 397.389 8.06384 395.181 8.37706C392.941 8.70594 390.874 7.15547 390.576 4.86898C390.279 2.62947 391.845 0.530903 394.1 0.217684C396.324 -0.0798732 398.391 1.47057 398.689 3.71009Z" fill="#FFD100"/>
<path d="M357 18.9819C357.125 20.6733 360.038 60.0448 375.542 73.2783C379.63 76.755 384.187 78.1958 389.167 77.5694C400.913 76.0659 415.274 64.9467 417.107 20.5949C417.122 19.9059 417.138 19.3577 417.169 18.9975L412.487 18.7156C412.455 19.0915 412.44 19.6553 412.408 20.3913C410.717 61.3446 398.533 71.4616 388.588 72.7302C384.876 73.2 381.603 72.135 378.518 69.5196C364.549 57.6017 361.714 19.0445 361.683 18.6373L357 18.9819Z" fill="#FFD100"/>
<defs>
<filter id="filter0_dddddd_47_195" x="0.699997" y="555.995" width="305.6" height="305.6" filterUnits="userSpaceOnUse" color-interpolation-filters="sRGB">
<feFlood flood-opacity="0" result="BackgroundImageFix"/>
<feColorMatrix in="SourceAlpha" type="matrix" values="0 0 0 0 0 0 0 0 0 0 0 0 0 0 0 0 0 0 127 0" result="hardAlpha"/>
<feOffset/>
<feGaussianBlur stdDeviation="1.575"/>
<feColorMatrix type="matrix" values="0 0 0 0 1 0 0 0 0 1 0 0 0 0 1 0 0 0 1 0"/>
<feBlend mode="normal" in2="BackgroundImageFix" result="effect1_dropShadow_47_195"/>
<feColorMatrix in="SourceAlpha" type="matrix" values="0 0 0 0 0 0 0 0 0 0 0 0 0 0 0 0 0 0 127 0" result="hardAlpha"/>
<feOffset/>
<feGaussianBlur stdDeviation="3.15"/>
<feColorMatrix type="matrix" values="0 0 0 0 1 0 0 0 0 1 0 0 0 0 1 0 0 0 1 0"/>
<feBlend mode="normal" in2="effect1_dropShadow_47_195" result="effect2_dropShadow_47_195"/>
<feColorMatrix in="SourceAlpha" type="matrix" values="0 0 0 0 0 0 0 0 0 0 0 0 0 0 0 0 0 0 127 0" result="hardAlpha"/>
<feOffset/>
<feGaussianBlur stdDeviation="11.025"/>
<feColorMatrix type="matrix" values="0 0 0 0 1 0 0 0 0 1 0 0 0 0 1 0 0 0 1 0"/>
<feBlend mode="normal" in2="effect2_dropShadow_47_195" result="effect3_dropShadow_47_195"/>
<feColorMatrix in="SourceAlpha" type="matrix" values="0 0 0 0 0 0 0 0 0 0 0 0 0 0 0 0 0 0 127 0" result="hardAlpha"/>
<feOffset/>
<feGaussianBlur stdDeviation="22.05"/>
<feColorMatrix type="matrix" values="0 0 0 0 1 0 0 0 0 1 0 0 0 0 1 0 0 0 1 0"/>
<feBlend mode="normal" in2="effect3_dropShadow_47_195" result="effect4_dropShadow_47_195"/>
<feColorMatrix in="SourceAlpha" type="matrix" values="0 0 0 0 0 0 0 0 0 0 0 0 0 0 0 0 0 0 127 0" result="hardAlpha"/>
<feOffset/>
<feGaussianBlur stdDeviation="37.8"/>
<feColorMatrix type="matrix" values="0 0 0 0 1 0 0 0 0 1 0 0 0 0 1 0 0 0 1 0"/>
<feBlend mode="normal" in2="effect4_dropShadow_47_195" result="effect5_dropShadow_47_195"/>
<feColorMatrix in="SourceAlpha" type="matrix" values="0 0 0 0 0 0 0 0 0 0 0 0 0 0 0 0 0 0 127 0" result="hardAlpha"/>
<feOffset/>
<feGaussianBlur stdDeviation="66.15"/>
<feColorMatrix type="matrix" values="0 0 0 0 1 0 0 0 0 1 0 0 0 0 1 0 0 0 1 0"/>
<feBlend mode="normal" in2="effect5_dropShadow_47_195" result="effect6_dropShadow_47_195"/>
<feBlend mode="normal" in="SourceGraphic" in2="effect6_dropShadow_47_195" result="shape"/>
</filter>
<filter id="filter1_dddddd_47_195" x="0.699997" y="597.129" width="282.171" height="282.171" filterUnits="userSpaceOnUse" color-interpolation-filters="sRGB">
<feFlood flood-opacity="0" result="BackgroundImageFix"/>
<feColorMatrix in="SourceAlpha" type="matrix" values="0 0 0 0 0 0 0 0 0 0 0 0 0 0 0 0 0 0 127 0" result="hardAlpha"/>
<feOffset/>
<feGaussianBlur stdDeviation="1.575"/>
<feColorMatrix type="matrix" values="0 0 0 0 1 0 0 0 0 1 0 0 0 0 1 0 0 0 1 0"/>
<feBlend mode="normal" in2="BackgroundImageFix" result="effect1_dropShadow_47_195"/>
<feColorMatrix in="SourceAlpha" type="matrix" values="0 0 0 0 0 0 0 0 0 0 0 0 0 0 0 0 0 0 127 0" result="hardAlpha"/>
<feOffset/>
<feGaussianBlur stdDeviation="3.15"/>
<feColorMatrix type="matrix" values="0 0 0 0 1 0 0 0 0 1 0 0 0 0 1 0 0 0 1 0"/>
<feBlend mode="normal" in2="effect1_dropShadow_47_195" result="effect2_dropShadow_47_195"/>
<feColorMatrix in="SourceAlpha" type="matrix" values="0 0 0 0 0 0 0 0 0 0 0 0 0 0 0 0 0 0 127 0" result="hardAlpha"/>
<feOffset/>
<feGaussianBlur stdDeviation="11.025"/>
<feColorMatrix type="matrix" values="0 0 0 0 1 0 0 0 0 1 0 0 0 0 1 0 0 0 1 0"/>
<feBlend mode="normal" in2="effect2_dropShadow_47_195" result="effect3_dropShadow_47_195"/>
<feColorMatrix in="SourceAlpha" type="matrix" values="0 0 0 0 0 0 0 0 0 0 0 0 0 0 0 0 0 0 127 0" result="hardAlpha"/>
<feOffset/>
<feGaussianBlur stdDeviation="22.05"/>
<feColorMatrix type="matrix" values="0 0 0 0 1 0 0 0 0 1 0 0 0 0 1 0 0 0 1 0"/>
<feBlend mode="normal" in2="effect3_dropShadow_47_195" result="effect4_dropShadow_47_195"/>
<feColorMatrix in="SourceAlpha" type="matrix" values="0 0 0 0 0 0 0 0 0 0 0 0 0 0 0 0 0 0 127 0" result="hardAlpha"/>
<feOffset/>
<feGaussianBlur stdDeviation="37.8"/>
<feColorMatrix type="matrix" values="0 0 0 0 1 0 0 0 0 1 0 0 0 0 1 0 0 0 1 0"/>
<feBlend mode="normal" in2="effect4_dropShadow_47_195" result="effect5_dropShadow_47_195"/>
<feColorMatrix in="SourceAlpha" type="matrix" values="0 0 0 0 0 0 0 0 0 0 0 0 0 0 0 0 0 0 127 0" result="hardAlpha"/>
<feOffset/>
<feGaussianBlur stdDeviation="66.15"/>
<feColorMatrix type="matrix" values="0 0 0 0 1 0 0 0 0 1 0 0 0 0 1 0 0 0 1 0"/>
<feBlend mode="normal" in2="effect5_dropShadow_47_195" result="effect6_dropShadow_47_195"/>
<feBlend mode="normal" in="SourceGraphic" in2="effect6_dropShadow_47_195" result="shape"/>
</filter>
<filter id="filter2_dddddd_47_195" x="467.7" y="573.405" width="305.6" height="305.6" filterUnits="userSpaceOnUse" color-interpolation-filters="sRGB">
<feFlood flood-opacity="0" result="BackgroundImageFix"/>
<feColorMatrix in="SourceAlpha" type="matrix" values="0 0 0 0 0 0 0 0 0 0 0 0 0 0 0 0 0 0 127 0" result="hardAlpha"/>
<feOffset/>
<feGaussianBlur stdDeviation="1.575"/>
<feColorMatrix type="matrix" values="0 0 0 0 1 0 0 0 0 1 0 0 0 0 1 0 0 0 1 0"/>
<feBlend mode="normal" in2="BackgroundImageFix" result="effect1_dropShadow_47_195"/>
<feColorMatrix in="SourceAlpha" type="matrix" values="0 0 0 0 0 0 0 0 0 0 0 0 0 0 0 0 0 0 127 0" result="hardAlpha"/>
<feOffset/>
<feGaussianBlur stdDeviation="3.15"/>
<feColorMatrix type="matrix" values="0 0 0 0 1 0 0 0 0 1 0 0 0 0 1 0 0 0 1 0"/>
<feBlend mode="normal" in2="effect1_dropShadow_47_195" result="effect2_dropShadow_47_195"/>
<feColorMatrix in="SourceAlpha" type="matrix" values="0 0 0 0 0 0 0 0 0 0 0 0 0 0 0 0 0 0 127 0" result="hardAlpha"/>
<feOffset/>
<feGaussianBlur stdDeviation="11.025"/>
<feColorMatrix type="matrix" values="0 0 0 0 1 0 0 0 0 1 0 0 0 0 1 0 0 0 1 0"/>
<feBlend mode="normal" in2="effect2_dropShadow_47_195" result="effect3_dropShadow_47_195"/>
<feColorMatrix in="SourceAlpha" type="matrix" values="0 0 0 0 0 0 0 0 0 0 0 0 0 0 0 0 0 0 127 0" result="hardAlpha"/>
<feOffset/>
<feGaussianBlur stdDeviation="22.05"/>
<feColorMatrix type="matrix" values="0 0 0 0 1 0 0 0 0 1 0 0 0 0 1 0 0 0 1 0"/>
<feBlend mode="normal" in2="effect3_dropShadow_47_195" result="effect4_dropShadow_47_195"/>
<feColorMatrix in="SourceAlpha" type="matrix" values="0 0 0 0 0 0 0 0 0 0 0 0 0 0 0 0 0 0 127 0" result="hardAlpha"/>
<feOffset/>
<feGaussianBlur stdDeviation="37.8"/>
<feColorMatrix type="matrix" values="0 0 0 0 1 0 0 0 0 1 0 0 0 0 1 0 0 0 1 0"/>
<feBlend mode="normal" in2="effect4_dropShadow_47_195" result="effect5_dropShadow_47_195"/>
<feColorMatrix in="SourceAlpha" type="matrix" values="0 0 0 0 0 0 0 0 0 0 0 0 0 0 0 0 0 0 127 0" result="hardAlpha"/>
<feOffset/>
<feGaussianBlur stdDeviation="66.15"/>
<feColorMatrix type="matrix" values="0 0 0 0 1 0 0 0 0 1 0 0 0 0 1 0 0 0 1 0"/>
<feBlend mode="normal" in2="effect5_dropShadow_47_195" result="effect6_dropShadow_47_195"/>
<feBlend mode="normal" in="SourceGraphic" in2="effect6_dropShadow_47_195" result="shape"/>
</filter>
<filter id="filter3_dddddd_47_195" x="491.129" y="555.7" width="282.171" height="282.171" filterUnits="userSpaceOnUse" color-interpolation-filters="sRGB">
<feFlood flood-opacity="0" result="BackgroundImageFix"/>
<feColorMatrix in="SourceAlpha" type="matrix" values="0 0 0 0 0 0 0 0 0 0 0 0 0 0 0 0 0 0 127 0" result="hardAlpha"/>
<feOffset/>
<feGaussianBlur stdDeviation="1.575"/>
<feColorMatrix type="matrix" values="0 0 0 0 1 0 0 0 0 1 0 0 0 0 1 0 0 0 1 0"/>
<feBlend mode="normal" in2="BackgroundImageFix" result="effect1_dropShadow_47_195"/>
<feColorMatrix in="SourceAlpha" type="matrix" values="0 0 0 0 0 0 0 0 0 0 0 0 0 0 0 0 0 0 127 0" result="hardAlpha"/>
<feOffset/>
<feGaussianBlur stdDeviation="3.15"/>
<feColorMatrix type="matrix" values="0 0 0 0 1 0 0 0 0 1 0 0 0 0 1 0 0 0 1 0"/>
<feBlend mode="normal" in2="effect1_dropShadow_47_195" result="effect2_dropShadow_47_195"/>
<feColorMatrix in="SourceAlpha" type="matrix" values="0 0 0 0 0 0 0 0 0 0 0 0 0 0 0 0 0 0 127 0" result="hardAlpha"/>
<feOffset/>
<feGaussianBlur stdDeviation="11.025"/>
<feColorMatrix type="matrix" values="0 0 0 0 1 0 0 0 0 1 0 0 0 0 1 0 0 0 1 0"/>
<feBlend mode="normal" in2="effect2_dropShadow_47_195" result="effect3_dropShadow_47_195"/>
<feColorMatrix in="SourceAlpha" type="matrix" values="0 0 0 0 0 0 0 0 0 0 0 0 0 0 0 0 0 0 127 0" result="hardAlpha"/>
<feOffset/>
<feGaussianBlur stdDeviation="22.05"/>
<feColorMatrix type="matrix" values="0 0 0 0 1 0 0 0 0 1 0 0 0 0 1 0 0 0 1 0"/>
<feBlend mode="normal" in2="effect3_dropShadow_47_195" result="effect4_dropShadow_47_195"/>
<feColorMatrix in="SourceAlpha" type="matrix" values="0 0 0 0 0 0 0 0 0 0 0 0 0 0 0 0 0 0 127 0" result="hardAlpha"/>
<feOffset/>
<feGaussianBlur stdDeviation="37.8"/>
<feColorMatrix type="matrix" values="0 0 0 0 1 0 0 0 0 1 0 0 0 0 1 0 0 0 1 0"/>
<feBlend mode="normal" in2="effect4_dropShadow_47_195" result="effect5_dropShadow_47_195"/>
<feColorMatrix in="SourceAlpha" type="matrix" values="0 0 0 0 0 0 0 0 0 0 0 0 0 0 0 0 0 0 127 0" result="hardAlpha"/>
<feOffset/>
<feGaussianBlur stdDeviation="66.15"/>
<feColorMatrix type="matrix" values="0 0 0 0 1 0 0 0 0 1 0 0 0 0 1 0 0 0 1 0"/>
<feBlend mode="normal" in2="effect5_dropShadow_47_195" result="effect6_dropShadow_47_195"/>
<feBlend mode="normal" in="SourceGraphic" in2="effect6_dropShadow_47_195" result="shape"/>
</filter>
</defs>
</svg>
