<svg width="570" height="124" viewBox="0 0 570 124" fill="none" xmlns="http://www.w3.org/2000/svg">
<path d="M176.488 28.664L174.76 44H170.368L173.824 17.54L184.156 34.64L194.524 17.54L197.98 44H193.588L191.824 28.664L184.156 41.66L176.488 28.664ZM204.237 38.852C204.237 39.404 204.369 39.884 204.633 40.292C204.897 40.676 205.257 40.964 205.713 41.156C206.193 41.348 206.733 41.444 207.333 41.444C208.101 41.444 208.797 41.288 209.421 40.976C210.069 40.664 210.585 40.208 210.969 39.608C211.377 38.984 211.581 38.264 211.581 37.448L212.157 39.608C212.157 40.664 211.845 41.552 211.221 42.272C210.621 42.968 209.853 43.496 208.917 43.856C208.005 44.192 207.069 44.36 206.109 44.36C205.077 44.36 204.117 44.156 203.229 43.748C202.341 43.34 201.633 42.74 201.105 41.948C200.577 41.156 200.313 40.196 200.313 39.068C200.313 37.46 200.877 36.188 202.005 35.252C203.133 34.292 204.729 33.812 206.793 33.812C207.897 33.812 208.845 33.932 209.637 34.172C210.453 34.412 211.125 34.7 211.653 35.036C212.181 35.348 212.553 35.636 212.769 35.9V37.88C212.025 37.352 211.233 36.968 210.393 36.728C209.553 36.488 208.665 36.368 207.729 36.368C206.913 36.368 206.253 36.476 205.749 36.692C205.245 36.884 204.861 37.16 204.597 37.52C204.357 37.88 204.237 38.324 204.237 38.852ZM203.013 31.76L201.429 29.024C202.173 28.568 203.133 28.124 204.309 27.692C205.509 27.26 206.877 27.044 208.413 27.044C209.781 27.044 210.981 27.248 212.013 27.656C213.069 28.064 213.897 28.652 214.497 29.42C215.097 30.164 215.397 31.088 215.397 32.192V44H211.581V32.948C211.581 32.42 211.485 31.988 211.293 31.652C211.125 31.316 210.885 31.04 210.573 30.824C210.261 30.608 209.889 30.452 209.457 30.356C209.025 30.26 208.557 30.212 208.053 30.212C207.285 30.212 206.553 30.308 205.857 30.5C205.185 30.668 204.597 30.884 204.093 31.148C203.613 31.388 203.253 31.592 203.013 31.76ZM219.785 15.92H223.601V44H219.785V15.92ZM229.685 27.44H234.437L227.309 34.28L235.157 44H230.441L222.521 34.28L229.685 27.44ZM244.426 44.36C242.746 44.36 241.258 44 239.962 43.28C238.69 42.56 237.706 41.552 237.01 40.256C236.314 38.96 235.966 37.448 235.966 35.72C235.966 33.968 236.314 32.444 237.01 31.148C237.73 29.852 238.738 28.856 240.034 28.16C241.33 27.44 242.854 27.08 244.606 27.08C246.358 27.08 247.846 27.416 249.07 28.088C250.294 28.76 251.23 29.732 251.878 31.004C252.55 32.252 252.886 33.764 252.886 35.54C252.886 35.732 252.874 35.936 252.85 36.152C252.85 36.368 252.838 36.524 252.814 36.62H238.27V33.956H249.502L248.314 35.612C248.386 35.468 248.458 35.276 248.53 35.036C248.626 34.772 248.674 34.556 248.674 34.388C248.674 33.5 248.494 32.732 248.134 32.084C247.798 31.436 247.318 30.932 246.694 30.572C246.094 30.212 245.386 30.032 244.57 30.032C243.586 30.032 242.746 30.248 242.05 30.68C241.354 31.112 240.826 31.736 240.466 32.552C240.106 33.368 239.914 34.376 239.89 35.576C239.89 36.776 240.07 37.796 240.43 38.636C240.79 39.452 241.318 40.076 242.014 40.508C242.734 40.94 243.598 41.156 244.606 41.156C245.662 41.156 246.586 40.94 247.378 40.508C248.17 40.076 248.83 39.416 249.358 38.528L252.706 39.896C251.842 41.384 250.726 42.5 249.358 43.244C247.99 43.988 246.346 44.36 244.426 44.36ZM269.838 38.852C269.838 39.404 269.97 39.884 270.234 40.292C270.498 40.676 270.858 40.964 271.314 41.156C271.794 41.348 272.334 41.444 272.934 41.444C273.702 41.444 274.398 41.288 275.022 40.976C275.67 40.664 276.186 40.208 276.57 39.608C276.978 38.984 277.182 38.264 277.182 37.448L277.758 39.608C277.758 40.664 277.446 41.552 276.822 42.272C276.222 42.968 275.454 43.496 274.518 43.856C273.606 44.192 272.67 44.36 271.71 44.36C270.678 44.36 269.718 44.156 268.83 43.748C267.942 43.34 267.234 42.74 266.706 41.948C266.178 41.156 265.914 40.196 265.914 39.068C265.914 37.46 266.478 36.188 267.606 35.252C268.734 34.292 270.33 33.812 272.394 33.812C273.498 33.812 274.446 33.932 275.238 34.172C276.054 34.412 276.726 34.7 277.254 35.036C277.782 35.348 278.154 35.636 278.37 35.9V37.88C277.626 37.352 276.834 36.968 275.994 36.728C275.154 36.488 274.266 36.368 273.33 36.368C272.514 36.368 271.854 36.476 271.35 36.692C270.846 36.884 270.462 37.16 270.198 37.52C269.958 37.88 269.838 38.324 269.838 38.852ZM268.614 31.76L267.03 29.024C267.774 28.568 268.734 28.124 269.91 27.692C271.11 27.26 272.478 27.044 274.014 27.044C275.382 27.044 276.582 27.248 277.614 27.656C278.67 28.064 279.498 28.652 280.098 29.42C280.698 30.164 280.998 31.088 280.998 32.192V44H277.182V32.948C277.182 32.42 277.086 31.988 276.894 31.652C276.726 31.316 276.486 31.04 276.174 30.824C275.862 30.608 275.49 30.452 275.058 30.356C274.626 30.26 274.158 30.212 273.654 30.212C272.886 30.212 272.154 30.308 271.458 30.5C270.786 30.668 270.198 30.884 269.694 31.148C269.214 31.388 268.854 31.592 268.614 31.76ZM319.436 35.684L325.34 18.8H330.272L319.976 45.332L312.2 27.512L304.424 45.332L294.128 18.8H299.06L305.036 35.684L312.2 17.54L319.436 35.684ZM332.883 20.852C332.883 20.18 333.123 19.616 333.603 19.16C334.107 18.704 334.683 18.476 335.331 18.476C336.027 18.476 336.603 18.704 337.059 19.16C337.539 19.616 337.779 20.18 337.779 20.852C337.779 21.5 337.539 22.064 337.059 22.544C336.603 23 336.027 23.228 335.331 23.228C334.683 23.228 334.107 23 333.603 22.544C333.123 22.064 332.883 21.5 332.883 20.852ZM333.423 27.44H337.239V44H333.423V27.44ZM343.345 38.564C343.873 39.14 344.401 39.644 344.929 40.076C345.481 40.484 346.033 40.796 346.585 41.012C347.137 41.204 347.689 41.3 348.241 41.3C348.937 41.3 349.477 41.144 349.861 40.832C350.269 40.52 350.473 40.088 350.473 39.536C350.473 39.056 350.317 38.648 350.005 38.312C349.693 37.952 349.261 37.652 348.709 37.412C348.157 37.148 347.509 36.884 346.765 36.62C346.021 36.332 345.277 35.996 344.533 35.612C343.813 35.204 343.213 34.676 342.733 34.028C342.277 33.38 342.049 32.564 342.049 31.58C342.049 30.572 342.301 29.732 342.805 29.06C343.333 28.388 344.029 27.896 344.893 27.584C345.781 27.248 346.729 27.08 347.737 27.08C348.649 27.08 349.501 27.212 350.293 27.476C351.109 27.74 351.841 28.088 352.489 28.52C353.137 28.952 353.689 29.444 354.145 29.996L351.985 32.3C351.433 31.652 350.773 31.124 350.005 30.716C349.237 30.308 348.445 30.104 347.629 30.104C347.077 30.104 346.621 30.224 346.261 30.464C345.901 30.704 345.721 31.052 345.721 31.508C345.721 31.892 345.877 32.24 346.189 32.552C346.525 32.84 346.957 33.104 347.485 33.344C348.037 33.584 348.649 33.836 349.321 34.1C350.233 34.46 351.073 34.856 351.841 35.288C352.609 35.72 353.221 36.248 353.677 36.872C354.157 37.496 354.397 38.312 354.397 39.32C354.397 40.88 353.857 42.14 352.777 43.1C351.721 44.036 350.281 44.504 348.457 44.504C347.329 44.504 346.285 44.336 345.325 44C344.389 43.64 343.561 43.184 342.841 42.632C342.145 42.056 341.557 41.456 341.077 40.832L343.345 38.564ZM361.735 15.92V44H357.847V15.92H361.735ZM368.503 33.92C368.503 32.696 368.251 31.772 367.747 31.148C367.267 30.524 366.487 30.212 365.407 30.212C364.687 30.212 364.051 30.368 363.499 30.68C362.947 30.992 362.515 31.424 362.203 31.976C361.891 32.528 361.735 33.176 361.735 33.92H360.799C360.799 32.6 361.039 31.424 361.519 30.392C361.999 29.36 362.671 28.532 363.535 27.908C364.423 27.284 365.491 26.972 366.739 26.972C367.963 26.972 368.995 27.212 369.835 27.692C370.699 28.172 371.347 28.892 371.779 29.852C372.211 30.788 372.427 31.964 372.427 33.38V44H368.503V33.92Z" fill="#FFF3C2"/>
<path d="M171.65 76.7C172.05 77.4 172.467 78.0167 172.9 78.55C173.35 79.0833 173.85 79.5 174.4 79.8C174.95 80.1 175.575 80.25 176.275 80.25C177.208 80.25 177.958 79.9917 178.525 79.475C179.092 78.9583 179.375 78.3 179.375 77.5C179.375 76.7167 179.192 76.0917 178.825 75.625C178.458 75.1583 177.975 74.7833 177.375 74.5C176.792 74.2 176.167 73.9333 175.5 73.7C175.067 73.55 174.583 73.3583 174.05 73.125C173.517 72.875 173.008 72.5667 172.525 72.2C172.042 71.8167 171.642 71.35 171.325 70.8C171.025 70.25 170.875 69.575 170.875 68.775C170.875 67.9083 171.092 67.1333 171.525 66.45C171.958 65.7667 172.558 65.2333 173.325 64.85C174.092 64.45 174.967 64.25 175.95 64.25C176.9 64.25 177.725 64.4333 178.425 64.8C179.142 65.15 179.75 65.6083 180.25 66.175C180.75 66.725 181.142 67.3083 181.425 67.925L179.6 68.975C179.383 68.5417 179.108 68.1167 178.775 67.7C178.442 67.2833 178.033 66.9417 177.55 66.675C177.083 66.4083 176.508 66.275 175.825 66.275C174.875 66.275 174.183 66.5083 173.75 66.975C173.317 67.425 173.1 67.9333 173.1 68.5C173.1 68.9833 173.225 69.4333 173.475 69.85C173.725 70.25 174.142 70.6333 174.725 71C175.325 71.35 176.133 71.7 177.15 72.05C177.617 72.2167 178.108 72.4333 178.625 72.7C179.142 72.9667 179.617 73.3083 180.05 73.725C180.5 74.125 180.867 74.6167 181.15 75.2C181.433 75.7667 181.575 76.45 181.575 77.25C181.575 78.0167 181.425 78.7083 181.125 79.325C180.842 79.9417 180.442 80.4667 179.925 80.9C179.425 81.3333 178.85 81.6667 178.2 81.9C177.567 82.1333 176.9 82.25 176.2 82.25C175.25 82.25 174.367 82.05 173.55 81.65C172.75 81.2333 172.042 80.6917 171.425 80.025C170.825 79.3417 170.333 78.6167 169.95 77.85L171.65 76.7ZM186.571 62.5V82H184.571V62.5H186.571ZM191.946 75C191.946 74.05 191.738 73.3333 191.321 72.85C190.921 72.3667 190.313 72.125 189.496 72.125C188.913 72.125 188.396 72.25 187.946 72.5C187.513 72.75 187.171 73.0917 186.921 73.525C186.688 73.9583 186.571 74.45 186.571 75H185.921C185.921 74.0833 186.096 73.275 186.446 72.575C186.796 71.8583 187.271 71.2917 187.871 70.875C188.488 70.4583 189.196 70.25 189.996 70.25C190.796 70.25 191.488 70.4167 192.071 70.75C192.671 71.0833 193.13 71.5833 193.446 72.25C193.78 72.9167 193.946 73.75 193.946 74.75V82H191.946V75ZM198.606 78.45C198.606 78.8833 198.706 79.2583 198.906 79.575C199.123 79.8917 199.414 80.1333 199.781 80.3C200.164 80.45 200.598 80.525 201.081 80.525C201.698 80.525 202.248 80.4 202.731 80.15C203.231 79.9 203.623 79.55 203.906 79.1C204.206 78.6333 204.356 78.1 204.356 77.5L204.756 79C204.756 79.7333 204.531 80.3417 204.081 80.825C203.648 81.3083 203.106 81.6667 202.456 81.9C201.823 82.1333 201.189 82.25 200.556 82.25C199.856 82.25 199.198 82.1083 198.581 81.825C197.981 81.525 197.498 81.1 197.131 80.55C196.764 80 196.581 79.3333 196.581 78.55C196.581 77.4333 196.973 76.5417 197.756 75.875C198.556 75.1917 199.664 74.85 201.081 74.85C201.914 74.85 202.606 74.95 203.156 75.15C203.723 75.3333 204.173 75.55 204.506 75.8C204.839 76.0333 205.064 76.225 205.181 76.375V77.55C204.598 77.15 203.998 76.8667 203.381 76.7C202.764 76.5167 202.106 76.425 201.406 76.425C200.756 76.425 200.223 76.5083 199.806 76.675C199.406 76.8417 199.106 77.075 198.906 77.375C198.706 77.675 198.606 78.0333 198.606 78.45ZM198.306 73.15L197.331 71.675C197.764 71.3583 198.356 71.0417 199.106 70.725C199.873 70.4083 200.789 70.25 201.856 70.25C202.756 70.25 203.539 70.3917 204.206 70.675C204.889 70.9417 205.414 71.3333 205.781 71.85C206.164 72.3667 206.356 73 206.356 73.75V82H204.356V74.025C204.356 73.625 204.289 73.3 204.156 73.05C204.023 72.7833 203.831 72.575 203.581 72.425C203.348 72.275 203.073 72.1667 202.756 72.1C202.439 72.0333 202.106 72 201.756 72C201.189 72 200.673 72.0667 200.206 72.2C199.756 72.3333 199.373 72.4917 199.056 72.675C198.739 72.8583 198.489 73.0167 198.306 73.15ZM211.742 70.5V82H209.742V70.5H211.742ZM215.217 72.7C214.951 72.5 214.709 72.3583 214.492 72.275C214.276 72.175 214.001 72.125 213.667 72.125C213.167 72.125 212.776 72.25 212.492 72.5C212.209 72.75 212.009 73.0917 211.892 73.525C211.792 73.9583 211.742 74.45 211.742 75H210.842C210.842 74.0833 211.001 73.275 211.317 72.575C211.651 71.8583 212.076 71.2917 212.592 70.875C213.109 70.4583 213.634 70.25 214.167 70.25C214.584 70.25 214.967 70.3083 215.317 70.425C215.684 70.525 216.017 70.7333 216.317 71.05L215.217 72.7ZM222.395 82.25C221.329 82.25 220.379 82 219.545 81.5C218.729 80.9833 218.087 80.275 217.62 79.375C217.17 78.475 216.945 77.4333 216.945 76.25C216.945 75.05 217.179 74 217.645 73.1C218.129 72.2 218.795 71.5 219.645 71C220.512 70.5 221.512 70.25 222.645 70.25C223.779 70.25 224.745 70.4917 225.545 70.975C226.362 71.4417 226.987 72.1167 227.42 73C227.854 73.8833 228.07 74.9333 228.07 76.15C228.07 76.2667 228.062 76.3917 228.045 76.525C228.045 76.6417 228.045 76.7167 228.045 76.75H218.22V75.05H226.47L225.67 76.2C225.72 76.1167 225.77 75.9917 225.82 75.825C225.87 75.6417 225.895 75.4917 225.895 75.375C225.895 74.6917 225.754 74.1 225.47 73.6C225.204 73.1 224.829 72.7083 224.345 72.425C223.862 72.1417 223.295 72 222.645 72C221.879 72 221.22 72.1667 220.67 72.5C220.137 72.8167 219.72 73.2833 219.42 73.9C219.137 74.5 218.987 75.2417 218.97 76.125C218.97 77.025 219.112 77.7917 219.395 78.425C219.679 79.0583 220.095 79.5417 220.645 79.875C221.195 80.2083 221.862 80.375 222.645 80.375C223.429 80.375 224.12 80.2083 224.72 79.875C225.32 79.525 225.829 79 226.245 78.3L227.87 79.325C227.27 80.2917 226.512 81.025 225.595 81.525C224.695 82.0083 223.629 82.25 222.395 82.25ZM240.307 62.5V82H238.307V62.5H240.307ZM245.682 75C245.682 74.05 245.473 73.3333 245.057 72.85C244.657 72.3667 244.048 72.125 243.232 72.125C242.648 72.125 242.132 72.25 241.682 72.5C241.248 72.75 240.907 73.0917 240.657 73.525C240.423 73.9583 240.307 74.45 240.307 75H239.657C239.657 74.0833 239.832 73.275 240.182 72.575C240.532 71.8583 241.007 71.2917 241.607 70.875C242.223 70.4583 242.932 70.25 243.732 70.25C244.532 70.25 245.223 70.4167 245.807 70.75C246.407 71.0833 246.865 71.5833 247.182 72.25C247.515 72.9167 247.682 73.75 247.682 74.75V82H245.682V75ZM250.441 76.25C250.441 75.0833 250.7 74.05 251.216 73.15C251.75 72.25 252.466 71.5417 253.366 71.025C254.266 70.5083 255.275 70.25 256.391 70.25C257.525 70.25 258.533 70.5083 259.416 71.025C260.316 71.5417 261.025 72.25 261.541 73.15C262.075 74.05 262.341 75.0833 262.341 76.25C262.341 77.4 262.075 78.4333 261.541 79.35C261.025 80.25 260.316 80.9583 259.416 81.475C258.533 81.9917 257.525 82.25 256.391 82.25C255.275 82.25 254.266 81.9917 253.366 81.475C252.466 80.9583 251.75 80.25 251.216 79.35C250.7 78.4333 250.441 77.4 250.441 76.25ZM252.466 76.25C252.466 77.05 252.633 77.7583 252.966 78.375C253.316 78.9917 253.783 79.4833 254.366 79.85C254.966 80.2 255.641 80.375 256.391 80.375C257.141 80.375 257.808 80.2 258.391 79.85C258.991 79.4833 259.458 78.9917 259.791 78.375C260.141 77.7583 260.316 77.05 260.316 76.25C260.316 75.45 260.141 74.7417 259.791 74.125C259.458 73.4917 258.991 73 258.391 72.65C257.808 72.3 257.141 72.125 256.391 72.125C255.641 72.125 254.966 72.3 254.366 72.65C253.783 73 253.316 73.4917 252.966 74.125C252.633 74.7417 252.466 75.45 252.466 76.25ZM262.973 70.5H265.223L268.098 77.975L271.223 69.625L274.573 78.025L277.473 70.5H279.723L274.723 82.875L271.248 74.5L267.973 82.875L262.973 70.5ZM291.01 76.75L291.76 74.75H299.51L300.26 76.75H291.01ZM295.585 68.45L292.635 75.4L292.435 75.85L289.835 82H287.46L295.585 63.625L303.71 82H301.335L298.785 76L298.585 75.5L295.585 68.45ZM307.014 82V80H315.839V82H307.014ZM307.014 66.5V64.5H315.839V66.5H307.014ZM307.014 73.5V71.5H315.339V73.5H307.014ZM305.839 64.5H307.964V82H305.839V64.5ZM319.584 64.5H321.709V82H319.584V64.5ZM324.834 82H320.759V79.875H324.834C325.817 79.875 326.717 79.725 327.534 79.425C328.351 79.1083 329.051 78.6667 329.634 78.1C330.217 77.5167 330.667 76.8167 330.984 76C331.301 75.1833 331.459 74.2667 331.459 73.25C331.459 72.2333 331.301 71.3167 330.984 70.5C330.667 69.6833 330.217 68.9917 329.634 68.425C329.051 67.8417 328.351 67.4 327.534 67.1C326.717 66.7833 325.817 66.625 324.834 66.625H320.759V64.5H324.834C326.534 64.5 328.042 64.8667 329.359 65.6C330.676 66.3333 331.709 67.3583 332.459 68.675C333.209 69.975 333.584 71.5 333.584 73.25C333.584 75 333.209 76.5333 332.459 77.85C331.709 79.15 330.676 80.1667 329.359 80.9C328.042 81.6333 326.534 82 324.834 82ZM342.571 82L350.846 73.175C351.23 72.7583 351.555 72.35 351.821 71.95C352.105 71.5333 352.313 71.1167 352.446 70.7C352.596 70.2667 352.671 69.8167 352.671 69.35C352.671 68.9667 352.596 68.5917 352.446 68.225C352.296 67.8583 352.071 67.525 351.771 67.225C351.488 66.925 351.138 66.6833 350.721 66.5C350.305 66.3167 349.83 66.225 349.296 66.225C348.546 66.225 347.896 66.4 347.346 66.75C346.813 67.0833 346.405 67.575 346.121 68.225C345.838 68.8583 345.696 69.6167 345.696 70.5H343.571C343.571 69.25 343.796 68.1583 344.246 67.225C344.696 66.275 345.346 65.5417 346.196 65.025C347.063 64.4917 348.096 64.225 349.296 64.225C350.263 64.225 351.096 64.3917 351.796 64.725C352.496 65.0417 353.071 65.4583 353.521 65.975C353.971 66.475 354.305 67.0167 354.521 67.6C354.738 68.1833 354.846 68.7417 354.846 69.275C354.846 70.175 354.63 71.0667 354.196 71.95C353.763 72.8333 353.205 73.625 352.521 74.325L346.946 80H354.921V82H342.571ZM369.405 76.25C369.405 77.25 369.246 78.125 368.93 78.875C368.613 79.625 368.171 80.25 367.605 80.75C367.038 81.25 366.388 81.625 365.655 81.875C364.921 82.125 364.13 82.25 363.28 82.25C362.213 82.25 361.28 82.0833 360.48 81.75C359.696 81.4167 359.021 80.975 358.455 80.425C357.905 79.8583 357.438 79.2417 357.055 78.575L358.855 77.35C359.121 77.85 359.471 78.325 359.905 78.775C360.355 79.2083 360.871 79.5667 361.455 79.85C362.038 80.1167 362.646 80.25 363.28 80.25C364.113 80.25 364.821 80.0833 365.405 79.75C365.988 79.4167 366.43 78.95 366.73 78.35C367.046 77.75 367.205 77.05 367.205 76.25C367.205 75.45 367.03 74.75 366.68 74.15C366.346 73.55 365.88 73.0833 365.28 72.75C364.696 72.4167 364.03 72.25 363.28 72.25C362.73 72.25 362.221 72.3 361.755 72.4C361.305 72.4833 360.846 72.6417 360.38 72.875C359.93 73.0917 359.405 73.4083 358.805 73.825L361.105 64.5H369.355V66.375H362.755L361.58 71C361.996 70.7833 362.421 70.625 362.855 70.525C363.305 70.4083 363.746 70.35 364.18 70.35C365.18 70.35 366.071 70.6 366.855 71.1C367.655 71.6 368.28 72.2917 368.73 73.175C369.18 74.0583 369.405 75.0833 369.405 76.25ZM374.116 79.25L376.116 80L373.366 86.25L371.916 85.725L374.116 79.25ZM381.231 73.25C381.231 74.2667 381.331 75.2083 381.531 76.075C381.731 76.925 382.023 77.6667 382.406 78.3C382.79 78.9167 383.248 79.4 383.781 79.75C384.331 80.0833 384.94 80.25 385.606 80.25C386.29 80.25 386.898 80.0833 387.431 79.75C387.965 79.4 388.423 78.9167 388.806 78.3C389.19 77.6667 389.481 76.925 389.681 76.075C389.881 75.2083 389.981 74.2667 389.981 73.25C389.981 72.2333 389.881 71.3 389.681 70.45C389.481 69.5833 389.19 68.8417 388.806 68.225C388.423 67.5917 387.965 67.1083 387.431 66.775C386.898 66.425 386.29 66.25 385.606 66.25C384.94 66.25 384.331 66.425 383.781 66.775C383.248 67.1083 382.79 67.5917 382.406 68.225C382.023 68.8417 381.731 69.5833 381.531 70.45C381.331 71.3 381.231 72.2333 381.231 73.25ZM379.106 73.25C379.106 71.5 379.381 69.95 379.931 68.6C380.481 67.25 381.24 66.1917 382.206 65.425C383.19 64.6417 384.323 64.25 385.606 64.25C386.89 64.25 388.015 64.6417 388.981 65.425C389.965 66.1917 390.731 67.25 391.281 68.6C391.831 69.95 392.106 71.5 392.106 73.25C392.106 75 391.831 76.55 391.281 77.9C390.731 79.25 389.965 80.3167 388.981 81.1C388.015 81.8667 386.89 82.25 385.606 82.25C384.323 82.25 383.19 81.8667 382.206 81.1C381.24 80.3167 380.481 79.25 379.931 77.9C379.381 76.55 379.106 75 379.106 73.25ZM396.222 73.25C396.222 74.2667 396.322 75.2083 396.522 76.075C396.722 76.925 397.013 77.6667 397.397 78.3C397.78 78.9167 398.238 79.4 398.772 79.75C399.322 80.0833 399.93 80.25 400.597 80.25C401.28 80.25 401.888 80.0833 402.422 79.75C402.955 79.4 403.413 78.9167 403.797 78.3C404.18 77.6667 404.472 76.925 404.672 76.075C404.872 75.2083 404.972 74.2667 404.972 73.25C404.972 72.2333 404.872 71.3 404.672 70.45C404.472 69.5833 404.18 68.8417 403.797 68.225C403.413 67.5917 402.955 67.1083 402.422 66.775C401.888 66.425 401.28 66.25 400.597 66.25C399.93 66.25 399.322 66.425 398.772 66.775C398.238 67.1083 397.78 67.5917 397.397 68.225C397.013 68.8417 396.722 69.5833 396.522 70.45C396.322 71.3 396.222 72.2333 396.222 73.25ZM394.097 73.25C394.097 71.5 394.372 69.95 394.922 68.6C395.472 67.25 396.23 66.1917 397.197 65.425C398.18 64.6417 399.313 64.25 400.597 64.25C401.88 64.25 403.005 64.6417 403.972 65.425C404.955 66.1917 405.722 67.25 406.272 68.6C406.822 69.95 407.097 71.5 407.097 73.25C407.097 75 406.822 76.55 406.272 77.9C405.722 79.25 404.955 80.3167 403.972 81.1C403.005 81.8667 401.88 82.25 400.597 82.25C399.313 82.25 398.18 81.8667 397.197 81.1C396.23 80.3167 395.472 79.25 394.922 77.9C394.372 76.55 394.097 75 394.097 73.25ZM411.212 73.25C411.212 74.2667 411.312 75.2083 411.512 76.075C411.712 76.925 412.004 77.6667 412.387 78.3C412.77 78.9167 413.229 79.4 413.762 79.75C414.312 80.0833 414.92 80.25 415.587 80.25C416.27 80.25 416.879 80.0833 417.412 79.75C417.945 79.4 418.404 78.9167 418.787 78.3C419.17 77.6667 419.462 76.925 419.662 76.075C419.862 75.2083 419.962 74.2667 419.962 73.25C419.962 72.2333 419.862 71.3 419.662 70.45C419.462 69.5833 419.17 68.8417 418.787 68.225C418.404 67.5917 417.945 67.1083 417.412 66.775C416.879 66.425 416.27 66.25 415.587 66.25C414.92 66.25 414.312 66.425 413.762 66.775C413.229 67.1083 412.77 67.5917 412.387 68.225C412.004 68.8417 411.712 69.5833 411.512 70.45C411.312 71.3 411.212 72.2333 411.212 73.25ZM409.087 73.25C409.087 71.5 409.362 69.95 409.912 68.6C410.462 67.25 411.22 66.1917 412.187 65.425C413.17 64.6417 414.304 64.25 415.587 64.25C416.87 64.25 417.995 64.6417 418.962 65.425C419.945 66.1917 420.712 67.25 421.262 68.6C421.812 69.95 422.087 71.5 422.087 73.25C422.087 75 421.812 76.55 421.262 77.9C420.712 79.25 419.945 80.3167 418.962 81.1C417.995 81.8667 416.87 82.25 415.587 82.25C414.304 82.25 413.17 81.8667 412.187 81.1C411.22 80.3167 410.462 79.25 409.912 77.9C409.362 76.55 409.087 75 409.087 73.25ZM433.347 76.25C433.347 77.05 433.514 77.7583 433.847 78.375C434.197 78.9917 434.664 79.4833 435.247 79.85C435.847 80.2 436.522 80.375 437.272 80.375C437.889 80.375 438.464 80.2833 438.997 80.1C439.547 79.9 440.022 79.6417 440.422 79.325C440.822 78.9917 441.106 78.6417 441.272 78.275V80.775C440.872 81.2417 440.297 81.6083 439.547 81.875C438.814 82.125 438.056 82.25 437.272 82.25C436.156 82.25 435.147 81.9917 434.247 81.475C433.347 80.9583 432.631 80.25 432.097 79.35C431.581 78.4333 431.322 77.4 431.322 76.25C431.322 75.0833 431.581 74.05 432.097 73.15C432.631 72.25 433.347 71.5417 434.247 71.025C435.147 70.5083 436.156 70.25 437.272 70.25C438.056 70.25 438.814 70.3833 439.547 70.65C440.297 70.9 440.872 71.2583 441.272 71.725V74.225C441.106 73.8417 440.822 73.4917 440.422 73.175C440.022 72.8583 439.547 72.6083 438.997 72.425C438.464 72.225 437.889 72.125 437.272 72.125C436.522 72.125 435.847 72.3 435.247 72.65C434.664 73 434.197 73.4917 433.847 74.125C433.514 74.7417 433.347 75.45 433.347 76.25ZM445.286 78.45C445.286 78.8833 445.386 79.2583 445.586 79.575C445.802 79.8917 446.094 80.1333 446.461 80.3C446.844 80.45 447.277 80.525 447.761 80.525C448.377 80.525 448.927 80.4 449.411 80.15C449.911 79.9 450.302 79.55 450.586 79.1C450.886 78.6333 451.036 78.1 451.036 77.5L451.436 79C451.436 79.7333 451.211 80.3417 450.761 80.825C450.327 81.3083 449.786 81.6667 449.136 81.9C448.502 82.1333 447.869 82.25 447.236 82.25C446.536 82.25 445.877 82.1083 445.261 81.825C444.661 81.525 444.177 81.1 443.811 80.55C443.444 80 443.261 79.3333 443.261 78.55C443.261 77.4333 443.652 76.5417 444.436 75.875C445.236 75.1917 446.344 74.85 447.761 74.85C448.594 74.85 449.286 74.95 449.836 75.15C450.402 75.3333 450.852 75.55 451.186 75.8C451.519 76.0333 451.744 76.225 451.861 76.375V77.55C451.277 77.15 450.677 76.8667 450.061 76.7C449.444 76.5167 448.786 76.425 448.086 76.425C447.436 76.425 446.902 76.5083 446.486 76.675C446.086 76.8417 445.786 77.075 445.586 77.375C445.386 77.675 445.286 78.0333 445.286 78.45ZM444.986 73.15L444.011 71.675C444.444 71.3583 445.036 71.0417 445.786 70.725C446.552 70.4083 447.469 70.25 448.536 70.25C449.436 70.25 450.219 70.3917 450.886 70.675C451.569 70.9417 452.094 71.3333 452.461 71.85C452.844 72.3667 453.036 73 453.036 73.75V82H451.036V74.025C451.036 73.625 450.969 73.3 450.836 73.05C450.702 72.7833 450.511 72.575 450.261 72.425C450.027 72.275 449.752 72.1667 449.436 72.1C449.119 72.0333 448.786 72 448.436 72C447.869 72 447.352 72.0667 446.886 72.2C446.436 72.3333 446.052 72.4917 445.736 72.675C445.419 72.8583 445.169 73.0167 444.986 73.15ZM463.797 75C463.797 74.05 463.589 73.3333 463.172 72.85C462.755 72.3667 462.147 72.125 461.347 72.125C460.764 72.125 460.247 72.25 459.797 72.5C459.364 72.7333 459.022 73.0667 458.772 73.5C458.539 73.9333 458.422 74.4333 458.422 75V82H456.422V70.5H458.422V72.3C458.805 71.6 459.28 71.0833 459.847 70.75C460.43 70.4167 461.097 70.25 461.847 70.25C463.064 70.25 464.022 70.6583 464.722 71.475C465.439 72.275 465.797 73.3667 465.797 74.75V82H463.797V75ZM475.302 70.5H481.052V72.375H475.302V70.5ZM477.177 66.5H479.177V82H477.177V66.5ZM485.058 77.5C485.058 78.4167 485.266 79.125 485.683 79.625C486.099 80.125 486.708 80.375 487.508 80.375C488.091 80.375 488.599 80.2583 489.033 80.025C489.483 79.775 489.824 79.4333 490.058 79C490.308 78.5667 490.433 78.0667 490.433 77.5V70.5H492.433V82H490.433V80.2C490.049 80.8833 489.574 81.4 489.008 81.75C488.441 82.0833 487.774 82.25 487.008 82.25C485.808 82.25 484.849 81.8417 484.133 81.025C483.416 80.2083 483.058 79.1167 483.058 77.75V70.5H485.058V77.5ZM498.192 70.5V82H496.192V70.5H498.192ZM501.667 72.7C501.401 72.5 501.159 72.3583 500.942 72.275C500.726 72.175 500.451 72.125 500.117 72.125C499.617 72.125 499.226 72.25 498.942 72.5C498.659 72.75 498.459 73.0917 498.342 73.525C498.242 73.9583 498.192 74.45 498.192 75H497.292C497.292 74.0833 497.451 73.275 497.767 72.575C498.101 71.8583 498.526 71.2917 499.042 70.875C499.559 70.4583 500.084 70.25 500.617 70.25C501.034 70.25 501.417 70.3083 501.767 70.425C502.134 70.525 502.467 70.7333 502.767 71.05L501.667 72.7ZM512.137 75C512.137 74.05 511.928 73.3333 511.512 72.85C511.095 72.3667 510.487 72.125 509.687 72.125C509.103 72.125 508.587 72.25 508.137 72.5C507.703 72.7333 507.362 73.0667 507.112 73.5C506.878 73.9333 506.762 74.4333 506.762 75V82H504.762V70.5H506.762V72.3C507.145 71.6 507.62 71.0833 508.187 70.75C508.77 70.4167 509.437 70.25 510.187 70.25C511.403 70.25 512.362 70.6583 513.062 71.475C513.778 72.275 514.137 73.3667 514.137 74.75V82H512.137V75ZM534.517 70.5L527.017 87.5H524.767L527.917 80.375L523.517 70.5H525.892L529.542 79.5L528.717 79.4L532.267 70.5H534.517ZM535.036 76.25C535.036 75.0833 535.294 74.05 535.811 73.15C536.344 72.25 537.061 71.5417 537.961 71.025C538.861 70.5083 539.869 70.25 540.986 70.25C542.119 70.25 543.128 70.5083 544.011 71.025C544.911 71.5417 545.619 72.25 546.136 73.15C546.669 74.05 546.936 75.0833 546.936 76.25C546.936 77.4 546.669 78.4333 546.136 79.35C545.619 80.25 544.911 80.9583 544.011 81.475C543.128 81.9917 542.119 82.25 540.986 82.25C539.869 82.25 538.861 81.9917 537.961 81.475C537.061 80.9583 536.344 80.25 535.811 79.35C535.294 78.4333 535.036 77.4 535.036 76.25ZM537.061 76.25C537.061 77.05 537.228 77.7583 537.561 78.375C537.911 78.9917 538.378 79.4833 538.961 79.85C539.561 80.2 540.236 80.375 540.986 80.375C541.736 80.375 542.403 80.2 542.986 79.85C543.586 79.4833 544.053 78.9917 544.386 78.375C544.736 77.7583 544.911 77.05 544.911 76.25C544.911 75.45 544.736 74.7417 544.386 74.125C544.053 73.4917 543.586 73 542.986 72.65C542.403 72.3 541.736 72.125 540.986 72.125C540.236 72.125 539.561 72.3 538.961 72.65C538.378 73 537.911 73.4917 537.561 74.125C537.228 74.7417 537.061 75.45 537.061 76.25ZM551.684 77.5C551.684 78.4167 551.892 79.125 552.309 79.625C552.725 80.125 553.334 80.375 554.134 80.375C554.717 80.375 555.225 80.2583 555.659 80.025C556.109 79.775 556.45 79.4333 556.684 79C556.934 78.5667 557.059 78.0667 557.059 77.5V70.5H559.059V82H557.059V80.2C556.675 80.8833 556.2 81.4 555.634 81.75C555.067 82.0833 554.4 82.25 553.634 82.25C552.434 82.25 551.475 81.8417 550.759 81.025C550.042 80.2083 549.684 79.1167 549.684 77.75V70.5H551.684V77.5ZM564.818 70.5V82H562.818V70.5H564.818ZM568.293 72.7C568.027 72.5 567.785 72.3583 567.568 72.275C567.352 72.175 567.077 72.125 566.743 72.125C566.243 72.125 565.852 72.25 565.568 72.5C565.285 72.75 565.085 73.0917 564.968 73.525C564.868 73.9583 564.818 74.45 564.818 75H563.918C563.918 74.0833 564.077 73.275 564.393 72.575C564.727 71.8583 565.152 71.2917 565.668 70.875C566.185 70.4583 566.71 70.25 567.243 70.25C567.66 70.25 568.043 70.3083 568.393 70.425C568.76 70.525 569.093 70.7333 569.393 71.05L568.293 72.7ZM179.5 91.5H181.5V111H179.5V91.5ZM169.875 105.25C169.875 104 170.133 102.933 170.65 102.05C171.167 101.15 171.858 100.458 172.725 99.975C173.592 99.4917 174.542 99.25 175.575 99.25C176.542 99.25 177.383 99.4917 178.1 99.975C178.817 100.458 179.375 101.15 179.775 102.05C180.192 102.933 180.4 104 180.4 105.25C180.4 106.483 180.192 107.55 179.775 108.45C179.375 109.35 178.817 110.042 178.1 110.525C177.383 111.008 176.542 111.25 175.575 111.25C174.542 111.25 173.592 111.008 172.725 110.525C171.858 110.042 171.167 109.35 170.65 108.45C170.133 107.55 169.875 106.483 169.875 105.25ZM171.9 105.25C171.9 106.133 172.075 106.883 172.425 107.5C172.792 108.117 173.275 108.583 173.875 108.9C174.475 109.217 175.125 109.375 175.825 109.375C176.408 109.375 176.983 109.217 177.55 108.9C178.117 108.583 178.583 108.117 178.95 107.5C179.317 106.883 179.5 106.133 179.5 105.25C179.5 104.367 179.317 103.617 178.95 103C178.583 102.383 178.117 101.917 177.55 101.6C176.983 101.283 176.408 101.125 175.825 101.125C175.125 101.125 174.475 101.283 173.875 101.6C173.275 101.917 172.792 102.383 172.425 103C172.075 103.617 171.9 104.367 171.9 105.25ZM187.133 99.5V111H185.133V99.5H187.133ZM190.608 101.7C190.341 101.5 190.099 101.358 189.883 101.275C189.666 101.175 189.391 101.125 189.058 101.125C188.558 101.125 188.166 101.25 187.883 101.5C187.599 101.75 187.399 102.092 187.283 102.525C187.183 102.958 187.133 103.45 187.133 104H186.233C186.233 103.083 186.391 102.275 186.708 101.575C187.041 100.858 187.466 100.292 187.983 99.875C188.499 99.4583 189.024 99.25 189.558 99.25C189.974 99.25 190.358 99.3083 190.708 99.425C191.074 99.525 191.408 99.7333 191.708 100.05L190.608 101.7ZM197.786 111.25C196.719 111.25 195.769 111 194.936 110.5C194.119 109.983 193.478 109.275 193.011 108.375C192.561 107.475 192.336 106.433 192.336 105.25C192.336 104.05 192.569 103 193.036 102.1C193.519 101.2 194.186 100.5 195.036 100C195.903 99.5 196.903 99.25 198.036 99.25C199.169 99.25 200.136 99.4917 200.936 99.975C201.753 100.442 202.378 101.117 202.811 102C203.244 102.883 203.461 103.933 203.461 105.15C203.461 105.267 203.453 105.392 203.436 105.525C203.436 105.642 203.436 105.717 203.436 105.75H193.611V104.05H201.861L201.061 105.2C201.111 105.117 201.161 104.992 201.211 104.825C201.261 104.642 201.286 104.492 201.286 104.375C201.286 103.692 201.144 103.1 200.861 102.6C200.594 102.1 200.219 101.708 199.736 101.425C199.253 101.142 198.686 101 198.036 101C197.269 101 196.611 101.167 196.061 101.5C195.528 101.817 195.111 102.283 194.811 102.9C194.528 103.5 194.378 104.242 194.361 105.125C194.361 106.025 194.503 106.792 194.786 107.425C195.069 108.058 195.486 108.542 196.036 108.875C196.586 109.208 197.253 109.375 198.036 109.375C198.819 109.375 199.511 109.208 200.111 108.875C200.711 108.525 201.219 108 201.636 107.3L203.261 108.325C202.661 109.292 201.903 110.025 200.986 110.525C200.086 111.008 199.019 111.25 197.786 111.25ZM207.102 107.45C207.102 107.883 207.202 108.258 207.402 108.575C207.619 108.892 207.91 109.133 208.277 109.3C208.66 109.45 209.094 109.525 209.577 109.525C210.194 109.525 210.744 109.4 211.227 109.15C211.727 108.9 212.119 108.55 212.402 108.1C212.702 107.633 212.852 107.1 212.852 106.5L213.252 108C213.252 108.733 213.027 109.342 212.577 109.825C212.144 110.308 211.602 110.667 210.952 110.9C210.319 111.133 209.685 111.25 209.052 111.25C208.352 111.25 207.694 111.108 207.077 110.825C206.477 110.525 205.994 110.1 205.627 109.55C205.26 109 205.077 108.333 205.077 107.55C205.077 106.433 205.469 105.542 206.252 104.875C207.052 104.192 208.16 103.85 209.577 103.85C210.41 103.85 211.102 103.95 211.652 104.15C212.219 104.333 212.669 104.55 213.002 104.8C213.335 105.033 213.56 105.225 213.677 105.375V106.55C213.094 106.15 212.494 105.867 211.877 105.7C211.26 105.517 210.602 105.425 209.902 105.425C209.252 105.425 208.719 105.508 208.302 105.675C207.902 105.842 207.602 106.075 207.402 106.375C207.202 106.675 207.102 107.033 207.102 107.45ZM206.802 102.15L205.827 100.675C206.26 100.358 206.852 100.042 207.602 99.725C208.369 99.4083 209.285 99.25 210.352 99.25C211.252 99.25 212.035 99.3917 212.702 99.675C213.385 99.9417 213.91 100.333 214.277 100.85C214.66 101.367 214.852 102 214.852 102.75V111H212.852V103.025C212.852 102.625 212.785 102.3 212.652 102.05C212.519 101.783 212.327 101.575 212.077 101.425C211.844 101.275 211.569 101.167 211.252 101.1C210.935 101.033 210.602 101 210.252 101C209.685 101 209.169 101.067 208.702 101.2C208.252 101.333 207.869 101.492 207.552 101.675C207.235 101.858 206.985 102.017 206.802 102.15ZM233.988 103.75V111H231.988V104C231.988 103.017 231.805 102.292 231.438 101.825C231.088 101.358 230.538 101.125 229.788 101.125C229.238 101.125 228.763 101.242 228.363 101.475C227.963 101.692 227.655 102.017 227.438 102.45C227.222 102.883 227.113 103.4 227.113 104V111H225.113V104C225.113 103.017 224.93 102.292 224.563 101.825C224.213 101.358 223.663 101.125 222.913 101.125C222.363 101.125 221.888 101.242 221.488 101.475C221.088 101.692 220.78 102.017 220.563 102.45C220.347 102.883 220.238 103.4 220.238 104V111H218.238V99.5H220.238V101.175C220.588 100.525 221.022 100.042 221.538 99.725C222.072 99.4083 222.697 99.25 223.413 99.25C224.213 99.25 224.897 99.4417 225.463 99.825C226.047 100.192 226.472 100.717 226.738 101.4C227.138 100.683 227.638 100.15 228.238 99.8C228.838 99.4333 229.522 99.25 230.288 99.25C231.072 99.25 231.738 99.425 232.288 99.775C232.838 100.125 233.255 100.642 233.538 101.325C233.838 101.992 233.988 102.8 233.988 103.75ZM245.24 94.75C245.24 94.3667 245.374 94.0417 245.64 93.775C245.924 93.5083 246.249 93.375 246.615 93.375C246.999 93.375 247.324 93.5083 247.59 93.775C247.857 94.0417 247.99 94.3667 247.99 94.75C247.99 95.1167 247.857 95.4417 247.59 95.725C247.324 95.9917 246.999 96.125 246.615 96.125C246.249 96.125 245.924 95.9917 245.64 95.725C245.374 95.4417 245.24 95.1167 245.24 94.75ZM245.615 99.5H247.615V111H245.615V99.5ZM259.109 104C259.109 103.05 258.901 102.333 258.484 101.85C258.068 101.367 257.459 101.125 256.659 101.125C256.076 101.125 255.559 101.25 255.109 101.5C254.676 101.733 254.334 102.067 254.084 102.5C253.851 102.933 253.734 103.433 253.734 104V111H251.734V99.5H253.734V101.3C254.118 100.6 254.593 100.083 255.159 99.75C255.743 99.4167 256.409 99.25 257.159 99.25C258.376 99.25 259.334 99.6583 260.034 100.475C260.751 101.275 261.109 102.367 261.109 103.75V111H259.109V104ZM263.119 99.5H268.869V101.375H263.119V99.5ZM264.994 95.5H266.994V111H264.994V95.5ZM269.875 105.25C269.875 104.083 270.133 103.05 270.65 102.15C271.183 101.25 271.9 100.542 272.8 100.025C273.7 99.5083 274.708 99.25 275.825 99.25C276.958 99.25 277.967 99.5083 278.85 100.025C279.75 100.542 280.458 101.25 280.975 102.15C281.508 103.05 281.775 104.083 281.775 105.25C281.775 106.4 281.508 107.433 280.975 108.35C280.458 109.25 279.75 109.958 278.85 110.475C277.967 110.992 276.958 111.25 275.825 111.25C274.708 111.25 273.7 110.992 272.8 110.475C271.9 109.958 271.183 109.25 270.65 108.35C270.133 107.433 269.875 106.4 269.875 105.25ZM271.9 105.25C271.9 106.05 272.067 106.758 272.4 107.375C272.75 107.992 273.217 108.483 273.8 108.85C274.4 109.2 275.075 109.375 275.825 109.375C276.575 109.375 277.242 109.2 277.825 108.85C278.425 108.483 278.892 107.992 279.225 107.375C279.575 106.758 279.75 106.05 279.75 105.25C279.75 104.45 279.575 103.742 279.225 103.125C278.892 102.492 278.425 102 277.825 101.65C277.242 101.3 276.575 101.125 275.825 101.125C275.075 101.125 274.4 101.3 273.8 101.65C273.217 102 272.75 102.492 272.4 103.125C272.067 103.742 271.9 104.45 271.9 105.25ZM294.018 99.5V111H292.018V99.5H294.018ZM297.493 101.7C297.226 101.5 296.984 101.358 296.768 101.275C296.551 101.175 296.276 101.125 295.943 101.125C295.443 101.125 295.051 101.25 294.768 101.5C294.484 101.75 294.284 102.092 294.168 102.525C294.068 102.958 294.018 103.45 294.018 104H293.118C293.118 103.083 293.276 102.275 293.593 101.575C293.926 100.858 294.351 100.292 294.868 99.875C295.384 99.4583 295.909 99.25 296.443 99.25C296.859 99.25 297.243 99.3083 297.593 99.425C297.959 99.525 298.293 99.7333 298.593 100.05L297.493 101.7ZM304.671 111.25C303.604 111.25 302.654 111 301.821 110.5C301.004 109.983 300.362 109.275 299.896 108.375C299.446 107.475 299.221 106.433 299.221 105.25C299.221 104.05 299.454 103 299.921 102.1C300.404 101.2 301.071 100.5 301.921 100C302.787 99.5 303.787 99.25 304.921 99.25C306.054 99.25 307.021 99.4917 307.821 99.975C308.637 100.442 309.262 101.117 309.696 102C310.129 102.883 310.346 103.933 310.346 105.15C310.346 105.267 310.337 105.392 310.321 105.525C310.321 105.642 310.321 105.717 310.321 105.75H300.496V104.05H308.746L307.946 105.2C307.996 105.117 308.046 104.992 308.096 104.825C308.146 104.642 308.171 104.492 308.171 104.375C308.171 103.692 308.029 103.1 307.746 102.6C307.479 102.1 307.104 101.708 306.621 101.425C306.137 101.142 305.571 101 304.921 101C304.154 101 303.496 101.167 302.946 101.5C302.412 101.817 301.996 102.283 301.696 102.9C301.412 103.5 301.262 104.242 301.246 105.125C301.246 106.025 301.387 106.792 301.671 107.425C301.954 108.058 302.371 108.542 302.921 108.875C303.471 109.208 304.137 109.375 304.921 109.375C305.704 109.375 306.396 109.208 306.996 108.875C307.596 108.525 308.104 108 308.521 107.3L310.146 108.325C309.546 109.292 308.787 110.025 307.871 110.525C306.971 111.008 305.904 111.25 304.671 111.25ZM313.987 107.45C313.987 107.883 314.087 108.258 314.287 108.575C314.504 108.892 314.795 109.133 315.162 109.3C315.545 109.45 315.979 109.525 316.462 109.525C317.079 109.525 317.629 109.4 318.112 109.15C318.612 108.9 319.004 108.55 319.287 108.1C319.587 107.633 319.737 107.1 319.737 106.5L320.137 108C320.137 108.733 319.912 109.342 319.462 109.825C319.029 110.308 318.487 110.667 317.837 110.9C317.204 111.133 316.57 111.25 315.937 111.25C315.237 111.25 314.579 111.108 313.962 110.825C313.362 110.525 312.879 110.1 312.512 109.55C312.145 109 311.962 108.333 311.962 107.55C311.962 106.433 312.354 105.542 313.137 104.875C313.937 104.192 315.045 103.85 316.462 103.85C317.295 103.85 317.987 103.95 318.537 104.15C319.104 104.333 319.554 104.55 319.887 104.8C320.22 105.033 320.445 105.225 320.562 105.375V106.55C319.979 106.15 319.379 105.867 318.762 105.7C318.145 105.517 317.487 105.425 316.787 105.425C316.137 105.425 315.604 105.508 315.187 105.675C314.787 105.842 314.487 106.075 314.287 106.375C314.087 106.675 313.987 107.033 313.987 107.45ZM313.687 102.15L312.712 100.675C313.145 100.358 313.737 100.042 314.487 99.725C315.254 99.4083 316.17 99.25 317.237 99.25C318.137 99.25 318.92 99.3917 319.587 99.675C320.27 99.9417 320.795 100.333 321.162 100.85C321.545 101.367 321.737 102 321.737 102.75V111H319.737V103.025C319.737 102.625 319.67 102.3 319.537 102.05C319.404 101.783 319.212 101.575 318.962 101.425C318.729 101.275 318.454 101.167 318.137 101.1C317.82 101.033 317.487 101 317.137 101C316.57 101 316.054 101.067 315.587 101.2C315.137 101.333 314.754 101.492 314.437 101.675C314.12 101.858 313.87 102.017 313.687 102.15ZM325.123 91.5H327.123V111H325.123V91.5ZM330.885 94.75C330.885 94.3667 331.018 94.0417 331.285 93.775C331.568 93.5083 331.893 93.375 332.26 93.375C332.643 93.375 332.968 93.5083 333.235 93.775C333.501 94.0417 333.635 94.3667 333.635 94.75C333.635 95.1167 333.501 95.4417 333.235 95.725C332.968 95.9917 332.643 96.125 332.26 96.125C331.893 96.125 331.568 95.9917 331.285 95.725C331.018 95.4417 330.885 95.1167 330.885 94.75ZM331.26 99.5H333.26V111H331.26V99.5ZM335.629 99.5H341.379V101.375H335.629V99.5ZM337.504 95.5H339.504V111H337.504V95.5ZM352.51 99.5L345.01 116.5H342.76L345.91 109.375L341.51 99.5H343.885L347.535 108.5L346.71 108.4L350.26 99.5H352.51ZM353.406 110C353.406 109.617 353.54 109.292 353.806 109.025C354.09 108.758 354.415 108.625 354.781 108.625C355.165 108.625 355.49 108.758 355.756 109.025C356.023 109.292 356.156 109.617 356.156 110C356.156 110.367 356.023 110.692 355.756 110.975C355.49 111.242 355.165 111.375 354.781 111.375C354.415 111.375 354.09 111.242 353.806 110.975C353.54 110.692 353.406 110.367 353.406 110Z" fill="white"/>
<path d="M61.89 123.78C96.0709 123.78 123.78 96.0709 123.78 61.89C123.78 27.7091 96.0709 0 61.89 0C27.7091 0 0 27.7091 0 61.89C0 96.0709 27.7091 123.78 61.89 123.78Z" fill="#FFFEFC"/>
<path d="M30.459 91.1451C30.4613 90.7188 30.5585 90.2984 30.7436 89.9144C30.9287 89.5304 31.197 89.1924 31.529 88.9251C37.7357 83.1384 43.939 77.3417 50.139 71.5351L71.419 51.6651C71.8003 51.253 72.2993 50.9684 72.8482 50.8502C73.397 50.7321 73.969 50.786 74.4861 51.0046C75.0032 51.2233 75.4403 51.596 75.7379 52.0721C76.0355 52.5482 76.179 53.1044 76.149 53.6651C76.1068 54.0755 75.9834 54.4734 75.786 54.8357C75.5886 55.1979 75.321 55.5173 74.999 55.7751C71.039 59.4551 67.0923 63.1418 63.159 66.8351C53.879 75.5018 44.6023 84.1684 35.329 92.8351C34.9743 93.2386 34.5138 93.5348 33.9996 93.6903C33.4853 93.8458 32.9378 93.8544 32.419 93.7151C31.8571 93.5584 31.3617 93.2226 31.008 92.7588C30.6542 92.295 30.4615 91.7284 30.459 91.1451ZM61.239 62.7351L60.609 63.3251L37.139 85.2551C35.469 86.8151 33.789 88.3651 32.139 89.9451C31.9752 90.0819 31.8409 90.2505 31.744 90.4407C31.6472 90.6309 31.5899 90.8387 31.5756 91.0517C31.5613 91.2646 31.5903 91.4782 31.6608 91.6796C31.7313 91.8811 31.8419 92.0661 31.9859 92.2236C32.1299 92.3811 32.3043 92.5078 32.4986 92.5961C32.6929 92.6844 32.9031 92.7323 33.1165 92.7371C33.3298 92.742 33.5419 92.7035 33.74 92.6241C33.9381 92.5447 34.118 92.426 34.269 92.2751C34.459 92.1151 34.629 91.9451 34.809 91.7851L62.849 65.5651C63.0517 65.4296 63.27 65.3188 63.499 65.2351C62.9428 65.0414 62.4443 64.711 62.0493 64.2741C61.6544 63.8372 61.3757 63.3079 61.239 62.7351ZM62.239 62.2751C62.2732 62.6013 62.3917 62.9129 62.5828 63.1794C62.7739 63.4459 63.0311 63.658 63.329 63.7951C63.6196 63.9284 63.9447 63.9673 64.2586 63.9063C64.5725 63.8453 64.8594 63.6875 65.079 63.4551L69.929 58.9251C71.399 57.5551 72.929 56.1851 74.339 54.7951C74.5168 54.6607 74.6644 54.4905 74.7721 54.2955C74.8799 54.1005 74.9455 53.885 74.9646 53.663C74.9838 53.441 74.956 53.2174 74.8832 53.0068C74.8103 52.7962 74.6941 52.6033 74.5419 52.4405C74.3897 52.2778 74.205 52.1488 73.9997 52.062C73.7945 51.9752 73.5733 51.9325 73.3505 51.9367C73.1277 51.9409 72.9083 51.9919 72.7065 52.0864C72.5046 52.1809 72.3249 52.3167 72.179 52.4851C69.119 55.3251 66.069 58.1817 63.029 61.0551C62.7284 61.4303 62.4733 61.8399 62.269 62.2751H62.239Z" fill="#5C036B"/>
<path d="M33.1905 94.009C32.9162 94.007 32.6436 93.9666 32.3805 93.889C31.7829 93.7236 31.2569 93.3651 30.8843 92.8695C30.5117 92.374 30.3135 91.769 30.3205 91.149C30.3219 90.7042 30.4223 90.2653 30.6143 89.8641C30.8062 89.4628 31.0851 89.1092 31.4305 88.829L43.9605 77.119L50.0405 71.439L71.3205 51.569C71.7259 51.1336 72.2558 50.8339 72.8379 50.7109C73.4199 50.5879 74.0257 50.6475 74.5727 50.8816C75.1196 51.1157 75.581 51.5128 75.8938 52.0188C76.2066 52.5249 76.3556 53.1151 76.3205 53.709C76.2232 54.5761 75.7886 55.3699 75.1105 55.919L66.5605 63.919L57.2605 72.599L35.4305 92.969C34.8491 93.5961 34.0447 93.9695 33.1905 94.009ZM73.4305 50.929C72.7068 50.954 72.02 51.2545 71.5105 51.769L50.2405 71.649L44.1605 77.329L31.6305 89.039C31.3167 89.2914 31.0639 89.6113 30.8908 89.9749C30.7177 90.3385 30.6287 90.7363 30.6305 91.139C30.6324 91.6873 30.8116 92.2203 31.1415 92.6582C31.4713 93.0962 31.934 93.4157 32.4605 93.569C32.9552 93.7064 33.4789 93.6994 33.9697 93.5488C34.4606 93.3982 34.898 93.1103 35.2305 92.719L57.0505 72.329L66.3405 63.639L74.9005 55.639C75.5201 55.1451 75.9191 54.4261 76.0105 53.639C76.0379 53.1291 75.9151 52.6224 75.6574 52.1816C75.3997 51.7407 75.0183 51.3852 74.5605 51.159C74.2055 50.9997 73.8195 50.9211 73.4305 50.929ZM33.1305 92.859C32.9048 92.858 32.6817 92.8104 32.4752 92.7192C32.2687 92.628 32.0833 92.4952 31.9305 92.329C31.7723 92.1686 31.6483 91.9778 31.5658 91.7681C31.4833 91.5584 31.4441 91.3342 31.4505 91.109C31.4572 90.8692 31.5119 90.6333 31.6116 90.4151C31.7112 90.197 31.8537 90.0011 32.0305 89.839C33.2205 88.709 34.4405 87.569 35.6305 86.469L60.5105 63.219C60.6805 63.059 60.8605 62.889 61.0805 62.699L61.3205 62.469L61.3805 62.699C61.5138 63.2508 61.7831 63.7604 62.1639 64.1813C62.5447 64.6023 63.0248 64.9212 63.5605 65.109L63.8405 65.229L63.5705 65.369L63.3405 65.469C63.1995 65.5164 63.0676 65.5874 62.9505 65.679L36.8905 90.029L34.8105 91.969C34.6605 92.109 34.5105 92.259 34.3505 92.389C34.0109 92.6828 33.5795 92.849 33.1305 92.859ZM61.1305 62.999L60.6605 63.429L35.7805 86.679C34.6005 87.779 33.3805 88.919 32.1905 90.049C31.89 90.3263 31.7105 90.7106 31.6905 91.119C31.6935 91.4907 31.8363 91.8477 32.0905 92.119C32.3589 92.3781 32.7174 92.5229 33.0905 92.5229C33.4636 92.5229 33.8221 92.3781 34.0905 92.119L34.5305 91.709L36.6105 89.769C45.3772 81.6824 54.0938 73.5824 62.7605 65.469C62.8744 65.3679 63.0069 65.2898 63.1505 65.239C62.6785 65.0304 62.2572 64.7222 61.9155 64.3356C61.5737 63.949 61.3196 63.493 61.1705 62.999H61.1305ZM63.9605 64.089C63.7188 64.0827 63.4809 64.0283 63.2605 63.929C62.9405 63.7853 62.664 63.56 62.4587 63.2756C62.2533 62.9913 62.1263 62.6579 62.0905 62.309V62.249C62.1805 62.119 62.2505 61.989 62.3305 61.859C62.4754 61.5401 62.6751 61.249 62.9205 60.999C65.9205 58.129 69.0605 55.229 72.0605 52.429C72.2192 52.2519 72.4123 52.1091 72.6281 52.0091C72.8439 51.9092 73.0777 51.8542 73.3154 51.8477C73.5531 51.8411 73.7897 51.8831 74.0106 51.971C74.2316 52.059 74.4323 52.1909 74.6005 52.359C74.7619 52.5117 74.8897 52.6965 74.9758 52.9013C75.0619 53.1062 75.1044 53.3268 75.1005 53.549C75.0865 53.8159 75.0191 54.0774 74.9023 54.3178C74.7855 54.5583 74.6217 54.7729 74.4205 54.949C73.3305 55.949 72.2205 57.029 71.1405 58.029L69.3105 59.739L65.2105 63.569C64.8879 63.8898 64.4553 64.0758 64.0005 64.089H63.9605ZM62.3805 62.309C62.4171 62.6022 62.5283 62.8812 62.7034 63.1192C62.8784 63.3573 63.1115 63.5466 63.3805 63.669C63.6451 63.7919 63.9419 63.8271 64.2279 63.7696C64.5139 63.712 64.7741 63.5647 64.9705 63.349L69.1305 59.479L70.9505 57.769C72.0305 56.769 73.1505 55.769 74.2305 54.689C74.4049 54.5386 74.5478 54.3551 74.6508 54.1491C74.7538 53.9432 74.8149 53.7188 74.8305 53.489C74.8334 53.3014 74.7966 53.1154 74.7225 52.943C74.6484 52.7707 74.5386 52.6159 74.4005 52.489C74.2607 52.345 74.0924 52.2319 73.9063 52.1568C73.7203 52.0817 73.5206 52.0462 73.32 52.0528C73.1195 52.0594 72.9225 52.1079 72.7418 52.195C72.561 52.2822 72.4005 52.4062 72.2705 52.559C69.2705 55.359 66.1605 58.259 63.1205 61.129C62.9066 61.3654 62.7281 61.6314 62.5905 61.919L62.3805 62.309Z" fill="#5C036B"/>
<path d="M49.9804 57.5697C49.7404 57.7097 49.5104 57.9697 49.2704 57.9697C46.4004 57.9697 44.0104 60.6797 43.8704 63.7397C43.8704 63.8897 43.8704 64.0797 43.8704 64.1697C43.6844 64.3805 43.4803 64.5746 43.2604 64.7497C43.0904 64.5597 42.8204 64.3797 42.7704 64.1597C42.6204 63.5697 42.6304 62.9497 42.4704 62.3697C42.1961 61.1888 41.553 60.1259 40.6343 59.3348C39.7156 58.5438 38.5689 58.0657 37.3604 57.9697C37.1104 57.9697 36.8904 57.6197 36.6504 57.4297C36.8804 57.2297 37.0904 56.8697 37.3304 56.8597C38.7091 56.7385 40.0001 56.1325 40.9742 55.1493C41.9482 54.1661 42.5421 52.8694 42.6504 51.4897C42.6539 51.1728 42.6942 50.8573 42.7704 50.5497C42.8504 50.3497 43.1204 50.0997 43.3004 50.1097C43.4174 50.1327 43.5265 50.1852 43.6175 50.2622C43.7085 50.3392 43.7784 50.4381 43.8204 50.5497C43.9604 51.1197 43.9504 51.7097 44.0804 52.2797C44.3281 53.5035 44.9695 54.6126 45.9066 55.4378C46.8437 56.263 48.0251 56.7588 49.2704 56.8497C49.5304 56.8497 49.7704 57.1297 50.0304 57.2797L49.9804 57.5697ZM43.2804 61.2097C43.9584 59.5713 45.19 58.223 46.7604 57.3997C45.1864 56.5958 43.9442 55.2652 43.2504 53.6397C42.5502 55.2471 41.3177 56.5643 39.7604 57.3697C41.346 58.1756 42.5936 59.5189 43.2804 61.1597V61.2097Z" fill="#5C036B"/>
<path d="M43.2089 64.9062L43.1089 64.7962L42.9489 64.6262C42.7836 64.5015 42.6585 64.3312 42.5889 64.1362C42.522 63.8431 42.4753 63.5457 42.4489 63.2462C42.4144 62.9438 42.3643 62.6435 42.2989 62.3463C42.033 61.1909 41.4041 60.1511 40.5043 59.3791C39.6046 58.6071 38.4812 58.1435 37.2989 58.0562C37.0707 57.9987 36.8672 57.8689 36.7189 57.6862C36.6538 57.6146 36.5837 57.5477 36.5089 57.4862L36.3789 57.3862L36.5089 57.2662C36.5806 57.2012 36.6474 57.131 36.7089 57.0562C36.8789 56.8662 37.0489 56.6762 37.2689 56.6662C38.6162 56.549 39.8779 55.9567 40.8286 54.9949C41.7794 54.0332 42.3572 52.7647 42.4589 51.4162C42.4642 51.3196 42.4642 51.2228 42.4589 51.1262C42.456 50.8949 42.4932 50.6648 42.5689 50.4462C42.6248 50.3099 42.7133 50.1894 42.8266 50.0952C42.9399 50.0011 43.0746 49.9362 43.2189 49.9062C43.3686 49.9329 43.5086 49.9988 43.6245 50.0972C43.7404 50.1955 43.8282 50.3229 43.8789 50.4662C43.9451 50.7629 43.9918 51.0635 44.0189 51.3662C44.0435 51.6416 44.0835 51.9154 44.1389 52.1862C44.3781 53.3818 45.0024 54.4661 45.9162 55.2733C46.8299 56.0805 47.983 56.5663 49.1989 56.6562C49.4205 56.6905 49.6264 56.7917 49.7889 56.9462C49.8689 56.9462 49.9389 57.0563 50.0189 57.0963L50.0889 57.1462V57.5662H50.0189L49.8089 57.7062C49.653 57.8554 49.4531 57.95 49.2389 57.9762C46.4789 57.9762 44.1189 60.5462 43.9789 63.6162C43.974 63.6561 43.974 63.6964 43.9789 63.7362C43.9982 63.8715 43.97 64.0094 43.8989 64.1262C43.765 64.2851 43.6178 64.4323 43.4589 64.5662L43.2789 64.7262L43.2089 64.9062ZM36.8289 57.3662C36.8604 57.4077 36.8974 57.4447 36.9389 57.4762C37.0424 57.6108 37.1807 57.7146 37.3389 57.7762C38.5744 57.8806 39.7456 58.3715 40.6862 59.1793C41.6269 59.9871 42.2891 61.0707 42.5789 62.2762C42.6489 62.5862 42.6889 62.9062 42.7289 63.2162C42.7601 63.5019 42.8069 63.7856 42.8689 64.0662C42.9291 64.2031 43.0218 64.3232 43.1389 64.4162L43.2289 64.4962L43.3089 64.4262C43.4576 64.3058 43.5948 64.1719 43.7189 64.0262C43.7189 64.0262 43.7189 63.8862 43.7189 63.8262C43.7139 63.7797 43.7139 63.7327 43.7189 63.6862C43.8589 60.4662 46.3489 57.8162 49.2489 57.7762C49.4022 57.7393 49.5433 57.6635 49.6589 57.5562L49.8289 57.4362V57.3062L49.6489 57.1762C49.5267 57.0598 49.3742 56.9801 49.2089 56.9462C47.9325 56.8501 46.7224 56.34 45.7622 55.4936C44.8021 54.6471 44.1443 53.5105 43.8889 52.2562C43.831 51.972 43.7876 51.6849 43.7589 51.3962C43.7359 51.1069 43.6925 50.8194 43.6289 50.5362C43.594 50.4536 43.5408 50.3801 43.4732 50.3212C43.4056 50.2623 43.3255 50.2195 43.2389 50.1962C43.1541 50.2266 43.0765 50.2743 43.0111 50.3363C42.9457 50.3983 42.8938 50.4731 42.8589 50.5562C42.7959 50.7464 42.7655 50.9459 42.7689 51.1462C42.7689 51.2462 42.7689 51.3462 42.7689 51.4462C42.658 52.8639 42.0471 54.1961 41.0453 55.2053C40.0434 56.2144 38.7157 56.835 37.2989 56.9562C37.2089 56.9562 37.0589 57.1162 36.9389 57.2462C36.9076 57.2908 36.8706 57.3311 36.8289 57.3662ZM43.2789 61.5262L43.1389 61.2162C42.4724 59.6058 41.2524 58.2865 39.6989 57.4962L39.4689 57.3662L39.6989 57.2362C41.2367 56.4393 42.4442 55.1256 43.1089 53.5262L43.2389 53.2262L43.3789 53.5262C44.0605 55.1228 45.2817 56.429 46.8289 57.2162L47.0689 57.3362L46.8289 57.4762C45.2816 58.278 44.0695 59.6036 43.4089 61.2162L43.2789 61.5262ZM40.0689 57.3662C41.4763 58.1454 42.5976 59.3543 43.2689 60.8162C43.9422 59.3538 45.0581 58.14 46.4589 57.3463C45.0555 56.5727 43.9321 55.3757 43.2489 53.9262C42.5742 55.3768 41.4621 56.5798 40.0689 57.3662Z" fill="#5C036B"/>
<path d="M87.88 43.5715C87.36 43.5715 87.29 43.1614 87.29 42.7414C87.3289 42.1719 87.2292 41.6015 86.9993 41.079C86.7694 40.5565 86.4162 40.0975 85.97 39.7414C85.2359 39.2954 84.4627 38.9172 83.66 38.6114C83.38 38.4614 82.98 38.2815 82.91 38.0315C82.78 37.5515 83.22 37.4914 83.6 37.4214C84.6278 37.3136 85.5773 36.8226 86.2593 36.0461C86.9413 35.2696 87.3058 34.2646 87.28 33.2314C87.28 32.8214 87.43 32.4315 87.89 32.5315C88.0255 32.5965 88.1435 32.6931 88.234 32.8132C88.3244 32.9332 88.3848 33.0733 88.41 33.2215C88.4004 34.2545 88.7729 35.2547 89.4558 36.0299C90.1387 36.8051 91.084 37.3007 92.11 37.4214C92.49 37.4814 92.94 37.5415 92.83 38.0115C92.7637 38.1614 92.6615 38.2927 92.5324 38.3938C92.4034 38.495 92.2514 38.5629 92.09 38.5915C91.0916 38.7228 90.1734 39.2077 89.5019 39.958C88.8304 40.7084 88.4501 41.6747 88.43 42.6814C88.41 43.3414 88.27 43.5715 87.88 43.5715ZM89.88 38.0514L87.88 35.9214L85.88 38.0514L87.88 40.1814L89.88 38.0514Z" fill="#5C036B"/>
<path d="M87.8689 43.6983C87.1389 43.6283 87.1389 43.0183 87.1389 42.6983C87.1713 42.1572 87.0738 41.6162 86.8547 41.1205C86.6355 40.6247 86.3009 40.1885 85.8789 39.8483C85.4363 39.5407 84.9557 39.2919 84.4489 39.1083C84.1689 38.9983 83.8789 38.8783 83.5989 38.7383H83.5489C83.2389 38.5883 82.8489 38.3883 82.7689 38.0983C82.7384 38.0272 82.7227 37.9506 82.7227 37.8733C82.7227 37.7959 82.7384 37.7194 82.7689 37.6483C82.9089 37.4183 83.2189 37.3683 83.4989 37.3083C84.4923 37.1986 85.4085 36.721 86.0674 35.9696C86.7262 35.2182 87.08 34.2474 87.0589 33.2483C87.0541 33.1116 87.0774 32.9755 87.1273 32.8482C87.1771 32.721 87.2526 32.6052 87.3489 32.5083C87.4188 32.4578 87.499 32.4236 87.5838 32.408C87.6685 32.3924 87.7557 32.3959 87.8389 32.4182C88.0058 32.4889 88.1515 32.6016 88.2619 32.7453C88.3723 32.889 88.4436 33.0588 88.4689 33.2383C88.4486 34.242 88.8065 35.2168 89.4716 35.9689C90.1366 36.721 91.0602 37.1955 92.0589 37.2983H92.1189C92.3926 37.3111 92.6506 37.4294 92.8389 37.6283C92.8754 37.693 92.8986 37.7644 92.9072 37.8382C92.9157 37.9121 92.9096 37.9869 92.8889 38.0583C92.8132 38.236 92.6953 38.3926 92.5455 38.5146C92.3956 38.6365 92.2183 38.7202 92.0289 38.7583C91.0651 38.885 90.1787 39.3534 89.531 40.0782C88.8832 40.8031 88.517 41.7363 88.4989 42.7083C88.4989 43.2883 88.3389 43.7083 87.7989 43.7083L87.8689 43.6983ZM87.7489 32.6983C87.7001 32.6829 87.6478 32.6829 87.5989 32.6983C87.4989 32.7683 87.4389 32.9482 87.4289 33.2282C87.4525 34.2936 87.0749 35.3289 86.3711 36.1291C85.6673 36.9292 84.6886 37.4357 83.6289 37.5483C83.4189 37.5483 83.1689 37.6283 83.0989 37.7483C83.0835 37.7829 83.0755 37.8203 83.0755 37.8583C83.0755 37.8962 83.0835 37.9337 83.0989 37.9683C83.1489 38.1383 83.4989 38.3183 83.7289 38.4383H83.7789C84.0489 38.5783 84.3289 38.6883 84.6089 38.8083C85.1405 38.9982 85.6448 39.2571 86.1089 39.5783C86.5662 39.9454 86.929 40.4164 87.1673 40.9522C87.4056 41.4879 87.5125 42.0729 87.4789 42.6583C87.4789 43.1383 87.5889 43.3083 87.9389 43.3483C88.2889 43.3883 88.3089 43.2783 88.3389 42.6283C88.3611 41.5893 88.7544 40.5926 89.4478 39.8185C90.1411 39.0445 91.0887 38.5442 92.1189 38.4083C92.2498 38.3788 92.3729 38.3215 92.4798 38.2405C92.5868 38.1594 92.6751 38.0563 92.7389 37.9383C92.7662 37.8709 92.7662 37.7956 92.7389 37.7282C92.6589 37.6082 92.4189 37.5683 92.2089 37.5283H92.1489C91.0875 37.4094 90.108 36.9006 89.4004 36.1006C88.6927 35.3005 88.3073 34.2663 88.3189 33.1983C88.2975 33.0813 88.2505 32.9705 88.1814 32.8737C88.1122 32.7769 88.0226 32.6965 87.9189 32.6383L87.7489 32.6983ZM87.8589 40.3883L85.6789 38.0483L87.8589 35.7083L90.0689 38.0483L87.8589 40.3883ZM86.0689 38.0483L87.8589 39.9583L89.6689 38.0483L87.8589 36.1283L86.0689 38.0483Z" fill="#5C036B"/>
<path d="M70.4393 77.5706C70.2993 77.3506 70.0693 77.1306 70.0493 76.9006C70.0667 76.1986 69.814 75.5167 69.3432 74.9957C68.8724 74.4746 68.2195 74.1543 67.5193 74.1006C67.3952 74.0504 67.2855 73.9703 67.2 73.8673C67.1145 73.7644 67.0559 73.6418 67.0293 73.5106C67.0293 73.3706 67.3193 73.0506 67.5193 73.0206C68.2194 72.9575 68.8696 72.6316 69.339 72.1083C69.8085 71.5851 70.0622 70.9034 70.0493 70.2006C70.0493 70.0006 70.3893 69.8206 70.5593 69.6406C70.7593 69.8606 71.1193 70.0706 71.1293 70.3106C71.1297 70.7497 71.2397 71.1818 71.4492 71.5677C71.6588 71.9536 71.9613 72.2811 72.3293 72.5206C72.7471 72.7064 73.1743 72.8699 73.6093 73.0106C73.8193 73.1206 74.1193 73.3806 74.1093 73.5606C74.0748 73.6877 74.0106 73.8048 73.9219 73.9022C73.8332 73.9995 73.7226 74.0744 73.5993 74.1206C71.8793 74.5706 71.3893 75.1206 71.1493 76.8206C71.1493 77.0906 70.8593 77.3306 70.7093 77.5806L70.4393 77.5706ZM69.5093 73.5706L70.5793 74.7106L71.6493 73.5706L70.5793 72.4406L69.5093 73.5706Z" fill="#5C036B"/>
<path d="M70.7602 77.7197H70.3302V77.6497L70.1902 77.4597C70.0547 77.3075 69.9647 77.1204 69.9302 76.9197C69.9548 76.2479 69.7153 75.5932 69.2629 75.0959C68.8105 74.5987 68.1813 74.2985 67.5102 74.2597C67.3589 74.1978 67.2252 74.0999 67.1206 73.9744C67.016 73.8488 66.9437 73.6996 66.9102 73.5397C66.9102 73.3097 67.2502 72.9297 67.5102 72.8897C68.1812 72.8362 68.8061 72.5274 69.2563 72.027C69.7065 71.5266 69.9476 70.8726 69.9302 70.1997C69.9302 69.9997 70.1202 69.8497 70.2902 69.7097L70.4802 69.5497L70.5902 69.4297L70.6902 69.5497C70.7552 69.6213 70.8254 69.6882 70.9002 69.7497C71.0995 69.8791 71.2424 70.0792 71.3002 70.3097C71.295 70.7268 71.396 71.1384 71.5937 71.5058C71.7914 71.8732 72.0792 72.1842 72.4302 72.4097C72.6372 72.5261 72.8593 72.6136 73.0902 72.6697C73.2968 72.7236 73.4977 72.7973 73.6902 72.8897C73.9302 73.0097 74.2802 73.3097 74.2702 73.5797C74.2384 73.7372 74.1651 73.8833 74.0578 74.0029C73.9506 74.1224 73.8133 74.2111 73.6602 74.2597C72.0002 74.6997 71.5402 75.2597 71.3102 76.8497C71.2595 77.0678 71.1565 77.2703 71.0102 77.4397C70.9512 77.5123 70.8977 77.5891 70.8502 77.6697L70.7602 77.7197ZM70.5002 77.4197H70.6102L70.7402 77.2497C70.8553 77.1159 70.9405 76.9591 70.9902 76.7897C71.2402 75.0197 71.7602 74.4397 73.5402 73.9697C73.634 73.9313 73.7184 73.873 73.7874 73.7987C73.8565 73.7245 73.9086 73.636 73.9402 73.5397C73.9402 73.4597 73.7302 73.2297 73.5202 73.1297C73.3438 73.0453 73.1596 72.9783 72.9702 72.9297C72.7112 72.8631 72.4624 72.7622 72.2302 72.6297C71.8417 72.3804 71.5226 72.0371 71.3023 71.6315C71.0821 71.2259 70.9678 70.7712 70.9702 70.3097C70.9702 70.1997 70.8002 70.0597 70.6702 69.9397L70.5402 69.8297L70.4402 69.9097C70.3302 69.9997 70.1802 70.1197 70.1702 70.1997C70.1961 70.9439 69.9359 71.6697 69.4429 72.2277C68.9499 72.7858 68.2618 73.1336 67.5202 73.1997C67.3585 73.2625 67.2264 73.3839 67.1502 73.5397C67.1752 73.6384 67.2212 73.7306 67.2851 73.81C67.3489 73.8894 67.4291 73.954 67.5202 73.9997C68.254 74.0534 68.9388 74.388 69.4324 74.9337C69.9259 75.4793 70.1901 76.1942 70.1702 76.9297C70.2065 77.0722 70.2788 77.2031 70.3802 77.3097L70.5002 77.4197ZM70.5602 74.8997L69.3202 73.5697L70.5802 72.2297L71.8502 73.5697L70.5602 74.8997ZM69.7602 73.5697L70.6302 74.4997L71.5002 73.5697L70.6302 72.6497L69.7602 73.5697Z" fill="#5C036B"/>
<path d="M69.4606 43.6865C69.3506 43.8065 69.1906 44.1265 69.0606 44.1165C68.9172 44.1078 68.7771 44.0706 68.6483 44.0071C68.5195 43.9435 68.4047 43.8549 68.3106 43.7465C67.6006 42.6565 66.9406 41.5265 66.3106 40.4065C66.0843 40.1571 65.8987 39.8736 65.7606 39.5665C65.7368 39.4376 65.7424 39.305 65.777 39.1786C65.8116 39.0522 65.8744 38.9353 65.9606 38.8365C66.0725 38.7974 66.1925 38.787 66.3096 38.8063C66.4266 38.8255 66.537 38.8737 66.6306 38.9465C67.6306 40.4465 68.4706 41.9465 69.3806 43.4765C69.4306 43.4765 69.4206 43.5665 69.4606 43.6865Z" fill="#5C036B"/>
<path d="M69.0707 44.2599C68.9054 44.2514 68.7437 44.2088 68.5958 44.1348C68.4478 44.0608 68.3167 43.957 68.2107 43.8299C67.6707 42.9999 67.1607 42.1399 66.6607 41.2999L66.1607 40.4799C66.1607 40.3999 66.0607 40.3199 66.0107 40.2399C65.8552 40.0354 65.7368 39.8053 65.6607 39.5599C65.6313 39.4078 65.6377 39.2509 65.6794 39.1016C65.721 38.9524 65.7968 38.8149 65.9007 38.6999C66.0326 38.6203 66.1892 38.5919 66.3407 38.6199C66.4407 38.6199 66.7007 38.6899 66.7907 38.8399C67.5607 40.0499 68.3107 41.3099 69.0407 42.5199L69.5507 43.3699C69.5577 43.4196 69.5577 43.4702 69.5507 43.5199C69.5507 43.5199 69.5507 43.5999 69.5507 43.6599V43.7299V43.7799L69.4507 43.9099C69.3607 44.0799 69.2407 44.2599 69.0707 44.2599ZM66.1607 38.8999H66.0707C66.0066 38.9808 65.9602 39.0741 65.9344 39.174C65.9085 39.2739 65.9039 39.3781 65.9207 39.4799C65.9879 39.6935 66.0929 39.8934 66.2307 40.0699L66.3907 40.3299C66.5607 40.5999 66.7207 40.8699 66.8807 41.1499C67.3807 41.9799 67.8807 42.8399 68.4307 43.6699C68.6029 43.8467 68.8344 43.9536 69.0807 43.9699L69.2407 43.7399L69.3007 43.6399C69.3007 43.6399 69.3007 43.5799 69.3007 43.5599C69.2967 43.5401 69.2967 43.5197 69.3007 43.4999L68.7907 42.6599C68.0707 41.4499 67.3207 40.1899 66.5507 38.9799C66.4314 38.9155 66.2957 38.8877 66.1607 38.8999Z" fill="#5C036B"/>
<path d="M81.3391 55.9375C81.5791 56.0375 81.7391 56.0875 81.8891 56.1675L85.8891 58.3275C86.2591 58.5275 86.5791 58.7675 86.3391 59.2375C86.0991 59.7075 85.6991 59.5275 85.3391 59.3375C83.9791 58.5975 82.5991 57.8775 81.2591 57.1075C81.1485 57.0182 81.0569 56.9076 80.9899 56.7822C80.9229 56.6568 80.8819 56.5191 80.8691 56.3775C80.8791 56.2475 81.1891 56.0775 81.3391 55.9375Z" fill="#5C036B"/>
<path d="M85.93 59.6756C85.7061 59.6575 85.4899 59.5855 85.3 59.4656L84.21 58.8756C83.21 58.3456 82.21 57.7956 81.21 57.2356C81.0815 57.1331 80.9746 57.006 80.8956 56.8618C80.8167 56.7176 80.7672 56.5591 80.75 56.3956C80.75 56.2256 80.9 56.0956 81.08 55.9556L81.23 55.8256L81.3 55.7656H81.39L81.6 55.8456L81.95 55.9956L83.89 56.9956L85.97 58.1156C86.1695 58.2016 86.3447 58.3356 86.48 58.5056C86.5492 58.6092 86.5862 58.731 86.5862 58.8556C86.5862 58.9802 86.5492 59.102 86.48 59.2056C86.4424 59.2887 86.3886 59.3634 86.3216 59.4252C86.2546 59.4871 86.1758 59.5348 86.09 59.5656C86.0444 59.6124 85.99 59.6497 85.93 59.6756ZM81.37 56.0956L81.26 56.1856C81.181 56.242 81.1073 56.3057 81.04 56.3756C81.0737 56.6118 81.1907 56.8281 81.37 56.9856C82.37 57.5456 83.37 58.0956 84.37 58.6256L85.46 59.2056C85.6268 59.3298 85.8326 59.3901 86.04 59.3756C86.1381 59.3373 86.2172 59.2618 86.26 59.1656C86.37 58.9556 86.33 58.8356 86.26 58.7656C86.1539 58.6312 86.0166 58.5248 85.86 58.4556L83.76 57.3356L81.82 56.3356L81.51 56.1956L81.37 56.0956Z" fill="#5C036B"/>
<path d="M73.4395 41.9259C73.7595 40.5259 74.0495 39.2759 74.3395 38.0259C74.3754 37.6814 74.4631 37.3443 74.5995 37.0259C74.7295 36.8159 75.0495 36.7259 75.2895 36.5859C75.4295 36.8159 75.7095 37.0659 75.6695 37.2559C75.3395 38.8159 74.9695 40.3759 74.5595 41.9159C74.5044 42.0366 74.4195 42.1413 74.3128 42.22C74.2061 42.2988 74.081 42.349 73.9495 42.3659C73.7595 42.3759 73.5695 42.0659 73.4395 41.9259Z" fill="#5C036B"/>
<path d="M73.9591 42.5697C73.7491 42.5697 73.5991 42.3797 73.4591 42.2097L73.3491 42.0797L73.2891 42.0197L74.2091 38.0197C74.2306 37.9239 74.2473 37.8271 74.2591 37.7297C74.2899 37.4742 74.3679 37.2267 74.4891 36.9997C74.6245 36.828 74.8043 36.6966 75.0091 36.6197L75.2291 36.5097L75.3491 36.4297L75.4291 36.5597L75.5691 36.7597C75.7191 36.9497 75.8591 37.1397 75.8191 37.3297C75.4891 38.8897 75.1191 40.4597 74.7091 41.9997C74.6479 42.1541 74.5458 42.2888 74.4136 42.3893C74.2814 42.4898 74.1242 42.5522 73.9591 42.5697ZM73.5891 41.9297L73.6791 42.0297C73.7491 42.1197 73.8791 42.2797 73.9491 42.2897C74.0466 42.2718 74.1387 42.232 74.2185 42.173C74.2982 42.1141 74.3634 42.0377 74.4091 41.9497C74.8191 40.4097 75.1891 38.8397 75.5191 37.2897C75.5191 37.2297 75.4091 37.0697 75.3291 36.9597L75.2391 36.8397L75.1091 36.8997C74.9557 36.9557 74.8184 37.0484 74.7091 37.1697C74.6125 37.3674 74.5515 37.5807 74.5291 37.7997L74.4691 38.0997L73.5891 41.9297Z" fill="#5C036B"/>
<path d="M79.8889 65.4463C79.7589 65.5563 79.5689 65.8463 79.4089 65.8263C79.2779 65.8121 79.1522 65.7665 79.0425 65.6933C78.9329 65.6202 78.8424 65.5218 78.7789 65.4063C78.3989 64.4063 78.0889 63.2963 77.7789 62.2363C77.6075 61.7847 77.4737 61.3199 77.3789 60.8463C77.381 60.7167 77.4149 60.5897 77.4777 60.4763C77.5405 60.363 77.6302 60.2668 77.7389 60.1963C77.868 60.1897 77.9967 60.2166 78.1123 60.2745C78.2279 60.3323 78.3267 60.4191 78.3989 60.5263C78.9189 62.0363 79.3989 63.5263 79.8589 65.0863C79.8489 65.1563 79.8489 65.2263 79.8889 65.4463Z" fill="#5C036B"/>
<path d="M79.4189 65.9783C79.2598 65.9589 79.1077 65.9015 78.9754 65.811C78.8432 65.7205 78.7346 65.5996 78.6588 65.4583C78.3688 64.6583 78.1089 63.8284 77.8689 63.0284L77.6389 62.2784C77.6389 62.1584 77.5589 62.0384 77.5089 61.9084C77.3863 61.5839 77.2926 61.2493 77.2289 60.9084C77.2243 60.7442 77.2648 60.582 77.3459 60.4392C77.427 60.2964 77.5456 60.1786 77.6888 60.0984C77.8541 60.0811 78.0208 60.1126 78.1683 60.189C78.3158 60.2654 78.4377 60.3834 78.5188 60.5284C78.9288 61.6984 79.2989 62.9083 79.6689 64.0683L79.9789 65.0683C79.9876 65.1314 79.9876 65.1953 79.9789 65.2583V65.5183L79.9189 65.5783C79.8833 65.6129 79.8499 65.6496 79.8189 65.6883C79.7589 65.8083 79.5989 65.9783 79.4189 65.9783ZM77.7589 60.3283C77.6839 60.3868 77.6227 60.4609 77.5795 60.5456C77.5363 60.6302 77.5122 60.7233 77.5089 60.8183C77.5632 61.1592 77.6502 61.4941 77.7688 61.8183C77.8188 61.9383 77.8589 62.0683 77.8989 62.1883L78.1288 62.9383C78.3788 63.7383 78.6289 64.5683 78.9189 65.3583C78.9736 65.4481 79.0479 65.5244 79.1362 65.5815C79.2245 65.6386 79.3245 65.6752 79.4289 65.6883C79.4789 65.6883 79.6089 65.5383 79.6689 65.4783L79.7388 65.3984V65.2784C79.7388 65.2084 79.7388 65.1683 79.7388 65.1283L79.4189 64.1283C79.0589 62.9583 78.6789 61.7584 78.2789 60.5884C78.215 60.5112 78.1358 60.4483 78.0463 60.4035C77.9567 60.3588 77.8588 60.3332 77.7589 60.3283Z" fill="#5C036B"/>
<path d="M84.2301 52.2781C84.0996 52.317 83.9606 52.317 83.8301 52.2781C83.6201 52.1781 83.3501 51.9781 83.3301 51.7981C83.3437 51.6798 83.3864 51.5667 83.4545 51.469C83.5226 51.3713 83.6138 51.2919 83.7201 51.2381C84.246 51.1447 84.7769 51.0812 85.3101 51.0481L87.5601 50.8281C87.9801 50.8281 88.4401 50.8281 88.3801 51.3581C88.3801 51.5881 87.9401 51.9081 87.6701 51.9481C86.5901 52.0881 85.5001 52.1581 84.2301 52.2781Z" fill="#5C036B"/>
<path d="M84.0195 52.4505C83.9326 52.4498 83.8471 52.4293 83.7695 52.3905C83.6795 52.3905 83.2195 52.1105 83.1895 51.8005C83.1984 51.6461 83.2499 51.4972 83.3381 51.3701C83.4263 51.2431 83.5479 51.1429 83.6895 51.0805C84.075 51.0004 84.4662 50.9503 84.8595 50.9305H85.2995H85.3695L87.5495 50.7205C87.6925 50.6878 87.8411 50.6869 87.9845 50.718C88.128 50.7491 88.2628 50.8114 88.3795 50.9005C88.4413 50.9687 88.487 51.05 88.5129 51.1383C88.5389 51.2266 88.5446 51.3197 88.5295 51.4105C88.5295 51.7105 88.0195 52.0705 87.6895 52.1205C86.9095 52.2405 86.1095 52.3105 85.2695 52.3805L84.2695 52.4705C84.1856 52.4737 84.1017 52.467 84.0195 52.4505ZM87.7695 50.9405H87.5695L85.3995 51.1605H85.3295H84.8795C84.5027 51.1803 84.1281 51.2304 83.7595 51.3105C83.6854 51.3538 83.6218 51.4131 83.5734 51.484C83.525 51.5549 83.4929 51.6357 83.4795 51.7205C83.4795 51.8005 83.6595 51.9705 83.8895 52.0805C83.9838 52.1104 84.0851 52.1104 84.1795 52.0805L85.1795 51.9905C86.0195 51.9205 86.8095 51.8505 87.5895 51.7405C87.8195 51.7405 88.1695 51.4105 88.1795 51.2805C88.189 51.2316 88.1877 51.1811 88.1756 51.1327C88.1635 51.0843 88.141 51.0392 88.1095 51.0005C88.0024 50.9431 87.8795 50.922 87.7595 50.9405H87.7695Z" fill="#5C036B"/>
<path d="M64.8995 46.4683C64.7495 46.9583 64.5095 47.2183 64.0695 47.0183C62.8595 46.4683 61.6595 45.9083 60.4795 45.2983C60.3469 45.2386 60.2435 45.1287 60.1919 44.9927C60.1403 44.8568 60.1449 44.7059 60.2045 44.5733C60.2642 44.4407 60.3741 44.3372 60.5101 44.2856C60.6461 44.2341 60.7969 44.2386 60.9295 44.2983C62.1495 44.8283 63.3495 45.4083 64.5395 45.9983C64.7595 46.1083 64.7595 46.3383 64.8995 46.4683Z" fill="#5C036B"/>
<path d="M64.3402 47.226C64.2261 47.221 64.114 47.1939 64.0102 47.146C62.9202 46.656 61.6402 46.066 60.4102 45.426C60.283 45.32 60.1883 45.1802 60.137 45.0228C60.0857 44.8654 60.0799 44.6966 60.1202 44.536C60.2179 44.4025 60.3516 44.2996 60.5057 44.2394C60.6598 44.1791 60.8279 44.1641 60.9902 44.196C62.2702 44.746 63.5402 45.366 64.6102 45.896C64.7517 45.9798 64.8636 46.1056 64.9302 46.256L65.0102 46.376L65.0602 46.436V46.506C65.0335 46.6445 64.9779 46.7758 64.8969 46.8913C64.8159 47.0068 64.7114 47.1038 64.5902 47.176C64.5118 47.2117 64.4263 47.2288 64.3402 47.226ZM60.8302 44.456C60.6609 44.466 60.501 44.5371 60.3802 44.6561C60.3704 44.7475 60.3796 44.8399 60.4071 44.9277C60.4347 45.0154 60.48 45.0965 60.5402 45.166C61.7702 45.806 63.0502 46.396 64.1302 46.886C64.1801 46.91 64.2348 46.9224 64.2902 46.9224C64.3456 46.9224 64.4003 46.91 64.4502 46.886C64.5702 46.836 64.6602 46.696 64.7402 46.456C64.7353 46.4296 64.7353 46.4025 64.7402 46.376C64.6802 46.276 64.6102 46.156 64.5302 46.126C63.4602 45.596 62.2002 44.976 60.9302 44.426L60.8302 44.456Z" fill="#5C036B"/>
</svg>
