<svg version="1.2" xmlns="http://www.w3.org/2000/svg" viewBox="0 0 548 834" width="548" height="834">
	<title>Group 1000004719</title>
	<defs>
		<linearGradient id="g1" x2="1" gradientUnits="userSpaceOnUse" gradientTransform="matrix(749.696,-300.038,360.228,900.092,58.58,959.28)">
			<stop offset=".117" stop-color="#b53892"/>
			<stop offset=".201" stop-color="#8f2181"/>
			<stop offset=".37" stop-color="#731175"/>
			<stop offset=".514" stop-color="#62076e"/>
			<stop offset=".705" stop-color="#5c036b"/>
		</linearGradient>
		<clipPath clipPathUnits="userSpaceOnUse" id="cp1">
			<path d=""/>
		</clipPath>
		<linearGradient id="g2" x2="1" gradientUnits="userSpaceOnUse" gradientTransform="matrix(0,826.898,-543.852,0,274,1.092)">
			<stop offset="0" stop-color="#ffe09d"/>
			<stop offset=".23" stop-color="#a97800"/>
			<stop offset=".41" stop-color="#d9b25d"/>
			<stop offset=".59" stop-color="#fff09a"/>
			<stop offset=".77" stop-color="#ffd980"/>
			<stop offset="1" stop-color="#a57e29"/>
		</linearGradient>
	</defs>
	<style>
		.s0 { fill: url(#g1) } 
		.s1 { mix-blend-mode: soft-light;fill: #5c036b } 
		.s2 { mix-blend-mode: overlay;fill: #ffffff } 
		.s3 { fill: none;stroke: url(#g2);stroke-width: 6 } 
		.s4 { fill: #ffffff } 
	</style>
	<path fill-rule="evenodd" class="s0" d="m38 4h476c17.7 0 32 14.3 32 32v760c0 17.7-14.3 32-32 32h-476c-17.6 0-32-14.3-32-32v-760c0-17.7 14.4-32 32-32z"/>
	<g id="Clip-Path" clip-path="url(#cp1)">
		<g>
			<g style="opacity: .4">
				<path class="s1" d="m-2.7 380.3l8.9 8.6 0.1 12.4v1.7h1.8l12.6-0.1 8.9 8.7 1.3 1.2 1.2-1.3 8.8-8.8h12.5 1.8v-1.8l-0.1-12.3 8.8-8.8 1.3-1.3-1.3-1.2-8.9-8.7-0.1-12.3v-1.7h-1.8-12.5l-9-8.5-1.3-1.2-1.3 1.3-8.8 8.8-12.5 0.1h-1.7v1.7 12.3l-8.8 8.8-1.2 1.3zm11.9 6.7l-8.2-7.9 8.1-8.1 0.5-0.5v-0.7l-0.1-11.4 11.5-0.1h0.7l0.6-0.5 8-8 8.2 7.9 0.5 0.5h0.7l11.6-0.1v11.4 0.7l0.5 0.5 8.2 8-8 8-0.5 0.5v0.8l0.1 11.3-11.5 0.1h-0.7l-0.5 0.5-8.1 8.1-8.2-8-0.5-0.5h-0.7l-11.5 0.1-0.1-11.4v-0.7zm22.5-43.8l8.9-8.7h14.2v-14.1l8.9-8.7 1.3-1.3-1.3-1.3-8.9-8.7v-14.1h-14.1l-8.8-8.7-1.3-1.3-1.3 1.3-8.9 8.7h-14.1v14.1l-8.9 8.7-1.3 1.3 1.3 1.3 8.9 8.7v14.1h14.2l8.9 8.7 1.3 1.2zm6.9-11.6l-8.2 8-8.1-8-0.5-0.5h-12.2v-12.1l-0.5-0.5-8.2-8 8.2-8 0.5-0.5v-12.1h12.2l0.5-0.5 8.1-8 8.2 8 0.5 0.5h12.2v12.1l0.5 0.5 8.1 8-8.1 8-0.5 0.5v12.1h-12.1zm-41.3-90.2l8.9 8.6 0.1 12.4v1.7h1.9l12.5-0.1 9 8.7 1.2 1.3 1.3-1.3 8.8-8.8 12.5-0.1h1.7v-1.7l-0.1-12.4 8.8-8.8 1.3-1.2-1.3-1.2-8.9-8.7-0.1-12.4v-1.7h-1.7l-12.5 0.1-9-8.7-1.2-1.2-1.3 1.3-8.8 8.8-12.5 0.1h-1.8v1.7l0.1 12.3-8.8 8.8-1.2 1.3zm11.8 6.7l-8.1-7.9 8-8.1 0.5-0.5v-0.7-11.4h11.5 0.7l0.5-0.5 8.1-8.1 8.2 8 0.5 0.5h0.7l11.5-0.1 0.1 11.4v0.7l0.5 0.5 8.2 7.9-8 8-0.5 0.5v0.8l0.1 11.3-11.5 0.1h-0.7l-0.5 0.5-8.1 8.1-8.2-8-0.5-0.5h-0.7l-11.5 0.1-0.1-11.4v-0.7zm22.5-43.7l8.8-8.8h14.3v-14.1l8.9-8.7 1.3-1.3-1.3-1.2-8.9-8.8v-14.1h-14l-8.9-8.7-1.3-1.3-1.3 1.3-8.8 8.7h-14.2v14.1l-8.8 8.8-1.3 1.2 1.3 1.3 8.8 8.7v14.1h14.3l8.8 8.8 1.3 1.2zm6.9-11.6l-8.1 8-8.1-8-0.6-0.5h-12.2v-12.1l-0.5-0.5-8.1-8 8.1-8 0.5-0.5v-12.1h12.2l0.6-0.5 8.1-8 8.1 8 0.5 0.5h12.2v12.1l0.6 0.5 8.1 8-7.9 8-0.5 0.5v12.1h-12.3zm-41.1-90.2l8.9 8.6 0.1 12.4v1.7h1.8l12.5-0.1 8.9 8.7 1.3 1.2 1.2-1.3 8.8-8.8 12.5-0.1h1.8v-1.7l-0.1-12.3 8.8-8.8 1.3-1.3-1.3-1.2-8.9-8.7-0.2-12.2v-1.8h-1.7l-12.6 0.1-8.9-8.7-1.3-1.2-1.3 1.3-8.8 8.8-12.5 0.1h-1.7v1.7l0.1 12.4-8.8 8.7-1.3 1.3zm11.9 6.7l-8.2-7.9 8.1-8.1 0.5-0.5v-0.7l-0.1-11.4h11.5 0.7l0.5-0.5 8.1-8.1 8.2 7.9 0.5 0.5h0.8 11.5v11.3 0.7l0.6 0.5 8.2 8-8.1 8.1-0.5 0.5v0.7 11.3l-11.5 0.1h-0.7l-0.5 0.5-8.1 8.1-8.1-8-0.6-0.5h-0.7l-11.5 0.1-0.1-11.4v-0.7zm22.5-43.8l8.9-8.7h14.3v-14.1l8.8-8.7 1.3-1.3-1.3-1.2-8.8-8.7v-14.1h-14.3l-8.8-8.8-1.3-1.2-1.3 1.2-8.8 8.8h-14.2v14.1l-8.9 8.7-1.2 1.2 1.2 1.3 8.9 8.7v14.1h14.3l8.8 8.7 1.3 1.3zm6.9-11.7l-8.1 8.1-8.2-8.1-0.5-0.5h-12.2v-12l-0.5-0.5-8.1-8 8.1-8.1 0.5-0.5v-12h12.2l0.5-0.5 8.2-8 8.1 8 0.5 0.5h12.2v12l0.5 0.5 8.2 8.1-8.1 8-0.5 0.5v12h-12.2zm47.4 324l8.9-8.7h14.3v-14.1l8.8-8.7 1.3-1.3-1.3-1.2-8.8-8.7v-14.1h-14.3l-8.9-8.8-1.3-1.2-1.2 1.2-8.9 8.8h-14.2v14.1l-8.8 8.7-1.3 1.2 1.3 1.3 8.8 8.7v14.1h14.3l8.9 8.7 1.2 1.3zm6.9-11.7l-8.1 8.1-8.1-8.1-0.5-0.5h-12.2v-12l-0.6-0.5-8.1-8.1 8.1-8 0.6-0.5v-12h12.2l0.5-0.5 8.1-8 8.1 8 0.6 0.5h12.2v12l0.5 0.5 8.1 8.1-8.1 8-0.5 0.5v12h-12.2zm-41.3-90.2l8.9 8.7 0.1 12.3v1.8h1.7l12.5-0.1 8.9 8.7 1.3 1.2 1.3-1.2 8.8-8.8 12.5-0.1h1.8v-1.7l-0.1-12.4 8.8-8.8 1.3-1.3-1.3-1.2-8.9-8.6-0.1-12.4v-1.7h-1.9l-12.6 0.1-8.9-8.7-1.3-1.2-1.2 1.3-8.8 8.8h-12.6-1.7v1.8l0.1 12.3-8.8 8.8-1.3 1.3zm11.9 6.7l-8.2-8 8.1-8 0.5-0.6v-0.7l-0.1-11.3h11.5 0.7l0.5-0.5 8.1-8.1 8.2 8 0.5 0.5h0.7l11.5-0.1 0.1 11.3v0.8l0.5 0.5 8.2 7.9-8.1 8.1-0.5 0.5v0.7l0.1 11.4h-11.5-0.7l-0.5 0.5-8.1 8.1-8.2-7.9-0.5-0.5h-0.7-11.5l-0.1-11.3v-0.7zm22.5-43.8l8.8-8.7h14.3v-14.1l8.9-8.7 1.3-1.2-1.3-1.3-8.9-8.8v-14h-14.2l-8.9-8.7-1.3-1.2-1.3 1.2-8.8 8.8h-14.2v14.1l-8.8 8.7-1.3 1.3 1.3 1.2 8.8 8.7v14.1h14.3l8.8 8.7 1.3 1.3zm6.9-11.7l-8.1 8-8.1-8-0.5-0.5h-12.3v-12l-0.5-0.5-8.1-8.1 8.1-8 0.5-0.5v-12h12.3l0.5-0.5 8.1-8.1 8.1 8.1 0.5 0.5h12.3v12l0.5 0.5 8.1 8-8.1 8.1-0.5 0.5v12h-12.3zm-41.2-90.2l8.9 8.7 0.1 12.3v1.8h1.7l12.5-0.1 8.9 8.7 1.3 1.2 1.3-1.3 8.8-8.8 12.5-0.1h1.8v-1.7l-0.1-12.4 8.8-8.7 1.3-1.3-1.3-1.3-8.9-8.7-0.1-12.3v-1.6h-1.9l-12.6 0.1-8.9-8.7-1.3-1.2-1.2 1.3-8.8 8.8h-12.6-1.7v1.8l0.1 12.3-8.8 8.8-1.3 1.3zm11.9 6.7l-8.2-7.9 8.1-8.1 0.5-0.5v-0.7l-0.1-11.4 11.5-0.1h0.7l0.5-0.5 8.1-8 8.2 7.9 0.5 0.5h0.7 11.5l0.1 11.4v0.7l0.5 0.5 8.2 7.9-8.1 8.1-0.5 0.5v0.7l0.1 11.4-11.5 0.1h-0.7l-0.5 0.5-8.1 8-8.2-7.9-0.5-0.5h-0.7-11.5l-0.1-11.3v-0.7zm22.5-43.8l8.8-8.7h14.3v-14.1l8.9-8.7 1.3-1.3-1.3-1.3-8.9-8.7v-14.1h-14.2l-8.9-8.7-1.3-1.3-1.3 1.3-8.8 8.7h-14.2v14.1l-8.8 8.7-1.3 1.3 1.3 1.3 8.8 8.7v14.1h14.3l8.8 8.7 1.3 1.3zm6.9-11.7l-8.1 8.1-8.1-8.1-0.6-0.5h-12.2v-12l-0.5-0.5-8.1-8.1 8.1-8 0.5-0.5v-12h12.3l0.5-0.5 8.1-8 8.1 8 0.5 0.5h12.3v12.1l0.5 0.5 8.1 8-8.1 8-0.5 0.5v12h-12.3zm12.4 292.2l8.9 8.6 0.1 12.4v1.7h1.7l12.5-0.1 9 8.7 1.2 1.2 1.3-1.3 8.8-8.7 12.5-0.1h1.8v-1.7l-0.2-12.4 8.8-8.8 1.2-1.2-1.3-1.3-8.9-8.6-0.1-12.4v-1.7h-1.7l-12.6 0.1-8.8-8.6-1.3-1.2-1.2 1.3-8.8 8.8-12.5 0.1h-1.7v1.7l0.1 12.3-8.8 8.8-1.3 1.3zm11.9 6.7l-8.2-7.9 8.1-8.1 0.5-0.5v-0.7l-0.1-11.4h11.5 0.7l0.5-0.6 8.1-8 8.2 7.9 0.5 0.5h0.7 11.5l0.1 11.3v0.7l0.5 0.5 8.2 8-8.1 8.1-0.5 0.5v0.7l0.1 11.3-11.5 0.1h-0.7l-0.5 0.5-8.1 8.1-8.2-8-0.5-0.5h-0.7l-11.5 0.1-0.1-11.4v-0.7zm22.6-43.8l8.8-8.7h14.3v-14.1l8.9-8.7 1.3-1.3-1.3-1.3-8.9-8.6v-14h-14.2l-8.9-8.8-1.3-1.3-1.3 1.3-8.8 8.8h-14.2v14l-8.8 8.8-1.3 1.2 1.3 1.3 8.8 8.8v14h14.3l8.8 8.8 1.3 1.2zm6.9-11.7l-8.1 8-8.1-8-0.6-0.5h-12.2v-12l-0.5-0.6-8.1-8 8.1-8 0.5-0.5v-12h12.2l0.6-0.5 8.1-8.1 8.1 8.1 0.5 0.5h12.2v12l0.6 0.5 8.1 8-8.1 8-0.6 0.6v12h-12.2zm-41.3-90.2l8.9 8.7 0.1 12.3v1.7h1.7 12.6l8.9 8.6 1.3 1.3 1.3-1.3 8.8-8.8h12.5 1.7v-1.8l-0.1-12.3 8.8-8.8 1.2-1.3-1.3-1.2-8.9-8.7-0.1-12.3v-1.7h-1.7-12.5l-8.9-8.6-1.3-1.2-1.3 1.2-8.7 8.8-12.6 0.1h-1.7v1.7l0.1 12.4-8.8 8.8-1.2 1.2zm11.8 6.8l-8.2-8 8.1-8.1 0.5-0.5v-0.7-11.3h11.5 0.7l0.5-0.6 8.1-8 8.2 7.9 0.5 0.5h0.7 11.5l0.1 11.3v0.7l0.5 0.5 8.2 8-8.1 8.1-0.5 0.5v0.7l0.1 11.3-11.5 0.1h-0.8l-0.5 0.5-8 8.1-8.2-8-0.5-0.5h-0.7l-11.5 0.1v-11.3-0.8zm22.5-43.7l8.8-8.7h14.4v-14.1l8.9-8.8 1.3-1.2-1.3-1.3-8.9-8.6v-14.1h-14.3l-8.8-8.8-1.3-1.2-1.3 1.2-8.8 8.8h-14.2v14.1l-8.9 8.7-1.3 1.3 1.3 1.3 8.9 8.7v14.1h14.3l8.8 8.7 1.3 1.3zm6.9-11.7l-8.1 8-8.2-8-0.5-0.5h-12.2v-12.1l-0.5-0.5-8.1-8 8.1-8 0.5-0.5v-12.1h12.2l0.5-0.5 8.2-8 8.1 8 0.5 0.5h12.2v12.1l0.5 0.5 8.2 8-8.2 8.1-0.5 0.5v12h-12.2zm-41.2-90.2l8.9 8.7 0.1 12.3v1.8h1.7l12.6-0.1 8.9 8.6 1.3 1.2 1.2-1.2 8.8-8.8 12.6-0.1h1.7v-1.7l-0.2-12.3 8.8-8.8 1.2-1.3-1.3-1.2-8.9-8.7v-12.3-1.7h-1.7l-12.6 0.1-8.9-8.7-1.3-1.2-1.1 1.3-8.8 8.8-12.5 0.1h-1.8v1.7l0.1 12.3-8.8 8.8-1.3 1.3zm11.9 6.7l-8.2-7.9 8.1-8.1 0.5-0.5v-0.7l-0.1-11.4h11.5 0.7l0.5-0.6 8.1-8 8.2 7.9 0.5 0.5h0.7 11.5l0.1 11.3v0.7l0.5 0.5 8.2 8-8.1 8.1-0.5 0.5v0.7l0.1 11.3-11.5 0.1h-0.7l-0.5 0.5-8.1 8.1-8.2-8-0.5-0.5h-0.7l-11.5 0.1-0.1-11.3v-0.8zm22.5-43.7l8.9-8.8h14.3v-14.1l8.9-8.7 1.2-1.3-1.2-1.2-8.9-8.7v-14h-14.3l-8.8-8.8-1.3-1.2-1.3 1.2-8.9 8.8h-14.1v14l-8.9 8.8-1.3 1.2 1.3 1.3 8.9 8.7v14.1h14.2l8.9 8.7 1.3 1.3zm6.9-11.7l-8.2 8-8.1-8-0.5-0.5h-12.2v-12l-0.5-0.5-8.2-8.1 8.2-8 0.5-0.5v-12h12.2l0.5-0.5 8.1-8 8.2 8 0.5 0.5h12.2v12l0.5 0.5 8.1 8-8.1 8.1-0.5 0.5v12h-12.2zm47.4 324l8.8-8.7h14.3v-14.1l9-8.7 1.3-1.3-1.3-1.2-8.9-8.8v-14.1h-14.3l-8.9-8.7-1.3-1.3-1.3 1.3-8.8 8.7h-14.2v14.1l-8.8 8.8-1.3 1.2 1.3 1.3 8.8 8.7v14.1h14.3l8.9 8.7 1.3 1.3zm6.8-11.7l-8.1 8-8.1-8-0.5-0.5h-12.2v-12l-0.5-0.6-8.2-8 8.2-8 0.5-0.5v-12h12.2l0.5-0.5 8.1-8.1 8.2 8.1 0.5 0.5h12.2v12l0.5 0.5 8.1 8-8.1 8.1-0.5 0.5v12h-12.2zm-41.3-90.2l8.9 8.7 0.1 12.3v1.8h1.7l12.5-0.1 8.9 8.6 1.3 1.3 1.3-1.3 8.8-8.8h12.5 1.8v-1.7l-0.1-12.4 8.8-8.8 1.2-1.3-1.3-1.2-8.9-8.7-0.1-12.3v-1.7h-1.8l-12.5 0.1-8.9-8.7-1.2-1.2-1.3 1.3-8.8 8.8h-12.5-1.7v1.8l0.1 12.3-8.8 8.8-1.3 1.3zm11.9 6.7l-8.2-8 8.1-8 0.5-0.5v-0.8l-0.1-11.3h11.5 0.7l0.5-0.5 8.1-8.1 8.2 8 0.5 0.5h0.7l11.5-0.1 0.1 11.3v0.8l0.5 0.5 8.2 7.9-8.1 8.1-0.5 0.5v0.7l0.1 11.4h-11.5-0.7l-0.5 0.6-8.1 8-8.2-8-0.5-0.5h-0.7l-11.5 0.1-0.1-11.4v-0.7zm22.6-43.8l8.8-8.7h14.3v-14.1l9-8.7 1.3-1.2-1.3-1.3-8.9-8.7v-14.1h-14.3l-8.8-8.6-1.3-1.3-1.3 1.3-8.9 8.7h-14.1v14.1l-8.9 8.7-1.3 1.3 1.3 1.2 8.9 8.7v14.1h14.2l8.9 8.8 1.3 1.2zm6.9-11.7l-8.2 8.1-8.1-8.1-0.5-0.5h-12.2v-12l-0.5-0.5-8.1-8 8.1-8 0.5-0.6v-12h12.3l0.5-0.5 8.1-8 8.1 8 0.5 0.5h12.3v12l0.5 0.6 8.1 8-8.1 8-0.5 0.5v12h-12.2zm-41.4-90.2l9 8.7v12.4 1.7h1.8l12.5-0.1 8.9 8.7 1.3 1.2 1.3-1.3 8.8-8.8 12.5-0.1h1.7v-1.7-12.3l8.8-8.8 1.2-1.3-1.3-1.3-8.9-8.5v-12.3-1.8h-1.8l-12.5 0.1-8.9-8.6-1.3-1.3-1.3 1.3-8.7 8.8-12.6 0.1h-1.7v1.7l0.1 12.4-8.8 8.8-1.3 1.2zm11.9 6.8l-8.2-8 8.1-8.1 0.5-0.5v-0.7l-0.1-11.3 11.5-0.1h0.7l0.5-0.5 8.1-8.1 8.2 8 0.5 0.5h0.7 11.5l0.1 11.3v0.7l0.5 0.5 8.2 8-8.1 8.1-0.5 0.5v0.7l0.1 11.3-11.5 0.1h-0.6l-0.5 0.5-8.1 8.1-8.2-8.1-0.5-0.5h-0.7l-11.5 0.1-0.1-11.3v-0.7zm22.5-43.8l9-8.7h14.3v-14.1l8.9-8.7 1.3-1.3-1.3-1.3-8.8-8.7v-14.1h-14.4l-8.9-8.7-1.3-1.3-1.2 1.3-8.9 8.7h-14.1v14.1l-8.9 8.7-1.3 1.3 1.3 1.3 8.9 8.7v14.1h14.2l8.9 8.7 1.3 1.3zm6.9-11.7l-8.1 8-8.2-8-0.5-0.5h-12.1v-12l-0.5-0.6-8.1-8 8.1-8 0.5-0.5v-12h12.3l0.5-0.5 8.1-8 8.1 8 0.5 0.5h12.3v12.1l0.5 0.5 8.1 8-8.1 8-0.5 0.5v12h-12.3zm12.4 292.2l8.9 8.6 0.1 12.4v1.7h1.7l12.5-0.1 9 8.7 1.2 1.2 1.3-1.3 8.8-8.8 12.5-0.1h1.8v-1.7l-0.1-12.3 8.8-8.8 1.2-1.3-1.3-1.2-8.9-8.7-0.1-12.3v-1.7h-1.7-12.5l-8.9-8.5-1.2-1.2-1.3 1.3-8.8 8.8h-12.5-1.7v1.8 12.3l-8.8 8.8-1.2 1.3zm11.9 6.7l-8.2-8 8.1-8 0.5-0.5v-0.7l-0.1-11.4 11.5-0.1h0.9l0.5-0.5 8.1-8 8.1 7.9 0.6 0.5h0.7l11.5-0.1 0.1 11.4v0.7l0.5 0.5 8.2 8-8.1 8-0.5 0.5v0.8l0.1 11.3-11.5 0.1h-0.7l-0.5 0.5-8.1 8.1-8.2-8-0.5-0.5h-0.7l-11.5 0.1-0.1-11.4v-0.7zm22.5-43.8l8.9-8.7h14.2v-14.1l8.9-8.7 1.3-1.3-1.3-1.3-8.9-8.7v-14.1h-14l-8.9-8.7-1.3-1.3-1.3 1.3-8.7 8.8h-14.3v14.1l-8.8 8.8-1.3 1.2 1.3 1.3 8.8 8.8v14h14.3l8.9 8.8 1.3 1.2zm6.8-11.7l-8.1 8-8.1-8-0.5-0.5h-12.3v-12l-0.5-0.6-8.1-8 8.1-8 0.5-0.5v-12h12.3l0.5-0.5 8.1-8.1 8.1 8.1 0.5 0.5h12.5v12l0.5 0.5 8.1 8-8.1 8-0.5 0.6v12h-12.2zm-41.4-90.2l8.9 8.7 0.1 12.3v1.7h1.8 12.5l8.9 8.6 1.3 1.3 1.3-1.3 8.8-8.8h12.5 1.7v-1.8-12.3l8.8-8.8 1.2-1.3-1.3-1.2-8.9-8.7-0.1-12.3v-1.7h-1.7-12.6l-8.9-8.6-1.3-1.2-1.2 1.2-8.8 8.8-12.5 0.1h-1.8v1.7l0.1 12.4-8.8 8.8-1.2 1.2zm11.9 6.8l-8.2-8 8.1-8.1 0.5-0.5v-0.7l-0.1-11.3h11.5 0.9l0.5-0.6 8.1-8 8.2 7.9 0.5 0.5h0.8 11.5v11.3 0.7l0.6 0.5 8.1 8-8 8.1-0.5 0.5v0.7 11.3l-11.5 0.1h-0.7l-0.5 0.5-8.1 8.1-8.2-8-0.5-0.5h-0.7l-11.5 0.1-0.1-11.3v-0.8zm22.5-43.7l8.9-8.7h14.3v-14.1l8.8-8.8 1.3-1.2-1.3-1.3-8.8-8.8v-14h-14l-8.9-8.8-1.3-1.3-1.3 1.3-8.7 8.9h-14.3v14.1l-8.9 8.7-1.2 1.3 1.2 1.3 8.9 8.7v14.1h14.3l8.8 8.7 1.3 1.3zm6.9-11.7l-8.1 8-8.1-8-0.6-0.5h-12.2v-12.1l-0.5-0.5-8.1-8 8.1-8 0.5-0.5v-12h12.2l0.6-0.6 8.1-8 8.1 8 0.5 0.6h12.5v12l0.5 0.5 8.2 8.1-8.2 8-0.5 0.5v12h-12.2zm-41.1-90.2l8.9 8.7 0.1 12.4v1.7h1.8l12.5-0.1 8.9 8.7 1.3 1.2 1.3-1.3 8.8-8.8 12.5-0.1h1.7v-1.7-12.4l8.8-8.7 1.2-1.3-1.3-1.2-8.9-8.7-0.1-12.4v-1.6h-1.7l-12.6 0.1-8.9-8.7-1.3-1.2-1.2 1.3-8.8 8.8-12.5 0.1h-1.8v1.7l0.1 12.3-8.8 8.8-1.2 1.3zm11.9 6.7l-8.2-7.9 8.1-8.1 0.5-0.5v-0.7l-0.1-11.4 11.5-0.1h0.7l0.5-0.5 8.1-8 8.2 7.9 0.5 0.5h0.8l11.5-0.1v11.4 0.7l0.6 0.5 8.1 8-8 8-0.5 0.5v0.7 11.4l-11.5 0.1h-0.7l-0.5 0.5-8.1 8.1-8.2-8-0.5-0.5h-0.7-11.5l-0.1-11.3v-0.7zm22.5-43.8l8.8-8.7h14.3v-14.1l8.9-8.7 1.3-1.3-1.3-1.2-8.9-8.8v-14.1h-14.2l-8.8-8.7-1.3-1.3-1.3 1.3-8.8 8.8h-14.3v14.1l-8.8 8.7-1.3 1.3 1.3 1.2 8.8 8.8v14.1h14.3l8.9 8.7 1.3 1.3zm6.9-11.7l-8.2 8-8.1-8-0.5-0.5h-12.2v-12.1l-0.5-0.5-8-8 8.1-8 0.5-0.5v-12.1h12.2l0.5-0.5 8.2-8 8.1 8 0.5 0.5h12.2v12.1l0.5 0.5 8.1 8-8.1 8-0.5 0.5v12.1h-12.3zm47.4 324l8.9-8.7h14.3v-14.1l8.8-8.8 1.3-1.2-1.3-1.3-8.8-8.7v-14.1h-14.3l-8.9-8.7-1.3-1.3-1.2 1.3-8.9 8.7h-14.1v14.1l-8.9 8.7-1.3 1.3 1.3 1.2 8.9 8.8v14.1h14.2l8.9 8.7 1.3 1.3zm6.9-11.7l-8.2 8-8.1-8-0.5-0.5h-12.2v-12.1l-0.5-0.5-8.2-8 8.2-8 0.5-0.5v-12.1h12.2l0.5-0.5 8.1-8 8.2 8 0.5 0.5h12.2v12.1l0.5 0.5 8.1 8-8.1 8-0.5 0.5v12.1h-12.2zm-41.3-90.2l8.9 8.7v12.3 1.7h1.8l12.5-0.1 8.9 8.7 1.3 1.3 1.3-1.3 8.8-8.8 12.5-0.1h1.8v-1.7l-0.1-12.3 8.8-8.8 1.2-1.3-1.3-1.2-8.9-8.7-0.1-12.3v-1.8h-1.7l-12.5 0.1-8.9-8.7-1.3-1.2-1.3 1.3-8.8 8.8-12.5 0.1h-1.8v1.7l0.1 12.4-8.8 8.8-1.2 1.2zm11.8 6.7l-8.1-7.9 8-8.1 0.5-0.5v-0.7-11.4h11.5 0.7l0.5-0.5 8.1-8 8.2 7.9 0.5 0.5h0.7l11.5-0.1 0.1 11.4v0.7l0.5 0.5 8.2 8-8.1 8-0.5 0.5v0.8l0.1 11.3-11.5 0.1h-0.8l-0.5 0.5-8 8.1-8.2-8-0.5-0.5h-0.8l-11.5 0.1v-11.4-0.7zm22.5-43.7l8.8-8.8h14.3v-14l8.9-8.8 1.2-1.2-1.2-1.3-8.9-8.7v-14.1h-14.3l-8.8-8.7-1.3-1.3-1.3 1.3-8.8 8.7h-14.2v14.1l-8.8 8.7-1.3 1.3 1.3 1.2 8.8 8.8v14h14.3l8.9 8.8 1.2 1.2zm6.9-11.6l-8.1 8-8.1-8-0.5-0.5h-12.3v-12.1l-0.5-0.5-8.1-8 8.1-8 0.5-0.5v-12.1h12.3l0.5-0.5 8.1-8 8.1 8 0.5 0.5h12.3v12.1l0.5 0.5 8.1 8-8.1 8-0.5 0.5v12.1h-12.3zm-41.3-90.2l8.9 8.6 0.1 12.4v1.7h1.8l12.5-0.1 8.9 8.7 1.3 1.2 1.3-1.3 8.8-8.8 12.5-0.1h1.7v-1.7-12.3l8.8-8.8 1.2-1.3-1.3-1.3-8.9-8.6-0.1-12.4v-1.6h-1.7l-12.6 0.1-8.9-8.7-1.3-1.2-1.2 1.3-8.7 8.8h-12.5-1.7v1.8 12.3l-8.8 8.8-1.2 1.3zm11.9 6.7l-8.2-7.9 8.1-8.1 0.5-0.5v-0.7l-0.1-11.4 11.5-0.1h0.7l0.5-0.5 8.1-8 8.2 7.9 0.5 0.5h0.7 11.5l0.1 11.4v0.7l0.5 0.5 8.2 7.9-8.1 8.1-0.5 0.5v0.7l0.1 11.4h-11.5-0.7l-0.5 0.5-8.1 8.1-8.2-8-0.5-0.4h-0.7-11.5l-0.1-11.3v-0.7zm22.5-43.8l8.9-8.7h14.2v-14.1l8.9-8.7 1.3-1.3-1.3-1.3-8.9-8.7v-14.1h-14.2l-8.9-8.8-1.3-1.2-1.3 1.2-8.8 8.8h-14.1v14.1l-8.8 8.7-1.3 1.3 1.3 1.3 8.8 8.7v14.1h14.3l8.8 8.7 1.3 1.3zm6.9-11.7l-8.1 8-8.1-8-0.5-0.5h-12.3v-12.1l-0.5-0.5-8-8 8.1-8 0.5-0.5v-12h12.2l0.5-0.5 8.2-8 8.1 8 0.5 0.5h12.2v12.1l0.5 0.5 8.2 8-8.2 8-0.5 0.5v12h-12.2zm12.5 292.1l8.9 8.7 0.1 12.4v1.7h1.7l12.6-0.1 8.9 8.7 1.3 1.2 1.3-1.3 8.7-8.8 12.6-0.1h1.7v-1.7l-0.1-12.3 8.8-8.8 1.3-1.3-1.3-1.2-8.9-8.7-0.1-12.3v-1.8h-1.7l-12.5 0.1-8.9-8.7-1.3-1.2-1.3 1.3-8.7 8.8-12.6 0.1h-1.7v1.7l0.1 12.4-8.8 8.8-1.3 1.2zm11.9 6.8l-8.2-8 8.1-8.1 0.5-0.5v-0.7l-0.1-11.3 11.5-0.1h0.7l0.5-0.5 8.1-8.1 8.2 8 0.5 0.5h0.7l11.5-0.1 0.1 11.3v0.8l0.5 0.5 8.2 7.9-8.1 8.1-0.5 0.5v0.7l0.1 11.4h-11.5-0.8l-0.5 0.5-8 8.1-8.2-8-0.5-0.5h-0.8l-11.5 0.1v-11.3-0.7zm22.6-43.8l8.8-8.7h14.3v-14.1l8.8-8.8 1.3-1.2-1.3-1.3-8.8-8.8v-14h-14.3l-8.8-8.8-1.3-1.2-1.3 1.2-8.9 8.8h-14.2v14l-8.9 8.8-1.3 1.3 1.3 1.2 8.9 8.8v14.1h14.2l8.9 8.7 1.3 1.2zm6.9-11.7l-8.2 8-8.1-8-0.5-0.5h-12.2v-12l-0.5-0.5-8.2-8.1 8.2-8 0.5-0.5v-12h12.2l0.5-0.5 8.1-8.1 8.2 8.1 0.5 0.5h12.2v12l0.5 0.5 8.1 8-8.1 8.1-0.5 0.5v12h-12.2zm-41.3-90.2l8.9 8.7 0.1 12.3v1.8h1.7l12.6-0.1 8.9 8.6 1.3 1.3 1.2-1.3 8.8-8.8h12.6 1.7v-1.7l-0.1-12.4 8.8-8.8 1.3-1.3-1.3-1.2-8.9-8.7-0.1-12.3v-1.7h-1.7l-12.5 0.1-8.9-8.7-1.3-1.2-1.3 1.3-8.8 8.7-12.5 0.1h-1.7v1.7l0.1 12.4-8.8 8.8-1.3 1.3zm11.8 6.7l-8.1-8 8-8.1 0.5-0.5v-0.7-11.3h11.5 0.7l0.5-0.5 8.1-8.1 8.2 8 0.5 0.5h0.7l11.5-0.1 0.1 11.3v0.7l0.5 0.5 8.2 8-8.1 8.1-0.5 0.5v0.7l0.1 11.3-11.5 0.1h-0.8l-0.5 0.5-8 8.1-8.2-8-0.5-0.5h-0.8l-11.5 0.1v-11.3-0.7zm22.6-43.8l8.8-8.7h14.3v-14.1l8.8-8.8 1.3-1.2-1.3-1.3-8.8-8.7v-14.1h-14.3l-8.8-8.8-1.3-1.2-1.3 1.2-8.9 8.8h-14.2v14.1l-8.9 8.7-1.3 1.3 1.3 1.2 8.9 8.8v14.1h14.2l8.9 8.7 1.3 1.3zm6.8-11.7l-8.1 8-8.1-8-0.5-0.5h-12.2v-12.1l-0.6-0.5-8.1-8 8.1-8 0.6-0.5v-12.1h12.2l0.5-0.5 8.1-8 8.1 8 0.6 0.5h12.2v12.1l0.5 0.5 8.1 8-8.1 8.1-0.5 0.5v12h-12.2zm-41.3-90.2l8.9 8.7 0.1 12.3v1.8h1.7l12.5-0.1 9 8.6 1.2 1.2 1.3-1.2 8.8-8.8 12.5-0.1h1.8v-1.7l-0.1-12.4 8.8-8.8 1.3-1.2-1.3-1.3-8.9-8.6-0.1-12.4v-1.6h-1.7l-12.5 0.1-8.9-8.7-1.3-1.2-1.3 1.3-8.8 8.8h-12.5-1.7v1.8l0.1 12.3-8.8 8.8-1.3 1.3zm11.8 6.7l-8.1-8 8-8 0.5-0.5v-0.8-11.3l11.5-0.1h0.7l0.5-0.5 8.1-8.1 8.2 8 0.5 0.5h0.7l11.5-0.1 0.1 11.4v0.7l0.5 0.5 8.2 8-8.1 8-0.5 0.6v0.7l0.1 11.3-11.5 0.1h-0.8l-0.5 0.5-8 8.1-8.2-8-0.5-0.5h-0.8l-11.5 0.1v-11.4-0.7zm22.5-43.8l8.9-8.7h14.3v-14.1l8.8-8.7 1.3-1.3-1.3-1.2-8.8-8.7v-14.1h-14.3l-8.9-8.8-1.2-1.2-1.3 1.2-8.9 8.8h-14.3v14.1l-8.8 8.7-1.3 1.2 1.3 1.3 8.8 8.7v14.1h14.3l8.9 8.7 1.3 1.3zm6.8-11.7l-8.1 8-8.1-8-0.5-0.5h-12.2v-12l-0.6-0.5-8.1-8.1 8.1-8 0.6-0.5v-12h12.2l0.5-0.5 8.1-8 8.1 8 0.6 0.5h12.2v12l0.5 0.5 8.1 8-8.1 8.1-0.5 0.5v12h-12.2zm47.4 324l8.8-8.7h14.3v-14.1l8.9-8.7 1.2-1.3-1.2-1.2-8.9-8.7v-14.1h-14.3l-8.8-8.8-1.3-1.2-1.3 1.2-8.9 8.8h-14.2v14.1l-8.9 8.7-1.3 1.2 1.3 1.3 8.9 8.7v14.1h14.2l8.9 8.7 1.3 1.3zm6.9-11.7l-8.2 8-8.1-8-0.5-0.5h-12.2v-12l-0.5-0.5-8.2-8.1 8.2-8 0.5-0.5v-12h12.2l0.5-0.5 8.1-8 8.2 8 0.5 0.5h12.2v12l0.5 0.5 8.1 8.1-8.1 8-0.5 0.5v12h-12.2zm-41.3-90.2l8.9 8.7 0.1 12.3v1.8h1.7l12.5-0.1 8.9 8.7 1.3 1.2 1.3-1.2 8.8-8.8 12.5-0.1h1.8v-1.7l-0.1-12.4 8.8-8.8 1.3-1.3-1.3-1.2-8.9-8.6-0.1-12.4v-1.7h-1.9l-12.5 0.1-8.9-8.7-1.3-1.2-1.3 1.3-8.8 8.8h-12.5-1.8v1.8l0.1 12.3-8.8 8.8-1.2 1.3zm11.9 6.7l-8.2-8 8.1-8 0.5-0.6v-0.7l-0.1-11.3h11.5 0.7l0.5-0.5 8.1-8.1 8.2 8 0.5 0.5h0.7l11.5-0.1 0.1 11.3v0.8l0.5 0.5 8.2 7.9-8.1 8.1-0.5 0.5v0.7l0.1 11.4h-11.5-0.7l-0.5 0.5-8.1 8.1-8.2-8-0.5-0.5h-0.7l-11.5 0.1-0.1-11.4v-0.7zm22.5-43.7l8.9-8.8h14.3v-14.1l8.8-8.7 1.3-1.2-1.3-1.3-8.8-8.7v-14.1h-14.3l-8.9-8.7-1.3-1.3-1.3 1.3-8.8 8.7h-14.3v14.1l-8.8 8.7-1.3 1.3 1.3 1.2 8.8 8.7v14.1h14.3l8.8 8.8 1.3 1.2zm6.9-11.6l-8.1 8-8.1-8-0.5-0.5h-12.3v-12.1l-0.5-0.5-8.1-8 8.1-8 0.5-0.5v-12.1h12.3l0.5-0.5 8.1-8 8.1 8 0.5 0.5h12.3v12.1l0.5 0.5 8.1 8-8.1 8-0.5 0.5v12.1h-12.3zm-41.3-90.2l8.9 8.6 0.1 12.4v1.7h1.7l12.6-0.1 8.9 8.7 1.3 1.2 1.3-1.3 8.8-8.8 12.5-0.1h1.7v-1.7l-0.1-12.3 8.8-8.8 1.3-1.3-1.3-1.3-8.9-8.7-0.1-12.3v-1.6h-1.8l-12.5 0.1-8.9-8.7-1.3-1.2-1.3 1.3-8.8 8.8-12.5 0.1h-1.8v1.7l0.1 12.3-8.8 8.8-1.2 1.3zm11.9 6.7l-8.2-7.9 8.1-8.1 0.5-0.5v-0.7l-0.1-11.4h11.5 0.7l0.5-0.5 8.1-8.1 8.2 8 0.5 0.5h0.7 11.5l0.1 11.3v0.7l0.5 0.5 8.2 8-8.1 8-0.5 0.6v0.7l0.1 11.3-11.5 0.1h-0.7l-0.6 0.5-8 8.1-8.2-8-0.5-0.5h-0.8l-11.5 0.1v-11.4-0.7zm22.5-43.8l8.8-8.7h14.3v-14.1l8.9-8.7 1.2-1.3-1.2-1.3-8.9-8.7v-14.1h-14.3l-8.8-8.7-1.3-1.3-1.3 1.3-8.9 8.7h-14.2v14.1l-8.9 8.7-1.3 1.3 1.3 1.3 8.9 8.7v14.1h14.2l8.9 8.7 1.3 1.3zm6.9-11.7l-8.2 8.1-8.1-8.1-0.5-0.5h-12.2v-12l-0.5-0.5-8.2-8 8.2-8.1 0.5-0.5v-12h12.2l0.5-0.5 8.1-8 8.2 8 0.5 0.5h12.2v12.1l0.5 0.5 8.1 8-8.1 8-0.5 0.5v12h-12.2zm12.3 292.2l8.9 8.6 0.1 12.4v1.7h1.8l12.5-0.1 8.9 8.7 1.3 1.2 1.2-1.3 8.8-8.7 12.5-0.1h1.8v-1.7l-0.1-12.4 8.8-8.8 1.3-1.3-1.3-1.2-8.9-8.6v-12.3-1.8h-1.8l-12.5 0.1-8.9-8.6-1.3-1.2-1.3 1.3-8.8 8.8-12.5 0.1h-1.8v1.7l0.1 12.3-8.8 8.8-1.3 1.3zm11.9 6.7l-8.2-7.9 8.1-8.1 0.5-0.5v-0.7l-0.1-11.4h11.5 0.7l0.6-0.6 8-8 8.2 7.9 0.5 0.5h0.7 11.5l0.1 11.3v0.7l0.5 0.5 8.2 8-8.1 8.1-0.5 0.5v0.7 11.3l-11.5 0.1h-0.5l-0.5 0.5-8.1 8.1-8.2-8-0.5-0.5h-0.7l-11.5 0.1-0.1-11.3v-0.8zm22.5-43.7l8.8-8.8h14.3v-14.1l8.9-8.7 1.3-1.3-1.3-1.2-8.9-8.8v-14.1h-14.3l-8.8-8.7-1.3-1.3-1.3 1.3-8.8 8.7h-14.3v14.1l-8.9 8.8-1.2 1.2 1.2 1.3 8.9 8.7v14.1h14.3l8.8 8.8 1.3 1.2zm6.9-11.7l-8.1 8-8.2-8-0.5-0.5h-12.2v-12.1l-0.5-0.5-8.1-8 8.1-8 0.5-0.5v-12.1h12.2l0.5-0.5 8.2-8 8.1 8 0.5 0.5h12.2v12.1l0.5 0.5 8.2 8-8.2 8-0.5 0.5v12.1h-12.2zm-41.3-90.2l8.9 8.7 0.1 12.3v1.7h1.7 12.5l9 8.6 1.3 1.3 1.2-1.3 8.8-8.8 12.5-0.1h1.7v-1.7-12.3l8.8-8.8 1.2-1.3-1.2-1.2-9-8.7v-12.3-1.8h-1.8l-12.5 0.1-8.9-8.6-1.3-1.3-1.3 1.3-8.8 8.8-12.5 0.1h-1.8v1.7l0.1 12.4-8.8 8.8-1.3 1.2zm11.9 6.7l-8.2-7.9 8.1-8.1 0.5-0.5v-0.7l-0.1-11.4h11.5 0.7l0.6-0.5 8-8 8.2 7.9 0.5 0.5h0.8l11.5-0.1v11.4 0.7l0.6 0.5 8.1 8-8 8.1-0.5 0.5v0.7 11.3l-11.5 0.1h-0.6l-0.5 0.5-8 8.1-8.2-8-0.5-0.5h-0.8l-11.5 0.1v-11.3-0.8zm22.5-43.7l8.8-8.8h14.3v-14l8.8-8.8 1.3-1.3-1.3-1.2-8.8-8.8v-14.1h-14.3l-8.8-8.7-1.3-1.3-1.3 1.3-8.9 8.7h-14.2v14.1l-8.9 8.8-1.3 1.2 1.3 1.3 8.9 8.8v14h14.2l8.9 8.8 1.3 1.3zm6.9-11.7l-8.2 8-8.1-8-0.5-0.5h-12.2v-12.1l-0.5-0.5-8.2-8 8.2-8 0.5-0.5v-12.1h12.2l0.5-0.5 8.1-8 8.2 8 0.5 0.5h12.2v12.1l0.5 0.5 8.1 8-8.1 8-0.5 0.5v12.1h-12.2zm-41.1-90.2l8.9 8.7 0.1 12.3v1.7h1.7l12.5-0.1 9 8.7 1.3 1.2 1.2-1.3 8.8-8.7 12.5-0.1h1.7v-1.7-12.4l8.8-8.8 1.2-1.3-1.2-1.2-9-8.7-0.1-12.2v-1.7h-1.7-12.6l-8.9-8.6-1.3-1.2-1.3 1.3-8.8 8.7-12.5 0.1h-1.8v1.7l0.1 12.4-8.8 8.8-1.3 1.3zm11.9 6.7l-8.2-8 8.1-8 0.5-0.5v-0.7l-0.1-11.4 11.5-0.1h0.7l0.6-0.5 8-8 8.2 7.9 0.5 0.5h0.8 11.5v11.3 0.7l0.5 0.5 8.2 8-8 8.1-0.6 0.5v0.7 11.3l-11.4 0.1h-0.7l-0.5 0.5-8.1 8.1-8.2-8.1-0.5-0.5h-0.7l-11.5 0.1-0.1-11.3v-0.7zm22.5-43.8l8.8-8.8h14.3v-14l8.9-8.8 1.3-1.2-1.3-1.3-8.9-8.7v-14.1h-14.3l-8.8-8.7-1.3-1.3-1.3 1.3-8.8 8.7h-14.3v14.1l-8.9 8.7-1.3 1.3 1.3 1.2 8.9 8.8v14h14.3l8.8 8.8 1.3 1.3zm6.9-11.7l-8.1 8-8.2-8-0.5-0.5h-12.2v-12.1l-0.5-0.5-8.1-8 8.1-8 0.5-0.5v-12.1h12.2l0.5-0.5 8.2-8 8.1 8 0.5 0.5h12.2v12.1l0.5 0.5 8.2 8-8.2 8-0.5 0.5v12.1h-12.2zm47.4 324l8.9-8.8h14.2v-14l8.9-8.8 1.3-1.3-1.3-1.2-8.9-8.7v-14.1h-14.2l-8.9-8.7-1.3-1.3-1.3 1.3-8.8 8.7h-14.3v14.1l-8.8 8.7-1.3 1.2 1.3 1.3 8.8 8.8v14h14.3l8.8 8.8 1.3 1.3zm6.9-11.7l-8.1 8-8.1-8-0.5-0.5h-12.3v-12.1l-0.5-0.5-8.1-8 8.1-8 0.5-0.5v-12.1h12.3l0.5-0.5 8.1-8 8.1 8 0.5 0.5h12.3v12.1l0.5 0.5 8.1 8-8.1 8-0.5 0.5v12.1h-12.2zm-41.4-90.2l8.9 8.6 0.1 12.4v1.7h1.8l12.5-0.1 8.9 8.7 1.3 1.3 1.3-1.3 8.8-8.8 12.5-0.1h1.7v-1.7l-0.1-12.3 8.8-8.8 1.3-1.3-1.3-1.2-8.9-8.7-0.1-12.3v-1.8h-1.7l-12.5 0.1-9-8.7-1.2-1.2-1.3 1.3-8.8 8.8-12.5 0.1h-1.8v1.7l0.1 12.4-8.8 8.7-1.3 1.3zm11.9 6.7l-8.2-7.9 8.1-8.1 0.5-0.5v-0.7l-0.1-11.3h11.5 0.7l0.5-0.6 8.1-8 8.2 7.9 0.5 0.5h0.7 11.5l0.1 11.3v0.7l0.5 0.5 8.2 8-8.1 8.1-0.5 0.5v0.7l0.1 11.3-11.5 0.1h-0.7l-0.5 0.5-8.1 8.1-8.2-8-0.5-0.5h-0.7l-11.5 0.1-0.1-11.3v-0.7zm22.5-43.8l8.8-8.7h14.3v-14.1l8.9-8.8 1.3-1.2-1.3-1.3-8.9-8.7v-14.1h-14.3l-8.8-8.7-1.3-1.3-1.3 1.3-8.8 8.7h-14.3v14.1l-8.9 8.7-1.2 1.3 1.2 1.2 8.9 8.8v14.1h14.3l8.8 8.7 1.3 1.3zm6.9-11.7l-8.1 8-8.1-8-0.5-0.5h-12.2v-12.1l-0.5-0.5-8.2-8 8.2-8 0.5-0.5v-12.1h12.2l0.5-0.5 8.1-8 8.2 8 0.5 0.5h12.2v12.1l0.5 0.5 8.1 8-8.1 8-0.5 0.5v12.1h-12.2zm-41.4-90.2l9 8.7v12.3 1.7h1.8l12.5-0.1 8.9 8.7 1.3 1.2 1.3-1.3 8.8-8.8h12.5 1.7v-1.8-12.3l8.8-8.8 1.2-1.3-1.2-1.3-9-8.6v-12.4-1.5h-1.8-12.5l-8.9-8.6-1.3-1.2-1.3 1.2-8.8 8.8-12.5 0.1h-1.8v1.7l0.1 12.4-8.8 8.8-1.3 1.3zm11.9 6.7l-8.2-8 8.1-8.1 0.5-0.5v-0.7l-0.1-11.3 11.5-0.1h0.8l0.5-0.5 8-8.1 8.2 8 0.5 0.5h0.8 11.5v11.3 0.7l0.6 0.5 8.1 8-8 8.1-0.5 0.5v0.7 11.3l-11.5 0.1h-0.7l-0.5 0.5-8.1 8.1-8.2-8-0.5-0.5h-0.7l-11.5 0.1-0.1-11.3v-0.8zm22.5-43.7l8.9-8.8h14.3v-14.1l8.8-8.7 1.3-1.3-1.3-1.2-8.8-8.8v-14.1h-14.3l-8.9-8.7-1.3-1.3-1.2 1.3-8.9 8.7h-14.3v14.1l-8.8 8.8-1.3 1.2 1.3 1.3 8.8 8.7v14.1h14.3l8.9 8.8 1.2 1.2zm6.9-11.6l-8.1 8-8-8-0.5-0.5h-12.2v-12.1l-0.5-0.5-8.2-8 8.2-8 0.5-0.5v-12h12.2l0.5-0.5 8.1-8.1 8.2 8.1 0.5 0.5h12.2v12l0.5 0.5 8.1 8-8.1 8-0.5 0.6v12h-12.2zm-39.8-94.2h4.9l-2.6 2.7 8.2 8 0.5 0.5v0.7l0.1 11.3h11.5 0.7l0.5 0.5 8.2 7.9 8.1-8 0.5-0.6h0.7 11.5l-0.1-11.4v-0.7l0.5-0.5 8.1-8.1-2.3-2.3h4.9l1.1 1.1 1.3 1.3-1.3 1.2-8.8 8.8 0.1 12.4v1.7h-1.7l-12.5 0.1-8.8 8.8-1.3 1.3-1.3-1.3-8.9-8.6h-12.5-1.8v-1.8l-0.1-12.4-8.9-8.6-1.3-1.3 1.3-1.2zm-24.3 0h4.1l-0.8 0.7-1.2 1.3-1.3-1.2zm-83.6 0h4.9l-2.6 2.6 8.2 8 0.5 0.5v0.7l0.1 11.3h11.5 0.7l0.5 0.5 8.2 7.9 8.1-8 0.5-0.5h0.7l11.5-0.1-0.1-11.4v-0.7l0.5-0.5 8-8.1-2.3-2.2h5l1 1 1.3 1.3-1.3 1.3-8.8 8.8 0.1 12.3v1.7h-1.7l-12.6 0.1-8.7 8.8-1.3 1.3-1.3-1.2-9-8.7-12.5 0.1h-1.7v-1.9l-0.1-12.4-8.9-8.6-1.3-1.2 1.2-1.3zm-24.3 0h4l-0.8 0.7-1.3 1.3-1.2-1.2zm-83.7 0h4.9l-2.7 2.7 8.2 7.9 0.5 0.5v0.7l0.1 11.4 11.5-0.1h0.7l0.5 0.5 8.2 8 8.1-8.1 0.5-0.5h0.7l11.5-0.1v-11.4-0.7l0.5-0.5 8.1-8-2.3-2.3h5l1 1 1.3 1.3-1.2 1.3-8.8 8.8 0.1 12.3v1.8h-1.8-12.5l-8.9 8.7-1.3 1.3-1.3-1.2-8.9-8.7-12.5 0.1h-1.8v-1.8l-0.1-12.3-8.9-8.7-1.2-1.2 1.2-1.3zm-24.4 0h4l-0.6 0.8-1.3 1.2-1.3-1.2zm-83.6 0h4.9l-2.7 2.6 8.2 8 0.5 0.5v0.7l0.1 11.4 11.5-0.1h0.7l0.5 0.5 8.2 8 8.1-8.1 0.5-0.5h0.7l11.5-0.1-0.1-11.4v-0.7l0.5-0.5 8.1-8.1-2.3-2.2h5l1 1 1.3 1.3-1.2 1.3-8.8 8.8 0.1 12.3v1.7h-1.8l-12.5 0.1-8.8 8.8-1.3 1.3-1.3-1.2-8.9-8.7-12.5 0.1h-1.8v-1.9-12.3l-8.9-8.7-1.3-1.2 1.3-1.3zm-24.4 0h4l-0.7 0.7-1.3 1.3-1.3-1.2zm-83.6 0h4.9l-2.7 2.7 8.2 7.9 0.5 0.5v0.7l0.1 11.4 11.5-0.1h0.8l0.5 0.5 8.1 8 8.1-8.1 0.5-0.5h0.8l11.5-0.1-0.2-11.4v-0.7l0.5-0.5 8.1-8-2.3-2.3h5l1 1 1.3 1.3-1.3 1.3-8.8 8.8 0.1 12.3v1.8h-1.7-12.5l-8.8 8.8-1.3 1.3-1.3-1.2-8.9-8.7-12.6 0.1h-1.7v-1.9l-0.1-12.3-8.9-8.7-1.3-1.2 1.3-1.3zm-24.3 0h4l-0.8 0.8-1.2 1.2-1.3-1.2zm6.5 426h-9.3l3.4-3.3 1.3-1.3 1.3 1.3zm77.1 0h-4.9l6.9-7-8.2-7.9-0.5-0.5v-0.8l-0.1-11.3-11.5 0.1h-0.8l-0.5-0.5-8.1-8-8.1 8.1-0.5 0.5h-0.8l-11.5 0.1 0.1 11.3v0.7l-0.5 0.5-8.1 8.1 6.7 6.5h-4.8l-5.5-5.2-1.3-1.3 1.3-1.2 8.8-8.8-0.1-12.3v-1.7h1.8l12.5-0.1 8.8-8.8 1.3-1.3 1.3 1.2 8.9 8.7 12.5-0.1h1.8v1.7 12.4l9 8.6 1.2 1.3-1.2 1.3zm30.8 0h-9.3l3.4-3.4 1.3-1.2 1.3 1.2zm77.1 0h-4.9l6.9-6.9-8.1-8-0.6-0.5v-0.7-11.3l-11.5 0.1h-0.8l-0.5-0.5-8.2-8-8 8.1-0.5 0.5h-0.8-11.5l0.1 11.4v0.7l-0.5 0.5-8.1 8.1 6.8 6.5h-5l-5.5-5.3-1.2-1.2 1.2-1.2 8.8-8.8v-12.4-1.7h1.7l12.5-0.1 8.8-8.7 1.3-1.3 1.2 1.2 9 8.7 12.5-0.1h1.6v1.7l0.1 12.4 8.9 8.6 1.3 1.3-1.2 1.3zm30.8 0h-9.4l3.5-3.4 1.3-1.2 1.3 1.2zm77.1 0h-4.9l6.9-6.9-8.2-8-0.5-0.5v-0.7l-0.1-11.4-11.5 0.1h-0.7l-0.5-0.5-8.2-7.9-8.1 8-0.5 0.5h-0.7l-11.5 0.1 0.1 11.4v0.7l-0.5 0.5-8.1 8.1 6.7 6.5h-5l-5.4-5.3-1.3-1.2 1.2-1.2 8.8-8.8-0.1-12.4v-1.7h1.8l12.5-0.1 8.8-8.8 1.3-1.3 1.3 1.2 8.9 8.7h12.5 1.8v1.7 12.3l9 8.7 1.2 1.3-1.2 1.3zm30.9 0h-9.4l3.5-3.4 1.3-1.2 1.2 1.2zm77.2 0h-4.9l6.9-7-8.2-7.9-0.5-0.5v-0.7l-0.1-11.4-11.5 0.1h-0.7l-0.5-0.5-8.2-8-8.1 8.1-0.5 0.5h-0.7l-11.5 0.1 0.1 11.3v0.8l-0.5 0.5-8.1 8 6.7 6.6h-5l-5.4-5.3-1.3-1.2 1.2-1.3 8.8-8.8-0.1-12.3v-1.7h1.8l12.5-0.1 8.8-8.8 1.3-1.3 1.3 1.2 8.9 8.7 12.5-0.1h1.8v1.8l0.1 12.3 8.9 8.7 1.3 1.2-1.3 1.3zm30.8 0h-9.3l3.4-3.4 1.3-1.2 1.3 1.2zm77.1 0h-4.9l6.9-6.9-8.1-7.9-0.6-0.5v-0.8-11.3l-11.5 0.1h-0.8l-0.5-0.5-8.2-8-8 8.1-0.6 0.5h-0.7l-11.5 0.1 0.1 11.3v0.7l-0.5 0.5-8.1 8.1 6.7 6.5h-4.9l-5.5-5.3-1.3-1.2 1.3-1.2 8.8-8.8-0.1-12.3v-1.8h1.8 12.5l8.8-8.8 1.3-1.3 1.3 1.2 8.9 8.7 12.5-0.1h1.8v1.7l0.1 12.4 8.9 8.6 1.3 1.3-1.3 1.3z"/>
				<path class="s1" d="m-2.7 798.3l8.9 8.6 0.1 12.4v1.7h1.8l12.6-0.1 8.9 8.7 1.3 1.2 1.2-1.3 8.8-8.8h12.5 1.8v-1.8l-0.1-12.3 8.8-8.8 1.3-1.3-1.3-1.2-8.9-8.7-0.1-12.3v-1.7h-1.8-12.5l-9-8.5-1.3-1.2-1.3 1.3-8.8 8.8-12.5 0.1h-1.7v1.7 12.3l-8.8 8.8-1.2 1.3zm11.9 6.7l-8.2-7.9 8.1-8.1 0.5-0.5v-0.7l-0.1-11.4 11.5-0.1h0.7l0.6-0.5 8-8 8.2 7.9 0.5 0.5h0.7l11.6-0.1v11.4 0.7l0.5 0.5 8.2 8-8 8-0.5 0.5v0.8l0.1 11.3-11.5 0.1h-0.7l-0.5 0.5-8.1 8.1-8.2-8-0.5-0.5h-0.7l-11.5 0.1-0.1-11.4v-0.7zm22.5-43.8l8.9-8.7h14.2v-14.1l8.9-8.7 1.3-1.3-1.3-1.3-8.9-8.7v-14.1h-14.1l-8.8-8.7-1.3-1.3-1.3 1.3-8.9 8.7h-14.1v14.1l-8.9 8.7-1.3 1.3 1.3 1.3 8.9 8.7v14.1h14.2l8.9 8.7 1.3 1.2zm6.9-11.6l-8.2 8-8.1-8-0.5-0.5h-12.2v-12.1l-0.5-0.5-8.2-8 8.2-8 0.5-0.5v-12.1h12.2l0.5-0.5 8.1-8 8.2 8 0.5 0.5h12.2v12.1l0.5 0.5 8.1 8-8.1 8-0.5 0.5v12.1h-12.1zm-41.3-90.2l8.9 8.6 0.1 12.4v1.7h1.9l12.5-0.1 9 8.7 1.2 1.3 1.3-1.3 8.8-8.8 12.5-0.1h1.7v-1.7l-0.1-12.4 8.8-8.8 1.3-1.2-1.3-1.2-8.9-8.7-0.1-12.4v-1.7h-1.7l-12.5 0.1-9-8.7-1.2-1.2-1.3 1.3-8.8 8.8-12.5 0.1h-1.8v1.7l0.1 12.3-8.8 8.8-1.2 1.3zm11.8 6.7l-8.1-7.9 8-8.1 0.5-0.5v-0.7-11.4h11.5 0.7l0.5-0.5 8.1-8.1 8.2 8 0.5 0.5h0.7l11.5-0.1 0.1 11.4v0.7l0.5 0.5 8.2 7.9-8 8-0.5 0.5v0.8l0.1 11.3-11.5 0.1h-0.7l-0.5 0.5-8.1 8.1-8.2-8-0.5-0.5h-0.7l-11.5 0.1-0.1-11.4v-0.7zm22.5-43.7l8.8-8.8h14.3v-14.1l8.9-8.7 1.3-1.3-1.3-1.2-8.9-8.8v-14.1h-14l-8.9-8.7-1.3-1.3-1.3 1.3-8.8 8.7h-14.2v14.1l-8.8 8.8-1.3 1.2 1.3 1.3 8.8 8.7v14.1h14.3l8.8 8.8 1.3 1.2zm6.9-11.6l-8.1 8-8.1-8-0.6-0.5h-12.2v-12.1l-0.5-0.5-8.1-8 8.1-8 0.5-0.5v-12.1h12.2l0.6-0.5 8.1-8 8.1 8 0.5 0.5h12.2v12.1l0.6 0.5 8.1 8-7.9 8-0.5 0.5v12.1h-12.3zm-41.1-90.2l8.9 8.6 0.1 12.4v1.7h1.8l12.5-0.1 8.9 8.7 1.3 1.2 1.2-1.3 8.8-8.8 12.5-0.1h1.8v-1.7l-0.1-12.3 8.8-8.8 1.3-1.3-1.3-1.2-8.9-8.7-0.2-12.2v-1.8h-1.7l-12.6 0.1-8.9-8.7-1.3-1.2-1.3 1.3-8.8 8.8-12.5 0.1h-1.7v1.7l0.1 12.4-8.8 8.7-1.3 1.3zm11.9 6.7l-8.2-7.9 8.1-8.1 0.5-0.5v-0.7l-0.1-11.4h11.5 0.7l0.5-0.5 8.1-8.1 8.2 7.9 0.5 0.5h0.8 11.5v11.3 0.7l0.6 0.5 8.2 8-8.1 8.1-0.5 0.5v0.7 11.3l-11.5 0.1h-0.7l-0.5 0.5-8.1 8.1-8.1-8-0.6-0.5h-0.7l-11.5 0.1-0.1-11.4v-0.7zm22.5-43.8l8.9-8.7h14.3v-14.1l8.8-8.7 1.3-1.3-1.3-1.2-8.8-8.7v-14.1h-14.3l-8.8-8.8-1.3-1.2-1.3 1.2-8.8 8.8h-14.2v14.1l-8.9 8.7-1.2 1.2 1.2 1.3 8.9 8.7v14.1h14.3l8.8 8.7 1.3 1.3zm6.9-11.7l-8.1 8.1-8.2-8.1-0.5-0.5h-12.2v-12l-0.5-0.5-8.1-8 8.1-8.1 0.5-0.5v-12h12.2l0.5-0.5 8.2-8 8.1 8 0.5 0.5h12.2v12l0.5 0.5 8.2 8.1-8.1 8-0.5 0.5v12h-12.2zm47.4 324l8.9-8.7h14.3v-14.1l8.8-8.7 1.3-1.3-1.3-1.2-8.8-8.7v-14.1h-14.3l-8.9-8.8-1.3-1.2-1.2 1.2-8.9 8.8h-14.2v14.1l-8.8 8.7-1.3 1.2 1.3 1.3 8.8 8.7v14.1h14.3l8.9 8.7 1.2 1.3zm6.9-11.7l-8.1 8.1-8.1-8.1-0.5-0.5h-12.2v-12l-0.6-0.5-8.1-8.1 8.1-8 0.6-0.5v-12h12.2l0.5-0.5 8.1-8 8.1 8 0.6 0.5h12.2v12l0.5 0.5 8.1 8.1-8.1 8-0.5 0.5v12h-12.2zm-41.3-90.2l8.9 8.7 0.1 12.3v1.8h1.7l12.5-0.1 8.9 8.7 1.3 1.2 1.3-1.2 8.8-8.8 12.5-0.1h1.8v-1.7l-0.1-12.4 8.8-8.8 1.3-1.3-1.3-1.2-8.9-8.6-0.1-12.4v-1.7h-1.9l-12.6 0.1-8.9-8.7-1.3-1.2-1.2 1.3-8.8 8.8h-12.6-1.7v1.8l0.1 12.3-8.8 8.8-1.3 1.3zm11.9 6.7l-8.2-8 8.1-8 0.5-0.6v-0.7l-0.1-11.3h11.5 0.7l0.5-0.5 8.1-8.1 8.2 8 0.5 0.5h0.7l11.5-0.1 0.1 11.3v0.8l0.5 0.5 8.2 7.9-8.1 8.1-0.5 0.5v0.7l0.1 11.4h-11.5-0.7l-0.5 0.5-8.1 8.1-8.2-7.9-0.5-0.5h-0.7-11.5l-0.1-11.3v-0.7zm22.5-43.8l8.8-8.7h14.3v-14.1l8.9-8.7 1.3-1.2-1.3-1.3-8.9-8.8v-14h-14.2l-8.9-8.7-1.3-1.2-1.3 1.2-8.8 8.8h-14.2v14.1l-8.8 8.7-1.3 1.3 1.3 1.2 8.8 8.7v14.1h14.3l8.8 8.7 1.3 1.3zm6.9-11.7l-8.1 8-8.1-8-0.5-0.5h-12.3v-12l-0.5-0.5-8.1-8.1 8.1-8 0.5-0.5v-12h12.3l0.5-0.5 8.1-8.1 8.1 8.1 0.5 0.5h12.3v12l0.5 0.5 8.1 8-8.1 8.1-0.5 0.5v12h-12.3zm-41.2-90.2l8.9 8.7 0.1 12.3v1.8h1.7l12.5-0.1 8.9 8.7 1.3 1.2 1.3-1.3 8.8-8.8 12.5-0.1h1.8v-1.7l-0.1-12.4 8.8-8.7 1.3-1.3-1.3-1.3-8.9-8.7-0.1-12.3v-1.6h-1.9l-12.6 0.1-8.9-8.7-1.3-1.2-1.2 1.3-8.8 8.8h-12.6-1.7v1.8l0.1 12.3-8.8 8.8-1.3 1.3zm11.9 6.7l-8.2-7.9 8.1-8.1 0.5-0.5v-0.7l-0.1-11.4 11.5-0.1h0.7l0.5-0.5 8.1-8 8.2 7.9 0.5 0.5h0.7 11.5l0.1 11.4v0.7l0.5 0.5 8.2 7.9-8.1 8.1-0.5 0.5v0.7l0.1 11.4-11.5 0.1h-0.7l-0.5 0.5-8.1 8-8.2-7.9-0.5-0.5h-0.7-11.5l-0.1-11.3v-0.7zm22.5-43.8l8.8-8.7h14.3v-14.1l8.9-8.7 1.3-1.3-1.3-1.3-8.9-8.7v-14.1h-14.2l-8.9-8.7-1.3-1.3-1.3 1.3-8.8 8.7h-14.2v14.1l-8.8 8.7-1.3 1.3 1.3 1.3 8.8 8.7v14.1h14.3l8.8 8.7 1.3 1.3zm6.9-11.7l-8.1 8.1-8.1-8.1-0.6-0.5h-12.2v-12l-0.5-0.5-8.1-8.1 8.1-8 0.5-0.5v-12h12.3l0.5-0.5 8.1-8 8.1 8 0.5 0.5h12.3v12.1l0.5 0.5 8.1 8-8.1 8-0.5 0.5v12h-12.3zm12.4 292.2l8.9 8.6 0.1 12.4v1.7h1.7l12.5-0.1 9 8.7 1.2 1.2 1.3-1.3 8.8-8.7 12.5-0.1h1.8v-1.7l-0.2-12.4 8.8-8.8 1.2-1.2-1.3-1.3-8.9-8.6-0.1-12.4v-1.7h-1.7l-12.6 0.1-8.8-8.6-1.3-1.2-1.2 1.3-8.8 8.8-12.5 0.1h-1.7v1.7l0.1 12.3-8.8 8.8-1.3 1.3zm11.9 6.7l-8.2-7.9 8.1-8.1 0.5-0.5v-0.7l-0.1-11.4h11.5 0.7l0.5-0.6 8.1-8 8.2 7.9 0.5 0.5h0.7 11.5l0.1 11.3v0.7l0.5 0.5 8.2 8-8.1 8.1-0.5 0.5v0.7l0.1 11.3-11.5 0.1h-0.7l-0.5 0.5-8.1 8.1-8.2-8-0.5-0.5h-0.7l-11.5 0.1-0.1-11.4v-0.7zm22.6-43.8l8.8-8.7h14.3v-14.1l8.9-8.7 1.3-1.3-1.3-1.3-8.9-8.6v-14.1h-14.2l-8.9-8.7-1.3-1.3-1.3 1.3-8.8 8.7h-14.2v14.1l-8.8 8.8-1.3 1.2 1.3 1.3 8.8 8.8v14h14.3l8.8 8.8 1.3 1.2zm6.9-11.7l-8.1 8-8.1-8-0.6-0.5h-12.2v-12l-0.5-0.6-8.1-8 8.1-8 0.5-0.5v-12h12.2l0.6-0.5 8.1-8.1 8.1 8.1 0.5 0.5h12.2v12l0.6 0.5 8.1 8-8.1 8-0.6 0.6v12h-12.2zm-41.3-90.2l8.9 8.7 0.1 12.3v1.7h1.7 12.6l8.9 8.6 1.3 1.3 1.3-1.3 8.8-8.8h12.5 1.7v-1.8l-0.1-12.3 8.8-8.8 1.2-1.3-1.3-1.2-8.9-8.7-0.1-12.3v-1.7h-1.7-12.5l-8.9-8.6-1.3-1.2-1.3 1.2-8.7 8.8-12.6 0.1h-1.7v1.7l0.1 12.4-8.8 8.8-1.2 1.2zm11.8 6.8l-8.2-8 8.1-8.1 0.5-0.5v-0.7-11.3h11.5 0.7l0.5-0.6 8.1-8 8.2 7.9 0.5 0.5h0.7 11.5l0.1 11.3v0.7l0.5 0.5 8.2 8-8.1 8.1-0.5 0.5v0.7l0.1 11.3-11.5 0.1h-0.8l-0.5 0.5-8 8.1-8.2-8-0.5-0.5h-0.7l-11.5 0.1v-11.3-0.8zm22.5-43.7l8.8-8.7h14.4v-14.1l8.9-8.8 1.3-1.2-1.3-1.3-8.9-8.6v-14.1h-14.3l-8.8-8.8-1.3-1.2-1.3 1.2-8.8 8.8h-14.2v14.1l-8.9 8.7-1.3 1.3 1.3 1.3 8.9 8.7v14.1h14.3l8.8 8.7 1.3 1.3zm6.9-11.7l-8.1 8-8.2-8-0.5-0.5h-12.2v-12.1l-0.5-0.5-8.1-8 8.1-8 0.5-0.5v-12.1h12.2l0.5-0.5 8.2-8 8.1 8 0.5 0.5h12.2v12.1l0.5 0.5 8.2 8-8.2 8.1-0.5 0.5v12h-12.2zm-41.2-90.2l8.9 8.7 0.1 12.3v1.8h1.7l12.6-0.1 8.9 8.6 1.3 1.2 1.2-1.2 8.8-8.8 12.6-0.1h1.7v-1.7l-0.2-12.3 8.8-8.8 1.2-1.3-1.3-1.2-8.9-8.7v-12.3-1.7h-1.7l-12.6 0.1-8.9-8.7-1.3-1.2-1.1 1.3-8.8 8.8-12.5 0.1h-1.8v1.7l0.1 12.3-8.8 8.8-1.3 1.3zm11.9 6.7l-8.2-7.9 8.1-8.1 0.5-0.5v-0.7l-0.1-11.4h11.5 0.7l0.5-0.6 8.1-8 8.2 7.9 0.5 0.5h0.7 11.5l0.1 11.3v0.7l0.5 0.5 8.2 8-8.1 8.1-0.5 0.5v0.7l0.1 11.3-11.5 0.1h-0.7l-0.5 0.5-8.1 8.1-8.2-8-0.5-0.5h-0.7l-11.5 0.1-0.1-11.3v-0.8zm22.5-43.7l8.9-8.8h14.3v-14.1l8.9-8.7 1.2-1.3-1.2-1.2-8.9-8.7v-14h-14.3l-8.8-8.8-1.3-1.2-1.3 1.2-8.9 8.8h-14.1v14l-8.9 8.8-1.3 1.2 1.3 1.3 8.9 8.7v14.1h14.2l8.9 8.7 1.3 1.3zm6.9-11.7l-8.2 8-8.1-8-0.5-0.5h-12.2v-12l-0.5-0.5-8.2-8.1 8.2-8 0.5-0.5v-12h12.2l0.5-0.5 8.1-8 8.2 8 0.5 0.5h12.2v12l0.5 0.5 8.1 8-8.1 8.1-0.5 0.5v12h-12.2zm47.4 324l8.8-8.7h14.3v-14.1l9-8.7 1.3-1.3-1.3-1.2-8.9-8.8v-14.1h-14.3l-8.9-8.7-1.3-1.3-1.3 1.3-8.8 8.7h-14.2v14.1l-8.8 8.8-1.3 1.2 1.3 1.3 8.8 8.7v14.1h14.3l8.9 8.7 1.3 1.3zm6.8-11.7l-8.1 8-8.1-8-0.5-0.5h-12.2v-12l-0.5-0.6-8.2-8 8.2-8 0.5-0.5v-12h12.2l0.5-0.5 8.1-8.1 8.2 8.1 0.5 0.5h12.2v12l0.5 0.5 8.1 8-8.1 8.1-0.5 0.5v12h-12.2zm-41.3-90.2l8.9 8.7 0.1 12.3v1.8h1.7l12.5-0.1 8.9 8.6 1.3 1.3 1.3-1.3 8.8-8.8h12.5 1.8v-1.7l-0.1-12.4 8.8-8.8 1.2-1.3-1.3-1.2-8.9-8.7-0.1-12.3v-1.7h-1.8l-12.5 0.1-8.9-8.7-1.2-1.2-1.3 1.3-8.8 8.8h-12.5-1.7v1.8l0.1 12.3-8.8 8.8-1.3 1.3zm11.9 6.7l-8.2-8 8.1-8 0.5-0.5v-0.8l-0.1-11.3h11.5 0.7l0.5-0.5 8.1-8.1 8.2 8 0.5 0.5h0.7l11.5-0.1 0.1 11.3v0.8l0.5 0.5 8.2 7.9-8.1 8.1-0.5 0.5v0.7l0.1 11.4h-11.5-0.7l-0.5 0.6-8.1 8-8.2-8-0.5-0.5h-0.7l-11.5 0.1-0.1-11.4v-0.7zm22.6-43.8l8.8-8.7h14.3v-14.1l9-8.7 1.3-1.2-1.3-1.3-8.9-8.7v-14.1h-14.3l-8.8-8.6-1.3-1.3-1.3 1.3-8.9 8.7h-14.1v14.1l-8.9 8.7-1.3 1.3 1.3 1.2 8.9 8.7v14.1h14.2l8.9 8.8 1.3 1.2zm6.9-11.7l-8.2 8.1-8.1-8.1-0.5-0.5h-12.2v-12l-0.5-0.5-8.1-8 8.1-8 0.5-0.6v-12h12.3l0.5-0.5 8.1-8 8.1 8 0.5 0.5h12.3v12l0.5 0.6 8.1 8-8.1 8-0.5 0.5v12h-12.2zm-41.4-90.2l9 8.7v12.4 1.7h1.8l12.5-0.1 8.9 8.7 1.3 1.2 1.3-1.3 8.8-8.8 12.5-0.1h1.7v-1.7-12.3l8.8-8.8 1.2-1.3-1.3-1.3-8.9-8.5v-12.3-1.8h-1.8l-12.5 0.1-8.9-8.6-1.3-1.3-1.3 1.3-8.7 8.8-12.6 0.1h-1.7v1.7l0.1 12.4-8.8 8.8-1.3 1.2zm11.9 6.8l-8.2-8 8.1-8.1 0.5-0.5v-0.7l-0.1-11.3 11.5-0.1h0.7l0.5-0.5 8.1-8.1 8.2 8 0.5 0.5h0.7 11.5l0.1 11.3v0.7l0.5 0.5 8.2 8-8.1 8.1-0.5 0.5v0.7l0.1 11.3-11.5 0.1h-0.6l-0.5 0.5-8.1 8.1-8.2-8.1-0.5-0.5h-0.7l-11.5 0.1-0.1-11.3v-0.7zm22.5-43.8l9-8.7h14.3v-14.1l8.9-8.7 1.3-1.3-1.3-1.3-8.8-8.7v-14.1h-14.4l-8.9-8.7-1.3-1.3-1.2 1.3-8.9 8.7h-14.1v14.1l-8.9 8.7-1.3 1.3 1.3 1.3 8.9 8.7v14.1h14.2l8.9 8.7 1.3 1.3zm6.9-11.7l-8.1 8-8.2-8-0.5-0.5h-12.1v-12l-0.5-0.6-8.1-8 8.1-8 0.5-0.5v-12h12.3l0.5-0.5 8.1-8 8.1 8 0.5 0.5h12.3v12.1l0.5 0.5 8.1 8-8.1 8-0.5 0.5v12h-12.3zm12.4 292.2l8.9 8.6 0.1 12.4v1.7h1.7l12.5-0.1 9 8.7 1.2 1.2 1.3-1.3 8.8-8.8 12.5-0.1h1.8v-1.7l-0.1-12.3 8.8-8.8 1.2-1.3-1.3-1.2-8.9-8.7-0.1-12.3v-1.7h-1.7-12.5l-8.9-8.5-1.2-1.2-1.3 1.3-8.8 8.8h-12.5-1.7v1.8 12.3l-8.8 8.8-1.2 1.3zm11.9 6.7l-8.2-8 8.1-8 0.5-0.5v-0.8l-0.1-11.3 11.5-0.1h0.9l0.5-0.5 8.1-8 8.1 7.9 0.6 0.5h0.7l11.5-0.1 0.1 11.4v0.7l0.5 0.5 8.2 8-8.1 8-0.5 0.5v0.8l0.1 11.3-11.5 0.1h-0.7l-0.5 0.5-8.1 8.1-8.2-8-0.5-0.5h-0.7l-11.5 0.1-0.1-11.4v-0.7zm22.5-43.8l8.9-8.7h14.2v-14.1l8.9-8.7 1.3-1.3-1.3-1.3-8.9-8.7v-14.1h-14l-8.9-8.7-1.3-1.3-1.3 1.3-8.7 8.8h-14.3v14.1l-8.8 8.8-1.3 1.2 1.3 1.3 8.8 8.8v14h14.3l8.9 8.8 1.3 1.2zm6.8-11.7l-8.1 8-8.1-8-0.5-0.5h-12.3v-12l-0.5-0.6-8.1-8 8.1-8 0.5-0.5v-12h12.3l0.5-0.5 8.1-8.1 8.1 8.1 0.5 0.5h12.5v12l0.5 0.5 8.1 8-8.1 8-0.5 0.6v12h-12.2zm-41.4-90.2l8.9 8.7 0.1 12.3v1.7h1.8 12.5l8.9 8.6 1.3 1.3 1.3-1.3 8.8-8.8h12.5 1.7v-1.8-12.3l8.8-8.8 1.2-1.3-1.3-1.2-8.9-8.7-0.1-12.3v-1.7h-1.7-12.6l-8.9-8.6-1.3-1.2-1.2 1.2-8.8 8.8-12.5 0.1h-1.8v1.7l0.1 12.4-8.8 8.8-1.2 1.2zm11.9 6.8l-8.2-8 8.1-8.1 0.5-0.5v-0.7l-0.1-11.3h11.5 0.9l0.5-0.6 8.1-8 8.2 7.9 0.5 0.5h0.8 11.5v11.3 0.7l0.6 0.5 8.1 8-8 8.1-0.5 0.5v0.7 11.3l-11.5 0.1h-0.7l-0.5 0.5-8.1 8.1-8.2-8-0.5-0.5h-0.7l-11.5 0.1-0.1-11.3v-0.8zm22.5-43.7l8.9-8.7h14.3v-14.1l8.8-8.8 1.3-1.2-1.3-1.3-8.8-8.8v-14h-14l-8.9-8.8-1.3-1.3-1.3 1.3-8.7 8.9h-14.3v14.1l-8.9 8.7-1.2 1.3 1.2 1.3 8.9 8.7v14.1h14.3l8.8 8.7 1.3 1.3zm6.9-11.7l-8.1 8-8.1-8-0.6-0.5h-12.2v-12.1l-0.5-0.5-8.1-8 8.1-8 0.5-0.5v-12h12.2l0.6-0.6 8.1-8 8.1 8 0.5 0.6h12.5v12l0.5 0.5 8.2 8.1-8.2 8-0.5 0.5v12h-12.2zm-41.1-90.2l8.9 8.7 0.1 12.3v1.8h1.8l12.5-0.1 8.9 8.7 1.3 1.2 1.3-1.3 8.8-8.8 12.5-0.1h1.7v-1.7-12.4l8.8-8.7 1.2-1.3-1.3-1.2-8.9-8.7-0.1-12.4v-1.6h-1.7l-12.6 0.1-8.9-8.7-1.3-1.2-1.2 1.3-8.8 8.8-12.5 0.1h-1.8v1.7l0.1 12.3-8.8 8.8-1.2 1.3zm11.9 6.7l-8.2-7.9 8.1-8.1 0.5-0.5v-0.7l-0.1-11.4 11.5-0.1h0.7l0.5-0.5 8.1-8 8.2 7.9 0.5 0.5h0.8l11.5-0.1v11.4 0.7l0.6 0.5 8.1 8-8 8-0.5 0.5v0.7 11.4l-11.5 0.1h-0.7l-0.5 0.5-8.1 8.1-8.2-8-0.5-0.5h-0.7-11.5l-0.1-11.3v-0.7zm22.5-43.8l8.8-8.7h14.3v-14.1l8.9-8.7 1.3-1.3-1.3-1.2-8.9-8.8v-14.1h-14.2l-8.8-8.7-1.3-1.3-1.3 1.3-8.8 8.8h-14.3v14.1l-8.8 8.7-1.3 1.3 1.3 1.2 8.8 8.8v14.1h14.3l8.9 8.7 1.3 1.3zm6.9-11.7l-8.2 8-8.1-8-0.5-0.5h-12.2v-12.1l-0.5-0.5-8-8 8.1-8 0.5-0.5v-12.1h12.2l0.5-0.5 8.2-8 8.1 8 0.5 0.5h12.2v12.1l0.5 0.5 8.1 8-8.1 8-0.5 0.5v12.1h-12.3zm47.4 324l8.9-8.7h14.3v-14.1l8.8-8.8 1.3-1.2-1.3-1.3-8.8-8.7v-14.1h-14.3l-8.9-8.7-1.3-1.3-1.2 1.3-8.9 8.7h-14.1v14.1l-8.9 8.7-1.3 1.3 1.3 1.2 8.9 8.8v14.1h14.2l8.9 8.7 1.3 1.3zm6.9-11.7l-8.2 8-8.1-8-0.5-0.5h-12.2v-12.1l-0.5-0.5-8.2-8 8.2-8 0.5-0.5v-12.1h12.2l0.5-0.5 8.1-8 8.2 8 0.5 0.5h12.2v12.1l0.5 0.5 8.1 8-8.1 8-0.5 0.5v12.1h-12.2zm-41.3-90.2l8.9 8.7v12.3 1.7h1.8l12.5-0.1 8.9 8.7 1.3 1.3 1.3-1.3 8.8-8.8 12.5-0.1h1.8v-1.7l-0.1-12.3 8.8-8.8 1.2-1.3-1.3-1.2-8.9-8.7-0.1-12.3v-1.8h-1.7l-12.5 0.1-8.9-8.7-1.3-1.2-1.3 1.3-8.8 8.8-12.5 0.1h-1.8v1.7l0.1 12.4-8.8 8.8-1.2 1.2zm11.8 6.7l-8.1-7.9 8-8.1 0.5-0.5v-0.7-11.4h11.5 0.7l0.5-0.5 8.1-8 8.2 7.9 0.5 0.5h0.7l11.5-0.1 0.1 11.4v0.7l0.5 0.5 8.2 8-8.1 8-0.5 0.5v0.8l0.1 11.3-11.5 0.1h-0.8l-0.5 0.5-8 8.1-8.2-8-0.5-0.5h-0.8l-11.5 0.1v-11.4-0.7zm22.5-43.7l8.8-8.8h14.3v-14l8.9-8.8 1.2-1.2-1.2-1.3-8.9-8.7v-14.1h-14.3l-8.8-8.7-1.3-1.3-1.3 1.3-8.8 8.7h-14.2v14.1l-8.8 8.7-1.3 1.3 1.3 1.2 8.8 8.8v14h14.3l8.9 8.8 1.2 1.2zm6.9-11.6l-8.1 8-8.1-8-0.5-0.5h-12.3v-12.1l-0.5-0.5-8.1-8 8.1-8 0.5-0.5v-12.1h12.3l0.5-0.5 8.1-8 8.1 8 0.5 0.5h12.3v12.1l0.5 0.5 8.1 8-8.1 8-0.5 0.5v12.1h-12.3zm-41.3-90.2l8.9 8.6 0.1 12.4v1.7h1.8l12.5-0.1 8.9 8.7 1.3 1.2 1.3-1.3 8.8-8.8 12.5-0.1h1.7v-1.7-12.3l8.8-8.8 1.2-1.3-1.3-1.3-8.9-8.6-0.1-12.4v-1.6h-1.7l-12.6 0.1-8.9-8.7-1.3-1.2-1.2 1.3-8.7 8.8h-12.5-1.7v1.8 12.3l-8.8 8.8-1.2 1.3zm11.9 6.7l-8.2-8 8.1-8 0.5-0.5v-0.7l-0.1-11.4 11.5-0.1h0.7l0.5-0.5 8.1-8 8.2 7.9 0.5 0.5h0.7 11.5l0.1 11.3v0.8l0.5 0.5 8.2 7.9-8.1 8.1-0.5 0.5v0.7l0.1 11.4h-11.5-0.7l-0.5 0.5-8.1 8.1-8.2-8-0.5-0.4h-0.7-11.5l-0.1-11.3v-0.7zm22.5-43.8l8.9-8.7h14.2v-14.1l8.9-8.7 1.3-1.3-1.3-1.3-8.9-8.7v-14.1h-14.2l-8.9-8.8-1.3-1.2-1.3 1.2-8.8 8.8h-14.1v14.1l-8.8 8.7-1.3 1.3 1.3 1.3 8.8 8.7v14.1h14.3l8.8 8.7 1.3 1.3zm6.9-11.7l-8.1 8-8.1-8-0.5-0.5h-12.3v-12.1l-0.5-0.5-8-8 8.1-8 0.5-0.5v-12h12.2l0.5-0.5 8.2-8 8.1 8 0.5 0.5h12.2v12.1l0.5 0.5 8.2 8-8.2 8-0.5 0.5v12h-12.2zm12.5 292.1l8.9 8.7 0.1 12.4v1.7h1.7l12.6-0.1 8.9 8.7 1.3 1.2 1.3-1.3 8.7-8.8 12.6-0.1h1.7v-1.7l-0.1-12.3 8.8-8.8 1.3-1.3-1.3-1.2-8.9-8.7-0.1-12.3v-1.8h-1.7l-12.5 0.1-8.9-8.7-1.3-1.2-1.3 1.3-8.7 8.8-12.6 0.1h-1.7v1.7l0.1 12.4-8.8 8.8-1.3 1.2zm11.9 6.8l-8.2-8 8.1-8.1 0.5-0.5v-0.7l-0.1-11.3 11.5-0.1h0.7l0.5-0.5 8.1-8.1 8.2 8 0.5 0.5h0.7l11.5-0.1 0.1 11.3v0.8l0.5 0.5 8.2 7.9-8.1 8.1-0.5 0.5v0.7l0.1 11.3-11.5 0.1h-0.8l-0.5 0.5-8 8.1-8.2-8-0.5-0.5h-0.8l-11.5 0.1v-11.3-0.7zm22.6-43.8l8.8-8.7h14.3v-14.1l8.8-8.8 1.3-1.2-1.3-1.3-8.8-8.8v-14h-14.3l-8.8-8.8-1.3-1.3-1.3 1.3-8.9 8.8h-14.2v14l-8.9 8.8-1.3 1.3 1.3 1.2 8.9 8.8v14.1h14.2l8.9 8.7 1.3 1.2zm6.9-11.7l-8.2 8-8.1-8-0.5-0.5h-12.2v-12l-0.5-0.5-8.2-8.1 8.2-8 0.5-0.5v-12h12.2l0.5-0.5 8.1-8.1 8.2 8.1 0.5 0.5h12.2v12l0.5 0.5 8.1 8-8.1 8.1-0.5 0.5v12h-12.2zm-41.3-90.2l8.9 8.7 0.1 12.3v1.8h1.7l12.6-0.1 8.9 8.6 1.3 1.3 1.2-1.3 8.8-8.8h12.6 1.7v-1.7l-0.1-12.4 8.8-8.8 1.3-1.3-1.3-1.2-8.9-8.7-0.1-12.3v-1.7h-1.7l-12.5 0.1-8.9-8.7-1.3-1.2-1.3 1.3-8.8 8.7-12.5 0.1h-1.7v1.7l0.1 12.4-8.8 8.8-1.3 1.3zm11.8 6.7l-8.1-8 8-8.1 0.5-0.5v-0.7-11.3h11.5 0.7l0.5-0.5 8.1-8.1 8.2 8 0.5 0.5h0.7l11.5-0.1 0.1 11.3v0.7l0.5 0.5 8.2 8-8.1 8.1-0.5 0.5v0.7l0.1 11.3-11.5 0.1h-0.8l-0.5 0.5-8 8.1-8.2-8-0.5-0.5h-0.8l-11.5 0.1v-11.3-0.7zm22.6-43.8l8.8-8.7h14.3v-14.1l8.8-8.8 1.3-1.2-1.3-1.3-8.8-8.7v-14.1h-14.3l-8.8-8.8-1.3-1.2-1.3 1.2-8.9 8.8h-14.2v14.1l-8.9 8.7-1.3 1.3 1.3 1.2 8.9 8.8v14.1h14.2l8.9 8.7 1.3 1.3zm6.8-11.7l-8.1 8-8.1-8-0.5-0.5h-12.2v-12.1l-0.6-0.5-8.1-8 8.1-8 0.6-0.5v-12.1h12.2l0.5-0.5 8.1-8 8.1 8 0.6 0.5h12.2v12.1l0.5 0.5 8.1 8-8.1 8.1-0.5 0.5v12h-12.2zm-41.3-90.2l8.9 8.7 0.1 12.3v1.8h1.7l12.5-0.1 9 8.6 1.2 1.2 1.3-1.2 8.8-8.8 12.5-0.1h1.8v-1.7l-0.1-12.4 8.8-8.8 1.3-1.2-1.3-1.3-8.9-8.6-0.1-12.4v-1.6h-1.7l-12.5 0.1-8.9-8.7-1.3-1.2-1.3 1.3-8.8 8.8h-12.5-1.7v1.8l0.1 12.3-8.8 8.8-1.3 1.3zm11.8 6.7l-8.1-8 8-8 0.5-0.5v-0.8-11.3l11.5-0.1h0.7l0.5-0.5 8.1-8.1 8.2 8 0.5 0.5h0.7l11.5-0.1 0.1 11.4v0.7l0.5 0.5 8.2 8-8.1 8-0.5 0.5v0.8l0.1 11.3-11.5 0.1h-0.8l-0.5 0.5-8 8.1-8.2-8-0.5-0.5h-0.8l-11.5 0.1v-11.4-0.7zm22.5-43.8l8.9-8.7h14.3v-14.1l8.8-8.7 1.3-1.3-1.3-1.2-8.8-8.7v-14.1h-14.3l-8.9-8.8-1.2-1.2-1.3 1.2-8.9 8.8h-14.3v14.1l-8.8 8.7-1.3 1.2 1.3 1.3 8.8 8.7v14.1h14.3l8.9 8.7 1.3 1.3zm6.8-11.7l-8.1 8-8.1-8-0.5-0.5h-12.2v-12l-0.6-0.5-8.1-8.1 8.1-8 0.6-0.5v-12h12.2l0.5-0.5 8.1-8 8.1 8 0.6 0.5h12.2v12l0.5 0.5 8.1 8-8.1 8.1-0.5 0.5v12h-12.2zm47.4 324l8.8-8.7h14.3v-14.1l8.9-8.7 1.2-1.3-1.2-1.2-8.9-8.7v-14.1h-14.3l-8.8-8.8-1.3-1.2-1.3 1.2-8.9 8.8h-14.2v14.1l-8.9 8.7-1.3 1.2 1.3 1.3 8.9 8.7v14.1h14.2l8.9 8.7 1.3 1.3zm6.9-11.7l-8.2 8-8.1-8-0.5-0.5h-12.2v-12l-0.5-0.5-8.2-8.1 8.2-8 0.5-0.5v-12h12.2l0.5-0.5 8.1-8 8.2 8 0.5 0.5h12.2v12l0.5 0.5 8.1 8.1-8.1 8-0.5 0.5v12h-12.2zm-41.3-90.2l8.9 8.7 0.1 12.3v1.8h1.7l12.5-0.1 8.9 8.7 1.3 1.2 1.3-1.2 8.8-8.8 12.5-0.1h1.8v-1.7l-0.1-12.4 8.8-8.8 1.3-1.3-1.3-1.2-8.9-8.6-0.1-12.4v-1.7h-1.9l-12.5 0.1-8.9-8.7-1.3-1.2-1.3 1.3-8.8 8.8h-12.5-1.8v1.8l0.1 12.3-8.8 8.8-1.2 1.3zm11.9 6.7l-8.2-8 8.1-8 0.5-0.6v-0.7l-0.1-11.3h11.5 0.7l0.5-0.5 8.1-8.1 8.2 8 0.5 0.5h0.7l11.5-0.1 0.1 11.3v0.8l0.5 0.5 8.2 7.9-8.1 8.1-0.5 0.5v0.7l0.1 11.4h-11.5-0.7l-0.5 0.5-8.1 8.1-8.2-8-0.5-0.5h-0.7l-11.5 0.1-0.1-11.4v-0.7zm22.5-43.7l8.9-8.8h14.3v-14.1l8.8-8.7 1.3-1.2-1.3-1.3-8.8-8.7v-14.1h-14.3l-8.9-8.7-1.3-1.3-1.3 1.3-8.8 8.7h-14.3v14.1l-8.8 8.7-1.3 1.3 1.3 1.2 8.8 8.7v14.1h14.3l8.8 8.8 1.3 1.2zm6.9-11.6l-8.1 8-8.1-8-0.5-0.5h-12.3v-12.1l-0.5-0.5-8.1-8 8.1-8 0.5-0.6v-12h12.3l0.5-0.5 8.1-8 8.1 8 0.5 0.5h12.3v12l0.5 0.6 8.1 8-8.1 8-0.5 0.5v12.1h-12.3zm-41.3-90.2l8.9 8.6 0.1 12.4v1.7h1.7l12.6-0.1 8.9 8.7 1.3 1.2 1.3-1.3 8.8-8.8 12.5-0.1h1.7v-1.7l-0.1-12.3 8.8-8.8 1.3-1.3-1.3-1.3-8.9-8.7-0.1-12.3v-1.6h-1.8l-12.5 0.1-8.9-8.7-1.3-1.2-1.3 1.3-8.8 8.8-12.5 0.1h-1.8v1.7l0.1 12.3-8.8 8.8-1.2 1.3zm11.9 6.7l-8.2-7.9 8.1-8.1 0.5-0.5v-0.7l-0.1-11.4h11.5 0.7l0.5-0.5 8.1-8.1 8.2 8 0.5 0.5h0.7 11.5l0.1 11.3v0.7l0.5 0.5 8.2 8-8.1 8-0.5 0.6v0.7l0.1 11.3-11.5 0.1h-0.7l-0.6 0.5-8 8.1-8.2-8-0.5-0.5h-0.8l-11.5 0.1v-11.4-0.7zm22.5-43.8l8.8-8.7h14.3v-14.1l8.9-8.7 1.2-1.3-1.2-1.3-8.9-8.7v-14.1h-14.3l-8.8-8.7-1.3-1.3-1.3 1.3-8.9 8.7h-14.2v14.1l-8.9 8.7-1.3 1.3 1.3 1.3 8.9 8.7v14.1h14.2l8.9 8.7 1.3 1.3zm6.9-11.7l-8.2 8.1-8.1-8.1-0.5-0.5h-12.2v-12l-0.5-0.5-8.2-8 8.2-8.1 0.5-0.5v-12h12.2l0.5-0.5 8.1-8 8.2 8 0.5 0.5h12.2v12.1l0.5 0.5 8.1 8-8.1 8-0.5 0.5v12h-12.2zm12.3 292.2l8.9 8.6 0.1 12.4v1.7h1.8l12.5-0.1 8.9 8.7 1.3 1.2 1.2-1.3 8.8-8.7 12.5-0.1h1.8v-1.7l-0.1-12.4 8.8-8.8 1.3-1.3-1.3-1.2-8.9-8.6v-12.3-1.8h-1.8l-12.5 0.1-8.9-8.6-1.3-1.2-1.3 1.3-8.8 8.8-12.5 0.1h-1.8v1.7l0.1 12.3-8.8 8.8-1.3 1.3zm11.9 6.7l-8.2-7.9 8.1-8.1 0.5-0.5v-0.7l-0.1-11.4h11.5 0.7l0.6-0.6 8-8 8.2 7.9 0.5 0.5h0.7 11.5l0.1 11.3v0.7l0.5 0.5 8.2 8-8.1 8.1-0.5 0.5v0.7 11.3l-11.5 0.1h-0.5l-0.5 0.5-8.1 8.1-8.2-8-0.5-0.5h-0.7l-11.5 0.1-0.1-11.3v-0.8zm22.5-43.7l8.8-8.8h14.3v-14.1l8.9-8.7 1.3-1.3-1.3-1.2-8.9-8.8v-14.1h-14.3l-8.8-8.7-1.3-1.3-1.3 1.3-8.8 8.7h-14.3v14.1l-8.9 8.8-1.2 1.2 1.2 1.3 8.9 8.7v14.1h14.3l8.8 8.8 1.3 1.2zm6.9-11.7l-8.1 8-8.2-8-0.5-0.5h-12.2v-12.1l-0.5-0.5-8.1-8 8.1-8 0.5-0.5v-12.1h12.2l0.5-0.5 8.2-8 8.1 8 0.5 0.5h12.2v12.1l0.5 0.5 8.2 8-8.2 8-0.5 0.5v12.1h-12.2zm-41.3-90.2l8.9 8.7 0.1 12.3v1.7h1.7l12.5-0.1 9 8.7 1.3 1.3 1.2-1.3 8.8-8.8 12.5-0.1h1.7v-1.7-12.3l8.8-8.8 1.2-1.3-1.2-1.2-9-8.7v-12.3-1.8h-1.8l-12.5 0.1-8.9-8.6-1.3-1.3-1.3 1.3-8.8 8.8-12.5 0.1h-1.8v1.7l0.1 12.4-8.8 8.8-1.3 1.2zm11.9 6.7l-8.2-7.9 8.1-8.1 0.5-0.5v-0.7l-0.1-11.4h11.5 0.7l0.6-0.5 8-8 8.2 7.9 0.5 0.5h0.8l11.5-0.1v11.4 0.7l0.6 0.5 8.1 8-8 8.1-0.5 0.5v0.7 11.3l-11.5 0.1h-0.6l-0.5 0.5-8 8.1-8.2-8-0.5-0.5h-0.8l-11.5 0.1v-11.4-0.7zm22.5-43.7l8.8-8.8h14.3v-14l8.8-8.8 1.3-1.3-1.3-1.2-8.8-8.8v-14.1h-14.3l-8.8-8.7-1.3-1.3-1.3 1.3-8.9 8.7h-14.2v14.1l-8.9 8.8-1.3 1.2 1.3 1.3 8.9 8.8v14h14.2l8.9 8.8 1.3 1.3zm6.9-11.7l-8.2 8-8.1-8-0.5-0.5h-12.2v-12.1l-0.5-0.5-8.2-8 8.2-8 0.5-0.5v-12.1h12.2l0.5-0.5 8.1-8 8.2 8 0.5 0.5h12.2v12.1l0.5 0.5 8.1 8-8.1 8-0.5 0.5v12.1h-12.2zm-41.1-90.2l8.9 8.7 0.1 12.3v1.7h1.7l12.5-0.1 9 8.7 1.3 1.2 1.2-1.3 8.8-8.7 12.5-0.1h1.7v-1.7-12.4l8.8-8.8 1.2-1.3-1.2-1.2-9-8.7-0.1-12.2v-1.7h-1.7-12.6l-8.9-8.6-1.3-1.2-1.3 1.3-8.8 8.7-12.5 0.1h-1.8v1.7l0.1 12.4-8.8 8.8-1.3 1.3zm11.9 6.7l-8.2-8 8.1-8 0.5-0.5v-0.7l-0.1-11.4 11.5-0.1h0.7l0.6-0.5 8-8 8.2 7.9 0.5 0.5h0.8 11.5v11.3 0.7l0.5 0.5 8.2 8-8 8.1-0.6 0.5v0.7 11.3l-11.4 0.1h-0.7l-0.5 0.5-8.1 8.1-8.2-8.1-0.5-0.5h-0.7l-11.5 0.1-0.1-11.3v-0.7zm22.5-43.8l8.8-8.8h14.3v-14l8.9-8.8 1.3-1.2-1.3-1.3-8.9-8.7v-14.1h-14.3l-8.8-8.7-1.3-1.3-1.3 1.3-8.8 8.7h-14.3v14.1l-8.9 8.7-1.3 1.3 1.3 1.2 8.9 8.8v14h14.3l8.8 8.8 1.3 1.3zm6.9-11.7l-8.1 8-8.2-8-0.5-0.5h-12.2v-12.1l-0.5-0.5-8.1-8 8.1-8 0.5-0.5v-12.1h12.2l0.5-0.5 8.2-8 8.1 8 0.5 0.5h12.2v12.1l0.5 0.5 8.2 8-8.2 8-0.5 0.5v12.1h-12.2zm47.4 324l8.9-8.8h14.2v-14l8.9-8.8 1.3-1.3-1.3-1.2-8.9-8.7v-14.1h-14.2l-8.9-8.7-1.3-1.3-1.3 1.3-8.8 8.7h-14.3v14.1l-8.8 8.7-1.3 1.2 1.3 1.3 8.8 8.8v14h14.3l8.8 8.8 1.3 1.3zm6.9-11.7l-8.1 8-8.1-8-0.5-0.5h-12.3v-12.1l-0.5-0.5-8.1-8 8.1-8 0.5-0.5v-12.1h12.3l0.5-0.5 8.1-8 8.1 8 0.5 0.5h12.3v12.1l0.5 0.5 8.1 8-8.1 8-0.5 0.5v12.1h-12.2zm-41.4-90.2l8.9 8.6 0.1 12.4v1.7h1.8l12.5-0.1 8.9 8.7 1.3 1.3 1.3-1.3 8.8-8.8 12.5-0.1h1.7v-1.7l-0.1-12.3 8.8-8.8 1.3-1.3-1.3-1.2-8.9-8.7-0.1-12.3v-1.8h-1.7l-12.5 0.1-9-8.7-1.2-1.2-1.3 1.3-8.8 8.8-12.5 0.1h-1.8v1.7l0.1 12.4-8.8 8.7-1.3 1.3zm11.9 6.7l-8.2-7.9 8.1-8.1 0.5-0.5v-0.7l-0.1-11.3h11.5 0.7l0.5-0.6 8.1-8 8.2 7.9 0.5 0.5h0.7 11.5l0.1 11.3v0.7l0.5 0.5 8.2 8-8.1 8.1-0.5 0.5v0.7l0.1 11.3-11.5 0.1h-0.7l-0.5 0.5-8.1 8.1-8.2-8-0.5-0.5h-0.7l-11.5 0.1-0.1-11.3v-0.7zm22.5-43.8l8.8-8.7h14.3v-14.1l8.9-8.8 1.3-1.2-1.3-1.3-8.9-8.7v-14.1h-14.3l-8.8-8.7-1.3-1.3-1.3 1.3-8.8 8.7h-14.3v14.1l-8.9 8.7-1.2 1.3 1.2 1.2 8.9 8.8v14.1h14.3l8.8 8.7 1.3 1.3zm6.9-11.7l-8.1 8-8.1-8-0.5-0.5h-12.2v-12.1l-0.5-0.5-8.2-8 8.2-8 0.5-0.5v-12.1h12.2l0.5-0.5 8.1-8 8.2 8 0.5 0.5h12.2v12.1l0.5 0.5 8.1 8-8.1 8-0.5 0.5v12.1h-12.2zm-41.4-90.2l9 8.7v12.3 1.7h1.8l12.5-0.1 8.9 8.7 1.3 1.2 1.3-1.3 8.8-8.8h12.5 1.7v-1.8-12.3l8.8-8.8 1.2-1.3-1.2-1.3-9-8.6v-12.4-1.5h-1.8-12.5l-8.9-8.6-1.3-1.3-1.3 1.3-8.8 8.8-12.5 0.1h-1.8v1.7l0.1 12.4-8.8 8.8-1.3 1.3zm11.9 6.7l-8.2-8 8.1-8.1 0.5-0.5v-0.7l-0.1-11.3 11.5-0.1h0.8l0.5-0.5 8-8.1 8.2 8 0.5 0.5h0.8 11.5v11.3 0.7l0.6 0.5 8.1 8-8 8.1-0.5 0.5v0.7 11.3l-11.5 0.1h-0.7l-0.5 0.5-8.1 8.1-8.2-8-0.5-0.5h-0.7l-11.5 0.1-0.1-11.3v-0.8zm22.5-43.7l8.9-8.8h14.3v-14.1l8.8-8.7 1.3-1.3-1.3-1.2-8.8-8.8v-14.1h-14.3l-8.9-8.7-1.3-1.3-1.2 1.3-8.9 8.7h-14.3v14.1l-8.8 8.8-1.3 1.2 1.3 1.3 8.8 8.7v14.1h14.3l8.9 8.8 1.2 1.2zm6.9-11.6l-8.1 8-8-8-0.5-0.5h-12.2v-12.1l-0.5-0.5-8.2-8 8.2-8 0.5-0.5v-12h12.2l0.5-0.5 8.1-8.1 8.2 8.1 0.5 0.5h12.2v12l0.5 0.5 8.1 8-8.1 8-0.5 0.6v12h-12.2zm-39.8-94.2h4.9l-2.6 2.7 8.2 8 0.5 0.5v0.7l0.1 11.3h11.5 0.7l0.5 0.5 8.2 7.9 8.1-8 0.5-0.6h0.7 11.5l-0.1-11.4v-0.7l0.5-0.5 8.1-8.1-2.3-2.3h4.9l1.1 1.1 1.3 1.3-1.3 1.2-8.8 8.8 0.1 12.4v1.7h-1.7l-12.5 0.1-8.8 8.8-1.3 1.3-1.3-1.3-8.9-8.6h-12.5-1.8v-1.8l-0.1-12.4-8.9-8.6-1.3-1.3 1.3-1.2zm-24.3 0h4.1l-0.8 0.7-1.2 1.3-1.3-1.2zm-83.6 0h4.9l-2.6 2.6 8.2 8 0.5 0.5v0.7l0.1 11.3h11.5 0.7l0.5 0.5 8.2 7.9 8.1-8 0.5-0.5h0.7l11.5-0.1-0.1-11.4v-0.7l0.5-0.5 8-8.1-2.3-2.2h5l1 1 1.3 1.3-1.3 1.3-8.8 8.8 0.1 12.3v1.7h-1.7l-12.6 0.1-8.7 8.8-1.3 1.3-1.3-1.2-9-8.7-12.5 0.1h-1.7v-1.9l-0.1-12.4-8.9-8.6-1.3-1.2 1.2-1.3zm-24.3 0h4l-0.8 0.7-1.3 1.3-1.2-1.2zm-83.7 0h4.9l-2.7 2.7 8.2 7.9 0.5 0.5v0.7l0.1 11.4 11.5-0.1h0.7l0.5 0.5 8.2 8 8.1-8.1 0.5-0.5h0.7l11.5-0.1v-11.4-0.7l0.5-0.5 8.1-8-2.3-2.3h5l1 1 1.3 1.3-1.2 1.3-8.8 8.8 0.1 12.3v1.8h-1.8-12.5l-8.9 8.7-1.3 1.3-1.3-1.2-8.9-8.7-12.5 0.1h-1.8v-1.8l-0.1-12.3-8.9-8.7-1.2-1.2 1.2-1.3zm-24.4 0h4l-0.6 0.8-1.3 1.2-1.3-1.2zm-83.6 0h4.9l-2.7 2.6 8.2 8 0.5 0.5v0.7l0.1 11.4 11.5-0.1h0.7l0.5 0.5 8.2 7.9 8.1-8 0.5-0.5h0.7l11.5-0.1-0.1-11.4v-0.7l0.5-0.5 8.1-8.1-2.3-2.2h5l1 1 1.3 1.3-1.2 1.3-8.8 8.8 0.1 12.3v1.7h-1.8l-12.5 0.1-8.8 8.8-1.3 1.3-1.3-1.2-8.9-8.7-12.5 0.1h-1.8v-1.9-12.4l-8.9-8.6-1.3-1.2 1.3-1.3zm-24.4 0h4l-0.7 0.7-1.3 1.3-1.3-1.2zm-83.6 0h4.9l-2.7 2.7 8.2 7.9 0.5 0.5v0.7l0.1 11.4 11.5-0.1h0.8l0.5 0.5 8.1 8 8.1-8.1 0.5-0.5h0.8l11.5-0.1-0.2-11.4v-0.7l0.5-0.5 8.1-8-2.3-2.3h5l1 1 1.3 1.3-1.3 1.3-8.8 8.8 0.1 12.3v1.8h-1.7-12.5l-8.8 8.8-1.3 1.3-1.3-1.2-8.9-8.7-12.6 0.1h-1.7v-1.9l-0.1-12.3-8.9-8.7-1.3-1.2 1.3-1.3zm-24.3 0h4l-0.8 0.8-1.2 1.2-1.3-1.2zm6.5 426h-9.3l3.4-3.4 1.3-1.2 1.3 1.2zm77.1 0h-4.9l6.9-6.9-8.2-7.9-0.5-0.5v-0.8l-0.1-11.3-11.5 0.1h-0.8l-0.5-0.5-8.1-8-8.1 8.1-0.5 0.5h-0.8l-11.5 0.1 0.1 11.3v0.7l-0.5 0.5-8.1 8.1 6.7 6.5h-4.8l-5.5-5.3-1.3-1.2 1.3-1.2 8.8-8.8-0.1-12.3v-1.8h1.8 12.5l8.8-8.8 1.3-1.3 1.3 1.2 8.9 8.7 12.5-0.1h1.8v1.7 12.4l9 8.6 1.2 1.3-1.2 1.3zm30.8 0h-9.3l3.4-3.4 1.3-1.2 1.3 1.2zm77.1 0h-4.9l6.9-6.9-8.1-8-0.6-0.5v-0.7-11.3l-11.5 0.1h-0.8l-0.5-0.5-8.2-8-8 8.1-0.5 0.5h-0.8-11.5l0.1 11.4v0.7l-0.5 0.5-8.1 8.1 6.8 6.5h-5l-5.5-5.3-1.2-1.2 1.2-1.2 8.8-8.8v-12.4-1.7h1.7 12.5l8.8-8.8 1.3-1.3 1.2 1.2 9 8.7 12.5-0.1h1.6v1.7l0.1 12.4 8.9 8.6 1.3 1.3-1.2 1.3zm30.8 0h-9.4l3.5-3.4 1.3-1.2 1.3 1.2zm77.1 0h-4.9l6.9-6.9-8.2-8-0.5-0.5v-0.7l-0.1-11.3h-11.5-0.7l-0.5-0.5-8.2-7.9-8.1 8-0.5 0.6h-0.7-11.5l0.1 11.4v0.7l-0.5 0.5-8.1 8.1 6.7 6.5h-5l-5.4-5.3-1.3-1.2 1.2-1.2 8.8-8.8-0.1-12.4v-1.7h1.8l12.5-0.1 8.8-8.8 1.3-1.2 1.3 1.2 8.9 8.6h12.5 1.8v1.7 12.3l9 8.7 1.2 1.3-1.2 1.3zm30.9 0h-9.4l3.5-3.4 1.3-1.2 1.2 1.2zm77.2 0h-4.9l6.9-6.9-8.2-8-0.5-0.5v-0.7l-0.1-11.4-11.5 0.1h-0.7l-0.5-0.5-8.2-7.9-8.1 8-0.5 0.5h-0.7l-11.5 0.1 0.1 11.4v0.7l-0.5 0.5-8.1 8 6.7 6.6h-5l-5.4-5.3-1.3-1.2 1.2-1.2 8.8-8.8-0.1-12.4v-1.7h1.8l12.5-0.1 8.8-8.8 1.3-1.3 1.3 1.2 8.9 8.7 12.5-0.1h1.8v1.8l0.1 12.3 8.9 8.7 1.3 1.3-1.3 1.2zm30.8 0h-9.3l3.4-3.3 1.3-1.2 1.3 1.2zm77.1 0h-4.9l6.9-7-8.1-7.9-0.6-0.5v-0.7-11.4l-11.5 0.1h-0.8l-0.5-0.5-8.2-8-8 8.1-0.6 0.5h-0.7l-11.5 0.1 0.1 11.3v0.7l-0.5 0.5-8.1 8.1 6.7 6.6h-4.9l-5.5-5.3-1.3-1.2 1.3-1.3 8.8-8.8-0.1-12.3v-1.7h1.8l12.5-0.1 8.8-8.8 1.3-1.3 1.3 1.2 8.9 8.7 12.5-0.1h1.8v1.8l0.1 12.3 8.9 8.7 1.3 1.2-1.3 1.3z"/>
			</g>
		</g>
	</g>
	<g style="opacity: .18">
		<path class="s2" d="m479 769.7v49.3c0 2.2 0.9 4.3 2.4 5.9 1.5 1.5 3.6 2.4 5.8 2.4h24.4c9.1 0 17.9-3.7 24.4-10.1 6.5-6.5 10.1-15.3 10.1-24.4v-31.4c0-50.8-43.3-64.1-60.3-67.3q-0.5-0.1-1 0.1-0.5 0.3-0.7 0.8-0.1 0.4 0 0.9 0.2 0.5 0.6 0.8c28.6 19.5 33.4 43.7 33.8 56.3 0.1 1.1-0.1 2.2-0.5 3.2-0.4 1-1 2-1.8 2.8-0.8 0.7-1.7 1.4-2.7 1.8-1 0.4-2.1 0.6-3.2 0.6h-23.1q-1.6 0-3.1 0.7c-1 0.4-1.9 1-2.7 1.7q-1.1 1.2-1.8 2.7-0.6 1.5-0.6 3.2z"/>
		<path class="s2" d="m398 769.7v49.3q0 1.7 0.6 3.2c0.4 1 1 1.9 1.8 2.7q1.2 1.1 2.7 1.7 1.5 0.7 3.1 0.7h50.7c2.2 0 4.2-0.9 5.8-2.4 1.5-1.6 2.4-3.7 2.4-5.9v-57.6c0-50.8-43.3-64.1-60.3-67.4-0.4 0-0.7 0-1 0.2-0.4 0.1-0.6 0.4-0.7 0.7-0.2 0.3-0.2 0.7-0.1 1 0.2 0.4 0.4 0.6 0.7 0.8 28.6 19.5 33.4 43.7 33.8 56.3 0.1 1.1-0.1 2.2-0.5 3.2-0.4 1-1 2-1.8 2.8-0.7 0.7-1.7 1.4-2.7 1.8-1 0.4-2.1 0.6-3.2 0.6h-23.1c-2.2 0-4.3 0.9-5.8 2.4-1.5 1.6-2.4 3.7-2.4 5.9z"/>
	</g>
	<g style="opacity: .18">
		<path class="s2" d="m73.1 61.6v-49.4c0-2.2-0.9-4.2-2.4-5.8-1.6-1.5-3.6-2.4-5.8-2.4h-24.4c-9.2 0-17.9 3.6-24.4 10.1-6.5 6.5-10.1 15.3-10.1 24.4v31.3c0 50.9 43.3 64.1 60.3 67.4q0.5 0.1 1-0.2 0.4-0.2 0.6-0.7 0.2-0.5 0.1-1-0.2-0.5-0.6-0.7c-28.6-19.5-33.5-43.7-33.8-56.3-0.1-1.1 0.1-2.2 0.5-3.2 0.4-1.1 1-2 1.8-2.8 0.7-0.8 1.7-1.4 2.7-1.8 1-0.4 2.1-0.7 3.2-0.7h23.1q1.6 0 3.1-0.6 1.5-0.6 2.7-1.8c0.7-0.7 1.3-1.6 1.8-2.6q0.6-1.6 0.6-3.2z"/>
		<path class="s2" d="m154.1 61.6v-49.4c0-1.1-0.2-2.1-0.6-3.1q-0.7-1.5-1.8-2.7-1.2-1.1-2.7-1.8-1.5-0.6-3.1-0.6h-50.7c-2.2 0-4.3 0.9-5.8 2.4-1.5 1.6-2.4 3.6-2.4 5.8v57.6c0 50.9 43.3 64.1 60.3 67.4 0.4 0.1 0.7 0.1 1-0.1 0.4-0.1 0.6-0.4 0.7-0.7 0.2-0.4 0.2-0.7 0.1-1.1-0.2-0.3-0.4-0.6-0.7-0.7-28.6-19.5-33.5-43.7-33.8-56.3-0.1-1.1 0.1-2.2 0.5-3.2 0.4-1.1 1-2 1.8-2.8 0.7-0.8 1.7-1.4 2.7-1.8 1-0.4 2.1-0.7 3.2-0.7h23.1c2.2 0 4.2-0.8 5.8-2.4 1.5-1.5 2.4-3.6 2.4-5.8z"/>
	</g>
	<path fill-rule="evenodd" class="s3" d="m34 7h480c16 0 29 13 29 29v760c0 16-13 29-29 29h-480c-16 0-29-13-29-29v-760c0-16 13-29 29-29z"/>
	<g>
		<path class="s4" d="m242.1 92.2l8.6 0.8c5.7 0.7 10.1 5.3 10.9 11.1l0.8 8.8c0 0.1 0.1 0.1 0.2 0 0.1-1.2 0.5-6.1 0.8-8.8 0.8-5.8 5.2-10.4 10.9-11.1l8.6-0.9c0.1 0 0.1-0.1 0-0.2l-8.6-0.9c-5.7-0.7-10.1-5.3-10.9-11.1-0.3-2.7-0.7-7.6-0.8-8.8 0-0.1-0.1-0.1-0.2 0l-0.8 8.8c-0.8 5.8-5.2 10.4-10.9 11.1l-8.6 0.9c-0.1 0.1-0.1 0.2 0 0.3z"/>
	</g>
	<g>
		<path class="s4" d="m242.1 761.2l8.6 0.8c5.7 0.7 10.1 5.3 10.9 11.1l0.8 8.8c0 0.1 0.1 0.1 0.2 0 0.1-1.2 0.5-6.1 0.8-8.8 0.8-5.8 5.2-10.4 10.9-11.1l8.6-0.9c0.1 0 0.1-0.1 0-0.2l-8.6-0.9c-5.7-0.7-10.1-5.3-10.9-11.1-0.3-2.7-0.7-7.6-0.8-8.8 0-0.1-0.1-0.1-0.2 0l-0.8 8.8c-0.8 5.8-5.2 10.4-10.9 11.1l-8.6 0.9c-0.1 0.1-0.1 0.2 0 0.3z"/>
	</g>
</svg>