<svg width="549" height="125" viewBox="0 0 549 125" fill="none" xmlns="http://www.w3.org/2000/svg">
<path d="M174.868 45.4C174.868 47.128 175.228 48.676 175.948 50.044C176.692 51.388 177.712 52.444 179.008 53.212C180.304 53.98 181.78 54.364 183.436 54.364C185.116 54.364 186.592 53.98 187.864 53.212C189.16 52.444 190.168 51.388 190.888 50.044C191.632 48.676 192.004 47.128 192.004 45.4C192.004 43.672 191.644 42.136 190.924 40.792C190.204 39.424 189.196 38.356 187.9 37.588C186.628 36.82 185.14 36.436 183.436 36.436C181.78 36.436 180.304 36.82 179.008 37.588C177.712 38.356 176.692 39.424 175.948 40.792C175.228 42.136 174.868 43.672 174.868 45.4ZM170.368 45.4C170.368 43.504 170.692 41.764 171.34 40.18C171.988 38.596 172.9 37.228 174.076 36.076C175.276 34.9 176.668 33.988 178.252 33.34C179.86 32.692 181.588 32.368 183.436 32.368C185.332 32.368 187.072 32.692 188.656 33.34C190.24 33.988 191.62 34.9 192.796 36.076C193.996 37.228 194.92 38.596 195.568 40.18C196.216 41.764 196.54 43.504 196.54 45.4C196.54 47.272 196.216 49.012 195.568 50.62C194.92 52.228 194.008 53.62 192.832 54.796C191.656 55.972 190.264 56.896 188.656 57.568C187.072 58.216 185.332 58.54 183.436 58.54C181.564 58.54 179.824 58.216 178.216 57.568C176.608 56.896 175.216 55.972 174.04 54.796C172.888 53.62 171.988 52.228 171.34 50.62C170.692 49.012 170.368 47.272 170.368 45.4ZM211.003 47.92C211.003 46.696 210.751 45.772 210.247 45.148C209.743 44.524 208.963 44.212 207.907 44.212C207.187 44.212 206.551 44.368 205.999 44.68C205.447 44.968 205.015 45.4 204.703 45.976C204.391 46.528 204.235 47.176 204.235 47.92V58H200.347V41.44H204.235V43.996C204.763 43.012 205.435 42.28 206.251 41.8C207.091 41.32 208.087 41.08 209.239 41.08C211.111 41.08 212.539 41.656 213.523 42.808C214.507 43.936 214.999 45.496 214.999 47.488V58H211.003V47.92ZM227.164 58.36C225.484 58.36 223.996 58 222.7 57.28C221.428 56.56 220.444 55.552 219.748 54.256C219.052 52.96 218.704 51.448 218.704 49.72C218.704 47.968 219.052 46.444 219.748 45.148C220.468 43.852 221.476 42.856 222.772 42.16C224.068 41.44 225.592 41.08 227.344 41.08C229.096 41.08 230.584 41.416 231.808 42.088C233.032 42.76 233.968 43.732 234.616 45.004C235.288 46.252 235.624 47.764 235.624 49.54C235.624 49.732 235.612 49.936 235.588 50.152C235.588 50.368 235.576 50.524 235.552 50.62H221.008V47.956H232.24L231.052 49.612C231.124 49.468 231.196 49.276 231.268 49.036C231.364 48.772 231.412 48.556 231.412 48.388C231.412 47.5 231.232 46.732 230.872 46.084C230.536 45.436 230.056 44.932 229.432 44.572C228.832 44.212 228.124 44.032 227.308 44.032C226.324 44.032 225.484 44.248 224.788 44.68C224.092 45.112 223.564 45.736 223.204 46.552C222.844 47.368 222.652 48.376 222.628 49.576C222.628 50.776 222.808 51.796 223.168 52.636C223.528 53.452 224.056 54.076 224.752 54.508C225.472 54.94 226.336 55.156 227.344 55.156C228.4 55.156 229.324 54.94 230.116 54.508C230.908 54.076 231.568 53.416 232.096 52.528L235.444 53.896C234.58 55.384 233.464 56.5 232.096 57.244C230.728 57.988 229.084 58.36 227.164 58.36ZM273.241 49.684L279.145 32.8H284.077L273.781 59.332L266.005 41.512L258.229 59.332L247.933 32.8H252.865L258.841 49.684L266.005 31.54L273.241 49.684ZM286.688 34.852C286.688 34.18 286.928 33.616 287.408 33.16C287.912 32.704 288.488 32.476 289.136 32.476C289.832 32.476 290.408 32.704 290.864 33.16C291.344 33.616 291.584 34.18 291.584 34.852C291.584 35.5 291.344 36.064 290.864 36.544C290.408 37 289.832 37.228 289.136 37.228C288.488 37.228 287.912 37 287.408 36.544C286.928 36.064 286.688 35.5 286.688 34.852ZM287.228 41.44H291.044V58H287.228V41.44ZM297.15 52.564C297.678 53.14 298.206 53.644 298.734 54.076C299.286 54.484 299.838 54.796 300.39 55.012C300.942 55.204 301.494 55.3 302.046 55.3C302.742 55.3 303.282 55.144 303.666 54.832C304.074 54.52 304.278 54.088 304.278 53.536C304.278 53.056 304.122 52.648 303.81 52.312C303.498 51.952 303.066 51.652 302.514 51.412C301.962 51.148 301.314 50.884 300.57 50.62C299.826 50.332 299.082 49.996 298.338 49.612C297.618 49.204 297.018 48.676 296.538 48.028C296.082 47.38 295.854 46.564 295.854 45.58C295.854 44.572 296.106 43.732 296.61 43.06C297.138 42.388 297.834 41.896 298.698 41.584C299.586 41.248 300.534 41.08 301.542 41.08C302.454 41.08 303.306 41.212 304.098 41.476C304.914 41.74 305.646 42.088 306.294 42.52C306.942 42.952 307.494 43.444 307.95 43.996L305.79 46.3C305.238 45.652 304.578 45.124 303.81 44.716C303.042 44.308 302.25 44.104 301.434 44.104C300.882 44.104 300.426 44.224 300.066 44.464C299.706 44.704 299.526 45.052 299.526 45.508C299.526 45.892 299.682 46.24 299.994 46.552C300.33 46.84 300.762 47.104 301.29 47.344C301.842 47.584 302.454 47.836 303.126 48.1C304.038 48.46 304.878 48.856 305.646 49.288C306.414 49.72 307.026 50.248 307.482 50.872C307.962 51.496 308.202 52.312 308.202 53.32C308.202 54.88 307.662 56.14 306.582 57.1C305.526 58.036 304.086 58.504 302.262 58.504C301.134 58.504 300.09 58.336 299.13 58C298.194 57.64 297.366 57.184 296.646 56.632C295.95 56.056 295.362 55.456 294.882 54.832L297.15 52.564ZM315.54 29.92V58H311.652V29.92H315.54ZM322.308 47.92C322.308 46.696 322.056 45.772 321.552 45.148C321.072 44.524 320.292 44.212 319.212 44.212C318.492 44.212 317.856 44.368 317.304 44.68C316.752 44.992 316.32 45.424 316.008 45.976C315.696 46.528 315.54 47.176 315.54 47.92H314.604C314.604 46.6 314.844 45.424 315.324 44.392C315.804 43.36 316.476 42.532 317.34 41.908C318.228 41.284 319.296 40.972 320.544 40.972C321.768 40.972 322.8 41.212 323.64 41.692C324.504 42.172 325.152 42.892 325.584 43.852C326.016 44.788 326.232 45.964 326.232 47.38V58H322.308V47.92ZM333.612 54.04L337.5 55.156L333.324 64.156L330.444 63.364L333.612 54.04ZM356.661 45.4C356.661 47.128 357.021 48.676 357.741 50.044C358.485 51.388 359.505 52.444 360.801 53.212C362.097 53.98 363.573 54.364 365.229 54.364C366.909 54.364 368.385 53.98 369.657 53.212C370.953 52.444 371.961 51.388 372.681 50.044C373.425 48.676 373.797 47.128 373.797 45.4C373.797 43.672 373.437 42.136 372.717 40.792C371.997 39.424 370.989 38.356 369.693 37.588C368.421 36.82 366.933 36.436 365.229 36.436C363.573 36.436 362.097 36.82 360.801 37.588C359.505 38.356 358.485 39.424 357.741 40.792C357.021 42.136 356.661 43.672 356.661 45.4ZM352.161 45.4C352.161 43.504 352.485 41.764 353.133 40.18C353.781 38.596 354.693 37.228 355.869 36.076C357.069 34.9 358.461 33.988 360.045 33.34C361.653 32.692 363.381 32.368 365.229 32.368C367.125 32.368 368.865 32.692 370.449 33.34C372.033 33.988 373.413 34.9 374.589 36.076C375.789 37.228 376.713 38.596 377.361 40.18C378.009 41.764 378.333 43.504 378.333 45.4C378.333 47.272 378.009 49.012 377.361 50.62C376.713 52.228 375.801 53.62 374.625 54.796C373.449 55.972 372.057 56.896 370.449 57.568C368.865 58.216 367.125 58.54 365.229 58.54C363.357 58.54 361.617 58.216 360.009 57.568C358.401 56.896 357.009 55.972 355.833 54.796C354.681 53.62 353.781 52.228 353.133 50.62C352.485 49.012 352.161 47.272 352.161 45.4ZM392.796 47.92C392.796 46.696 392.544 45.772 392.04 45.148C391.536 44.524 390.756 44.212 389.7 44.212C388.98 44.212 388.344 44.368 387.792 44.68C387.24 44.968 386.808 45.4 386.496 45.976C386.184 46.528 386.028 47.176 386.028 47.92V58H382.14V41.44H386.028V43.996C386.556 43.012 387.228 42.28 388.044 41.8C388.884 41.32 389.88 41.08 391.032 41.08C392.904 41.08 394.332 41.656 395.316 42.808C396.3 43.936 396.792 45.496 396.792 47.488V58H392.796V47.92ZM408.957 58.36C407.277 58.36 405.789 58 404.493 57.28C403.221 56.56 402.237 55.552 401.541 54.256C400.845 52.96 400.497 51.448 400.497 49.72C400.497 47.968 400.845 46.444 401.541 45.148C402.261 43.852 403.269 42.856 404.565 42.16C405.861 41.44 407.385 41.08 409.137 41.08C410.889 41.08 412.377 41.416 413.601 42.088C414.825 42.76 415.761 43.732 416.409 45.004C417.081 46.252 417.417 47.764 417.417 49.54C417.417 49.732 417.405 49.936 417.381 50.152C417.381 50.368 417.369 50.524 417.345 50.62H402.801V47.956H414.033L412.845 49.612C412.917 49.468 412.989 49.276 413.061 49.036C413.157 48.772 413.205 48.556 413.205 48.388C413.205 47.5 413.025 46.732 412.665 46.084C412.329 45.436 411.849 44.932 411.225 44.572C410.625 44.212 409.917 44.032 409.101 44.032C408.117 44.032 407.277 44.248 406.581 44.68C405.885 45.112 405.357 45.736 404.997 46.552C404.637 47.368 404.445 48.376 404.421 49.576C404.421 50.776 404.601 51.796 404.961 52.636C405.321 53.452 405.849 54.076 406.545 54.508C407.265 54.94 408.129 55.156 409.137 55.156C410.193 55.156 411.117 54.94 411.909 54.508C412.701 54.076 413.361 53.416 413.889 52.528L417.237 53.896C416.373 55.384 415.257 56.5 413.889 57.244C412.521 57.988 410.877 58.36 408.957 58.36ZM435.378 45.4C435.378 47.176 435.774 48.736 436.566 50.08C437.382 51.424 438.438 52.468 439.734 53.212C441.054 53.932 442.482 54.292 444.018 54.292C445.218 54.292 446.298 54.136 447.258 53.824C448.218 53.512 449.082 53.092 449.85 52.564C450.642 52.012 451.326 51.4 451.902 50.728V55.768C450.846 56.632 449.706 57.292 448.482 57.748C447.258 58.204 445.722 58.432 443.874 58.432C442.026 58.432 440.298 58.12 438.689 57.496C437.106 56.872 435.726 55.972 434.55 54.796C433.374 53.62 432.45 52.24 431.778 50.656C431.13 49.048 430.806 47.296 430.806 45.4C430.806 43.504 431.13 41.764 431.778 40.18C432.45 38.572 433.374 37.18 434.55 36.004C435.726 34.828 437.106 33.928 438.689 33.304C440.298 32.68 442.026 32.368 443.874 32.368C445.722 32.368 447.258 32.596 448.482 33.052C449.706 33.508 450.846 34.168 451.902 35.032V40.072C451.326 39.4 450.642 38.8 449.85 38.272C449.082 37.72 448.218 37.288 447.258 36.976C446.298 36.664 445.218 36.508 444.018 36.508C442.482 36.508 441.054 36.88 439.734 37.624C438.438 38.344 437.382 39.376 436.566 40.72C435.774 42.04 435.378 43.6 435.378 45.4ZM460.7 29.92V58H456.812V29.92H460.7ZM467.468 47.92C467.468 46.696 467.216 45.772 466.712 45.148C466.232 44.524 465.452 44.212 464.372 44.212C463.652 44.212 463.016 44.368 462.464 44.68C461.912 44.992 461.48 45.424 461.168 45.976C460.856 46.528 460.7 47.176 460.7 47.92H459.764C459.764 46.6 460.004 45.424 460.484 44.392C460.964 43.36 461.636 42.532 462.5 41.908C463.388 41.284 464.456 40.972 465.704 40.972C466.928 40.972 467.96 41.212 468.8 41.692C469.664 42.172 470.312 42.892 470.744 43.852C471.176 44.788 471.392 45.964 471.392 47.38V58H467.468V47.92ZM478.772 52.852C478.772 53.404 478.904 53.884 479.168 54.292C479.432 54.676 479.792 54.964 480.248 55.156C480.728 55.348 481.268 55.444 481.868 55.444C482.636 55.444 483.332 55.288 483.956 54.976C484.604 54.664 485.12 54.208 485.504 53.608C485.912 52.984 486.116 52.264 486.116 51.448L486.692 53.608C486.692 54.664 486.38 55.552 485.756 56.272C485.156 56.968 484.388 57.496 483.452 57.856C482.54 58.192 481.604 58.36 480.644 58.36C479.612 58.36 478.652 58.156 477.764 57.748C476.876 57.34 476.168 56.74 475.64 55.948C475.112 55.156 474.848 54.196 474.848 53.068C474.848 51.46 475.412 50.188 476.54 49.252C477.668 48.292 479.264 47.812 481.328 47.812C482.432 47.812 483.38 47.932 484.172 48.172C484.988 48.412 485.66 48.7 486.188 49.036C486.716 49.348 487.088 49.636 487.304 49.9V51.88C486.56 51.352 485.768 50.968 484.928 50.728C484.088 50.488 483.2 50.368 482.264 50.368C481.448 50.368 480.788 50.476 480.284 50.692C479.78 50.884 479.396 51.16 479.132 51.52C478.892 51.88 478.772 52.324 478.772 52.852ZM477.548 45.76L475.964 43.024C476.708 42.568 477.668 42.124 478.844 41.692C480.044 41.26 481.412 41.044 482.948 41.044C484.316 41.044 485.516 41.248 486.548 41.656C487.604 42.064 488.432 42.652 489.032 43.42C489.632 44.164 489.932 45.088 489.932 46.192V58H486.116V46.948C486.116 46.42 486.02 45.988 485.828 45.652C485.66 45.316 485.42 45.04 485.108 44.824C484.796 44.608 484.424 44.452 483.992 44.356C483.56 44.26 483.092 44.212 482.588 44.212C481.82 44.212 481.088 44.308 480.392 44.5C479.72 44.668 479.132 44.884 478.628 45.148C478.148 45.388 477.788 45.592 477.548 45.76ZM505.12 47.92C505.12 46.696 504.868 45.772 504.364 45.148C503.86 44.524 503.08 44.212 502.024 44.212C501.304 44.212 500.668 44.368 500.116 44.68C499.564 44.968 499.132 45.4 498.82 45.976C498.508 46.528 498.352 47.176 498.352 47.92V58H494.464V41.44H498.352V43.996C498.88 43.012 499.552 42.28 500.368 41.8C501.208 41.32 502.204 41.08 503.356 41.08C505.228 41.08 506.656 41.656 507.64 42.808C508.624 43.936 509.116 45.496 509.116 47.488V58H505.12V47.92ZM516.674 49.72C516.674 50.776 516.902 51.7 517.358 52.492C517.814 53.26 518.426 53.872 519.194 54.328C519.986 54.784 520.862 55.012 521.822 55.012C522.614 55.012 523.37 54.892 524.09 54.652C524.81 54.412 525.446 54.076 525.998 53.644C526.55 53.212 526.958 52.732 527.222 52.204V56.488C526.646 57.064 525.866 57.52 524.882 57.856C523.898 58.192 522.818 58.36 521.642 58.36C519.938 58.36 518.402 58 517.034 57.28C515.69 56.536 514.622 55.516 513.83 54.22C513.062 52.9 512.678 51.4 512.678 49.72C512.678 48.016 513.062 46.516 513.83 45.22C514.622 43.924 515.69 42.916 517.034 42.196C518.402 41.452 519.938 41.08 521.642 41.08C522.818 41.08 523.898 41.248 524.882 41.584C525.866 41.92 526.646 42.376 527.222 42.952V47.236C526.958 46.684 526.538 46.204 525.962 45.796C525.41 45.364 524.774 45.028 524.054 44.788C523.334 44.548 522.59 44.428 521.822 44.428C520.862 44.428 519.986 44.656 519.194 45.112C518.426 45.568 517.814 46.192 517.358 46.984C516.902 47.776 516.674 48.688 516.674 49.72ZM538.719 58.36C537.039 58.36 535.551 58 534.255 57.28C532.983 56.56 531.999 55.552 531.303 54.256C530.607 52.96 530.259 51.448 530.259 49.72C530.259 47.968 530.607 46.444 531.303 45.148C532.023 43.852 533.031 42.856 534.327 42.16C535.623 41.44 537.147 41.08 538.899 41.08C540.651 41.08 542.139 41.416 543.363 42.088C544.587 42.76 545.523 43.732 546.171 45.004C546.843 46.252 547.179 47.764 547.179 49.54C547.179 49.732 547.167 49.936 547.143 50.152C547.143 50.368 547.131 50.524 547.107 50.62H532.563V47.956H543.795L542.607 49.612C542.679 49.468 542.751 49.276 542.823 49.036C542.919 48.772 542.967 48.556 542.967 48.388C542.967 47.5 542.787 46.732 542.427 46.084C542.091 45.436 541.611 44.932 540.987 44.572C540.387 44.212 539.679 44.032 538.863 44.032C537.879 44.032 537.039 44.248 536.343 44.68C535.647 45.112 535.119 45.736 534.759 46.552C534.399 47.368 534.207 48.376 534.183 49.576C534.183 50.776 534.363 51.796 534.723 52.636C535.083 53.452 535.611 54.076 536.307 54.508C537.027 54.94 537.891 55.156 538.899 55.156C539.955 55.156 540.879 54.94 541.671 54.508C542.463 54.076 543.123 53.416 543.651 52.528L546.999 53.896C546.135 55.384 545.019 56.5 543.651 57.244C542.283 57.988 540.639 58.36 538.719 58.36Z" fill="#FFF3C2"/>
<path d="M172.25 87.25C172.25 88.6 172.55 89.7917 173.15 90.825C173.767 91.8583 174.567 92.6667 175.55 93.25C176.533 93.8333 177.6 94.125 178.75 94.125C179.583 94.125 180.342 94.0167 181.025 93.8C181.725 93.5833 182.358 93.2833 182.925 92.9C183.492 92.5 183.975 92.0417 184.375 91.525V94.325C183.642 94.975 182.842 95.4583 181.975 95.775C181.108 96.0917 180.033 96.25 178.75 96.25C177.533 96.25 176.392 96.0333 175.325 95.6C174.275 95.15 173.35 94.525 172.55 93.725C171.75 92.9083 171.125 91.95 170.675 90.85C170.225 89.75 170 88.55 170 87.25C170 85.95 170.225 84.75 170.675 83.65C171.125 82.55 171.75 81.6 172.55 80.8C173.35 79.9833 174.275 79.3583 175.325 78.925C176.392 78.475 177.533 78.25 178.75 78.25C180.033 78.25 181.108 78.4083 181.975 78.725C182.842 79.0417 183.642 79.525 184.375 80.175V82.975C183.975 82.4583 183.492 82.0083 182.925 81.625C182.358 81.225 181.725 80.9167 181.025 80.7C180.342 80.4833 179.583 80.375 178.75 80.375C177.6 80.375 176.533 80.6667 175.55 81.25C174.567 81.8333 173.767 82.6417 173.15 83.675C172.55 84.6917 172.25 85.8833 172.25 87.25ZM189.989 76.5V96H187.989V76.5H189.989ZM195.364 89C195.364 88.05 195.156 87.3333 194.739 86.85C194.339 86.3667 193.731 86.125 192.914 86.125C192.331 86.125 191.814 86.25 191.364 86.5C190.931 86.75 190.589 87.0917 190.339 87.525C190.106 87.9583 189.989 88.45 189.989 89H189.339C189.339 88.0833 189.514 87.275 189.864 86.575C190.214 85.8583 190.689 85.2917 191.289 84.875C191.906 84.4583 192.614 84.25 193.414 84.25C194.214 84.25 194.906 84.4167 195.489 84.75C196.089 85.0833 196.548 85.5833 196.864 86.25C197.198 86.9167 197.364 87.75 197.364 88.75V96H195.364V89ZM200.124 90.25C200.124 89.0833 200.382 88.05 200.899 87.15C201.432 86.25 202.149 85.5417 203.049 85.025C203.949 84.5083 204.957 84.25 206.074 84.25C207.207 84.25 208.216 84.5083 209.099 85.025C209.999 85.5417 210.707 86.25 211.224 87.15C211.757 88.05 212.024 89.0833 212.024 90.25C212.024 91.4 211.757 92.4333 211.224 93.35C210.707 94.25 209.999 94.9583 209.099 95.475C208.216 95.9917 207.207 96.25 206.074 96.25C204.957 96.25 203.949 95.9917 203.049 95.475C202.149 94.9583 201.432 94.25 200.899 93.35C200.382 92.4333 200.124 91.4 200.124 90.25ZM202.149 90.25C202.149 91.05 202.316 91.7583 202.649 92.375C202.999 92.9917 203.466 93.4833 204.049 93.85C204.649 94.2 205.324 94.375 206.074 94.375C206.824 94.375 207.491 94.2 208.074 93.85C208.674 93.4833 209.141 92.9917 209.474 92.375C209.824 91.7583 209.999 91.05 209.999 90.25C209.999 89.45 209.824 88.7417 209.474 88.125C209.141 87.4917 208.674 87 208.074 86.65C207.491 86.3 206.824 86.125 206.074 86.125C205.324 86.125 204.649 86.3 204.049 86.65C203.466 87 202.999 87.4917 202.649 88.125C202.316 88.7417 202.149 89.45 202.149 90.25ZM213.771 90.25C213.771 89.0833 214.03 88.05 214.546 87.15C215.08 86.25 215.796 85.5417 216.696 85.025C217.596 84.5083 218.605 84.25 219.721 84.25C220.855 84.25 221.863 84.5083 222.746 85.025C223.646 85.5417 224.355 86.25 224.871 87.15C225.405 88.05 225.671 89.0833 225.671 90.25C225.671 91.4 225.405 92.4333 224.871 93.35C224.355 94.25 223.646 94.9583 222.746 95.475C221.863 95.9917 220.855 96.25 219.721 96.25C218.605 96.25 217.596 95.9917 216.696 95.475C215.796 94.9583 215.08 94.25 214.546 93.35C214.03 92.4333 213.771 91.4 213.771 90.25ZM215.796 90.25C215.796 91.05 215.963 91.7583 216.296 92.375C216.646 92.9917 217.113 93.4833 217.696 93.85C218.296 94.2 218.971 94.375 219.721 94.375C220.471 94.375 221.138 94.2 221.721 93.85C222.321 93.4833 222.788 92.9917 223.121 92.375C223.471 91.7583 223.646 91.05 223.646 90.25C223.646 89.45 223.471 88.7417 223.121 88.125C222.788 87.4917 222.321 87 221.721 86.65C221.138 86.3 220.471 86.125 219.721 86.125C218.971 86.125 218.296 86.3 217.696 86.65C217.113 87 216.646 87.4917 216.296 88.125C215.963 88.7417 215.796 89.45 215.796 90.25ZM228.894 92.475C229.127 92.825 229.394 93.15 229.694 93.45C229.994 93.75 230.336 93.9917 230.719 94.175C231.119 94.3417 231.552 94.425 232.019 94.425C232.586 94.425 233.027 94.3 233.344 94.05C233.677 93.7833 233.844 93.425 233.844 92.975C233.844 92.575 233.711 92.2417 233.444 91.975C233.194 91.6917 232.869 91.4583 232.469 91.275C232.069 91.075 231.644 90.8917 231.194 90.725C230.694 90.525 230.186 90.2917 229.669 90.025C229.169 89.7417 228.744 89.3833 228.394 88.95C228.061 88.5 227.894 87.9417 227.894 87.275C227.894 86.5917 228.069 86.025 228.419 85.575C228.786 85.125 229.252 84.7917 229.819 84.575C230.402 84.3583 231.002 84.25 231.619 84.25C232.236 84.25 232.811 84.35 233.344 84.55C233.894 84.75 234.377 85.0167 234.794 85.35C235.211 85.6833 235.536 86.0667 235.769 86.5L234.169 87.525C233.852 87.0917 233.452 86.7333 232.969 86.45C232.502 86.1667 231.969 86.025 231.369 86.025C230.952 86.025 230.594 86.1167 230.294 86.3C229.994 86.4833 229.844 86.7667 229.844 87.15C229.844 87.45 229.961 87.7167 230.194 87.95C230.427 88.1833 230.727 88.3917 231.094 88.575C231.461 88.7583 231.844 88.9333 232.244 89.1C232.911 89.3667 233.519 89.6583 234.069 89.975C234.619 90.275 235.052 90.6417 235.369 91.075C235.702 91.5083 235.869 92.0667 235.869 92.75C235.869 93.75 235.502 94.5833 234.769 95.25C234.052 95.9167 233.102 96.25 231.919 96.25C231.152 96.25 230.461 96.1167 229.844 95.85C229.227 95.5667 228.702 95.2083 228.269 94.775C227.852 94.3417 227.536 93.9 227.319 93.45L228.894 92.475ZM242.952 96.25C241.885 96.25 240.935 96 240.102 95.5C239.285 94.9833 238.644 94.275 238.177 93.375C237.727 92.475 237.502 91.4333 237.502 90.25C237.502 89.05 237.735 88 238.202 87.1C238.685 86.2 239.352 85.5 240.202 85C241.069 84.5 242.069 84.25 243.202 84.25C244.335 84.25 245.302 84.4917 246.102 84.975C246.919 85.4417 247.544 86.1167 247.977 87C248.41 87.8833 248.627 88.9333 248.627 90.15C248.627 90.2667 248.619 90.3917 248.602 90.525C248.602 90.6417 248.602 90.7167 248.602 90.75H238.777V89.05H247.027L246.227 90.2C246.277 90.1167 246.327 89.9917 246.377 89.825C246.427 89.6417 246.452 89.4917 246.452 89.375C246.452 88.6917 246.31 88.1 246.027 87.6C245.76 87.1 245.385 86.7083 244.902 86.425C244.419 86.1417 243.852 86 243.202 86C242.435 86 241.777 86.1667 241.227 86.5C240.694 86.8167 240.277 87.2833 239.977 87.9C239.694 88.5 239.544 89.2417 239.527 90.125C239.527 91.025 239.669 91.7917 239.952 92.425C240.235 93.0583 240.652 93.5417 241.202 93.875C241.752 94.2083 242.419 94.375 243.202 94.375C243.985 94.375 244.677 94.2083 245.277 93.875C245.877 93.525 246.385 93 246.802 92.3L248.427 93.325C247.827 94.2917 247.069 95.025 246.152 95.525C245.252 96.0083 244.185 96.25 242.952 96.25ZM257.113 84.5H259.363L262.238 91.975L265.363 83.625L268.713 92.025L271.613 84.5H273.863L268.863 96.875L265.388 88.5L262.113 96.875L257.113 84.5ZM275.855 79.75C275.855 79.3667 275.989 79.0417 276.255 78.775C276.539 78.5083 276.864 78.375 277.23 78.375C277.614 78.375 277.939 78.5083 278.205 78.775C278.472 79.0417 278.605 79.3667 278.605 79.75C278.605 80.1167 278.472 80.4417 278.205 80.725C277.939 80.9917 277.614 81.125 277.23 81.125C276.864 81.125 276.539 80.9917 276.255 80.725C275.989 80.4417 275.855 80.1167 275.855 79.75ZM276.23 84.5H278.23V96H276.23V84.5ZM282.825 92.475C283.058 92.825 283.325 93.15 283.625 93.45C283.925 93.75 284.266 93.9917 284.65 94.175C285.05 94.3417 285.483 94.425 285.95 94.425C286.516 94.425 286.958 94.3 287.275 94.05C287.608 93.7833 287.775 93.425 287.775 92.975C287.775 92.575 287.641 92.2417 287.375 91.975C287.125 91.6917 286.8 91.4583 286.4 91.275C286 91.075 285.575 90.8917 285.125 90.725C284.625 90.525 284.116 90.2917 283.6 90.025C283.1 89.7417 282.675 89.3833 282.325 88.95C281.991 88.5 281.825 87.9417 281.825 87.275C281.825 86.5917 282 86.025 282.35 85.575C282.716 85.125 283.183 84.7917 283.75 84.575C284.333 84.3583 284.933 84.25 285.55 84.25C286.166 84.25 286.741 84.35 287.275 84.55C287.825 84.75 288.308 85.0167 288.725 85.35C289.141 85.6833 289.466 86.0667 289.7 86.5L288.1 87.525C287.783 87.0917 287.383 86.7333 286.9 86.45C286.433 86.1667 285.9 86.025 285.3 86.025C284.883 86.025 284.525 86.1167 284.225 86.3C283.925 86.4833 283.775 86.7667 283.775 87.15C283.775 87.45 283.891 87.7167 284.125 87.95C284.358 88.1833 284.658 88.3917 285.025 88.575C285.391 88.7583 285.775 88.9333 286.175 89.1C286.841 89.3667 287.45 89.6583 288 89.975C288.55 90.275 288.983 90.6417 289.3 91.075C289.633 91.5083 289.8 92.0667 289.8 92.75C289.8 93.75 289.433 94.5833 288.7 95.25C287.983 95.9167 287.033 96.25 285.85 96.25C285.083 96.25 284.391 96.1167 283.775 95.85C283.158 95.5667 282.633 95.2083 282.2 94.775C281.783 94.3417 281.466 93.9 281.25 93.45L282.825 92.475ZM296.883 96.25C295.816 96.25 294.866 96 294.033 95.5C293.216 94.9833 292.574 94.275 292.108 93.375C291.658 92.475 291.433 91.4333 291.433 90.25C291.433 89.05 291.666 88 292.133 87.1C292.616 86.2 293.283 85.5 294.133 85C294.999 84.5 295.999 84.25 297.133 84.25C298.266 84.25 299.233 84.4917 300.033 84.975C300.849 85.4417 301.474 86.1167 301.908 87C302.341 87.8833 302.558 88.9333 302.558 90.15C302.558 90.2667 302.549 90.3917 302.533 90.525C302.533 90.6417 302.533 90.7167 302.533 90.75H292.708V89.05H300.958L300.158 90.2C300.208 90.1167 300.258 89.9917 300.308 89.825C300.358 89.6417 300.383 89.4917 300.383 89.375C300.383 88.6917 300.241 88.1 299.958 87.6C299.691 87.1 299.316 86.7083 298.833 86.425C298.349 86.1417 297.783 86 297.133 86C296.366 86 295.708 86.1667 295.158 86.5C294.624 86.8167 294.208 87.2833 293.908 87.9C293.624 88.5 293.474 89.2417 293.458 90.125C293.458 91.025 293.599 91.7917 293.883 92.425C294.166 93.0583 294.583 93.5417 295.133 93.875C295.683 94.2083 296.349 94.375 297.133 94.375C297.916 94.375 298.608 94.2083 299.208 93.875C299.808 93.525 300.316 93 300.733 92.3L302.358 93.325C301.758 94.2917 300.999 95.025 300.083 95.525C299.183 96.0083 298.116 96.25 296.883 96.25ZM305.299 76.5H307.299V96H305.299V76.5ZM320.186 84.5L312.686 101.5H310.436L313.586 94.375L309.186 84.5H311.561L315.211 93.5L314.386 93.4L317.936 84.5H320.186ZM322.696 78.5H325.196L324.696 91H323.196L322.696 78.5ZM322.571 95C322.571 94.6167 322.705 94.2917 322.971 94.025C323.255 93.7583 323.58 93.625 323.946 93.625C324.33 93.625 324.655 93.7583 324.921 94.025C325.188 94.2917 325.321 94.6167 325.321 95C325.321 95.3667 325.188 95.6917 324.921 95.975C324.655 96.2417 324.33 96.375 323.946 96.375C323.58 96.375 323.255 96.2417 322.971 95.975C322.705 95.6917 322.571 95.3667 322.571 95Z" fill="white"/>
<path d="M61.89 124.6C96.0709 124.6 123.78 96.8912 123.78 62.7103C123.78 28.5294 96.0709 0.820312 61.89 0.820312C27.7091 0.820312 0 28.5294 0 62.7103C0 96.8912 27.7091 124.6 61.89 124.6Z" fill="white"/>
<path d="M67.469 34.0066L68.709 34.1966C70.369 34.4966 70.909 35.1366 70.909 36.8066V79.8066H78.239C78.8651 79.7317 79.4964 79.8961 80.0064 80.267C80.5163 80.6379 80.8673 81.1878 80.989 81.8066C81.6387 84.0233 81.6387 86.3799 80.989 88.5966C80.8632 89.1924 80.5175 89.7188 80.0208 90.071C79.524 90.4231 78.9128 90.5751 78.309 90.4966H49.309C48.6825 90.5739 48.05 90.4104 47.5394 90.0391C47.0289 89.6678 46.6785 89.1164 46.559 88.4966C46.3273 87.7239 46.2028 86.9231 46.189 86.1166C46.1563 84.7973 46.2501 83.478 46.469 82.1766C46.5057 81.8236 46.6134 81.4816 46.7857 81.1714C46.9581 80.8611 47.1914 80.589 47.4717 80.3713C47.752 80.1536 48.0734 79.9949 48.4167 79.9047C48.7599 79.8146 49.1179 79.7948 49.469 79.8466C52.019 79.9066 54.569 79.8466 57.129 79.8466H57.759V68.7266C57.7498 68.4523 57.787 68.1785 57.869 67.9166C57.947 67.6851 58.107 67.4902 58.3189 67.3686C58.5307 67.247 58.7798 67.2072 59.019 67.2566C59.2576 67.2847 59.4796 67.393 59.6485 67.5638C59.8175 67.7346 59.9234 67.9577 59.949 68.1966C59.959 68.3631 59.959 68.5301 59.949 68.6966V80.5666C59.949 81.6766 59.619 82.0166 58.509 82.0166C55.439 82.0166 52.369 82.0166 49.309 82.0166C49.2194 82.001 49.1276 82.0039 49.0391 82.0249C48.9506 82.046 48.8674 82.0848 48.7944 82.139C48.7214 82.1933 48.6602 82.2619 48.6146 82.3405C48.569 82.4192 48.5399 82.5063 48.529 82.5966C48.149 84.3024 48.149 86.0709 48.529 87.7766C48.619 88.1566 48.839 88.2866 49.239 88.2866C58.8656 88.2866 68.4923 88.2866 78.119 88.2866C78.559 88.2866 78.769 88.1266 78.849 87.7366C79.1939 86.0574 79.1939 84.3257 78.849 82.6466C78.759 82.1866 78.509 82.0066 77.999 82.0166C75.349 82.0166 72.709 82.0166 70.059 82.0166C68.929 82.0166 68.589 81.6666 68.589 80.5266V36.4266C68.1986 36.3576 67.8046 36.3109 67.409 36.2866C65.409 36.2866 63.489 36.2866 61.519 36.2866C61.1622 36.3053 60.8168 36.4192 60.519 36.6166C56.829 38.9966 53.159 41.4066 49.449 43.7466C49.0068 43.9683 48.641 44.3172 48.3987 44.7485C48.1563 45.1797 48.0485 45.6736 48.089 46.1666C48.169 47.3166 48.179 48.4766 48.219 49.6266C48.2539 49.7963 48.3006 49.9634 48.359 50.1266C48.899 49.8766 49.409 49.6866 49.889 49.4266C52.5557 47.9532 55.239 46.4766 57.939 44.9966C59.039 44.3866 59.829 44.8466 59.829 46.0966C59.829 50.0966 59.829 54.1199 59.829 58.1666C59.829 58.9766 59.449 59.4366 58.829 59.4566C58.6726 59.4675 58.5156 59.4441 58.3692 59.3882C58.2227 59.3324 58.0901 59.2453 57.9806 59.133C57.8712 59.0207 57.7875 58.8859 57.7355 58.738C57.6834 58.5901 57.6641 58.4327 57.679 58.2766C57.679 57.2766 57.679 56.2166 57.679 55.1866V47.7066L57.059 48.0266C55.059 49.1466 53.059 50.2766 50.979 51.3666C50.3849 51.6919 49.7581 51.9534 49.109 52.1466C48.8072 52.2688 48.4813 52.3198 48.1567 52.2957C47.832 52.2716 47.5172 52.173 47.2368 52.0076C46.9563 51.8423 46.7177 51.6145 46.5395 51.3421C46.3613 51.0697 46.2482 50.7598 46.209 50.4366C46.034 49.4461 45.9437 48.4424 45.939 47.4366C45.9224 46.558 45.9659 45.6793 46.069 44.8066C46.1204 44.328 46.2805 43.8675 46.537 43.4603C46.7935 43.053 47.1396 42.7097 47.549 42.4566L55.619 37.1966C56.809 36.4266 58.009 35.6766 59.179 34.8766C59.8602 34.4072 60.654 34.1277 61.479 34.0666C61.6042 34.0449 61.7278 34.0148 61.849 33.9766L67.469 34.0066Z" fill="#5C036B"/>
<path d="M59.9898 63.3591C59.9938 63.5017 59.9695 63.6438 59.9183 63.777C59.867 63.9102 59.7899 64.0319 59.6913 64.1351C59.5928 64.2383 59.4747 64.321 59.344 64.3784C59.2133 64.4357 59.0725 64.4665 58.9298 64.4691C58.7867 64.4691 58.645 64.4409 58.5127 64.3861C58.3805 64.3313 58.2603 64.2511 58.1591 64.1498C58.0579 64.0486 57.9776 63.9284 57.9228 63.7962C57.868 63.664 57.8398 63.5222 57.8398 63.3791C57.8398 63.2359 57.868 63.0942 57.9228 62.962C57.9776 62.8297 58.0579 62.7096 58.1591 62.6083C58.2603 62.5071 58.3805 62.4268 58.5127 62.3721C58.645 62.3173 58.7867 62.2891 58.9298 62.2891C59.2119 62.2917 59.4815 62.4056 59.68 62.606C59.8785 62.8064 59.9899 63.077 59.9898 63.3591Z" fill="#5C036B"/>
</svg>
