<svg width="544" height="124" viewBox="0 0 544 124" fill="none" xmlns="http://www.w3.org/2000/svg">
<path d="M171.808 19.8H176.056V45H171.808V19.8ZM174.328 23.544V19.8H179.404C181.228 19.8 182.812 20.124 184.156 20.772C185.524 21.396 186.58 22.296 187.324 23.472C188.068 24.624 188.44 26.004 188.44 27.612C188.44 29.22 188.068 30.612 187.324 31.788C186.58 32.964 185.524 33.876 184.156 34.524C182.812 35.148 181.228 35.46 179.404 35.46H174.328V31.716H179.404C180.868 31.716 182.044 31.368 182.932 30.672C183.82 29.976 184.264 28.956 184.264 27.612C184.264 26.268 183.82 25.26 182.932 24.588C182.044 23.892 180.868 23.544 179.404 23.544H174.328ZM193.655 39.852C193.655 40.404 193.787 40.884 194.051 41.292C194.315 41.676 194.675 41.964 195.131 42.156C195.611 42.348 196.151 42.444 196.751 42.444C197.519 42.444 198.215 42.288 198.839 41.976C199.487 41.664 200.003 41.208 200.387 40.608C200.795 39.984 200.999 39.264 200.999 38.448L201.575 40.608C201.575 41.664 201.263 42.552 200.639 43.272C200.039 43.968 199.271 44.496 198.335 44.856C197.423 45.192 196.487 45.36 195.527 45.36C194.495 45.36 193.535 45.156 192.647 44.748C191.759 44.34 191.051 43.74 190.523 42.948C189.995 42.156 189.731 41.196 189.731 40.068C189.731 38.46 190.295 37.188 191.423 36.252C192.551 35.292 194.147 34.812 196.211 34.812C197.315 34.812 198.263 34.932 199.055 35.172C199.871 35.412 200.543 35.7 201.071 36.036C201.599 36.348 201.971 36.636 202.187 36.9V38.88C201.443 38.352 200.651 37.968 199.811 37.728C198.971 37.488 198.083 37.368 197.147 37.368C196.331 37.368 195.671 37.476 195.167 37.692C194.663 37.884 194.279 38.16 194.015 38.52C193.775 38.88 193.655 39.324 193.655 39.852ZM192.431 32.76L190.847 30.024C191.591 29.568 192.551 29.124 193.727 28.692C194.927 28.26 196.295 28.044 197.831 28.044C199.199 28.044 200.399 28.248 201.431 28.656C202.487 29.064 203.315 29.652 203.915 30.42C204.515 31.164 204.815 32.088 204.815 33.192V45H200.999V33.948C200.999 33.42 200.903 32.988 200.711 32.652C200.543 32.316 200.303 32.04 199.991 31.824C199.679 31.608 199.307 31.452 198.875 31.356C198.443 31.26 197.975 31.212 197.471 31.212C196.703 31.212 195.971 31.308 195.275 31.5C194.603 31.668 194.015 31.884 193.511 32.148C193.031 32.388 192.671 32.592 192.431 32.76ZM210.103 39.564C210.631 40.14 211.159 40.644 211.687 41.076C212.239 41.484 212.791 41.796 213.343 42.012C213.895 42.204 214.447 42.3 214.999 42.3C215.695 42.3 216.235 42.144 216.619 41.832C217.027 41.52 217.231 41.088 217.231 40.536C217.231 40.056 217.075 39.648 216.763 39.312C216.451 38.952 216.019 38.652 215.467 38.412C214.915 38.148 214.267 37.884 213.523 37.62C212.779 37.332 212.035 36.996 211.291 36.612C210.571 36.204 209.971 35.676 209.491 35.028C209.035 34.38 208.807 33.564 208.807 32.58C208.807 31.572 209.059 30.732 209.563 30.06C210.091 29.388 210.787 28.896 211.651 28.584C212.539 28.248 213.487 28.08 214.495 28.08C215.407 28.08 216.259 28.212 217.051 28.476C217.867 28.74 218.599 29.088 219.247 29.52C219.895 29.952 220.447 30.444 220.903 30.996L218.743 33.3C218.191 32.652 217.531 32.124 216.763 31.716C215.995 31.308 215.203 31.104 214.387 31.104C213.835 31.104 213.379 31.224 213.019 31.464C212.659 31.704 212.479 32.052 212.479 32.508C212.479 32.892 212.635 33.24 212.947 33.552C213.283 33.84 213.715 34.104 214.243 34.344C214.795 34.584 215.407 34.836 216.079 35.1C216.991 35.46 217.831 35.856 218.599 36.288C219.367 36.72 219.979 37.248 220.435 37.872C220.915 38.496 221.155 39.312 221.155 40.32C221.155 41.88 220.615 43.14 219.535 44.1C218.479 45.036 217.039 45.504 215.215 45.504C214.087 45.504 213.043 45.336 212.083 45C211.147 44.64 210.319 44.184 209.599 43.632C208.903 43.056 208.315 42.456 207.835 41.832L210.103 39.564ZM225.361 39.564C225.889 40.14 226.417 40.644 226.945 41.076C227.497 41.484 228.049 41.796 228.601 42.012C229.153 42.204 229.705 42.3 230.257 42.3C230.953 42.3 231.493 42.144 231.877 41.832C232.285 41.52 232.489 41.088 232.489 40.536C232.489 40.056 232.333 39.648 232.021 39.312C231.709 38.952 231.277 38.652 230.725 38.412C230.173 38.148 229.525 37.884 228.781 37.62C228.037 37.332 227.293 36.996 226.549 36.612C225.829 36.204 225.229 35.676 224.749 35.028C224.293 34.38 224.065 33.564 224.065 32.58C224.065 31.572 224.317 30.732 224.821 30.06C225.349 29.388 226.045 28.896 226.909 28.584C227.797 28.248 228.745 28.08 229.753 28.08C230.665 28.08 231.517 28.212 232.309 28.476C233.125 28.74 233.857 29.088 234.505 29.52C235.153 29.952 235.705 30.444 236.161 30.996L234.001 33.3C233.449 32.652 232.789 32.124 232.021 31.716C231.253 31.308 230.461 31.104 229.645 31.104C229.093 31.104 228.637 31.224 228.277 31.464C227.917 31.704 227.737 32.052 227.737 32.508C227.737 32.892 227.893 33.24 228.205 33.552C228.541 33.84 228.973 34.104 229.501 34.344C230.053 34.584 230.665 34.836 231.337 35.1C232.249 35.46 233.089 35.856 233.857 36.288C234.625 36.72 235.237 37.248 235.693 37.872C236.173 38.496 236.413 39.312 236.413 40.32C236.413 41.88 235.873 43.14 234.793 44.1C233.737 45.036 232.297 45.504 230.473 45.504C229.345 45.504 228.301 45.336 227.341 45C226.405 44.64 225.577 44.184 224.857 43.632C224.161 43.056 223.573 42.456 223.093 41.832L225.361 39.564ZM250.98 19.8H255.264V45H250.98V19.8ZM258.266 28.44H267.662V31.86H258.266V28.44ZM261.038 22.68H264.89V45H261.038V22.68ZM284.52 32.4C284.52 34.128 284.88 35.676 285.6 37.044C286.344 38.388 287.364 39.444 288.66 40.212C289.956 40.98 291.432 41.364 293.088 41.364C294.768 41.364 296.244 40.98 297.516 40.212C298.812 39.444 299.82 38.388 300.54 37.044C301.284 35.676 301.656 34.128 301.656 32.4C301.656 30.672 301.296 29.136 300.576 27.792C299.856 26.424 298.848 25.356 297.552 24.588C296.28 23.82 294.792 23.436 293.088 23.436C291.432 23.436 289.956 23.82 288.66 24.588C287.364 25.356 286.344 26.424 285.6 27.792C284.88 29.136 284.52 30.672 284.52 32.4ZM280.02 32.4C280.02 30.504 280.344 28.764 280.992 27.18C281.64 25.596 282.552 24.228 283.728 23.076C284.928 21.9 286.32 20.988 287.904 20.34C289.512 19.692 291.24 19.368 293.088 19.368C294.984 19.368 296.724 19.692 298.308 20.34C299.892 20.988 301.272 21.9 302.448 23.076C303.648 24.228 304.572 25.596 305.22 27.18C305.868 28.764 306.192 30.504 306.192 32.4C306.192 34.272 305.868 36.012 305.22 37.62C304.572 39.228 303.66 40.62 302.484 41.796C301.308 42.972 299.916 43.896 298.308 44.568C296.724 45.216 294.984 45.54 293.088 45.54C291.216 45.54 289.476 45.216 287.868 44.568C286.26 43.896 284.868 42.972 283.692 41.796C282.54 40.62 281.64 39.228 280.992 37.62C280.344 36.012 280.02 34.272 280.02 32.4ZM320.656 34.92C320.656 33.696 320.404 32.772 319.9 32.148C319.396 31.524 318.616 31.212 317.56 31.212C316.84 31.212 316.204 31.368 315.652 31.68C315.1 31.968 314.668 32.4 314.356 32.976C314.044 33.528 313.888 34.176 313.888 34.92V45H310V28.44H313.888V30.996C314.416 30.012 315.088 29.28 315.904 28.8C316.744 28.32 317.74 28.08 318.892 28.08C320.764 28.08 322.192 28.656 323.176 29.808C324.16 30.936 324.652 32.496 324.652 34.488V45H320.656V34.92Z" fill="#FFF3C2"/>
<path d="M171 65.5H173.125V81H180V83H171V65.5ZM186.58 83.25C185.513 83.25 184.563 83 183.73 82.5C182.913 81.9833 182.272 81.275 181.805 80.375C181.355 79.475 181.13 78.4333 181.13 77.25C181.13 76.05 181.363 75 181.83 74.1C182.313 73.2 182.98 72.5 183.83 72C184.697 71.5 185.697 71.25 186.83 71.25C187.963 71.25 188.93 71.4917 189.73 71.975C190.547 72.4417 191.172 73.1167 191.605 74C192.038 74.8833 192.255 75.9333 192.255 77.15C192.255 77.2667 192.247 77.3917 192.23 77.525C192.23 77.6417 192.23 77.7167 192.23 77.75H182.405V76.05H190.655L189.855 77.2C189.905 77.1167 189.955 76.9917 190.005 76.825C190.055 76.6417 190.08 76.4917 190.08 76.375C190.08 75.6917 189.938 75.1 189.655 74.6C189.388 74.1 189.013 73.7083 188.53 73.425C188.047 73.1417 187.48 73 186.83 73C186.063 73 185.405 73.1667 184.855 73.5C184.322 73.8167 183.905 74.2833 183.605 74.9C183.322 75.5 183.172 76.2417 183.155 77.125C183.155 78.025 183.297 78.7917 183.58 79.425C183.863 80.0583 184.28 80.5417 184.83 80.875C185.38 81.2083 186.047 81.375 186.83 81.375C187.613 81.375 188.305 81.2083 188.905 80.875C189.505 80.525 190.013 80 190.43 79.3L192.055 80.325C191.455 81.2917 190.697 82.025 189.78 82.525C188.88 83.0083 187.813 83.25 186.58 83.25ZM193.246 71.5H198.996V73.375H193.246V71.5ZM195.121 67.5H197.121V83H195.121V67.5ZM217.622 71.5L210.122 88.5H207.872L211.022 81.375L206.622 71.5H208.997L212.647 80.5L211.822 80.4L215.372 71.5H217.622ZM218.142 77.25C218.142 76.0833 218.4 75.05 218.917 74.15C219.45 73.25 220.167 72.5417 221.067 72.025C221.967 71.5083 222.975 71.25 224.092 71.25C225.225 71.25 226.233 71.5083 227.117 72.025C228.017 72.5417 228.725 73.25 229.242 74.15C229.775 75.05 230.042 76.0833 230.042 77.25C230.042 78.4 229.775 79.4333 229.242 80.35C228.725 81.25 228.017 81.9583 227.117 82.475C226.233 82.9917 225.225 83.25 224.092 83.25C222.975 83.25 221.967 82.9917 221.067 82.475C220.167 81.9583 219.45 81.25 218.917 80.35C218.4 79.4333 218.142 78.4 218.142 77.25ZM220.167 77.25C220.167 78.05 220.333 78.7583 220.667 79.375C221.017 79.9917 221.483 80.4833 222.067 80.85C222.667 81.2 223.342 81.375 224.092 81.375C224.842 81.375 225.508 81.2 226.092 80.85C226.692 80.4833 227.158 79.9917 227.492 79.375C227.842 78.7583 228.017 78.05 228.017 77.25C228.017 76.45 227.842 75.7417 227.492 75.125C227.158 74.4917 226.692 74 226.092 73.65C225.508 73.3 224.842 73.125 224.092 73.125C223.342 73.125 222.667 73.3 222.067 73.65C221.483 74 221.017 74.4917 220.667 75.125C220.333 75.7417 220.167 76.45 220.167 77.25ZM234.789 78.5C234.789 79.4167 234.997 80.125 235.414 80.625C235.831 81.125 236.439 81.375 237.239 81.375C237.822 81.375 238.331 81.2583 238.764 81.025C239.214 80.775 239.556 80.4333 239.789 80C240.039 79.5667 240.164 79.0667 240.164 78.5V71.5H242.164V83H240.164V81.2C239.781 81.8833 239.306 82.4 238.739 82.75C238.172 83.0833 237.506 83.25 236.739 83.25C235.539 83.25 234.581 82.8417 233.864 82.025C233.147 81.2083 232.789 80.1167 232.789 78.75V71.5H234.789V78.5ZM247.924 71.5V83H245.924V71.5H247.924ZM251.399 73.7C251.132 73.5 250.89 73.3583 250.674 73.275C250.457 73.175 250.182 73.125 249.849 73.125C249.349 73.125 248.957 73.25 248.674 73.5C248.39 73.75 248.19 74.0917 248.074 74.525C247.974 74.9583 247.924 75.45 247.924 76H247.024C247.024 75.0833 247.182 74.275 247.499 73.575C247.832 72.8583 248.257 72.2917 248.774 71.875C249.29 71.4583 249.815 71.25 250.349 71.25C250.765 71.25 251.149 71.3083 251.499 71.425C251.865 71.525 252.199 71.7333 252.499 72.05L251.399 73.7ZM261.113 71.5H266.863V73.375H261.113V71.5ZM266.663 65.9C266.497 65.6167 266.297 65.4417 266.063 65.375C265.847 65.2917 265.638 65.25 265.438 65.25C265.188 65.25 264.972 65.325 264.788 65.475C264.622 65.6083 264.488 65.8417 264.388 66.175C264.288 66.5083 264.238 66.95 264.238 67.5V83H262.238V67.25C262.238 66.3333 262.372 65.5833 262.638 65C262.905 64.4167 263.28 63.9833 263.763 63.7C264.263 63.4 264.863 63.25 265.563 63.25C265.93 63.25 266.255 63.3 266.538 63.4C266.822 63.5 267.063 63.625 267.263 63.775C267.48 63.925 267.647 64.0833 267.763 64.25L266.663 65.9ZM271.142 71.5V83H269.142V71.5H271.142ZM274.617 73.7C274.35 73.5 274.108 73.3583 273.892 73.275C273.675 73.175 273.4 73.125 273.067 73.125C272.567 73.125 272.175 73.25 271.892 73.5C271.608 73.75 271.408 74.0917 271.292 74.525C271.192 74.9583 271.142 75.45 271.142 76H270.242C270.242 75.0833 270.4 74.275 270.717 73.575C271.05 72.8583 271.475 72.2917 271.992 71.875C272.508 71.4583 273.033 71.25 273.567 71.25C273.983 71.25 274.367 71.3083 274.717 71.425C275.083 71.525 275.417 71.7333 275.717 72.05L274.617 73.7ZM277.711 66.75C277.711 66.3667 277.844 66.0417 278.111 65.775C278.394 65.5083 278.719 65.375 279.086 65.375C279.469 65.375 279.794 65.5083 280.061 65.775C280.328 66.0417 280.461 66.3667 280.461 66.75C280.461 67.1167 280.328 67.4417 280.061 67.725C279.794 67.9917 279.469 68.125 279.086 68.125C278.719 68.125 278.394 67.9917 278.111 67.725C277.844 67.4417 277.711 67.1167 277.711 66.75ZM278.086 71.5H280.086V83H278.086V71.5ZM288.655 83.25C287.588 83.25 286.638 83 285.805 82.5C284.988 81.9833 284.347 81.275 283.88 80.375C283.43 79.475 283.205 78.4333 283.205 77.25C283.205 76.05 283.438 75 283.905 74.1C284.388 73.2 285.055 72.5 285.905 72C286.772 71.5 287.772 71.25 288.905 71.25C290.038 71.25 291.005 71.4917 291.805 71.975C292.622 72.4417 293.247 73.1167 293.68 74C294.113 74.8833 294.33 75.9333 294.33 77.15C294.33 77.2667 294.322 77.3917 294.305 77.525C294.305 77.6417 294.305 77.7167 294.305 77.75H284.48V76.05H292.73L291.93 77.2C291.98 77.1167 292.03 76.9917 292.08 76.825C292.13 76.6417 292.155 76.4917 292.155 76.375C292.155 75.6917 292.013 75.1 291.73 74.6C291.463 74.1 291.088 73.7083 290.605 73.425C290.122 73.1417 289.555 73 288.905 73C288.138 73 287.48 73.1667 286.93 73.5C286.397 73.8167 285.98 74.2833 285.68 74.9C285.397 75.5 285.247 76.2417 285.23 77.125C285.23 78.025 285.372 78.7917 285.655 79.425C285.938 80.0583 286.355 80.5417 286.905 80.875C287.455 81.2083 288.122 81.375 288.905 81.375C289.688 81.375 290.38 81.2083 290.98 80.875C291.58 80.525 292.088 80 292.505 79.3L294.13 80.325C293.53 81.2917 292.772 82.025 291.855 82.525C290.955 83.0083 289.888 83.25 288.655 83.25ZM304.446 76C304.446 75.05 304.238 74.3333 303.821 73.85C303.405 73.3667 302.796 73.125 301.996 73.125C301.413 73.125 300.896 73.25 300.446 73.5C300.013 73.7333 299.671 74.0667 299.421 74.5C299.188 74.9333 299.071 75.4333 299.071 76V83H297.071V71.5H299.071V73.3C299.455 72.6 299.93 72.0833 300.496 71.75C301.08 71.4167 301.746 71.25 302.496 71.25C303.713 71.25 304.671 71.6583 305.371 72.475C306.088 73.275 306.446 74.3667 306.446 75.75V83H304.446V76ZM318.831 63.5H320.831V83H318.831V63.5ZM309.206 77.25C309.206 76 309.464 74.9333 309.981 74.05C310.498 73.15 311.189 72.4583 312.056 71.975C312.923 71.4917 313.873 71.25 314.906 71.25C315.873 71.25 316.714 71.4917 317.431 71.975C318.148 72.4583 318.706 73.15 319.106 74.05C319.523 74.9333 319.731 76 319.731 77.25C319.731 78.4833 319.523 79.55 319.106 80.45C318.706 81.35 318.148 82.0417 317.431 82.525C316.714 83.0083 315.873 83.25 314.906 83.25C313.873 83.25 312.923 83.0083 312.056 82.525C311.189 82.0417 310.498 81.35 309.981 80.45C309.464 79.55 309.206 78.4833 309.206 77.25ZM311.231 77.25C311.231 78.1333 311.406 78.8833 311.756 79.5C312.123 80.1167 312.606 80.5833 313.206 80.9C313.806 81.2167 314.456 81.375 315.156 81.375C315.739 81.375 316.314 81.2167 316.881 80.9C317.448 80.5833 317.914 80.1167 318.281 79.5C318.648 78.8833 318.831 78.1333 318.831 77.25C318.831 76.3667 318.648 75.6167 318.281 75C317.914 74.3833 317.448 73.9167 316.881 73.6C316.314 73.2833 315.739 73.125 315.156 73.125C314.456 73.125 313.806 73.2833 313.206 73.6C312.606 73.9167 312.123 74.3833 311.756 75C311.406 75.6167 311.231 76.3667 311.231 77.25ZM324.939 79.475C325.172 79.825 325.439 80.15 325.739 80.45C326.039 80.75 326.381 80.9917 326.764 81.175C327.164 81.3417 327.597 81.425 328.064 81.425C328.631 81.425 329.072 81.3 329.389 81.05C329.722 80.7833 329.889 80.425 329.889 79.975C329.889 79.575 329.756 79.2417 329.489 78.975C329.239 78.6917 328.914 78.4583 328.514 78.275C328.114 78.075 327.689 77.8917 327.239 77.725C326.739 77.525 326.231 77.2917 325.714 77.025C325.214 76.7417 324.789 76.3833 324.439 75.95C324.106 75.5 323.939 74.9417 323.939 74.275C323.939 73.5917 324.114 73.025 324.464 72.575C324.831 72.125 325.297 71.7917 325.864 71.575C326.447 71.3583 327.047 71.25 327.664 71.25C328.281 71.25 328.856 71.35 329.389 71.55C329.939 71.75 330.422 72.0167 330.839 72.35C331.256 72.6833 331.581 73.0667 331.814 73.5L330.214 74.525C329.897 74.0917 329.497 73.7333 329.014 73.45C328.547 73.1667 328.014 73.025 327.414 73.025C326.997 73.025 326.639 73.1167 326.339 73.3C326.039 73.4833 325.889 73.7667 325.889 74.15C325.889 74.45 326.006 74.7167 326.239 74.95C326.472 75.1833 326.772 75.3917 327.139 75.575C327.506 75.7583 327.889 75.9333 328.289 76.1C328.956 76.3667 329.564 76.6583 330.114 76.975C330.664 77.275 331.097 77.6417 331.414 78.075C331.747 78.5083 331.914 79.0667 331.914 79.75C331.914 80.75 331.547 81.5833 330.814 82.25C330.097 82.9167 329.147 83.25 327.964 83.25C327.197 83.25 326.506 83.1167 325.889 82.85C325.272 82.5667 324.747 82.2083 324.314 81.775C323.897 81.3417 323.581 80.9 323.364 80.45L324.939 79.475ZM342.042 66.75C342.042 66.3667 342.175 66.0417 342.442 65.775C342.725 65.5083 343.05 65.375 343.417 65.375C343.8 65.375 344.125 65.5083 344.392 65.775C344.659 66.0417 344.792 66.3667 344.792 66.75C344.792 67.1167 344.659 67.4417 344.392 67.725C344.125 67.9917 343.8 68.125 343.417 68.125C343.05 68.125 342.725 67.9917 342.442 67.725C342.175 67.4417 342.042 67.1167 342.042 66.75ZM342.417 71.5H344.417V83H342.417V71.5ZM355.911 76C355.911 75.05 355.703 74.3333 355.286 73.85C354.869 73.3667 354.261 73.125 353.461 73.125C352.878 73.125 352.361 73.25 351.911 73.5C351.478 73.7333 351.136 74.0667 350.886 74.5C350.653 74.9333 350.536 75.4333 350.536 76V83H348.536V71.5H350.536V73.3C350.919 72.6 351.394 72.0833 351.961 71.75C352.544 71.4167 353.211 71.25 353.961 71.25C355.178 71.25 356.136 71.6583 356.836 72.475C357.553 73.275 357.911 74.3667 357.911 75.75V83H355.911V76ZM368.166 77.25C368.166 76.0833 368.424 75.05 368.941 74.15C369.474 73.25 370.191 72.5417 371.091 72.025C371.991 71.5083 372.999 71.25 374.116 71.25C375.249 71.25 376.258 71.5083 377.141 72.025C378.041 72.5417 378.749 73.25 379.266 74.15C379.799 75.05 380.066 76.0833 380.066 77.25C380.066 78.4 379.799 79.4333 379.266 80.35C378.749 81.25 378.041 81.9583 377.141 82.475C376.258 82.9917 375.249 83.25 374.116 83.25C372.999 83.25 371.991 82.9917 371.091 82.475C370.191 81.9583 369.474 81.25 368.941 80.35C368.424 79.4333 368.166 78.4 368.166 77.25ZM370.191 77.25C370.191 78.05 370.358 78.7583 370.691 79.375C371.041 79.9917 371.508 80.4833 372.091 80.85C372.691 81.2 373.366 81.375 374.116 81.375C374.866 81.375 375.533 81.2 376.116 80.85C376.716 80.4833 377.183 79.9917 377.516 79.375C377.866 78.7583 378.041 78.05 378.041 77.25C378.041 76.45 377.866 75.7417 377.516 75.125C377.183 74.4917 376.716 74 376.116 73.65C375.533 73.3 374.866 73.125 374.116 73.125C373.366 73.125 372.691 73.3 372.091 73.65C371.508 74 371.041 74.4917 370.691 75.125C370.358 75.7417 370.191 76.45 370.191 77.25ZM390.188 76C390.188 75.05 389.98 74.3333 389.563 73.85C389.147 73.3667 388.538 73.125 387.738 73.125C387.155 73.125 386.638 73.25 386.188 73.5C385.755 73.7333 385.413 74.0667 385.163 74.5C384.93 74.9333 384.813 75.4333 384.813 76V83H382.813V71.5H384.813V73.3C385.197 72.6 385.672 72.0833 386.238 71.75C386.822 71.4167 387.488 71.25 388.238 71.25C389.455 71.25 390.413 71.6583 391.113 72.475C391.83 73.275 392.188 74.3667 392.188 75.75V83H390.188V76ZM401.693 71.5H407.443V73.375H401.693V71.5ZM403.568 67.5H405.568V83H403.568V67.5ZM411.449 63.5V83H409.449V63.5H411.449ZM416.824 76C416.824 75.05 416.616 74.3333 416.199 73.85C415.799 73.3667 415.191 73.125 414.374 73.125C413.791 73.125 413.274 73.25 412.824 73.5C412.391 73.75 412.049 74.0917 411.799 74.525C411.566 74.9583 411.449 75.45 411.449 76H410.799C410.799 75.0833 410.974 74.275 411.324 73.575C411.674 72.8583 412.149 72.2917 412.749 71.875C413.366 71.4583 414.074 71.25 414.874 71.25C415.674 71.25 416.366 71.4167 416.949 71.75C417.549 72.0833 418.008 72.5833 418.324 73.25C418.658 73.9167 418.824 74.75 418.824 75.75V83H416.824V76ZM427.034 83.25C425.967 83.25 425.017 83 424.184 82.5C423.367 81.9833 422.726 81.275 422.259 80.375C421.809 79.475 421.584 78.4333 421.584 77.25C421.584 76.05 421.817 75 422.284 74.1C422.767 73.2 423.434 72.5 424.284 72C425.151 71.5 426.151 71.25 427.284 71.25C428.417 71.25 429.384 71.4917 430.184 71.975C431.001 72.4417 431.626 73.1167 432.059 74C432.492 74.8833 432.709 75.9333 432.709 77.15C432.709 77.2667 432.701 77.3917 432.684 77.525C432.684 77.6417 432.684 77.7167 432.684 77.75H422.859V76.05H431.109L430.309 77.2C430.359 77.1167 430.409 76.9917 430.459 76.825C430.509 76.6417 430.534 76.4917 430.534 76.375C430.534 75.6917 430.392 75.1 430.109 74.6C429.842 74.1 429.467 73.7083 428.984 73.425C428.501 73.1417 427.934 73 427.284 73C426.517 73 425.859 73.1667 425.309 73.5C424.776 73.8167 424.359 74.2833 424.059 74.9C423.776 75.5 423.626 76.2417 423.609 77.125C423.609 78.025 423.751 78.7917 424.034 79.425C424.317 80.0583 424.734 80.5417 425.284 80.875C425.834 81.2083 426.501 81.375 427.284 81.375C428.067 81.375 428.759 81.2083 429.359 80.875C429.959 80.525 430.467 80 430.884 79.3L432.509 80.325C431.909 81.2917 431.151 82.025 430.234 82.525C429.334 83.0083 428.267 83.25 427.034 83.25ZM443.845 77.25C443.845 78.05 444.012 78.7583 444.345 79.375C444.695 79.9917 445.162 80.4833 445.745 80.85C446.345 81.2 447.02 81.375 447.77 81.375C448.387 81.375 448.962 81.2833 449.495 81.1C450.045 80.9 450.52 80.6417 450.92 80.325C451.32 79.9917 451.604 79.6417 451.77 79.275V81.775C451.37 82.2417 450.795 82.6083 450.045 82.875C449.312 83.125 448.554 83.25 447.77 83.25C446.654 83.25 445.645 82.9917 444.745 82.475C443.845 81.9583 443.129 81.25 442.595 80.35C442.079 79.4333 441.82 78.4 441.82 77.25C441.82 76.0833 442.079 75.05 442.595 74.15C443.129 73.25 443.845 72.5417 444.745 72.025C445.645 71.5083 446.654 71.25 447.77 71.25C448.554 71.25 449.312 71.3833 450.045 71.65C450.795 71.9 451.37 72.2583 451.77 72.725V75.225C451.604 74.8417 451.32 74.4917 450.92 74.175C450.52 73.8583 450.045 73.6083 449.495 73.425C448.962 73.225 448.387 73.125 447.77 73.125C447.02 73.125 446.345 73.3 445.745 73.65C445.162 74 444.695 74.4917 444.345 75.125C444.012 75.7417 443.845 76.45 443.845 77.25ZM456.884 63.5V83H454.884V63.5H456.884ZM462.259 76C462.259 75.05 462.05 74.3333 461.634 73.85C461.234 73.3667 460.625 73.125 459.809 73.125C459.225 73.125 458.709 73.25 458.259 73.5C457.825 73.75 457.484 74.0917 457.234 74.525C457 74.9583 456.884 75.45 456.884 76H456.234C456.234 75.0833 456.409 74.275 456.759 73.575C457.109 72.8583 457.584 72.2917 458.184 71.875C458.8 71.4583 459.509 71.25 460.309 71.25C461.109 71.25 461.8 71.4167 462.384 71.75C462.984 72.0833 463.442 72.5833 463.759 73.25C464.092 73.9167 464.259 74.75 464.259 75.75V83H462.259V76ZM468.919 79.45C468.919 79.8833 469.019 80.2583 469.219 80.575C469.435 80.8917 469.727 81.1333 470.094 81.3C470.477 81.45 470.91 81.525 471.394 81.525C472.01 81.525 472.56 81.4 473.044 81.15C473.544 80.9 473.935 80.55 474.219 80.1C474.519 79.6333 474.669 79.1 474.669 78.5L475.069 80C475.069 80.7333 474.844 81.3417 474.394 81.825C473.96 82.3083 473.419 82.6667 472.769 82.9C472.135 83.1333 471.502 83.25 470.869 83.25C470.169 83.25 469.51 83.1083 468.894 82.825C468.294 82.525 467.81 82.1 467.444 81.55C467.077 81 466.894 80.3333 466.894 79.55C466.894 78.4333 467.285 77.5417 468.069 76.875C468.869 76.1917 469.977 75.85 471.394 75.85C472.227 75.85 472.919 75.95 473.469 76.15C474.035 76.3333 474.485 76.55 474.819 76.8C475.152 77.0333 475.377 77.225 475.494 77.375V78.55C474.91 78.15 474.31 77.8667 473.694 77.7C473.077 77.5167 472.419 77.425 471.719 77.425C471.069 77.425 470.535 77.5083 470.119 77.675C469.719 77.8417 469.419 78.075 469.219 78.375C469.019 78.675 468.919 79.0333 468.919 79.45ZM468.619 74.15L467.644 72.675C468.077 72.3583 468.669 72.0417 469.419 71.725C470.185 71.4083 471.102 71.25 472.169 71.25C473.069 71.25 473.852 71.3917 474.519 71.675C475.202 71.9417 475.727 72.3333 476.094 72.85C476.477 73.3667 476.669 74 476.669 74.75V83H474.669V75.025C474.669 74.625 474.602 74.3 474.469 74.05C474.335 73.7833 474.144 73.575 473.894 73.425C473.66 73.275 473.385 73.1667 473.069 73.1C472.752 73.0333 472.419 73 472.069 73C471.502 73 470.985 73.0667 470.519 73.2C470.069 73.3333 469.685 73.4917 469.369 73.675C469.052 73.8583 468.802 74.0167 468.619 74.15ZM487.43 76C487.43 75.05 487.221 74.3333 486.805 73.85C486.388 73.3667 485.78 73.125 484.98 73.125C484.396 73.125 483.88 73.25 483.43 73.5C482.996 73.7333 482.655 74.0667 482.405 74.5C482.171 74.9333 482.055 75.4333 482.055 76V83H480.055V71.5H482.055V73.3C482.438 72.6 482.913 72.0833 483.48 71.75C484.063 71.4167 484.73 71.25 485.48 71.25C486.696 71.25 487.655 71.6583 488.355 72.475C489.071 73.275 489.43 74.3667 489.43 75.75V83H487.43V76ZM494.089 77.25C494.089 78.05 494.256 78.7583 494.589 79.375C494.939 79.9917 495.406 80.4833 495.989 80.85C496.589 81.2 497.264 81.375 498.014 81.375C498.631 81.375 499.206 81.2833 499.739 81.1C500.289 80.9 500.764 80.6417 501.164 80.325C501.564 79.9917 501.848 79.6417 502.014 79.275V81.775C501.614 82.2417 501.039 82.6083 500.289 82.875C499.556 83.125 498.798 83.25 498.014 83.25C496.898 83.25 495.889 82.9917 494.989 82.475C494.089 81.9583 493.373 81.25 492.839 80.35C492.323 79.4333 492.064 78.4 492.064 77.25C492.064 76.0833 492.323 75.05 492.839 74.15C493.373 73.25 494.089 72.5417 494.989 72.025C495.889 71.5083 496.898 71.25 498.014 71.25C498.798 71.25 499.556 71.3833 500.289 71.65C501.039 71.9 501.614 72.2583 502.014 72.725V75.225C501.848 74.8417 501.564 74.4917 501.164 74.175C500.764 73.8583 500.289 73.6083 499.739 73.425C499.206 73.225 498.631 73.125 498.014 73.125C497.264 73.125 496.589 73.3 495.989 73.65C495.406 74 494.939 74.4917 494.589 75.125C494.256 75.7417 494.089 76.45 494.089 77.25ZM509.578 83.25C508.511 83.25 507.561 83 506.728 82.5C505.911 81.9833 505.27 81.275 504.803 80.375C504.353 79.475 504.128 78.4333 504.128 77.25C504.128 76.05 504.361 75 504.828 74.1C505.311 73.2 505.978 72.5 506.828 72C507.695 71.5 508.695 71.25 509.828 71.25C510.961 71.25 511.928 71.4917 512.728 71.975C513.545 72.4417 514.17 73.1167 514.603 74C515.036 74.8833 515.253 75.9333 515.253 77.15C515.253 77.2667 515.245 77.3917 515.228 77.525C515.228 77.6417 515.228 77.7167 515.228 77.75H505.403V76.05H513.653L512.853 77.2C512.903 77.1167 512.953 76.9917 513.003 76.825C513.053 76.6417 513.078 76.4917 513.078 76.375C513.078 75.6917 512.936 75.1 512.653 74.6C512.386 74.1 512.011 73.7083 511.528 73.425C511.045 73.1417 510.478 73 509.828 73C509.061 73 508.403 73.1667 507.853 73.5C507.32 73.8167 506.903 74.2833 506.603 74.9C506.32 75.5 506.17 76.2417 506.153 77.125C506.153 78.025 506.295 78.7917 506.578 79.425C506.861 80.0583 507.278 80.5417 507.828 80.875C508.378 81.2083 509.045 81.375 509.828 81.375C510.611 81.375 511.303 81.2083 511.903 80.875C512.503 80.525 513.011 80 513.428 79.3L515.053 80.325C514.453 81.2917 513.695 82.025 512.778 82.525C511.878 83.0083 510.811 83.25 509.578 83.25ZM523.739 71.5H529.489V73.375H523.739V71.5ZM525.614 67.5H527.614V83H525.614V67.5ZM530.495 77.25C530.495 76.0833 530.753 75.05 531.27 74.15C531.803 73.25 532.52 72.5417 533.42 72.025C534.32 71.5083 535.328 71.25 536.445 71.25C537.578 71.25 538.587 71.5083 539.47 72.025C540.37 72.5417 541.078 73.25 541.595 74.15C542.128 75.05 542.395 76.0833 542.395 77.25C542.395 78.4 542.128 79.4333 541.595 80.35C541.078 81.25 540.37 81.9583 539.47 82.475C538.587 82.9917 537.578 83.25 536.445 83.25C535.328 83.25 534.32 82.9917 533.42 82.475C532.52 81.9583 531.803 81.25 531.27 80.35C530.753 79.4333 530.495 78.4 530.495 77.25ZM532.52 77.25C532.52 78.05 532.687 78.7583 533.02 79.375C533.37 79.9917 533.837 80.4833 534.42 80.85C535.02 81.2 535.695 81.375 536.445 81.375C537.195 81.375 537.862 81.2 538.445 80.85C539.045 80.4833 539.512 79.9917 539.845 79.375C540.195 78.7583 540.37 78.05 540.37 77.25C540.37 76.45 540.195 75.7417 539.845 75.125C539.512 74.4917 539.045 74 538.445 73.65C537.862 73.3 537.195 73.125 536.445 73.125C535.695 73.125 535.02 73.3 534.42 73.65C533.837 74 533.37 74.4917 533.02 75.125C532.687 75.7417 532.52 76.45 532.52 77.25ZM169.125 100.5H171.375L174.25 107.975L177.375 99.625L180.725 108.025L183.625 100.5H185.875L180.875 112.875L177.4 104.5L174.125 112.875L169.125 100.5ZM187.867 95.75C187.867 95.3667 188.001 95.0417 188.267 94.775C188.551 94.5083 188.876 94.375 189.242 94.375C189.626 94.375 189.951 94.5083 190.217 94.775C190.484 95.0417 190.617 95.3667 190.617 95.75C190.617 96.1167 190.484 96.4417 190.217 96.725C189.951 96.9917 189.626 97.125 189.242 97.125C188.876 97.125 188.551 96.9917 188.267 96.725C188.001 96.4417 187.867 96.1167 187.867 95.75ZM188.242 100.5H190.242V112H188.242V100.5ZM194.836 108.475C195.07 108.825 195.336 109.15 195.636 109.45C195.936 109.75 196.278 109.992 196.661 110.175C197.061 110.342 197.495 110.425 197.961 110.425C198.528 110.425 198.97 110.3 199.286 110.05C199.62 109.783 199.786 109.425 199.786 108.975C199.786 108.575 199.653 108.242 199.386 107.975C199.136 107.692 198.811 107.458 198.411 107.275C198.011 107.075 197.586 106.892 197.136 106.725C196.636 106.525 196.128 106.292 195.611 106.025C195.111 105.742 194.686 105.383 194.336 104.95C194.003 104.5 193.836 103.942 193.836 103.275C193.836 102.592 194.011 102.025 194.361 101.575C194.728 101.125 195.195 100.792 195.761 100.575C196.345 100.358 196.945 100.25 197.561 100.25C198.178 100.25 198.753 100.35 199.286 100.55C199.836 100.75 200.32 101.017 200.736 101.35C201.153 101.683 201.478 102.067 201.711 102.5L200.111 103.525C199.795 103.092 199.395 102.733 198.911 102.45C198.445 102.167 197.911 102.025 197.311 102.025C196.895 102.025 196.536 102.117 196.236 102.3C195.936 102.483 195.786 102.767 195.786 103.15C195.786 103.45 195.903 103.717 196.136 103.95C196.37 104.183 196.67 104.392 197.036 104.575C197.403 104.758 197.786 104.933 198.186 105.1C198.853 105.367 199.461 105.658 200.011 105.975C200.561 106.275 200.995 106.642 201.311 107.075C201.645 107.508 201.811 108.067 201.811 108.75C201.811 109.75 201.445 110.583 200.711 111.25C199.995 111.917 199.045 112.25 197.861 112.25C197.095 112.25 196.403 112.117 195.786 111.85C195.17 111.567 194.645 111.208 194.211 110.775C193.795 110.342 193.478 109.9 193.261 109.45L194.836 108.475ZM206.444 92.5V112H204.444V92.5H206.444ZM211.819 105C211.819 104.05 211.611 103.333 211.194 102.85C210.794 102.367 210.186 102.125 209.369 102.125C208.786 102.125 208.269 102.25 207.819 102.5C207.386 102.75 207.044 103.092 206.794 103.525C206.561 103.958 206.444 104.45 206.444 105H205.794C205.794 104.083 205.969 103.275 206.319 102.575C206.669 101.858 207.144 101.292 207.744 100.875C208.361 100.458 209.069 100.25 209.869 100.25C210.669 100.25 211.361 100.417 211.944 100.75C212.544 101.083 213.003 101.583 213.319 102.25C213.653 102.917 213.819 103.75 213.819 104.75V112H211.819V105ZM223.324 100.5H229.074V102.375H223.324V100.5ZM225.199 96.5H227.199V112H225.199V96.5ZM230.08 106.25C230.08 105.083 230.338 104.05 230.855 103.15C231.388 102.25 232.105 101.542 233.005 101.025C233.905 100.508 234.913 100.25 236.03 100.25C237.163 100.25 238.172 100.508 239.055 101.025C239.955 101.542 240.663 102.25 241.18 103.15C241.713 104.05 241.98 105.083 241.98 106.25C241.98 107.4 241.713 108.433 241.18 109.35C240.663 110.25 239.955 110.958 239.055 111.475C238.172 111.992 237.163 112.25 236.03 112.25C234.913 112.25 233.905 111.992 233.005 111.475C232.105 110.958 231.388 110.25 230.855 109.35C230.338 108.433 230.08 107.4 230.08 106.25ZM232.105 106.25C232.105 107.05 232.272 107.758 232.605 108.375C232.955 108.992 233.422 109.483 234.005 109.85C234.605 110.2 235.28 110.375 236.03 110.375C236.78 110.375 237.447 110.2 238.03 109.85C238.63 109.483 239.097 108.992 239.43 108.375C239.78 107.758 239.955 107.05 239.955 106.25C239.955 105.45 239.78 104.742 239.43 104.125C239.097 103.492 238.63 103 238.03 102.65C237.447 102.3 236.78 102.125 236.03 102.125C235.28 102.125 234.605 102.3 234.005 102.65C233.422 103 232.955 103.492 232.605 104.125C232.272 104.742 232.105 105.45 232.105 106.25ZM243.728 106.25C243.728 105.083 243.986 104.05 244.503 103.15C245.036 102.25 245.753 101.542 246.653 101.025C247.553 100.508 248.561 100.25 249.678 100.25C250.811 100.25 251.819 100.508 252.703 101.025C253.603 101.542 254.311 102.25 254.828 103.15C255.361 104.05 255.628 105.083 255.628 106.25C255.628 107.4 255.361 108.433 254.828 109.35C254.311 110.25 253.603 110.958 252.703 111.475C251.819 111.992 250.811 112.25 249.678 112.25C248.561 112.25 247.553 111.992 246.653 111.475C245.753 110.958 245.036 110.25 244.503 109.35C243.986 108.433 243.728 107.4 243.728 106.25ZM245.753 106.25C245.753 107.05 245.919 107.758 246.253 108.375C246.603 108.992 247.069 109.483 247.653 109.85C248.253 110.2 248.928 110.375 249.678 110.375C250.428 110.375 251.094 110.2 251.678 109.85C252.278 109.483 252.744 108.992 253.078 108.375C253.428 107.758 253.603 107.05 253.603 106.25C253.603 105.45 253.428 104.742 253.078 104.125C252.744 103.492 252.278 103 251.678 102.65C251.094 102.3 250.428 102.125 249.678 102.125C248.928 102.125 248.253 102.3 247.653 102.65C247.069 103 246.603 103.492 246.253 104.125C245.919 104.742 245.753 105.45 245.753 106.25ZM259 94.5H261.5L261 107H259.5L259 94.5ZM258.875 111C258.875 110.617 259.008 110.292 259.275 110.025C259.558 109.758 259.883 109.625 260.25 109.625C260.633 109.625 260.958 109.758 261.225 110.025C261.492 110.292 261.625 110.617 261.625 111C261.625 111.367 261.492 111.692 261.225 111.975C260.958 112.242 260.633 112.375 260.25 112.375C259.883 112.375 259.558 112.242 259.275 111.975C259.008 111.692 258.875 111.367 258.875 111Z" fill="white"/>
<path d="M61.89 123.85C96.0709 123.85 123.78 96.1412 123.78 61.9603C123.78 27.7794 96.0709 0.0703125 61.89 0.0703125C27.7091 0.0703125 0 27.7794 0 61.9603C0 96.1412 27.7091 123.85 61.89 123.85Z" fill="white"/>
<path d="M64.5195 29.7407C65.9195 29.9407 67.3195 30.0607 68.7195 30.3507C73.3111 31.2015 77.6537 33.0704 81.428 35.8202C85.2023 38.57 88.3123 42.1308 90.5295 46.2407C93.8155 52.2243 95.1019 59.1018 94.2008 65.8685C93.2996 72.6353 90.2581 78.9365 85.5207 83.8516C80.7832 88.7666 74.5982 92.0379 67.8691 93.1874C61.1401 94.3369 54.2199 93.3044 48.1195 90.2407C47.804 90.1068 47.4552 90.0718 47.1195 90.1406C42.2295 91.4406 37.3495 92.7807 32.4295 94.0807C32.0173 94.1954 31.5816 94.1954 31.1695 94.0807C30.4795 93.9007 30.2395 93.2407 30.4695 92.4407C31.6395 88.2407 32.7295 84.0507 33.9995 79.9607C34.5395 78.2207 34.7295 76.6606 33.5795 75.1406C28.8095 64.0306 29.6895 53.4306 36.3695 43.2806C36.4913 43.0113 36.6987 42.7898 36.9595 42.6506C37.2188 42.5089 37.5164 42.453 37.8095 42.4907C38.0351 42.531 38.2458 42.6311 38.4195 42.7806C38.5905 42.9249 38.7214 43.111 38.7995 43.3207C38.8707 43.5366 38.8878 43.7667 38.8495 43.9907C38.8089 44.2133 38.7087 44.4206 38.5595 44.5907C37.6078 46.0278 36.743 47.5204 35.9695 49.0607C33.9455 53.263 32.9651 57.8915 33.1113 62.5535C33.2576 67.2155 34.5262 71.7735 36.8095 75.8407C37.0223 76.2061 37.1584 76.6109 37.2095 77.0306C37.26 77.4511 37.219 77.8775 37.0895 78.2806C35.8895 82.3906 34.7595 86.5107 33.6095 90.6307C33.6171 90.7902 33.5826 90.9488 33.5095 91.0907C33.7029 91.0812 33.8944 91.0476 34.0795 90.9907C38.4095 89.8207 42.7495 88.6607 47.0795 87.4707C47.3567 87.3811 47.6497 87.3505 47.9395 87.3807C48.2276 87.4107 48.5067 87.4991 48.7595 87.6406C54.7618 90.8352 61.6861 91.8498 68.3526 90.5114C75.0191 89.173 81.0153 85.5644 85.3195 80.3007C89.2284 75.646 91.5509 69.8659 91.9495 63.8007C92.4376 57.3968 90.8109 51.0096 87.3191 45.6193C83.8273 40.2289 78.6633 36.1333 72.6195 33.9607C63.2395 30.6307 54.3095 31.8607 45.9795 37.3007C45.7995 37.4207 45.6395 37.5506 45.4595 37.6606C45.3196 37.7526 45.1635 37.8171 44.9995 37.8507C44.8313 37.8858 44.6577 37.8858 44.4895 37.8507C44.3268 37.8127 44.1715 37.7485 44.0295 37.6606C43.891 37.564 43.7722 37.4418 43.6795 37.3007C43.5799 37.1687 43.5146 37.0141 43.4895 36.8507C43.4558 36.6903 43.4562 36.5246 43.4907 36.3644C43.5251 36.2042 43.5929 36.053 43.6895 35.9207C43.7833 35.7887 43.9022 35.6766 44.0395 35.5907C45.4695 34.6807 46.8895 33.7407 48.3995 32.9607C52.0682 31.1099 56.07 30.0117 60.1695 29.7307L60.6495 29.6406L64.5195 29.7407Z" fill="#5C036B"/>
<path d="M40.6793 84.0565L43.6793 83.2165C45.0393 82.8465 46.3993 82.4965 47.7593 82.1165C48.0265 82.0285 48.3094 81.9977 48.5893 82.0265C48.8675 82.0647 49.1358 82.1564 49.3793 82.2965C51.9416 83.8772 54.7608 84.9975 57.7093 85.6065C63.8043 86.8859 70.1579 85.757 75.4393 82.4565L75.9693 82.1266C76.1087 82.0086 76.2727 81.9232 76.4493 81.8766C76.6242 81.8415 76.8043 81.8415 76.9793 81.8766C77.154 81.9053 77.3209 81.97 77.4693 82.0665C77.6216 82.1605 77.7513 82.2868 77.8493 82.4365C77.9506 82.5871 78.0188 82.7575 78.0493 82.9365C78.0895 83.1109 78.0895 83.2921 78.0493 83.4665C77.999 83.6437 77.9102 83.8076 77.7893 83.9465C77.6686 84.0781 77.5222 84.1835 77.3593 84.2564C75.7025 85.2456 73.982 86.1242 72.2093 86.8864C68.5197 88.3358 64.5514 88.9375 60.598 88.6467C56.6446 88.3559 52.8071 87.1802 49.3693 85.2065C49.0474 85.0086 48.6851 84.8855 48.3093 84.8465C47.9324 84.7976 47.5494 84.8352 47.1893 84.9565C44.6693 85.6965 42.1193 86.3365 39.5993 87.0465C38.1593 87.4365 37.3893 86.6165 37.7493 85.2465C38.4693 82.6465 39.1993 80.0065 39.9493 77.4365C40.0365 77.2281 40.0709 77.0013 40.0493 76.7765C40.0397 76.5493 39.9708 76.3286 39.8493 76.1364C36.6432 71.1351 35.1974 65.2072 35.7408 59.2913C36.2842 53.3755 38.7858 47.8101 42.8493 43.4765C46.9163 38.8834 52.4992 35.9056 58.5793 35.0865C63.0438 34.3571 67.6209 34.791 71.8687 36.3465C76.1166 37.902 79.8916 40.5265 82.8293 43.9665C86.5821 48.091 88.8916 53.3243 89.4093 58.8766C90.108 65.0714 88.5996 71.3141 85.1493 76.5064C85.0741 76.6706 84.961 76.8146 84.8193 76.9265C84.6835 77.0442 84.5228 77.1297 84.3493 77.1765C84.1743 77.2115 83.9942 77.2115 83.8193 77.1765C83.6425 77.1497 83.4726 77.0886 83.3193 76.9965C83.1692 76.8998 83.04 76.774 82.9393 76.6266C82.8379 76.476 82.7697 76.3055 82.7393 76.1266C82.7045 75.9482 82.7045 75.7648 82.7393 75.5865C82.7882 75.4138 82.8734 75.2536 82.9893 75.1165C84.7943 72.3185 86.0132 69.1836 86.5723 65.9012C87.1315 62.6188 87.0193 59.2571 86.2426 56.0193C85.4659 52.7814 84.0407 49.7348 82.0532 47.0633C80.0657 44.3919 77.5572 42.1511 74.6793 40.4765C71.7898 38.8229 68.5827 37.8004 65.2693 37.4765C59.186 36.7897 53.0667 38.4129 48.1235 42.0244C43.1804 45.6359 39.774 50.9723 38.5793 56.9765C37.3959 62.8369 38.433 68.928 41.4893 74.0665C43.0793 76.8465 42.9493 75.7465 42.0993 78.9065C41.6493 80.5665 41.1793 82.2665 40.6793 84.0565Z" fill="#5C036B"/>
<path d="M70.9597 77.78C68.1225 77.6909 65.3398 76.9773 62.8097 75.69C55.8646 72.4953 50.2544 66.9736 46.9497 60.0801C46.2024 58.6615 45.7854 57.0925 45.7297 55.4901C45.6719 53.8883 45.969 52.2935 46.5997 50.82C47.0417 49.725 47.7254 48.7439 48.5997 47.9501C49.3308 47.2974 50.2148 46.84 51.1697 46.6201C52.1265 46.3997 53.1229 46.4203 54.0697 46.68C54.4836 46.7686 54.8708 46.9537 55.1997 47.2201C55.5252 47.4872 55.7794 47.8308 55.9397 48.2201C56.7697 50.1501 57.6197 52.0701 58.4397 54.0001C58.775 54.6483 58.8928 55.3872 58.7758 56.1075C58.6587 56.8279 58.313 57.4914 57.7897 58.0001C57.4097 58.3901 57.0997 58.8401 56.7397 59.2201C56.6532 59.2714 56.581 59.3435 56.5297 59.43C56.4718 59.5126 56.4372 59.6094 56.4297 59.7101C56.4039 59.8084 56.4039 59.9117 56.4297 60.01C56.4624 60.1073 56.5212 60.1938 56.5997 60.26C58.7405 63.481 61.7072 66.0679 65.1897 67.7501L65.4197 67.8601C66.3597 68.2401 66.3597 68.2401 66.9697 67.4601C67.4097 66.8901 67.8297 66.31 68.2697 65.76C68.714 65.0677 69.4107 64.5761 70.2118 64.3894C71.0129 64.2027 71.8552 64.3355 72.5597 64.76C74.2397 65.58 75.8997 66.4301 77.5597 67.2301C78.1312 67.4811 78.6101 67.904 78.9297 68.44C79.2502 68.9761 79.4002 69.5969 79.3597 70.2201C79.4797 75.3801 75.5897 77.49 72.0197 77.77C71.6797 77.81 71.3197 77.78 70.9597 77.78ZM71.2697 75.3C71.7834 75.2832 72.2949 75.2264 72.7997 75.1301C73.9889 75.0232 75.088 74.452 75.8592 73.5405C76.6303 72.629 77.0113 71.4504 76.9197 70.26C76.9398 70.0921 76.9009 69.9224 76.8097 69.78C76.7282 69.6367 76.6017 69.5242 76.4497 69.4601C74.7997 68.6701 73.1497 67.89 71.5397 67.04C71.441 66.9619 71.324 66.9103 71.1997 66.89C71.0777 66.8649 70.9518 66.8649 70.8297 66.89C70.7078 66.9227 70.5926 66.9769 70.4897 67.05C70.3971 67.1329 70.3193 67.231 70.2597 67.3401C69.7397 68.0401 69.2097 68.72 68.6597 69.44C68.3347 69.949 67.8415 70.3279 67.2659 70.5106C66.6903 70.6933 66.0688 70.6684 65.5097 70.44C64.1338 69.8975 62.8114 69.2279 61.5597 68.44C58.6112 66.6213 56.1285 64.1386 54.3097 61.19C53.9101 60.6757 53.7206 60.0288 53.7797 59.3801C53.8356 58.7329 54.1317 58.1299 54.6097 57.69C55.0397 57.2 55.4497 56.6901 55.9097 56.2301C56.0964 56.0758 56.2208 55.8591 56.2597 55.6201C56.3045 55.3811 56.2656 55.1338 56.1497 54.92C55.3397 53.07 54.5397 51.2201 53.7197 49.3701C53.6819 49.2783 53.6237 49.1963 53.5497 49.1301C53.4754 49.0664 53.3909 49.0157 53.2997 48.9801C52.7878 48.8501 52.2516 48.8501 51.7397 48.9801C51.2254 49.0971 50.75 49.3451 50.3597 49.7001C49.773 50.3168 49.2871 51.0221 48.9197 51.79C48.4061 52.9842 48.1801 54.2823 48.26 55.5798C48.3399 56.8773 48.7234 58.1379 49.3797 59.26C52.5105 65.5098 57.6929 70.4947 64.0597 73.3801C66.2959 74.5342 68.7558 75.1892 71.2697 75.3Z" fill="#5C036B"/>
<path d="M40.8591 41.2659C40.6886 41.2745 40.5183 41.2473 40.3591 41.186C40.2025 41.1249 40.0596 41.0331 39.9391 40.916C39.82 40.795 39.7249 40.6525 39.6591 40.496C39.5939 40.3411 39.5632 40.1738 39.5691 40.0059C39.5689 39.8417 39.5995 39.6789 39.6591 39.5259C39.7277 39.3763 39.8188 39.2382 39.9291 39.116C40.0486 39.0024 40.1875 38.911 40.3391 38.846C40.6601 38.718 41.018 38.718 41.3391 38.846C41.4889 38.9087 41.6249 39.0005 41.7391 39.116C41.8557 39.2352 41.9505 39.3739 42.0191 39.5259C42.0787 39.6789 42.1092 39.8417 42.1091 40.0059C42.1186 40.1699 42.0912 40.334 42.0291 40.486C41.9678 40.6396 41.8759 40.779 41.7591 40.8959C41.6476 41.0147 41.5109 41.107 41.3591 41.166C41.2025 41.238 41.0313 41.2722 40.8591 41.2659Z" fill="#5C036B"/>
<path d="M81.9499 79.875C81.9487 80.0373 81.9153 80.1977 81.8518 80.347C81.7883 80.4963 81.6959 80.6316 81.5799 80.745C81.4051 80.9224 81.1809 81.043 80.9365 81.0911C80.6922 81.1393 80.439 81.1127 80.2099 81.0149C80.0545 80.9526 79.9146 80.8571 79.7999 80.735C79.6776 80.6167 79.5821 80.4734 79.5199 80.315C79.4561 80.1594 79.4222 79.9932 79.4199 79.825C79.4403 79.499 79.5874 79.1939 79.8299 78.975C80.0623 78.748 80.3751 78.6222 80.6999 78.625C80.8674 78.6248 81.0335 78.6553 81.1899 78.715C81.3435 78.7763 81.483 78.8682 81.5999 78.985C81.7102 79.1072 81.8013 79.2454 81.8699 79.3949C81.9311 79.5472 81.9584 79.7111 81.9499 79.875Z" fill="#5C036B"/>
</svg>
