<svg width="487" height="125" viewBox="0 0 487 125" fill="none" xmlns="http://www.w3.org/2000/svg">
<path d="M173.464 49.9C174.016 50.86 174.604 51.712 175.228 52.456C175.876 53.176 176.584 53.74 177.352 54.148C178.12 54.532 178.984 54.724 179.944 54.724C181.096 54.724 182.032 54.412 182.752 53.788C183.472 53.164 183.832 52.36 183.832 51.376C183.832 50.44 183.604 49.696 183.148 49.144C182.692 48.568 182.056 48.088 181.24 47.704C180.448 47.296 179.524 46.9 178.468 46.516C177.844 46.3 177.148 46.012 176.38 45.652C175.612 45.268 174.88 44.8 174.184 44.248C173.488 43.672 172.912 42.976 172.456 42.16C172 41.32 171.772 40.312 171.772 39.136C171.772 37.792 172.12 36.616 172.816 35.608C173.512 34.576 174.448 33.784 175.624 33.232C176.824 32.656 178.18 32.368 179.692 32.368C181.18 32.368 182.476 32.632 183.58 33.16C184.684 33.688 185.608 34.36 186.352 35.176C187.12 35.992 187.72 36.844 188.152 37.732L184.696 39.676C184.384 39.052 183.988 38.476 183.508 37.948C183.028 37.396 182.464 36.964 181.816 36.652C181.192 36.316 180.46 36.148 179.62 36.148C178.444 36.148 177.58 36.424 177.028 36.976C176.476 37.504 176.2 38.128 176.2 38.848C176.2 39.496 176.392 40.084 176.776 40.612C177.184 41.116 177.808 41.596 178.648 42.052C179.488 42.508 180.58 42.976 181.924 43.456C182.668 43.72 183.412 44.056 184.156 44.464C184.924 44.872 185.62 45.388 186.244 46.012C186.868 46.612 187.36 47.32 187.72 48.136C188.104 48.952 188.296 49.912 188.296 51.016C188.296 52.192 188.068 53.248 187.612 54.184C187.156 55.12 186.532 55.912 185.74 56.56C184.948 57.184 184.048 57.664 183.04 58C182.056 58.36 181.024 58.54 179.944 58.54C178.456 58.54 177.076 58.252 175.804 57.676C174.556 57.076 173.464 56.284 172.528 55.3C171.592 54.316 170.848 53.248 170.296 52.096L173.464 49.9ZM190.028 41.44H199.424V44.86H190.028V41.44ZM192.8 35.68H196.652V58H192.8V35.68ZM204.553 52.852C204.553 53.404 204.685 53.884 204.949 54.292C205.213 54.676 205.573 54.964 206.029 55.156C206.509 55.348 207.049 55.444 207.649 55.444C208.417 55.444 209.113 55.288 209.737 54.976C210.385 54.664 210.901 54.208 211.285 53.608C211.693 52.984 211.897 52.264 211.897 51.448L212.473 53.608C212.473 54.664 212.161 55.552 211.537 56.272C210.937 56.968 210.169 57.496 209.233 57.856C208.321 58.192 207.385 58.36 206.425 58.36C205.393 58.36 204.433 58.156 203.545 57.748C202.657 57.34 201.949 56.74 201.421 55.948C200.893 55.156 200.629 54.196 200.629 53.068C200.629 51.46 201.193 50.188 202.321 49.252C203.449 48.292 205.045 47.812 207.109 47.812C208.213 47.812 209.161 47.932 209.953 48.172C210.769 48.412 211.441 48.7 211.969 49.036C212.497 49.348 212.869 49.636 213.085 49.9V51.88C212.341 51.352 211.549 50.968 210.709 50.728C209.869 50.488 208.981 50.368 208.045 50.368C207.229 50.368 206.569 50.476 206.065 50.692C205.561 50.884 205.177 51.16 204.913 51.52C204.673 51.88 204.553 52.324 204.553 52.852ZM203.329 45.76L201.745 43.024C202.489 42.568 203.449 42.124 204.625 41.692C205.825 41.26 207.193 41.044 208.729 41.044C210.097 41.044 211.297 41.248 212.329 41.656C213.385 42.064 214.213 42.652 214.813 43.42C215.413 44.164 215.713 45.088 215.713 46.192V58H211.897V46.948C211.897 46.42 211.801 45.988 211.609 45.652C211.441 45.316 211.201 45.04 210.889 44.824C210.577 44.608 210.205 44.452 209.773 44.356C209.341 44.26 208.873 44.212 208.369 44.212C207.601 44.212 206.869 44.308 206.173 44.5C205.501 44.668 204.913 44.884 204.409 45.148C203.929 45.388 203.569 45.592 203.329 45.76ZM234.722 41.44L223.922 65.92H219.782L224.102 56.056L217.442 41.44H221.906L227.198 54.544L225.362 54.436L230.546 41.44H234.722ZM247.699 34.852C247.699 34.18 247.939 33.616 248.419 33.16C248.923 32.704 249.499 32.476 250.147 32.476C250.843 32.476 251.419 32.704 251.875 33.16C252.355 33.616 252.595 34.18 252.595 34.852C252.595 35.5 252.355 36.064 251.875 36.544C251.419 37 250.843 37.228 250.147 37.228C249.499 37.228 248.923 37 248.419 36.544C247.939 36.064 247.699 35.5 247.699 34.852ZM248.239 41.44H252.055V58H248.239V41.44ZM268.062 47.92C268.062 46.696 267.81 45.772 267.306 45.148C266.802 44.524 266.022 44.212 264.966 44.212C264.246 44.212 263.61 44.368 263.058 44.68C262.506 44.968 262.074 45.4 261.762 45.976C261.45 46.528 261.294 47.176 261.294 47.92V58H257.406V41.44H261.294V43.996C261.822 43.012 262.494 42.28 263.31 41.8C264.15 41.32 265.146 41.08 266.298 41.08C268.17 41.08 269.598 41.656 270.582 42.808C271.566 43.936 272.058 45.496 272.058 47.488V58H268.062V47.92ZM285.512 41.44H294.908V44.86H285.512V41.44ZM288.284 35.68H292.136V58H288.284V35.68ZM301.477 29.92V58H297.589V29.92H301.477ZM308.245 47.92C308.245 46.696 307.993 45.772 307.489 45.148C307.009 44.524 306.229 44.212 305.149 44.212C304.429 44.212 303.793 44.368 303.241 44.68C302.689 44.992 302.257 45.424 301.945 45.976C301.633 46.528 301.477 47.176 301.477 47.92H300.541C300.541 46.6 300.781 45.424 301.261 44.392C301.741 43.36 302.413 42.532 303.277 41.908C304.165 41.284 305.233 40.972 306.481 40.972C307.705 40.972 308.737 41.212 309.577 41.692C310.441 42.172 311.089 42.892 311.521 43.852C311.953 44.788 312.169 45.964 312.169 47.38V58H308.245V47.92ZM324.301 58.36C322.621 58.36 321.133 58 319.837 57.28C318.565 56.56 317.581 55.552 316.885 54.256C316.189 52.96 315.841 51.448 315.841 49.72C315.841 47.968 316.189 46.444 316.885 45.148C317.605 43.852 318.613 42.856 319.909 42.16C321.205 41.44 322.729 41.08 324.481 41.08C326.233 41.08 327.721 41.416 328.945 42.088C330.169 42.76 331.105 43.732 331.753 45.004C332.425 46.252 332.761 47.764 332.761 49.54C332.761 49.732 332.749 49.936 332.725 50.152C332.725 50.368 332.713 50.524 332.689 50.62H318.145V47.956H329.377L328.189 49.612C328.261 49.468 328.333 49.276 328.405 49.036C328.501 48.772 328.549 48.556 328.549 48.388C328.549 47.5 328.369 46.732 328.009 46.084C327.673 45.436 327.193 44.932 326.569 44.572C325.969 44.212 325.261 44.032 324.445 44.032C323.461 44.032 322.621 44.248 321.925 44.68C321.229 45.112 320.701 45.736 320.341 46.552C319.981 47.368 319.789 48.376 319.765 49.576C319.765 50.776 319.945 51.796 320.305 52.636C320.665 53.452 321.193 54.076 321.889 54.508C322.609 54.94 323.473 55.156 324.481 55.156C325.537 55.156 326.461 54.94 327.253 54.508C328.045 54.076 328.705 53.416 329.233 52.528L332.581 53.896C331.717 55.384 330.601 56.5 329.233 57.244C327.865 57.988 326.221 58.36 324.301 58.36ZM347.589 32.8H351.837V54.184H361.845V58H347.589V32.8ZM363.337 49.72C363.337 48.016 363.721 46.516 364.489 45.22C365.281 43.924 366.349 42.916 367.693 42.196C369.037 41.452 370.561 41.08 372.265 41.08C373.969 41.08 375.481 41.452 376.801 42.196C378.145 42.916 379.213 43.924 380.005 45.22C380.797 46.516 381.193 48.016 381.193 49.72C381.193 51.4 380.797 52.9 380.005 54.22C379.213 55.516 378.145 56.536 376.801 57.28C375.481 58 373.969 58.36 372.265 58.36C370.561 58.36 369.037 58 367.693 57.28C366.349 56.536 365.281 55.516 364.489 54.22C363.721 52.9 363.337 51.4 363.337 49.72ZM367.333 49.72C367.333 50.752 367.549 51.664 367.981 52.456C368.413 53.224 369.001 53.836 369.745 54.292C370.489 54.724 371.329 54.94 372.265 54.94C373.177 54.94 374.005 54.724 374.749 54.292C375.517 53.836 376.117 53.224 376.549 52.456C376.981 51.664 377.197 50.752 377.197 49.72C377.197 48.688 376.981 47.776 376.549 46.984C376.117 46.192 375.517 45.58 374.749 45.148C374.005 44.716 373.177 44.5 372.265 44.5C371.329 44.5 370.489 44.716 369.745 45.148C369.001 45.58 368.413 46.192 367.981 46.984C367.549 47.776 367.333 48.688 367.333 49.72ZM383.622 49.72C383.622 48.016 384.006 46.516 384.774 45.22C385.566 43.924 386.634 42.916 387.978 42.196C389.322 41.452 390.846 41.08 392.55 41.08C394.254 41.08 395.766 41.452 397.086 42.196C398.43 42.916 399.498 43.924 400.29 45.22C401.082 46.516 401.478 48.016 401.478 49.72C401.478 51.4 401.082 52.9 400.29 54.22C399.498 55.516 398.43 56.536 397.086 57.28C395.766 58 394.254 58.36 392.55 58.36C390.846 58.36 389.322 58 387.978 57.28C386.634 56.536 385.566 55.516 384.774 54.22C384.006 52.9 383.622 51.4 383.622 49.72ZM387.618 49.72C387.618 50.752 387.834 51.664 388.266 52.456C388.698 53.224 389.286 53.836 390.03 54.292C390.774 54.724 391.614 54.94 392.55 54.94C393.462 54.94 394.29 54.724 395.034 54.292C395.802 53.836 396.402 53.224 396.834 52.456C397.266 51.664 397.482 50.752 397.482 49.72C397.482 48.688 397.266 47.776 396.834 46.984C396.402 46.192 395.802 45.58 395.034 45.148C394.29 44.716 393.462 44.5 392.55 44.5C391.614 44.5 390.774 44.716 390.03 45.148C389.286 45.58 388.698 46.192 388.266 46.984C387.834 47.776 387.618 48.688 387.618 49.72ZM408.948 65.92H405.024V41.44H408.948V65.92ZM422.664 49.72C422.664 51.544 422.292 53.116 421.548 54.436C420.804 55.732 419.82 56.728 418.596 57.424C417.372 58.096 416.04 58.432 414.6 58.432C413.184 58.432 411.948 58.084 410.892 57.388C409.86 56.668 409.056 55.66 408.48 54.364C407.928 53.044 407.652 51.496 407.652 49.72C407.652 47.92 407.928 46.372 408.48 45.076C409.056 43.78 409.86 42.784 410.892 42.088C411.948 41.368 413.184 41.008 414.6 41.008C416.04 41.008 417.372 41.356 418.596 42.052C419.82 42.724 420.804 43.708 421.548 45.004C422.292 46.3 422.664 47.872 422.664 49.72ZM418.632 49.72C418.632 48.616 418.404 47.68 417.948 46.912C417.492 46.12 416.88 45.532 416.112 45.148C415.368 44.74 414.54 44.536 413.628 44.536C412.884 44.536 412.152 44.74 411.432 45.148C410.712 45.532 410.112 46.108 409.632 46.876C409.176 47.644 408.948 48.592 408.948 49.72C408.948 50.848 409.176 51.796 409.632 52.564C410.112 53.332 410.712 53.92 411.432 54.328C412.152 54.712 412.884 54.904 413.628 54.904C414.54 54.904 415.368 54.712 416.112 54.328C416.88 53.92 417.492 53.332 417.948 52.564C418.404 51.772 418.632 50.824 418.632 49.72Z" fill="#FFF3C2"/>
<path d="M172.175 96V94H181V96H172.175ZM172.175 80.5V78.5H181V80.5H172.175ZM172.175 87.5V85.5H180.5V87.5H172.175ZM171 78.5H173.125V96H171V78.5ZM191.995 89C191.995 88.05 191.787 87.3333 191.37 86.85C190.953 86.3667 190.345 86.125 189.545 86.125C188.962 86.125 188.445 86.25 187.995 86.5C187.562 86.7333 187.22 87.0667 186.97 87.5C186.737 87.9333 186.62 88.4333 186.62 89V96H184.62V84.5H186.62V86.3C187.003 85.6 187.478 85.0833 188.045 84.75C188.628 84.4167 189.295 84.25 190.045 84.25C191.262 84.25 192.22 84.6583 192.92 85.475C193.637 86.275 193.995 87.3667 193.995 88.75V96H191.995V89ZM196.005 84.5H201.755V86.375H196.005V84.5ZM197.88 80.5H199.88V96H197.88V80.5ZM208.211 96.25C207.144 96.25 206.194 96 205.361 95.5C204.544 94.9833 203.902 94.275 203.436 93.375C202.986 92.475 202.761 91.4333 202.761 90.25C202.761 89.05 202.994 88 203.461 87.1C203.944 86.2 204.611 85.5 205.461 85C206.327 84.5 207.327 84.25 208.461 84.25C209.594 84.25 210.561 84.4917 211.361 84.975C212.177 85.4417 212.802 86.1167 213.236 87C213.669 87.8833 213.886 88.9333 213.886 90.15C213.886 90.2667 213.877 90.3917 213.861 90.525C213.861 90.6417 213.861 90.7167 213.861 90.75H204.036V89.05H212.286L211.486 90.2C211.536 90.1167 211.586 89.9917 211.636 89.825C211.686 89.6417 211.711 89.4917 211.711 89.375C211.711 88.6917 211.569 88.1 211.286 87.6C211.019 87.1 210.644 86.7083 210.161 86.425C209.677 86.1417 209.111 86 208.461 86C207.694 86 207.036 86.1667 206.486 86.5C205.952 86.8167 205.536 87.2833 205.236 87.9C204.952 88.5 204.802 89.2417 204.786 90.125C204.786 91.025 204.927 91.7917 205.211 92.425C205.494 93.0583 205.911 93.5417 206.461 93.875C207.011 94.2083 207.677 94.375 208.461 94.375C209.244 94.375 209.936 94.2083 210.536 93.875C211.136 93.525 211.644 93 212.061 92.3L213.686 93.325C213.086 94.2917 212.327 95.025 211.411 95.525C210.511 96.0083 209.444 96.25 208.211 96.25ZM218.627 84.5V96H216.627V84.5H218.627ZM222.102 86.7C221.835 86.5 221.594 86.3583 221.377 86.275C221.16 86.175 220.885 86.125 220.552 86.125C220.052 86.125 219.66 86.25 219.377 86.5C219.094 86.75 218.894 87.0917 218.777 87.525C218.677 87.9583 218.627 88.45 218.627 89H217.727C217.727 88.0833 217.885 87.275 218.202 86.575C218.535 85.8583 218.96 85.2917 219.477 84.875C219.994 84.4583 220.519 84.25 221.052 84.25C221.469 84.25 221.852 84.3083 222.202 84.425C222.569 84.525 222.902 84.7333 223.202 85.05L222.102 86.7ZM241.816 84.5L234.316 101.5H232.066L235.216 94.375L230.816 84.5H233.191L236.841 93.5L236.016 93.4L239.566 84.5H241.816ZM242.336 90.25C242.336 89.0833 242.594 88.05 243.111 87.15C243.644 86.25 244.361 85.5417 245.261 85.025C246.161 84.5083 247.169 84.25 248.286 84.25C249.419 84.25 250.428 84.5083 251.311 85.025C252.211 85.5417 252.919 86.25 253.436 87.15C253.969 88.05 254.236 89.0833 254.236 90.25C254.236 91.4 253.969 92.4333 253.436 93.35C252.919 94.25 252.211 94.9583 251.311 95.475C250.428 95.9917 249.419 96.25 248.286 96.25C247.169 96.25 246.161 95.9917 245.261 95.475C244.361 94.9583 243.644 94.25 243.111 93.35C242.594 92.4333 242.336 91.4 242.336 90.25ZM244.361 90.25C244.361 91.05 244.528 91.7583 244.861 92.375C245.211 92.9917 245.678 93.4833 246.261 93.85C246.861 94.2 247.536 94.375 248.286 94.375C249.036 94.375 249.703 94.2 250.286 93.85C250.886 93.4833 251.353 92.9917 251.686 92.375C252.036 91.7583 252.211 91.05 252.211 90.25C252.211 89.45 252.036 88.7417 251.686 88.125C251.353 87.4917 250.886 87 250.286 86.65C249.703 86.3 249.036 86.125 248.286 86.125C247.536 86.125 246.861 86.3 246.261 86.65C245.678 87 245.211 87.4917 244.861 88.125C244.528 88.7417 244.361 89.45 244.361 90.25ZM258.983 91.5C258.983 92.4167 259.192 93.125 259.608 93.625C260.025 94.125 260.633 94.375 261.433 94.375C262.017 94.375 262.525 94.2583 262.958 94.025C263.408 93.775 263.75 93.4333 263.983 93C264.233 92.5667 264.358 92.0667 264.358 91.5V84.5H266.358V96H264.358V94.2C263.975 94.8833 263.5 95.4 262.933 95.75C262.367 96.0833 261.7 96.25 260.933 96.25C259.733 96.25 258.775 95.8417 258.058 95.025C257.342 94.2083 256.983 93.1167 256.983 91.75V84.5H258.983V91.5ZM272.118 84.5V96H270.118V84.5H272.118ZM275.593 86.7C275.326 86.5 275.085 86.3583 274.868 86.275C274.651 86.175 274.376 86.125 274.043 86.125C273.543 86.125 273.151 86.25 272.868 86.5C272.585 86.75 272.385 87.0917 272.268 87.525C272.168 87.9583 272.118 88.45 272.118 89H271.218C271.218 88.0833 271.376 87.275 271.693 86.575C272.026 85.8583 272.451 85.2917 272.968 84.875C273.485 84.4583 274.01 84.25 274.543 84.25C274.96 84.25 275.343 84.3083 275.693 84.425C276.06 84.525 276.393 84.7333 276.693 85.05L275.593 86.7ZM294.808 76.5H296.808V96H294.808V76.5ZM285.183 90.25C285.183 89 285.441 87.9333 285.958 87.05C286.474 86.15 287.166 85.4583 288.033 84.975C288.899 84.4917 289.849 84.25 290.883 84.25C291.849 84.25 292.691 84.4917 293.408 84.975C294.124 85.4583 294.683 86.15 295.083 87.05C295.499 87.9333 295.708 89 295.708 90.25C295.708 91.4833 295.499 92.55 295.083 93.45C294.683 94.35 294.124 95.0417 293.408 95.525C292.691 96.0083 291.849 96.25 290.883 96.25C289.849 96.25 288.899 96.0083 288.033 95.525C287.166 95.0417 286.474 94.35 285.958 93.45C285.441 92.55 285.183 91.4833 285.183 90.25ZM287.208 90.25C287.208 91.1333 287.383 91.8833 287.733 92.5C288.099 93.1167 288.583 93.5833 289.183 93.9C289.783 94.2167 290.433 94.375 291.133 94.375C291.716 94.375 292.291 94.2167 292.858 93.9C293.424 93.5833 293.891 93.1167 294.258 92.5C294.624 91.8833 294.808 91.1333 294.808 90.25C294.808 89.3667 294.624 88.6167 294.258 88C293.891 87.3833 293.424 86.9167 292.858 86.6C292.291 86.2833 291.716 86.125 291.133 86.125C290.433 86.125 289.783 86.2833 289.183 86.6C288.583 86.9167 288.099 87.3833 287.733 88C287.383 88.6167 287.208 89.3667 287.208 90.25ZM304.89 96.25C303.824 96.25 302.874 96 302.04 95.5C301.224 94.9833 300.582 94.275 300.115 93.375C299.665 92.475 299.44 91.4333 299.44 90.25C299.44 89.05 299.674 88 300.14 87.1C300.624 86.2 301.29 85.5 302.14 85C303.007 84.5 304.007 84.25 305.14 84.25C306.274 84.25 307.24 84.4917 308.04 84.975C308.857 85.4417 309.482 86.1167 309.915 87C310.349 87.8833 310.565 88.9333 310.565 90.15C310.565 90.2667 310.557 90.3917 310.54 90.525C310.54 90.6417 310.54 90.7167 310.54 90.75H300.715V89.05H308.965L308.165 90.2C308.215 90.1167 308.265 89.9917 308.315 89.825C308.365 89.6417 308.39 89.4917 308.39 89.375C308.39 88.6917 308.249 88.1 307.965 87.6C307.699 87.1 307.324 86.7083 306.84 86.425C306.357 86.1417 305.79 86 305.14 86C304.374 86 303.715 86.1667 303.165 86.5C302.632 86.8167 302.215 87.2833 301.915 87.9C301.632 88.5 301.482 89.2417 301.465 90.125C301.465 91.025 301.607 91.7917 301.89 92.425C302.174 93.0583 302.59 93.5417 303.14 93.875C303.69 94.2083 304.357 94.375 305.14 94.375C305.924 94.375 306.615 94.2083 307.215 93.875C307.815 93.525 308.324 93 308.74 92.3L310.365 93.325C309.765 94.2917 309.007 95.025 308.09 95.525C307.19 96.0083 306.124 96.25 304.89 96.25ZM311.557 84.5H317.307V86.375H311.557V84.5ZM313.432 80.5H315.432V96H313.432V80.5ZM320.213 92.45C320.213 92.8833 320.313 93.2583 320.513 93.575C320.729 93.8917 321.021 94.1333 321.388 94.3C321.771 94.45 322.204 94.525 322.688 94.525C323.304 94.525 323.854 94.4 324.338 94.15C324.838 93.9 325.229 93.55 325.513 93.1C325.813 92.6333 325.963 92.1 325.963 91.5L326.363 93C326.363 93.7333 326.138 94.3417 325.688 94.825C325.254 95.3083 324.713 95.6667 324.063 95.9C323.429 96.1333 322.796 96.25 322.163 96.25C321.463 96.25 320.804 96.1083 320.188 95.825C319.588 95.525 319.104 95.1 318.738 94.55C318.371 94 318.188 93.3333 318.188 92.55C318.188 91.4333 318.579 90.5417 319.363 89.875C320.163 89.1917 321.271 88.85 322.688 88.85C323.521 88.85 324.213 88.95 324.763 89.15C325.329 89.3333 325.779 89.55 326.113 89.8C326.446 90.0333 326.671 90.225 326.788 90.375V91.55C326.204 91.15 325.604 90.8667 324.988 90.7C324.371 90.5167 323.713 90.425 323.013 90.425C322.363 90.425 321.829 90.5083 321.413 90.675C321.013 90.8417 320.713 91.075 320.513 91.375C320.313 91.675 320.213 92.0333 320.213 92.45ZM319.913 87.15L318.938 85.675C319.371 85.3583 319.963 85.0417 320.713 84.725C321.479 84.4083 322.396 84.25 323.463 84.25C324.363 84.25 325.146 84.3917 325.813 84.675C326.496 84.9417 327.021 85.3333 327.388 85.85C327.771 86.3667 327.963 87 327.963 87.75V96H325.963V88.025C325.963 87.625 325.896 87.3 325.763 87.05C325.629 86.7833 325.438 86.575 325.188 86.425C324.954 86.275 324.679 86.1667 324.363 86.1C324.046 86.0333 323.713 86 323.363 86C322.796 86 322.279 86.0667 321.813 86.2C321.363 86.3333 320.979 86.4917 320.663 86.675C320.346 86.8583 320.096 87.0167 319.913 87.15ZM331.349 79.75C331.349 79.3667 331.482 79.0417 331.749 78.775C332.032 78.5083 332.357 78.375 332.724 78.375C333.107 78.375 333.432 78.5083 333.699 78.775C333.965 79.0417 334.099 79.3667 334.099 79.75C334.099 80.1167 333.965 80.4417 333.699 80.725C333.432 80.9917 333.107 81.125 332.724 81.125C332.357 81.125 332.032 80.9917 331.749 80.725C331.482 80.4417 331.349 80.1167 331.349 79.75ZM331.724 84.5H333.724V96H331.724V84.5ZM337.843 76.5H339.843V96H337.843V76.5ZM344.079 92.475C344.313 92.825 344.579 93.15 344.879 93.45C345.179 93.75 345.521 93.9917 345.904 94.175C346.304 94.3417 346.738 94.425 347.204 94.425C347.771 94.425 348.213 94.3 348.529 94.05C348.863 93.7833 349.029 93.425 349.029 92.975C349.029 92.575 348.896 92.2417 348.629 91.975C348.379 91.6917 348.054 91.4583 347.654 91.275C347.254 91.075 346.829 90.8917 346.379 90.725C345.879 90.525 345.371 90.2917 344.854 90.025C344.354 89.7417 343.929 89.3833 343.579 88.95C343.246 88.5 343.079 87.9417 343.079 87.275C343.079 86.5917 343.254 86.025 343.604 85.575C343.971 85.125 344.438 84.7917 345.004 84.575C345.588 84.3583 346.188 84.25 346.804 84.25C347.421 84.25 347.996 84.35 348.529 84.55C349.079 84.75 349.563 85.0167 349.979 85.35C350.396 85.6833 350.721 86.0667 350.954 86.5L349.354 87.525C349.038 87.0917 348.638 86.7333 348.154 86.45C347.688 86.1667 347.154 86.025 346.554 86.025C346.138 86.025 345.779 86.1167 345.479 86.3C345.179 86.4833 345.029 86.7667 345.029 87.15C345.029 87.45 345.146 87.7167 345.379 87.95C345.613 88.1833 345.913 88.3917 346.279 88.575C346.646 88.7583 347.029 88.9333 347.429 89.1C348.096 89.3667 348.704 89.6583 349.254 89.975C349.804 90.275 350.238 90.6417 350.554 91.075C350.888 91.5083 351.054 92.0667 351.054 92.75C351.054 93.75 350.688 94.5833 349.954 95.25C349.238 95.9167 348.288 96.25 347.104 96.25C346.338 96.25 345.646 96.1167 345.029 95.85C344.413 95.5667 343.888 95.2083 343.454 94.775C343.038 94.3417 342.721 93.9 342.504 93.45L344.079 92.475ZM360.308 84.5H366.058V86.375H360.308V84.5ZM365.858 78.9C365.691 78.6167 365.491 78.4417 365.258 78.375C365.041 78.2917 364.833 78.25 364.633 78.25C364.383 78.25 364.166 78.325 363.983 78.475C363.816 78.6083 363.683 78.8417 363.583 79.175C363.483 79.5083 363.433 79.95 363.433 80.5V96H361.433V80.25C361.433 79.3333 361.566 78.5833 361.833 78C362.099 77.4167 362.474 76.9833 362.958 76.7C363.458 76.4 364.058 76.25 364.758 76.25C365.124 76.25 365.449 76.3 365.733 76.4C366.016 76.5 366.258 76.625 366.458 76.775C366.674 76.925 366.841 77.0833 366.958 77.25L365.858 78.9ZM367.336 90.25C367.336 89.0833 367.594 88.05 368.111 87.15C368.644 86.25 369.361 85.5417 370.261 85.025C371.161 84.5083 372.169 84.25 373.286 84.25C374.419 84.25 375.428 84.5083 376.311 85.025C377.211 85.5417 377.919 86.25 378.436 87.15C378.969 88.05 379.236 89.0833 379.236 90.25C379.236 91.4 378.969 92.4333 378.436 93.35C377.919 94.25 377.211 94.9583 376.311 95.475C375.428 95.9917 374.419 96.25 373.286 96.25C372.169 96.25 371.161 95.9917 370.261 95.475C369.361 94.9583 368.644 94.25 368.111 93.35C367.594 92.4333 367.336 91.4 367.336 90.25ZM369.361 90.25C369.361 91.05 369.528 91.7583 369.861 92.375C370.211 92.9917 370.678 93.4833 371.261 93.85C371.861 94.2 372.536 94.375 373.286 94.375C374.036 94.375 374.703 94.2 375.286 93.85C375.886 93.4833 376.353 92.9917 376.686 92.375C377.036 91.7583 377.211 91.05 377.211 90.25C377.211 89.45 377.036 88.7417 376.686 88.125C376.353 87.4917 375.886 87 375.286 86.65C374.703 86.3 374.036 86.125 373.286 86.125C372.536 86.125 371.861 86.3 371.261 86.65C370.678 87 370.211 87.4917 369.861 88.125C369.528 88.7417 369.361 89.45 369.361 90.25ZM383.983 84.5V96H381.983V84.5H383.983ZM387.458 86.7C387.192 86.5 386.95 86.3583 386.733 86.275C386.517 86.175 386.242 86.125 385.908 86.125C385.408 86.125 385.017 86.25 384.733 86.5C384.45 86.75 384.25 87.0917 384.133 87.525C384.033 87.9583 383.983 88.45 383.983 89H383.083C383.083 88.0833 383.242 87.275 383.558 86.575C383.892 85.8583 384.317 85.2917 384.833 84.875C385.35 84.4583 385.875 84.25 386.408 84.25C386.825 84.25 387.208 84.3083 387.558 84.425C387.925 84.525 388.258 84.7333 388.558 85.05L387.458 86.7ZM400.048 91.5C400.048 92.4167 400.256 93.125 400.673 93.625C401.09 94.125 401.698 94.375 402.498 94.375C403.081 94.375 403.59 94.2583 404.023 94.025C404.473 93.775 404.815 93.4333 405.048 93C405.298 92.5667 405.423 92.0667 405.423 91.5V84.5H407.423V96H405.423V94.2C405.04 94.8833 404.565 95.4 403.998 95.75C403.431 96.0833 402.765 96.25 401.998 96.25C400.798 96.25 399.84 95.8417 399.123 95.025C398.406 94.2083 398.048 93.1167 398.048 91.75V84.5H400.048V91.5ZM413.058 101.5H411.058V84.5H413.058V101.5ZM422.683 90.25C422.683 91.4833 422.424 92.55 421.908 93.45C421.391 94.35 420.699 95.0417 419.833 95.525C418.983 96.0083 418.033 96.25 416.983 96.25C416.033 96.25 415.191 96.0083 414.458 95.525C413.741 95.0417 413.174 94.35 412.758 93.45C412.358 92.55 412.158 91.4833 412.158 90.25C412.158 89 412.358 87.9333 412.758 87.05C413.174 86.15 413.741 85.4583 414.458 84.975C415.191 84.4917 416.033 84.25 416.983 84.25C418.033 84.25 418.983 84.4917 419.833 84.975C420.699 85.4583 421.391 86.15 421.908 87.05C422.424 87.9333 422.683 89 422.683 90.25ZM420.658 90.25C420.658 89.3667 420.474 88.6167 420.108 88C419.758 87.3833 419.283 86.9167 418.683 86.6C418.099 86.2833 417.449 86.125 416.733 86.125C416.149 86.125 415.574 86.2833 415.008 86.6C414.441 86.9167 413.974 87.3833 413.608 88C413.241 88.6167 413.058 89.3667 413.058 90.25C413.058 91.1333 413.241 91.8833 413.608 92.5C413.974 93.1167 414.441 93.5833 415.008 93.9C415.574 94.2167 416.149 94.375 416.733 94.375C417.449 94.375 418.099 94.2167 418.683 93.9C419.283 93.5833 419.758 93.1167 420.108 92.5C420.474 91.8833 420.658 91.1333 420.658 90.25ZM434.065 76.5H436.065V96H434.065V76.5ZM424.44 90.25C424.44 89 424.699 87.9333 425.215 87.05C425.732 86.15 426.424 85.4583 427.29 84.975C428.157 84.4917 429.107 84.25 430.14 84.25C431.107 84.25 431.949 84.4917 432.665 84.975C433.382 85.4583 433.94 86.15 434.34 87.05C434.757 87.9333 434.965 89 434.965 90.25C434.965 91.4833 434.757 92.55 434.34 93.45C433.94 94.35 433.382 95.0417 432.665 95.525C431.949 96.0083 431.107 96.25 430.14 96.25C429.107 96.25 428.157 96.0083 427.29 95.525C426.424 95.0417 425.732 94.35 425.215 93.45C424.699 92.55 424.44 91.4833 424.44 90.25ZM426.465 90.25C426.465 91.1333 426.64 91.8833 426.99 92.5C427.357 93.1167 427.84 93.5833 428.44 93.9C429.04 94.2167 429.69 94.375 430.39 94.375C430.974 94.375 431.549 94.2167 432.115 93.9C432.682 93.5833 433.149 93.1167 433.515 92.5C433.882 91.8833 434.065 91.1333 434.065 90.25C434.065 89.3667 433.882 88.6167 433.515 88C433.149 87.3833 432.682 86.9167 432.115 86.6C431.549 86.2833 430.974 86.125 430.39 86.125C429.69 86.125 429.04 86.2833 428.44 86.6C427.84 86.9167 427.357 87.3833 426.99 88C426.64 88.6167 426.465 89.3667 426.465 90.25ZM440.598 92.45C440.598 92.8833 440.698 93.2583 440.898 93.575C441.115 93.8917 441.407 94.1333 441.773 94.3C442.157 94.45 442.59 94.525 443.073 94.525C443.69 94.525 444.24 94.4 444.723 94.15C445.223 93.9 445.615 93.55 445.898 93.1C446.198 92.6333 446.348 92.1 446.348 91.5L446.748 93C446.748 93.7333 446.523 94.3417 446.073 94.825C445.64 95.3083 445.098 95.6667 444.448 95.9C443.815 96.1333 443.182 96.25 442.548 96.25C441.848 96.25 441.19 96.1083 440.573 95.825C439.973 95.525 439.49 95.1 439.123 94.55C438.757 94 438.573 93.3333 438.573 92.55C438.573 91.4333 438.965 90.5417 439.748 89.875C440.548 89.1917 441.657 88.85 443.073 88.85C443.907 88.85 444.598 88.95 445.148 89.15C445.715 89.3333 446.165 89.55 446.498 89.8C446.832 90.0333 447.057 90.225 447.173 90.375V91.55C446.59 91.15 445.99 90.8667 445.373 90.7C444.757 90.5167 444.098 90.425 443.398 90.425C442.748 90.425 442.215 90.5083 441.798 90.675C441.398 90.8417 441.098 91.075 440.898 91.375C440.698 91.675 440.598 92.0333 440.598 92.45ZM440.298 87.15L439.323 85.675C439.757 85.3583 440.348 85.0417 441.098 84.725C441.865 84.4083 442.782 84.25 443.848 84.25C444.748 84.25 445.532 84.3917 446.198 84.675C446.882 84.9417 447.407 85.3333 447.773 85.85C448.157 86.3667 448.348 87 448.348 87.75V96H446.348V88.025C446.348 87.625 446.282 87.3 446.148 87.05C446.015 86.7833 445.823 86.575 445.573 86.425C445.34 86.275 445.065 86.1667 444.748 86.1C444.432 86.0333 444.098 86 443.748 86C443.182 86 442.665 86.0667 442.198 86.2C441.748 86.3333 441.365 86.4917 441.048 86.675C440.732 86.8583 440.482 87.0167 440.298 87.15ZM449.984 84.5H455.734V86.375H449.984V84.5ZM451.859 80.5H453.859V96H451.859V80.5ZM462.19 96.25C461.124 96.25 460.174 96 459.34 95.5C458.524 94.9833 457.882 94.275 457.415 93.375C456.965 92.475 456.74 91.4333 456.74 90.25C456.74 89.05 456.974 88 457.44 87.1C457.924 86.2 458.59 85.5 459.44 85C460.307 84.5 461.307 84.25 462.44 84.25C463.574 84.25 464.54 84.4917 465.34 84.975C466.157 85.4417 466.782 86.1167 467.215 87C467.649 87.8833 467.865 88.9333 467.865 90.15C467.865 90.2667 467.857 90.3917 467.84 90.525C467.84 90.6417 467.84 90.7167 467.84 90.75H458.015V89.05H466.265L465.465 90.2C465.515 90.1167 465.565 89.9917 465.615 89.825C465.665 89.6417 465.69 89.4917 465.69 89.375C465.69 88.6917 465.549 88.1 465.265 87.6C464.999 87.1 464.624 86.7083 464.14 86.425C463.657 86.1417 463.09 86 462.44 86C461.674 86 461.015 86.1667 460.465 86.5C459.932 86.8167 459.515 87.2833 459.215 87.9C458.932 88.5 458.782 89.2417 458.765 90.125C458.765 91.025 458.907 91.7917 459.19 92.425C459.474 93.0583 459.89 93.5417 460.44 93.875C460.99 94.2083 461.657 94.375 462.44 94.375C463.224 94.375 463.915 94.2083 464.515 93.875C465.115 93.525 465.624 93 466.04 92.3L467.665 93.325C467.065 94.2917 466.307 95.025 465.39 95.525C464.49 96.0083 463.424 96.25 462.19 96.25ZM471.081 92.475C471.315 92.825 471.581 93.15 471.881 93.45C472.181 93.75 472.523 93.9917 472.906 94.175C473.306 94.3417 473.74 94.425 474.206 94.425C474.773 94.425 475.215 94.3 475.531 94.05C475.865 93.7833 476.031 93.425 476.031 92.975C476.031 92.575 475.898 92.2417 475.631 91.975C475.381 91.6917 475.056 91.4583 474.656 91.275C474.256 91.075 473.831 90.8917 473.381 90.725C472.881 90.525 472.373 90.2917 471.856 90.025C471.356 89.7417 470.931 89.3833 470.581 88.95C470.248 88.5 470.081 87.9417 470.081 87.275C470.081 86.5917 470.256 86.025 470.606 85.575C470.973 85.125 471.44 84.7917 472.006 84.575C472.59 84.3583 473.19 84.25 473.806 84.25C474.423 84.25 474.998 84.35 475.531 84.55C476.081 84.75 476.565 85.0167 476.981 85.35C477.398 85.6833 477.723 86.0667 477.956 86.5L476.356 87.525C476.04 87.0917 475.64 86.7333 475.156 86.45C474.69 86.1667 474.156 86.025 473.556 86.025C473.14 86.025 472.781 86.1167 472.481 86.3C472.181 86.4833 472.031 86.7667 472.031 87.15C472.031 87.45 472.148 87.7167 472.381 87.95C472.615 88.1833 472.915 88.3917 473.281 88.575C473.648 88.7583 474.031 88.9333 474.431 89.1C475.098 89.3667 475.706 89.6583 476.256 89.975C476.806 90.275 477.24 90.6417 477.556 91.075C477.89 91.5083 478.056 92.0667 478.056 92.75C478.056 93.75 477.69 94.5833 476.956 95.25C476.24 95.9167 475.29 96.25 474.106 96.25C473.34 96.25 472.648 96.1167 472.031 95.85C471.415 95.5667 470.89 95.2083 470.456 94.775C470.04 94.3417 469.723 93.9 469.506 93.45L471.081 92.475ZM481.189 95C481.189 94.6167 481.323 94.2917 481.589 94.025C481.873 93.7583 482.198 93.625 482.564 93.625C482.948 93.625 483.273 93.7583 483.539 94.025C483.806 94.2917 483.939 94.6167 483.939 95C483.939 95.3667 483.806 95.6917 483.539 95.975C483.273 96.2417 482.948 96.375 482.564 96.375C482.198 96.375 481.873 96.2417 481.589 95.975C481.323 95.6917 481.189 95.3667 481.189 95Z" fill="white"/>
<path d="M61.89 124.569C96.0709 124.569 123.78 96.8599 123.78 62.679C123.78 28.4981 96.0709 0.789062 61.89 0.789062C27.7091 0.789062 0 28.4981 0 62.679C0 96.8599 27.7091 124.569 61.89 124.569Z" fill="white"/>
<path d="M60.3091 26.7344C65.3211 26.7334 70.1542 28.5966 73.8685 31.9616C77.5829 35.3266 79.9129 39.9528 80.4053 44.9405C80.8978 49.9282 79.5176 54.9207 76.5331 58.9471C73.5486 62.9736 69.1732 65.746 64.2579 66.7253C59.3425 67.7045 54.2387 66.8205 49.939 64.2453C45.6393 61.6701 42.4511 57.5877 40.9945 52.7921C39.5379 47.9965 39.9171 42.8305 42.0583 38.299C44.1994 33.7674 47.9495 30.1943 52.5791 28.2744C55.0296 27.2582 57.6563 26.7349 60.3091 26.7344ZM60.3091 28.8544C56.1296 28.8473 52.0769 30.29 48.8421 32.9367C45.6073 35.5834 43.3906 39.2701 42.57 43.3683C41.7493 47.4665 42.3755 51.7225 44.3418 55.4107C46.3081 59.0989 49.4927 61.9908 53.3527 63.5936C57.2128 65.1964 61.5092 65.4108 65.5096 64.2001C69.51 62.9895 72.9667 60.4288 75.2903 56.9547C77.6139 53.4805 78.6605 49.308 78.2519 45.1484C77.8432 40.9889 76.0044 37.0999 73.0491 34.1444C69.682 30.777 65.1211 28.8757 60.3591 28.8544H60.3091Z" fill="#5C036B"/>
<path d="M75.7601 78.7711C74.8309 77.8923 74.1043 76.8215 73.6311 75.6333C73.1579 74.4451 72.9494 73.1681 73.0201 71.8911C72.881 70.0578 73.1649 68.2171 73.8501 66.5111C74.7036 64.7744 76.1202 63.3782 77.8691 62.5501C79.618 61.722 81.5958 61.5108 83.4801 61.9511C85.3343 62.3524 86.9957 63.3753 88.1888 64.8504C89.382 66.3254 90.0351 68.1639 90.0401 70.0611C90.0401 71.3211 90.0001 72.5811 89.9201 73.8411C89.7271 75.4801 89.0037 77.0112 87.8601 78.2011L87.3801 78.7211C87.8673 78.7218 88.3531 78.772 88.8301 78.8711C89.9781 79.029 91.0371 79.5761 91.8301 80.421C92.6201 81.2584 93.0969 82.3428 93.1801 83.4911C93.3401 86.4911 93.1801 89.4911 93.1801 92.5511H91.1201V84.3511C91.1584 83.886 91.0935 83.4182 90.9301 82.981C90.687 82.32 90.2332 81.7572 89.6386 81.3795C89.0441 81.0019 88.3418 80.8302 87.6401 80.8911H75.5101C75.0342 80.8463 74.5543 80.9073 74.1048 81.0699C73.6553 81.2324 73.2473 81.4923 72.9101 81.8311C72.5744 82.1727 72.3213 82.5866 72.1701 83.041C72.0127 83.4899 71.9581 83.9683 72.0101 84.4411V92.5711H69.9001V84.5711C69.8432 83.8219 69.9452 83.0692 70.1996 82.3623C70.454 81.6554 70.855 81.0103 71.3762 80.4692C71.8974 79.9281 72.5272 79.5034 73.2241 79.2228C73.921 78.9422 74.6694 78.8122 75.4201 78.8411L75.7601 78.7711ZM88.0301 70.1511C86.389 69.9401 84.8092 69.3919 83.3901 68.541C83.1704 68.4616 82.9298 68.4616 82.7101 68.541C81.3801 68.861 80.0701 69.251 78.7101 69.541C77.5501 69.791 76.3701 69.9411 75.1601 70.1411V72.6811C75.1317 74.2595 75.6896 75.7924 76.7257 76.9834C77.7619 78.1744 79.2029 78.9389 80.77 79.1292C82.3371 79.3195 83.9192 78.922 85.2103 78.0136C86.5014 77.1052 87.4099 75.7504 87.7601 74.2111C87.9633 72.8672 88.0669 71.5102 88.0701 70.1511H88.0301ZM75.6101 67.9111C77.9596 67.6633 80.2701 67.1293 82.4901 66.3211C82.8051 66.1865 83.1511 66.1415 83.4901 66.1911C83.8223 66.2415 84.134 66.3835 84.3901 66.6011C85.278 67.299 86.3394 67.7415 87.4601 67.8811C87.0002 66.648 86.1551 65.5959 85.0501 64.8811C83.9483 64.1599 82.645 63.8096 81.3301 63.8811C80.0837 63.8846 78.8682 64.2698 77.8473 64.985C76.8265 65.7001 76.0492 66.7108 75.6201 67.8811L75.6101 67.9111Z" fill="#5C036B"/>
<path d="M44.9991 78.658C45.8379 78.7686 46.6647 78.956 47.4691 79.218C48.4135 79.5562 49.2328 80.1733 49.8186 80.9876C50.4043 81.8019 50.7288 82.7751 50.7491 83.778C50.8491 86.658 50.7491 89.568 50.7491 92.518H48.6491V84.3579C48.6894 83.8969 48.628 83.4326 48.4691 82.9979C48.23 82.3438 47.7822 81.7866 47.1947 81.4125C46.6073 81.0383 45.913 80.868 45.2191 80.9279H32.9291C32.4739 80.8911 32.0162 80.956 31.5891 81.1179C31.1654 81.2793 30.7804 81.528 30.4591 81.848C30.1412 82.1747 29.8929 82.5625 29.7291 82.9879C29.5672 83.415 29.5023 83.8727 29.5391 84.328V92.5679H27.3791V91.8879C27.3791 89.5379 27.4691 87.1879 27.3791 84.8879C27.2962 84.0904 27.3884 83.2844 27.6492 82.5261C27.91 81.7679 28.3332 81.0757 28.8891 80.4979C29.4541 79.9229 30.1362 79.4761 30.8891 79.1879C31.6373 78.8996 32.439 78.7768 33.2391 78.828C33.1291 78.678 33.0491 78.558 32.9591 78.458C32.1895 77.6817 31.5871 76.756 31.1891 75.7379C30.788 74.7201 30.5975 73.6315 30.6291 72.5379C30.5755 71.0862 30.6626 69.6328 30.8891 68.1979C31.3847 66.1985 32.591 64.4478 34.2829 63.2728C35.9748 62.0977 38.0366 61.5788 40.0831 61.8127C42.1297 62.0466 44.0212 63.0175 45.4043 64.544C46.7874 66.0705 47.5676 68.0483 47.5991 70.1079C47.6391 71.2815 47.6191 72.4564 47.5391 73.6279C47.3305 75.5572 46.4278 77.3448 44.9991 78.658ZM32.7591 69.268V72.5679C32.7175 73.7148 33.0101 74.849 33.6013 75.8325C34.1925 76.8161 35.0568 77.6066 36.0891 78.1079C37.1349 78.6789 38.3196 78.9456 39.5091 78.8779C40.7004 78.8066 41.849 78.4088 42.8291 77.7279C43.9276 77.0256 44.7505 75.9661 45.1591 74.7279C45.7591 72.9579 45.4391 71.158 45.4891 69.348L32.7591 69.268ZM33.5491 67.0479H44.7191C43.8096 65.5838 42.3686 64.5287 40.6983 64.1036C39.0279 63.6786 37.2578 63.9167 35.7591 64.768C34.8252 65.3214 34.0502 66.1068 33.5091 67.0479H33.5491Z" fill="#5C036B"/>
<path d="M66.3405 60.1661C64.7362 60.1352 63.2074 59.4785 62.0805 58.3361C57.4805 53.7861 52.8805 49.2361 48.3405 44.5861C47.1866 43.4287 46.5328 41.8647 46.5197 40.2304C46.5066 38.5961 47.1353 37.0219 48.2705 35.8461C48.7705 35.3061 49.2705 34.7861 49.8205 34.3061C50.6646 33.5027 51.7852 33.0547 52.9505 33.0547C54.1158 33.0547 55.2365 33.5027 56.0805 34.3061C56.5505 34.7461 57.0105 35.2061 57.4505 35.6761C58.2422 36.4982 58.696 37.5878 58.7219 38.7288C58.7478 39.8698 58.344 40.9789 57.5905 41.8361C56.9705 42.5561 56.9805 42.7461 57.6505 43.3761L63.2305 48.9661C63.8805 49.6161 64.0605 49.6161 64.7805 48.9661C65.6402 48.2153 66.7507 47.815 67.8917 47.8446C69.0328 47.8742 70.121 48.3316 70.9405 49.1261C71.4205 49.5761 71.8505 50.0361 72.3405 50.5361C73.1128 51.3759 73.5415 52.4752 73.5415 53.6161C73.5415 54.757 73.1128 55.8563 72.3405 56.6961C71.0605 58.1061 69.7505 59.5061 67.7805 59.8761C67.3005 60.0661 66.8105 60.0961 66.3405 60.1661ZM66.5505 58.1661C67.2485 58.0396 67.923 57.8069 68.5505 57.4761C69.4885 56.7862 70.3412 55.9873 71.0905 55.0961C71.4089 54.66 71.5613 54.1246 71.5205 53.5861C71.4786 53.0499 71.2525 52.5446 70.8805 52.1561C70.4805 51.7161 70.0505 51.2961 69.6205 50.8861C69.2896 50.5292 68.8583 50.2808 68.3835 50.1737C67.9087 50.0666 67.4126 50.1058 66.9605 50.2861C66.6611 50.4029 66.3888 50.5799 66.1605 50.8061C65.8783 51.1001 65.5376 51.3317 65.1605 51.4861C64.7848 51.6451 64.378 51.7169 63.9705 51.6961C63.5634 51.6818 63.1643 51.5794 62.8005 51.3961C62.4379 51.215 62.1203 50.9553 61.8705 50.6361L56.2805 45.0561C54.7305 43.5061 54.6705 42.2361 56.0505 40.4961C56.4615 40.0388 56.6805 39.4406 56.6619 38.826C56.6433 38.2115 56.3885 37.6277 55.9505 37.1961C55.5405 36.7761 55.1405 36.3661 54.7205 35.9761C54.3834 35.6281 53.949 35.3903 53.4742 35.2939C52.9994 35.1976 52.5066 35.2471 52.0605 35.4361C51.7602 35.5603 51.488 35.744 51.2605 35.9761C50.8005 36.4061 50.3505 36.8861 49.9105 37.3261C49.1423 38.0998 48.7112 39.1458 48.7112 40.2361C48.7112 41.3264 49.1423 42.3724 49.9105 43.1461C54.4605 47.6961 59.0205 52.2461 63.5705 56.8461C64.379 57.6151 65.4362 58.0691 66.5505 58.1261V58.1661Z" fill="#5C036B"/>
<path d="M71.23 43.3491L69.23 43.7491C68.8947 42.16 68.1022 40.7036 66.95 39.5591C65.7983 38.4131 64.3397 37.6247 62.75 37.2891L63.09 35.2891C66.36 35.2791 70.31 39.1191 71.23 43.3491Z" fill="#5C036B"/>
<path d="M67.1501 44.1462L65.3201 44.6462C64.619 43.0978 63.3786 41.8573 61.8301 41.1562L62.2601 39.4062C63.9201 39.4062 66.6201 41.5662 67.1501 44.1462Z" fill="#5C036B"/>
</svg>
