<svg width="491" height="317" viewBox="0 0 491 317" fill="none" xmlns="http://www.w3.org/2000/svg">
<path d="M156.06 0V2.38C153.826 2.23908 151.599 2.74975 149.65 3.85C148.19 4.83 147.03 6.66 146.17 9.34L111.92 120.9H103.31L78 38.28L52.75 120.9H44L9.89 9.34C8.55667 4.67333 5.26 2.34 0 2.34V0H41.76V2.38C38.95 2.38 37.4 3.05 37.09 4.38C36.8134 6.03873 36.9719 7.74085 37.55 9.32L61 86.09L76.75 34.25L69.06 9.34C67.7267 4.67333 64.43 2.34 59.17 2.34V0H100.93V2.38C98.24 2.38 96.72 3.05 96.35 4.38C95.996 6.02801 96.1245 7.74311 96.72 9.32L120.16 86.07L143.61 9.34C144.177 7.73752 144.335 6.01899 144.07 4.34C143.757 3.06 142.2 2.42 139.4 2.42V0H156.06Z" fill="#FFD100"/>
<path d="M177.861 111.55C177.861 114.363 178.321 116.227 179.241 117.14C180.151 118.06 182.011 118.51 184.821 118.51V120.9H147.461V118.51C150.141 118.51 151.971 118.06 152.951 117.14C153.931 116.22 154.421 114.36 154.421 111.55V50.37C154.421 47.5633 153.931 45.7033 152.951 44.79C151.971 43.8767 150.141 43.4167 147.461 43.41V41H177.861V111.55Z" fill="#FFD100"/>
<path d="M260.84 117.142C261.84 118.062 263.65 118.512 266.33 118.512V120.902H229V118.512C231.8 118.512 233.67 118.062 234.58 117.142C235.49 116.222 235.96 114.362 235.96 111.552V66.4916C235.958 64.1966 235.835 61.9034 235.59 59.6216C235.404 57.6148 234.943 55.6431 234.22 53.7616C233.615 52.209 232.603 50.848 231.29 49.8216C229.876 48.811 228.167 48.2975 226.43 48.3616C224.991 48.3518 223.607 48.9128 222.58 49.9216C221.359 51.1381 220.367 52.5641 219.65 54.1316C218.757 55.9989 218.102 57.971 217.7 60.0016C217.272 62.1416 217.057 64.319 217.06 66.5016V111.562C217.06 114.375 217.517 116.238 218.43 117.152C219.35 118.072 221.21 118.522 224.02 118.522V120.912H186.65V118.522C189.34 118.522 191.17 118.072 192.15 117.152C193.13 116.232 193.61 114.372 193.61 111.562V50.5616C193.61 47.7482 193.124 45.8549 192.15 44.8816C191.177 43.9082 189.344 43.4182 186.65 43.4116V41.0016H217.06V55.5016C217.503 53.7536 218.175 52.0722 219.06 50.5016C220.061 48.6943 221.398 47.0955 223 45.7916C224.815 44.3615 226.839 43.2182 229 42.4016C231.503 41.4475 234.162 40.9726 236.84 41.0016C239.911 40.9704 242.968 41.402 245.91 42.2816C248.609 43.1073 251.062 44.588 253.05 46.5916C255.199 48.8154 256.798 51.5103 257.72 54.4616C258.914 58.3465 259.471 62.3988 259.37 66.4616V111.522C259.37 114.355 259.86 116.228 260.84 117.142Z" fill="#FFD100"/>
<path d="M358.65 111.551C358.65 114.364 359.14 116.228 360.12 117.141C361.12 118.061 362.92 118.511 365.61 118.511V120.901H348.21C346.446 120.97 344.688 120.653 343.06 119.973C341.431 119.292 339.97 118.264 338.78 116.961C336.396 114.333 335.114 110.888 335.2 107.341C333.129 111.019 330.288 114.205 326.87 116.681C323.357 119.338 319.094 120.815 314.69 120.901C309.19 121.021 304.733 119.524 301.32 116.411C297.907 113.298 296.073 108.991 295.82 103.491C295.437 98.8985 296.552 94.3056 299 90.4009C301.542 86.6517 304.979 83.5961 309 81.5109C311.418 80.1225 313.927 78.8996 316.51 77.8509C319.177 76.7509 321.74 75.6809 324.2 74.6409C326.459 73.6999 328.662 72.6315 330.8 71.4409C332.511 70.5485 334.008 69.2965 335.19 67.7709C335.19 64.1109 335.16 60.7543 335.1 57.7009C335.103 55.1079 334.801 52.5234 334.2 50.0009C333.772 48.1289 332.781 46.4328 331.36 45.1409C329.68 43.8745 327.599 43.2567 325.5 43.4009C322.167 43.4009 319.693 44.2576 318.08 45.9709C316.41 47.7172 315.378 49.9755 315.15 52.3809C314.851 55.0894 315.099 57.8303 315.88 60.4409C316.601 63.1251 317.745 65.6772 319.27 68.0009L301.32 75.6909C300.019 71.0793 299.678 66.2495 300.32 61.5009C300.885 57.5345 302.462 53.7805 304.9 50.6009C307.398 47.4526 310.682 45.0177 314.42 43.5409C318.814 41.7904 323.511 40.9272 328.24 41.0009C332.985 40.919 337.723 41.4126 342.35 42.4709C345.878 43.2457 349.134 44.9515 351.78 47.4109C354.307 49.9905 356.108 53.1918 357 56.6909C358.196 61.3266 358.751 66.1044 358.65 70.8909V111.551ZM335.2 71.8009C332.286 73.3544 329.474 75.0913 326.78 77.0009C324.469 78.6475 322.457 80.6767 320.83 83.0009C319.251 85.309 318.102 87.8838 317.44 90.6009C316.675 93.8767 316.489 97.261 316.89 100.601C317.036 103.491 317.917 106.296 319.45 108.751C319.952 109.582 320.63 110.292 321.437 110.832C322.244 111.371 323.16 111.726 324.12 111.871C326.177 111.955 328.195 111.291 329.8 110.001C332.141 108.193 333.996 105.833 335.2 103.131V71.8009Z" fill="#FFD100"/>
<path d="M318.001 293.418C315.979 296.917 313.448 300.095 310.491 302.848C307.441 305.718 304.057 308.209 300.411 310.268C296.77 312.34 292.896 313.971 288.871 315.128C284.943 316.274 280.872 316.86 276.781 316.868C266.281 316.868 257.214 315.432 249.581 312.558C242.381 309.95 235.755 305.97 230.071 300.838C224.701 295.891 220.211 290.069 216.791 283.618C213.241 276.919 210.418 269.859 208.371 262.558C206.229 254.976 204.559 247.268 203.371 239.478C202.151 231.598 201.051 223.872 200.071 216.298C199.091 208.725 198.114 201.522 197.141 194.688C196.312 188.482 194.974 182.355 193.141 176.368L162.731 275.838H153.941L119.611 164.278C118.277 159.612 114.981 157.278 109.721 157.278V154.898H151.661V157.278C148.981 157.278 147.451 157.958 147.081 159.278C146.74 160.927 146.868 162.639 147.451 164.218L170.901 240.998L191.601 172.678C189.981 168.424 187.448 164.577 184.181 161.408C180.979 158.589 176.813 157.113 172.551 157.288H169.071V154.908H172.551C181.344 154.908 188.701 157.505 194.621 162.698C200.968 168.451 206.131 175.387 209.821 183.118C214.299 192.225 217.918 201.73 220.631 211.508C223.624 222.022 226.524 232.585 229.331 243.198L253.511 164.248C254.087 162.647 254.215 160.918 253.881 159.248C253.507 157.955 251.981 157.312 249.301 157.318V154.938H266.001V157.318C263.797 157.198 261.605 157.708 259.681 158.788C258.154 159.768 256.961 161.598 256.101 164.278L230.641 247.438C232.961 256.238 235.464 264.695 238.151 272.808C240.538 280.236 243.635 287.416 247.401 294.248C250.479 299.946 254.676 304.963 259.741 308.998C264.624 312.699 270.616 314.637 276.741 314.498C280.37 314.605 283.946 313.611 287.001 311.648C289.821 309.759 292.207 307.291 294.001 304.408C295.874 301.384 297.324 298.117 298.311 294.698C299.304 291.337 300.069 287.913 300.601 284.448L318.001 293.418Z" fill="#FFD100"/>
<path d="M287.759 266.49C287.759 269.31 288.219 271.173 289.139 272.08C290.059 272.987 291.919 273.447 294.719 273.46V275.84H257.359V273.46C260.026 273.46 261.856 273 262.849 272.08C263.843 271.16 264.333 269.297 264.319 266.49V205.31C264.319 202.51 263.829 200.64 262.849 199.73C261.869 198.82 260.039 198.35 257.359 198.35V196H287.759V266.49Z" fill="#FFD100"/>
<path d="M332.089 225.826L341.089 231.226C343.905 232.9 346.468 234.968 348.699 237.366C350.826 239.68 352.42 242.431 353.369 245.426C354.356 249.019 354.418 252.803 353.549 256.426C352.329 263.146 349.186 268.123 344.119 271.356C338.715 274.68 332.462 276.365 326.119 276.206C321.029 276.241 315.984 275.244 311.289 273.276C306.545 271.279 302.181 268.478 298.389 264.996L303.699 246.496C304.799 249.43 305.959 252.483 307.179 255.656C308.322 258.679 309.794 261.566 311.569 264.266C313.182 266.726 315.232 268.868 317.619 270.586C320.095 272.277 323.042 273.141 326.039 273.056C328.734 273.145 331.358 272.192 333.369 270.396C335.226 268.775 336.565 266.643 337.219 264.266C337.865 262.066 337.636 259.702 336.579 257.666C335.469 255.759 333.97 254.106 332.179 252.816C330.245 251.387 328.191 250.129 326.039 249.056C323.849 247.956 321.889 246.926 320.179 245.946C317.246 244.24 314.346 242.406 311.479 240.446C308.736 238.605 306.224 236.439 303.999 233.996C301.873 231.633 300.253 228.859 299.239 225.846C298.183 222.465 298.025 218.867 298.779 215.406C299.999 208.686 303.176 203.71 308.309 200.476C313.717 197.16 319.967 195.476 326.309 195.626C331.434 195.574 336.515 196.571 341.239 198.556C345.914 200.571 350.217 203.356 353.969 206.796L348.839 225.296C347.739 222.363 346.579 219.31 345.359 216.136C344.207 213.099 342.7 210.209 340.869 207.526C339.207 205.077 337.129 202.938 334.729 201.206C332.255 199.512 329.307 198.647 326.309 198.736C323.648 198.684 321.064 199.634 319.069 201.396C317.165 202.994 315.791 205.131 315.129 207.526C314.483 209.727 314.713 212.091 315.769 214.126C316.879 216.034 318.378 217.687 320.169 218.976C322.1 220.409 324.155 221.667 326.309 222.736C328.456 223.816 330.382 224.846 332.089 225.826Z" fill="#FFD100"/>
<path d="M406.46 214.658C406.253 212.659 405.823 210.691 405.18 208.787C404.639 207.208 403.653 205.819 402.34 204.787C400.926 203.777 399.217 203.263 397.48 203.327C396.762 203.325 396.05 203.47 395.389 203.754C394.729 204.038 394.133 204.454 393.64 204.977C392.429 206.238 391.435 207.691 390.7 209.277C389.82 211.144 389.175 213.112 388.78 215.137C388.358 217.218 388.144 219.335 388.14 221.458V266.517C388.14 269.337 388.627 271.201 389.6 272.107C390.574 273.014 392.407 273.474 395.1 273.487V275.867H357.73V273.487C360.397 273.487 362.23 273.027 363.23 272.107C364.23 271.187 364.717 269.324 364.69 266.517V164.277C364.69 161.477 364.2 159.607 363.23 158.697C362.26 157.787 360.42 157.318 357.73 157.318V154.938H395.1V157.318C392.434 157.318 390.6 157.777 389.6 158.697C388.6 159.607 388.14 161.477 388.14 164.277V210.807C389.071 206.431 391.581 202.551 395.19 199.908C398.84 197.281 403.244 195.908 407.74 195.997C414.327 195.997 419.73 197.891 423.95 201.677C428.17 205.464 430.277 212.058 430.27 221.458V262.307C430.27 266.307 430.3 270.641 430.36 275.307C430.388 279.691 430.942 284.056 432.01 288.307C432.955 292.161 434.845 295.718 437.51 298.658C440.13 301.531 444.007 303.334 449.14 304.068C452.322 304.583 455.584 304.101 458.48 302.688C461.344 301.243 463.919 299.287 466.08 296.918C468.363 294.441 470.39 291.741 472.13 288.857C473.89 285.931 475.447 283.124 476.8 280.438L490.53 294.357C484.856 299.323 478.121 302.925 470.84 304.888C463.603 306.886 456.05 307.476 448.59 306.628C434.91 304.914 424.53 299.998 417.45 291.878C410.37 283.758 406.827 272.861 406.82 259.188V221.427C406.823 219.166 406.703 216.906 406.46 214.658Z" fill="#FFD100"/>
<path d="M146.17 9.34C147.03 6.67333 148.19 4.84333 149.65 3.85C151.599 2.74975 153.826 2.23908 156.06 2.38V0H139.4V2.38C142.2 2.38 143.757 3.02 144.07 4.3C144.335 5.97899 144.177 7.69752 143.61 9.3L120.16 86.09L96.72 9.34C96.1245 7.76311 95.996 6.04801 96.35 4.4C96.72 3.05 98.24 2.4 100.93 2.4V0H59.17V2.38C64.41 2.38 67.7067 4.71333 69.06 9.38L76.75 34.29L61 86.09L37.55 9.34C36.9719 7.76085 36.8134 6.05873 37.09 4.4C37.4 3.05 38.95 2.4 41.76 2.4V0H0V2.38C5.25333 2.38 8.55 4.71333 9.89 9.38L44 120.9H52.79L78 38.28L103.28 120.9H111.89L146.17 9.34Z" fill="#FFD100"/>
<path d="M177.861 41H147.461V43.38C150.128 43.38 151.958 43.84 152.951 44.76C153.951 45.67 154.421 47.54 154.421 50.34V111.52C154.421 114.333 153.931 116.197 152.951 117.11C151.951 118.03 150.141 118.48 147.461 118.48V120.87H184.821V118.48C182.011 118.48 180.151 118.03 179.241 117.11C178.331 116.19 177.861 114.33 177.861 111.52V41Z" fill="#FFD100"/>
<path d="M224 118.511C221.19 118.511 219.33 118.061 218.41 117.141C217.49 116.221 217.04 114.361 217.04 111.551V66.4912C217.037 64.3087 217.252 62.1313 217.68 59.9913C218.073 57.9654 218.718 55.9968 219.6 54.1312C220.317 52.5638 221.309 51.1378 222.53 49.9212C223.557 48.9124 224.941 48.3515 226.38 48.3612C228.117 48.2972 229.826 48.8106 231.24 49.8212C232.553 50.8477 233.565 52.2087 234.17 53.7612C234.892 55.6432 235.352 57.6147 235.54 59.6212C235.785 61.9031 235.908 64.1963 235.91 66.4912V111.551C235.91 114.365 235.45 116.228 234.53 117.141C233.62 118.061 231.75 118.511 228.95 118.511V120.901H266.31V118.511C263.63 118.511 261.79 118.061 260.82 117.141C259.85 116.221 259.35 114.361 259.35 111.551V66.4912C259.451 62.4284 258.894 58.3761 257.7 54.4913C256.778 51.54 255.179 48.845 253.03 46.6212C251.042 44.6176 248.589 43.137 245.89 42.3112C242.956 41.4235 239.906 40.9819 236.84 41.0012C234.162 40.9723 231.503 41.4472 229 42.4013C226.838 43.2156 224.814 44.3591 223 45.7912C221.402 47.0834 220.065 48.6683 219.06 50.4612C218.175 52.0319 217.503 53.7133 217.06 55.4612V41.0012H186.65V43.3812C189.317 43.3812 191.15 43.8712 192.15 44.8512C193.15 45.8312 193.637 47.7246 193.61 50.5312V111.531C193.61 114.345 193.124 116.208 192.15 117.121C191.15 118.041 189.34 118.491 186.65 118.491V120.881H224V118.511Z" fill="#FFD100"/>
<path d="M301.319 116.409C304.732 119.516 309.189 121.012 314.689 120.899C319.094 120.818 323.358 119.34 326.869 116.679C330.287 114.203 333.129 111.017 335.199 107.339C335.113 110.886 336.395 114.331 338.779 116.959C339.97 118.262 341.43 119.29 343.059 119.971C344.688 120.651 346.445 120.968 348.209 120.899H365.609V118.509C362.919 118.509 361.089 118.059 360.119 117.139C359.149 116.219 358.649 114.359 358.649 111.549V70.8891C358.751 66.1026 358.195 61.3248 356.999 56.6891C356.102 53.2008 354.302 50.0103 351.779 47.4391C349.133 44.9797 345.877 43.2739 342.349 42.4991C337.724 41.4307 332.986 40.927 328.239 40.9991C323.512 40.9062 318.812 41.7455 314.409 43.4691C310.674 44.9504 307.391 47.3845 304.889 50.5291C302.453 53.7061 300.876 57.4563 300.309 61.4191C299.666 66.171 300.007 71.0043 301.309 75.6191L319.269 67.9991C317.749 65.6908 316.605 63.1559 315.879 60.4891C315.098 57.8785 314.85 55.1376 315.149 52.4291C315.373 50.0167 316.405 47.7506 318.079 45.9991C319.732 44.2925 322.206 43.4358 325.499 43.4291C327.598 43.2849 329.679 43.9027 331.359 45.1691C332.775 46.453 333.765 48.1379 334.199 49.9991C334.803 52.518 335.108 55.099 335.109 57.6891C335.169 60.7358 335.199 64.0925 335.199 67.7591C334.018 69.2847 332.52 70.5367 330.809 71.4291C328.671 72.6197 326.468 73.6881 324.209 74.6291C321.769 75.6691 319.206 76.7391 316.519 77.8391C313.932 78.8907 311.42 80.1168 308.999 81.5091C304.978 83.5943 301.541 86.6499 298.999 90.3991C296.541 94.3003 295.415 98.8934 295.789 103.489C296.062 108.989 297.906 113.296 301.319 116.409ZM317.439 90.5791C318.101 87.862 319.25 85.2872 320.829 82.9791C322.456 80.6549 324.469 78.6257 326.779 76.9791C329.472 75.0626 332.285 73.3191 335.199 71.7591V103.089C333.995 105.791 332.14 108.151 329.799 109.959C328.189 111.235 326.171 111.885 324.119 111.789C323.159 111.644 322.243 111.289 321.436 110.75C320.629 110.211 319.951 109.5 319.449 108.669C317.916 106.215 317.035 103.409 316.889 100.519C316.495 97.199 316.681 93.8356 317.439 90.5791Z" fill="#FFD100"/>
<path d="M298.301 294.696C297.314 298.114 295.864 301.381 293.991 304.406C292.197 307.289 289.811 309.757 286.991 311.646C283.935 313.606 280.359 314.596 276.731 314.486C270.605 314.63 264.612 312.691 259.731 308.986C254.655 304.958 250.447 299.944 247.361 294.246C243.595 287.414 240.498 280.234 238.111 272.806C235.444 264.686 232.941 256.23 230.601 247.436L256.061 164.276C256.921 161.61 258.114 159.78 259.641 158.786C261.562 157.707 263.75 157.197 265.951 157.316V154.936H249.301V157.316C251.967 157.316 253.494 157.96 253.881 159.246C254.215 160.916 254.087 162.644 253.511 164.246L229.331 243.196C226.517 232.576 223.617 222.013 220.631 211.506C217.918 201.727 214.299 192.223 209.821 183.116C206.131 175.385 200.968 168.449 194.621 162.696C188.687 157.51 181.331 154.913 172.551 154.906H169.071V157.286H172.551C176.813 157.111 180.979 158.587 184.181 161.406C187.448 164.575 189.981 168.422 191.601 172.676L170.901 240.996L147.451 164.246C146.868 162.667 146.74 160.955 147.081 159.306C147.451 157.966 148.981 157.306 151.661 157.306V154.926H109.721V157.306C114.974 157.306 118.271 159.64 119.611 164.306L153.861 275.866H162.651L193.061 176.396C194.894 182.383 196.232 188.51 197.061 194.716C198.061 201.57 199.041 208.766 200.001 216.306C200.961 223.846 202.061 231.57 203.301 239.476C204.489 247.265 206.159 254.973 208.301 262.556C210.348 269.856 213.171 276.917 216.721 283.616C220.141 290.066 224.631 295.889 230.001 300.836C235.685 305.968 242.311 309.948 249.511 312.556C257.137 315.43 266.204 316.866 276.711 316.866C280.802 316.857 284.873 316.272 288.801 315.126C296.874 312.797 304.282 308.593 310.421 302.856C313.376 300.097 315.906 296.916 317.931 293.416L300.531 284.416C300.02 287.889 299.275 291.324 298.301 294.696Z" fill="#FFD100"/>
<path d="M287.759 196H257.359V198.38C260.026 198.38 261.856 198.84 262.849 199.76C263.849 200.67 264.319 202.54 264.319 205.34V266.52C264.319 269.34 263.829 271.203 262.849 272.11C261.869 273.017 260.039 273.477 257.359 273.49V275.87H294.719V273.49C291.906 273.49 290.046 273.03 289.139 272.11C288.233 271.19 287.773 269.327 287.759 266.52V196Z" fill="#FFD100"/>
<path d="M348.67 237.37C346.436 234.975 343.874 232.908 341.06 231.23L332.06 225.83C330.35 224.83 328.4 223.83 326.2 222.72C324.046 221.651 321.991 220.393 320.06 218.96C318.269 217.671 316.77 216.018 315.66 214.11C314.603 212.075 314.374 209.711 315.02 207.51C315.682 205.115 317.056 202.978 318.96 201.38C320.954 199.618 323.538 198.668 326.2 198.72C329.197 198.629 332.146 199.494 334.62 201.19C337.02 202.922 339.098 205.061 340.76 207.51C342.591 210.193 344.098 213.083 345.25 216.12C346.47 219.3 347.63 222.354 348.73 225.28L353.86 206.78C350.108 203.34 345.805 200.554 341.13 198.54C336.404 196.56 331.324 195.563 326.2 195.61C319.858 195.464 313.609 197.147 308.2 200.46C303.073 203.7 299.896 208.677 298.67 215.39C297.915 218.851 298.074 222.449 299.13 225.83C300.174 228.86 301.832 231.641 304 234C306.231 236.463 308.753 238.645 311.51 240.5C314.383 242.46 317.283 244.294 320.21 246C321.92 247 323.88 248 326.07 249.11C328.222 250.183 330.276 251.441 332.21 252.87C334.001 254.16 335.5 255.813 336.61 257.72C337.666 259.756 337.896 262.12 337.25 264.32C336.599 266.699 335.26 268.832 333.4 270.45C331.391 272.249 328.765 273.202 326.07 273.11C323.073 273.195 320.126 272.331 317.65 270.64C315.263 268.922 313.212 266.78 311.6 264.32C309.825 261.62 308.353 258.733 307.21 255.71C305.99 252.53 304.83 249.477 303.73 246.55L298.39 265C302.162 268.458 306.498 271.245 311.21 273.24C315.89 275.213 320.921 276.22 326 276.2C332.343 276.359 338.595 274.674 344 271.35C349.06 268.117 352.203 263.14 353.43 256.42C354.298 252.797 354.236 249.013 353.25 245.42C352.326 242.436 350.763 239.689 348.67 237.37Z" fill="#FFD100"/>
<path d="M476.8 280.418C475.467 283.084 473.91 285.891 472.13 288.837C470.39 291.721 468.363 294.421 466.08 296.897C463.919 299.267 461.344 301.223 458.48 302.668C455.584 304.081 452.322 304.563 449.14 304.047C444.014 303.307 440.137 301.504 437.51 298.638C434.845 295.698 432.955 292.141 432.01 288.288C430.942 284.036 430.388 279.671 430.36 275.288C430.3 270.621 430.27 266.288 430.27 262.288V221.427C430.27 212.027 428.164 205.434 423.95 201.647C419.737 197.861 414.334 195.977 407.74 195.997C403.241 195.917 398.837 197.3 395.19 199.938C391.581 202.581 389.071 206.461 388.14 210.837V164.277C388.14 161.477 388.63 159.607 389.61 158.697C390.59 157.787 392.41 157.318 395.1 157.318V154.938H357.73V157.318C360.397 157.318 362.23 157.777 363.23 158.697C364.23 159.607 364.69 161.477 364.69 164.277V266.487C364.69 269.307 364.204 271.171 363.23 272.077C362.257 272.984 360.424 273.444 357.73 273.457V275.837H395.1V273.457C392.434 273.457 390.604 272.997 389.61 272.077C388.617 271.157 388.127 269.294 388.14 266.487V221.427C388.144 219.305 388.358 217.188 388.78 215.107C389.175 213.082 389.82 211.114 390.7 209.247C391.436 207.664 392.426 206.211 393.63 204.947C394.126 204.425 394.723 204.009 395.385 203.725C396.047 203.441 396.76 203.296 397.48 203.298C399.219 203.232 400.93 203.749 402.34 204.768C403.657 205.793 404.641 207.185 405.17 208.768C405.823 210.665 406.255 212.631 406.46 214.628C406.703 216.876 406.823 219.136 406.82 221.397V259.138C406.82 272.818 410.364 283.714 417.45 291.827C424.537 299.941 434.917 304.857 448.59 306.577C456.05 307.426 463.603 306.836 470.84 304.837C478.123 302.879 484.859 299.277 490.53 294.307L476.8 280.418Z" fill="#FFD100"/>
<g opacity="0.76">
<path d="M146.17 9.34C147.03 6.67333 148.19 4.84333 149.65 3.85C151.599 2.74975 153.826 2.23908 156.06 2.38V0H139.4V2.38C142.2 2.38 143.757 3.02 144.07 4.3C144.335 5.97899 144.177 7.69752 143.61 9.3L120.16 86.09L96.72 9.34C96.1245 7.76311 95.996 6.04801 96.35 4.4C96.72 3.05 98.24 2.4 100.93 2.4V0H59.17V2.38C64.41 2.38 67.7067 4.71333 69.06 9.38L76.75 34.29L61 86.09L37.55 9.34C36.9719 7.76085 36.8134 6.05873 37.09 4.4C37.4 3.05 38.95 2.4 41.76 2.4V0H0V2.38C5.25333 2.38 8.55 4.71333 9.89 9.38L44 120.9H52.79L78 38.28L103.28 120.9H111.89L146.17 9.34Z" fill="url(#paint0_linear_12_1566)"/>
<path d="M177.861 41H147.461V43.38C150.128 43.38 151.958 43.84 152.951 44.76C153.951 45.67 154.421 47.54 154.421 50.34V111.52C154.421 114.333 153.931 116.197 152.951 117.11C151.951 118.03 150.141 118.48 147.461 118.48V120.87H184.821V118.48C182.011 118.48 180.151 118.03 179.241 117.11C178.331 116.19 177.861 114.33 177.861 111.52V41Z" fill="url(#paint1_linear_12_1566)"/>
<path d="M224 118.511C221.19 118.511 219.33 118.061 218.41 117.141C217.49 116.221 217.04 114.361 217.04 111.551V66.4912C217.037 64.3087 217.252 62.1313 217.68 59.9913C218.073 57.9654 218.718 55.9968 219.6 54.1312C220.317 52.5638 221.309 51.1378 222.53 49.9212C223.557 48.9124 224.941 48.3515 226.38 48.3612C228.117 48.2972 229.826 48.8106 231.24 49.8212C232.553 50.8477 233.565 52.2087 234.17 53.7612C234.892 55.6432 235.352 57.6147 235.54 59.6212C235.785 61.9031 235.908 64.1963 235.91 66.4912V111.551C235.91 114.365 235.45 116.228 234.53 117.141C233.62 118.061 231.75 118.511 228.95 118.511V120.901H266.31V118.511C263.63 118.511 261.79 118.061 260.82 117.141C259.85 116.221 259.35 114.361 259.35 111.551V66.4912C259.451 62.4284 258.894 58.3761 257.7 54.4913C256.778 51.54 255.179 48.845 253.03 46.6212C251.042 44.6176 248.589 43.137 245.89 42.3112C242.956 41.4235 239.906 40.9819 236.84 41.0012C234.162 40.9723 231.503 41.4472 229 42.4013C226.838 43.2156 224.814 44.3591 223 45.7912C221.402 47.0834 220.065 48.6683 219.06 50.4612C218.175 52.0319 217.503 53.7133 217.06 55.4612V41.0012H186.65V43.3812C189.317 43.3812 191.15 43.8712 192.15 44.8512C193.15 45.8312 193.637 47.7246 193.61 50.5312V111.531C193.61 114.345 193.124 116.208 192.15 117.121C191.15 118.041 189.34 118.491 186.65 118.491V120.881H224V118.511Z" fill="url(#paint2_linear_12_1566)"/>
<path d="M301.319 116.409C304.732 119.516 309.189 121.012 314.689 120.899C319.094 120.818 323.358 119.34 326.869 116.679C330.287 114.203 333.129 111.017 335.199 107.339C335.113 110.886 336.395 114.331 338.779 116.959C339.97 118.262 341.43 119.29 343.059 119.971C344.688 120.651 346.445 120.968 348.209 120.899H365.609V118.509C362.919 118.509 361.089 118.059 360.119 117.139C359.149 116.219 358.649 114.359 358.649 111.549V70.8891C358.751 66.1026 358.195 61.3248 356.999 56.6891C356.102 53.2008 354.302 50.0103 351.779 47.4391C349.133 44.9797 345.877 43.2739 342.349 42.4991C337.724 41.4307 332.986 40.927 328.239 40.9991C323.512 40.9062 318.812 41.7455 314.409 43.4691C310.674 44.9504 307.391 47.3845 304.889 50.5291C302.453 53.7061 300.876 57.4563 300.309 61.4191C299.666 66.171 300.007 71.0043 301.309 75.6191L319.269 67.9991C317.749 65.6908 316.605 63.1559 315.879 60.4891C315.098 57.8785 314.85 55.1376 315.149 52.4291C315.373 50.0167 316.405 47.7506 318.079 45.9991C319.732 44.2925 322.206 43.4358 325.499 43.4291C327.598 43.2849 329.679 43.9027 331.359 45.1691C332.775 46.453 333.765 48.1379 334.199 49.9991C334.803 52.518 335.108 55.099 335.109 57.6891C335.169 60.7358 335.199 64.0925 335.199 67.7591C334.018 69.2847 332.52 70.5367 330.809 71.4291C328.671 72.6197 326.468 73.6881 324.209 74.6291C321.769 75.6691 319.206 76.7391 316.519 77.8391C313.932 78.8907 311.42 80.1168 308.999 81.5091C304.978 83.5943 301.541 86.6499 298.999 90.3991C296.541 94.3003 295.415 98.8934 295.789 103.489C296.062 108.989 297.906 113.296 301.319 116.409ZM317.439 90.5791C318.101 87.862 319.25 85.2872 320.829 82.9791C322.456 80.6549 324.469 78.6257 326.779 76.9791C329.472 75.0626 332.285 73.3191 335.199 71.7591V103.089C333.995 105.791 332.14 108.151 329.799 109.959C328.189 111.235 326.171 111.885 324.119 111.789C323.159 111.644 322.243 111.289 321.436 110.75C320.629 110.211 319.951 109.5 319.449 108.669C317.916 106.215 317.035 103.409 316.889 100.519C316.495 97.199 316.681 93.8356 317.439 90.5791Z" fill="url(#paint3_linear_12_1566)"/>
<path d="M298.301 294.696C297.314 298.114 295.864 301.381 293.991 304.406C292.197 307.289 289.811 309.757 286.991 311.646C283.935 313.606 280.359 314.596 276.731 314.486C270.605 314.63 264.612 312.691 259.731 308.986C254.655 304.958 250.447 299.944 247.361 294.246C243.595 287.414 240.498 280.234 238.111 272.806C235.444 264.686 232.941 256.23 230.601 247.436L256.061 164.276C256.921 161.61 258.114 159.78 259.641 158.786C261.562 157.707 263.75 157.197 265.951 157.316V154.936H249.301V157.316C251.967 157.316 253.494 157.96 253.881 159.246C254.215 160.916 254.087 162.644 253.511 164.246L229.331 243.196C226.517 232.576 223.617 222.013 220.631 211.506C217.918 201.727 214.299 192.223 209.821 183.116C206.131 175.385 200.968 168.449 194.621 162.696C188.687 157.51 181.331 154.913 172.551 154.906H169.071V157.286H172.551C176.813 157.111 180.979 158.587 184.181 161.406C187.448 164.575 189.981 168.422 191.601 172.676L170.901 240.996L147.451 164.246C146.868 162.667 146.74 160.955 147.081 159.306C147.451 157.966 148.981 157.306 151.661 157.306V154.926H109.721V157.306C114.974 157.306 118.271 159.64 119.611 164.306L153.861 275.866H162.651L193.061 176.396C194.894 182.383 196.232 188.51 197.061 194.716C198.061 201.57 199.041 208.766 200.001 216.306C200.961 223.846 202.061 231.57 203.301 239.476C204.489 247.265 206.159 254.973 208.301 262.556C210.348 269.856 213.171 276.917 216.721 283.616C220.141 290.066 224.631 295.889 230.001 300.836C235.685 305.968 242.311 309.948 249.511 312.556C257.137 315.43 266.204 316.866 276.711 316.866C280.802 316.857 284.873 316.272 288.801 315.126C296.874 312.797 304.282 308.593 310.421 302.856C313.376 300.097 315.906 296.916 317.931 293.416L300.531 284.416C300.02 287.889 299.275 291.324 298.301 294.696Z" fill="url(#paint4_linear_12_1566)"/>
<path d="M287.759 196H257.359V198.38C260.026 198.38 261.856 198.84 262.849 199.76C263.849 200.67 264.319 202.54 264.319 205.34V266.52C264.319 269.34 263.829 271.203 262.849 272.11C261.869 273.017 260.039 273.477 257.359 273.49V275.87H294.719V273.49C291.906 273.49 290.046 273.03 289.139 272.11C288.233 271.19 287.773 269.327 287.759 266.52V196Z" fill="url(#paint5_linear_12_1566)"/>
<path d="M348.67 237.37C346.436 234.975 343.874 232.908 341.06 231.23L332.06 225.83C330.35 224.83 328.4 223.83 326.2 222.72C324.046 221.651 321.991 220.393 320.06 218.96C318.269 217.671 316.77 216.018 315.66 214.11C314.603 212.075 314.374 209.711 315.02 207.51C315.682 205.115 317.056 202.978 318.96 201.38C320.954 199.618 323.538 198.668 326.2 198.72C329.197 198.629 332.146 199.494 334.62 201.19C337.02 202.922 339.098 205.061 340.76 207.51C342.591 210.193 344.098 213.083 345.25 216.12C346.47 219.3 347.63 222.354 348.73 225.28L353.86 206.78C350.108 203.34 345.805 200.554 341.13 198.54C336.404 196.56 331.324 195.563 326.2 195.61C319.858 195.464 313.609 197.147 308.2 200.46C303.073 203.7 299.896 208.677 298.67 215.39C297.915 218.851 298.074 222.449 299.13 225.83C300.174 228.86 301.832 231.641 304 234C306.231 236.463 308.753 238.645 311.51 240.5C314.383 242.46 317.283 244.294 320.21 246C321.92 247 323.88 248 326.07 249.11C328.222 250.183 330.276 251.441 332.21 252.87C334.001 254.16 335.5 255.813 336.61 257.72C337.666 259.756 337.896 262.12 337.25 264.32C336.599 266.699 335.26 268.832 333.4 270.45C331.391 272.249 328.765 273.202 326.07 273.11C323.073 273.195 320.126 272.331 317.65 270.64C315.263 268.922 313.212 266.78 311.6 264.32C309.825 261.62 308.353 258.733 307.21 255.71C305.99 252.53 304.83 249.477 303.73 246.55L298.39 265C302.162 268.458 306.498 271.245 311.21 273.24C315.89 275.213 320.921 276.22 326 276.2C332.343 276.359 338.595 274.674 344 271.35C349.06 268.117 352.203 263.14 353.43 256.42C354.298 252.797 354.236 249.013 353.25 245.42C352.326 242.436 350.763 239.689 348.67 237.37Z" fill="url(#paint6_linear_12_1566)"/>
<path d="M476.8 280.418C475.467 283.084 473.91 285.891 472.13 288.837C470.39 291.721 468.363 294.421 466.08 296.897C463.919 299.267 461.344 301.223 458.48 302.668C455.584 304.081 452.322 304.563 449.14 304.047C444.014 303.307 440.137 301.504 437.51 298.638C434.845 295.698 432.955 292.141 432.01 288.288C430.942 284.036 430.388 279.671 430.36 275.288C430.3 270.621 430.27 266.288 430.27 262.288V221.427C430.27 212.027 428.164 205.434 423.95 201.647C419.737 197.861 414.334 195.977 407.74 195.997C403.241 195.917 398.837 197.3 395.19 199.938C391.581 202.581 389.071 206.461 388.14 210.837V164.277C388.14 161.477 388.63 159.607 389.61 158.697C390.59 157.787 392.41 157.318 395.1 157.318V154.938H357.73V157.318C360.397 157.318 362.23 157.777 363.23 158.697C364.23 159.607 364.69 161.477 364.69 164.277V266.487C364.69 269.307 364.204 271.171 363.23 272.077C362.257 272.984 360.424 273.444 357.73 273.457V275.837H395.1V273.457C392.434 273.457 390.604 272.997 389.61 272.077C388.617 271.157 388.127 269.294 388.14 266.487V221.427C388.144 219.305 388.358 217.188 388.78 215.107C389.175 213.082 389.82 211.114 390.7 209.247C391.436 207.664 392.426 206.211 393.63 204.947C394.126 204.425 394.723 204.009 395.385 203.725C396.047 203.441 396.76 203.296 397.48 203.298C399.219 203.232 400.93 203.749 402.34 204.768C403.657 205.793 404.641 207.185 405.17 208.768C405.823 210.665 406.255 212.631 406.46 214.628C406.703 216.876 406.823 219.136 406.82 221.397V259.138C406.82 272.818 410.364 283.714 417.45 291.827C424.537 299.941 434.917 304.857 448.59 306.577C456.05 307.426 463.603 306.836 470.84 304.837C478.123 302.879 484.859 299.277 490.53 294.307L476.8 280.418Z" fill="url(#paint7_linear_12_1566)"/>
</g>
<path d="M165.73 29.8221L164.5 35L163.27 29.8221C162.475 26.4878 160.465 23.9145 157.921 22.9809L153 21.1765L157.875 19.3878C160.442 18.4463 162.475 15.826 163.247 12.4525L164.5 7L165.753 12.4525C166.525 15.826 168.557 18.4463 171.125 19.3878L176 21.1765L171.079 22.9809C168.534 23.9145 166.517 26.4878 165.73 29.8221Z" fill="#E7BD41"/>
<path d="M276.73 184.822L275.5 190L274.27 184.822C273.475 181.488 271.465 178.915 268.921 177.981L264 176.177L268.875 174.388C271.442 173.446 273.475 170.826 274.247 167.453L275.5 162L276.753 167.453C277.525 170.826 279.557 173.446 282.125 174.388L287 176.177L282.079 177.981C279.534 178.915 277.517 181.488 276.73 184.822Z" fill="#E7BD41"/>
<defs>
<linearGradient id="paint0_linear_12_1566" x1="0" y1="158.43" x2="490.53" y2="158.43" gradientUnits="userSpaceOnUse">
<stop stop-color="#BD9336"/>
<stop offset="0.23" stop-color="#FFFFDA"/>
<stop offset="0.41" stop-color="#FFDB77"/>
<stop offset="0.59" stop-color="#C89D3F"/>
<stop offset="0.77" stop-color="#956300"/>
<stop offset="1" stop-color="#FACF73"/>
</linearGradient>
<linearGradient id="paint1_linear_12_1566" x1="0.000938049" y1="158.43" x2="490.531" y2="158.43" gradientUnits="userSpaceOnUse">
<stop stop-color="#BD9336"/>
<stop offset="0.23" stop-color="#FFFFDA"/>
<stop offset="0.41" stop-color="#FFDB77"/>
<stop offset="0.59" stop-color="#C89D3F"/>
<stop offset="0.77" stop-color="#956300"/>
<stop offset="1" stop-color="#FACF73"/>
</linearGradient>
<linearGradient id="paint2_linear_12_1566" x1="0.000374025" y1="158.431" x2="490.53" y2="158.431" gradientUnits="userSpaceOnUse">
<stop stop-color="#BD9336"/>
<stop offset="0.23" stop-color="#FFFFDA"/>
<stop offset="0.41" stop-color="#FFDB77"/>
<stop offset="0.59" stop-color="#C89D3F"/>
<stop offset="0.77" stop-color="#956300"/>
<stop offset="1" stop-color="#FACF73"/>
</linearGradient>
<linearGradient id="paint3_linear_12_1566" x1="-0.000805852" y1="158.429" x2="490.529" y2="158.429" gradientUnits="userSpaceOnUse">
<stop stop-color="#BD9336"/>
<stop offset="0.23" stop-color="#FFFFDA"/>
<stop offset="0.41" stop-color="#FFDB77"/>
<stop offset="0.59" stop-color="#C89D3F"/>
<stop offset="0.77" stop-color="#956300"/>
<stop offset="1" stop-color="#FACF73"/>
</linearGradient>
<linearGradient id="paint4_linear_12_1566" x1="0.000706829" y1="158.426" x2="490.531" y2="158.426" gradientUnits="userSpaceOnUse">
<stop stop-color="#BD9336"/>
<stop offset="0.23" stop-color="#FFFFDA"/>
<stop offset="0.41" stop-color="#FFDB77"/>
<stop offset="0.59" stop-color="#C89D3F"/>
<stop offset="0.77" stop-color="#956300"/>
<stop offset="1" stop-color="#FACF73"/>
</linearGradient>
<linearGradient id="paint5_linear_12_1566" x1="-0.000741392" y1="158.43" x2="490.529" y2="158.43" gradientUnits="userSpaceOnUse">
<stop stop-color="#BD9336"/>
<stop offset="0.23" stop-color="#FFFFDA"/>
<stop offset="0.41" stop-color="#FFDB77"/>
<stop offset="0.59" stop-color="#C89D3F"/>
<stop offset="0.77" stop-color="#956300"/>
<stop offset="1" stop-color="#FACF73"/>
</linearGradient>
<linearGradient id="paint6_linear_12_1566" x1="-0.000130234" y1="158.43" x2="490.53" y2="158.43" gradientUnits="userSpaceOnUse">
<stop stop-color="#BD9336"/>
<stop offset="0.23" stop-color="#FFFFDA"/>
<stop offset="0.41" stop-color="#FFDB77"/>
<stop offset="0.59" stop-color="#C89D3F"/>
<stop offset="0.77" stop-color="#956300"/>
<stop offset="1" stop-color="#FACF73"/>
</linearGradient>
<linearGradient id="paint7_linear_12_1566" x1="0.000491582" y1="158.428" x2="490.53" y2="158.428" gradientUnits="userSpaceOnUse">
<stop stop-color="#BD9336"/>
<stop offset="0.23" stop-color="#FFFFDA"/>
<stop offset="0.41" stop-color="#FFDB77"/>
<stop offset="0.59" stop-color="#C89D3F"/>
<stop offset="0.77" stop-color="#956300"/>
<stop offset="1" stop-color="#FACF73"/>
</linearGradient>
</defs>
</svg>
