<svg width="978" height="279" viewBox="0 0 978 279" fill="none" xmlns="http://www.w3.org/2000/svg">
<mask id="mask0_179_709" style="mask-type:luminance" maskUnits="userSpaceOnUse" x="3" y="1" width="975" height="278">
<path d="M978 1H3V279H978V1Z" fill="white"/>
</mask>
<g mask="url(#mask0_179_709)">
<path d="M86.9 63.6399H86.49V88.9199H86.9V63.6399Z" fill="#D6A44D"/>
<path d="M88.45 76.28C88.4721 76.6324 88.3877 76.9833 88.2077 77.2871C88.0278 77.5909 87.7606 77.8334 87.441 77.9834C87.1214 78.1334 86.764 78.1837 86.4154 78.1279C86.0668 78.0722 85.743 77.9129 85.4861 77.6707C85.2292 77.4285 85.0511 77.1145 84.9749 76.7698C84.8988 76.425 84.928 76.0652 85.0589 75.7373C85.1898 75.4094 85.4163 75.1286 85.709 74.9312C86.0017 74.7337 86.347 74.6286 86.7 74.6299C87.1502 74.6191 87.5865 74.7863 87.9142 75.0952C88.2418 75.4041 88.4344 75.83 88.45 76.28Z" fill="#D6A44D"/>
<path d="M87.47 67.7201C87.4688 67.819 87.4477 67.9166 87.408 68.0072C87.3684 68.0978 87.311 68.1796 87.2392 68.2477C87.1674 68.3157 87.0827 68.3687 86.9901 68.4034C86.8975 68.4382 86.7988 68.4541 86.7 68.4501C86.5576 68.4423 86.4206 68.393 86.3059 68.3082C86.1912 68.2234 86.1039 68.1067 86.0548 67.9728C86.0056 67.8389 85.9967 67.6937 86.0292 67.5548C86.0618 67.4159 86.1343 67.2897 86.2378 67.1915C86.3413 67.0934 86.4713 67.0276 86.6117 67.0026C86.7521 66.9775 86.8967 66.9942 87.0278 67.0504C87.1589 67.1066 87.2706 67.1999 87.3492 67.319C87.4278 67.438 87.4698 67.5775 87.47 67.7201Z" fill="#D6A44D"/>
<path d="M87.47 84.84C87.4687 84.9394 87.4477 85.0374 87.4082 85.1286C87.3687 85.2197 87.3114 85.3022 87.2398 85.371C87.1682 85.4399 87.0835 85.4938 86.9909 85.5297C86.8982 85.5656 86.7994 85.5826 86.7 85.58C86.5963 85.5921 86.4912 85.5821 86.3916 85.5507C86.292 85.5193 86.2002 85.467 86.1222 85.3976C86.0442 85.3282 85.9818 85.2431 85.939 85.1479C85.8963 85.0526 85.8741 84.9493 85.8741 84.8449C85.8741 84.7405 85.8963 84.6372 85.939 84.5419C85.9818 84.4466 86.0442 84.3616 86.1222 84.2921C86.2002 84.2227 86.292 84.1705 86.3916 84.1391C86.4912 84.1077 86.5963 84.0979 86.7 84.11C86.7985 84.1074 86.8966 84.1241 86.9886 84.1593C87.0806 84.1946 87.1648 84.2475 87.2363 84.3153C87.3078 84.3831 87.3652 84.4643 87.4053 84.5544C87.4455 84.6444 87.4674 84.7415 87.47 84.84Z" fill="#D6A44D"/>
<path d="M86.9 38.3701H86.49V63.6499H86.9V38.3701Z" fill="#D6A44D"/>
<path d="M86.7001 52.6599C87.6666 52.6599 88.4501 51.9213 88.4501 51.01C88.4501 50.0987 87.6666 49.3601 86.7001 49.3601C85.7336 49.3601 84.9501 50.0987 84.9501 51.01C84.9501 51.9213 85.7336 52.6599 86.7001 52.6599Z" fill="#D6A44D"/>
<path d="M87.47 42.4401C87.4687 42.5394 87.4477 42.6375 87.4082 42.7286C87.3687 42.8198 87.3114 42.9022 87.2398 42.9711C87.1682 43.0399 87.0835 43.0939 86.9909 43.1297C86.8982 43.1656 86.7994 43.1827 86.7 43.18C86.5963 43.1922 86.4912 43.1821 86.3916 43.1507C86.292 43.1193 86.2002 43.0673 86.1222 42.9979C86.0442 42.9285 85.9818 42.8434 85.939 42.7482C85.8963 42.6529 85.8741 42.5496 85.8741 42.4452C85.8741 42.3408 85.8963 42.2375 85.939 42.1422C85.9818 42.0469 86.0442 41.9616 86.1222 41.8922C86.2002 41.8228 86.292 41.7708 86.3916 41.7394C86.4912 41.708 86.5963 41.698 86.7 41.7101C86.7985 41.7074 86.8966 41.7241 86.9886 41.7594C87.0806 41.7946 87.1648 41.8478 87.2363 41.9156C87.3078 41.9834 87.3652 42.0646 87.4053 42.1547C87.4455 42.2447 87.4674 42.3415 87.47 42.4401Z" fill="#D6A44D"/>
<path d="M87.4701 59.5702C87.4675 59.6687 87.4455 59.7656 87.4054 59.8556C87.3653 59.9456 87.3078 60.0268 87.2363 60.0946C87.1648 60.1624 87.0806 60.2156 86.9886 60.2509C86.8966 60.2861 86.7986 60.3028 86.7001 60.3002C86.5547 60.2943 86.4143 60.2455 86.2964 60.1603C86.1786 60.075 86.0884 59.9569 86.0373 59.8207C85.9862 59.6845 85.9763 59.5364 86.009 59.3947C86.0417 59.2529 86.1154 59.1239 86.221 59.0238C86.3266 58.9237 86.4593 58.857 86.6026 58.8319C86.7459 58.8068 86.8934 58.8244 87.0267 58.8827C87.16 58.941 87.2731 59.0373 87.352 59.1595C87.4308 59.2818 87.4719 59.4247 87.4701 59.5702Z" fill="#D6A44D"/>
<path d="M86.9 13.0901H86.49V38.3701H86.9V13.0901Z" fill="#D6A44D"/>
<path d="M86.7001 27.3799C87.6666 27.3799 88.4501 26.6413 88.4501 25.73C88.4501 24.8187 87.6666 24.0801 86.7001 24.0801C85.7336 24.0801 84.9501 24.8187 84.9501 25.73C84.9501 26.6413 85.7336 27.3799 86.7001 27.3799Z" fill="#D6A44D"/>
<path d="M87.4701 17.17C87.4675 17.2685 87.4455 17.3656 87.4054 17.4556C87.3653 17.5456 87.3078 17.6269 87.2363 17.6947C87.1648 17.7624 87.0806 17.8154 86.9886 17.8507C86.8966 17.8859 86.7986 17.9026 86.7001 17.9C86.5547 17.8941 86.4143 17.8456 86.2964 17.7603C86.1786 17.6751 86.0884 17.5569 86.0373 17.4207C85.9862 17.2845 85.9763 17.1362 86.009 16.9945C86.0417 16.8527 86.1154 16.7237 86.221 16.6236C86.3266 16.5235 86.4593 16.4568 86.6026 16.4317C86.7459 16.4066 86.8934 16.4244 87.0267 16.4827C87.16 16.541 87.2731 16.6373 87.352 16.7596C87.4308 16.8818 87.4719 17.0245 87.4701 17.17Z" fill="#D6A44D"/>
<path d="M87.47 34.2902C87.4674 34.3887 87.4454 34.4856 87.4053 34.5756C87.3652 34.6656 87.3077 34.7468 87.2362 34.8146C87.1647 34.8824 87.0806 34.9356 86.9885 34.9708C86.8965 35.0061 86.7985 35.0228 86.7 35.0201C86.5064 35.0201 86.3207 34.9432 86.1838 34.8063C86.0469 34.6694 85.97 34.4838 85.97 34.2902C85.97 34.0966 86.0469 33.9109 86.1838 33.774C86.3207 33.6371 86.5064 33.5602 86.7 33.5602C86.7988 33.5562 86.8974 33.5721 86.9901 33.6068C87.0827 33.6416 87.1674 33.6945 87.2392 33.7626C87.3109 33.8306 87.3683 33.9124 87.408 34.0031C87.4476 34.0937 87.4687 34.1912 87.47 34.2902Z" fill="#D6A44D"/>
<path d="M86.9 -12.1899H86.49V13.0901H86.9V-12.1899Z" fill="#D6A44D"/>
<path d="M86.7001 2.1001C87.6666 2.1001 88.4501 1.36122 88.4501 0.449951C88.4501 -0.461319 87.6666 -1.19995 86.7001 -1.19995C85.7336 -1.19995 84.9501 -0.461319 84.9501 0.449951C84.9501 1.36122 85.7336 2.1001 86.7001 2.1001Z" fill="#D6A44D"/>
<path d="M87.47 9.00003C87.4674 9.09853 87.4454 9.19567 87.4053 9.28567C87.3652 9.37568 87.3077 9.45689 87.2362 9.52469C87.1647 9.59248 87.0806 9.64544 86.9885 9.68069C86.8965 9.71595 86.7985 9.73267 86.7 9.73001C86.5064 9.73001 86.3207 9.65304 86.1838 9.51614C86.0469 9.37924 85.97 9.19364 85.97 9.00003C85.97 8.80642 86.0469 8.62082 86.1838 8.48392C86.3207 8.34702 86.5064 8.27005 86.7 8.27005C86.7985 8.26739 86.8965 8.28411 86.9885 8.31937C87.0806 8.35462 87.1647 8.40758 87.2362 8.47537C87.3077 8.54317 87.3652 8.62438 87.4053 8.71439C87.4454 8.80439 87.4674 8.90153 87.47 9.00003Z" fill="#D6A44D"/>
<path d="M104.34 110.94C106.052 120.392 104.161 130.142 99.0383 138.268C93.916 146.394 85.9349 152.306 76.6688 154.838C67.4027 157.37 57.5243 156.338 48.9816 151.946C40.439 147.553 33.8521 140.119 30.52 131.11C31.8002 132.366 33.1852 133.51 34.66 134.53C41.6218 139.083 50.0859 140.738 58.2499 139.143C66.4139 137.548 73.6328 132.83 78.3696 125.992C83.1064 119.154 84.9867 110.737 83.6102 102.533C82.2337 94.3296 77.7092 86.9875 71 82.0701C69.5121 81.0367 67.936 80.1364 66.29 79.3799C75.3338 79.3157 84.1098 82.4467 91.0709 88.2204C98.032 93.9942 102.731 102.04 104.34 110.94Z" fill="url(#paint0_linear_179_709)"/>
<path d="M66.48 152.68C61.7557 152.668 57.0829 151.698 52.7445 149.828C48.4061 147.958 44.4923 145.227 41.24 141.8C44.9649 143.088 48.8789 143.743 52.82 143.74C59.5602 143.746 66.1624 141.831 71.8523 138.218C77.5422 134.604 82.0838 129.444 84.9443 123.341C87.8048 117.237 88.8655 110.445 88.0022 103.76C87.1389 97.0758 84.3872 90.7762 80.07 85.6001C87.4882 88.7387 93.5933 94.3453 97.3509 101.47C101.108 108.595 102.287 116.799 100.688 124.694C99.0887 132.588 94.8093 139.687 88.575 144.787C82.3407 149.888 74.5348 152.676 66.48 152.68Z" fill="url(#paint1_linear_179_709)"/>
<path d="M902.4 68.8201H901.89V100.19H902.4V68.8201Z" fill="#D6A44D"/>
<path d="M904.32 84.5099C904.346 84.9461 904.24 85.3801 904.017 85.7555C903.793 86.1309 903.462 86.4305 903.066 86.6154C902.67 86.8002 902.228 86.8616 901.796 86.7919C901.365 86.7222 900.965 86.5246 900.647 86.2245C900.329 85.9244 900.109 85.536 900.015 85.1093C899.921 84.6826 899.957 84.2373 900.119 83.8314C900.281 83.4256 900.562 83.078 900.924 82.8334C901.286 82.5888 901.713 82.4586 902.15 82.4599C902.427 82.4519 902.703 82.4986 902.962 82.5973C903.221 82.696 903.458 82.8449 903.66 83.0353C903.861 83.2257 904.023 83.4539 904.137 83.7069C904.25 83.96 904.312 84.2328 904.32 84.5099Z" fill="#D6A44D"/>
<path d="M903.11 73.8899C903.128 74.0905 903.085 74.2921 902.987 74.468C902.889 74.6438 902.74 74.7858 902.559 74.8755C902.379 74.9651 902.176 74.9982 901.976 74.9704C901.777 74.9426 901.59 74.855 901.441 74.7195C901.292 74.5839 901.187 74.4067 901.141 74.2107C901.095 74.0146 901.108 73.8091 901.181 73.6211C901.253 73.433 901.38 73.2711 901.546 73.1567C901.712 73.0423 901.909 72.9808 902.11 72.98C902.236 72.9704 902.363 72.9866 902.483 73.0278C902.602 73.069 902.712 73.1343 902.806 73.2195C902.9 73.3047 902.975 73.4081 903.027 73.5234C903.079 73.6387 903.108 73.7633 903.11 73.8899Z" fill="#D6A44D"/>
<path d="M903.11 95.1399C903.128 95.3405 903.085 95.5422 902.987 95.718C902.889 95.8938 902.74 96.0358 902.559 96.1255C902.379 96.2151 902.176 96.2483 901.976 96.2204C901.777 96.1926 901.59 96.105 901.441 95.9695C901.292 95.8339 901.187 95.6567 901.141 95.4607C901.095 95.2647 901.108 95.0591 901.181 94.8711C901.253 94.6831 901.38 94.5211 901.546 94.4067C901.712 94.2923 901.909 94.2308 902.11 94.23C902.236 94.2219 902.362 94.2393 902.481 94.281C902.6 94.3227 902.71 94.388 902.803 94.4729C902.896 94.5578 902.972 94.6605 903.024 94.7751C903.077 94.8898 903.106 95.0138 903.11 95.1399Z" fill="#D6A44D"/>
<path d="M902.4 37.45H901.89V68.8201H902.4V37.45Z" fill="#D6A44D"/>
<path d="M902.15 55.1899C903.354 55.1899 904.33 54.2721 904.33 53.1399C904.33 52.0077 903.354 51.0901 902.15 51.0901C900.946 51.0901 899.97 52.0077 899.97 53.1399C899.97 54.2721 900.946 55.1899 902.15 55.1899Z" fill="#D6A44D"/>
<path d="M903.11 42.51C903.128 42.7106 903.085 42.912 902.987 43.0879C902.889 43.2637 902.74 43.4057 902.559 43.4954C902.379 43.585 902.176 43.6181 901.976 43.5903C901.777 43.5625 901.59 43.4752 901.441 43.3396C901.292 43.204 901.187 43.0266 901.141 42.8306C901.095 42.6345 901.108 42.429 901.181 42.241C901.253 42.0529 901.38 41.8912 901.546 41.7769C901.712 41.6625 901.909 41.6009 902.11 41.6001C902.236 41.592 902.362 41.6092 902.481 41.6509C902.6 41.6926 902.71 41.7579 902.803 41.8428C902.896 41.9277 902.972 42.0306 903.024 42.1453C903.077 42.2599 903.106 42.3839 903.11 42.51Z" fill="#D6A44D"/>
<path d="M903.11 63.76C903.128 63.9606 903.085 64.162 902.987 64.3379C902.889 64.5137 902.74 64.6557 902.559 64.7454C902.379 64.835 902.176 64.8681 901.976 64.8403C901.777 64.8125 901.59 64.7252 901.441 64.5896C901.292 64.454 901.187 64.2766 901.141 64.0806C901.095 63.8845 901.108 63.679 901.181 63.491C901.253 63.3029 901.38 63.1412 901.546 63.0269C901.712 62.9125 901.909 62.8509 902.11 62.8501C902.236 62.842 902.362 62.8592 902.481 62.9009C902.6 62.9426 902.71 63.0079 902.803 63.0928C902.896 63.1777 902.972 63.2806 903.024 63.3953C903.077 63.5099 903.106 63.6339 903.11 63.76Z" fill="#D6A44D"/>
<path d="M902.4 6.08008H901.89V37.45H902.4V6.08008Z" fill="#D6A44D"/>
<path d="M902.15 23.8101C903.354 23.8101 904.33 22.8922 904.33 21.76C904.33 20.6278 903.354 19.71 902.15 19.71C900.946 19.71 899.97 20.6278 899.97 21.76C899.97 22.8922 900.946 23.8101 902.15 23.8101Z" fill="#D6A44D"/>
<path d="M903.11 11.1399C903.128 11.3405 903.085 11.5422 902.987 11.718C902.889 11.8938 902.74 12.0358 902.559 12.1255C902.379 12.2151 902.176 12.2483 901.976 12.2204C901.777 12.1926 901.59 12.105 901.441 11.9695C901.292 11.8339 901.187 11.6567 901.141 11.4607C901.095 11.2647 901.108 11.0591 901.181 10.8711C901.253 10.6831 901.38 10.5211 901.546 10.4067C901.712 10.2923 901.909 10.2308 902.11 10.23C902.236 10.2219 902.362 10.2393 902.481 10.281C902.6 10.3227 902.71 10.388 902.803 10.4729C902.896 10.5578 902.972 10.6605 903.024 10.7751C903.077 10.8898 903.106 11.0138 903.11 11.1399Z" fill="#D6A44D"/>
<path d="M903.11 32.3899C903.128 32.5905 903.085 32.7922 902.987 32.968C902.889 33.1438 902.74 33.2858 902.559 33.3755C902.379 33.4651 902.176 33.4983 901.976 33.4704C901.777 33.4426 901.59 33.355 901.441 33.2195C901.292 33.0839 901.187 32.9067 901.141 32.7107C901.095 32.5147 901.108 32.3091 901.181 32.1211C901.253 31.9331 901.38 31.7711 901.546 31.6567C901.712 31.5423 901.909 31.4808 902.11 31.48C902.236 31.4719 902.362 31.4893 902.481 31.531C902.6 31.5727 902.71 31.638 902.803 31.7229C902.896 31.8078 902.972 31.9105 903.024 32.0251C903.077 32.1398 903.106 32.2638 903.11 32.3899Z" fill="#D6A44D"/>
<path d="M902.4 -25.3H901.89V6.07007H902.4V-25.3Z" fill="#D6A44D"/>
<path d="M903.11 0.999974C903.128 1.2006 903.085 1.40201 902.987 1.57785C902.889 1.7537 902.74 1.89566 902.559 1.98533C902.379 2.07499 902.176 2.10811 901.976 2.0803C901.777 2.05248 901.59 1.96515 901.441 1.82956C901.292 1.69398 901.187 1.51655 901.141 1.32053C901.095 1.12451 901.108 0.918954 901.181 0.730931C901.253 0.542908 901.38 0.381207 901.546 0.26682C901.712 0.152433 901.909 0.0908793 902.11 0.090062C902.236 0.0805124 902.363 0.0967286 902.483 0.137914C902.602 0.179098 902.712 0.24437 902.806 0.329564C902.9 0.414758 902.975 0.517985 903.027 0.633275C903.079 0.748565 903.108 0.873416 903.11 0.999974Z" fill="#D6A44D"/>
<path d="M924.05 127.53C926.146 139.253 923.78 151.335 917.417 161.401C911.053 171.467 901.153 178.788 889.665 181.922C878.176 185.057 865.93 183.779 855.336 178.339C844.743 172.9 836.568 163.693 832.42 152.53C834.013 154.086 835.733 155.507 837.56 156.78C846.195 162.767 856.856 165.079 867.195 163.206C877.535 161.334 886.708 155.43 892.695 146.795C898.682 138.159 900.994 127.499 899.121 117.159C897.249 106.82 891.345 97.6472 882.71 91.6599C880.864 90.3796 878.91 89.2623 876.87 88.3201C888.091 88.2573 898.975 92.1551 907.605 99.3274C916.235 106.5 922.059 116.487 924.05 127.53Z" fill="url(#paint2_linear_179_709)"/>
<path d="M877.06 179.33C871.195 179.318 865.394 178.114 860.008 175.792C854.622 173.469 849.765 170.077 845.73 165.82C850.35 167.428 855.208 168.246 860.1 168.24C868.464 168.244 876.656 165.864 883.715 161.379C890.775 156.894 896.41 150.49 899.961 142.917C903.511 135.345 904.829 126.916 903.761 118.621C902.693 110.326 899.283 102.507 893.93 96.0801C903.134 99.9773 910.709 106.936 915.37 115.778C920.032 124.62 921.494 134.801 919.508 144.598C917.523 154.394 912.213 163.203 904.477 169.533C896.741 175.862 887.055 179.324 877.06 179.33Z" fill="url(#paint3_linear_179_709)"/>
<path d="M147.65 69.45H147.36V88.3999H147.65V69.45Z" fill="#D6A44D"/>
<path d="M147.5 80.1699C148.19 80.1699 148.75 79.6148 148.75 78.9299C148.75 78.2451 148.19 77.6899 147.5 77.6899C146.81 77.6899 146.25 78.2451 146.25 78.9299C146.25 79.6148 146.81 80.1699 147.5 80.1699Z" fill="#D6A44D"/>
<path d="M148.06 72.51C148.042 72.6444 147.976 72.7677 147.874 72.8569C147.772 72.9462 147.641 72.9954 147.505 72.9954C147.369 72.9954 147.239 72.9462 147.136 72.8569C147.034 72.7677 146.968 72.6444 146.95 72.51C146.968 72.3756 147.034 72.2523 147.136 72.1631C147.239 72.0738 147.369 72.0247 147.505 72.0247C147.641 72.0247 147.772 72.0738 147.874 72.1631C147.976 72.2523 148.042 72.3756 148.06 72.51Z" fill="#D6A44D"/>
<path d="M148.06 85.3401C148.062 85.4512 148.031 85.5604 147.97 85.6538C147.91 85.7472 147.823 85.8206 147.721 85.8645C147.619 85.9084 147.506 85.9209 147.397 85.9004C147.288 85.8799 147.187 85.8274 147.108 85.7495C147.028 85.6716 146.974 85.5718 146.952 85.4629C146.929 85.354 146.94 85.2411 146.982 85.1382C147.024 85.0353 147.096 84.947 147.188 84.885C147.28 84.823 147.389 84.7901 147.5 84.79C147.647 84.79 147.788 84.8476 147.892 84.9504C147.997 85.0533 148.057 85.1933 148.06 85.3401Z" fill="#D6A44D"/>
<path d="M147.65 50.5H147.36V69.45H147.65V50.5Z" fill="#D6A44D"/>
<path d="M147.5 61.22C148.19 61.22 148.75 60.6648 148.75 59.98C148.75 59.2951 148.19 58.74 147.5 58.74C146.81 58.74 146.25 59.2951 146.25 59.98C146.25 60.6648 146.81 61.22 147.5 61.22Z" fill="#D6A44D"/>
<path d="M148.06 53.5601C148.062 53.6712 148.031 53.7804 147.97 53.8738C147.91 53.9672 147.823 54.0406 147.721 54.0845C147.619 54.1284 147.506 54.1408 147.397 54.1204C147.288 54.0999 147.187 54.0474 147.108 53.9695C147.028 53.8916 146.974 53.7918 146.952 53.6829C146.929 53.574 146.94 53.4611 146.982 53.3582C147.024 53.2552 147.096 53.1672 147.188 53.1052C147.28 53.0432 147.389 53.01 147.5 53.01C147.647 53.01 147.788 53.0675 147.892 53.1704C147.997 53.2733 148.057 53.4133 148.06 53.5601Z" fill="#D6A44D"/>
<path d="M148.06 66.39C148.064 66.5015 148.035 66.6117 147.976 66.7064C147.917 66.8011 147.831 66.876 147.729 66.9215C147.627 66.9669 147.514 66.9811 147.404 66.9618C147.294 66.9425 147.192 66.8908 147.112 66.8133C147.031 66.7359 146.976 66.6361 146.953 66.5269C146.929 66.4178 146.939 66.3043 146.981 66.2008C147.023 66.0973 147.094 66.0086 147.187 65.9461C147.279 65.8837 147.388 65.8503 147.5 65.8502C147.572 65.8489 147.644 65.8616 147.711 65.888C147.779 65.9145 147.84 65.9539 147.892 66.004C147.944 66.0541 147.986 66.114 148.014 66.1803C148.043 66.2465 148.059 66.3178 148.06 66.39Z" fill="#D6A44D"/>
<path d="M147.65 31.55H147.36V50.5H147.65V31.55Z" fill="#D6A44D"/>
<path d="M147.5 42.27C148.19 42.27 148.75 41.7149 148.75 41.03C148.75 40.3452 148.19 39.79 147.5 39.79C146.81 39.79 146.25 40.3452 146.25 41.03C146.25 41.7149 146.81 42.27 147.5 42.27Z" fill="#D6A44D"/>
<path d="M148.06 34.6101C148.062 34.7213 148.031 34.8304 147.97 34.9238C147.91 35.0172 147.823 35.0906 147.721 35.1345C147.619 35.1784 147.506 35.1909 147.397 35.1704C147.288 35.1499 147.187 35.0974 147.108 35.0195C147.028 34.9416 146.974 34.8418 146.952 34.7329C146.929 34.624 146.94 34.5109 146.982 34.408C147.024 34.305 147.096 34.217 147.188 34.155C147.28 34.093 147.389 34.0601 147.5 34.0601C147.647 34.06 147.788 34.1176 147.892 34.2205C147.997 34.3233 148.057 34.4633 148.06 34.6101Z" fill="#D6A44D"/>
<path d="M148.06 47.45C148.062 47.5612 148.031 47.6706 147.97 47.764C147.91 47.8574 147.823 47.9305 147.721 47.9745C147.619 48.0184 147.506 48.0311 147.397 48.0106C147.288 47.9901 147.187 47.9376 147.108 47.8597C147.028 47.7818 146.974 47.682 146.952 47.5731C146.929 47.4642 146.94 47.351 146.982 47.2481C147.024 47.1452 147.096 47.0572 147.188 46.9952C147.28 46.9332 147.389 46.9 147.5 46.9C147.573 46.8987 147.646 46.912 147.714 46.9391C147.781 46.9661 147.843 47.0065 147.895 47.0577C147.948 47.1089 147.989 47.17 148.017 47.2374C148.045 47.3048 148.06 47.377 148.06 47.45Z" fill="#D6A44D"/>
<path d="M147.65 12.6101H147.36V31.5601H147.65V12.6101Z" fill="#D6A44D"/>
<path d="M147.5 23.3201C148.19 23.3201 148.75 22.7649 148.75 22.0801C148.75 21.3952 148.19 20.8401 147.5 20.8401C146.81 20.8401 146.25 21.3952 146.25 22.0801C146.25 22.7649 146.81 23.3201 147.5 23.3201Z" fill="#D6A44D"/>
<path d="M148.06 15.6599C148.062 15.7711 148.031 15.8805 147.97 15.9739C147.91 16.0673 147.823 16.1404 147.721 16.1843C147.619 16.2282 147.506 16.2409 147.397 16.2205C147.288 16.2 147.187 16.1475 147.108 16.0696C147.028 15.9917 146.974 15.8919 146.952 15.783C146.929 15.6741 146.94 15.5609 146.982 15.458C147.024 15.3551 147.096 15.2671 147.188 15.2051C147.28 15.1431 147.389 15.1101 147.5 15.1101C147.647 15.1101 147.788 15.1676 147.892 15.2705C147.997 15.3734 148.057 15.5131 148.06 15.6599Z" fill="#D6A44D"/>
<path d="M148.06 28.5C148.042 28.6344 147.976 28.7577 147.874 28.8469C147.772 28.9362 147.641 28.9854 147.505 28.9854C147.369 28.9854 147.239 28.9362 147.136 28.8469C147.034 28.7577 146.968 28.6344 146.95 28.5C146.968 28.3656 147.034 28.2423 147.136 28.1531C147.239 28.0638 147.369 28.0146 147.505 28.0146C147.641 28.0146 147.772 28.0638 147.874 28.1531C147.976 28.2423 148.042 28.3656 148.06 28.5Z" fill="#D6A44D"/>
<path d="M147.65 -6.34009H147.36V12.6101H147.65V-6.34009Z" fill="#D6A44D"/>
<path d="M147.5 4.37012C148.19 4.37012 148.75 3.81472 148.75 3.12988C148.75 2.44505 148.19 1.88989 147.5 1.88989C146.81 1.88989 146.25 2.44505 146.25 3.12988C146.25 3.81472 146.81 4.37012 147.5 4.37012Z" fill="#D6A44D"/>
<path d="M148.06 9.55005C148.062 9.66121 148.031 9.77037 147.97 9.86377C147.91 9.95717 147.823 10.0305 147.721 10.0745C147.619 10.1184 147.506 10.1308 147.397 10.1104C147.288 10.0899 147.187 10.0374 147.108 9.95947C147.028 9.88157 146.974 9.78199 146.952 9.6731C146.929 9.5642 146.94 9.45106 146.982 9.34814C147.024 9.24523 147.096 9.1572 147.188 9.09521C147.28 9.03323 147.389 9.00002 147.5 9C147.647 8.99998 147.788 9.05753 147.892 9.1604C147.997 9.26327 148.057 9.40327 148.06 9.55005Z" fill="#D6A44D"/>
<path d="M153.52 102.48L154.94 110.75L147.52 106.85L140.09 110.75L141.51 102.48L135.51 96.6201L143.81 95.4099L147.52 87.8999L151.23 95.4099L159.53 96.6201L153.52 102.48Z" fill="url(#paint4_linear_179_709)"/>
<path d="M153.52 102.48L154.94 110.75L147.52 106.85V87.8999L151.23 95.4099L159.53 96.6201L153.52 102.48Z" fill="url(#paint5_linear_179_709)"/>
<path d="M119.3 177.7H119.01V196.65H119.3V177.7Z" fill="#D6A44D"/>
<path d="M120.41 187.18C120.412 187.428 120.34 187.67 120.204 187.877C120.068 188.084 119.874 188.246 119.645 188.342C119.417 188.438 119.165 188.464 118.922 188.417C118.679 188.37 118.456 188.252 118.28 188.077C118.104 187.903 117.984 187.68 117.935 187.438C117.886 187.195 117.91 186.943 118.004 186.714C118.099 186.485 118.259 186.289 118.465 186.151C118.67 186.014 118.912 185.94 119.16 185.94C119.49 185.94 119.806 186.07 120.04 186.302C120.274 186.535 120.407 186.85 120.41 187.18Z" fill="#D6A44D"/>
<path d="M119.71 180.76C119.71 180.906 119.652 181.046 119.549 181.149C119.446 181.252 119.306 181.31 119.16 181.31C119.014 181.31 118.874 181.252 118.771 181.149C118.668 181.046 118.61 180.906 118.61 180.76C118.61 180.614 118.668 180.474 118.771 180.371C118.874 180.268 119.014 180.21 119.16 180.21C119.306 180.21 119.446 180.268 119.549 180.371C119.652 180.474 119.71 180.614 119.71 180.76Z" fill="#D6A44D"/>
<path d="M119.71 193.6C119.71 193.672 119.696 193.743 119.668 193.809C119.64 193.875 119.6 193.935 119.548 193.985C119.497 194.036 119.436 194.075 119.37 194.102C119.303 194.128 119.232 194.141 119.16 194.14C119.051 194.14 118.944 194.108 118.853 194.047C118.763 193.986 118.692 193.899 118.651 193.798C118.61 193.697 118.599 193.586 118.621 193.479C118.643 193.372 118.697 193.274 118.775 193.198C118.853 193.121 118.952 193.069 119.059 193.049C119.166 193.029 119.277 193.042 119.378 193.085C119.478 193.128 119.563 193.2 119.622 193.292C119.681 193.384 119.712 193.491 119.71 193.6Z" fill="#D6A44D"/>
<path d="M119.3 158.76H119.01V177.71H119.3V158.76Z" fill="#D6A44D"/>
<path d="M120.41 168.23C120.412 168.478 120.34 168.72 120.204 168.927C120.068 169.134 119.874 169.296 119.645 169.392C119.417 169.488 119.165 169.514 118.922 169.467C118.679 169.42 118.456 169.302 118.28 169.127C118.104 168.953 117.984 168.73 117.935 168.488C117.886 168.245 117.91 167.993 118.004 167.764C118.099 167.535 118.259 167.339 118.465 167.201C118.67 167.064 118.912 166.99 119.16 166.99C119.49 166.99 119.806 167.12 120.04 167.353C120.274 167.585 120.407 167.9 120.41 168.23Z" fill="#D6A44D"/>
<path d="M119.71 161.81C119.711 161.883 119.698 161.955 119.671 162.022C119.644 162.089 119.603 162.151 119.552 162.202C119.501 162.253 119.439 162.294 119.372 162.321C119.305 162.348 119.233 162.361 119.16 162.36C119.014 162.36 118.874 162.302 118.771 162.199C118.668 162.096 118.61 161.956 118.61 161.81C118.61 161.664 118.668 161.524 118.771 161.421C118.874 161.318 119.014 161.26 119.16 161.26C119.306 161.26 119.446 161.318 119.549 161.421C119.652 161.524 119.71 161.664 119.71 161.81Z" fill="#D6A44D"/>
<path d="M119.71 174.65C119.71 174.722 119.696 174.794 119.668 174.861C119.64 174.927 119.6 174.988 119.549 175.039C119.498 175.09 119.437 175.131 119.37 175.158C119.304 175.186 119.232 175.2 119.16 175.2C119.088 175.2 119.016 175.186 118.95 175.158C118.883 175.131 118.822 175.09 118.771 175.039C118.72 174.988 118.679 174.927 118.652 174.861C118.624 174.794 118.61 174.722 118.61 174.65C118.61 174.504 118.668 174.364 118.771 174.261C118.874 174.158 119.014 174.1 119.16 174.1C119.233 174.099 119.305 174.112 119.372 174.139C119.439 174.166 119.501 174.207 119.552 174.258C119.603 174.309 119.644 174.371 119.671 174.438C119.698 174.505 119.711 174.577 119.71 174.65Z" fill="#D6A44D"/>
<path d="M119.3 139.81H119.01V158.76H119.3V139.81Z" fill="#D6A44D"/>
<path d="M120.41 149.28C120.412 149.528 120.34 149.77 120.204 149.977C120.068 150.184 119.874 150.346 119.645 150.442C119.417 150.538 119.165 150.564 118.922 150.517C118.679 150.47 118.456 150.352 118.28 150.177C118.104 150.003 117.984 149.78 117.935 149.538C117.886 149.295 117.91 149.043 118.004 148.814C118.099 148.585 118.259 148.389 118.465 148.251C118.67 148.114 118.912 148.04 119.16 148.04C119.49 148.04 119.806 148.17 120.04 148.403C120.274 148.635 120.407 148.95 120.41 149.28Z" fill="#D6A44D"/>
<path d="M119.71 142.86C119.711 142.933 119.698 143.005 119.671 143.072C119.644 143.139 119.603 143.201 119.552 143.252C119.501 143.303 119.439 143.344 119.372 143.371C119.305 143.398 119.233 143.411 119.16 143.41C119.082 143.42 119.003 143.414 118.928 143.392C118.853 143.369 118.783 143.331 118.724 143.279C118.665 143.228 118.618 143.164 118.585 143.092C118.553 143.021 118.536 142.943 118.536 142.865C118.536 142.786 118.553 142.709 118.585 142.637C118.618 142.566 118.665 142.502 118.724 142.451C118.783 142.399 118.853 142.361 118.928 142.338C119.003 142.315 119.082 142.309 119.16 142.32C119.232 142.319 119.303 142.332 119.37 142.358C119.436 142.385 119.497 142.424 119.548 142.475C119.6 142.525 119.64 142.585 119.668 142.651C119.696 142.717 119.71 142.788 119.71 142.86Z" fill="#D6A44D"/>
<path d="M119.71 155.7C119.71 155.772 119.696 155.844 119.668 155.91C119.64 155.977 119.6 156.038 119.549 156.089C119.498 156.14 119.437 156.181 119.37 156.208C119.304 156.236 119.232 156.25 119.16 156.25C119.014 156.25 118.874 156.192 118.771 156.089C118.668 155.986 118.61 155.846 118.61 155.7C118.61 155.554 118.668 155.414 118.771 155.311C118.874 155.208 119.014 155.15 119.16 155.15C119.306 155.15 119.446 155.208 119.549 155.311C119.652 155.414 119.71 155.554 119.71 155.7Z" fill="#D6A44D"/>
<path d="M119.3 120.86H119.01V139.81H119.3V120.86Z" fill="#D6A44D"/>
<path d="M120.41 130.33C120.414 130.578 120.344 130.822 120.209 131.03C120.074 131.238 119.88 131.401 119.652 131.499C119.424 131.597 119.172 131.624 118.929 131.578C118.685 131.532 118.46 131.415 118.283 131.241C118.107 131.067 117.986 130.844 117.936 130.601C117.886 130.358 117.909 130.106 118.003 129.877C118.097 129.647 118.258 129.45 118.463 129.312C118.669 129.174 118.912 129.1 119.16 129.1C119.323 129.099 119.484 129.129 119.635 129.19C119.786 129.252 119.924 129.342 120.04 129.456C120.156 129.57 120.248 129.706 120.312 129.856C120.375 130.006 120.409 130.167 120.41 130.33Z" fill="#D6A44D"/>
<path d="M119.71 123.92C119.71 123.992 119.696 124.063 119.668 124.129C119.64 124.195 119.6 124.255 119.548 124.306C119.497 124.356 119.436 124.395 119.37 124.422C119.303 124.449 119.232 124.461 119.16 124.46C119.051 124.46 118.944 124.427 118.853 124.367C118.763 124.306 118.692 124.219 118.651 124.118C118.61 124.017 118.599 123.906 118.621 123.799C118.643 123.692 118.697 123.594 118.775 123.518C118.853 123.441 118.952 123.39 119.059 123.369C119.166 123.349 119.277 123.362 119.378 123.405C119.478 123.448 119.563 123.52 119.622 123.612C119.681 123.704 119.712 123.811 119.71 123.92Z" fill="#D6A44D"/>
<path d="M119.71 136.75C119.71 136.896 119.652 137.036 119.549 137.139C119.446 137.242 119.306 137.3 119.16 137.3C119.014 137.3 118.874 137.242 118.771 137.139C118.668 137.036 118.61 136.896 118.61 136.75C118.61 136.604 118.668 136.464 118.771 136.361C118.874 136.258 119.014 136.2 119.16 136.2C119.306 136.2 119.446 136.258 119.549 136.361C119.652 136.464 119.71 136.604 119.71 136.75Z" fill="#D6A44D"/>
<path d="M119.3 101.91H119.01V120.86H119.3V101.91Z" fill="#D6A44D"/>
<path d="M119.16 112.62C119.85 112.62 120.41 112.065 120.41 111.38C120.41 110.695 119.85 110.14 119.16 110.14C118.47 110.14 117.91 110.695 117.91 111.38C117.91 112.065 118.47 112.62 119.16 112.62Z" fill="#D6A44D"/>
<path d="M119.71 105C119.71 105.146 119.652 105.286 119.549 105.389C119.446 105.492 119.306 105.55 119.16 105.55C119.014 105.55 118.874 105.492 118.771 105.389C118.668 105.286 118.61 105.146 118.61 105C118.61 104.854 118.668 104.714 118.771 104.611C118.874 104.508 119.014 104.45 119.16 104.45C119.233 104.449 119.305 104.462 119.372 104.489C119.439 104.516 119.501 104.557 119.552 104.608C119.603 104.66 119.644 104.721 119.671 104.788C119.698 104.855 119.711 104.927 119.71 105Z" fill="#D6A44D"/>
<path d="M119.71 117.8C119.711 117.873 119.698 117.945 119.671 118.012C119.644 118.079 119.603 118.141 119.552 118.192C119.501 118.243 119.439 118.284 119.372 118.311C119.305 118.338 119.233 118.351 119.16 118.35C119.088 118.35 119.016 118.336 118.95 118.308C118.883 118.28 118.822 118.24 118.771 118.189C118.72 118.138 118.679 118.077 118.652 118.01C118.624 117.944 118.61 117.872 118.61 117.8C118.61 117.654 118.668 117.514 118.771 117.411C118.874 117.308 119.014 117.25 119.16 117.25C119.306 117.25 119.446 117.308 119.549 117.411C119.652 117.514 119.71 117.654 119.71 117.8Z" fill="#D6A44D"/>
<path d="M119.3 82.96H119.01V101.91H119.3V82.96Z" fill="#D6A44D"/>
<path d="M119.16 93.6799C119.85 93.6799 120.41 93.1248 120.41 92.4399C120.41 91.7551 119.85 91.2 119.16 91.2C118.47 91.2 117.91 91.7551 117.91 92.4399C117.91 93.1248 118.47 93.6799 119.16 93.6799Z" fill="#D6A44D"/>
<path d="M119.71 86C119.71 86.1459 119.652 86.2858 119.549 86.3889C119.446 86.4921 119.306 86.55 119.16 86.55C119.014 86.55 118.874 86.4921 118.771 86.3889C118.668 86.2858 118.61 86.1459 118.61 86C118.61 85.8541 118.668 85.7142 118.771 85.6111C118.874 85.5079 119.014 85.45 119.16 85.45C119.306 85.45 119.446 85.5079 119.549 85.6111C119.652 85.7142 119.71 85.8541 119.71 86Z" fill="#D6A44D"/>
<path d="M119.71 98.85C119.711 98.9226 119.698 98.9946 119.671 99.0619C119.644 99.1293 119.603 99.1905 119.552 99.2418C119.501 99.2932 119.439 99.3336 119.372 99.3607C119.305 99.3879 119.233 99.4012 119.16 99.3998C119.082 99.4104 119.003 99.4043 118.928 99.3817C118.853 99.3592 118.783 99.3208 118.724 99.2692C118.665 99.2176 118.618 99.1539 118.585 99.0824C118.553 99.011 118.536 98.9334 118.536 98.8549C118.536 98.7764 118.553 98.6988 118.585 98.6273C118.618 98.5559 118.665 98.4922 118.724 98.4406C118.783 98.389 118.853 98.3506 118.928 98.328C119.003 98.3055 119.082 98.2994 119.16 98.31C119.232 98.3086 119.303 98.3215 119.37 98.348C119.436 98.3746 119.497 98.4142 119.548 98.4645C119.6 98.5148 119.64 98.5748 119.668 98.641C119.696 98.7072 119.71 98.7782 119.71 98.85Z" fill="#D6A44D"/>
<path d="M119.3 64.01H119.01V82.96H119.3V64.01Z" fill="#D6A44D"/>
<path d="M119.16 74.73C119.85 74.73 120.41 74.1748 120.41 73.49C120.41 72.8052 119.85 72.25 119.16 72.25C118.47 72.25 117.91 72.8052 117.91 73.49C117.91 74.1748 118.47 74.73 119.16 74.73Z" fill="#D6A44D"/>
<path d="M119.71 67.0701C119.71 67.2159 119.652 67.3558 119.549 67.459C119.446 67.5621 119.306 67.6201 119.16 67.6201C119.014 67.6201 118.874 67.5621 118.771 67.459C118.668 67.3558 118.61 67.2159 118.61 67.0701C118.61 66.9242 118.668 66.7843 118.771 66.6812C118.874 66.578 119.014 66.52 119.16 66.52C119.306 66.52 119.446 66.578 119.549 66.6812C119.652 66.7843 119.71 66.9242 119.71 67.0701Z" fill="#D6A44D"/>
<path d="M119.71 79.91C119.71 79.9818 119.696 80.0528 119.668 80.119C119.64 80.1852 119.6 80.2452 119.548 80.2955C119.497 80.3458 119.436 80.3854 119.37 80.412C119.303 80.4385 119.232 80.4514 119.16 80.4501C119.051 80.45 118.944 80.4177 118.853 80.3568C118.763 80.2959 118.692 80.2093 118.651 80.1083C118.61 80.0072 118.599 79.8961 118.621 79.7892C118.643 79.6822 118.697 79.5842 118.775 79.5077C118.853 79.4312 118.952 79.3796 119.059 79.3595C119.166 79.3394 119.277 79.3517 119.378 79.3949C119.478 79.438 119.563 79.5102 119.622 79.6019C119.681 79.6937 119.712 79.8008 119.71 79.91Z" fill="#D6A44D"/>
<path d="M119.3 45.0701H119.01V64.02H119.3V45.0701Z" fill="#D6A44D"/>
<path d="M119.16 55.78C119.85 55.78 120.41 55.2249 120.41 54.54C120.41 53.8552 119.85 53.3 119.16 53.3C118.47 53.3 117.91 53.8552 117.91 54.54C117.91 55.2249 118.47 55.78 119.16 55.78Z" fill="#D6A44D"/>
<path d="M119.71 48.1201C119.711 48.1927 119.698 48.2647 119.671 48.332C119.644 48.3994 119.603 48.4606 119.552 48.512C119.501 48.5633 119.439 48.6037 119.372 48.6309C119.305 48.658 119.233 48.6713 119.16 48.6699C119.014 48.6699 118.874 48.6119 118.771 48.5088C118.668 48.4056 118.61 48.266 118.61 48.1201C118.61 47.9742 118.668 47.8343 118.771 47.7312C118.874 47.6281 119.014 47.5701 119.16 47.5701C119.306 47.5701 119.446 47.6281 119.549 47.7312C119.652 47.8343 119.71 47.9742 119.71 48.1201Z" fill="#D6A44D"/>
<path d="M119.71 61.0001C119.71 61.146 119.652 61.2859 119.549 61.389C119.446 61.4922 119.306 61.5501 119.16 61.5501C119.014 61.5501 118.874 61.4922 118.771 61.389C118.668 61.2859 118.61 61.146 118.61 61.0001C118.61 60.8542 118.668 60.7143 118.771 60.6112C118.874 60.508 119.014 60.45 119.16 60.45C119.233 60.4487 119.305 60.4619 119.372 60.4891C119.439 60.5163 119.501 60.5569 119.552 60.6082C119.603 60.6596 119.644 60.7206 119.671 60.7879C119.698 60.8553 119.711 60.9275 119.71 61.0001Z" fill="#D6A44D"/>
<path d="M119.3 26.1201H119.01V45.0701H119.3V26.1201Z" fill="#D6A44D"/>
<path d="M119.16 36.8301C119.85 36.8301 120.41 36.2749 120.41 35.5901C120.41 34.9053 119.85 34.3501 119.16 34.3501C118.47 34.3501 117.91 34.9053 117.91 35.5901C117.91 36.2749 118.47 36.8301 119.16 36.8301Z" fill="#D6A44D"/>
<path d="M119.71 29.17C119.711 29.2426 119.698 29.3148 119.671 29.3822C119.644 29.4495 119.603 29.5108 119.552 29.5621C119.501 29.6134 119.439 29.6538 119.372 29.681C119.305 29.7082 119.233 29.7214 119.16 29.7201C119.082 29.7306 119.003 29.7245 118.928 29.702C118.853 29.6794 118.783 29.6411 118.724 29.5894C118.665 29.5378 118.618 29.4741 118.585 29.4027C118.553 29.3312 118.536 29.2536 118.536 29.1751C118.536 29.0967 118.553 29.0191 118.585 28.9476C118.618 28.8762 118.665 28.8125 118.724 28.7608C118.783 28.7092 118.853 28.6708 118.928 28.6483C119.003 28.6257 119.082 28.6194 119.16 28.63C119.232 28.6286 119.303 28.6418 119.37 28.6683C119.436 28.6948 119.497 28.7345 119.548 28.7848C119.6 28.835 119.64 28.8949 119.668 28.961C119.696 29.0272 119.71 29.0983 119.71 29.17Z" fill="#D6A44D"/>
<path d="M119.71 42C119.71 42.1459 119.652 42.2858 119.549 42.3889C119.446 42.4921 119.306 42.55 119.16 42.55C119.014 42.55 118.874 42.4921 118.771 42.3889C118.668 42.2858 118.61 42.1459 118.61 42C118.61 41.8541 118.668 41.7142 118.771 41.6111C118.874 41.5079 119.014 41.45 119.16 41.45C119.306 41.45 119.446 41.5079 119.549 41.6111C119.652 41.7142 119.71 41.8541 119.71 42Z" fill="#D6A44D"/>
<path d="M119.3 7.16992H119.01V26.1201H119.3V7.16992Z" fill="#D6A44D"/>
<path d="M119.16 17.8799C119.85 17.8799 120.41 17.3247 120.41 16.6399C120.41 15.9551 119.85 15.3999 119.16 15.3999C118.47 15.3999 117.91 15.9551 117.91 16.6399C117.91 17.3247 118.47 17.8799 119.16 17.8799Z" fill="#D6A44D"/>
<path d="M119.71 10.2301C119.71 10.3018 119.696 10.3729 119.668 10.4391C119.64 10.5052 119.6 10.5653 119.548 10.6156C119.497 10.6659 119.436 10.7053 119.37 10.7318C119.303 10.7583 119.232 10.7715 119.16 10.7701C119.051 10.7701 118.944 10.7375 118.853 10.6766C118.763 10.6157 118.692 10.5294 118.651 10.4283C118.61 10.3272 118.599 10.2159 118.621 10.109C118.643 10.002 118.697 9.90425 118.775 9.82774C118.853 9.75123 118.952 9.69963 119.059 9.67955C119.166 9.65947 119.277 9.67178 119.378 9.71495C119.478 9.75811 119.563 9.83023 119.622 9.92198C119.681 10.0137 119.712 10.1209 119.71 10.2301Z" fill="#D6A44D"/>
<path d="M119.71 23.0601C119.71 23.2059 119.652 23.3458 119.549 23.449C119.446 23.5521 119.306 23.6101 119.16 23.6101C119.014 23.6101 118.874 23.5521 118.771 23.449C118.668 23.3458 118.61 23.2059 118.61 23.0601C118.61 22.9142 118.668 22.7743 118.771 22.6711C118.874 22.568 119.014 22.51 119.16 22.51C119.306 22.51 119.446 22.568 119.549 22.6711C119.652 22.7743 119.71 22.9142 119.71 23.0601Z" fill="#D6A44D"/>
<path d="M119.3 -11.78H119.01V7.16992H119.3V-11.78Z" fill="#D6A44D"/>
<path d="M119.71 4.11011C119.711 4.18271 119.698 4.25468 119.671 4.32202C119.644 4.38936 119.603 4.45061 119.552 4.50195C119.501 4.5533 119.439 4.59369 119.372 4.62085C119.305 4.64801 119.233 4.66127 119.16 4.65991C119.088 4.65991 119.016 4.6458 118.95 4.61816C118.883 4.59052 118.822 4.5501 118.771 4.49902C118.72 4.44795 118.679 4.38729 118.652 4.32056C118.624 4.25383 118.61 4.18233 118.61 4.11011C118.61 3.96424 118.668 3.82434 118.771 3.72119C118.874 3.61805 119.014 3.56006 119.16 3.56006C119.306 3.56006 119.446 3.61805 119.549 3.72119C119.652 3.82434 119.71 3.96424 119.71 4.11011Z" fill="#D6A44D"/>
<path d="M125.18 210.74L126.6 219L119.18 215.1L111.75 219L113.17 210.74L107.17 204.88L115.47 203.67L119.18 196.16L122.89 203.67L131.19 204.88L125.18 210.74Z" fill="url(#paint6_linear_179_709)"/>
<path d="M125.18 210.74L126.6 219L119.18 215.1V196.16L122.89 203.67L131.19 204.88L125.18 210.74Z" fill="url(#paint7_linear_179_709)"/>
<path d="M845.06 205.27H844.7V228.79H845.06V205.27Z" fill="#D6A44D"/>
<path d="M846.43 217C846.432 217.307 846.343 217.608 846.174 217.864C846.005 218.12 845.763 218.32 845.48 218.439C845.197 218.558 844.885 218.59 844.584 218.532C844.282 218.473 844.005 218.326 843.788 218.11C843.57 217.893 843.421 217.617 843.361 217.316C843.3 217.015 843.33 216.703 843.447 216.419C843.564 216.135 843.763 215.893 844.018 215.722C844.273 215.551 844.573 215.46 844.88 215.46C845.083 215.459 845.284 215.498 845.472 215.574C845.66 215.651 845.831 215.764 845.975 215.908C846.119 216.051 846.234 216.221 846.312 216.408C846.39 216.596 846.43 216.797 846.43 217Z" fill="#D6A44D"/>
<path d="M845.57 209.06C845.572 209.197 845.533 209.331 845.459 209.446C845.384 209.561 845.277 209.651 845.151 209.705C845.025 209.758 844.886 209.774 844.752 209.748C844.617 209.723 844.493 209.658 844.396 209.562C844.298 209.466 844.232 209.342 844.204 209.208C844.177 209.074 844.19 208.935 844.242 208.808C844.294 208.682 844.382 208.573 844.496 208.497C844.609 208.421 844.743 208.38 844.88 208.38C844.97 208.379 845.06 208.395 845.143 208.429C845.227 208.463 845.303 208.512 845.367 208.576C845.431 208.639 845.482 208.714 845.517 208.797C845.552 208.881 845.57 208.97 845.57 209.06Z" fill="#D6A44D"/>
<path d="M845.57 225C845.572 225.137 845.533 225.271 845.459 225.386C845.384 225.501 845.277 225.591 845.151 225.645C845.025 225.698 844.886 225.714 844.752 225.688C844.617 225.663 844.493 225.598 844.396 225.502C844.298 225.405 844.232 225.283 844.204 225.149C844.177 225.014 844.19 224.875 844.242 224.748C844.294 224.622 844.382 224.513 844.496 224.437C844.609 224.361 844.743 224.32 844.88 224.32C844.97 224.319 845.06 224.335 845.143 224.369C845.227 224.403 845.303 224.452 845.367 224.516C845.431 224.579 845.482 224.654 845.517 224.738C845.552 224.821 845.57 224.91 845.57 225Z" fill="#D6A44D"/>
<path d="M845.06 181.75H844.7V205.27H845.06V181.75Z" fill="#D6A44D"/>
<path d="M846.43 193.51C846.432 193.817 846.343 194.117 846.174 194.374C846.005 194.63 845.763 194.83 845.48 194.949C845.197 195.068 844.885 195.1 844.584 195.041C844.282 194.983 844.005 194.836 843.788 194.62C843.57 194.403 843.421 194.127 843.361 193.826C843.3 193.525 843.33 193.213 843.447 192.929C843.564 192.645 843.763 192.403 844.018 192.232C844.273 192.061 844.573 191.97 844.88 191.97C845.083 191.967 845.285 192.005 845.474 192.081C845.663 192.158 845.834 192.271 845.978 192.414C846.123 192.558 846.237 192.729 846.315 192.917C846.392 193.105 846.431 193.306 846.43 193.51Z" fill="#D6A44D"/>
<path d="M845.57 185.54C845.572 185.677 845.533 185.811 845.459 185.926C845.384 186.041 845.277 186.131 845.151 186.185C845.025 186.238 844.886 186.254 844.752 186.228C844.617 186.203 844.493 186.138 844.396 186.042C844.298 185.945 844.232 185.822 844.204 185.688C844.177 185.554 844.19 185.415 844.242 185.288C844.294 185.162 844.382 185.053 844.496 184.977C844.609 184.901 844.743 184.86 844.88 184.86C845.061 184.86 845.235 184.931 845.364 185.059C845.493 185.186 845.567 185.359 845.57 185.54Z" fill="#D6A44D"/>
<path d="M845.57 201.47C845.572 201.607 845.533 201.741 845.459 201.856C845.384 201.971 845.277 202.061 845.151 202.115C845.025 202.168 844.886 202.183 844.752 202.158C844.617 202.132 844.493 202.068 844.396 201.971C844.298 201.875 844.232 201.753 844.204 201.618C844.177 201.484 844.19 201.345 844.242 201.218C844.294 201.092 844.382 200.983 844.496 200.907C844.609 200.831 844.743 200.79 844.88 200.79C845.061 200.79 845.235 200.861 845.364 200.989C845.493 201.116 845.567 201.289 845.57 201.47Z" fill="#D6A44D"/>
<path d="M845.06 158.23H844.7V181.75H845.06V158.23Z" fill="#D6A44D"/>
<path d="M844.88 171.53C845.736 171.53 846.43 170.841 846.43 169.99C846.43 169.139 845.736 168.45 844.88 168.45C844.024 168.45 843.33 169.139 843.33 169.99C843.33 170.841 844.024 171.53 844.88 171.53Z" fill="#D6A44D"/>
<path d="M845.57 162C845.55 162.167 845.469 162.322 845.343 162.434C845.216 162.545 845.054 162.607 844.885 162.607C844.716 162.607 844.554 162.545 844.427 162.434C844.301 162.322 844.22 162.167 844.2 162C844.22 161.833 844.301 161.678 844.427 161.566C844.554 161.455 844.716 161.393 844.885 161.393C845.054 161.393 845.216 161.455 845.343 161.566C845.469 161.678 845.55 161.833 845.57 162Z" fill="#D6A44D"/>
<path d="M845.57 178C845.55 178.167 845.469 178.322 845.343 178.434C845.216 178.545 845.054 178.607 844.885 178.607C844.716 178.607 844.554 178.545 844.427 178.434C844.301 178.322 844.22 178.167 844.2 178C844.22 177.833 844.301 177.678 844.427 177.566C844.554 177.455 844.716 177.393 844.885 177.393C845.054 177.393 845.216 177.455 845.343 177.566C845.469 177.678 845.55 177.833 845.57 178Z" fill="#D6A44D"/>
<path d="M845.06 134.71H844.7V158.23H845.06V134.71Z" fill="#D6A44D"/>
<path d="M844.88 148.01C845.736 148.01 846.43 147.32 846.43 146.47C846.43 145.619 845.736 144.93 844.88 144.93C844.024 144.93 843.33 145.619 843.33 146.47C843.33 147.32 844.024 148.01 844.88 148.01Z" fill="#D6A44D"/>
<path d="M845.57 138.51C845.55 138.677 845.469 138.832 845.343 138.943C845.216 139.055 845.054 139.117 844.885 139.117C844.716 139.117 844.554 139.055 844.427 138.943C844.301 138.832 844.22 138.677 844.2 138.51C844.22 138.343 844.301 138.188 844.427 138.076C844.554 137.965 844.716 137.903 844.885 137.903C845.054 137.903 845.216 137.965 845.343 138.076C845.469 138.188 845.55 138.343 845.57 138.51Z" fill="#D6A44D"/>
<path d="M845.57 154.44C845.55 154.607 845.469 154.762 845.343 154.874C845.216 154.985 845.054 155.047 844.885 155.047C844.716 155.047 844.554 154.985 844.427 154.874C844.301 154.762 844.22 154.607 844.2 154.44C844.22 154.273 844.301 154.118 844.427 154.007C844.554 153.895 844.716 153.833 844.885 153.833C845.054 153.833 845.216 153.895 845.343 154.007C845.469 154.118 845.55 154.273 845.57 154.44Z" fill="#D6A44D"/>
<path d="M845.06 111.2H844.7V134.72H845.06V111.2Z" fill="#D6A44D"/>
<path d="M844.88 124.5C845.736 124.5 846.43 123.81 846.43 122.96C846.43 122.109 845.736 121.42 844.88 121.42C844.024 121.42 843.33 122.109 843.33 122.96C843.33 123.81 844.024 124.5 844.88 124.5Z" fill="#D6A44D"/>
<path d="M845.57 115C845.572 115.137 845.533 115.271 845.459 115.386C845.384 115.501 845.277 115.591 845.151 115.645C845.025 115.698 844.886 115.714 844.752 115.688C844.617 115.663 844.493 115.598 844.396 115.502C844.298 115.405 844.232 115.283 844.204 115.149C844.177 115.014 844.19 114.875 844.242 114.748C844.294 114.622 844.382 114.513 844.496 114.437C844.609 114.361 844.743 114.32 844.88 114.32C844.97 114.319 845.06 114.335 845.143 114.369C845.227 114.403 845.303 114.452 845.367 114.516C845.431 114.579 845.482 114.654 845.517 114.738C845.552 114.821 845.57 114.91 845.57 115Z" fill="#D6A44D"/>
<path d="M845.57 130.92C845.572 131.057 845.533 131.191 845.459 131.306C845.384 131.421 845.277 131.511 845.151 131.565C845.025 131.618 844.886 131.633 844.752 131.608C844.617 131.583 844.493 131.518 844.396 131.421C844.298 131.325 844.232 131.203 844.204 131.068C844.177 130.934 844.19 130.795 844.242 130.668C844.294 130.542 844.382 130.433 844.496 130.357C844.609 130.281 844.743 130.24 844.88 130.24C844.97 130.239 845.06 130.255 845.143 130.289C845.227 130.322 845.303 130.372 845.367 130.436C845.431 130.499 845.482 130.574 845.517 130.658C845.552 130.741 845.57 130.83 845.57 130.92Z" fill="#D6A44D"/>
<path d="M845.06 87.6799H844.7V111.2H845.06V87.6799Z" fill="#D6A44D"/>
<path d="M844.88 100.98C845.736 100.98 846.43 100.29 846.43 99.4399C846.43 98.5894 845.736 97.8999 844.88 97.8999C844.024 97.8999 843.33 98.5894 843.33 99.4399C843.33 100.29 844.024 100.98 844.88 100.98Z" fill="#D6A44D"/>
<path d="M845.57 91.47C845.572 91.6069 845.533 91.7413 845.459 91.856C845.384 91.9708 845.277 92.0608 845.151 92.1146C845.025 92.1683 844.886 92.1835 844.752 92.158C844.617 92.1325 844.493 92.0676 844.396 91.9715C844.298 91.8754 844.232 91.7526 844.204 91.6185C844.177 91.4844 844.19 91.345 844.242 91.2183C844.294 91.0917 844.382 90.9833 844.496 90.9071C844.609 90.8308 844.743 90.7901 844.88 90.7901C844.97 90.7888 845.06 90.8054 845.143 90.8389C845.227 90.8725 845.303 90.9224 845.367 90.9857C845.431 91.0489 845.482 91.1244 845.517 91.2076C845.552 91.2908 845.57 91.3799 845.57 91.47Z" fill="#D6A44D"/>
<path d="M845.57 107.4C845.572 107.537 845.533 107.671 845.459 107.786C845.384 107.901 845.277 107.991 845.151 108.045C845.025 108.099 844.886 108.113 844.752 108.088C844.617 108.062 844.493 107.998 844.396 107.901C844.298 107.805 844.232 107.683 844.204 107.548C844.177 107.414 844.19 107.275 844.242 107.148C844.294 107.022 844.382 106.913 844.496 106.837C844.609 106.761 844.743 106.72 844.88 106.72C844.97 106.719 845.06 106.735 845.143 106.769C845.227 106.802 845.303 106.852 845.367 106.916C845.431 106.979 845.482 107.054 845.517 107.138C845.552 107.221 845.57 107.31 845.57 107.4Z" fill="#D6A44D"/>
<path d="M845.06 64.1599H844.7V87.6799H845.06V64.1599Z" fill="#D6A44D"/>
<path d="M844.88 77.46C845.736 77.46 846.43 76.7704 846.43 75.9199C846.43 75.0694 845.736 74.3799 844.88 74.3799C844.024 74.3799 843.33 75.0694 843.33 75.9199C843.33 76.7704 844.024 77.46 844.88 77.46Z" fill="#D6A44D"/>
<path d="M845.57 68C845.57 68.1365 845.53 68.2698 845.454 68.3833C845.378 68.4968 845.27 68.5852 845.144 68.6375C845.018 68.6897 844.879 68.7034 844.745 68.6768C844.612 68.6501 844.489 68.5843 844.392 68.4878C844.296 68.3913 844.23 68.2684 844.203 68.1345C844.177 68.0007 844.19 67.8619 844.243 67.7358C844.295 67.6098 844.383 67.5021 844.497 67.4263C844.61 67.3505 844.744 67.3101 844.88 67.3101C844.971 67.3101 845.06 67.3279 845.144 67.3625C845.228 67.3972 845.304 67.4481 845.368 67.5122C845.432 67.5763 845.483 67.6521 845.517 67.7358C845.552 67.8196 845.57 67.9094 845.57 68Z" fill="#D6A44D"/>
<path d="M845.57 83.8899C845.57 84.0264 845.53 84.16 845.454 84.2734C845.378 84.3869 845.27 84.4754 845.144 84.5276C845.018 84.5798 844.879 84.5933 844.745 84.5667C844.612 84.54 844.489 84.4744 844.392 84.3779C844.296 84.2814 844.23 84.1585 844.203 84.0247C844.177 83.8908 844.19 83.7521 844.243 83.626C844.295 83.4999 844.383 83.3922 844.497 83.3164C844.61 83.2406 844.744 83.2 844.88 83.2C844.971 83.2 845.06 83.2178 845.144 83.2524C845.228 83.2871 845.304 83.338 845.368 83.4021C845.432 83.4662 845.483 83.5423 845.517 83.626C845.552 83.7097 845.57 83.7993 845.57 83.8899Z" fill="#D6A44D"/>
<path d="M845.06 40.6399H844.7V64.1599H845.06V40.6399Z" fill="#D6A44D"/>
<path d="M844.88 53.9399C845.736 53.9399 846.43 53.2504 846.43 52.3999C846.43 51.5494 845.736 50.8601 844.88 50.8601C844.024 50.8601 843.33 51.5494 843.33 52.3999C843.33 53.2504 844.024 53.9399 844.88 53.9399Z" fill="#D6A44D"/>
<path d="M845.57 44.4399C845.55 44.6074 845.469 44.7617 845.343 44.8735C845.216 44.9854 845.054 45.0471 844.885 45.0471C844.716 45.0471 844.554 44.9854 844.427 44.8735C844.301 44.7617 844.22 44.6074 844.2 44.4399C844.22 44.2725 844.301 44.1184 844.427 44.0066C844.554 43.8947 844.716 43.833 844.885 43.833C845.054 43.833 845.216 43.8947 845.343 44.0066C845.469 44.1184 845.55 44.2725 845.57 44.4399Z" fill="#D6A44D"/>
<path d="M845.57 60.3701C845.55 60.5375 845.469 60.6916 845.343 60.8035C845.216 60.9153 845.054 60.9771 844.885 60.9771C844.716 60.9771 844.554 60.9153 844.427 60.8035C844.301 60.6916 844.22 60.5375 844.2 60.3701C844.22 60.2027 844.301 60.0484 844.427 59.9365C844.554 59.8247 844.716 59.7629 844.885 59.7629C845.054 59.7629 845.216 59.8247 845.343 59.9365C845.469 60.0484 845.55 60.2027 845.57 60.3701Z" fill="#D6A44D"/>
<path d="M845.06 17.1299H844.7V40.6499H845.06V17.1299Z" fill="#D6A44D"/>
<path d="M844.88 30.4299C845.736 30.4299 846.43 29.7404 846.43 28.8899C846.43 28.0394 845.736 27.3501 844.88 27.3501C844.024 27.3501 843.33 28.0394 843.33 28.8899C843.33 29.7404 844.024 30.4299 844.88 30.4299Z" fill="#D6A44D"/>
<path d="M845.57 20.92C845.572 21.0569 845.533 21.1912 845.459 21.306C845.384 21.4208 845.277 21.5108 845.151 21.5645C845.025 21.6183 844.886 21.6335 844.752 21.608C844.617 21.5825 844.493 21.5175 844.396 21.4215C844.298 21.3254 844.232 21.2025 844.204 21.0684C844.177 20.9343 844.19 20.795 844.242 20.6683C844.294 20.5416 844.382 20.4333 844.496 20.357C844.609 20.2807 844.743 20.2401 844.88 20.2401C844.97 20.2387 845.06 20.2553 845.143 20.2889C845.227 20.3225 845.303 20.3723 845.367 20.4356C845.431 20.4989 845.482 20.5744 845.517 20.6575C845.552 20.7407 845.57 20.8298 845.57 20.92Z" fill="#D6A44D"/>
<path d="M845.57 36.8502C845.572 36.987 845.533 37.1214 845.459 37.2362C845.384 37.3509 845.277 37.4409 845.151 37.4947C845.025 37.5485 844.886 37.5634 844.752 37.5379C844.617 37.5124 844.493 37.4477 844.396 37.3516C844.298 37.2555 844.232 37.1325 844.204 36.9984C844.177 36.8643 844.19 36.7251 844.242 36.5985C844.294 36.4718 844.382 36.3635 844.496 36.2872C844.609 36.2109 844.743 36.17 844.88 36.17C844.97 36.1687 845.06 36.1852 845.143 36.2188C845.227 36.2524 845.303 36.3023 845.367 36.3656C845.431 36.4288 845.482 36.5043 845.517 36.5875C845.552 36.6706 845.57 36.76 845.57 36.8502Z" fill="#D6A44D"/>
<path d="M845.06 -6.38989H844.7V17.1299H845.06V-6.38989Z" fill="#D6A44D"/>
<path d="M844.88 6.90991C845.736 6.90991 846.43 6.22064 846.43 5.37012C846.43 4.5196 845.736 3.83008 844.88 3.83008C844.024 3.83008 843.33 4.5196 843.33 5.37012C843.33 6.22064 844.024 6.90991 844.88 6.90991Z" fill="#D6A44D"/>
<path d="M845.57 13.3302C845.572 13.467 845.533 13.6014 845.459 13.7161C845.384 13.8309 845.277 13.9209 845.151 13.9747C845.025 14.0284 844.886 14.0434 844.752 14.0179C844.617 13.9924 844.493 13.9277 844.396 13.8316C844.298 13.7355 844.232 13.6125 844.204 13.4783C844.177 13.3442 844.19 13.2051 844.242 13.0784C844.294 12.9518 844.382 12.8434 844.496 12.7672C844.609 12.6909 844.743 12.65 844.88 12.65C844.97 12.6486 845.06 12.6655 845.143 12.699C845.227 12.7326 845.303 12.7825 845.367 12.8458C845.431 12.9091 845.482 12.9843 845.517 13.0675C845.552 13.1506 845.57 13.24 845.57 13.3302Z" fill="#D6A44D"/>
<path d="M852.35 246.26L854.11 256.52L844.91 251.68L835.68 256.52L837.45 246.26L830 238.99L840.3 237.49L844.91 228.17L849.51 237.49L859.81 238.99L852.35 246.26Z" fill="url(#paint8_linear_179_709)"/>
<path d="M852.35 246.26L854.11 256.52L844.91 251.68V228.17L849.51 237.49L859.81 238.99L852.35 246.26Z" fill="url(#paint9_linear_179_709)"/>
<path d="M942.69 168.84H942.33V192.36H942.69V168.84Z" fill="#D6A44D"/>
<path d="M944.06 180.6C944.062 180.907 943.973 181.208 943.804 181.464C943.635 181.72 943.393 181.92 943.11 182.039C942.827 182.158 942.515 182.19 942.214 182.131C941.912 182.073 941.635 181.926 941.418 181.709C941.2 181.493 941.051 181.217 940.991 180.916C940.93 180.615 940.96 180.303 941.077 180.019C941.194 179.735 941.393 179.493 941.648 179.322C941.903 179.151 942.203 179.06 942.51 179.06C942.919 179.06 943.312 179.222 943.602 179.51C943.893 179.799 944.057 180.191 944.06 180.6Z" fill="#D6A44D"/>
<path d="M943.19 172.64C943.19 172.82 943.118 172.993 942.991 173.121C942.863 173.248 942.69 173.32 942.51 173.32C942.373 173.322 942.238 173.283 942.123 173.208C942.008 173.133 941.918 173.025 941.864 172.899C941.811 172.772 941.797 172.633 941.823 172.498C941.849 172.363 941.915 172.239 942.012 172.142C942.109 172.045 942.233 171.979 942.368 171.953C942.503 171.927 942.642 171.941 942.769 171.995C942.895 172.048 943.003 172.138 943.078 172.253C943.153 172.368 943.192 172.503 943.19 172.64Z" fill="#D6A44D"/>
<path d="M943.19 188.57C943.19 188.75 943.118 188.923 942.991 189.051C942.863 189.178 942.69 189.25 942.51 189.25C942.373 189.252 942.238 189.213 942.123 189.138C942.008 189.063 941.918 188.955 941.864 188.829C941.811 188.702 941.797 188.563 941.823 188.428C941.849 188.293 941.915 188.169 942.012 188.072C942.109 187.975 942.233 187.909 942.368 187.883C942.503 187.857 942.642 187.871 942.769 187.925C942.895 187.978 943.003 188.068 943.078 188.183C943.153 188.298 943.192 188.433 943.19 188.57Z" fill="#D6A44D"/>
<path d="M942.69 145.32H942.33V168.84H942.69V145.32Z" fill="#D6A44D"/>
<path d="M944.06 157.08C944.064 157.387 943.976 157.689 943.809 157.947C943.641 158.204 943.4 158.406 943.117 158.526C942.834 158.647 942.522 158.68 942.22 158.623C941.918 158.565 941.64 158.419 941.421 158.203C941.203 157.987 941.053 157.711 940.991 157.41C940.93 157.109 940.959 156.796 941.076 156.511C941.193 156.227 941.392 155.984 941.647 155.813C941.902 155.642 942.203 155.55 942.51 155.55C942.918 155.55 943.309 155.71 943.599 155.997C943.889 156.283 944.055 156.672 944.06 157.08Z" fill="#D6A44D"/>
<path d="M943.19 149.12C943.19 149.301 943.118 149.473 942.991 149.601C942.863 149.728 942.69 149.8 942.51 149.8C942.33 149.8 942.157 149.728 942.029 149.601C941.902 149.473 941.83 149.301 941.83 149.12C941.83 148.94 941.902 148.767 942.029 148.639C942.157 148.512 942.33 148.44 942.51 148.44C942.6 148.439 942.689 148.455 942.772 148.489C942.855 148.523 942.93 148.573 942.994 148.636C943.057 148.7 943.107 148.775 943.141 148.858C943.175 148.941 943.191 149.031 943.19 149.12Z" fill="#D6A44D"/>
<path d="M943.19 165.05C943.19 165.23 943.118 165.403 942.991 165.531C942.863 165.658 942.69 165.73 942.51 165.73C942.33 165.73 942.157 165.658 942.029 165.531C941.902 165.403 941.83 165.23 941.83 165.05C941.83 164.87 941.902 164.697 942.029 164.569C942.157 164.442 942.33 164.37 942.51 164.37C942.6 164.369 942.689 164.385 942.772 164.419C942.855 164.453 942.93 164.503 942.994 164.566C943.057 164.63 943.107 164.705 943.141 164.788C943.175 164.871 943.191 164.96 943.19 165.05Z" fill="#D6A44D"/>
<path d="M942.69 121.81H942.33V145.33H942.69V121.81Z" fill="#D6A44D"/>
<path d="M942.51 135.1C943.366 135.1 944.06 134.411 944.06 133.56C944.06 132.71 943.366 132.02 942.51 132.02C941.654 132.02 940.96 132.71 940.96 133.56C940.96 134.411 941.654 135.1 942.51 135.1Z" fill="#D6A44D"/>
<path d="M943.19 125.6C943.191 125.69 943.175 125.779 943.141 125.862C943.107 125.945 943.057 126.02 942.994 126.084C942.93 126.147 942.855 126.197 942.772 126.231C942.689 126.265 942.6 126.281 942.51 126.28C942.33 126.28 942.157 126.208 942.029 126.081C941.902 125.953 941.83 125.781 941.83 125.6C941.83 125.42 941.902 125.247 942.029 125.119C942.157 124.992 942.33 124.92 942.51 124.92C942.6 124.919 942.689 124.935 942.772 124.969C942.855 125.003 942.93 125.053 942.994 125.116C943.057 125.18 943.107 125.255 943.141 125.338C943.175 125.421 943.191 125.511 943.19 125.6Z" fill="#D6A44D"/>
<path d="M943.19 141.53C943.191 141.62 943.175 141.709 943.141 141.792C943.107 141.875 943.057 141.951 942.994 142.014C942.93 142.077 942.855 142.127 942.772 142.161C942.689 142.195 942.6 142.211 942.51 142.21C942.33 142.21 942.157 142.138 942.029 142.011C941.902 141.883 941.83 141.71 941.83 141.53C941.83 141.35 941.902 141.177 942.029 141.049C942.157 140.922 942.33 140.85 942.51 140.85C942.6 140.849 942.689 140.865 942.772 140.899C942.855 140.933 942.93 140.983 942.994 141.046C943.057 141.11 943.107 141.185 943.141 141.268C943.175 141.351 943.191 141.44 943.19 141.53Z" fill="#D6A44D"/>
<path d="M942.69 98.29H942.33V121.81H942.69V98.29Z" fill="#D6A44D"/>
<path d="M942.51 111.59C943.366 111.59 944.06 110.901 944.06 110.05C944.06 109.2 943.366 108.51 942.51 108.51C941.654 108.51 940.96 109.2 940.96 110.05C940.96 110.901 941.654 111.59 942.51 111.59Z" fill="#D6A44D"/>
<path d="M943.19 102.08C943.191 102.17 943.175 102.259 943.141 102.342C943.107 102.425 943.057 102.5 942.994 102.564C942.93 102.627 942.855 102.677 942.772 102.711C942.689 102.745 942.6 102.761 942.51 102.76C942.376 102.76 942.244 102.72 942.132 102.645C942.02 102.571 941.933 102.465 941.882 102.34C941.83 102.216 941.817 102.079 941.843 101.947C941.869 101.815 941.934 101.694 942.029 101.599C942.124 101.504 942.245 101.439 942.377 101.413C942.509 101.387 942.646 101.4 942.77 101.452C942.894 101.503 943.001 101.59 943.075 101.702C943.15 101.814 943.19 101.946 943.19 102.08Z" fill="#D6A44D"/>
<path d="M943.19 118C943.191 118.09 943.175 118.179 943.141 118.262C943.107 118.345 943.057 118.421 942.994 118.484C942.93 118.547 942.855 118.598 942.772 118.631C942.689 118.665 942.6 118.681 942.51 118.68C942.376 118.68 942.244 118.64 942.132 118.566C942.02 118.491 941.933 118.385 941.882 118.26C941.83 118.136 941.817 117.999 941.843 117.868C941.869 117.736 941.934 117.614 942.029 117.519C942.124 117.424 942.245 117.359 942.377 117.333C942.509 117.307 942.646 117.32 942.77 117.372C942.894 117.423 943.001 117.511 943.075 117.622C943.15 117.734 943.19 117.866 943.19 118Z" fill="#D6A44D"/>
<path d="M942.69 74.77H942.33V98.29H942.69V74.77Z" fill="#D6A44D"/>
<path d="M942.51 88.0701C943.366 88.0701 944.06 87.3805 944.06 86.53C944.06 85.6795 943.366 84.99 942.51 84.99C941.654 84.99 940.96 85.6795 940.96 86.53C940.96 87.3805 941.654 88.0701 942.51 88.0701Z" fill="#D6A44D"/>
<path d="M943.19 78.5602C943.191 78.6503 943.175 78.7397 943.141 78.8233C943.108 78.907 943.058 78.9833 942.994 79.0475C942.931 79.1117 942.856 79.1626 942.773 79.1974C942.689 79.2322 942.6 79.2501 942.51 79.2501C942.413 79.2618 942.315 79.2528 942.222 79.2237C942.128 79.1947 942.042 79.1461 941.969 79.0814C941.896 79.0167 941.838 78.9373 941.798 78.8482C941.758 78.7592 941.737 78.6627 941.737 78.565C941.737 78.4674 941.758 78.3711 941.798 78.2821C941.838 78.1931 941.896 78.1134 941.969 78.0487C942.042 77.9839 942.128 77.9354 942.222 77.9064C942.315 77.8773 942.413 77.8683 942.51 77.88C942.69 77.88 942.863 77.9517 942.991 78.0792C943.118 78.2067 943.19 78.3798 943.19 78.5602Z" fill="#D6A44D"/>
<path d="M943.19 94.4899C943.191 94.58 943.175 94.6697 943.141 94.7533C943.108 94.837 943.058 94.913 942.994 94.9772C942.931 95.0414 942.856 95.0923 942.773 95.1271C942.689 95.1619 942.6 95.1798 942.51 95.1798C942.413 95.1916 942.315 95.1828 942.222 95.1537C942.128 95.1247 942.042 95.0761 941.969 95.0114C941.896 94.9466 941.838 94.867 941.798 94.778C941.758 94.689 941.737 94.5926 941.737 94.495C941.737 94.3974 941.758 94.3008 941.798 94.2118C941.838 94.1228 941.896 94.0432 941.969 93.9784C942.042 93.9137 942.128 93.8652 942.222 93.8361C942.315 93.807 942.413 93.7982 942.51 93.81C942.69 93.81 942.863 93.8817 942.991 94.0092C943.118 94.1367 943.19 94.3096 943.19 94.4899Z" fill="#D6A44D"/>
<path d="M942.69 51.25H942.33V74.77H942.69V51.25Z" fill="#D6A44D"/>
<path d="M942.51 64.55C943.366 64.55 944.06 63.8605 944.06 63.01C944.06 62.1595 943.366 61.47 942.51 61.47C941.654 61.47 940.96 62.1595 940.96 63.01C940.96 63.8605 941.654 64.55 942.51 64.55Z" fill="#D6A44D"/>
<path d="M943.19 55.0501C943.19 55.2305 943.118 55.4033 942.991 55.5308C942.863 55.6584 942.69 55.7301 942.51 55.7301C942.33 55.7301 942.157 55.6584 942.029 55.5308C941.902 55.4033 941.83 55.2305 941.83 55.0501C941.83 54.8698 941.902 54.6967 942.029 54.5692C942.157 54.4416 942.33 54.3702 942.51 54.3702C942.6 54.3688 942.689 54.3853 942.772 54.419C942.855 54.4527 942.93 54.5028 942.994 54.5662C943.057 54.6297 943.107 54.7051 943.141 54.7882C943.175 54.8713 943.191 54.9605 943.19 55.0501Z" fill="#D6A44D"/>
<path d="M943.19 71.0001C943.19 71.1804 943.118 71.3533 942.991 71.4808C942.863 71.6083 942.69 71.68 942.51 71.68C942.33 71.68 942.157 71.6083 942.029 71.4808C941.902 71.3533 941.83 71.1804 941.83 71.0001C941.83 70.8197 941.902 70.6469 942.029 70.5194C942.157 70.3918 942.33 70.3201 942.51 70.3201C942.6 70.3188 942.689 70.3353 942.772 70.369C942.855 70.4027 942.93 70.4528 942.994 70.5162C943.057 70.5796 943.107 70.6552 943.141 70.7384C943.175 70.8215 943.191 70.9104 943.19 71.0001Z" fill="#D6A44D"/>
<path d="M942.69 27.74H942.33V51.26H942.69V27.74Z" fill="#D6A44D"/>
<path d="M942.51 41.03C943.366 41.03 944.06 40.3405 944.06 39.49C944.06 38.6395 943.366 37.95 942.51 37.95C941.654 37.95 940.96 38.6395 940.96 39.49C940.96 40.3405 941.654 41.03 942.51 41.03Z" fill="#D6A44D"/>
<path d="M943.19 31.5301C943.191 31.6198 943.175 31.7087 943.141 31.7918C943.107 31.8749 943.057 31.9506 942.994 32.014C942.93 32.0774 942.855 32.1273 942.772 32.161C942.689 32.1947 942.6 32.2114 942.51 32.21C942.33 32.21 942.157 32.1383 942.029 32.0108C941.902 31.8833 941.83 31.7105 941.83 31.5301C941.83 31.3498 941.902 31.1767 942.029 31.0491C942.157 30.9216 942.33 30.8502 942.51 30.8502C942.6 30.8488 942.689 30.8653 942.772 30.899C942.855 30.9327 942.93 30.9828 942.994 31.0462C943.057 31.1096 943.107 31.185 943.141 31.2681C943.175 31.3513 943.191 31.4404 943.19 31.5301Z" fill="#D6A44D"/>
<path d="M943.19 47.46C943.191 47.5497 943.175 47.6389 943.141 47.722C943.107 47.8051 943.057 47.8805 942.994 47.9439C942.93 48.0073 942.855 48.0574 942.772 48.0911C942.689 48.1248 942.6 48.1413 942.51 48.14C942.33 48.14 942.157 48.0685 942.029 47.941C941.902 47.8135 941.83 47.6404 941.83 47.46C941.83 47.2797 941.902 47.1068 942.029 46.9793C942.157 46.8518 942.33 46.7801 942.51 46.7801C942.6 46.7788 942.689 46.7955 942.772 46.8292C942.855 46.8629 942.93 46.9127 942.994 46.9761C943.057 47.0396 943.107 47.1152 943.141 47.1983C943.175 47.2814 943.191 47.3704 943.19 47.46Z" fill="#D6A44D"/>
<path d="M942.69 4.21997H942.33V27.74H942.69V4.21997Z" fill="#D6A44D"/>
<path d="M942.51 17.52C943.366 17.52 944.06 16.8305 944.06 15.98C944.06 15.1295 943.366 14.4399 942.51 14.4399C941.654 14.4399 940.96 15.1295 940.96 15.98C940.96 16.8305 941.654 17.52 942.51 17.52Z" fill="#D6A44D"/>
<path d="M943.19 8.0001C943.191 8.08977 943.175 8.1787 943.141 8.26181C943.107 8.34492 943.057 8.42057 942.994 8.48398C942.93 8.5474 942.855 8.5975 942.772 8.6312C942.689 8.66489 942.6 8.68138 942.51 8.68003C942.376 8.68003 942.244 8.64024 942.132 8.56552C942.02 8.49081 941.933 8.3846 941.882 8.26035C941.83 8.1361 941.817 7.99943 941.843 7.86753C941.869 7.73562 941.934 7.61448 942.029 7.51938C942.124 7.42428 942.245 7.35934 942.377 7.3331C942.509 7.30687 942.646 7.32045 942.77 7.37192C942.894 7.42339 943.001 7.51058 943.075 7.62241C943.15 7.73424 943.19 7.8656 943.19 8.0001Z" fill="#D6A44D"/>
<path d="M943.19 23.94C943.191 24.0297 943.175 24.1189 943.141 24.202C943.107 24.2851 943.057 24.3605 942.994 24.4239C942.93 24.4873 942.855 24.5374 942.772 24.5711C942.689 24.6048 942.6 24.6216 942.51 24.6202C942.376 24.6202 942.244 24.5802 942.132 24.5055C942.02 24.4307 941.933 24.3245 941.882 24.2003C941.83 24.076 941.817 23.9394 941.843 23.8075C941.869 23.6756 941.934 23.5544 942.029 23.4593C942.124 23.3642 942.245 23.2993 942.377 23.273C942.509 23.2468 942.646 23.2604 942.77 23.3119C942.894 23.3633 943.001 23.4505 943.075 23.5624C943.15 23.6742 943.19 23.8055 943.19 23.94Z" fill="#D6A44D"/>
<path d="M942.69 -19.3H942.33V4.21997H942.69V-19.3Z" fill="#D6A44D"/>
<path d="M943.19 0.419836C943.191 0.509508 943.175 0.598688 943.141 0.681799C943.107 0.76491 943.057 0.840308 942.994 0.903723C942.93 0.967137 942.855 1.01724 942.772 1.05094C942.689 1.08464 942.6 1.10136 942.51 1.10001C942.376 1.10001 942.244 1.05999 942.132 0.985266C942.02 0.910546 941.933 0.804344 941.882 0.68009C941.83 0.555836 941.817 0.419175 941.843 0.287268C941.869 0.155361 941.934 0.0342229 942.029 -0.0608768C942.124 -0.155976 942.245 -0.220674 942.377 -0.246912C942.509 -0.27315 942.646 -0.259805 942.77 -0.208338C942.894 -0.15687 943.001 -0.0696749 943.075 0.0421506C943.15 0.153976 943.19 0.285345 943.19 0.419836Z" fill="#D6A44D"/>
<path d="M949.97 209.84L951.74 220.1L942.53 215.26L933.31 220.1L935.07 209.84L927.62 202.57L937.92 201.07L942.53 191.74L947.13 201.07L957.43 202.57L949.97 209.84Z" fill="url(#paint10_linear_179_709)"/>
<path d="M949.97 209.84L951.74 220.1L942.53 215.26V191.74L947.13 201.07L957.43 202.57L949.97 209.84Z" fill="url(#paint11_linear_179_709)"/>
</g>
<rect width="978" height="5" fill="url(#paint12_linear_179_709)"/>
<path d="M269.101 144L253.485 99.2H261.805L276.589 141.504L283.629 121.344L275.885 99.2H284.205L287.789 109.376L291.309 99.2H293.357L288.813 112.32L298.989 141.504L313.709 99.2H315.757L300.141 144H291.501L284.653 124.288L277.741 144H269.101ZM321.161 106.688C321.161 100.544 320.074 97.856 317.898 97.856V97.28H328.842V116.032C331.274 112.576 334.922 110.72 339.082 110.72C345.738 110.72 348.234 113.472 348.234 120.064V144H340.554V119.68C340.554 114.368 339.85 112 337.418 112C334.218 112 328.842 116.544 328.842 127.104V144H321.161V106.688ZM372.486 139.776C370.822 142.784 368.006 145.28 363.718 145.28C357.638 145.28 353.03 142.4 353.03 136.576C353.03 124.992 369.99 125.568 372.422 120.384C372.166 113.728 370.374 112 367.878 112C364.614 112 362.118 115.776 362.118 120.96H355.782C355.782 114.688 361.414 110.72 368.326 110.72C376.07 110.72 380.166 114.048 380.166 122.432V144H372.486V139.776ZM360.262 139.008C360.262 141.696 361.67 144 364.998 144C369.542 144 371.91 137.984 372.486 133.824V121.728C369.542 125.952 360.262 128.192 360.262 139.008ZM393.608 145.28C389.064 145.28 387.08 141.504 387.08 136.384V113.28H384.968V112H387.08C390.344 112 394.056 105.6 394.056 102.4H394.76V112H401.352V113.28H394.76V136.256C394.76 139.392 395.784 141.248 397.832 141.312C399.24 141.312 400.328 140.288 401.544 139.008L401.8 139.52C399.944 141.76 397.512 145.28 393.608 145.28ZM404.926 101.504C404.926 99.584 406.398 97.92 408.574 97.92C410.75 97.92 412.414 99.2 412.414 101.76C412.414 104.256 410.046 107.584 406.718 107.584V107.328C407.166 107.328 408.958 106.368 409.214 105.152C406.782 105.024 404.926 103.552 404.926 101.504ZM431.538 145.28C425.842 145.28 419.186 143.744 416.178 142.144V132.928H416.37C419.89 138.24 424.498 144 433.266 144C437.554 144 439.986 141.312 439.986 138.816C439.986 129.6 416.434 130.688 416.434 120.448C416.434 116.032 420.082 110.72 430.642 110.72C436.402 110.72 442.098 112.192 443.89 113.856V121.088H443.698C441.01 116.736 435.57 112 428.786 112C425.33 112 422.258 114.304 422.258 116.416C422.258 124.224 445.618 121.728 445.618 134.784C445.618 141.696 440.562 145.28 431.538 145.28ZM478.487 145.28C470.743 145.28 461.975 139.968 461.975 127.872C461.975 116.032 470.551 110.72 478.231 110.72C485.719 110.72 493.399 115.776 493.399 127.616H470.039C470.231 136.256 474.775 141.184 481.495 141.184C486.359 141.184 490.199 137.984 491.799 134.784L492.375 135.232C490.455 139.136 485.911 145.28 478.487 145.28ZM470.039 126.336H485.783C485.527 115.84 482.647 112 478.231 112C473.303 112 470.167 116.992 470.039 126.336ZM506.272 144L495.008 112H507.552V112.512C502.816 112.512 503.968 115.712 507.744 126.336L513.248 142.016L518.88 125.312C520.096 121.6 518.304 115.904 515.936 112H524.32L513.952 144H506.272ZM542.737 145.28C534.993 145.28 526.225 139.968 526.225 127.872C526.225 116.032 534.801 110.72 542.481 110.72C549.969 110.72 557.649 115.776 557.649 127.616H534.289C534.481 136.256 539.025 141.184 545.745 141.184C550.609 141.184 554.449 137.984 556.049 134.784L556.625 135.232C554.705 139.136 550.161 145.28 542.737 145.28ZM534.289 126.336H550.033C549.777 115.84 546.897 112 542.481 112C537.553 112 534.417 116.992 534.289 126.336ZM562.842 121.408C562.842 115.264 561.754 112.576 559.578 112.576V112H570.522V114.752C572.442 112.128 575.194 110.72 578.778 110.72C583.77 110.72 587.418 113.856 587.418 120.96H580.25C580.058 113.856 579.29 112 577.114 112C573.914 112 570.522 116.544 570.522 127.104V144H562.842V121.408ZM596.121 157.824C592.857 157.824 590.169 156.352 588.633 154.368V147.2C590.169 148.992 593.049 151.68 597.593 151.68C602.905 151.68 604.825 148.48 606.297 144H599.961L588.697 112H601.241V112.512C596.505 112.512 597.657 115.712 601.433 126.336L606.937 142.016L612.441 125.312C613.657 121.6 611.993 115.904 609.625 112H618.009L607.641 144C605.593 150.336 603.033 157.824 596.121 157.824ZM636.231 145.28C628.551 145.28 619.975 139.968 619.975 127.872C619.975 116.032 628.551 110.72 636.231 110.72C643.911 110.72 652.487 116.032 652.487 127.872C652.487 139.968 643.911 145.28 636.231 145.28ZM628.615 127.744C628.615 138.88 631.175 144 636.231 144C641.287 144 643.847 138.88 643.847 127.744C643.847 116.928 641.287 112 636.231 112C631.175 112 628.615 116.928 628.615 127.744ZM657.967 121.408C657.967 115.264 656.879 112.576 654.703 112.576V112H665.647V116.032C668.079 112.576 671.727 110.72 675.887 110.72C682.543 110.72 685.039 113.472 685.039 120.064V144H677.359V119.68C677.359 114.368 676.655 112 674.223 112C671.023 112 665.647 116.544 665.647 127.104V144H657.967V121.408ZM706.675 145.28C698.931 145.28 690.163 139.968 690.163 127.872C690.163 116.032 698.739 110.72 706.419 110.72C713.907 110.72 721.587 115.776 721.587 127.616H698.227C698.419 136.256 702.963 141.184 709.683 141.184C714.547 141.184 718.387 137.984 719.987 134.784L720.562 135.232C718.643 139.136 714.099 145.28 706.675 145.28ZM698.227 126.336H713.971C713.715 115.84 710.835 112 706.419 112C701.491 112 698.355 116.992 698.227 126.336ZM328.397 222L317.133 190H329.677V190.512C324.941 190.512 326.093 193.712 329.869 204.336L335.373 219.952L340.749 202.864L336.205 190H348.749V190.512C344.013 190.512 345.165 193.712 348.941 204.336L354.444 220.016L360.077 203.312C361.293 199.6 359.501 193.904 357.133 190H365.517L355.149 222H347.469L341.453 204.848L336.077 222H328.397ZM370.467 199.408C370.467 193.264 369.379 190.576 367.203 190.576V190H378.147V222H370.467V199.408ZM370.083 179.376C370.083 177.392 371.683 175.792 373.667 175.792C375.651 175.792 377.251 177.392 377.251 179.376C377.251 181.36 375.651 182.96 373.667 182.96C371.683 182.96 370.083 181.36 370.083 179.376ZM398.975 223.28C393.279 223.28 386.623 221.744 383.615 220.144V210.928H383.807C387.327 216.24 391.935 222 400.703 222C404.991 222 407.423 219.312 407.423 216.816C407.423 207.6 383.871 208.688 383.871 198.448C383.871 194.032 387.519 188.72 398.079 188.72C403.839 188.72 409.535 190.192 411.327 191.856V199.088H411.135C408.447 194.736 403.007 190 396.223 190C392.767 190 389.695 192.304 389.695 194.416C389.695 202.224 413.055 199.728 413.055 212.784C413.055 219.696 407.999 223.28 398.975 223.28ZM419.224 184.688C419.224 178.544 418.136 175.856 415.96 175.856V175.28H426.904V194.032C429.336 190.576 432.984 188.72 437.144 188.72C443.8 188.72 446.296 191.472 446.296 198.064V222H438.616V197.68C438.616 192.368 437.912 190 435.48 190C432.28 190 426.904 194.544 426.904 205.104V222H419.224V184.688ZM453.717 199.408C453.717 193.264 452.629 190.576 450.453 190.576V190H461.397V222H453.717V199.408ZM453.333 179.376C453.333 177.392 454.933 175.792 456.917 175.792C458.901 175.792 460.501 177.392 460.501 179.376C460.501 181.36 458.901 182.96 456.917 182.96C454.933 182.96 453.333 181.36 453.333 179.376ZM468.529 199.408C468.529 193.264 467.441 190.576 465.265 190.576V190H476.209V194.032C478.641 190.576 482.289 188.72 486.449 188.72C493.105 188.72 495.601 191.472 495.601 198.064V222H487.921V197.68C487.921 192.368 487.217 190 484.785 190C481.585 190 476.209 194.544 476.209 205.104V222H468.529V199.408ZM516.469 235.824C510.453 235.824 505.525 234.736 502.837 233.136V223.28H503.093C505.525 228.144 510.325 234.544 516.405 234.544C521.781 234.544 523.189 229.168 523.189 223.088V220.848C521.141 222.384 518.453 223.28 515.765 223.28C509.109 223.28 500.725 218.416 500.725 205.872C500.725 193.712 507.893 188.72 515.573 188.72C519.541 188.72 522.741 190.64 524.789 193.008L530.677 190H530.869V222.832C530.869 232.752 525.749 235.824 516.469 235.824ZM509.365 205.744C509.365 217.392 511.733 222 515.765 222C519.733 222 522.101 219.376 523.189 215.728V196.464C521.909 192.752 518.901 190 515.573 190C511.733 190 509.365 194.864 509.365 205.744ZM549.755 190C549.755 177.84 553.595 173.296 560.891 173.296C566.523 173.296 571.387 177.136 571.387 184.816H565.371C565.371 178.352 563.643 174.576 560.251 174.576C555.323 174.576 557.435 180.592 557.435 185.584V190H565.307V191.28H557.435V222H549.755V190ZM582.481 223.28C574.801 223.28 566.225 217.968 566.225 205.872C566.225 194.032 574.801 188.72 582.481 188.72C590.161 188.72 598.737 194.032 598.737 205.872C598.737 217.968 590.161 223.28 582.481 223.28ZM574.865 205.744C574.865 216.88 577.425 222 582.481 222C587.537 222 590.097 216.88 590.097 205.744C590.097 194.928 587.537 190 582.481 190C577.425 190 574.865 194.928 574.865 205.744ZM604.217 199.408C604.217 193.264 603.129 190.576 600.953 190.576V190H611.897V192.752C613.817 190.128 616.569 188.72 620.153 188.72C625.145 188.72 628.793 191.856 628.793 198.96H621.625C621.433 191.856 620.665 190 618.489 190C615.289 190 611.897 194.544 611.897 205.104V222H604.217V199.408ZM642.424 205.296C642.424 194.736 650.296 198 650.296 185.904C650.296 179.312 648.184 177.2 645.112 177.2C639.8 177.2 637.944 181.744 637.944 188.784H632.312C632.312 182.576 636.152 175.92 645.304 175.92C654.392 175.92 657.336 181.04 657.336 185.52C657.336 197.744 644.344 195.76 644.344 205.296V211.632H642.424V205.296ZM639.736 218.352C639.736 216.368 641.336 214.768 643.384 214.768C645.368 214.768 646.968 216.368 646.968 218.352C646.968 220.4 645.368 222 643.384 222C641.336 222 639.736 220.4 639.736 218.352Z" fill="#4A0258"/>
<defs>
<linearGradient id="paint0_linear_179_709" x1="62.5953" y1="96.529" x2="72.5645" y2="151.604" gradientUnits="userSpaceOnUse">
<stop stop-color="#B57837"/>
<stop offset="0.2" stop-color="#D3A34E"/>
<stop offset="0.44" stop-color="#F3D166"/>
<stop offset="0.57" stop-color="#FFE370"/>
<stop offset="0.64" stop-color="#F8D96B"/>
<stop offset="0.76" stop-color="#E6BF5D"/>
<stop offset="0.91" stop-color="#C89446"/>
<stop offset="1" stop-color="#B57837"/>
</linearGradient>
<linearGradient id="paint1_linear_179_709" x1="70.9397" y1="138.362" x2="70.9479" y2="89.1129" gradientUnits="userSpaceOnUse">
<stop stop-color="#B57837"/>
<stop offset="0.2" stop-color="#D3A34E"/>
<stop offset="0.44" stop-color="#F3D166"/>
<stop offset="0.57" stop-color="#FFE370"/>
<stop offset="0.64" stop-color="#F8D96B"/>
<stop offset="0.76" stop-color="#E6BF5D"/>
<stop offset="0.91" stop-color="#C89446"/>
<stop offset="1" stop-color="#B57837"/>
</linearGradient>
<linearGradient id="paint2_linear_179_709" x1="872.33" y1="109.704" x2="884.703" y2="178.063" gradientUnits="userSpaceOnUse">
<stop stop-color="#B57837"/>
<stop offset="0.2" stop-color="#D3A34E"/>
<stop offset="0.44" stop-color="#F3D166"/>
<stop offset="0.57" stop-color="#FFE370"/>
<stop offset="0.64" stop-color="#F8D96B"/>
<stop offset="0.76" stop-color="#E6BF5D"/>
<stop offset="0.91" stop-color="#C89446"/>
<stop offset="1" stop-color="#B57837"/>
</linearGradient>
<linearGradient id="paint3_linear_179_709" x1="882.682" y1="161.62" x2="882.686" y2="100.502" gradientUnits="userSpaceOnUse">
<stop stop-color="#B57837"/>
<stop offset="0.2" stop-color="#D3A34E"/>
<stop offset="0.44" stop-color="#F3D166"/>
<stop offset="0.57" stop-color="#FFE370"/>
<stop offset="0.64" stop-color="#F8D96B"/>
<stop offset="0.76" stop-color="#E6BF5D"/>
<stop offset="0.91" stop-color="#C89446"/>
<stop offset="1" stop-color="#B57837"/>
</linearGradient>
<linearGradient id="paint4_linear_179_709" x1="149.15" y1="90.8899" x2="144.17" y2="108.4" gradientUnits="userSpaceOnUse">
<stop stop-color="#EBBD5C"/>
<stop offset="0.03" stop-color="#E0AE54"/>
<stop offset="0.1" stop-color="#D09949"/>
<stop offset="0.16" stop-color="#C68C42"/>
<stop offset="0.22" stop-color="#C38840"/>
<stop offset="0.36" stop-color="#C88F44"/>
<stop offset="0.56" stop-color="#D4A24E"/>
<stop offset="0.79" stop-color="#E9C15E"/>
<stop offset="1" stop-color="#FFE370"/>
</linearGradient>
<linearGradient id="paint5_linear_179_709" x1="146.52" y1="99.32" x2="155.7" y2="99.32" gradientUnits="userSpaceOnUse">
<stop stop-color="#EBBD5C"/>
<stop offset="0.03" stop-color="#E0AE54"/>
<stop offset="0.1" stop-color="#D09949"/>
<stop offset="0.16" stop-color="#C68C42"/>
<stop offset="0.22" stop-color="#C38840"/>
<stop offset="0.36" stop-color="#C88F44"/>
<stop offset="0.56" stop-color="#D4A24E"/>
<stop offset="0.79" stop-color="#E9C15E"/>
<stop offset="1" stop-color="#FFE370"/>
</linearGradient>
<linearGradient id="paint6_linear_179_709" x1="120.81" y1="199.14" x2="115.83" y2="216.66" gradientUnits="userSpaceOnUse">
<stop stop-color="#EBBD5C"/>
<stop offset="0.03" stop-color="#E0AE54"/>
<stop offset="0.1" stop-color="#D09949"/>
<stop offset="0.16" stop-color="#C68C42"/>
<stop offset="0.22" stop-color="#C38840"/>
<stop offset="0.36" stop-color="#C88F44"/>
<stop offset="0.56" stop-color="#D4A24E"/>
<stop offset="0.79" stop-color="#E9C15E"/>
<stop offset="1" stop-color="#FFE370"/>
</linearGradient>
<linearGradient id="paint7_linear_179_709" x1="118.18" y1="207.58" x2="127.36" y2="207.58" gradientUnits="userSpaceOnUse">
<stop stop-color="#EBBD5C"/>
<stop offset="0.03" stop-color="#E0AE54"/>
<stop offset="0.1" stop-color="#D09949"/>
<stop offset="0.16" stop-color="#C68C42"/>
<stop offset="0.22" stop-color="#C38840"/>
<stop offset="0.36" stop-color="#C88F44"/>
<stop offset="0.56" stop-color="#D4A24E"/>
<stop offset="0.79" stop-color="#E9C15E"/>
<stop offset="1" stop-color="#FFE370"/>
</linearGradient>
<linearGradient id="paint8_linear_179_709" x1="846.93" y1="231.88" x2="840.76" y2="253.61" gradientUnits="userSpaceOnUse">
<stop stop-color="#EBBD5C"/>
<stop offset="0.03" stop-color="#E0AE54"/>
<stop offset="0.1" stop-color="#D09949"/>
<stop offset="0.16" stop-color="#C68C42"/>
<stop offset="0.22" stop-color="#C38840"/>
<stop offset="0.36" stop-color="#C88F44"/>
<stop offset="0.56" stop-color="#D4A24E"/>
<stop offset="0.79" stop-color="#E9C15E"/>
<stop offset="1" stop-color="#FFE370"/>
</linearGradient>
<linearGradient id="paint9_linear_179_709" x1="843.67" y1="242.35" x2="855.06" y2="242.35" gradientUnits="userSpaceOnUse">
<stop stop-color="#EBBD5C"/>
<stop offset="0.03" stop-color="#E0AE54"/>
<stop offset="0.1" stop-color="#D09949"/>
<stop offset="0.16" stop-color="#C68C42"/>
<stop offset="0.22" stop-color="#C38840"/>
<stop offset="0.36" stop-color="#C88F44"/>
<stop offset="0.56" stop-color="#D4A24E"/>
<stop offset="0.79" stop-color="#E9C15E"/>
<stop offset="1" stop-color="#FFE370"/>
</linearGradient>
<linearGradient id="paint10_linear_179_709" x1="944.55" y1="195.45" x2="938.38" y2="217.19" gradientUnits="userSpaceOnUse">
<stop stop-color="#EBBD5C"/>
<stop offset="0.03" stop-color="#E0AE54"/>
<stop offset="0.1" stop-color="#D09949"/>
<stop offset="0.16" stop-color="#C68C42"/>
<stop offset="0.22" stop-color="#C38840"/>
<stop offset="0.36" stop-color="#C88F44"/>
<stop offset="0.56" stop-color="#D4A24E"/>
<stop offset="0.79" stop-color="#E9C15E"/>
<stop offset="1" stop-color="#FFE370"/>
</linearGradient>
<linearGradient id="paint11_linear_179_709" x1="941.29" y1="205.92" x2="952.68" y2="205.92" gradientUnits="userSpaceOnUse">
<stop stop-color="#EBBD5C"/>
<stop offset="0.03" stop-color="#E0AE54"/>
<stop offset="0.1" stop-color="#D09949"/>
<stop offset="0.16" stop-color="#C68C42"/>
<stop offset="0.22" stop-color="#C38840"/>
<stop offset="0.36" stop-color="#C88F44"/>
<stop offset="0.56" stop-color="#D4A24E"/>
<stop offset="0.79" stop-color="#E9C15E"/>
<stop offset="1" stop-color="#FFE370"/>
</linearGradient>
<linearGradient id="paint12_linear_179_709" x1="0.000235114" y1="2.49457" x2="978" y2="2.49457" gradientUnits="userSpaceOnUse">
<stop stop-color="#BD9336" stop-opacity="0"/>
<stop offset="0.29" stop-color="#FFFFDA"/>
<stop offset="0.41" stop-color="#FFDB77"/>
<stop offset="0.59" stop-color="#C89D3F"/>
<stop offset="0.77" stop-color="#956300"/>
<stop offset="1" stop-color="#FACF73" stop-opacity="0"/>
</linearGradient>
</defs>
</svg>
