<svg width="978" height="279" viewBox="0 0 978 279" fill="none" xmlns="http://www.w3.org/2000/svg">
<mask id="mask0_28_64" style="mask-type:luminance" maskUnits="userSpaceOnUse" x="3" y="1" width="975" height="278">
<path d="M978 1H3V279H978V1Z" fill="white"/>
</mask>
<g mask="url(#mask0_28_64)">
<path d="M86.9 63.6396H86.49V88.9197H86.9V63.6396Z" fill="#D6A44D"/>
<path d="M88.4499 76.2795C88.472 76.6319 88.3875 76.9829 88.2076 77.2866C88.0277 77.5904 87.7605 77.833 87.4409 77.9829C87.1212 78.1329 86.7639 78.1832 86.4153 78.1274C86.0666 78.0717 85.7428 77.9124 85.486 77.6702C85.2291 77.428 85.051 77.114 84.9748 76.7693C84.8986 76.4245 84.9279 76.0647 85.0588 75.7368C85.1897 75.4089 85.4162 75.1282 85.7089 74.9307C86.0016 74.7332 86.3468 74.6281 86.6999 74.6294C87.1501 74.6186 87.5864 74.7858 87.914 75.0947C88.2417 75.4037 88.4342 75.8295 88.4499 76.2795Z" fill="#D6A44D"/>
<path d="M87.47 67.7201C87.4688 67.819 87.4477 67.9166 87.408 68.0072C87.3684 68.0978 87.311 68.1796 87.2392 68.2477C87.1674 68.3157 87.0827 68.3687 86.9901 68.4034C86.8975 68.4382 86.7988 68.4541 86.7 68.4501C86.5576 68.4423 86.4206 68.393 86.3059 68.3082C86.1912 68.2234 86.1039 68.1067 86.0548 67.9728C86.0056 67.8389 85.9967 67.6937 86.0292 67.5548C86.0618 67.4159 86.1343 67.2897 86.2378 67.1915C86.3413 67.0934 86.4713 67.0276 86.6117 67.0026C86.7521 66.9775 86.8967 66.9942 87.0278 67.0504C87.1589 67.1066 87.2706 67.1999 87.3492 67.319C87.4278 67.438 87.4698 67.5775 87.47 67.7201Z" fill="#D6A44D"/>
<path d="M87.4699 84.8395C87.4686 84.9389 87.4476 85.0369 87.4081 85.1281C87.3686 85.2192 87.3113 85.3017 87.2397 85.3705C87.168 85.4394 87.0834 85.4933 86.9908 85.5292C86.8981 85.5651 86.7992 85.5822 86.6999 85.5795C86.5962 85.5916 86.4911 85.5816 86.3915 85.5502C86.2919 85.5188 86.2001 85.4666 86.1221 85.3971C86.0441 85.3277 85.9816 85.2426 85.9389 85.1474C85.8961 85.0521 85.874 84.9488 85.874 84.8444C85.874 84.74 85.8961 84.6367 85.9389 84.5414C85.9816 84.4461 86.0441 84.3611 86.1221 84.2917C86.2001 84.2222 86.2919 84.17 86.3915 84.1386C86.4911 84.1072 86.5962 84.0974 86.6999 84.1095C86.7984 84.1069 86.8965 84.1236 86.9885 84.1588C87.0805 84.1941 87.1647 84.2471 87.2362 84.3149C87.3077 84.3826 87.3651 84.4639 87.4052 84.5539C87.4453 84.6439 87.4673 84.741 87.4699 84.8395Z" fill="#D6A44D"/>
<path d="M86.9 38.3701H86.49V63.6499H86.9V38.3701Z" fill="#D6A44D"/>
<path d="M86.7 52.6597C87.6664 52.6597 88.45 51.921 88.45 51.0098C88.45 50.0985 87.6664 49.3599 86.7 49.3599C85.7335 49.3599 84.95 50.0985 84.95 51.0098C84.95 51.921 85.7335 52.6597 86.7 52.6597Z" fill="#D6A44D"/>
<path d="M87.4699 42.4401C87.4686 42.5394 87.4476 42.6375 87.4081 42.7286C87.3686 42.8198 87.3113 42.9022 87.2397 42.9711C87.168 43.0399 87.0834 43.0939 86.9908 43.1297C86.8981 43.1656 86.7992 43.1827 86.6999 43.18C86.5962 43.1922 86.4911 43.1821 86.3915 43.1507C86.2919 43.1193 86.2001 43.0673 86.1221 42.9979C86.0441 42.9285 85.9816 42.8434 85.9389 42.7482C85.8961 42.6529 85.874 42.5496 85.874 42.4452C85.874 42.3408 85.8961 42.2375 85.9389 42.1422C85.9816 42.0469 86.0441 41.9616 86.1221 41.8922C86.2001 41.8228 86.2919 41.7708 86.3915 41.7394C86.4911 41.708 86.5962 41.698 86.6999 41.7101C86.7984 41.7074 86.8965 41.7241 86.9885 41.7594C87.0805 41.7946 87.1647 41.8478 87.2362 41.9156C87.3077 41.9834 87.3651 42.0646 87.4052 42.1547C87.4453 42.2447 87.4673 42.3415 87.4699 42.4401Z" fill="#D6A44D"/>
<path d="M87.4699 59.5697C87.4673 59.6682 87.4454 59.7651 87.4053 59.8551C87.3651 59.9451 87.3077 60.0263 87.2362 60.0941C87.1647 60.1619 87.0805 60.2151 86.9885 60.2504C86.8965 60.2856 86.7984 60.3023 86.6999 60.2997C86.5546 60.2938 86.4142 60.245 86.2963 60.1598C86.1784 60.0745 86.0883 59.9564 86.0372 59.8202C85.9861 59.684 85.9762 59.5359 86.0089 59.3942C86.0416 59.2524 86.1153 59.1234 86.2209 59.0233C86.3264 58.9232 86.4592 58.8565 86.6025 58.8314C86.7458 58.8064 86.8933 58.8239 87.0266 58.8822C87.1599 58.9405 87.273 59.0368 87.3518 59.1591C87.4307 59.2813 87.4718 59.4242 87.4699 59.5697Z" fill="#D6A44D"/>
<path d="M86.9 13.0898H86.49V38.3699H86.9V13.0898Z" fill="#D6A44D"/>
<path d="M86.7 27.3799C87.6664 27.3799 88.45 26.6413 88.45 25.73C88.45 24.8187 87.6664 24.0801 86.7 24.0801C85.7335 24.0801 84.95 24.8187 84.95 25.73C84.95 26.6413 85.7335 27.3799 86.7 27.3799Z" fill="#D6A44D"/>
<path d="M87.4699 17.1697C87.4673 17.2683 87.4454 17.3654 87.4053 17.4554C87.3651 17.5454 87.3077 17.6266 87.2362 17.6944C87.1647 17.7622 87.0805 17.8152 86.9885 17.8504C86.8965 17.8857 86.7984 17.9024 86.6999 17.8997C86.5546 17.8938 86.4142 17.8453 86.2963 17.7601C86.1784 17.6748 86.0883 17.5567 86.0372 17.4205C85.9861 17.2843 85.9762 17.136 86.0089 16.9942C86.0416 16.8524 86.1153 16.7235 86.2209 16.6234C86.3264 16.5233 86.4592 16.4565 86.6025 16.4315C86.7458 16.4064 86.8933 16.4242 87.0266 16.4825C87.1599 16.5408 87.273 16.6371 87.3518 16.7593C87.4307 16.8816 87.4718 17.0243 87.4699 17.1697Z" fill="#D6A44D"/>
<path d="M87.47 34.2902C87.4674 34.3887 87.4454 34.4856 87.4053 34.5756C87.3652 34.6656 87.3077 34.7468 87.2362 34.8146C87.1647 34.8824 87.0806 34.9356 86.9885 34.9708C86.8965 35.0061 86.7985 35.0228 86.7 35.0201C86.5064 35.0201 86.3207 34.9432 86.1838 34.8063C86.0469 34.6694 85.97 34.4838 85.97 34.2902C85.97 34.0966 86.0469 33.9109 86.1838 33.774C86.3207 33.6371 86.5064 33.5602 86.7 33.5602C86.7988 33.5562 86.8974 33.5721 86.9901 33.6068C87.0827 33.6416 87.1674 33.6945 87.2392 33.7626C87.3109 33.8306 87.3683 33.9124 87.408 34.0031C87.4476 34.0937 87.4687 34.1912 87.47 34.2902Z" fill="#D6A44D"/>
<path d="M86.9 -12.1904H86.49V13.0896H86.9V-12.1904Z" fill="#D6A44D"/>
<path d="M86.7 2.09985C87.6664 2.09985 88.45 1.36098 88.45 0.449707C88.45 -0.461563 87.6664 -1.2002 86.7 -1.2002C85.7335 -1.2002 84.95 -0.461563 84.95 0.449707C84.95 1.36098 85.7335 2.09985 86.7 2.09985Z" fill="#D6A44D"/>
<path d="M87.47 8.99979C87.4674 9.09829 87.4454 9.19543 87.4053 9.28543C87.3652 9.37544 87.3077 9.45665 87.2362 9.52444C87.1647 9.59224 87.0806 9.6452 86.9885 9.68045C86.8965 9.7157 86.7985 9.73243 86.7 9.72977C86.5064 9.72977 86.3207 9.6528 86.1838 9.5159C86.0469 9.379 85.97 9.19339 85.97 8.99979C85.97 8.80618 86.0469 8.62057 86.1838 8.48367C86.3207 8.34677 86.5064 8.26981 86.7 8.26981C86.7985 8.26714 86.8965 8.28387 86.9885 8.31912C87.0806 8.35437 87.1647 8.40733 87.2362 8.47513C87.3077 8.54292 87.3652 8.62414 87.4053 8.71414C87.4454 8.80415 87.4674 8.90128 87.47 8.99979Z" fill="#D6A44D"/>
<path d="M104.34 110.94C106.052 120.392 104.161 130.142 99.0383 138.268C93.916 146.394 85.9349 152.306 76.6688 154.838C67.4027 157.37 57.5243 156.338 48.9816 151.946C40.439 147.553 33.8521 140.119 30.52 131.11C31.8002 132.366 33.1852 133.51 34.66 134.53C41.6218 139.083 50.0859 140.738 58.2499 139.143C66.4139 137.548 73.6328 132.83 78.3696 125.992C83.1064 119.154 84.9867 110.737 83.6102 102.533C82.2337 94.3296 77.7092 86.9875 71 82.0701C69.5121 81.0367 67.936 80.1364 66.29 79.3799C75.3338 79.3157 84.1098 82.4467 91.0709 88.2204C98.032 93.9942 102.731 102.04 104.34 110.94Z" fill="url(#paint0_linear_28_64)"/>
<path d="M66.48 152.679C61.7557 152.668 57.0829 151.697 52.7445 149.827C48.4061 147.957 44.4923 145.226 41.24 141.8C44.9649 143.087 48.8789 143.743 52.82 143.74C59.5602 143.746 66.1624 141.83 71.8523 138.217C77.5422 134.604 82.0838 129.443 84.9443 123.34C87.8048 117.237 88.8655 110.445 88.0022 103.76C87.1389 97.0754 84.3872 90.7757 80.07 85.5996C87.4882 88.7382 93.5933 94.3448 97.3509 101.469C101.108 108.594 102.287 116.799 100.688 124.693C99.0887 132.588 94.8093 139.686 88.575 144.787C82.3407 149.887 74.5348 152.676 66.48 152.679Z" fill="url(#paint1_linear_28_64)"/>
<path d="M902.4 68.8198H901.89V100.19H902.4V68.8198Z" fill="#D6A44D"/>
<path d="M904.32 84.5099C904.346 84.9461 904.24 85.3801 904.017 85.7555C903.793 86.1309 903.462 86.4305 903.066 86.6154C902.67 86.8002 902.228 86.8616 901.796 86.7919C901.365 86.7222 900.964 86.5246 900.647 86.2245C900.329 85.9244 900.109 85.536 900.015 85.1093C899.921 84.6826 899.957 84.2373 900.119 83.8314C900.281 83.4256 900.562 83.078 900.924 82.8334C901.286 82.5888 901.713 82.4586 902.15 82.4599C902.427 82.4519 902.703 82.4986 902.962 82.5973C903.221 82.696 903.458 82.8449 903.66 83.0353C903.861 83.2257 904.023 83.4539 904.137 83.7069C904.25 83.96 904.312 84.2328 904.32 84.5099Z" fill="#D6A44D"/>
<path d="M903.11 73.8896C903.128 74.0903 903.085 74.2919 902.987 74.4677C902.889 74.6436 902.739 74.7856 902.559 74.8752C902.379 74.9649 902.175 74.998 901.976 74.9702C901.776 74.9424 901.59 74.8548 901.441 74.7192C901.292 74.5836 901.187 74.4064 901.141 74.2104C901.094 74.0144 901.108 73.8088 901.181 73.6208C901.253 73.4328 901.38 73.2709 901.546 73.1565C901.712 73.0421 901.908 72.9805 902.11 72.9797C902.236 72.9702 902.363 72.9864 902.483 73.0276C902.602 73.0687 902.712 73.134 902.806 73.2192C902.9 73.3044 902.975 73.4079 903.027 73.5232C903.079 73.6385 903.108 73.7631 903.11 73.8896Z" fill="#D6A44D"/>
<path d="M903.11 95.1394C903.128 95.34 903.085 95.5417 902.987 95.7175C902.889 95.8934 902.739 96.0353 902.559 96.125C902.379 96.2147 902.175 96.2478 901.976 96.22C901.776 96.1921 901.59 96.1046 901.441 95.969C901.292 95.8334 901.187 95.6562 901.141 95.4602C901.094 95.2642 901.108 95.0586 901.181 94.8706C901.253 94.6826 901.38 94.5206 901.546 94.4062C901.712 94.2918 901.908 94.2303 902.11 94.2295C902.236 94.2214 902.362 94.2388 902.481 94.2805C902.6 94.3222 902.71 94.3875 902.803 94.4724C902.896 94.5573 902.972 94.66 903.024 94.7746C903.077 94.8893 903.106 95.0133 903.11 95.1394Z" fill="#D6A44D"/>
<path d="M902.4 37.4497H901.89V68.8198H902.4V37.4497Z" fill="#D6A44D"/>
<path d="M902.15 55.1897C903.354 55.1897 904.33 54.2718 904.33 53.1396C904.33 52.0075 903.354 51.0898 902.15 51.0898C900.946 51.0898 899.97 52.0075 899.97 53.1396C899.97 54.2718 900.946 55.1897 902.15 55.1897Z" fill="#D6A44D"/>
<path d="M903.11 42.5095C903.128 42.7102 903.085 42.9116 902.987 43.0874C902.889 43.2632 902.739 43.4052 902.559 43.4949C902.379 43.5845 902.175 43.6177 901.976 43.5898C901.776 43.562 901.59 43.4747 901.441 43.3391C901.292 43.2035 901.187 43.0261 901.141 42.8301C901.094 42.6341 901.108 42.4285 901.181 42.2405C901.253 42.0525 901.38 41.8908 901.546 41.7764C901.712 41.662 901.908 41.6004 902.11 41.5996C902.236 41.5915 902.362 41.6087 902.481 41.6504C902.6 41.6921 902.71 41.7574 902.803 41.8423C902.896 41.9272 902.972 42.0302 903.024 42.1448C903.077 42.2594 903.106 42.3834 903.11 42.5095Z" fill="#D6A44D"/>
<path d="M903.11 63.7595C903.128 63.9602 903.085 64.1616 902.987 64.3374C902.889 64.5132 902.739 64.6552 902.559 64.7449C902.379 64.8345 902.175 64.8677 901.976 64.8398C901.776 64.812 901.59 64.7247 901.441 64.5891C901.292 64.4535 901.187 64.2761 901.141 64.0801C901.094 63.8841 901.108 63.6785 901.181 63.4905C901.253 63.3025 901.38 63.1408 901.546 63.0264C901.712 62.912 901.908 62.8504 902.11 62.8496C902.236 62.8415 902.362 62.8587 902.481 62.9004C902.6 62.9421 902.71 63.0074 902.803 63.0923C902.896 63.1772 902.972 63.2802 903.024 63.3948C903.077 63.5094 903.106 63.6334 903.11 63.7595Z" fill="#D6A44D"/>
<path d="M902.4 6.08008H901.89V37.45H902.4V6.08008Z" fill="#D6A44D"/>
<path d="M902.15 23.8101C903.354 23.8101 904.33 22.8922 904.33 21.76C904.33 20.6278 903.354 19.71 902.15 19.71C900.946 19.71 899.97 20.6278 899.97 21.76C899.97 22.8922 900.946 23.8101 902.15 23.8101Z" fill="#D6A44D"/>
<path d="M903.11 11.1394C903.128 11.34 903.085 11.5417 902.987 11.7175C902.889 11.8934 902.739 12.0353 902.559 12.125C902.379 12.2147 902.175 12.2478 901.976 12.22C901.776 12.1921 901.59 12.1046 901.441 11.969C901.292 11.8334 901.187 11.6562 901.141 11.4602C901.094 11.2642 901.108 11.0586 901.181 10.8706C901.253 10.6826 901.38 10.5206 901.546 10.4062C901.712 10.2918 901.908 10.2303 902.11 10.2295C902.236 10.2214 902.362 10.2388 902.481 10.2805C902.6 10.3222 902.71 10.3875 902.803 10.4724C902.896 10.5573 902.972 10.66 903.024 10.7746C903.077 10.8893 903.106 11.0133 903.11 11.1394Z" fill="#D6A44D"/>
<path d="M903.11 32.3894C903.128 32.59 903.085 32.7917 902.987 32.9675C902.889 33.1434 902.739 33.2853 902.559 33.375C902.379 33.4647 902.175 33.4978 901.976 33.47C901.776 33.4421 901.59 33.3546 901.441 33.219C901.292 33.0834 901.187 32.9062 901.141 32.7102C901.094 32.5142 901.108 32.3086 901.181 32.1206C901.253 31.9326 901.38 31.7706 901.546 31.6562C901.712 31.5418 901.908 31.4803 902.11 31.4795C902.236 31.4714 902.362 31.4888 902.481 31.5305C902.6 31.5722 902.71 31.6375 902.803 31.7224C902.896 31.8073 902.972 31.91 903.024 32.0246C903.077 32.1393 903.106 32.2633 903.11 32.3894Z" fill="#D6A44D"/>
<path d="M902.4 -25.3003H901.89V6.06982H902.4V-25.3003Z" fill="#D6A44D"/>
<path d="M903.11 0.999486C903.128 1.20012 903.085 1.40152 902.987 1.57737C902.889 1.75321 902.739 1.89517 902.559 1.98484C902.379 2.0745 902.175 2.10762 901.976 2.07981C901.776 2.052 901.59 1.96466 901.441 1.82908C901.292 1.69349 901.187 1.51606 901.141 1.32004C901.094 1.12402 901.108 0.918466 901.181 0.730443C901.253 0.542419 901.38 0.380719 901.546 0.266331C901.712 0.151944 901.908 0.090391 902.11 0.0895737C902.236 0.0800241 902.363 0.0962403 902.483 0.137425C902.602 0.17861 902.712 0.243882 902.806 0.329076C902.9 0.414269 902.975 0.517497 903.027 0.632787C903.079 0.748076 903.108 0.872928 903.11 0.999486Z" fill="#D6A44D"/>
<path d="M924.05 127.53C926.146 139.253 923.78 151.335 917.417 161.401C911.053 171.467 901.153 178.788 889.665 181.922C878.176 185.057 865.93 183.779 855.336 178.339C844.742 172.9 836.568 163.693 832.42 152.53C834.013 154.086 835.733 155.507 837.56 156.78C846.195 162.767 856.856 165.079 867.195 163.206C877.535 161.334 886.708 155.43 892.695 146.795C898.682 138.159 900.994 127.499 899.121 117.159C897.249 106.82 891.345 97.6472 882.71 91.6599C880.864 90.3796 878.91 89.2623 876.87 88.3201C888.091 88.2573 898.975 92.1551 907.605 99.3274C916.235 106.5 922.059 116.487 924.05 127.53Z" fill="url(#paint2_linear_28_64)"/>
<path d="M877.06 179.33C871.195 179.318 865.394 178.114 860.008 175.792C854.622 173.469 849.765 170.077 845.73 165.82C850.35 167.428 855.208 168.246 860.1 168.24C868.464 168.244 876.656 165.864 883.715 161.379C890.775 156.894 896.41 150.49 899.961 142.917C903.511 135.345 904.829 126.916 903.761 118.621C902.693 110.326 899.283 102.507 893.93 96.0801C903.134 99.9773 910.709 106.936 915.37 115.778C920.032 124.62 921.494 134.801 919.508 144.598C917.523 154.394 912.213 163.203 904.477 169.533C896.741 175.862 887.055 179.324 877.06 179.33Z" fill="url(#paint3_linear_28_64)"/>
<path d="M147.65 69.4497H147.36V88.3997H147.65V69.4497Z" fill="#D6A44D"/>
<path d="M147.5 80.1694C148.19 80.1694 148.75 79.6143 148.75 78.9294C148.75 78.2446 148.19 77.6895 147.5 77.6895C146.81 77.6895 146.25 78.2446 146.25 78.9294C146.25 79.6143 146.81 80.1694 147.5 80.1694Z" fill="#D6A44D"/>
<path d="M148.06 72.5098C148.042 72.6441 147.976 72.7674 147.874 72.8567C147.772 72.9459 147.641 72.9951 147.505 72.9951C147.369 72.9951 147.238 72.9459 147.136 72.8567C147.034 72.7674 146.968 72.6441 146.95 72.5098C146.968 72.3754 147.034 72.2521 147.136 72.1628C147.238 72.0736 147.369 72.0244 147.505 72.0244C147.641 72.0244 147.772 72.0736 147.874 72.1628C147.976 72.2521 148.042 72.3754 148.06 72.5098Z" fill="#D6A44D"/>
<path d="M148.06 85.3401C148.062 85.4512 148.031 85.5604 147.971 85.6538C147.91 85.7472 147.824 85.8206 147.721 85.8645C147.619 85.9084 147.506 85.9209 147.397 85.9004C147.288 85.8799 147.187 85.8274 147.108 85.7495C147.028 85.6716 146.974 85.5718 146.952 85.4629C146.929 85.354 146.94 85.2411 146.982 85.1382C147.024 85.0353 147.096 84.947 147.188 84.885C147.28 84.823 147.389 84.7901 147.5 84.79C147.647 84.79 147.788 84.8476 147.893 84.9504C147.997 85.0533 148.057 85.1933 148.06 85.3401Z" fill="#D6A44D"/>
<path d="M147.65 50.5H147.36V69.45H147.65V50.5Z" fill="#D6A44D"/>
<path d="M147.5 61.2197C148.19 61.2197 148.75 60.6646 148.75 59.9797C148.75 59.2949 148.19 58.7397 147.5 58.7397C146.81 58.7397 146.25 59.2949 146.25 59.9797C146.25 60.6646 146.81 61.2197 147.5 61.2197Z" fill="#D6A44D"/>
<path d="M148.06 53.5598C148.062 53.671 148.031 53.7801 147.971 53.8735C147.91 53.9669 147.824 54.0403 147.721 54.0842C147.619 54.1282 147.506 54.1406 147.397 54.1201C147.288 54.0997 147.187 54.0471 147.108 53.9692C147.028 53.8913 146.974 53.7915 146.952 53.6826C146.929 53.5737 146.94 53.4608 146.982 53.3579C147.024 53.255 147.096 53.167 147.188 53.105C147.28 53.043 147.389 53.0098 147.5 53.0098C147.647 53.0097 147.788 53.0673 147.893 53.1702C147.997 53.273 148.057 53.413 148.06 53.5598Z" fill="#D6A44D"/>
<path d="M148.06 66.3895C148.064 66.501 148.035 66.6112 147.976 66.7059C147.917 66.8006 147.831 66.8755 147.729 66.921C147.627 66.9665 147.514 66.9806 147.404 66.9613C147.294 66.942 147.192 66.8903 147.112 66.8128C147.031 66.7354 146.976 66.6356 146.953 66.5265C146.929 66.4173 146.939 66.3038 146.981 66.2003C147.023 66.0968 147.094 66.0081 147.187 65.9457C147.279 65.8832 147.388 65.8498 147.5 65.8497C147.572 65.8484 147.644 65.8611 147.711 65.8875C147.779 65.914 147.84 65.9534 147.892 66.0035C147.944 66.0537 147.986 66.1135 148.014 66.1798C148.043 66.246 148.059 66.3173 148.06 66.3895Z" fill="#D6A44D"/>
<path d="M147.65 31.5498H147.36V50.4998H147.65V31.5498Z" fill="#D6A44D"/>
<path d="M147.5 42.27C148.19 42.27 148.75 41.7149 148.75 41.03C148.75 40.3452 148.19 39.79 147.5 39.79C146.81 39.79 146.25 40.3452 146.25 41.03C146.25 41.7149 146.81 42.27 147.5 42.27Z" fill="#D6A44D"/>
<path d="M148.06 34.6096C148.062 34.7208 148.031 34.8299 147.971 34.9233C147.91 35.0167 147.824 35.0901 147.721 35.134C147.619 35.178 147.506 35.1904 147.397 35.1699C147.288 35.1495 147.187 35.0969 147.108 35.019C147.028 34.9411 146.974 34.8413 146.952 34.7324C146.929 34.6235 146.94 34.5104 146.982 34.4075C147.024 34.3046 147.096 34.2165 147.188 34.1545C147.28 34.0926 147.389 34.0596 147.5 34.0596C147.647 34.0595 147.788 34.1171 147.893 34.22C147.997 34.3228 148.057 34.4628 148.06 34.6096Z" fill="#D6A44D"/>
<path d="M148.06 47.4496C148.062 47.5607 148.031 47.6701 147.971 47.7635C147.91 47.8569 147.824 47.93 147.721 47.974C147.619 48.0179 147.506 48.0306 147.397 48.0101C147.288 47.9896 147.187 47.9371 147.108 47.8592C147.028 47.7813 146.974 47.6815 146.952 47.5726C146.929 47.4637 146.94 47.3506 146.982 47.2476C147.024 47.1447 147.096 47.0567 147.188 46.9947C147.28 46.9327 147.389 46.8995 147.5 46.8995C147.573 46.8982 147.646 46.9115 147.714 46.9386C147.782 46.9656 147.843 47.006 147.895 47.0572C147.948 47.1084 147.989 47.1695 148.017 47.2369C148.046 47.3043 148.06 47.3765 148.06 47.4496Z" fill="#D6A44D"/>
<path d="M147.65 12.6099H147.36V31.5598H147.65V12.6099Z" fill="#D6A44D"/>
<path d="M147.5 23.3198C148.19 23.3198 148.75 22.7647 148.75 22.0798C148.75 21.395 148.19 20.8398 147.5 20.8398C146.81 20.8398 146.25 21.395 146.25 22.0798C146.25 22.7647 146.81 23.3198 147.5 23.3198Z" fill="#D6A44D"/>
<path d="M148.06 15.6597C148.062 15.7708 148.031 15.8802 147.971 15.9736C147.91 16.067 147.824 16.1402 147.721 16.1841C147.619 16.228 147.506 16.2407 147.397 16.2202C147.288 16.1997 147.187 16.1472 147.108 16.0693C147.028 15.9914 146.974 15.8916 146.952 15.7827C146.929 15.6738 146.94 15.5607 146.982 15.4578C147.024 15.3549 147.096 15.2668 147.188 15.2048C147.28 15.1428 147.389 15.1099 147.5 15.1099C147.647 15.1098 147.788 15.1674 147.893 15.2703C147.997 15.3731 148.057 15.5129 148.06 15.6597Z" fill="#D6A44D"/>
<path d="M148.06 28.5C148.042 28.6344 147.976 28.7577 147.874 28.8469C147.772 28.9362 147.641 28.9854 147.505 28.9854C147.369 28.9854 147.238 28.9362 147.136 28.8469C147.034 28.7577 146.968 28.6344 146.95 28.5C146.968 28.3656 147.034 28.2423 147.136 28.1531C147.238 28.0638 147.369 28.0146 147.505 28.0146C147.641 28.0146 147.772 28.0638 147.874 28.1531C147.976 28.2423 148.042 28.3656 148.06 28.5Z" fill="#D6A44D"/>
<path d="M147.65 -6.34033H147.36V12.6099H147.65V-6.34033Z" fill="#D6A44D"/>
<path d="M147.5 4.36987C148.19 4.36987 148.75 3.81447 148.75 3.12964C148.75 2.44481 148.19 1.88965 147.5 1.88965C146.81 1.88965 146.25 2.44481 146.25 3.12964C146.25 3.81447 146.81 4.36987 147.5 4.36987Z" fill="#D6A44D"/>
<path d="M148.06 9.55005C148.062 9.66121 148.031 9.77037 147.971 9.86377C147.91 9.95717 147.824 10.0305 147.721 10.0745C147.619 10.1184 147.506 10.1308 147.397 10.1104C147.288 10.0899 147.187 10.0374 147.108 9.95947C147.028 9.88157 146.974 9.78199 146.952 9.6731C146.929 9.5642 146.94 9.45106 146.982 9.34814C147.024 9.24523 147.096 9.1572 147.188 9.09521C147.28 9.03323 147.389 9.00002 147.5 9C147.647 8.99998 147.788 9.05753 147.893 9.1604C147.997 9.26327 148.057 9.40327 148.06 9.55005Z" fill="#D6A44D"/>
<path d="M153.52 102.479L154.94 110.75L147.52 106.85L140.09 110.75L141.51 102.479L135.51 96.6196L143.81 95.4094L147.52 87.8994L151.23 95.4094L159.53 96.6196L153.52 102.479Z" fill="url(#paint4_linear_28_64)"/>
<path d="M153.52 102.479L154.94 110.75L147.52 106.85V87.8994L151.23 95.4094L159.53 96.6196L153.52 102.479Z" fill="url(#paint5_linear_28_64)"/>
<path d="M119.3 177.7H119.01V196.65H119.3V177.7Z" fill="#D6A44D"/>
<path d="M120.41 187.179C120.412 187.427 120.34 187.67 120.204 187.877C120.068 188.084 119.874 188.245 119.645 188.342C119.417 188.438 119.166 188.464 118.922 188.417C118.679 188.37 118.456 188.251 118.28 188.077C118.104 187.902 117.984 187.68 117.935 187.437C117.886 187.194 117.91 186.942 118.004 186.713C118.099 186.484 118.259 186.289 118.465 186.151C118.67 186.013 118.912 185.939 119.16 185.939C119.49 185.939 119.806 186.07 120.04 186.302C120.275 186.534 120.407 186.85 120.41 187.179Z" fill="#D6A44D"/>
<path d="M119.71 180.76C119.71 180.906 119.652 181.046 119.549 181.149C119.446 181.252 119.306 181.31 119.16 181.31C119.014 181.31 118.874 181.252 118.771 181.149C118.668 181.046 118.61 180.906 118.61 180.76C118.61 180.614 118.668 180.474 118.771 180.371C118.874 180.268 119.014 180.21 119.16 180.21C119.306 180.21 119.446 180.268 119.549 180.371C119.652 180.474 119.71 180.614 119.71 180.76Z" fill="#D6A44D"/>
<path d="M119.71 193.6C119.71 193.672 119.696 193.743 119.668 193.809C119.64 193.875 119.6 193.935 119.548 193.985C119.497 194.036 119.436 194.075 119.37 194.102C119.303 194.128 119.232 194.141 119.16 194.14C119.051 194.14 118.944 194.108 118.853 194.047C118.763 193.986 118.692 193.899 118.651 193.798C118.61 193.697 118.599 193.586 118.621 193.479C118.643 193.372 118.697 193.274 118.775 193.198C118.853 193.121 118.952 193.069 119.059 193.049C119.166 193.029 119.277 193.042 119.378 193.085C119.478 193.128 119.563 193.2 119.622 193.292C119.681 193.384 119.712 193.491 119.71 193.6Z" fill="#D6A44D"/>
<path d="M119.3 158.76H119.01V177.71H119.3V158.76Z" fill="#D6A44D"/>
<path d="M120.41 168.23C120.412 168.477 120.34 168.72 120.204 168.927C120.068 169.134 119.874 169.295 119.645 169.392C119.417 169.488 119.166 169.514 118.922 169.467C118.679 169.42 118.456 169.302 118.28 169.127C118.104 168.953 117.984 168.73 117.935 168.487C117.886 168.245 117.91 167.993 118.004 167.764C118.099 167.535 118.259 167.339 118.465 167.201C118.67 167.063 118.912 166.99 119.16 166.99C119.49 166.99 119.806 167.12 120.04 167.352C120.275 167.585 120.407 167.9 120.41 168.23Z" fill="#D6A44D"/>
<path d="M119.71 161.81C119.711 161.882 119.698 161.954 119.671 162.022C119.644 162.089 119.603 162.15 119.552 162.202C119.501 162.253 119.44 162.293 119.372 162.321C119.305 162.348 119.233 162.361 119.16 162.36C119.014 162.36 118.874 162.302 118.771 162.199C118.668 162.096 118.61 161.956 118.61 161.81C118.61 161.664 118.668 161.524 118.771 161.421C118.874 161.318 119.014 161.26 119.16 161.26C119.306 161.26 119.446 161.318 119.549 161.421C119.652 161.524 119.71 161.664 119.71 161.81Z" fill="#D6A44D"/>
<path d="M119.71 174.65C119.71 174.722 119.696 174.793 119.668 174.86C119.641 174.927 119.6 174.987 119.549 175.038C119.498 175.089 119.437 175.13 119.371 175.158C119.304 175.185 119.232 175.2 119.16 175.2C119.088 175.2 119.016 175.185 118.95 175.158C118.883 175.13 118.822 175.089 118.771 175.038C118.72 174.987 118.68 174.927 118.652 174.86C118.624 174.793 118.61 174.722 118.61 174.65C118.61 174.504 118.668 174.364 118.771 174.261C118.874 174.157 119.014 174.1 119.16 174.1C119.233 174.098 119.305 174.112 119.372 174.139C119.44 174.166 119.501 174.206 119.552 174.258C119.603 174.309 119.644 174.37 119.671 174.438C119.698 174.505 119.711 174.577 119.71 174.65Z" fill="#D6A44D"/>
<path d="M119.3 139.81H119.01V158.76H119.3V139.81Z" fill="#D6A44D"/>
<path d="M120.41 149.28C120.412 149.528 120.34 149.77 120.204 149.977C120.068 150.184 119.874 150.346 119.645 150.442C119.417 150.538 119.166 150.564 118.922 150.517C118.679 150.47 118.456 150.352 118.28 150.177C118.104 150.003 117.984 149.78 117.935 149.538C117.886 149.295 117.91 149.043 118.004 148.814C118.099 148.585 118.259 148.389 118.465 148.251C118.67 148.114 118.912 148.04 119.16 148.04C119.49 148.04 119.806 148.17 120.04 148.403C120.275 148.635 120.407 148.95 120.41 149.28Z" fill="#D6A44D"/>
<path d="M119.71 142.86C119.711 142.932 119.698 143.004 119.671 143.071C119.644 143.139 119.603 143.2 119.552 143.251C119.501 143.303 119.44 143.343 119.372 143.37C119.305 143.397 119.233 143.411 119.16 143.409C119.082 143.42 119.003 143.414 118.928 143.391C118.853 143.369 118.783 143.33 118.724 143.279C118.665 143.227 118.618 143.163 118.585 143.092C118.553 143.02 118.536 142.943 118.536 142.864C118.536 142.786 118.553 142.708 118.585 142.637C118.618 142.565 118.665 142.502 118.724 142.45C118.783 142.398 118.853 142.36 118.928 142.338C119.003 142.315 119.082 142.309 119.16 142.319C119.232 142.318 119.303 142.331 119.37 142.358C119.437 142.384 119.497 142.424 119.548 142.474C119.6 142.524 119.64 142.584 119.668 142.651C119.696 142.717 119.71 142.788 119.71 142.86Z" fill="#D6A44D"/>
<path d="M119.71 155.699C119.71 155.772 119.696 155.843 119.668 155.91C119.641 155.977 119.6 156.037 119.549 156.088C119.498 156.139 119.437 156.18 119.371 156.208C119.304 156.235 119.232 156.25 119.16 156.25C119.014 156.25 118.874 156.192 118.771 156.088C118.668 155.985 118.61 155.845 118.61 155.699C118.61 155.554 118.668 155.414 118.771 155.311C118.874 155.207 119.014 155.149 119.16 155.149C119.306 155.149 119.446 155.207 119.549 155.311C119.652 155.414 119.71 155.554 119.71 155.699Z" fill="#D6A44D"/>
<path d="M119.3 120.86H119.01V139.81H119.3V120.86Z" fill="#D6A44D"/>
<path d="M120.41 130.33C120.414 130.578 120.344 130.821 120.209 131.029C120.074 131.238 119.88 131.401 119.652 131.499C119.424 131.596 119.172 131.624 118.929 131.578C118.685 131.532 118.46 131.415 118.283 131.241C118.107 131.067 117.986 130.844 117.936 130.601C117.886 130.358 117.909 130.106 118.003 129.876C118.097 129.646 118.258 129.45 118.463 129.312C118.669 129.173 118.912 129.1 119.16 129.1C119.323 129.098 119.484 129.129 119.635 129.19C119.786 129.251 119.924 129.341 120.04 129.456C120.156 129.57 120.248 129.706 120.312 129.856C120.375 130.006 120.409 130.167 120.41 130.33Z" fill="#D6A44D"/>
<path d="M119.71 123.92C119.71 123.992 119.696 124.063 119.668 124.129C119.64 124.195 119.6 124.255 119.548 124.305C119.497 124.356 119.436 124.395 119.37 124.422C119.303 124.448 119.232 124.461 119.16 124.46C119.051 124.46 118.944 124.427 118.853 124.366C118.763 124.305 118.692 124.219 118.651 124.118C118.61 124.017 118.599 123.906 118.621 123.799C118.643 123.692 118.697 123.594 118.775 123.517C118.853 123.441 118.952 123.389 119.059 123.369C119.166 123.349 119.277 123.361 119.378 123.405C119.478 123.448 119.563 123.52 119.622 123.612C119.681 123.703 119.712 123.811 119.71 123.92Z" fill="#D6A44D"/>
<path d="M119.71 136.75C119.71 136.896 119.652 137.036 119.549 137.139C119.446 137.242 119.306 137.3 119.16 137.3C119.014 137.3 118.874 137.242 118.771 137.139C118.668 137.036 118.61 136.896 118.61 136.75C118.61 136.604 118.668 136.464 118.771 136.361C118.874 136.258 119.014 136.2 119.16 136.2C119.306 136.2 119.446 136.258 119.549 136.361C119.652 136.464 119.71 136.604 119.71 136.75Z" fill="#D6A44D"/>
<path d="M119.3 101.91H119.01V120.86H119.3V101.91Z" fill="#D6A44D"/>
<path d="M119.16 112.62C119.85 112.62 120.41 112.064 120.41 111.38C120.41 110.695 119.85 110.14 119.16 110.14C118.47 110.14 117.91 110.695 117.91 111.38C117.91 112.064 118.47 112.62 119.16 112.62Z" fill="#D6A44D"/>
<path d="M119.71 105C119.71 105.146 119.652 105.286 119.549 105.389C119.446 105.492 119.306 105.55 119.16 105.55C119.014 105.55 118.874 105.492 118.771 105.389C118.668 105.286 118.61 105.146 118.61 105C118.61 104.854 118.668 104.714 118.771 104.611C118.874 104.508 119.014 104.45 119.16 104.45C119.233 104.448 119.305 104.462 119.372 104.489C119.44 104.516 119.501 104.557 119.552 104.608C119.603 104.659 119.644 104.72 119.671 104.788C119.698 104.855 119.711 104.927 119.71 105Z" fill="#D6A44D"/>
<path d="M119.71 117.8C119.711 117.873 119.698 117.945 119.671 118.012C119.644 118.079 119.603 118.141 119.552 118.192C119.501 118.243 119.44 118.284 119.372 118.311C119.305 118.338 119.233 118.351 119.16 118.35C119.088 118.35 119.016 118.336 118.95 118.308C118.883 118.28 118.822 118.24 118.771 118.189C118.72 118.138 118.68 118.077 118.652 118.01C118.624 117.944 118.61 117.872 118.61 117.8C118.61 117.654 118.668 117.514 118.771 117.411C118.874 117.308 119.014 117.25 119.16 117.25C119.306 117.25 119.446 117.308 119.549 117.411C119.652 117.514 119.71 117.654 119.71 117.8Z" fill="#D6A44D"/>
<path d="M119.3 82.96H119.01V101.91H119.3V82.96Z" fill="#D6A44D"/>
<path d="M119.16 93.6797C119.85 93.6797 120.41 93.1245 120.41 92.4397C120.41 91.7549 119.85 91.1997 119.16 91.1997C118.47 91.1997 117.91 91.7549 117.91 92.4397C117.91 93.1245 118.47 93.6797 119.16 93.6797Z" fill="#D6A44D"/>
<path d="M119.71 85.9998C119.71 86.1456 119.652 86.2855 119.549 86.3887C119.446 86.4918 119.306 86.5498 119.16 86.5498C119.014 86.5498 118.874 86.4918 118.771 86.3887C118.668 86.2855 118.61 86.1456 118.61 85.9998C118.61 85.8539 118.668 85.714 118.771 85.6108C118.874 85.5077 119.014 85.4497 119.16 85.4497C119.306 85.4497 119.446 85.5077 119.549 85.6108C119.652 85.714 119.71 85.8539 119.71 85.9998Z" fill="#D6A44D"/>
<path d="M119.71 98.8498C119.711 98.9224 119.698 98.9943 119.671 99.0617C119.644 99.129 119.603 99.1903 119.552 99.2416C119.501 99.2929 119.44 99.3333 119.372 99.3605C119.305 99.3877 119.233 99.4009 119.16 99.3996C119.082 99.4101 119.003 99.404 118.928 99.3815C118.853 99.3589 118.783 99.3206 118.724 99.2689C118.665 99.2173 118.618 99.1536 118.585 99.0822C118.553 99.0107 118.536 98.9331 118.536 98.8546C118.536 98.7762 118.553 98.6986 118.585 98.6271C118.618 98.5557 118.665 98.492 118.724 98.4403C118.783 98.3887 118.853 98.3503 118.928 98.3278C119.003 98.3052 119.082 98.2992 119.16 98.3097C119.232 98.3084 119.303 98.3213 119.37 98.3478C119.437 98.3743 119.497 98.414 119.548 98.4643C119.6 98.5145 119.64 98.5746 119.668 98.6408C119.696 98.707 119.71 98.778 119.71 98.8498Z" fill="#D6A44D"/>
<path d="M119.3 64.0098H119.01V82.9597H119.3V64.0098Z" fill="#D6A44D"/>
<path d="M119.16 74.73C119.85 74.73 120.41 74.1748 120.41 73.49C120.41 72.8052 119.85 72.25 119.16 72.25C118.47 72.25 117.91 72.8052 117.91 73.49C117.91 74.1748 118.47 74.73 119.16 74.73Z" fill="#D6A44D"/>
<path d="M119.71 67.0696C119.71 67.2154 119.652 67.3554 119.549 67.4585C119.446 67.5616 119.306 67.6196 119.16 67.6196C119.014 67.6196 118.874 67.5616 118.771 67.4585C118.668 67.3554 118.61 67.2154 118.61 67.0696C118.61 66.9237 118.668 66.7838 118.771 66.6807C118.874 66.5775 119.014 66.5195 119.16 66.5195C119.306 66.5195 119.446 66.5775 119.549 66.6807C119.652 66.7838 119.71 66.9237 119.71 67.0696Z" fill="#D6A44D"/>
<path d="M119.71 79.9095C119.71 79.9813 119.696 80.0523 119.668 80.1185C119.64 80.1847 119.6 80.2447 119.548 80.295C119.497 80.3453 119.436 80.3849 119.37 80.4115C119.303 80.438 119.232 80.4509 119.16 80.4496C119.051 80.4495 118.944 80.4172 118.853 80.3563C118.763 80.2954 118.692 80.2089 118.651 80.1078C118.61 80.0067 118.599 79.8956 118.621 79.7887C118.643 79.6817 118.697 79.5837 118.775 79.5072C118.853 79.4307 118.952 79.3791 119.059 79.359C119.166 79.3389 119.277 79.3512 119.378 79.3944C119.478 79.4376 119.563 79.5097 119.622 79.6014C119.681 79.6932 119.712 79.8003 119.71 79.9095Z" fill="#D6A44D"/>
<path d="M119.3 45.0698H119.01V64.0198H119.3V45.0698Z" fill="#D6A44D"/>
<path d="M119.16 55.7798C119.85 55.7798 120.41 55.2246 120.41 54.5398C120.41 53.855 119.85 53.2998 119.16 53.2998C118.47 53.2998 117.91 53.855 117.91 54.5398C117.91 55.2246 118.47 55.7798 119.16 55.7798Z" fill="#D6A44D"/>
<path d="M119.71 48.1199C119.711 48.1925 119.698 48.2644 119.671 48.3318C119.644 48.3991 119.603 48.4604 119.552 48.5117C119.501 48.5631 119.44 48.6035 119.372 48.6306C119.305 48.6578 119.233 48.671 119.16 48.6697C119.014 48.6697 118.874 48.6117 118.771 48.5085C118.668 48.4054 118.61 48.2657 118.61 48.1199C118.61 47.974 118.668 47.8341 118.771 47.731C118.874 47.6278 119.014 47.5698 119.16 47.5698C119.306 47.5698 119.446 47.6278 119.549 47.731C119.652 47.8341 119.71 47.974 119.71 48.1199Z" fill="#D6A44D"/>
<path d="M119.71 60.9999C119.71 61.1457 119.652 61.2856 119.549 61.3888C119.446 61.4919 119.306 61.5499 119.16 61.5499C119.014 61.5499 118.874 61.4919 118.771 61.3888C118.668 61.2856 118.61 61.1457 118.61 60.9999C118.61 60.854 118.668 60.7141 118.771 60.6109C118.874 60.5078 119.014 60.4498 119.16 60.4498C119.233 60.4484 119.305 60.4617 119.372 60.4889C119.44 60.516 119.501 60.5567 119.552 60.608C119.603 60.6593 119.644 60.7203 119.671 60.7877C119.698 60.855 119.711 60.9273 119.71 60.9999Z" fill="#D6A44D"/>
<path d="M119.3 26.1201H119.01V45.0701H119.3V26.1201Z" fill="#D6A44D"/>
<path d="M119.16 36.8296C119.85 36.8296 120.41 36.2744 120.41 35.5896C120.41 34.9048 119.85 34.3496 119.16 34.3496C118.47 34.3496 117.91 34.9048 117.91 35.5896C117.91 36.2744 118.47 36.8296 119.16 36.8296Z" fill="#D6A44D"/>
<path d="M119.71 29.17C119.711 29.2426 119.698 29.3148 119.671 29.3822C119.644 29.4495 119.603 29.5108 119.552 29.5621C119.501 29.6134 119.44 29.6538 119.372 29.681C119.305 29.7082 119.233 29.7214 119.16 29.7201C119.082 29.7306 119.003 29.7245 118.928 29.702C118.853 29.6794 118.783 29.6411 118.724 29.5894C118.665 29.5378 118.618 29.4741 118.585 29.4027C118.553 29.3312 118.536 29.2536 118.536 29.1751C118.536 29.0967 118.553 29.0191 118.585 28.9476C118.618 28.8762 118.665 28.8125 118.724 28.7608C118.783 28.7092 118.853 28.6708 118.928 28.6483C119.003 28.6257 119.082 28.6194 119.16 28.63C119.232 28.6286 119.303 28.6418 119.37 28.6683C119.437 28.6948 119.497 28.7345 119.548 28.7848C119.6 28.835 119.64 28.8949 119.668 28.961C119.696 29.0272 119.71 29.0983 119.71 29.17Z" fill="#D6A44D"/>
<path d="M119.71 41.9998C119.71 42.1456 119.652 42.2855 119.549 42.3887C119.446 42.4918 119.306 42.5498 119.16 42.5498C119.014 42.5498 118.874 42.4918 118.771 42.3887C118.668 42.2855 118.61 42.1456 118.61 41.9998C118.61 41.8539 118.668 41.714 118.771 41.6108C118.874 41.5077 119.014 41.4497 119.16 41.4497C119.306 41.4497 119.446 41.5077 119.549 41.6108C119.652 41.714 119.71 41.8539 119.71 41.9998Z" fill="#D6A44D"/>
<path d="M119.3 7.16992H119.01V26.1201H119.3V7.16992Z" fill="#D6A44D"/>
<path d="M119.16 17.8794C119.85 17.8794 120.41 17.3242 120.41 16.6394C120.41 15.9546 119.85 15.3994 119.16 15.3994C118.47 15.3994 117.91 15.9546 117.91 16.6394C117.91 17.3242 118.47 17.8794 119.16 17.8794Z" fill="#D6A44D"/>
<path d="M119.71 10.2298C119.71 10.3016 119.696 10.3726 119.668 10.4388C119.64 10.505 119.6 10.5651 119.548 10.6153C119.497 10.6656 119.436 10.705 119.37 10.7315C119.303 10.7581 119.232 10.7712 119.16 10.7699C119.051 10.7699 118.944 10.7373 118.853 10.6764C118.763 10.6155 118.692 10.5292 118.651 10.4281C118.61 10.327 118.599 10.2157 118.621 10.1087C118.643 10.0018 118.697 9.904 118.775 9.8275C118.853 9.75099 118.952 9.69938 119.059 9.6793C119.166 9.65922 119.277 9.67154 119.378 9.7147C119.478 9.75787 119.563 9.82998 119.622 9.92173C119.681 10.0135 119.712 10.1207 119.71 10.2298Z" fill="#D6A44D"/>
<path d="M119.71 23.0598C119.71 23.2057 119.652 23.3456 119.549 23.4487C119.446 23.5519 119.306 23.6099 119.16 23.6099C119.014 23.6099 118.874 23.5519 118.771 23.4487C118.668 23.3456 118.61 23.2057 118.61 23.0598C118.61 22.9139 118.668 22.774 118.771 22.6709C118.874 22.5678 119.014 22.5098 119.16 22.5098C119.306 22.5098 119.446 22.5678 119.549 22.6709C119.652 22.774 119.71 22.9139 119.71 23.0598Z" fill="#D6A44D"/>
<path d="M119.3 -11.7803H119.01V7.16968H119.3V-11.7803Z" fill="#D6A44D"/>
<path d="M119.71 4.10962C119.711 4.18222 119.698 4.25419 119.671 4.32153C119.644 4.38888 119.603 4.45012 119.552 4.50146C119.501 4.55281 119.44 4.5932 119.372 4.62036C119.305 4.64752 119.233 4.66078 119.16 4.65942C119.088 4.65942 119.016 4.64532 118.95 4.61768C118.883 4.59004 118.822 4.54961 118.771 4.49854C118.72 4.44746 118.68 4.3868 118.652 4.32007C118.624 4.25334 118.61 4.18185 118.61 4.10962C118.61 3.96375 118.668 3.82385 118.771 3.7207C118.874 3.61756 119.014 3.55957 119.16 3.55957C119.306 3.55957 119.446 3.61756 119.549 3.7207C119.652 3.82385 119.71 3.96375 119.71 4.10962Z" fill="#D6A44D"/>
<path d="M125.18 210.74L126.6 219L119.18 215.1L111.75 219L113.17 210.74L107.17 204.88L115.47 203.67L119.18 196.16L122.89 203.67L131.19 204.88L125.18 210.74Z" fill="url(#paint6_linear_28_64)"/>
<path d="M125.18 210.74L126.6 219L119.18 215.1V196.16L122.89 203.67L131.19 204.88L125.18 210.74Z" fill="url(#paint7_linear_28_64)"/>
<path d="M845.06 205.27H844.7V228.79H845.06V205.27Z" fill="#D6A44D"/>
<path d="M846.43 217C846.432 217.307 846.343 217.608 846.174 217.864C846.005 218.12 845.763 218.32 845.48 218.439C845.197 218.558 844.885 218.59 844.584 218.532C844.283 218.473 844.005 218.326 843.788 218.11C843.57 217.893 843.421 217.617 843.361 217.316C843.3 217.015 843.33 216.703 843.447 216.419C843.564 216.135 843.763 215.893 844.018 215.722C844.273 215.551 844.573 215.46 844.88 215.46C845.083 215.459 845.284 215.498 845.472 215.574C845.66 215.651 845.831 215.764 845.975 215.908C846.12 216.051 846.234 216.221 846.312 216.408C846.39 216.596 846.43 216.797 846.43 217Z" fill="#D6A44D"/>
<path d="M845.57 209.06C845.572 209.197 845.533 209.331 845.459 209.446C845.384 209.561 845.277 209.651 845.151 209.705C845.025 209.758 844.886 209.774 844.752 209.748C844.617 209.723 844.493 209.658 844.396 209.562C844.298 209.466 844.232 209.342 844.204 209.208C844.177 209.074 844.19 208.935 844.242 208.808C844.294 208.682 844.382 208.573 844.496 208.497C844.609 208.421 844.743 208.38 844.88 208.38C844.97 208.379 845.06 208.395 845.143 208.429C845.227 208.463 845.303 208.512 845.367 208.576C845.431 208.639 845.482 208.714 845.517 208.797C845.552 208.881 845.57 208.97 845.57 209.06Z" fill="#D6A44D"/>
<path d="M845.57 225C845.572 225.137 845.533 225.271 845.459 225.386C845.384 225.501 845.277 225.591 845.151 225.644C845.025 225.698 844.886 225.713 844.752 225.688C844.617 225.662 844.493 225.597 844.396 225.501C844.298 225.405 844.232 225.282 844.204 225.148C844.177 225.014 844.19 224.875 844.242 224.748C844.294 224.621 844.382 224.513 844.496 224.437C844.609 224.361 844.743 224.32 844.88 224.32C844.97 224.319 845.06 224.335 845.143 224.369C845.227 224.402 845.303 224.452 845.367 224.515C845.431 224.579 845.482 224.654 845.517 224.737C845.552 224.821 845.57 224.91 845.57 225Z" fill="#D6A44D"/>
<path d="M845.06 181.75H844.7V205.27H845.06V181.75Z" fill="#D6A44D"/>
<path d="M846.43 193.51C846.432 193.817 846.343 194.117 846.174 194.374C846.005 194.63 845.763 194.83 845.48 194.949C845.197 195.068 844.885 195.1 844.584 195.041C844.283 194.983 844.005 194.836 843.788 194.62C843.57 194.403 843.421 194.127 843.361 193.826C843.3 193.525 843.33 193.213 843.447 192.929C843.564 192.645 843.763 192.403 844.018 192.232C844.273 192.061 844.573 191.97 844.88 191.97C845.084 191.967 845.285 192.005 845.474 192.081C845.663 192.158 845.834 192.271 845.978 192.414C846.123 192.558 846.237 192.729 846.315 192.917C846.392 193.105 846.431 193.306 846.43 193.51Z" fill="#D6A44D"/>
<path d="M845.57 185.54C845.572 185.677 845.533 185.811 845.459 185.926C845.384 186.041 845.277 186.131 845.151 186.184C845.025 186.238 844.886 186.253 844.752 186.228C844.617 186.202 844.493 186.137 844.396 186.041C844.298 185.945 844.232 185.822 844.204 185.688C844.177 185.554 844.19 185.415 844.242 185.288C844.294 185.161 844.382 185.053 844.496 184.977C844.609 184.901 844.743 184.86 844.88 184.86C845.061 184.86 845.235 184.931 845.364 185.058C845.493 185.186 845.567 185.359 845.57 185.54Z" fill="#D6A44D"/>
<path d="M845.57 201.47C845.572 201.607 845.533 201.741 845.459 201.856C845.384 201.971 845.277 202.061 845.151 202.115C845.025 202.168 844.886 202.183 844.752 202.158C844.617 202.132 844.493 202.068 844.396 201.971C844.298 201.875 844.232 201.753 844.204 201.618C844.177 201.484 844.19 201.345 844.242 201.218C844.294 201.092 844.382 200.983 844.496 200.907C844.609 200.831 844.743 200.79 844.88 200.79C845.061 200.79 845.235 200.861 845.364 200.989C845.493 201.116 845.567 201.289 845.57 201.47Z" fill="#D6A44D"/>
<path d="M845.06 158.229H844.7V181.75H845.06V158.229Z" fill="#D6A44D"/>
<path d="M844.88 171.53C845.736 171.53 846.43 170.84 846.43 169.99C846.43 169.139 845.736 168.45 844.88 168.45C844.024 168.45 843.33 169.139 843.33 169.99C843.33 170.84 844.024 171.53 844.88 171.53Z" fill="#D6A44D"/>
<path d="M845.57 162C845.55 162.167 845.469 162.321 845.343 162.433C845.216 162.545 845.054 162.607 844.885 162.607C844.716 162.607 844.554 162.545 844.427 162.433C844.301 162.321 844.22 162.167 844.2 162C844.22 161.832 844.301 161.678 844.427 161.566C844.554 161.454 844.716 161.393 844.885 161.393C845.054 161.393 845.216 161.454 845.343 161.566C845.469 161.678 845.55 161.832 845.57 162Z" fill="#D6A44D"/>
<path d="M845.57 178C845.55 178.167 845.469 178.321 845.343 178.433C845.216 178.545 845.054 178.607 844.885 178.607C844.716 178.607 844.554 178.545 844.427 178.433C844.301 178.321 844.22 178.167 844.2 178C844.22 177.832 844.301 177.678 844.427 177.566C844.554 177.454 844.716 177.393 844.885 177.393C845.054 177.393 845.216 177.454 845.343 177.566C845.469 177.678 845.55 177.832 845.57 178Z" fill="#D6A44D"/>
<path d="M845.06 134.71H844.7V158.23H845.06V134.71Z" fill="#D6A44D"/>
<path d="M844.88 148.01C845.736 148.01 846.43 147.32 846.43 146.47C846.43 145.619 845.736 144.93 844.88 144.93C844.024 144.93 843.33 145.619 843.33 146.47C843.33 147.32 844.024 148.01 844.88 148.01Z" fill="#D6A44D"/>
<path d="M845.57 138.51C845.55 138.677 845.469 138.831 845.343 138.943C845.216 139.055 845.054 139.117 844.885 139.117C844.716 139.117 844.554 139.055 844.427 138.943C844.301 138.831 844.22 138.677 844.2 138.51C844.22 138.342 844.301 138.188 844.427 138.076C844.554 137.964 844.716 137.902 844.885 137.902C845.054 137.902 845.216 137.964 845.343 138.076C845.469 138.188 845.55 138.342 845.57 138.51Z" fill="#D6A44D"/>
<path d="M845.57 154.44C845.55 154.607 845.469 154.762 845.343 154.874C845.216 154.985 845.054 155.047 844.885 155.047C844.716 155.047 844.554 154.985 844.427 154.874C844.301 154.762 844.22 154.607 844.2 154.44C844.22 154.273 844.301 154.118 844.427 154.007C844.554 153.895 844.716 153.833 844.885 153.833C845.054 153.833 845.216 153.895 845.343 154.007C845.469 154.118 845.55 154.273 845.57 154.44Z" fill="#D6A44D"/>
<path d="M845.06 111.2H844.7V134.72H845.06V111.2Z" fill="#D6A44D"/>
<path d="M844.88 124.5C845.736 124.5 846.43 123.81 846.43 122.96C846.43 122.109 845.736 121.42 844.88 121.42C844.024 121.42 843.33 122.109 843.33 122.96C843.33 123.81 844.024 124.5 844.88 124.5Z" fill="#D6A44D"/>
<path d="M845.57 115C845.572 115.137 845.533 115.271 845.459 115.386C845.384 115.501 845.277 115.591 845.151 115.644C845.025 115.698 844.886 115.713 844.752 115.688C844.617 115.662 844.493 115.597 844.396 115.501C844.298 115.405 844.232 115.282 844.204 115.148C844.177 115.014 844.19 114.875 844.242 114.748C844.294 114.621 844.382 114.513 844.496 114.437C844.609 114.361 844.743 114.32 844.88 114.32C844.97 114.319 845.06 114.335 845.143 114.369C845.227 114.402 845.303 114.452 845.367 114.515C845.431 114.579 845.482 114.654 845.517 114.737C845.552 114.821 845.57 114.91 845.57 115Z" fill="#D6A44D"/>
<path d="M845.57 130.92C845.572 131.057 845.533 131.191 845.459 131.306C845.384 131.421 845.277 131.511 845.151 131.564C845.025 131.618 844.886 131.633 844.752 131.608C844.617 131.582 844.493 131.517 844.396 131.421C844.298 131.325 844.232 131.202 844.204 131.068C844.177 130.934 844.19 130.795 844.242 130.668C844.294 130.541 844.382 130.433 844.496 130.357C844.609 130.28 844.743 130.24 844.88 130.24C844.97 130.238 845.06 130.255 845.143 130.289C845.227 130.322 845.303 130.372 845.367 130.435C845.431 130.499 845.482 130.574 845.517 130.657C845.552 130.74 845.57 130.83 845.57 130.92Z" fill="#D6A44D"/>
<path d="M845.06 87.6797H844.7V111.2H845.06V87.6797Z" fill="#D6A44D"/>
<path d="M844.88 100.979C845.736 100.979 846.43 100.29 846.43 99.4395C846.43 98.5889 845.736 97.8994 844.88 97.8994C844.024 97.8994 843.33 98.5889 843.33 99.4395C843.33 100.29 844.024 100.979 844.88 100.979Z" fill="#D6A44D"/>
<path d="M845.57 91.47C845.572 91.6069 845.533 91.7413 845.459 91.856C845.384 91.9708 845.277 92.0608 845.151 92.1146C845.025 92.1683 844.886 92.1835 844.752 92.158C844.617 92.1325 844.493 92.0676 844.396 91.9715C844.298 91.8754 844.232 91.7526 844.204 91.6185C844.177 91.4844 844.19 91.345 844.242 91.2183C844.294 91.0917 844.382 90.9833 844.496 90.9071C844.609 90.8308 844.743 90.7901 844.88 90.7901C844.97 90.7888 845.06 90.8054 845.143 90.8389C845.227 90.8725 845.303 90.9224 845.367 90.9857C845.431 91.0489 845.482 91.1244 845.517 91.2076C845.552 91.2908 845.57 91.3799 845.57 91.47Z" fill="#D6A44D"/>
<path d="M845.57 107.4C845.572 107.537 845.533 107.671 845.459 107.786C845.384 107.901 845.277 107.991 845.151 108.045C845.025 108.098 844.886 108.113 844.752 108.088C844.617 108.062 844.493 107.997 844.396 107.901C844.298 107.805 844.232 107.682 844.204 107.548C844.177 107.414 844.19 107.275 844.242 107.148C844.294 107.021 844.382 106.913 844.496 106.837C844.609 106.76 844.743 106.72 844.88 106.72C844.97 106.718 845.06 106.735 845.143 106.769C845.227 106.802 845.303 106.852 845.367 106.915C845.431 106.979 845.482 107.054 845.517 107.137C845.552 107.22 845.57 107.31 845.57 107.4Z" fill="#D6A44D"/>
<path d="M845.06 64.1597H844.7V87.6797H845.06V64.1597Z" fill="#D6A44D"/>
<path d="M844.88 77.46C845.736 77.46 846.43 76.7704 846.43 75.9199C846.43 75.0694 845.736 74.3799 844.88 74.3799C844.024 74.3799 843.33 75.0694 843.33 75.9199C843.33 76.7704 844.024 77.46 844.88 77.46Z" fill="#D6A44D"/>
<path d="M845.57 67.9995C845.57 68.136 845.53 68.2693 845.454 68.3828C845.378 68.4963 845.27 68.5847 845.144 68.637C845.018 68.6892 844.879 68.7029 844.745 68.6763C844.611 68.6496 844.489 68.5838 844.392 68.4873C844.296 68.3908 844.23 68.2679 844.203 68.134C844.177 68.0002 844.19 67.8614 844.242 67.7354C844.295 67.6093 844.383 67.5016 844.497 67.4258C844.61 67.35 844.743 67.3096 844.88 67.3096C844.971 67.3096 845.06 67.3274 845.144 67.3621C845.228 67.3967 845.304 67.4476 845.368 67.5117C845.432 67.5758 845.483 67.6516 845.517 67.7354C845.552 67.8191 845.57 67.9089 845.57 67.9995Z" fill="#D6A44D"/>
<path d="M845.57 83.8896C845.57 84.0261 845.53 84.1597 845.454 84.2732C845.378 84.3867 845.27 84.4751 845.144 84.5273C845.018 84.5796 844.879 84.593 844.745 84.5664C844.611 84.5398 844.489 84.4742 844.392 84.3777C844.296 84.2812 844.23 84.1583 844.203 84.0244C844.177 83.8906 844.19 83.7518 844.242 83.6257C844.295 83.4997 844.383 83.392 844.497 83.3162C844.61 83.2403 844.743 83.1997 844.88 83.1997C844.971 83.1997 845.06 83.2175 845.144 83.2522C845.228 83.2869 845.304 83.3378 845.368 83.4019C845.432 83.4659 845.483 83.542 845.517 83.6257C845.552 83.7094 845.57 83.799 845.57 83.8896Z" fill="#D6A44D"/>
<path d="M845.06 40.6396H844.7V64.1597H845.06V40.6396Z" fill="#D6A44D"/>
<path d="M844.88 53.9397C845.736 53.9397 846.43 53.2502 846.43 52.3997C846.43 51.5491 845.736 50.8599 844.88 50.8599C844.024 50.8599 843.33 51.5491 843.33 52.3997C843.33 53.2502 844.024 53.9397 844.88 53.9397Z" fill="#D6A44D"/>
<path d="M845.57 44.4399C845.55 44.6074 845.469 44.7617 845.343 44.8735C845.216 44.9854 845.054 45.0471 844.885 45.0471C844.716 45.0471 844.554 44.9854 844.427 44.8735C844.301 44.7617 844.22 44.6074 844.2 44.4399C844.22 44.2725 844.301 44.1184 844.427 44.0066C844.554 43.8947 844.716 43.833 844.885 43.833C845.054 43.833 845.216 43.8947 845.343 44.0066C845.469 44.1184 845.55 44.2725 845.57 44.4399Z" fill="#D6A44D"/>
<path d="M845.57 60.3699C845.55 60.5373 845.469 60.6914 845.343 60.8032C845.216 60.9151 845.054 60.9768 844.885 60.9768C844.716 60.9768 844.554 60.9151 844.427 60.8032C844.301 60.6914 844.22 60.5373 844.2 60.3699C844.22 60.2025 844.301 60.0481 844.427 59.9363C844.554 59.8244 844.716 59.7627 844.885 59.7627C845.054 59.7627 845.216 59.8244 845.343 59.9363C845.469 60.0481 845.55 60.2025 845.57 60.3699Z" fill="#D6A44D"/>
<path d="M845.06 17.1299H844.7V40.6499H845.06V17.1299Z" fill="#D6A44D"/>
<path d="M844.88 30.4294C845.736 30.4294 846.43 29.7399 846.43 28.8894C846.43 28.0389 845.736 27.3496 844.88 27.3496C844.024 27.3496 843.33 28.0389 843.33 28.8894C843.33 29.7399 844.024 30.4294 844.88 30.4294Z" fill="#D6A44D"/>
<path d="M845.57 20.9198C845.572 21.0566 845.533 21.191 845.459 21.3057C845.384 21.4205 845.277 21.5105 845.151 21.5643C845.025 21.618 844.886 21.6332 844.752 21.6077C844.617 21.5823 844.493 21.5173 844.396 21.4212C844.298 21.3251 844.232 21.2023 844.204 21.0682C844.177 20.9341 844.19 20.7947 844.242 20.668C844.294 20.5414 844.382 20.433 844.496 20.3568C844.609 20.2805 844.743 20.2398 844.88 20.2398C844.97 20.2385 845.06 20.2551 845.143 20.2886C845.227 20.3222 845.303 20.3721 845.367 20.4354C845.431 20.4987 845.482 20.5741 845.517 20.6573C845.552 20.7405 845.57 20.8296 845.57 20.9198Z" fill="#D6A44D"/>
<path d="M845.57 36.8502C845.572 36.987 845.533 37.1214 845.459 37.2362C845.384 37.3509 845.277 37.4409 845.151 37.4947C845.025 37.5485 844.886 37.5634 844.752 37.5379C844.617 37.5124 844.493 37.4477 844.396 37.3516C844.298 37.2555 844.232 37.1325 844.204 36.9984C844.177 36.8643 844.19 36.7251 844.242 36.5985C844.294 36.4718 844.382 36.3635 844.496 36.2872C844.609 36.2109 844.743 36.17 844.88 36.17C844.97 36.1687 845.06 36.1852 845.143 36.2188C845.227 36.2524 845.303 36.3023 845.367 36.3656C845.431 36.4288 845.482 36.5043 845.517 36.5875C845.552 36.6706 845.57 36.76 845.57 36.8502Z" fill="#D6A44D"/>
<path d="M845.06 -6.39014H844.7V17.1296H845.06V-6.39014Z" fill="#D6A44D"/>
<path d="M844.88 6.90991C845.736 6.90991 846.43 6.22064 846.43 5.37012C846.43 4.5196 845.736 3.83008 844.88 3.83008C844.024 3.83008 843.33 4.5196 843.33 5.37012C843.33 6.22064 844.024 6.90991 844.88 6.90991Z" fill="#D6A44D"/>
<path d="M845.57 13.3297C845.572 13.4665 845.533 13.6009 845.459 13.7156C845.384 13.8304 845.277 13.9204 845.151 13.9742C845.025 14.028 844.886 14.0429 844.752 14.0174C844.617 13.9919 844.493 13.9272 844.396 13.8311C844.298 13.735 844.232 13.612 844.204 13.4779C844.177 13.3437 844.19 13.2046 844.242 13.078C844.294 12.9513 844.382 12.8429 844.496 12.7667C844.609 12.6904 844.743 12.6495 844.88 12.6495C844.97 12.6482 845.06 12.665 845.143 12.6986C845.227 12.7321 845.303 12.782 845.367 12.8453C845.431 12.9086 845.482 12.9838 845.517 13.067C845.552 13.1501 845.57 13.2395 845.57 13.3297Z" fill="#D6A44D"/>
<path d="M852.35 246.26L854.11 256.52L844.91 251.68L835.68 256.52L837.45 246.26L830 238.99L840.3 237.49L844.91 228.17L849.51 237.49L859.81 238.99L852.35 246.26Z" fill="url(#paint8_linear_28_64)"/>
<path d="M852.35 246.26L854.11 256.52L844.91 251.68V228.17L849.51 237.49L859.81 238.99L852.35 246.26Z" fill="url(#paint9_linear_28_64)"/>
<path d="M942.69 168.84H942.33V192.36H942.69V168.84Z" fill="#D6A44D"/>
<path d="M944.06 180.6C944.062 180.907 943.973 181.207 943.804 181.463C943.634 181.72 943.393 181.92 943.11 182.039C942.827 182.157 942.515 182.19 942.214 182.131C941.912 182.072 941.635 181.925 941.417 181.709C941.2 181.493 941.051 181.216 940.99 180.916C940.93 180.615 940.96 180.303 941.077 180.019C941.194 179.735 941.393 179.492 941.648 179.322C941.903 179.151 942.203 179.06 942.51 179.06C942.919 179.06 943.312 179.221 943.602 179.51C943.893 179.799 944.057 180.19 944.06 180.6Z" fill="#D6A44D"/>
<path d="M943.19 172.64C943.19 172.82 943.118 172.993 942.991 173.121C942.863 173.248 942.69 173.32 942.51 173.32C942.373 173.322 942.238 173.283 942.123 173.208C942.008 173.133 941.918 173.025 941.864 172.898C941.811 172.772 941.797 172.632 941.823 172.498C941.849 172.363 941.915 172.239 942.012 172.142C942.109 172.045 942.233 171.979 942.368 171.953C942.503 171.926 942.642 171.941 942.769 171.994C942.895 172.048 943.003 172.138 943.078 172.253C943.153 172.368 943.192 172.502 943.19 172.64Z" fill="#D6A44D"/>
<path d="M943.19 188.57C943.19 188.75 943.118 188.923 942.991 189.051C942.863 189.178 942.69 189.25 942.51 189.25C942.373 189.252 942.238 189.213 942.123 189.138C942.008 189.063 941.918 188.955 941.864 188.829C941.811 188.702 941.797 188.563 941.823 188.428C941.849 188.293 941.915 188.169 942.012 188.072C942.109 187.975 942.233 187.909 942.368 187.883C942.503 187.857 942.642 187.871 942.769 187.925C942.895 187.978 943.003 188.068 943.078 188.183C943.153 188.298 943.192 188.433 943.19 188.57Z" fill="#D6A44D"/>
<path d="M942.69 145.32H942.33V168.84H942.69V145.32Z" fill="#D6A44D"/>
<path d="M944.06 157.08C944.064 157.387 943.977 157.689 943.809 157.946C943.641 158.204 943.4 158.405 943.117 158.526C942.834 158.646 942.522 158.68 942.22 158.622C941.918 158.565 941.64 158.419 941.421 158.203C941.203 157.987 941.053 157.711 940.991 157.41C940.93 157.108 940.96 156.796 941.076 156.511C941.193 156.227 941.392 155.984 941.647 155.812C941.902 155.641 942.203 155.55 942.51 155.55C942.918 155.55 943.309 155.71 943.599 155.997C943.889 156.283 944.055 156.672 944.06 157.08Z" fill="#D6A44D"/>
<path d="M943.19 149.12C943.19 149.3 943.118 149.473 942.991 149.6C942.863 149.728 942.69 149.8 942.51 149.8C942.33 149.8 942.157 149.728 942.029 149.6C941.902 149.473 941.83 149.3 941.83 149.12C941.83 148.939 941.902 148.766 942.029 148.639C942.157 148.511 942.33 148.44 942.51 148.44C942.6 148.438 942.689 148.455 942.772 148.489C942.855 148.522 942.93 148.572 942.994 148.636C943.057 148.699 943.107 148.775 943.141 148.858C943.175 148.941 943.191 149.03 943.19 149.12Z" fill="#D6A44D"/>
<path d="M943.19 165.05C943.19 165.23 943.118 165.403 942.991 165.531C942.863 165.658 942.69 165.73 942.51 165.73C942.33 165.73 942.157 165.658 942.029 165.531C941.902 165.403 941.83 165.23 941.83 165.05C941.83 164.87 941.902 164.697 942.029 164.569C942.157 164.442 942.33 164.37 942.51 164.37C942.6 164.369 942.689 164.385 942.772 164.419C942.855 164.453 942.93 164.503 942.994 164.566C943.057 164.63 943.107 164.705 943.141 164.788C943.175 164.871 943.191 164.96 943.19 165.05Z" fill="#D6A44D"/>
<path d="M942.69 121.81H942.33V145.33H942.69V121.81Z" fill="#D6A44D"/>
<path d="M942.51 135.1C943.366 135.1 944.06 134.41 944.06 133.56C944.06 132.709 943.366 132.02 942.51 132.02C941.654 132.02 940.96 132.709 940.96 133.56C940.96 134.41 941.654 135.1 942.51 135.1Z" fill="#D6A44D"/>
<path d="M943.19 125.6C943.191 125.69 943.175 125.779 943.141 125.862C943.107 125.945 943.057 126.02 942.994 126.084C942.93 126.147 942.855 126.197 942.772 126.231C942.689 126.265 942.6 126.281 942.51 126.28C942.33 126.28 942.157 126.208 942.029 126.081C941.902 125.953 941.83 125.781 941.83 125.6C941.83 125.42 941.902 125.247 942.029 125.119C942.157 124.992 942.33 124.92 942.51 124.92C942.6 124.919 942.689 124.935 942.772 124.969C942.855 125.003 942.93 125.053 942.994 125.116C943.057 125.18 943.107 125.255 943.141 125.338C943.175 125.421 943.191 125.511 943.19 125.6Z" fill="#D6A44D"/>
<path d="M943.19 141.53C943.191 141.619 943.175 141.708 943.141 141.791C943.107 141.874 943.057 141.95 942.994 142.014C942.93 142.077 942.855 142.127 942.772 142.16C942.689 142.194 942.6 142.211 942.51 142.21C942.33 142.21 942.157 142.138 942.029 142.01C941.902 141.883 941.83 141.71 941.83 141.53C941.83 141.349 941.902 141.176 942.029 141.049C942.157 140.921 942.33 140.85 942.51 140.85C942.6 140.848 942.689 140.865 942.772 140.899C942.855 140.932 942.93 140.982 942.994 141.046C943.057 141.109 943.107 141.185 943.141 141.268C943.175 141.351 943.191 141.44 943.19 141.53Z" fill="#D6A44D"/>
<path d="M942.69 98.29H942.33V121.81H942.69V98.29Z" fill="#D6A44D"/>
<path d="M942.51 111.59C943.366 111.59 944.06 110.9 944.06 110.05C944.06 109.199 943.366 108.51 942.51 108.51C941.654 108.51 940.96 109.199 940.96 110.05C940.96 110.9 941.654 111.59 942.51 111.59Z" fill="#D6A44D"/>
<path d="M943.19 102.08C943.191 102.169 943.175 102.258 943.141 102.341C943.107 102.424 943.057 102.5 942.994 102.563C942.93 102.627 942.855 102.677 942.772 102.71C942.689 102.744 942.6 102.761 942.51 102.759C942.376 102.759 942.244 102.72 942.132 102.645C942.02 102.57 941.933 102.464 941.882 102.34C941.83 102.216 941.817 102.079 941.843 101.947C941.869 101.815 941.934 101.694 942.029 101.599C942.124 101.503 942.245 101.439 942.377 101.413C942.509 101.386 942.646 101.4 942.77 101.451C942.895 101.503 943.001 101.59 943.075 101.702C943.15 101.813 943.19 101.945 943.19 102.08Z" fill="#D6A44D"/>
<path d="M943.19 118C943.191 118.09 943.175 118.178 943.141 118.262C943.107 118.345 943.057 118.42 942.994 118.484C942.93 118.547 942.855 118.597 942.772 118.631C942.689 118.665 942.6 118.681 942.51 118.68C942.376 118.68 942.244 118.64 942.132 118.565C942.02 118.491 941.933 118.384 941.882 118.26C941.83 118.136 941.817 117.999 941.843 117.867C941.869 117.735 941.934 117.614 942.029 117.519C942.124 117.424 942.245 117.359 942.377 117.333C942.509 117.307 942.646 117.32 942.77 117.372C942.895 117.423 943.001 117.51 943.075 117.622C943.15 117.734 943.19 117.865 943.19 118Z" fill="#D6A44D"/>
<path d="M942.69 74.7695H942.33V98.2896H942.69V74.7695Z" fill="#D6A44D"/>
<path d="M942.51 88.0698C943.366 88.0698 944.06 87.3803 944.06 86.5298C944.06 85.6793 943.366 84.9897 942.51 84.9897C941.654 84.9897 940.96 85.6793 940.96 86.5298C940.96 87.3803 941.654 88.0698 942.51 88.0698Z" fill="#D6A44D"/>
<path d="M943.19 78.5602C943.191 78.6503 943.175 78.7397 943.141 78.8233C943.108 78.907 943.058 78.9833 942.994 79.0475C942.931 79.1117 942.856 79.1626 942.773 79.1974C942.689 79.2322 942.6 79.2501 942.51 79.2501C942.413 79.2618 942.315 79.2528 942.222 79.2237C942.128 79.1947 942.042 79.1461 941.969 79.0814C941.896 79.0167 941.838 78.9373 941.798 78.8482C941.758 78.7592 941.737 78.6627 941.737 78.565C941.737 78.4674 941.758 78.3711 941.798 78.2821C941.838 78.1931 941.896 78.1134 941.969 78.0487C942.042 77.9839 942.128 77.9354 942.222 77.9064C942.315 77.8773 942.413 77.8683 942.51 77.88C942.69 77.88 942.863 77.9517 942.991 78.0792C943.118 78.2067 943.19 78.3798 943.19 78.5602Z" fill="#D6A44D"/>
<path d="M943.19 94.4897C943.191 94.5798 943.175 94.6694 943.141 94.7531C943.108 94.8367 943.058 94.9128 942.994 94.977C942.931 95.0412 942.856 95.0921 942.773 95.1269C942.689 95.1617 942.6 95.1796 942.51 95.1796C942.413 95.1913 942.315 95.1825 942.222 95.1535C942.128 95.1244 942.042 95.0759 941.969 95.0111C941.896 94.9464 941.838 94.8668 941.798 94.7777C941.758 94.6887 941.737 94.5924 941.737 94.4948C941.737 94.3972 941.758 94.3006 941.798 94.2116C941.838 94.1226 941.896 94.0429 941.969 93.9782C942.042 93.9134 942.128 93.8649 942.222 93.8358C942.315 93.8068 942.413 93.798 942.51 93.8097C942.69 93.8097 942.863 93.8814 942.991 94.0089C943.118 94.1365 943.19 94.3093 943.19 94.4897Z" fill="#D6A44D"/>
<path d="M942.69 51.25H942.33V74.77H942.69V51.25Z" fill="#D6A44D"/>
<path d="M942.51 64.5498C943.366 64.5498 944.06 63.8603 944.06 63.0098C944.06 62.1592 943.366 61.4697 942.51 61.4697C941.654 61.4697 940.96 62.1592 940.96 63.0098C940.96 63.8603 941.654 64.5498 942.51 64.5498Z" fill="#D6A44D"/>
<path d="M943.19 55.0501C943.19 55.2305 943.118 55.4033 942.991 55.5308C942.863 55.6584 942.69 55.7301 942.51 55.7301C942.33 55.7301 942.157 55.6584 942.029 55.5308C941.902 55.4033 941.83 55.2305 941.83 55.0501C941.83 54.8698 941.902 54.6967 942.029 54.5692C942.157 54.4416 942.33 54.3702 942.51 54.3702C942.6 54.3688 942.689 54.3853 942.772 54.419C942.855 54.4527 942.93 54.5028 942.994 54.5662C943.057 54.6297 943.107 54.7051 943.141 54.7882C943.175 54.8713 943.191 54.9605 943.19 55.0501Z" fill="#D6A44D"/>
<path d="M943.19 70.9998C943.19 71.1802 943.118 71.353 942.991 71.4805C942.863 71.6081 942.69 71.6798 942.51 71.6798C942.33 71.6798 942.157 71.6081 942.029 71.4805C941.902 71.353 941.83 71.1802 941.83 70.9998C941.83 70.8195 941.902 70.6466 942.029 70.5191C942.157 70.3916 942.33 70.3199 942.51 70.3199C942.6 70.3186 942.689 70.335 942.772 70.3687C942.855 70.4024 942.93 70.4525 942.994 70.5159C943.057 70.5794 943.107 70.655 943.141 70.7381C943.175 70.8212 943.191 70.9102 943.19 70.9998Z" fill="#D6A44D"/>
<path d="M942.69 27.7397H942.33V51.2598H942.69V27.7397Z" fill="#D6A44D"/>
<path d="M942.51 41.0298C943.366 41.0298 944.06 40.3403 944.06 39.4897C944.06 38.6392 943.366 37.9497 942.51 37.9497C941.654 37.9497 940.96 38.6392 940.96 39.4897C940.96 40.3403 941.654 41.0298 942.51 41.0298Z" fill="#D6A44D"/>
<path d="M943.19 31.5296C943.191 31.6193 943.175 31.7082 943.141 31.7913C943.107 31.8744 943.057 31.9501 942.994 32.0135C942.93 32.0769 942.855 32.1268 942.772 32.1605C942.689 32.1942 942.6 32.2109 942.51 32.2095C942.33 32.2095 942.157 32.1379 942.029 32.0103C941.902 31.8828 941.83 31.71 941.83 31.5296C941.83 31.3493 941.902 31.1762 942.029 31.0487C942.157 30.9211 942.33 30.8497 942.51 30.8497C942.6 30.8483 942.689 30.8648 942.772 30.8985C942.855 30.9322 942.93 30.9823 942.994 31.0457C943.057 31.1091 943.107 31.1845 943.141 31.2677C943.175 31.3508 943.191 31.4399 943.19 31.5296Z" fill="#D6A44D"/>
<path d="M943.19 47.4598C943.191 47.5495 943.175 47.6386 943.141 47.7218C943.107 47.8049 943.057 47.8803 942.994 47.9437C942.93 48.0071 942.855 48.0572 942.772 48.0909C942.689 48.1246 942.6 48.1411 942.51 48.1397C942.33 48.1397 942.157 48.0683 942.029 47.9407C941.902 47.8132 941.83 47.6401 941.83 47.4598C941.83 47.2794 941.902 47.1066 942.029 46.9791C942.157 46.8516 942.33 46.7799 942.51 46.7799C942.6 46.7785 942.689 46.7952 942.772 46.8289C942.855 46.8626 942.93 46.9125 942.994 46.9759C943.057 47.0393 943.107 47.115 943.141 47.1981C943.175 47.2812 943.191 47.3701 943.19 47.4598Z" fill="#D6A44D"/>
<path d="M942.69 4.21973H942.33V27.7397H942.69V4.21973Z" fill="#D6A44D"/>
<path d="M942.51 17.5195C943.366 17.5195 944.06 16.83 944.06 15.9795C944.06 15.129 943.366 14.4395 942.51 14.4395C941.654 14.4395 940.96 15.129 940.96 15.9795C940.96 16.83 941.654 17.5195 942.51 17.5195Z" fill="#D6A44D"/>
<path d="M943.19 7.99985C943.191 8.08952 943.175 8.17846 943.141 8.26157C943.107 8.34468 943.057 8.42032 942.994 8.48374C942.93 8.54715 942.855 8.59726 942.772 8.63095C942.689 8.66465 942.6 8.68113 942.51 8.67978C942.376 8.67978 942.244 8.64 942.132 8.56528C942.02 8.49056 941.933 8.38436 941.882 8.26011C941.83 8.13585 941.817 7.99919 941.843 7.86728C941.869 7.73538 941.934 7.61424 942.029 7.51914C942.124 7.42404 942.245 7.3591 942.377 7.33286C942.509 7.30662 942.646 7.32021 942.77 7.37168C942.895 7.42314 943.001 7.51034 943.075 7.62217C943.15 7.73399 943.19 7.86536 943.19 7.99985Z" fill="#D6A44D"/>
<path d="M943.19 23.9398C943.191 24.0295 943.175 24.1186 943.141 24.2018C943.107 24.2849 943.057 24.3603 942.994 24.4237C942.93 24.4871 942.855 24.5372 942.772 24.5709C942.689 24.6046 942.6 24.6213 942.51 24.62C942.376 24.62 942.244 24.5799 942.132 24.5052C942.02 24.4305 941.933 24.3243 941.882 24.2C941.83 24.0758 941.817 23.9391 941.843 23.8072C941.869 23.6753 941.934 23.5542 942.029 23.4591C942.124 23.364 942.245 23.299 942.377 23.2728C942.509 23.2466 942.646 23.2602 942.77 23.3116C942.895 23.3631 943.001 23.4503 943.075 23.5621C943.15 23.6739 943.19 23.8053 943.19 23.9398Z" fill="#D6A44D"/>
<path d="M942.69 -19.3003H942.33V4.21973H942.69V-19.3003Z" fill="#D6A44D"/>
<path d="M943.19 0.419592C943.191 0.509263 943.175 0.598444 943.141 0.681555C943.107 0.764666 943.057 0.840064 942.994 0.903479C942.93 0.966893 942.855 1.017 942.772 1.0507C942.689 1.08439 942.6 1.10112 942.51 1.09977C942.376 1.09977 942.244 1.05974 942.132 0.985022C942.02 0.910302 941.933 0.8041 941.882 0.679846C941.83 0.555592 941.817 0.418931 941.843 0.287024C941.869 0.155117 941.934 0.0339788 942.029 -0.0611209C942.124 -0.156221 942.245 -0.220918 942.377 -0.247156C942.509 -0.273394 942.646 -0.260049 942.77 -0.208582C942.895 -0.157114 943.001 -0.069919 943.075 0.0419064C943.15 0.153732 943.19 0.285101 943.19 0.419592Z" fill="#D6A44D"/>
<path d="M949.97 209.84L951.74 220.1L942.53 215.26L933.31 220.1L935.07 209.84L927.62 202.57L937.92 201.07L942.53 191.74L947.13 201.07L957.43 202.57L949.97 209.84Z" fill="url(#paint10_linear_28_64)"/>
<path d="M949.97 209.84L951.74 220.1L942.53 215.26V191.74L947.13 201.07L957.43 202.57L949.97 209.84Z" fill="url(#paint11_linear_28_64)"/>
</g>
<rect width="978" height="5" fill="url(#paint12_linear_28_64)"/>
<path d="M269.101 84L253.485 39.2H261.805L276.589 81.504L283.629 61.344L275.885 39.2H284.205L287.789 49.376L291.309 39.2H293.357L288.813 52.32L298.989 81.504L313.709 39.2H315.757L300.141 84H291.501L284.653 64.288L277.741 84H269.101ZM321.161 46.688C321.161 40.544 320.074 37.856 317.898 37.856V37.28H328.842V56.032C331.274 52.576 334.922 50.72 339.082 50.72C345.738 50.72 348.234 53.472 348.234 60.064V84H340.554V59.68C340.554 54.368 339.85 52 337.418 52C334.218 52 328.842 56.544 328.842 67.104V84H321.161V46.688ZM372.486 79.776C370.822 82.784 368.006 85.28 363.718 85.28C357.638 85.28 353.03 82.4 353.03 76.576C353.03 64.992 369.99 65.568 372.422 60.384C372.166 53.728 370.374 52 367.878 52C364.614 52 362.118 55.776 362.118 60.96H355.782C355.782 54.688 361.414 50.72 368.326 50.72C376.07 50.72 380.166 54.048 380.166 62.432V84H372.486V79.776ZM360.262 79.008C360.262 81.696 361.67 84 364.998 84C369.542 84 371.91 77.984 372.486 73.824V61.728C369.542 65.952 360.262 68.192 360.262 79.008ZM393.608 85.28C389.064 85.28 387.08 81.504 387.08 76.384V53.28H384.968V52H387.08C390.344 52 394.056 45.6 394.056 42.4H394.76V52H401.352V53.28H394.76V76.256C394.76 79.392 395.784 81.248 397.832 81.312C399.24 81.312 400.328 80.288 401.544 79.008L401.8 79.52C399.944 81.76 397.512 85.28 393.608 85.28ZM404.926 41.504C404.926 39.584 406.398 37.92 408.574 37.92C410.75 37.92 412.414 39.2 412.414 41.76C412.414 44.256 410.046 47.584 406.718 47.584V47.328C407.166 47.328 408.958 46.368 409.214 45.152C406.782 45.024 404.926 43.552 404.926 41.504ZM431.538 85.28C425.842 85.28 419.186 83.744 416.178 82.144V72.928H416.37C419.89 78.24 424.498 84 433.266 84C437.554 84 439.986 81.312 439.986 78.816C439.986 69.6 416.434 70.688 416.434 60.448C416.434 56.032 420.082 50.72 430.642 50.72C436.402 50.72 442.098 52.192 443.89 53.856V61.088H443.698C441.01 56.736 435.57 52 428.786 52C425.33 52 422.258 54.304 422.258 56.416C422.258 64.224 445.618 61.728 445.618 74.784C445.618 81.696 440.562 85.28 431.538 85.28ZM478.487 85.28C470.743 85.28 461.975 79.968 461.975 67.872C461.975 56.032 470.551 50.72 478.231 50.72C485.719 50.72 493.399 55.776 493.399 67.616H470.039C470.231 76.256 474.775 81.184 481.495 81.184C486.359 81.184 490.199 77.984 491.799 74.784L492.375 75.232C490.455 79.136 485.911 85.28 478.487 85.28ZM470.039 66.336H485.783C485.527 55.84 482.647 52 478.231 52C473.303 52 470.167 56.992 470.039 66.336ZM506.272 84L495.008 52H507.552V52.512C502.816 52.512 503.968 55.712 507.744 66.336L513.248 82.016L518.88 65.312C520.096 61.6 518.304 55.904 515.936 52H524.32L513.952 84H506.272ZM542.737 85.28C534.993 85.28 526.225 79.968 526.225 67.872C526.225 56.032 534.801 50.72 542.481 50.72C549.969 50.72 557.649 55.776 557.649 67.616H534.289C534.481 76.256 539.025 81.184 545.745 81.184C550.609 81.184 554.449 77.984 556.049 74.784L556.625 75.232C554.705 79.136 550.161 85.28 542.737 85.28ZM534.289 66.336H550.033C549.777 55.84 546.897 52 542.481 52C537.553 52 534.417 56.992 534.289 66.336ZM562.842 61.408C562.842 55.264 561.754 52.576 559.578 52.576V52H570.522V54.752C572.442 52.128 575.194 50.72 578.778 50.72C583.77 50.72 587.418 53.856 587.418 60.96H580.25C580.058 53.856 579.29 52 577.114 52C573.914 52 570.522 56.544 570.522 67.104V84H562.842V61.408ZM596.121 97.824C592.857 97.824 590.169 96.352 588.633 94.368V87.2C590.169 88.992 593.049 91.68 597.593 91.68C602.905 91.68 604.825 88.48 606.297 84H599.961L588.697 52H601.241V52.512C596.505 52.512 597.657 55.712 601.433 66.336L606.937 82.016L612.441 65.312C613.657 61.6 611.993 55.904 609.625 52H618.009L607.641 84C605.593 90.336 603.033 97.824 596.121 97.824ZM636.231 85.28C628.551 85.28 619.975 79.968 619.975 67.872C619.975 56.032 628.551 50.72 636.231 50.72C643.911 50.72 652.487 56.032 652.487 67.872C652.487 79.968 643.911 85.28 636.231 85.28ZM628.615 67.744C628.615 78.88 631.175 84 636.231 84C641.287 84 643.847 78.88 643.847 67.744C643.847 56.928 641.287 52 636.231 52C631.175 52 628.615 56.928 628.615 67.744ZM657.967 61.408C657.967 55.264 656.879 52.576 654.703 52.576V52H665.647V56.032C668.079 52.576 671.727 50.72 675.887 50.72C682.543 50.72 685.039 53.472 685.039 60.064V84H677.359V59.68C677.359 54.368 676.655 52 674.223 52C671.023 52 665.647 56.544 665.647 67.104V84H657.967V61.408ZM706.675 85.28C698.931 85.28 690.163 79.968 690.163 67.872C690.163 56.032 698.739 50.72 706.419 50.72C713.907 50.72 721.587 55.776 721.587 67.616H698.227C698.419 76.256 702.963 81.184 709.683 81.184C714.547 81.184 718.387 77.984 719.987 74.784L720.562 75.232C718.643 79.136 714.099 85.28 706.675 85.28ZM698.227 66.336H713.971C713.715 55.84 710.835 52 706.419 52C701.491 52 698.355 56.992 698.227 66.336ZM328.397 162L317.133 130H329.677V130.512C324.941 130.512 326.093 133.712 329.869 144.336L335.373 159.952L340.749 142.864L336.205 130H348.749V130.512C344.013 130.512 345.165 133.712 348.941 144.336L354.444 160.016L360.077 143.312C361.293 139.6 359.501 133.904 357.133 130H365.517L355.149 162H347.469L341.453 144.848L336.077 162H328.397ZM370.467 139.408C370.467 133.264 369.379 130.576 367.203 130.576V130H378.147V162H370.467V139.408ZM370.083 119.376C370.083 117.392 371.683 115.792 373.667 115.792C375.651 115.792 377.251 117.392 377.251 119.376C377.251 121.36 375.651 122.96 373.667 122.96C371.683 122.96 370.083 121.36 370.083 119.376ZM398.975 163.28C393.279 163.28 386.623 161.744 383.615 160.144V150.928H383.807C387.327 156.24 391.935 162 400.703 162C404.991 162 407.423 159.312 407.423 156.816C407.423 147.6 383.871 148.688 383.871 138.448C383.871 134.032 387.519 128.72 398.079 128.72C403.839 128.72 409.535 130.192 411.327 131.856V139.088H411.135C408.447 134.736 403.007 130 396.223 130C392.767 130 389.695 132.304 389.695 134.416C389.695 142.224 413.055 139.728 413.055 152.784C413.055 159.696 407.999 163.28 398.975 163.28ZM419.224 124.688C419.224 118.544 418.136 115.856 415.96 115.856V115.28H426.904V134.032C429.336 130.576 432.984 128.72 437.144 128.72C443.8 128.72 446.296 131.472 446.296 138.064V162H438.616V137.68C438.616 132.368 437.912 130 435.48 130C432.28 130 426.904 134.544 426.904 145.104V162H419.224V124.688ZM453.717 139.408C453.717 133.264 452.629 130.576 450.453 130.576V130H461.397V162H453.717V139.408ZM453.333 119.376C453.333 117.392 454.933 115.792 456.917 115.792C458.901 115.792 460.501 117.392 460.501 119.376C460.501 121.36 458.901 122.96 456.917 122.96C454.933 122.96 453.333 121.36 453.333 119.376ZM468.529 139.408C468.529 133.264 467.441 130.576 465.265 130.576V130H476.209V134.032C478.641 130.576 482.289 128.72 486.449 128.72C493.105 128.72 495.601 131.472 495.601 138.064V162H487.921V137.68C487.921 132.368 487.217 130 484.785 130C481.585 130 476.209 134.544 476.209 145.104V162H468.529V139.408ZM516.469 175.824C510.453 175.824 505.525 174.736 502.837 173.136V163.28H503.093C505.525 168.144 510.325 174.544 516.405 174.544C521.781 174.544 523.189 169.168 523.189 163.088V160.848C521.141 162.384 518.453 163.28 515.765 163.28C509.109 163.28 500.725 158.416 500.725 145.872C500.725 133.712 507.893 128.72 515.573 128.72C519.541 128.72 522.741 130.64 524.789 133.008L530.677 130H530.869V162.832C530.869 172.752 525.749 175.824 516.469 175.824ZM509.365 145.744C509.365 157.392 511.733 162 515.765 162C519.733 162 522.101 159.376 523.189 155.728V136.464C521.909 132.752 518.901 130 515.573 130C511.733 130 509.365 134.864 509.365 145.744ZM549.755 130C549.755 117.84 553.595 113.296 560.891 113.296C566.523 113.296 571.387 117.136 571.387 124.816H565.371C565.371 118.352 563.643 114.576 560.251 114.576C555.323 114.576 557.435 120.592 557.435 125.584V130H565.307V131.28H557.435V162H549.755V130ZM582.481 163.28C574.801 163.28 566.225 157.968 566.225 145.872C566.225 134.032 574.801 128.72 582.481 128.72C590.161 128.72 598.737 134.032 598.737 145.872C598.737 157.968 590.161 163.28 582.481 163.28ZM574.865 145.744C574.865 156.88 577.425 162 582.481 162C587.537 162 590.097 156.88 590.097 145.744C590.097 134.928 587.537 130 582.481 130C577.425 130 574.865 134.928 574.865 145.744ZM604.217 139.408C604.217 133.264 603.129 130.576 600.953 130.576V130H611.897V132.752C613.817 130.128 616.569 128.72 620.153 128.72C625.145 128.72 628.793 131.856 628.793 138.96H621.625C621.433 131.856 620.665 130 618.489 130C615.289 130 611.897 134.544 611.897 145.104V162H604.217V139.408ZM642.424 145.296C642.424 134.736 650.296 138 650.296 125.904C650.296 119.312 648.184 117.2 645.112 117.2C639.8 117.2 637.944 121.744 637.944 128.784H632.312C632.312 122.576 636.152 115.92 645.304 115.92C654.392 115.92 657.336 121.04 657.336 125.52C657.336 137.744 644.344 135.76 644.344 145.296V151.632H642.424V145.296ZM639.736 158.352C639.736 156.368 641.336 154.768 643.384 154.768C645.368 154.768 646.968 156.368 646.968 158.352C646.968 160.4 645.368 162 643.384 162C641.336 162 639.736 160.4 639.736 158.352Z" fill="#4A0258"/>
<defs>
<linearGradient id="paint0_linear_28_64" x1="62.5953" y1="96.529" x2="72.5645" y2="151.604" gradientUnits="userSpaceOnUse">
<stop stop-color="#B57837"/>
<stop offset="0.2" stop-color="#D3A34E"/>
<stop offset="0.44" stop-color="#F3D166"/>
<stop offset="0.57" stop-color="#FFE370"/>
<stop offset="0.64" stop-color="#F8D96B"/>
<stop offset="0.76" stop-color="#E6BF5D"/>
<stop offset="0.91" stop-color="#C89446"/>
<stop offset="1" stop-color="#B57837"/>
</linearGradient>
<linearGradient id="paint1_linear_28_64" x1="70.9397" y1="138.361" x2="70.9479" y2="89.1124" gradientUnits="userSpaceOnUse">
<stop stop-color="#B57837"/>
<stop offset="0.2" stop-color="#D3A34E"/>
<stop offset="0.44" stop-color="#F3D166"/>
<stop offset="0.57" stop-color="#FFE370"/>
<stop offset="0.64" stop-color="#F8D96B"/>
<stop offset="0.76" stop-color="#E6BF5D"/>
<stop offset="0.91" stop-color="#C89446"/>
<stop offset="1" stop-color="#B57837"/>
</linearGradient>
<linearGradient id="paint2_linear_28_64" x1="872.33" y1="109.704" x2="884.703" y2="178.063" gradientUnits="userSpaceOnUse">
<stop stop-color="#B57837"/>
<stop offset="0.2" stop-color="#D3A34E"/>
<stop offset="0.44" stop-color="#F3D166"/>
<stop offset="0.57" stop-color="#FFE370"/>
<stop offset="0.64" stop-color="#F8D96B"/>
<stop offset="0.76" stop-color="#E6BF5D"/>
<stop offset="0.91" stop-color="#C89446"/>
<stop offset="1" stop-color="#B57837"/>
</linearGradient>
<linearGradient id="paint3_linear_28_64" x1="882.682" y1="161.62" x2="882.686" y2="100.502" gradientUnits="userSpaceOnUse">
<stop stop-color="#B57837"/>
<stop offset="0.2" stop-color="#D3A34E"/>
<stop offset="0.44" stop-color="#F3D166"/>
<stop offset="0.57" stop-color="#FFE370"/>
<stop offset="0.64" stop-color="#F8D96B"/>
<stop offset="0.76" stop-color="#E6BF5D"/>
<stop offset="0.91" stop-color="#C89446"/>
<stop offset="1" stop-color="#B57837"/>
</linearGradient>
<linearGradient id="paint4_linear_28_64" x1="149.15" y1="90.8894" x2="144.17" y2="108.399" gradientUnits="userSpaceOnUse">
<stop stop-color="#EBBD5C"/>
<stop offset="0.03" stop-color="#E0AE54"/>
<stop offset="0.1" stop-color="#D09949"/>
<stop offset="0.16" stop-color="#C68C42"/>
<stop offset="0.22" stop-color="#C38840"/>
<stop offset="0.36" stop-color="#C88F44"/>
<stop offset="0.56" stop-color="#D4A24E"/>
<stop offset="0.79" stop-color="#E9C15E"/>
<stop offset="1" stop-color="#FFE370"/>
</linearGradient>
<linearGradient id="paint5_linear_28_64" x1="146.52" y1="99.3195" x2="155.7" y2="99.3195" gradientUnits="userSpaceOnUse">
<stop stop-color="#EBBD5C"/>
<stop offset="0.03" stop-color="#E0AE54"/>
<stop offset="0.1" stop-color="#D09949"/>
<stop offset="0.16" stop-color="#C68C42"/>
<stop offset="0.22" stop-color="#C38840"/>
<stop offset="0.36" stop-color="#C88F44"/>
<stop offset="0.56" stop-color="#D4A24E"/>
<stop offset="0.79" stop-color="#E9C15E"/>
<stop offset="1" stop-color="#FFE370"/>
</linearGradient>
<linearGradient id="paint6_linear_28_64" x1="120.81" y1="199.14" x2="115.83" y2="216.66" gradientUnits="userSpaceOnUse">
<stop stop-color="#EBBD5C"/>
<stop offset="0.03" stop-color="#E0AE54"/>
<stop offset="0.1" stop-color="#D09949"/>
<stop offset="0.16" stop-color="#C68C42"/>
<stop offset="0.22" stop-color="#C38840"/>
<stop offset="0.36" stop-color="#C88F44"/>
<stop offset="0.56" stop-color="#D4A24E"/>
<stop offset="0.79" stop-color="#E9C15E"/>
<stop offset="1" stop-color="#FFE370"/>
</linearGradient>
<linearGradient id="paint7_linear_28_64" x1="118.18" y1="207.58" x2="127.36" y2="207.58" gradientUnits="userSpaceOnUse">
<stop stop-color="#EBBD5C"/>
<stop offset="0.03" stop-color="#E0AE54"/>
<stop offset="0.1" stop-color="#D09949"/>
<stop offset="0.16" stop-color="#C68C42"/>
<stop offset="0.22" stop-color="#C38840"/>
<stop offset="0.36" stop-color="#C88F44"/>
<stop offset="0.56" stop-color="#D4A24E"/>
<stop offset="0.79" stop-color="#E9C15E"/>
<stop offset="1" stop-color="#FFE370"/>
</linearGradient>
<linearGradient id="paint8_linear_28_64" x1="846.93" y1="231.88" x2="840.76" y2="253.61" gradientUnits="userSpaceOnUse">
<stop stop-color="#EBBD5C"/>
<stop offset="0.03" stop-color="#E0AE54"/>
<stop offset="0.1" stop-color="#D09949"/>
<stop offset="0.16" stop-color="#C68C42"/>
<stop offset="0.22" stop-color="#C38840"/>
<stop offset="0.36" stop-color="#C88F44"/>
<stop offset="0.56" stop-color="#D4A24E"/>
<stop offset="0.79" stop-color="#E9C15E"/>
<stop offset="1" stop-color="#FFE370"/>
</linearGradient>
<linearGradient id="paint9_linear_28_64" x1="843.67" y1="242.35" x2="855.06" y2="242.35" gradientUnits="userSpaceOnUse">
<stop stop-color="#EBBD5C"/>
<stop offset="0.03" stop-color="#E0AE54"/>
<stop offset="0.1" stop-color="#D09949"/>
<stop offset="0.16" stop-color="#C68C42"/>
<stop offset="0.22" stop-color="#C38840"/>
<stop offset="0.36" stop-color="#C88F44"/>
<stop offset="0.56" stop-color="#D4A24E"/>
<stop offset="0.79" stop-color="#E9C15E"/>
<stop offset="1" stop-color="#FFE370"/>
</linearGradient>
<linearGradient id="paint10_linear_28_64" x1="944.55" y1="195.45" x2="938.38" y2="217.19" gradientUnits="userSpaceOnUse">
<stop stop-color="#EBBD5C"/>
<stop offset="0.03" stop-color="#E0AE54"/>
<stop offset="0.1" stop-color="#D09949"/>
<stop offset="0.16" stop-color="#C68C42"/>
<stop offset="0.22" stop-color="#C38840"/>
<stop offset="0.36" stop-color="#C88F44"/>
<stop offset="0.56" stop-color="#D4A24E"/>
<stop offset="0.79" stop-color="#E9C15E"/>
<stop offset="1" stop-color="#FFE370"/>
</linearGradient>
<linearGradient id="paint11_linear_28_64" x1="941.29" y1="205.92" x2="952.68" y2="205.92" gradientUnits="userSpaceOnUse">
<stop stop-color="#EBBD5C"/>
<stop offset="0.03" stop-color="#E0AE54"/>
<stop offset="0.1" stop-color="#D09949"/>
<stop offset="0.16" stop-color="#C68C42"/>
<stop offset="0.22" stop-color="#C38840"/>
<stop offset="0.36" stop-color="#C88F44"/>
<stop offset="0.56" stop-color="#D4A24E"/>
<stop offset="0.79" stop-color="#E9C15E"/>
<stop offset="1" stop-color="#FFE370"/>
</linearGradient>
<linearGradient id="paint12_linear_28_64" x1="0.000235114" y1="2.49457" x2="978" y2="2.49457" gradientUnits="userSpaceOnUse">
<stop stop-color="#BD9336" stop-opacity="0"/>
<stop offset="0.29" stop-color="#FFFFDA"/>
<stop offset="0.41" stop-color="#FFDB77"/>
<stop offset="0.59" stop-color="#C89D3F"/>
<stop offset="0.77" stop-color="#956300"/>
<stop offset="1" stop-color="#FACF73" stop-opacity="0"/>
</linearGradient>
</defs>
</svg>
