<svg width="379" height="89" viewBox="0 0 379 89" fill="none" xmlns="http://www.w3.org/2000/svg">
<path d="M114.674 9.345V6.4425L121.581 4.98V21H118.454V8.355L114.674 9.345ZM125.838 19.6725C125.838 19.1625 126.011 18.735 126.356 18.39C126.716 18.03 127.158 17.85 127.683 17.85C128.223 17.85 128.666 18.03 129.011 18.39C129.356 18.735 129.528 19.1625 129.528 19.6725C129.528 20.1525 129.356 20.5725 129.011 20.9325C128.666 21.2925 128.223 21.4725 127.683 21.4725C127.158 21.4725 126.716 21.2925 126.356 20.9325C126.011 20.5725 125.838 20.1525 125.838 19.6725ZM143.146 12.1575L142.134 21H138.781L141.121 4.4625L147.714 14.6325L154.306 4.4625L156.646 21H153.294L152.281 12.1575L147.714 19.5375L143.146 12.1575ZM160.971 17.7825C160.971 18.0825 161.046 18.345 161.196 18.57C161.346 18.78 161.548 18.945 161.803 19.065C162.073 19.17 162.366 19.2225 162.681 19.2225C163.131 19.2225 163.536 19.1325 163.896 18.9525C164.256 18.7575 164.548 18.4875 164.773 18.1425C164.998 17.7825 165.111 17.355 165.111 16.86L165.471 18.21C165.471 18.87 165.283 19.425 164.908 19.875C164.548 20.325 164.076 20.6625 163.491 20.8875C162.921 21.1125 162.321 21.225 161.691 21.225C161.046 21.225 160.446 21.0975 159.891 20.8425C159.336 20.5875 158.886 20.22 158.541 19.74C158.211 19.245 158.046 18.645 158.046 17.94C158.046 16.935 158.398 16.14 159.103 15.555C159.808 14.97 160.806 14.6775 162.096 14.6775C162.756 14.6775 163.333 14.745 163.828 14.88C164.338 15.015 164.766 15.18 165.111 15.375C165.456 15.57 165.703 15.7575 165.853 15.9375V17.2875C165.448 16.9875 164.991 16.7625 164.481 16.6125C163.986 16.4625 163.461 16.3875 162.906 16.3875C162.456 16.3875 162.088 16.4475 161.803 16.5675C161.518 16.6725 161.308 16.83 161.173 17.04C161.038 17.235 160.971 17.4825 160.971 17.7825ZM159.846 13.575L158.766 11.595C159.306 11.31 159.966 11.04 160.746 10.785C161.526 10.515 162.396 10.38 163.356 10.38C164.241 10.38 165.028 10.5075 165.718 10.7625C166.408 11.0175 166.948 11.3925 167.338 11.8875C167.728 12.3675 167.923 12.96 167.923 13.665V21H165.111V14.2725C165.111 13.9875 165.066 13.7475 164.976 13.5525C164.886 13.3425 164.743 13.17 164.548 13.035C164.368 12.9 164.151 12.8025 163.896 12.7425C163.641 12.6825 163.356 12.6525 163.041 12.6525C162.561 12.6525 162.103 12.705 161.668 12.81C161.233 12.915 160.858 13.0425 160.543 13.1925C160.228 13.3425 159.996 13.47 159.846 13.575ZM170.567 3.45H173.379V21H170.567V3.45ZM177.182 10.65H180.669L176.214 14.925L181.119 21H177.654L172.727 14.925L177.182 10.65ZM187.206 21.225C186.081 21.225 185.099 21 184.259 20.55C183.419 20.1 182.766 19.4775 182.301 18.6825C181.851 17.8725 181.626 16.92 181.626 15.825C181.626 14.715 181.851 13.7625 182.301 12.9675C182.766 12.1575 183.419 11.535 184.259 11.1C185.099 10.65 186.089 10.425 187.229 10.425C188.369 10.425 189.336 10.635 190.131 11.055C190.941 11.46 191.556 12.06 191.976 12.855C192.396 13.635 192.606 14.58 192.606 15.69C192.606 15.825 192.599 15.9675 192.584 16.1175C192.584 16.2675 192.576 16.3875 192.561 16.4775H183.291V14.6775H190.019L189.231 15.7125C189.291 15.6225 189.344 15.5025 189.389 15.3525C189.449 15.1875 189.479 15.0525 189.479 14.9475C189.479 14.4375 189.381 14.0025 189.186 13.6425C189.006 13.2825 188.744 12.9975 188.399 12.7875C188.054 12.5775 187.649 12.4725 187.184 12.4725C186.614 12.4725 186.134 12.6 185.744 12.855C185.369 13.095 185.076 13.4625 184.866 13.9575C184.671 14.4375 184.566 15.0375 184.551 15.7575C184.551 16.4475 184.649 17.0325 184.844 17.5125C185.054 17.9925 185.361 18.36 185.766 18.615C186.171 18.87 186.659 18.9975 187.229 18.9975C187.874 18.9975 188.421 18.8775 188.871 18.6375C189.336 18.3825 189.719 18.0075 190.019 17.5125L192.561 18.3C192.021 19.275 191.301 20.01 190.401 20.505C189.516 20.985 188.451 21.225 187.206 21.225ZM203.62 17.7825C203.62 18.0825 203.695 18.345 203.845 18.57C203.995 18.78 204.197 18.945 204.452 19.065C204.722 19.17 205.015 19.2225 205.33 19.2225C205.78 19.2225 206.185 19.1325 206.545 18.9525C206.905 18.7575 207.197 18.4875 207.422 18.1425C207.647 17.7825 207.76 17.355 207.76 16.86L208.12 18.21C208.12 18.87 207.932 19.425 207.557 19.875C207.197 20.325 206.725 20.6625 206.14 20.8875C205.57 21.1125 204.97 21.225 204.34 21.225C203.695 21.225 203.095 21.0975 202.54 20.8425C201.985 20.5875 201.535 20.22 201.19 19.74C200.86 19.245 200.695 18.645 200.695 17.94C200.695 16.935 201.047 16.14 201.752 15.555C202.457 14.97 203.455 14.6775 204.745 14.6775C205.405 14.6775 205.982 14.745 206.477 14.88C206.987 15.015 207.415 15.18 207.76 15.375C208.105 15.57 208.352 15.7575 208.502 15.9375V17.2875C208.097 16.9875 207.64 16.7625 207.13 16.6125C206.635 16.4625 206.11 16.3875 205.555 16.3875C205.105 16.3875 204.737 16.4475 204.452 16.5675C204.167 16.6725 203.957 16.83 203.822 17.04C203.687 17.235 203.62 17.4825 203.62 17.7825ZM202.495 13.575L201.415 11.595C201.955 11.31 202.615 11.04 203.395 10.785C204.175 10.515 205.045 10.38 206.005 10.38C206.89 10.38 207.677 10.5075 208.367 10.7625C209.057 11.0175 209.597 11.3925 209.987 11.8875C210.377 12.3675 210.572 12.96 210.572 13.665V21H207.76V14.2725C207.76 13.9875 207.715 13.7475 207.625 13.5525C207.535 13.3425 207.392 13.17 207.197 13.035C207.017 12.9 206.8 12.8025 206.545 12.7425C206.29 12.6825 206.005 12.6525 205.69 12.6525C205.21 12.6525 204.752 12.705 204.317 12.81C203.882 12.915 203.507 13.0425 203.192 13.1925C202.877 13.3425 202.645 13.47 202.495 13.575ZM234.744 15.0375L238.119 5.25H241.899L235.261 21.8775L230.311 11.5275L225.339 21.8775L218.724 5.25H222.504L225.924 15.0375L230.311 4.4625L234.744 15.0375ZM243.317 6.645C243.317 6.165 243.489 5.775 243.834 5.475C244.179 5.16 244.592 5.0025 245.072 5.0025C245.552 5.0025 245.957 5.16 246.287 5.475C246.632 5.775 246.804 6.165 246.804 6.645C246.804 7.11 246.632 7.5 246.287 7.815C245.957 8.13 245.552 8.2875 245.072 8.2875C244.592 8.2875 244.179 8.13 243.834 7.815C243.489 7.5 243.317 7.11 243.317 6.645ZM243.632 10.65H246.467V21H243.632V10.65ZM250.078 17.4225C250.513 17.8275 250.918 18.1575 251.293 18.4125C251.668 18.6525 252.02 18.8325 252.35 18.9525C252.695 19.0725 253.018 19.1325 253.318 19.1325C253.708 19.1325 254.008 19.05 254.218 18.885C254.428 18.705 254.533 18.465 254.533 18.165C254.533 17.895 254.443 17.67 254.263 17.49C254.098 17.295 253.85 17.1225 253.52 16.9725C253.19 16.8225 252.77 16.665 252.26 16.5C251.78 16.32 251.315 16.11 250.865 15.87C250.415 15.615 250.04 15.285 249.74 14.88C249.455 14.46 249.313 13.9275 249.313 13.2825C249.313 12.6675 249.478 12.15 249.808 11.73C250.138 11.295 250.58 10.9725 251.135 10.7625C251.705 10.5375 252.335 10.425 253.025 10.425C253.61 10.425 254.158 10.5 254.668 10.65C255.178 10.8 255.65 11.0025 256.085 11.2575C256.52 11.4975 256.903 11.7825 257.233 12.1125L255.95 13.9125C255.575 13.5075 255.125 13.1775 254.6 12.9225C254.09 12.6675 253.588 12.54 253.093 12.54C252.763 12.54 252.5 12.6075 252.305 12.7425C252.125 12.8625 252.035 13.05 252.035 13.305C252.035 13.53 252.125 13.7325 252.305 13.9125C252.5 14.0775 252.77 14.2275 253.115 14.3625C253.475 14.4975 253.88 14.6625 254.33 14.8575C254.885 15.0675 255.395 15.3075 255.86 15.5775C256.34 15.8325 256.723 16.155 257.008 16.545C257.293 16.935 257.435 17.445 257.435 18.075C257.435 19.11 257.098 19.92 256.423 20.505C255.748 21.075 254.818 21.36 253.633 21.36C252.898 21.36 252.223 21.2625 251.608 21.0675C251.008 20.8725 250.46 20.6175 249.965 20.3025C249.485 19.9725 249.05 19.62 248.66 19.245L250.078 17.4225ZM262.373 3.45V21H259.448V3.45H262.373ZM266.13 14.7C266.13 14.01 265.995 13.485 265.725 13.125C265.47 12.765 265.035 12.585 264.42 12.585C264.015 12.585 263.655 12.675 263.34 12.855C263.025 13.02 262.785 13.26 262.62 13.575C262.455 13.89 262.373 14.265 262.373 14.7H261.788C261.788 13.875 261.923 13.1325 262.193 12.4725C262.478 11.8125 262.898 11.2875 263.453 10.8975C264.008 10.5075 264.69 10.3125 265.5 10.3125C266.31 10.3125 266.978 10.4625 267.503 10.7625C268.028 11.0625 268.418 11.5125 268.673 12.1125C268.928 12.6975 269.055 13.4175 269.055 14.2725V21H266.13V14.7Z" fill="#FFF3C2"/>
<path d="M115.676 51.185C116.022 51.7898 116.382 52.3226 116.756 52.7834C117.145 53.2442 117.577 53.6042 118.052 53.8634C118.528 54.1226 119.068 54.2522 119.672 54.2522C120.479 54.2522 121.127 54.029 121.616 53.5826C122.106 53.1362 122.351 52.5674 122.351 51.8762C122.351 51.1994 122.192 50.6594 121.876 50.2562C121.559 49.853 121.141 49.529 120.623 49.2842C120.119 49.025 119.579 48.7946 119.003 48.593C118.628 48.4634 118.211 48.2978 117.75 48.0962C117.289 47.8802 116.85 47.6138 116.432 47.297C116.015 46.9658 115.669 46.5626 115.396 46.0874C115.136 45.6122 115.007 45.029 115.007 44.3378C115.007 43.589 115.194 42.9194 115.568 42.329C115.943 41.7386 116.461 41.2778 117.124 40.9466C117.786 40.601 118.542 40.4282 119.392 40.4282C120.212 40.4282 120.925 40.5866 121.53 40.9034C122.149 41.2058 122.675 41.6018 123.107 42.0914C123.539 42.5666 123.877 43.0706 124.122 43.6034L122.545 44.5106C122.358 44.1362 122.12 43.769 121.832 43.409C121.544 43.049 121.192 42.7538 120.774 42.5234C120.371 42.293 119.874 42.1778 119.284 42.1778C118.463 42.1778 117.865 42.3794 117.491 42.7826C117.116 43.1714 116.929 43.6106 116.929 44.1002C116.929 44.5178 117.037 44.9066 117.253 45.2666C117.469 45.6122 117.829 45.9434 118.333 46.2602C118.852 46.5626 119.55 46.865 120.428 47.1674C120.832 47.3114 121.256 47.4986 121.703 47.729C122.149 47.9594 122.56 48.2546 122.934 48.6146C123.323 48.9602 123.64 49.385 123.884 49.889C124.129 50.3786 124.252 50.969 124.252 51.6602C124.252 52.3226 124.122 52.9202 123.863 53.453C123.618 53.9858 123.272 54.4394 122.826 54.8138C122.394 55.1882 121.897 55.4762 121.336 55.6778C120.788 55.8794 120.212 55.9802 119.608 55.9802C118.787 55.9802 118.024 55.8074 117.318 55.4618C116.627 55.1018 116.015 54.6338 115.482 54.0578C114.964 53.4674 114.539 52.841 114.208 52.1786L115.676 51.185ZM128.568 38.9162V55.7642H126.84V38.9162H128.568ZM133.212 49.7162C133.212 48.8954 133.032 48.2762 132.672 47.8586C132.327 47.441 131.801 47.2322 131.096 47.2322C130.592 47.2322 130.145 47.3402 129.756 47.5562C129.382 47.7722 129.087 48.0674 128.871 48.4418C128.669 48.8162 128.568 49.241 128.568 49.7162H128.007C128.007 48.9242 128.158 48.2258 128.46 47.621C128.763 47.0018 129.173 46.5122 129.692 46.1522C130.224 45.7922 130.836 45.6122 131.528 45.6122C132.219 45.6122 132.816 45.7562 133.32 46.0442C133.839 46.3322 134.235 46.7642 134.508 47.3402C134.796 47.9162 134.94 48.6362 134.94 49.5002V55.7642H133.212V49.7162ZM138.966 52.697C138.966 53.0714 139.053 53.3954 139.226 53.669C139.413 53.9426 139.665 54.1514 139.982 54.2954C140.313 54.425 140.687 54.4898 141.105 54.4898C141.638 54.4898 142.113 54.3818 142.53 54.1658C142.962 53.9498 143.301 53.6474 143.546 53.2586C143.805 52.8554 143.934 52.3946 143.934 51.8762L144.28 53.1722C144.28 53.8058 144.086 54.3314 143.697 54.749C143.322 55.1666 142.854 55.4762 142.293 55.6778C141.746 55.8794 141.198 55.9802 140.651 55.9802C140.046 55.9802 139.478 55.8578 138.945 55.613C138.426 55.3538 138.009 54.9866 137.692 54.5114C137.375 54.0362 137.217 53.4602 137.217 52.7834C137.217 51.8186 137.555 51.0482 138.232 50.4722C138.923 49.8818 139.881 49.5866 141.105 49.5866C141.825 49.5866 142.422 49.673 142.898 49.8458C143.387 50.0042 143.776 50.1914 144.064 50.4074C144.352 50.609 144.546 50.7746 144.647 50.9042V51.9194C144.143 51.5738 143.625 51.329 143.092 51.185C142.559 51.0266 141.99 50.9474 141.386 50.9474C140.824 50.9474 140.363 51.0194 140.003 51.1634C139.658 51.3074 139.398 51.509 139.226 51.7682C139.053 52.0274 138.966 52.337 138.966 52.697ZM138.707 48.1178L137.865 46.8434C138.239 46.5698 138.75 46.2962 139.398 46.0226C140.061 45.749 140.853 45.6122 141.774 45.6122C142.552 45.6122 143.229 45.7346 143.805 45.9794C144.395 46.2098 144.849 46.5482 145.166 46.9946C145.497 47.441 145.662 47.9882 145.662 48.6362V55.7642H143.934V48.8738C143.934 48.5282 143.877 48.2474 143.762 48.0314C143.646 47.801 143.481 47.621 143.265 47.4914C143.063 47.3618 142.826 47.2682 142.552 47.2106C142.278 47.153 141.99 47.1242 141.688 47.1242C141.198 47.1242 140.752 47.1818 140.349 47.297C139.96 47.4122 139.629 47.549 139.355 47.7074C139.082 47.8658 138.866 48.0026 138.707 48.1178ZM150.316 45.8282V55.7642H148.588V45.8282H150.316ZM153.318 47.729C153.088 47.5562 152.879 47.4338 152.692 47.3618C152.505 47.2754 152.267 47.2322 151.979 47.2322C151.547 47.2322 151.209 47.3402 150.964 47.5562C150.719 47.7722 150.546 48.0674 150.446 48.4418C150.359 48.8162 150.316 49.241 150.316 49.7162H149.538C149.538 48.9242 149.675 48.2258 149.949 47.621C150.237 47.0018 150.604 46.5122 151.05 46.1522C151.497 45.7922 151.95 45.6122 152.411 45.6122C152.771 45.6122 153.102 45.6626 153.405 45.7634C153.722 45.8498 154.01 46.0298 154.269 46.3034L153.318 47.729ZM159.52 55.9802C158.599 55.9802 157.778 55.7642 157.058 55.3322C156.352 54.8858 155.798 54.2738 155.395 53.4962C155.006 52.7186 154.811 51.8186 154.811 50.7962C154.811 49.7594 155.013 48.8522 155.416 48.0746C155.834 47.297 156.41 46.6922 157.144 46.2602C157.893 45.8282 158.757 45.6122 159.736 45.6122C160.715 45.6122 161.551 45.821 162.242 46.2386C162.947 46.6418 163.487 47.225 163.862 47.9882C164.236 48.7514 164.423 49.6586 164.423 50.7098C164.423 50.8106 164.416 50.9186 164.402 51.0338C164.402 51.1346 164.402 51.1994 164.402 51.2282H155.913V49.7594H163.041L162.35 50.753C162.393 50.681 162.436 50.573 162.479 50.429C162.523 50.2706 162.544 50.141 162.544 50.0402C162.544 49.4498 162.422 48.9386 162.177 48.5066C161.947 48.0746 161.623 47.7362 161.205 47.4914C160.787 47.2466 160.298 47.1242 159.736 47.1242C159.074 47.1242 158.505 47.2682 158.03 47.5562C157.569 47.8298 157.209 48.233 156.95 48.7658C156.705 49.2842 156.575 49.925 156.561 50.6882C156.561 51.4658 156.683 52.1282 156.928 52.6754C157.173 53.2226 157.533 53.6402 158.008 53.9282C158.483 54.2162 159.059 54.3602 159.736 54.3602C160.413 54.3602 161.011 54.2162 161.529 53.9282C162.047 53.6258 162.487 53.1722 162.847 52.5674L164.251 53.453C163.732 54.2882 163.077 54.9218 162.285 55.3538C161.507 55.7714 160.586 55.9802 159.52 55.9802ZM174.996 38.9162V55.7642H173.268V38.9162H174.996ZM179.64 49.7162C179.64 48.8954 179.46 48.2762 179.1 47.8586C178.754 47.441 178.228 47.2322 177.523 47.2322C177.019 47.2322 176.572 47.3402 176.184 47.5562C175.809 47.7722 175.514 48.0674 175.298 48.4418C175.096 48.8162 174.996 49.241 174.996 49.7162H174.434C174.434 48.9242 174.585 48.2258 174.888 47.621C175.19 47.0018 175.6 46.5122 176.119 46.1522C176.652 45.7922 177.264 45.6122 177.955 45.6122C178.646 45.6122 179.244 45.7562 179.748 46.0442C180.266 46.3322 180.662 46.7642 180.936 47.3402C181.224 47.9162 181.368 48.6362 181.368 49.5002V55.7642H179.64V49.7162ZM183.752 50.7962C183.752 49.7882 183.975 48.8954 184.422 48.1178C184.882 47.3402 185.502 46.7282 186.279 46.2818C187.057 45.8354 187.928 45.6122 188.893 45.6122C189.872 45.6122 190.743 45.8354 191.506 46.2818C192.284 46.7282 192.896 47.3402 193.342 48.1178C193.803 48.8954 194.034 49.7882 194.034 50.7962C194.034 51.7898 193.803 52.6826 193.342 53.4746C192.896 54.2522 192.284 54.8642 191.506 55.3106C190.743 55.757 189.872 55.9802 188.893 55.9802C187.928 55.9802 187.057 55.757 186.279 55.3106C185.502 54.8642 184.882 54.2522 184.422 53.4746C183.975 52.6826 183.752 51.7898 183.752 50.7962ZM185.502 50.7962C185.502 51.4874 185.646 52.0994 185.934 52.6322C186.236 53.165 186.639 53.5898 187.143 53.9066C187.662 54.209 188.245 54.3602 188.893 54.3602C189.541 54.3602 190.117 54.209 190.621 53.9066C191.139 53.5898 191.542 53.165 191.83 52.6322C192.133 52.0994 192.284 51.4874 192.284 50.7962C192.284 50.105 192.133 49.493 191.83 48.9602C191.542 48.413 191.139 47.9882 190.621 47.6858C190.117 47.3834 189.541 47.2322 188.893 47.2322C188.245 47.2322 187.662 47.3834 187.143 47.6858C186.639 47.9882 186.236 48.413 185.934 48.9602C185.646 49.493 185.502 50.105 185.502 50.7962ZM194.579 45.8282H196.523L199.007 52.2866L201.707 45.0722L204.601 52.3298L207.107 45.8282H209.051L204.731 56.5202L201.729 49.2842L198.899 56.5202L194.579 45.8282ZM218.803 51.2282L219.451 49.5002H226.147L226.795 51.2282H218.803ZM222.756 44.057L220.207 50.0618L220.035 50.4506L217.788 55.7642H215.736L222.756 39.8882L229.776 55.7642H227.724L225.521 50.5802L225.348 50.1482L222.756 44.057ZM232.631 55.7642V54.0362H240.255V55.7642H232.631ZM232.631 42.3722V40.6442H240.255V42.3722H232.631ZM232.631 48.4202V46.6922H239.823V48.4202H232.631ZM231.615 40.6442H233.451V55.7642H231.615V40.6442ZM243.491 40.6442H245.327V55.7642H243.491V40.6442ZM248.027 55.7642H244.506V53.9282H248.027C248.877 53.9282 249.654 53.7986 250.36 53.5394C251.066 53.2658 251.67 52.8842 252.174 52.3946C252.678 51.8906 253.067 51.2858 253.341 50.5802C253.614 49.8746 253.751 49.0826 253.751 48.2042C253.751 47.3258 253.614 46.5338 253.341 45.8282C253.067 45.1226 252.678 44.525 252.174 44.0354C251.67 43.5314 251.066 43.1498 250.36 42.8906C249.654 42.617 248.877 42.4802 248.027 42.4802H244.506V40.6442H248.027C249.496 40.6442 250.799 40.961 251.937 41.5946C253.074 42.2282 253.967 43.1138 254.615 44.2514C255.263 45.3746 255.587 46.6922 255.587 48.2042C255.587 49.7162 255.263 51.041 254.615 52.1786C253.967 53.3018 253.074 54.1802 251.937 54.8138C250.799 55.4474 249.496 55.7642 248.027 55.7642ZM263.352 55.7642L270.502 48.1394C270.833 47.7794 271.114 47.4266 271.344 47.081C271.589 46.721 271.769 46.361 271.884 46.001C272.014 45.6266 272.079 45.2378 272.079 44.8346C272.079 44.5034 272.014 44.1794 271.884 43.8626C271.755 43.5458 271.56 43.2578 271.301 42.9986C271.056 42.7394 270.754 42.5306 270.394 42.3722C270.034 42.2138 269.624 42.1346 269.163 42.1346C268.515 42.1346 267.953 42.2858 267.478 42.5882C267.017 42.8762 266.664 43.301 266.42 43.8626C266.175 44.4098 266.052 45.065 266.052 45.8282H264.216C264.216 44.7482 264.411 43.805 264.8 42.9986C265.188 42.1778 265.75 41.5442 266.484 41.0978C267.233 40.637 268.126 40.4066 269.163 40.4066C269.998 40.4066 270.718 40.5506 271.323 40.8386C271.928 41.1122 272.424 41.4722 272.813 41.9186C273.202 42.3506 273.49 42.8186 273.677 43.3226C273.864 43.8266 273.958 44.309 273.958 44.7698C273.958 45.5474 273.771 46.3178 273.396 47.081C273.022 47.8442 272.54 48.5282 271.949 49.133L267.132 54.0362H274.023V55.7642H263.352ZM286.536 50.7962C286.536 51.6602 286.4 52.4162 286.126 53.0642C285.852 53.7122 285.471 54.2522 284.981 54.6842C284.492 55.1162 283.93 55.4402 283.296 55.6562C282.663 55.8722 281.979 55.9802 281.244 55.9802C280.323 55.9802 279.516 55.8362 278.825 55.5482C278.148 55.2602 277.565 54.8786 277.076 54.4034C276.6 53.9138 276.197 53.381 275.866 52.805L277.421 51.7466C277.652 52.1786 277.954 52.589 278.328 52.9778C278.717 53.3522 279.164 53.6618 279.668 53.9066C280.172 54.137 280.697 54.2522 281.244 54.2522C281.964 54.2522 282.576 54.1082 283.08 53.8202C283.584 53.5322 283.966 53.129 284.225 52.6106C284.499 52.0922 284.636 51.4874 284.636 50.7962C284.636 50.105 284.484 49.5002 284.182 48.9818C283.894 48.4634 283.491 48.0602 282.972 47.7722C282.468 47.4842 281.892 47.3402 281.244 47.3402C280.769 47.3402 280.33 47.3834 279.927 47.4698C279.538 47.5418 279.142 47.6786 278.739 47.8802C278.35 48.0674 277.896 48.341 277.378 48.701L279.365 40.6442H286.493V42.2642H280.791L279.776 46.2602C280.136 46.073 280.503 45.9362 280.877 45.8498C281.266 45.749 281.648 45.6986 282.022 45.6986C282.886 45.6986 283.656 45.9146 284.333 46.3466C285.024 46.7786 285.564 47.3762 285.953 48.1394C286.342 48.9026 286.536 49.7882 286.536 50.7962ZM290.607 53.3882L292.335 54.0362L289.959 59.4362L288.706 58.9826L290.607 53.3882ZM296.755 48.2042C296.755 49.0826 296.841 49.8962 297.014 50.645C297.187 51.3794 297.439 52.0202 297.77 52.5674C298.101 53.1002 298.497 53.5178 298.958 53.8202C299.433 54.1082 299.959 54.2522 300.535 54.2522C301.125 54.2522 301.651 54.1082 302.111 53.8202C302.572 53.5178 302.968 53.1002 303.299 52.5674C303.631 52.0202 303.883 51.3794 304.055 50.645C304.228 49.8962 304.315 49.0826 304.315 48.2042C304.315 47.3258 304.228 46.5194 304.055 45.785C303.883 45.0362 303.631 44.3954 303.299 43.8626C302.968 43.3154 302.572 42.8978 302.111 42.6098C301.651 42.3074 301.125 42.1562 300.535 42.1562C299.959 42.1562 299.433 42.3074 298.958 42.6098C298.497 42.8978 298.101 43.3154 297.77 43.8626C297.439 44.3954 297.187 45.0362 297.014 45.785C296.841 46.5194 296.755 47.3258 296.755 48.2042ZM294.919 48.2042C294.919 46.6922 295.156 45.353 295.631 44.1866C296.107 43.0202 296.762 42.1058 297.597 41.4434C298.447 40.7666 299.426 40.4282 300.535 40.4282C301.643 40.4282 302.615 40.7666 303.451 41.4434C304.3 42.1058 304.963 43.0202 305.438 44.1866C305.913 45.353 306.151 46.6922 306.151 48.2042C306.151 49.7162 305.913 51.0554 305.438 52.2218C304.963 53.3882 304.3 54.3098 303.451 54.9866C302.615 55.649 301.643 55.9802 300.535 55.9802C299.426 55.9802 298.447 55.649 297.597 54.9866C296.762 54.3098 296.107 53.3882 295.631 52.2218C295.156 51.0554 294.919 49.7162 294.919 48.2042ZM309.706 48.2042C309.706 49.0826 309.793 49.8962 309.965 50.645C310.138 51.3794 310.39 52.0202 310.721 52.5674C311.053 53.1002 311.449 53.5178 311.909 53.8202C312.385 54.1082 312.91 54.2522 313.486 54.2522C314.077 54.2522 314.602 54.1082 315.063 53.8202C315.524 53.5178 315.92 53.1002 316.251 52.5674C316.582 52.0202 316.834 51.3794 317.007 50.645C317.18 49.8962 317.266 49.0826 317.266 48.2042C317.266 47.3258 317.18 46.5194 317.007 45.785C316.834 45.0362 316.582 44.3954 316.251 43.8626C315.92 43.3154 315.524 42.8978 315.063 42.6098C314.602 42.3074 314.077 42.1562 313.486 42.1562C312.91 42.1562 312.385 42.3074 311.909 42.6098C311.449 42.8978 311.053 43.3154 310.721 43.8626C310.39 44.3954 310.138 45.0362 309.965 45.785C309.793 46.5194 309.706 47.3258 309.706 48.2042ZM307.87 48.2042C307.87 46.6922 308.108 45.353 308.583 44.1866C309.058 43.0202 309.713 42.1058 310.549 41.4434C311.398 40.7666 312.377 40.4282 313.486 40.4282C314.595 40.4282 315.567 40.7666 316.402 41.4434C317.252 42.1058 317.914 43.0202 318.389 44.1866C318.865 45.353 319.102 46.6922 319.102 48.2042C319.102 49.7162 318.865 51.0554 318.389 52.2218C317.914 53.3882 317.252 54.3098 316.402 54.9866C315.567 55.649 314.595 55.9802 313.486 55.9802C312.377 55.9802 311.398 55.649 310.549 54.9866C309.713 54.3098 309.058 53.3882 308.583 52.2218C308.108 51.0554 307.87 49.7162 307.87 48.2042ZM322.658 48.2042C322.658 49.0826 322.744 49.8962 322.917 50.645C323.09 51.3794 323.342 52.0202 323.673 52.5674C324.004 53.1002 324.4 53.5178 324.861 53.8202C325.336 54.1082 325.862 54.2522 326.438 54.2522C327.028 54.2522 327.554 54.1082 328.015 53.8202C328.475 53.5178 328.871 53.1002 329.203 52.5674C329.534 52.0202 329.786 51.3794 329.959 50.645C330.131 49.8962 330.218 49.0826 330.218 48.2042C330.218 47.3258 330.131 46.5194 329.959 45.785C329.786 45.0362 329.534 44.3954 329.203 43.8626C328.871 43.3154 328.475 42.8978 328.015 42.6098C327.554 42.3074 327.028 42.1562 326.438 42.1562C325.862 42.1562 325.336 42.3074 324.861 42.6098C324.4 42.8978 324.004 43.3154 323.673 43.8626C323.342 44.3954 323.09 45.0362 322.917 45.785C322.744 46.5194 322.658 47.3258 322.658 48.2042ZM320.822 48.2042C320.822 46.6922 321.059 45.353 321.535 44.1866C322.01 43.0202 322.665 42.1058 323.5 41.4434C324.35 40.7666 325.329 40.4282 326.438 40.4282C327.547 40.4282 328.519 40.7666 329.354 41.4434C330.203 42.1058 330.866 43.0202 331.341 44.1866C331.816 45.353 332.054 46.6922 332.054 48.2042C332.054 49.7162 331.816 51.0554 331.341 52.2218C330.866 53.3882 330.203 54.3098 329.354 54.9866C328.519 55.649 327.547 55.9802 326.438 55.9802C325.329 55.9802 324.35 55.649 323.5 54.9866C322.665 54.3098 322.01 53.3882 321.535 52.2218C321.059 51.0554 320.822 49.7162 320.822 48.2042ZM341.783 50.7962C341.783 51.4874 341.927 52.0994 342.215 52.6322C342.517 53.165 342.92 53.5898 343.424 53.9066C343.943 54.209 344.526 54.3602 345.174 54.3602C345.707 54.3602 346.204 54.281 346.664 54.1226C347.14 53.9498 347.55 53.7266 347.896 53.453C348.241 53.165 348.486 52.8626 348.63 52.5458V54.7058C348.284 55.109 347.788 55.4258 347.14 55.6562C346.506 55.8722 345.851 55.9802 345.174 55.9802C344.209 55.9802 343.338 55.757 342.56 55.3106C341.783 54.8642 341.164 54.2522 340.703 53.4746C340.256 52.6826 340.033 51.7898 340.033 50.7962C340.033 49.7882 340.256 48.8954 340.703 48.1178C341.164 47.3402 341.783 46.7282 342.56 46.2818C343.338 45.8354 344.209 45.6122 345.174 45.6122C345.851 45.6122 346.506 45.7274 347.14 45.9578C347.788 46.1738 348.284 46.4834 348.63 46.8866V49.0466C348.486 48.7154 348.241 48.413 347.896 48.1394C347.55 47.8658 347.14 47.6498 346.664 47.4914C346.204 47.3186 345.707 47.2322 345.174 47.2322C344.526 47.2322 343.943 47.3834 343.424 47.6858C342.92 47.9882 342.517 48.413 342.215 48.9602C341.927 49.493 341.783 50.105 341.783 50.7962ZM352.098 52.697C352.098 53.0714 352.184 53.3954 352.357 53.669C352.544 53.9426 352.796 54.1514 353.113 54.2954C353.444 54.425 353.818 54.4898 354.236 54.4898C354.769 54.4898 355.244 54.3818 355.662 54.1658C356.094 53.9498 356.432 53.6474 356.677 53.2586C356.936 52.8554 357.066 52.3946 357.066 51.8762L357.411 53.1722C357.411 53.8058 357.217 54.3314 356.828 54.749C356.454 55.1666 355.986 55.4762 355.424 55.6778C354.877 55.8794 354.33 55.9802 353.782 55.9802C353.178 55.9802 352.609 55.8578 352.076 55.613C351.558 55.3538 351.14 54.9866 350.823 54.5114C350.506 54.0362 350.348 53.4602 350.348 52.7834C350.348 51.8186 350.686 51.0482 351.363 50.4722C352.054 49.8818 353.012 49.5866 354.236 49.5866C354.956 49.5866 355.554 49.673 356.029 49.8458C356.518 50.0042 356.907 50.1914 357.195 50.4074C357.483 50.609 357.678 50.7746 357.778 50.9042V51.9194C357.274 51.5738 356.756 51.329 356.223 51.185C355.69 51.0266 355.122 50.9474 354.517 50.9474C353.955 50.9474 353.494 51.0194 353.134 51.1634C352.789 51.3074 352.53 51.509 352.357 51.7682C352.184 52.0274 352.098 52.337 352.098 52.697ZM351.838 48.1178L350.996 46.8434C351.37 46.5698 351.882 46.2962 352.53 46.0226C353.192 45.749 353.984 45.6122 354.906 45.6122C355.683 45.6122 356.36 45.7346 356.936 45.9794C357.526 46.2098 357.98 46.5482 358.297 46.9946C358.628 47.441 358.794 47.9882 358.794 48.6362V55.7642H357.066V48.8738C357.066 48.5282 357.008 48.2474 356.893 48.0314C356.778 47.801 356.612 47.621 356.396 47.4914C356.194 47.3618 355.957 47.2682 355.683 47.2106C355.41 47.153 355.122 47.1242 354.819 47.1242C354.33 47.1242 353.883 47.1818 353.48 47.297C353.091 47.4122 352.76 47.549 352.486 47.7074C352.213 47.8658 351.997 48.0026 351.838 48.1178ZM368.091 49.7162C368.091 48.8954 367.911 48.2762 367.551 47.8586C367.191 47.441 366.666 47.2322 365.974 47.2322C365.47 47.2322 365.024 47.3402 364.635 47.5562C364.261 47.7578 363.966 48.0458 363.75 48.4202C363.548 48.7946 363.447 49.2266 363.447 49.7162V55.7642H361.719V45.8282H363.447V47.3834C363.778 46.7786 364.189 46.3322 364.678 46.0442C365.182 45.7562 365.758 45.6122 366.406 45.6122C367.458 45.6122 368.286 45.965 368.89 46.6706C369.51 47.3618 369.819 48.305 369.819 49.5002V55.7642H368.091V49.7162ZM113.495 70.8282H118.463V72.4482H113.495V70.8282ZM115.115 67.3722H116.843V80.7642H115.115V67.3722ZM121.924 76.8762C121.924 77.6682 122.104 78.2802 122.464 78.7122C122.824 79.1442 123.349 79.3602 124.041 79.3602C124.545 79.3602 124.984 79.2594 125.358 79.0578C125.747 78.8418 126.042 78.5466 126.244 78.1722C126.46 77.7978 126.568 77.3658 126.568 76.8762V70.8282H128.296V80.7642H126.568V79.209C126.237 79.7994 125.826 80.2458 125.337 80.5482C124.847 80.8362 124.271 80.9802 123.609 80.9802C122.572 80.9802 121.744 80.6274 121.125 79.9218C120.505 79.2162 120.196 78.273 120.196 77.0922V70.8282H121.924V76.8762ZM133.272 70.8282V80.7642H131.544V70.8282H133.272ZM136.275 72.729C136.044 72.5562 135.835 72.4338 135.648 72.3618C135.461 72.2754 135.223 72.2322 134.935 72.2322C134.503 72.2322 134.165 72.3402 133.92 72.5562C133.675 72.7722 133.503 73.0674 133.402 73.4418C133.315 73.8162 133.272 74.241 133.272 74.7162H132.495C132.495 73.9242 132.631 73.2258 132.905 72.621C133.193 72.0018 133.56 71.5122 134.007 71.1522C134.453 70.7922 134.907 70.6122 135.367 70.6122C135.727 70.6122 136.059 70.6626 136.361 70.7634C136.678 70.8498 136.966 71.0298 137.225 71.3034L136.275 72.729ZM145.32 74.7162C145.32 73.8954 145.14 73.2762 144.78 72.8586C144.42 72.441 143.895 72.2322 143.203 72.2322C142.699 72.2322 142.253 72.3402 141.864 72.5562C141.49 72.7578 141.195 73.0458 140.979 73.4202C140.777 73.7946 140.676 74.2266 140.676 74.7162V80.7642H138.948V70.8282H140.676V72.3834C141.007 71.7786 141.418 71.3322 141.907 71.0442C142.411 70.7562 142.987 70.6122 143.635 70.6122C144.687 70.6122 145.515 70.965 146.119 71.6706C146.739 72.3618 147.048 73.305 147.048 74.5002V80.7642H145.32V74.7162ZM164.656 70.8282L158.176 85.5162H156.232L158.954 79.3602L155.152 70.8282H157.204L160.358 78.6042L159.645 78.5178L162.712 70.8282H164.656ZM165.105 75.7962C165.105 74.7882 165.328 73.8954 165.775 73.1178C166.236 72.3402 166.855 71.7282 167.632 71.2818C168.41 70.8354 169.281 70.6122 170.246 70.6122C171.225 70.6122 172.096 70.8354 172.86 71.2818C173.637 71.7282 174.249 72.3402 174.696 73.1178C175.156 73.8954 175.387 74.7882 175.387 75.7962C175.387 76.7898 175.156 77.6826 174.696 78.4746C174.249 79.2522 173.637 79.8642 172.86 80.3106C172.096 80.757 171.225 80.9802 170.246 80.9802C169.281 80.9802 168.41 80.757 167.632 80.3106C166.855 79.8642 166.236 79.2522 165.775 78.4746C165.328 77.6826 165.105 76.7898 165.105 75.7962ZM166.855 75.7962C166.855 76.4874 166.999 77.0994 167.287 77.6322C167.589 78.165 167.992 78.5898 168.496 78.9066C169.015 79.209 169.598 79.3602 170.246 79.3602C170.894 79.3602 171.47 79.209 171.974 78.9066C172.492 78.5898 172.896 78.165 173.184 77.6322C173.486 77.0994 173.637 76.4874 173.637 75.7962C173.637 75.105 173.486 74.493 173.184 73.9602C172.896 73.413 172.492 72.9882 171.974 72.6858C171.47 72.3834 170.894 72.2322 170.246 72.2322C169.598 72.2322 169.015 72.3834 168.496 72.6858C167.992 72.9882 167.589 73.413 167.287 73.9602C166.999 74.493 166.855 75.105 166.855 75.7962ZM179.489 76.8762C179.489 77.6682 179.669 78.2802 180.029 78.7122C180.389 79.1442 180.914 79.3602 181.605 79.3602C182.109 79.3602 182.549 79.2594 182.923 79.0578C183.312 78.8418 183.607 78.5466 183.809 78.1722C184.025 77.7978 184.133 77.3658 184.133 76.8762V70.8282H185.861V80.7642H184.133V79.209C183.801 79.7994 183.391 80.2458 182.901 80.5482C182.412 80.8362 181.836 80.9802 181.173 80.9802C180.137 80.9802 179.309 80.6274 178.689 79.9218C178.07 79.2162 177.761 78.273 177.761 77.0922V70.8282H179.489V76.8762ZM190.837 70.8282V80.7642H189.109V70.8282H190.837ZM193.839 72.729C193.609 72.5562 193.4 72.4338 193.213 72.3618C193.026 72.2754 192.788 72.2322 192.5 72.2322C192.068 72.2322 191.73 72.3402 191.485 72.5562C191.24 72.7722 191.067 73.0674 190.967 73.4418C190.88 73.8162 190.837 74.241 190.837 74.7162H190.059C190.059 73.9242 190.196 73.2258 190.47 72.621C190.758 72.0018 191.125 71.5122 191.571 71.1522C192.018 70.7922 192.471 70.6122 192.932 70.6122C193.292 70.6122 193.623 70.6626 193.926 70.7634C194.243 70.8498 194.531 71.0298 194.79 71.3034L193.839 72.729ZM210.441 63.9162H212.169V80.7642H210.441V63.9162ZM202.125 75.7962C202.125 74.7162 202.348 73.7946 202.794 73.0314C203.241 72.2538 203.838 71.6562 204.587 71.2386C205.336 70.821 206.157 70.6122 207.05 70.6122C207.885 70.6122 208.612 70.821 209.231 71.2386C209.85 71.6562 210.333 72.2538 210.678 73.0314C211.038 73.7946 211.218 74.7162 211.218 75.7962C211.218 76.8618 211.038 77.7834 210.678 78.561C210.333 79.3386 209.85 79.9362 209.231 80.3538C208.612 80.7714 207.885 80.9802 207.05 80.9802C206.157 80.9802 205.336 80.7714 204.587 80.3538C203.838 79.9362 203.241 79.3386 202.794 78.561C202.348 77.7834 202.125 76.8618 202.125 75.7962ZM203.874 75.7962C203.874 76.5594 204.026 77.2074 204.328 77.7402C204.645 78.273 205.062 78.6762 205.581 78.9498C206.099 79.2234 206.661 79.3602 207.266 79.3602C207.77 79.3602 208.266 79.2234 208.756 78.9498C209.246 78.6762 209.649 78.273 209.966 77.7402C210.282 77.2074 210.441 76.5594 210.441 75.7962C210.441 75.033 210.282 74.385 209.966 73.8522C209.649 73.3194 209.246 72.9162 208.756 72.6426C208.266 72.369 207.77 72.2322 207.266 72.2322C206.661 72.2322 206.099 72.369 205.581 72.6426C205.062 72.9162 204.645 73.3194 204.328 73.8522C204.026 74.385 203.874 75.033 203.874 75.7962ZM217.035 70.8282V80.7642H215.307V70.8282H217.035ZM220.038 72.729C219.807 72.5562 219.599 72.4338 219.411 72.3618C219.224 72.2754 218.987 72.2322 218.699 72.2322C218.267 72.2322 217.928 72.3402 217.683 72.5562C217.439 72.7722 217.266 73.0674 217.165 73.4418C217.079 73.8162 217.035 74.241 217.035 74.7162H216.258C216.258 73.9242 216.395 73.2258 216.668 72.621C216.956 72.0018 217.323 71.5122 217.77 71.1522C218.216 70.7922 218.67 70.6122 219.131 70.6122C219.491 70.6122 219.822 70.6626 220.124 70.7634C220.441 70.8498 220.729 71.0298 220.988 71.3034L220.038 72.729ZM226.24 80.9802C225.318 80.9802 224.497 80.7642 223.777 80.3322C223.072 79.8858 222.517 79.2738 222.114 78.4962C221.725 77.7186 221.531 76.8186 221.531 75.7962C221.531 74.7594 221.733 73.8522 222.136 73.0746C222.553 72.297 223.129 71.6922 223.864 71.2602C224.613 70.8282 225.477 70.6122 226.456 70.6122C227.435 70.6122 228.27 70.821 228.961 71.2386C229.667 71.6418 230.207 72.225 230.581 72.9882C230.956 73.7514 231.143 74.6586 231.143 75.7098C231.143 75.8106 231.136 75.9186 231.121 76.0338C231.121 76.1346 231.121 76.1994 231.121 76.2282H222.633V74.7594H229.761L229.069 75.753C229.113 75.681 229.156 75.573 229.199 75.429C229.242 75.2706 229.264 75.141 229.264 75.0402C229.264 74.4498 229.141 73.9386 228.897 73.5066C228.666 73.0746 228.342 72.7362 227.925 72.4914C227.507 72.2466 227.017 72.1242 226.456 72.1242C225.793 72.1242 225.225 72.2682 224.749 72.5562C224.289 72.8298 223.929 73.233 223.669 73.7658C223.425 74.2842 223.295 74.925 223.281 75.6882C223.281 76.4658 223.403 77.1282 223.648 77.6754C223.893 78.2226 224.253 78.6402 224.728 78.9282C225.203 79.2162 225.779 79.3602 226.456 79.3602C227.133 79.3602 227.73 79.2162 228.249 78.9282C228.767 78.6258 229.206 78.1722 229.566 77.5674L230.97 78.453C230.452 79.2882 229.797 79.9218 229.005 80.3538C228.227 80.7714 227.305 80.9802 226.24 80.9802ZM234.289 77.697C234.289 78.0714 234.375 78.3954 234.548 78.669C234.735 78.9426 234.987 79.1514 235.304 79.2954C235.635 79.425 236.01 79.4898 236.427 79.4898C236.96 79.4898 237.435 79.3818 237.853 79.1658C238.285 78.9498 238.623 78.6474 238.868 78.2586C239.127 77.8554 239.257 77.3946 239.257 76.8762L239.603 78.1722C239.603 78.8058 239.408 79.3314 239.019 79.749C238.645 80.1666 238.177 80.4762 237.615 80.6778C237.068 80.8794 236.521 80.9802 235.974 80.9802C235.369 80.9802 234.8 80.8578 234.267 80.613C233.749 80.3538 233.331 79.9866 233.015 79.5114C232.698 79.0362 232.539 78.4602 232.539 77.7834C232.539 76.8186 232.878 76.0482 233.555 75.4722C234.246 74.8818 235.203 74.5866 236.427 74.5866C237.147 74.5866 237.745 74.673 238.22 74.8458C238.71 75.0042 239.099 75.1914 239.387 75.4074C239.675 75.609 239.869 75.7746 239.97 75.9042V76.9194C239.466 76.5738 238.947 76.329 238.415 76.185C237.882 76.0266 237.313 75.9474 236.708 75.9474C236.147 75.9474 235.686 76.0194 235.326 76.1634C234.98 76.3074 234.721 76.509 234.548 76.7682C234.375 77.0274 234.289 77.337 234.289 77.697ZM234.03 73.1178L233.187 71.8434C233.562 71.5698 234.073 71.2962 234.721 71.0226C235.383 70.749 236.175 70.6122 237.097 70.6122C237.875 70.6122 238.551 70.7346 239.127 70.9794C239.718 71.2098 240.171 71.5482 240.488 71.9946C240.819 72.441 240.985 72.9882 240.985 73.6362V80.7642H239.257V73.8738C239.257 73.5282 239.199 73.2474 239.084 73.0314C238.969 72.801 238.803 72.621 238.587 72.4914C238.386 72.3618 238.148 72.2682 237.875 72.2106C237.601 72.153 237.313 72.1242 237.011 72.1242C236.521 72.1242 236.075 72.1818 235.671 72.297C235.283 72.4122 234.951 72.549 234.678 72.7074C234.404 72.8658 234.188 73.0026 234.03 73.1178ZM257.519 74.5002V80.7642H255.791V74.7162C255.791 73.8666 255.632 73.2402 255.315 72.837C255.013 72.4338 254.538 72.2322 253.89 72.2322C253.415 72.2322 253.004 72.333 252.659 72.5346C252.313 72.7218 252.047 73.0026 251.859 73.377C251.672 73.7514 251.579 74.1978 251.579 74.7162V80.7642H249.851V74.7162C249.851 73.8666 249.692 73.2402 249.375 72.837C249.073 72.4338 248.598 72.2322 247.95 72.2322C247.475 72.2322 247.064 72.333 246.719 72.5346C246.373 72.7218 246.107 73.0026 245.919 73.377C245.732 73.7514 245.639 74.1978 245.639 74.7162V80.7642H243.911V70.8282H245.639V72.2754C245.941 71.7138 246.315 71.2962 246.762 71.0226C247.223 70.749 247.763 70.6122 248.382 70.6122C249.073 70.6122 249.663 70.7778 250.153 71.109C250.657 71.4258 251.024 71.8794 251.255 72.4698C251.6 71.8506 252.032 71.3898 252.551 71.0874C253.069 70.7706 253.659 70.6122 254.322 70.6122C254.999 70.6122 255.575 70.7634 256.05 71.0658C256.525 71.3682 256.885 71.8146 257.13 72.405C257.389 72.981 257.519 73.6794 257.519 74.5002ZM267.24 66.7242C267.24 66.393 267.356 66.1122 267.586 65.8818C267.831 65.6514 268.112 65.5362 268.428 65.5362C268.76 65.5362 269.04 65.6514 269.271 65.8818C269.501 66.1122 269.616 66.393 269.616 66.7242C269.616 67.041 269.501 67.3218 269.271 67.5666C269.04 67.797 268.76 67.9122 268.428 67.9122C268.112 67.9122 267.831 67.797 267.586 67.5666C267.356 67.3218 267.24 67.041 267.24 66.7242ZM267.564 70.8282H269.292V80.7642H267.564V70.8282ZM279.223 74.7162C279.223 73.8954 279.043 73.2762 278.683 72.8586C278.323 72.441 277.798 72.2322 277.106 72.2322C276.602 72.2322 276.156 72.3402 275.767 72.5562C275.393 72.7578 275.098 73.0458 274.882 73.4202C274.68 73.7946 274.579 74.2266 274.579 74.7162V80.7642H272.851V70.8282H274.579V72.3834C274.91 71.7786 275.321 71.3322 275.81 71.0442C276.314 70.7562 276.89 70.6122 277.538 70.6122C278.59 70.6122 279.418 70.965 280.022 71.6706C280.642 72.3618 280.951 73.305 280.951 74.5002V80.7642H279.223V74.7162ZM282.688 70.8282H287.656V72.4482H282.688V70.8282ZM284.308 67.3722H286.036V80.7642H284.308V67.3722ZM288.525 75.7962C288.525 74.7882 288.748 73.8954 289.194 73.1178C289.655 72.3402 290.274 71.7282 291.052 71.2818C291.83 70.8354 292.701 70.6122 293.666 70.6122C294.645 70.6122 295.516 70.8354 296.279 71.2818C297.057 71.7282 297.669 72.3402 298.115 73.1178C298.576 73.8954 298.806 74.7882 298.806 75.7962C298.806 76.7898 298.576 77.6826 298.115 78.4746C297.669 79.2522 297.057 79.8642 296.279 80.3106C295.516 80.757 294.645 80.9802 293.666 80.9802C292.701 80.9802 291.83 80.757 291.052 80.3106C290.274 79.8642 289.655 79.2522 289.194 78.4746C288.748 77.6826 288.525 76.7898 288.525 75.7962ZM290.274 75.7962C290.274 76.4874 290.418 77.0994 290.706 77.6322C291.009 78.165 291.412 78.5898 291.916 78.9066C292.434 79.209 293.018 79.3602 293.666 79.3602C294.314 79.3602 294.89 79.209 295.394 78.9066C295.912 78.5898 296.315 78.165 296.603 77.6322C296.906 77.0994 297.057 76.4874 297.057 75.7962C297.057 75.105 296.906 74.493 296.603 73.9602C296.315 73.413 295.912 72.9882 295.394 72.6858C294.89 72.3834 294.314 72.2322 293.666 72.2322C293.018 72.2322 292.434 72.3834 291.916 72.6858C291.412 72.9882 291.009 73.413 290.706 73.9602C290.418 74.493 290.274 75.105 290.274 75.7962ZM309.384 70.8282V80.7642H307.656V70.8282H309.384ZM312.386 72.729C312.156 72.5562 311.947 72.4338 311.76 72.3618C311.573 72.2754 311.335 72.2322 311.047 72.2322C310.615 72.2322 310.277 72.3402 310.032 72.5562C309.787 72.7722 309.614 73.0674 309.514 73.4418C309.427 73.8162 309.384 74.241 309.384 74.7162H308.606C308.606 73.9242 308.743 73.2258 309.017 72.621C309.305 72.0018 309.672 71.5122 310.118 71.1522C310.565 70.7922 311.018 70.6122 311.479 70.6122C311.839 70.6122 312.17 70.6626 312.473 70.7634C312.79 70.8498 313.078 71.0298 313.337 71.3034L312.386 72.729ZM318.588 80.9802C317.667 80.9802 316.846 80.7642 316.126 80.3322C315.42 79.8858 314.866 79.2738 314.463 78.4962C314.074 77.7186 313.879 76.8186 313.879 75.7962C313.879 74.7594 314.081 73.8522 314.484 73.0746C314.902 72.297 315.478 71.6922 316.212 71.2602C316.961 70.8282 317.825 70.6122 318.804 70.6122C319.783 70.6122 320.619 70.821 321.31 71.2386C322.015 71.6418 322.555 72.225 322.93 72.9882C323.304 73.7514 323.491 74.6586 323.491 75.7098C323.491 75.8106 323.484 75.9186 323.47 76.0338C323.47 76.1346 323.47 76.1994 323.47 76.2282H314.981V74.7594H322.109L321.418 75.753C321.461 75.681 321.504 75.573 321.547 75.429C321.591 75.2706 321.612 75.141 321.612 75.0402C321.612 74.4498 321.49 73.9386 321.245 73.5066C321.015 73.0746 320.691 72.7362 320.273 72.4914C319.855 72.2466 319.366 72.1242 318.804 72.1242C318.142 72.1242 317.573 72.2682 317.098 72.5562C316.637 72.8298 316.277 73.233 316.018 73.7658C315.773 74.2842 315.643 74.925 315.629 75.6882C315.629 76.4658 315.751 77.1282 315.996 77.6754C316.241 78.2226 316.601 78.6402 317.076 78.9282C317.551 79.2162 318.127 79.3602 318.804 79.3602C319.481 79.3602 320.079 79.2162 320.597 78.9282C321.115 78.6258 321.555 78.1722 321.915 77.5674L323.319 78.453C322.8 79.2882 322.145 79.9218 321.353 80.3538C320.575 80.7714 319.654 80.9802 318.588 80.9802ZM326.637 77.697C326.637 78.0714 326.724 78.3954 326.897 78.669C327.084 78.9426 327.336 79.1514 327.653 79.2954C327.984 79.425 328.358 79.4898 328.776 79.4898C329.309 79.4898 329.784 79.3818 330.201 79.1658C330.633 78.9498 330.972 78.6474 331.217 78.2586C331.476 77.8554 331.605 77.3946 331.605 76.8762L331.951 78.1722C331.951 78.8058 331.757 79.3314 331.368 79.749C330.993 80.1666 330.525 80.4762 329.964 80.6778C329.417 80.8794 328.869 80.9802 328.322 80.9802C327.717 80.9802 327.149 80.8578 326.616 80.613C326.097 80.3538 325.68 79.9866 325.363 79.5114C325.046 79.0362 324.888 78.4602 324.888 77.7834C324.888 76.8186 325.226 76.0482 325.903 75.4722C326.594 74.8818 327.552 74.5866 328.776 74.5866C329.496 74.5866 330.093 74.673 330.569 74.8458C331.058 75.0042 331.447 75.1914 331.735 75.4074C332.023 75.609 332.217 75.7746 332.318 75.9042V76.9194C331.814 76.5738 331.296 76.329 330.763 76.185C330.23 76.0266 329.661 75.9474 329.057 75.9474C328.495 75.9474 328.034 76.0194 327.674 76.1634C327.329 76.3074 327.069 76.509 326.897 76.7682C326.724 77.0274 326.637 77.337 326.637 77.697ZM326.378 73.1178L325.536 71.8434C325.91 71.5698 326.421 71.2962 327.069 71.0226C327.732 70.749 328.524 70.6122 329.445 70.6122C330.223 70.6122 330.9 70.7346 331.476 70.9794C332.066 71.2098 332.52 71.5482 332.837 71.9946C333.168 72.441 333.333 72.9882 333.333 73.6362V80.7642H331.605V73.8738C331.605 73.5282 331.548 73.2474 331.433 73.0314C331.317 72.801 331.152 72.621 330.936 72.4914C330.734 72.3618 330.497 72.2682 330.223 72.2106C329.949 72.153 329.661 72.1242 329.359 72.1242C328.869 72.1242 328.423 72.1818 328.02 72.297C327.631 72.4122 327.3 72.549 327.026 72.7074C326.753 72.8658 326.537 73.0026 326.378 73.1178ZM336.259 63.9162H337.987V80.7642H336.259V63.9162ZM341.237 66.7242C341.237 66.393 341.352 66.1122 341.583 65.8818C341.828 65.6514 342.108 65.5362 342.425 65.5362C342.756 65.5362 343.037 65.6514 343.268 65.8818C343.498 66.1122 343.613 66.393 343.613 66.7242C343.613 67.041 343.498 67.3218 343.268 67.5666C343.037 67.797 342.756 67.9122 342.425 67.9122C342.108 67.9122 341.828 67.797 341.583 67.5666C341.352 67.3218 341.237 67.041 341.237 66.7242ZM341.561 70.8282H343.289V80.7642H341.561V70.8282ZM345.336 70.8282H350.304V72.4482H345.336V70.8282ZM346.956 67.3722H348.684V80.7642H346.956V67.3722ZM359.921 70.8282L353.441 85.5162H351.497L354.219 79.3602L350.417 70.8282H352.469L355.623 78.6042L354.91 78.5178L357.977 70.8282H359.921ZM360.696 79.9002C360.696 79.569 360.811 79.2882 361.041 79.0578C361.286 78.8274 361.567 78.7122 361.884 78.7122C362.215 78.7122 362.496 78.8274 362.726 79.0578C362.957 79.2882 363.072 79.569 363.072 79.9002C363.072 80.217 362.957 80.4978 362.726 80.7426C362.496 80.973 362.215 81.0882 361.884 81.0882C361.567 81.0882 361.286 80.973 361.041 80.7426C360.811 80.4978 360.696 80.217 360.696 79.9002Z" fill="white"/>
<path d="M43.4468 88.9346C67.4418 88.9346 86.8935 69.4828 86.8935 45.4878C86.8935 21.4928 67.4418 2.04102 43.4468 2.04102C19.4518 2.04102 0 21.4928 0 45.4878C0 69.4828 19.4518 88.9346 43.4468 88.9346Z" fill="#FFFEFC"/>
<path d="M21.3828 66.0257C21.3844 65.7265 21.4527 65.4314 21.5826 65.1618C21.7125 64.8922 21.9009 64.655 22.134 64.4673C26.491 60.405 30.8458 56.3358 35.1982 52.2595L50.1367 38.3108C50.4044 38.0215 50.7547 37.8217 51.14 37.7387C51.5253 37.6558 51.9268 37.6936 52.2898 37.8471C52.6529 38.0006 52.9597 38.2623 53.1686 38.5965C53.3775 38.9307 53.4783 39.3212 53.4572 39.7148C53.4276 40.0029 53.341 40.2822 53.2024 40.5365C53.0638 40.7908 52.876 41.015 52.6499 41.196C49.87 43.7794 47.0994 46.3674 44.3382 48.9601C37.8236 55.0441 31.3114 61.1281 24.8016 67.2121C24.5526 67.4954 24.2293 67.7033 23.8683 67.8125C23.5073 67.9217 23.123 67.9277 22.7587 67.8299C22.3643 67.7199 22.0165 67.4842 21.7682 67.1586C21.5199 66.833 21.3846 66.4352 21.3828 66.0257ZM42.9904 46.0819L42.5481 46.4961L26.0722 61.8909C24.8998 62.9861 23.7205 64.0742 22.5622 65.1833C22.4472 65.2794 22.3529 65.3977 22.2849 65.5312C22.2169 65.6648 22.1767 65.8107 22.1667 65.9601C22.1566 66.1096 22.177 66.2596 22.2265 66.401C22.276 66.5424 22.3536 66.6723 22.4547 66.7828C22.5558 66.8934 22.6782 66.9824 22.8146 67.0443C22.951 67.1063 23.0986 67.14 23.2484 67.1434C23.3981 67.1467 23.547 67.1198 23.6861 67.064C23.8251 67.0083 23.9515 66.9249 24.0574 66.819C24.1908 66.7067 24.3102 66.5873 24.4365 66.475L44.1206 48.0686C44.2629 47.9734 44.4161 47.8957 44.5769 47.8369C44.1864 47.701 43.8365 47.469 43.5592 47.1623C43.282 46.8556 43.0863 46.484 42.9904 46.0819ZM43.6924 45.759C43.7164 45.988 43.7996 46.2067 43.9337 46.3938C44.0679 46.5809 44.2484 46.7298 44.4576 46.826C44.6616 46.9196 44.8898 46.9469 45.1102 46.9041C45.3305 46.8613 45.5319 46.7505 45.6861 46.5874L49.0908 43.4073C50.1227 42.4455 51.1968 41.4838 52.1866 40.508C52.3114 40.4137 52.415 40.2942 52.4906 40.1573C52.5663 40.0204 52.6123 39.8691 52.6258 39.7133C52.6392 39.5574 52.6197 39.4005 52.5686 39.2527C52.5175 39.1048 52.4358 38.9694 52.329 38.8551C52.2222 38.7409 52.0925 38.6503 51.9484 38.5894C51.8043 38.5285 51.6491 38.4985 51.4927 38.5015C51.3363 38.5044 51.1822 38.5402 51.0405 38.6065C50.8989 38.6728 50.7727 38.7682 50.6703 38.8864C48.5221 40.8801 46.381 42.8855 44.247 44.9025C44.0359 45.166 43.8568 45.4535 43.7134 45.759H43.6924Z" fill="#5C036B"/>
<path d="M23.3 68.0343C23.1075 68.0329 22.9161 68.0046 22.7314 67.9501C22.3119 67.834 21.9426 67.5823 21.6811 67.2344C21.4195 66.8865 21.2803 66.4619 21.2853 66.0266C21.2863 65.7144 21.3567 65.4063 21.4915 65.1246C21.6263 64.8429 21.822 64.5947 22.0645 64.398L30.8606 56.1775L35.1287 52.1902L50.0673 38.2415C50.3519 37.9358 50.7239 37.7254 51.1325 37.6391C51.5411 37.5527 51.9664 37.5945 52.3503 37.7589C52.7343 37.9232 53.0581 38.202 53.2777 38.5572C53.4973 38.9125 53.6019 39.3268 53.5773 39.7437C53.509 40.3524 53.2039 40.9097 52.7279 41.2951L46.7258 46.9111L40.1972 53.0045L24.8725 67.3043C24.4644 67.7444 23.8996 68.0066 23.3 68.0343ZM51.5485 37.7922C51.0405 37.8097 50.5583 38.0207 50.2007 38.3819L35.2691 52.3376L31.001 56.325L22.2049 64.5454C21.9847 64.7226 21.8072 64.9472 21.6856 65.2024C21.5641 65.4576 21.5016 65.7369 21.5029 66.0196C21.5042 66.4045 21.6301 66.7786 21.8616 67.0861C22.0932 67.3936 22.418 67.6179 22.7876 67.7255C23.1348 67.8219 23.5025 67.817 23.847 67.7113C24.1916 67.6055 24.4987 67.4034 24.7321 67.1288L40.0497 52.815L46.5713 46.7146L52.5804 41.0986C53.0154 40.7519 53.2955 40.2471 53.3597 39.6946C53.3789 39.3367 53.2927 38.9809 53.1118 38.6715C52.9309 38.362 52.6631 38.1125 52.3418 37.9537C52.0925 37.8418 51.8216 37.7866 51.5485 37.7922ZM23.2579 67.227C23.0994 67.2263 22.9428 67.1929 22.7979 67.1289C22.6529 67.0649 22.5228 66.9716 22.4155 66.855C22.3045 66.7423 22.2174 66.6084 22.1595 66.4612C22.1016 66.314 22.074 66.1566 22.0785 65.9985C22.0832 65.8302 22.1217 65.6646 22.1916 65.5114C22.2616 65.3583 22.3616 65.2208 22.4857 65.107C23.3211 64.3137 24.1775 63.5135 25.0129 62.7413L42.4787 46.4198C42.598 46.3075 42.7244 46.1881 42.8788 46.0547L43.0473 45.8933L43.0894 46.0547C43.183 46.442 43.3721 46.7998 43.6394 47.0953C43.9067 47.3908 44.2437 47.6147 44.6198 47.7465L44.8163 47.8308L44.6268 47.929L44.4653 47.9993C44.3664 48.0325 44.2738 48.0823 44.1915 48.1467L25.8974 65.2404L24.4373 66.6023C24.332 66.7006 24.2267 66.8058 24.1143 66.8971C23.8759 67.1034 23.5731 67.22 23.2579 67.227ZM42.9139 46.2653L42.584 46.5672L25.1182 62.8887C24.2898 63.6609 23.4334 64.4611 22.598 65.2544C22.3871 65.4491 22.2611 65.7188 22.247 66.0055C22.2491 66.2665 22.3494 66.5171 22.5278 66.7075C22.7163 66.8894 22.9679 66.9911 23.2298 66.9911C23.4917 66.9911 23.7434 66.8894 23.9318 66.7075L24.2407 66.4197L25.7009 65.0579C31.8551 59.381 37.9742 53.6948 44.0582 47.9993C44.1381 47.9283 44.2311 47.8734 44.3319 47.8378C44.0006 47.6913 43.7049 47.475 43.465 47.2036C43.2251 46.9322 43.0467 46.6121 42.942 46.2653H42.9139ZM44.9006 47.0305C44.7309 47.0261 44.5639 46.9879 44.4092 46.9182C44.1846 46.8173 43.9904 46.6591 43.8463 46.4595C43.7021 46.2599 43.613 46.0259 43.5878 45.7809V45.7388C43.651 45.6475 43.7001 45.5563 43.7563 45.465C43.8581 45.2411 43.9982 45.0368 44.1705 44.8613C46.2765 42.8466 48.4808 40.8108 50.5868 38.8452C50.6982 38.7209 50.8338 38.6206 50.9852 38.5504C51.1367 38.4803 51.3009 38.4417 51.4677 38.4371C51.6346 38.4325 51.8006 38.462 51.9558 38.5237C52.1109 38.5854 52.2517 38.678 52.3698 38.796C52.4832 38.9033 52.5729 39.0329 52.6333 39.1768C52.6938 39.3206 52.7236 39.4754 52.7208 39.6314C52.711 39.8188 52.6637 40.0023 52.5817 40.1711C52.4997 40.3399 52.3847 40.4906 52.2435 40.6142C51.4783 41.3162 50.6991 42.0744 49.9409 42.7764L48.6563 43.9768L45.7781 46.6655C45.5516 46.8907 45.2479 47.0212 44.9286 47.0305H44.9006ZM43.7914 45.7809C43.8171 45.9868 43.8952 46.1826 44.0181 46.3497C44.1409 46.5168 44.3046 46.6497 44.4934 46.7356C44.6791 46.8219 44.8875 46.8467 45.0883 46.8062C45.2891 46.7658 45.4717 46.6624 45.6096 46.511L48.5299 43.7943L49.8075 42.5939C50.5657 41.8919 51.3519 41.1899 52.1101 40.4317C52.2326 40.3261 52.3329 40.1973 52.4052 40.0527C52.4775 39.9081 52.5203 39.7506 52.5313 39.5893C52.5334 39.4576 52.5075 39.327 52.4555 39.206C52.4035 39.085 52.3264 38.9764 52.2294 38.8873C52.1313 38.7862 52.0132 38.7068 51.8825 38.6541C51.7519 38.6013 51.6117 38.5765 51.4709 38.5811C51.3302 38.5857 51.1919 38.6197 51.065 38.6809C50.9381 38.7421 50.8255 38.8291 50.7342 38.9364C48.6282 40.902 46.445 42.9378 44.3109 44.9526C44.1607 45.1185 44.0354 45.3053 43.9388 45.5071L43.7914 45.7809Z" fill="#5C036B"/>
<path d="M35.0862 42.4544C34.9177 42.5527 34.7562 42.7352 34.5878 42.7352C32.573 42.7352 30.8952 44.6376 30.797 46.7858C30.797 46.8911 30.797 47.0244 30.797 47.0876C30.6664 47.2356 30.5231 47.3719 30.3687 47.4948C30.2494 47.3614 30.0599 47.2351 30.0248 47.0806C29.9195 46.6664 29.9265 46.2312 29.8142 45.824C29.6216 44.995 29.1701 44.2489 28.5252 43.6936C27.8803 43.1382 27.0753 42.8026 26.2269 42.7352C26.0514 42.7352 25.897 42.4895 25.7285 42.3561C25.89 42.2157 26.0374 41.963 26.2059 41.956C27.1737 41.8709 28.08 41.4455 28.7638 40.7553C29.4476 40.0651 29.8645 39.1548 29.9405 38.1863C29.943 37.9638 29.9713 37.7423 30.0248 37.5264C30.0809 37.386 30.2705 37.2105 30.3968 37.2175C30.4789 37.2336 30.5556 37.2705 30.6194 37.3246C30.6833 37.3786 30.7323 37.4481 30.7619 37.5264C30.8601 37.9265 30.8531 38.3407 30.9444 38.7409C31.1183 39.6 31.5685 40.3786 32.2264 40.9578C32.8842 41.5371 33.7135 41.8852 34.5878 41.949C34.7703 41.949 34.9388 42.1456 35.1213 42.2509L35.0862 42.4544ZM30.3828 45.0097C30.8587 43.8596 31.7233 42.913 32.8257 42.3351C31.7208 41.7708 30.8488 40.8367 30.3617 39.6956C29.8702 40.824 29.005 41.7486 27.9117 42.314C29.0248 42.8798 29.9007 43.8228 30.3828 44.9746V45.0097Z" fill="#5C036B"/>
<path d="M30.3318 47.6052L30.2616 47.5279L30.1493 47.4086C30.0332 47.3211 29.9454 47.2015 29.8965 47.0646C29.8496 46.8589 29.8167 46.6501 29.7983 46.4399C29.774 46.2276 29.7388 46.0167 29.6929 45.8081C29.5063 44.997 29.0648 44.2671 28.4331 43.7251C27.8015 43.1832 27.0129 42.8577 26.1829 42.7965C26.0227 42.7561 25.8799 42.665 25.7758 42.5367C25.7301 42.4864 25.6808 42.4395 25.6284 42.3963L25.5371 42.3261L25.6284 42.2419C25.6787 42.1962 25.7256 42.1469 25.7688 42.0945C25.8881 41.9611 26.0074 41.8277 26.1619 41.8207C27.1077 41.7384 27.9934 41.3226 28.6608 40.6475C29.3283 39.9723 29.7339 39.0818 29.8053 38.1352C29.809 38.0674 29.809 37.9994 29.8053 37.9316C29.8032 37.7692 29.8293 37.6077 29.8825 37.4543C29.9217 37.3585 29.9838 37.2739 30.0634 37.2078C30.1429 37.1418 30.2375 37.0962 30.3388 37.0752C30.4439 37.0939 30.5421 37.1402 30.6235 37.2092C30.7049 37.2783 30.7665 37.3677 30.8021 37.4683C30.8486 37.6766 30.8814 37.8876 30.9004 38.1001C30.9176 38.2934 30.9458 38.4856 30.9846 38.6757C31.1526 39.515 31.5908 40.2762 32.2323 40.8429C32.8737 41.4096 33.6832 41.7506 34.5368 41.8137C34.6923 41.8377 34.8369 41.9088 34.9509 42.0173C35.0071 42.0173 35.0562 42.0945 35.1124 42.1226L35.1615 42.1577V42.4525H35.1124L34.965 42.5508C34.8555 42.6555 34.7152 42.7219 34.5648 42.7403C32.6273 42.7403 30.9706 44.5444 30.8723 46.6996C30.8689 46.7276 30.8689 46.7558 30.8723 46.7838C30.8859 46.8788 30.866 46.9756 30.8162 47.0576C30.7221 47.1692 30.6188 47.2725 30.5073 47.3665L30.3809 47.4788L30.3318 47.6052ZM25.853 42.3121C25.8751 42.3412 25.9011 42.3672 25.9302 42.3893C26.0028 42.4838 26.1 42.5567 26.211 42.5999C27.0783 42.6732 27.9005 43.0178 28.5609 43.5849C29.2212 44.152 29.6861 44.9126 29.8895 45.7589C29.9387 45.9766 29.9667 46.2012 29.9948 46.4188C30.0167 46.6193 30.0495 46.8185 30.0931 47.0155C30.1354 47.1116 30.2004 47.1959 30.2826 47.2612L30.3458 47.3174L30.402 47.2682C30.5063 47.1837 30.6027 47.0897 30.6898 46.9874C30.6898 46.9874 30.6898 46.8891 30.6898 46.847C30.6863 46.8144 30.6863 46.7814 30.6898 46.7487C30.7881 44.4883 32.5361 42.628 34.5719 42.5999C34.6794 42.574 34.7785 42.5208 34.8597 42.4455L34.979 42.3612V42.27L34.8527 42.1787C34.7669 42.097 34.6598 42.0411 34.5438 42.0173C33.6478 41.9498 32.7982 41.5917 32.1242 40.9975C31.4502 40.4033 30.9884 39.6054 30.8091 38.7249C30.7684 38.5253 30.738 38.3238 30.7179 38.1212C30.7017 37.918 30.6712 37.7162 30.6266 37.5174C30.6021 37.4594 30.5647 37.4078 30.5173 37.3665C30.4698 37.3251 30.4136 37.2951 30.3528 37.2788C30.2933 37.3001 30.2388 37.3336 30.1929 37.3771C30.147 37.4206 30.1106 37.4732 30.0861 37.5315C30.0419 37.665 30.0205 37.805 30.0229 37.9457C30.0229 38.0159 30.0229 38.0861 30.0229 38.1563C29.945 39.1515 29.5162 40.0867 28.8129 40.7951C28.1096 41.5035 27.1776 41.9392 26.1829 42.0243C26.1198 42.0243 26.0145 42.1366 25.9302 42.2279C25.9082 42.2592 25.8823 42.2875 25.853 42.3121ZM30.3809 45.2324L30.2826 45.0148C29.8147 43.8843 28.9583 42.9581 27.8678 42.4034L27.7063 42.3121L27.8678 42.2208C28.9473 41.6614 29.7949 40.7392 30.2616 39.6164L30.3528 39.4058L30.4511 39.6164C30.9296 40.7372 31.7869 41.6542 32.873 42.2068L33.0415 42.291L32.873 42.3893C31.7868 42.9522 30.9359 43.8827 30.4722 45.0148L30.3809 45.2324ZM28.1275 42.3121C29.1155 42.8591 29.9026 43.7077 30.3739 44.734C30.8466 43.7074 31.6299 42.8553 32.6133 42.2981C31.6281 41.755 30.8395 40.9148 30.3599 39.8972C29.8862 40.9155 29.1055 41.76 28.1275 42.3121Z" fill="#5C036B"/>
<path d="M61.6908 32.6284C61.3258 32.6284 61.2766 32.3405 61.2766 32.0457C61.304 31.6459 61.234 31.2454 61.0726 30.8786C60.9112 30.5118 60.6632 30.1897 60.35 29.9397C59.8347 29.6266 59.2919 29.3611 58.7284 29.1464C58.5318 29.0411 58.251 28.9148 58.2019 28.7393C58.1106 28.4024 58.4195 28.3602 58.6863 28.3111C59.4078 28.2354 60.0744 27.8907 60.5531 27.3456C61.0319 26.8004 61.2877 26.095 61.2696 25.3697C61.2696 25.0819 61.3749 24.8081 61.6979 24.8783C61.793 24.924 61.8758 24.9918 61.9393 25.0761C62.0028 25.1603 62.0452 25.2586 62.0629 25.3627C62.0562 26.0879 62.3176 26.79 62.7971 27.3342C63.2765 27.8784 63.94 28.2263 64.6603 28.3111C64.9271 28.3532 65.243 28.3953 65.1657 28.7253C65.1192 28.8305 65.0474 28.9227 64.9568 28.9937C64.8662 29.0647 64.7596 29.1124 64.6462 29.1324C63.9454 29.2246 63.3008 29.565 62.8294 30.0918C62.358 30.6185 62.091 31.2968 62.0769 32.0036C62.0629 32.4669 61.9646 32.6284 61.6908 32.6284ZM63.0948 28.7533L61.6908 27.2581L60.2868 28.7533L61.6908 30.2486L63.0948 28.7533Z" fill="#5C036B"/>
<path d="M61.685 32.7176C61.1725 32.6685 61.1725 32.2403 61.1725 32.0156C61.1952 31.6358 61.1268 31.256 60.9729 30.908C60.8191 30.56 60.5842 30.2538 60.288 30.015C59.9773 29.799 59.6398 29.6244 59.2841 29.4954C59.0876 29.4182 58.884 29.334 58.6874 29.2357H58.6523C58.4347 29.1304 58.1609 28.99 58.1048 28.7865C58.0833 28.7366 58.0723 28.6828 58.0723 28.6285C58.0723 28.5742 58.0833 28.5205 58.1048 28.4706C58.203 28.3091 58.4207 28.274 58.6172 28.2319C59.3145 28.1548 59.9577 27.8196 60.4203 27.2921C60.8828 26.7647 61.1311 26.0831 61.1163 25.3817C61.113 25.2858 61.1293 25.1903 61.1643 25.1009C61.1993 25.0116 61.2523 24.9303 61.3199 24.8623C61.369 24.8268 61.4253 24.8028 61.4848 24.7919C61.5443 24.7809 61.6055 24.7834 61.6639 24.7991C61.781 24.8487 61.8833 24.9278 61.9608 25.0287C62.0383 25.1295 62.0884 25.2488 62.1062 25.3747C62.0919 26.0794 62.3431 26.7636 62.81 27.2916C63.2769 27.8196 63.9252 28.1527 64.6263 28.2248H64.6685C64.8605 28.2338 65.0417 28.3169 65.1739 28.4565C65.1995 28.502 65.2158 28.5521 65.2218 28.6039C65.2278 28.6557 65.2235 28.7082 65.209 28.7584C65.1558 28.8831 65.0731 28.9931 64.9679 29.0787C64.8627 29.1643 64.7382 29.223 64.6053 29.2498C63.9287 29.3387 63.3064 29.6675 62.8517 30.1764C62.397 30.6852 62.1399 31.3404 62.1272 32.0227C62.1272 32.4298 62.0149 32.7247 61.6358 32.7247L61.685 32.7176ZM61.6007 24.9956C61.5664 24.9849 61.5297 24.9849 61.4954 24.9956C61.4252 25.0448 61.3831 25.1711 61.3761 25.3677C61.3926 26.1156 61.1275 26.8424 60.6335 27.4041C60.1394 27.9657 59.4523 28.3213 58.7085 28.4003C58.5611 28.4003 58.3856 28.4565 58.3364 28.5407C58.3256 28.565 58.32 28.5913 58.32 28.6179C58.32 28.6446 58.3256 28.6709 58.3364 28.6952C58.3715 28.8145 58.6172 28.9409 58.7787 29.0251H58.8138C59.0033 29.1234 59.1999 29.2006 59.3964 29.2849C59.7696 29.4182 60.1236 29.5999 60.4494 29.8254C60.7704 30.0831 61.0251 30.4138 61.1924 30.7899C61.3597 31.166 61.4347 31.5766 61.4112 31.9876C61.4112 32.3245 61.4884 32.4439 61.7341 32.472C61.9798 32.5 61.9938 32.4228 62.0149 31.9665C62.0304 31.2372 62.3066 30.5374 62.7933 29.9941C63.28 29.4507 63.9452 29.0995 64.6685 29.0041C64.7604 28.9833 64.8467 28.9432 64.9218 28.8863C64.9969 28.8293 65.0589 28.757 65.1037 28.6741C65.1228 28.6268 65.1228 28.574 65.1037 28.5267C65.0475 28.4424 64.8791 28.4144 64.7316 28.3863H64.6895C63.9444 28.3029 63.2568 27.9457 62.76 27.384C62.2633 26.8224 61.9927 26.0964 62.0009 25.3466C61.9858 25.2645 61.9528 25.1867 61.9043 25.1188C61.8557 25.0508 61.7929 24.9944 61.7201 24.9535L61.6007 24.9956ZM61.6779 30.394L60.1476 28.7513L61.6779 27.1087L63.2294 28.7513L61.6779 30.394ZM60.4214 28.7513L61.6779 30.0922L62.9486 28.7513L61.6779 27.4035L60.4214 28.7513Z" fill="#5C036B"/>
<path d="M49.4485 56.4951C49.3502 56.3406 49.1888 56.1862 49.1747 56.0247C49.187 55.5319 49.0095 55.0532 48.679 54.6875C48.3485 54.3217 47.8902 54.0968 47.3987 54.0592C47.3116 54.0239 47.2346 53.9676 47.1746 53.8954C47.1145 53.8231 47.0733 53.737 47.0547 53.645C47.0547 53.5467 47.2583 53.322 47.3987 53.301C47.8901 53.2567 48.3466 53.0279 48.6761 52.6606C49.0057 52.2932 49.1838 51.8147 49.1747 51.3213C49.1747 51.1809 49.4134 51.0546 49.5327 50.9282C49.6731 51.0827 49.9259 51.2301 49.9329 51.3986C49.9332 51.7068 50.0104 52.0101 50.1575 52.281C50.3046 52.5519 50.5169 52.7818 50.7753 52.95C51.0686 53.0804 51.3685 53.1952 51.6738 53.294C51.8213 53.3712 52.0319 53.5537 52.0248 53.6801C52.0006 53.7693 51.9555 53.8515 51.8933 53.9198C51.831 53.9882 51.7534 54.0407 51.6668 54.0732C50.4594 54.3891 50.1154 54.7752 49.9469 55.9686C49.9469 56.1581 49.7433 56.3266 49.638 56.5021L49.4485 56.4951ZM48.7956 53.6871L49.5468 54.4874L50.2979 53.6871L49.5468 52.8938L48.7956 53.6871Z" fill="#5C036B"/>
<path d="M49.6734 56.6004H49.3716V56.5512L49.2733 56.4178C49.1782 56.311 49.115 56.1797 49.0907 56.0387C49.1081 55.5671 48.9399 55.1075 48.6223 54.7585C48.3047 54.4094 47.863 54.1987 47.3919 54.1714C47.2858 54.128 47.1919 54.0592 47.1184 53.9711C47.045 53.883 46.9943 53.7782 46.9707 53.666C46.9707 53.5045 47.2094 53.2378 47.3919 53.2097C47.8629 53.1721 48.3016 52.9554 48.6177 52.6041C48.9337 52.2528 49.103 51.7937 49.0907 51.3213C49.0907 51.1809 49.2241 51.0756 49.3435 50.9773L49.4768 50.865L49.5541 50.7808L49.6243 50.865C49.6699 50.9153 49.7192 50.9622 49.7717 51.0054C49.9116 51.0962 50.0119 51.2367 50.0525 51.3985C50.0489 51.6914 50.1198 51.9803 50.2585 52.2382C50.3973 52.4961 50.5994 52.7144 50.8457 52.8728C50.9911 52.9545 51.147 53.0158 51.3091 53.0552C51.4541 53.0931 51.5951 53.1448 51.7303 53.2097C51.8987 53.2939 52.1444 53.5045 52.1374 53.6941C52.1151 53.8046 52.0637 53.9072 51.9884 53.9911C51.9131 54.0751 51.8167 54.1373 51.7092 54.1714C50.5439 54.4803 50.221 54.8735 50.0595 55.9896C50.0239 56.1427 49.9517 56.2849 49.8489 56.4038C49.8075 56.4547 49.77 56.5087 49.7366 56.5652L49.6734 56.6004ZM49.4909 56.3897H49.5681L49.6594 56.2704C49.7402 56.1765 49.8 56.0664 49.8349 55.9475C50.0104 54.7049 50.3754 54.2978 51.625 53.9679C51.6908 53.9409 51.7501 53.8999 51.7986 53.8478C51.847 53.7957 51.8836 53.7336 51.9058 53.666C51.9058 53.6098 51.7583 53.4484 51.6109 53.3782C51.4871 53.3189 51.3578 53.2719 51.2248 53.2378C51.0431 53.191 50.8684 53.1202 50.7053 53.0272C50.4327 52.8522 50.2086 52.6111 50.054 52.3264C49.8994 52.0417 49.8192 51.7225 49.8208 51.3985C49.8208 51.3213 49.7015 51.223 49.6102 51.1388L49.519 51.0616L49.4488 51.1178C49.3715 51.1809 49.2663 51.2652 49.2592 51.3213C49.2775 51.8437 49.0947 52.3532 48.7487 52.745C48.4026 53.1367 47.9196 53.3809 47.3989 53.4273C47.2854 53.4714 47.1927 53.5566 47.1392 53.666C47.1568 53.7353 47.1891 53.8 47.2339 53.8557C47.2787 53.9115 47.335 53.9569 47.3989 53.9889C47.9141 54.0266 48.3948 54.2615 48.7413 54.6445C49.0878 55.0276 49.2733 55.5294 49.2592 56.0458C49.2847 56.1458 49.3355 56.2377 49.4066 56.3125L49.4909 56.3897ZM49.533 54.6207L48.6625 53.6871L49.5471 52.7464L50.4386 53.6871L49.533 54.6207ZM48.9714 53.6871L49.5821 54.3399L50.1929 53.6871L49.5821 53.0412L48.9714 53.6871Z" fill="#5C036B"/>
<path d="M48.7619 32.7089C48.6846 32.7931 48.5723 33.0178 48.4811 33.0107C48.3804 33.0046 48.282 32.9785 48.1916 32.9339C48.1012 32.8893 48.0206 32.8271 47.9546 32.751C47.4561 31.9858 46.9928 31.1926 46.5506 30.4064C46.3917 30.2313 46.2614 30.0322 46.1645 29.8167C46.1477 29.7262 46.1517 29.6331 46.176 29.5444C46.2003 29.4556 46.2444 29.3735 46.3049 29.3042C46.3835 29.2768 46.4677 29.2695 46.5498 29.283C46.632 29.2964 46.7095 29.3303 46.7752 29.3814C47.4772 30.4344 48.0669 31.4874 48.7057 32.5615C48.7408 32.5615 48.7338 32.6246 48.7619 32.7089Z" fill="#5C036B"/>
<path d="M48.4886 33.1122C48.3726 33.1062 48.2591 33.0763 48.1552 33.0243C48.0513 32.9724 47.9592 32.8995 47.8848 32.8103C47.5058 32.2277 47.1477 31.6239 46.7967 31.0342L46.4457 30.4586C46.4457 30.4024 46.3756 30.3463 46.3405 30.2901C46.2313 30.1466 46.1481 29.985 46.0947 29.8128C46.0741 29.706 46.0786 29.5959 46.1079 29.4911C46.1371 29.3863 46.1903 29.2898 46.2632 29.2091C46.3559 29.1532 46.4657 29.1332 46.5721 29.1529C46.6423 29.1529 46.8248 29.2021 46.888 29.3074C47.4286 30.1568 47.9551 31.0413 48.4675 31.8907L48.8255 32.4874C48.8304 32.5223 48.8304 32.5578 48.8255 32.5927C48.8255 32.5927 48.8255 32.6489 48.8255 32.691V32.7401V32.7752L48.7553 32.8665C48.6922 32.9858 48.6079 33.1122 48.4886 33.1122ZM46.4457 29.3495H46.3826C46.3376 29.4062 46.305 29.4718 46.2869 29.5419C46.2687 29.612 46.2655 29.6851 46.2773 29.7566C46.3244 29.9066 46.3981 30.0469 46.4949 30.1708L46.6072 30.3533C46.7266 30.5429 46.8389 30.7324 46.9512 30.929C47.3022 31.5116 47.6532 32.1153 48.0393 32.698C48.1602 32.8221 48.3227 32.8971 48.4956 32.9086L48.6079 32.7471L48.65 32.6769C48.65 32.6769 48.65 32.6348 48.65 32.6208C48.6472 32.6069 48.6472 32.5926 48.65 32.5787L48.292 31.989C47.7866 31.1396 47.2601 30.255 46.7195 29.4056C46.6358 29.3604 46.5405 29.3409 46.4457 29.3495Z" fill="#5C036B"/>
<path d="M57.0995 41.3086C57.268 41.3788 57.3803 41.4139 57.4856 41.47L60.2936 42.9864C60.5533 43.1268 60.778 43.2952 60.6095 43.6252C60.441 43.9551 60.1602 43.8288 59.9075 43.6954C58.9528 43.1759 57.984 42.6705 57.0433 42.1299C56.9656 42.0672 56.9014 41.9896 56.8543 41.9015C56.8073 41.8135 56.7785 41.7169 56.7695 41.6175C56.7766 41.5262 56.9942 41.4069 57.0995 41.3086Z" fill="#5C036B"/>
<path d="M60.3239 43.9333C60.1667 43.9206 60.0149 43.87 59.8816 43.7859L59.1164 43.3717C58.4144 42.9996 57.7124 42.6135 57.0104 42.2204C56.9202 42.1484 56.8452 42.0592 56.7897 41.958C56.7343 41.8568 56.6995 41.7455 56.6875 41.6307C56.6875 41.5114 56.7928 41.4201 56.9192 41.3219L57.0245 41.2306L57.0736 41.1885H57.1368L57.2842 41.2446L57.5299 41.3499L58.8918 42.0519L60.3519 42.8382C60.492 42.8986 60.615 42.9926 60.71 43.1119C60.7586 43.1847 60.7845 43.2702 60.7845 43.3576C60.7845 43.4451 60.7586 43.5306 60.71 43.6034C60.6836 43.6617 60.6458 43.7141 60.5987 43.7575C60.5517 43.8009 60.4964 43.8345 60.4362 43.8561C60.4041 43.8889 60.366 43.9151 60.3239 43.9333ZM57.1227 41.4201L57.0455 41.4833C56.99 41.5229 56.9383 41.5676 56.8911 41.6167C56.9147 41.7825 56.9969 41.9344 57.1227 42.0449C57.8247 42.438 58.5267 42.8241 59.2287 43.1962L59.9939 43.6034C60.111 43.6905 60.2555 43.7328 60.4011 43.7227C60.47 43.6958 60.5255 43.6428 60.5555 43.5753C60.6327 43.4278 60.6047 43.3436 60.5555 43.2945C60.4811 43.2001 60.3847 43.1254 60.2747 43.0769L58.8005 42.2906L57.4386 41.5886L57.221 41.4903L57.1227 41.4201Z" fill="#5C036B"/>
<path d="M51.5547 31.4723C51.7793 30.4895 51.9829 29.612 52.1865 28.7345C52.2117 28.4927 52.2733 28.256 52.369 28.0325C52.4603 27.8851 52.6849 27.8219 52.8534 27.7236C52.9517 27.8851 53.1482 28.0606 53.1202 28.194C52.8885 29.2891 52.6288 30.3842 52.3409 31.4653C52.3023 31.55 52.2427 31.6235 52.1678 31.6788C52.0929 31.734 52.0051 31.7693 51.9127 31.7812C51.7793 31.7882 51.6459 31.5706 51.5547 31.4723Z" fill="#5C036B"/>
<path d="M51.9196 31.925C51.7721 31.925 51.6668 31.7917 51.5686 31.6723L51.4913 31.5811L51.4492 31.5389L52.0951 28.7309C52.1102 28.6637 52.1219 28.5957 52.1302 28.5273C52.1518 28.348 52.2066 28.1743 52.2916 28.0149C52.3867 27.8944 52.5129 27.8021 52.6567 27.7481L52.8111 27.6709L52.8953 27.6147L52.9515 27.706L53.0498 27.8464C53.1551 27.9798 53.2534 28.1132 53.2253 28.2466C52.9936 29.3417 52.7339 30.4438 52.4461 31.5249C52.4032 31.6333 52.3314 31.7278 52.2386 31.7984C52.1458 31.8689 52.0355 31.9127 51.9196 31.925ZM51.6598 31.4757L51.723 31.546C51.7721 31.6092 51.8634 31.7214 51.9125 31.7285C51.981 31.7159 52.0457 31.6879 52.1017 31.6466C52.1576 31.6052 52.2034 31.5516 52.2355 31.4898C52.5233 30.4087 52.783 29.3066 53.0147 28.2185C53.0147 28.1763 52.9375 28.064 52.8813 27.9868L52.8181 27.9026L52.7269 27.9447C52.6192 27.984 52.5228 28.0491 52.4461 28.1342C52.3782 28.2731 52.3355 28.4228 52.3197 28.5765L52.2776 28.7871L51.6598 31.4757Z" fill="#5C036B"/>
<path d="M56.0823 47.984C55.9911 48.0612 55.8577 48.2648 55.7454 48.2508C55.6534 48.2408 55.5652 48.2088 55.4882 48.1575C55.4112 48.1061 55.3477 48.037 55.3031 47.956C55.0364 47.254 54.8187 46.4747 54.6011 45.7306C54.4808 45.4136 54.3869 45.0873 54.3203 44.7548C54.3218 44.6639 54.3456 44.5747 54.3897 44.4951C54.4338 44.4155 54.4967 44.348 54.573 44.2985C54.6637 44.2939 54.754 44.3128 54.8352 44.3534C54.9163 44.394 54.9856 44.4549 55.0364 44.5302C55.4014 45.5902 55.7384 46.6362 56.0613 47.7313C56.0543 47.7805 56.0543 47.8296 56.0823 47.984Z" fill="#5C036B"/>
<path d="M55.7525 48.3585C55.6408 48.3449 55.534 48.3046 55.4412 48.2411C55.3483 48.1775 55.2721 48.0926 55.2189 47.9935C55.0154 47.4319 54.8328 46.8492 54.6644 46.2876L54.5029 45.7611C54.5029 45.6769 54.4467 45.5927 54.4116 45.5014C54.3256 45.2736 54.2598 45.0387 54.2151 44.7994C54.2119 44.6842 54.2403 44.5703 54.2973 44.47C54.3542 44.3698 54.4374 44.2871 54.538 44.2308C54.654 44.2186 54.771 44.2408 54.8746 44.2944C54.9781 44.3481 55.0637 44.4309 55.1207 44.5326C55.4085 45.354 55.6682 46.2034 55.928 47.0177L56.1456 47.7197C56.1517 47.7639 56.1517 47.8088 56.1456 47.8531V48.0356L56.1035 48.0777C56.0785 48.102 56.055 48.1278 56.0333 48.1549C55.9911 48.2392 55.8788 48.3585 55.7525 48.3585ZM54.5871 44.3922C54.5345 44.4332 54.4915 44.4853 54.4612 44.5447C54.4309 44.6041 54.414 44.6695 54.4116 44.7362C54.4498 44.9755 54.5109 45.2106 54.5942 45.4382C54.6293 45.5224 54.6573 45.6137 54.6854 45.6979L54.8469 46.2244C55.0224 46.786 55.1979 47.3687 55.4015 47.9233C55.4399 47.9863 55.492 48.0398 55.554 48.08C55.616 48.1201 55.6862 48.1457 55.7595 48.1549C55.7946 48.1549 55.8858 48.0496 55.928 48.0075L55.9771 47.9514V47.8671C55.9771 47.818 55.9771 47.7899 55.9771 47.7618L55.7525 47.0598C55.4997 46.2385 55.233 45.3961 54.9522 44.5748C54.9074 44.5206 54.8518 44.4764 54.7889 44.445C54.7261 44.4136 54.6573 44.3956 54.5871 44.3922Z" fill="#5C036B"/>
<path d="M59.1298 38.7406C59.0382 38.7679 58.9407 38.7679 58.849 38.7406C58.7016 38.6704 58.5121 38.5299 58.498 38.4036C58.5076 38.3205 58.5376 38.2412 58.5854 38.1725C58.6332 38.1039 58.6972 38.0482 58.7718 38.0105C59.1411 37.9449 59.5137 37.9003 59.888 37.8771L61.4675 37.7227C61.7623 37.7227 62.0853 37.7226 62.0431 38.0947C62.0431 38.2562 61.7343 38.4808 61.5447 38.5089C60.7866 38.6072 60.0214 38.6563 59.1298 38.7406Z" fill="#5C036B"/>
<path d="M58.9811 38.8611C58.9202 38.8606 58.8601 38.8462 58.8056 38.8189C58.7424 38.8189 58.4195 38.6224 58.3984 38.4047C58.4047 38.2963 58.4408 38.1918 58.5028 38.1026C58.5647 38.0134 58.6501 37.9431 58.7494 37.8993C59.0201 37.8431 59.2947 37.8079 59.5708 37.794H59.8797H59.9288L61.4592 37.6466C61.5596 37.6236 61.6639 37.623 61.7646 37.6449C61.8653 37.6667 61.9599 37.7104 62.0418 37.773C62.0853 37.8208 62.1173 37.8779 62.1355 37.9399C62.1538 38.0019 62.1577 38.0672 62.1471 38.131C62.1471 38.3416 61.7891 38.5943 61.5574 38.6294C61.0099 38.7136 60.4483 38.7628 59.8586 38.8119L59.1566 38.8751C59.0978 38.8773 59.0388 38.8726 58.9811 38.8611ZM61.6136 37.801H61.4732L59.9499 37.9555H59.9007H59.5848C59.3203 37.9693 59.0574 38.0045 58.7986 38.0608C58.7466 38.0912 58.7019 38.1328 58.668 38.1826C58.634 38.2323 58.6114 38.2891 58.602 38.3486C58.602 38.4048 58.7284 38.5241 58.8898 38.6013C58.9561 38.6223 59.0272 38.6223 59.0934 38.6013L59.7954 38.5381C60.3851 38.489 60.9397 38.4398 61.4872 38.3626C61.6487 38.3626 61.8944 38.131 61.9014 38.0397C61.9082 38.0054 61.9072 37.9699 61.8987 37.936C61.8903 37.902 61.8744 37.8703 61.8523 37.8431C61.7771 37.8028 61.6909 37.788 61.6066 37.801H61.6136Z" fill="#5C036B"/>
<path d="M45.5603 34.6613C45.455 35.0052 45.2865 35.1878 44.9776 35.0474C44.1282 34.6613 43.2858 34.2681 42.4574 33.8399C42.3643 33.798 42.2917 33.7209 42.2555 33.6254C42.2193 33.53 42.2225 33.4241 42.2644 33.331C42.3063 33.2379 42.3834 33.1652 42.4789 33.129C42.5743 33.0928 42.6802 33.096 42.7733 33.1379C43.6298 33.51 44.4722 33.9171 45.3075 34.3313C45.462 34.4085 45.462 34.57 45.5603 34.6613Z" fill="#5C036B"/>
<path d="M45.1666 35.1937C45.0864 35.1902 45.0077 35.1711 44.9349 35.1376C44.1697 34.7936 43.2711 34.3794 42.4077 33.9301C42.3184 33.8557 42.252 33.7576 42.2159 33.647C42.1799 33.5365 42.1758 33.418 42.2041 33.3053C42.2727 33.2116 42.3666 33.1393 42.4747 33.0971C42.5829 33.0548 42.7009 33.0442 42.8149 33.0666C43.7134 33.4527 44.605 33.888 45.3561 34.2601C45.4555 34.3189 45.534 34.4072 45.5807 34.5128L45.6369 34.597L45.672 34.6391V34.6883C45.6533 34.7855 45.6142 34.8777 45.5573 34.9587C45.5005 35.0398 45.4271 35.1079 45.3421 35.1586C45.287 35.1836 45.227 35.1956 45.1666 35.1937ZM42.7025 33.2492C42.5837 33.2562 42.4715 33.3061 42.3866 33.3896C42.3798 33.4538 42.3862 33.5187 42.4055 33.5803C42.4249 33.6418 42.4567 33.6988 42.499 33.7476C43.3624 34.1968 44.261 34.611 45.0191 34.955C45.0542 34.9718 45.0926 34.9806 45.1315 34.9806C45.1703 34.9806 45.2087 34.9718 45.2438 34.955C45.328 34.9199 45.3912 34.8217 45.4474 34.6532C45.4439 34.6346 45.4439 34.6156 45.4474 34.597C45.4052 34.5268 45.3561 34.4426 45.2999 34.4215C44.5488 34.0494 43.6643 33.6142 42.7727 33.2281L42.7025 33.2492Z" fill="#5C036B"/>
</svg>
