<svg width="385" height="87" viewBox="0 0 385 87" fill="none" xmlns="http://www.w3.org/2000/svg">
<path d="M114.503 28.2358L121.658 20.7658C122.063 20.3308 122.408 19.9258 122.693 19.5508C122.978 19.1758 123.195 18.8008 123.345 18.4258C123.495 18.0508 123.57 17.6608 123.57 17.2558C123.57 16.9708 123.518 16.6933 123.413 16.4233C123.308 16.1533 123.15 15.9133 122.94 15.7033C122.73 15.4933 122.475 15.3283 122.175 15.2083C121.875 15.0733 121.53 15.0058 121.14 15.0058C120.585 15.0058 120.105 15.1408 119.7 15.4108C119.31 15.6658 119.003 16.0333 118.778 16.5133C118.568 16.9933 118.463 17.5483 118.463 18.1783H115.313C115.313 17.0533 115.538 16.0408 115.988 15.1408C116.438 14.2408 117.098 13.5283 117.968 13.0033C118.853 12.4633 119.933 12.1933 121.208 12.1933C122.153 12.1933 122.978 12.3433 123.683 12.6433C124.403 12.9283 124.995 13.3108 125.46 13.7908C125.94 14.2558 126.293 14.7733 126.518 15.3433C126.758 15.9133 126.878 16.4833 126.878 17.0533C126.878 17.8933 126.675 18.6808 126.27 19.4158C125.865 20.1508 125.333 20.8183 124.673 21.4183L120.578 25.2883H127.17V28.2358H114.503ZM129.913 26.9083C129.913 26.3983 130.086 25.9708 130.431 25.6258C130.791 25.2658 131.233 25.0858 131.758 25.0858C132.298 25.0858 132.741 25.2658 133.086 25.6258C133.431 25.9708 133.603 26.3983 133.603 26.9083C133.603 27.3883 133.431 27.8083 133.086 28.1683C132.741 28.5283 132.298 28.7083 131.758 28.7083C131.233 28.7083 130.791 28.5283 130.431 28.1683C130.086 27.8083 129.913 27.3883 129.913 26.9083ZM146.253 20.3608C146.253 21.3658 146.463 22.2583 146.883 23.0383C147.303 23.8183 147.881 24.4333 148.616 24.8833C149.351 25.3333 150.206 25.5583 151.181 25.5583C152.156 25.5583 153.011 25.3333 153.746 24.8833C154.481 24.4333 155.051 23.8183 155.456 23.0383C155.876 22.2583 156.086 21.3658 156.086 20.3608C156.086 19.3558 155.883 18.4633 155.478 17.6833C155.073 16.9033 154.503 16.2883 153.768 15.8383C153.033 15.3883 152.171 15.1633 151.181 15.1633C150.206 15.1633 149.351 15.3883 148.616 15.8383C147.881 16.2883 147.303 16.9033 146.883 17.6833C146.463 18.4633 146.253 19.3558 146.253 20.3608ZM142.856 20.3608C142.856 19.1608 143.066 18.0658 143.486 17.0758C143.906 16.0708 144.491 15.2008 145.241 14.4658C145.991 13.7308 146.868 13.1683 147.873 12.7783C148.893 12.3733 149.996 12.1708 151.181 12.1708C152.381 12.1708 153.483 12.3733 154.488 12.7783C155.493 13.1683 156.371 13.7308 157.121 14.4658C157.886 15.2008 158.471 16.0708 158.876 17.0758C159.296 18.0658 159.506 19.1608 159.506 20.3608C159.506 21.5458 159.296 22.6483 158.876 23.6683C158.471 24.6733 157.893 25.5508 157.143 26.3008C156.408 27.0508 155.531 27.6358 154.511 28.0558C153.506 28.4608 152.396 28.6633 151.181 28.6633C149.966 28.6633 148.848 28.4608 147.828 28.0558C146.823 27.6358 145.946 27.0508 145.196 26.3008C144.446 25.5508 143.868 24.6733 143.463 23.6683C143.058 22.6483 142.856 21.5458 142.856 20.3608ZM168.406 21.9358C168.406 21.2458 168.271 20.7208 168.001 20.3608C167.731 20.0008 167.296 19.8208 166.696 19.8208C166.291 19.8208 165.931 19.9108 165.616 20.0908C165.301 20.2558 165.061 20.4958 164.896 20.8108C164.731 21.1258 164.648 21.5008 164.648 21.9358V28.2358H161.723V17.8858H164.648V19.4608C164.963 18.8758 165.376 18.4333 165.886 18.1333C166.411 17.8183 167.041 17.6608 167.776 17.6608C169.006 17.6608 169.921 18.0133 170.521 18.7183C171.121 19.4083 171.421 20.3758 171.421 21.6208V28.2358H168.406V21.9358ZM179.174 28.4608C178.049 28.4608 177.067 28.2358 176.227 27.7858C175.387 27.3358 174.734 26.7133 174.269 25.9183C173.819 25.1083 173.594 24.1558 173.594 23.0608C173.594 21.9508 173.819 20.9983 174.269 20.2033C174.734 19.3933 175.387 18.7708 176.227 18.3358C177.067 17.8858 178.057 17.6608 179.197 17.6608C180.337 17.6608 181.304 17.8708 182.099 18.2908C182.909 18.6958 183.524 19.2958 183.944 20.0908C184.364 20.8708 184.574 21.8158 184.574 22.9258C184.574 23.0608 184.567 23.2033 184.552 23.3533C184.552 23.5033 184.544 23.6233 184.529 23.7133H175.259V21.9133H181.987L181.199 22.9483C181.259 22.8583 181.312 22.7383 181.357 22.5883C181.417 22.4233 181.447 22.2883 181.447 22.1833C181.447 21.6733 181.349 21.2383 181.154 20.8783C180.974 20.5183 180.712 20.2333 180.367 20.0233C180.022 19.8133 179.617 19.7083 179.152 19.7083C178.582 19.7083 178.102 19.8358 177.712 20.0908C177.337 20.3308 177.044 20.6983 176.834 21.1933C176.639 21.6733 176.534 22.2733 176.519 22.9933C176.519 23.6833 176.617 24.2683 176.812 24.7483C177.022 25.2283 177.329 25.5958 177.734 25.8508C178.139 26.1058 178.627 26.2333 179.197 26.2333C179.842 26.2333 180.389 26.1133 180.839 25.8733C181.304 25.6183 181.687 25.2433 181.987 24.7483L184.529 25.5358C183.989 26.5108 183.269 27.2458 182.369 27.7408C181.484 28.2208 180.419 28.4608 179.174 28.4608ZM208.233 22.2733L211.608 12.4858H215.388L208.75 29.1133L203.8 18.7633L198.828 29.1133L192.213 12.4858H195.993L199.413 22.2733L203.8 11.6983L208.233 22.2733ZM216.805 13.8808C216.805 13.4008 216.978 13.0108 217.323 12.7108C217.668 12.3958 218.08 12.2383 218.56 12.2383C219.04 12.2383 219.445 12.3958 219.775 12.7108C220.12 13.0108 220.293 13.4008 220.293 13.8808C220.293 14.3458 220.12 14.7358 219.775 15.0508C219.445 15.3658 219.04 15.5233 218.56 15.5233C218.08 15.5233 217.668 15.3658 217.323 15.0508C216.978 14.7358 216.805 14.3458 216.805 13.8808ZM217.12 17.8858H219.955V28.2358H217.12V17.8858ZM223.566 24.6583C224.001 25.0633 224.406 25.3933 224.781 25.6483C225.156 25.8883 225.509 26.0683 225.839 26.1883C226.184 26.3083 226.506 26.3683 226.806 26.3683C227.196 26.3683 227.496 26.2858 227.706 26.1208C227.916 25.9408 228.021 25.7008 228.021 25.4008C228.021 25.1308 227.931 24.9058 227.751 24.7258C227.586 24.5308 227.339 24.3583 227.009 24.2083C226.679 24.0583 226.259 23.9008 225.749 23.7358C225.269 23.5558 224.804 23.3458 224.354 23.1058C223.904 22.8508 223.529 22.5208 223.229 22.1158C222.944 21.6958 222.801 21.1633 222.801 20.5183C222.801 19.9033 222.966 19.3858 223.296 18.9658C223.626 18.5308 224.069 18.2083 224.624 17.9983C225.194 17.7733 225.824 17.6608 226.514 17.6608C227.099 17.6608 227.646 17.7358 228.156 17.8858C228.666 18.0358 229.139 18.2383 229.574 18.4933C230.009 18.7333 230.391 19.0183 230.721 19.3483L229.439 21.1483C229.064 20.7433 228.614 20.4133 228.089 20.1583C227.579 19.9033 227.076 19.7758 226.581 19.7758C226.251 19.7758 225.989 19.8433 225.794 19.9783C225.614 20.0983 225.524 20.2858 225.524 20.5408C225.524 20.7658 225.614 20.9683 225.794 21.1483C225.989 21.3133 226.259 21.4633 226.604 21.5983C226.964 21.7333 227.369 21.8983 227.819 22.0933C228.374 22.3033 228.884 22.5433 229.349 22.8133C229.829 23.0683 230.211 23.3908 230.496 23.7808C230.781 24.1708 230.924 24.6808 230.924 25.3108C230.924 26.3458 230.586 27.1558 229.911 27.7408C229.236 28.3108 228.306 28.5958 227.121 28.5958C226.386 28.5958 225.711 28.4983 225.096 28.3033C224.496 28.1083 223.949 27.8533 223.454 27.5383C222.974 27.2083 222.539 26.8558 222.149 26.4808L223.566 24.6583ZM235.862 10.6858V28.2358H232.937V10.6858H235.862ZM239.619 21.9358C239.619 21.2458 239.484 20.7208 239.214 20.3608C238.959 20.0008 238.524 19.8208 237.909 19.8208C237.504 19.8208 237.144 19.9108 236.829 20.0908C236.514 20.2558 236.274 20.4958 236.109 20.8108C235.944 21.1258 235.862 21.5008 235.862 21.9358H235.277C235.277 21.1108 235.412 20.3683 235.682 19.7083C235.967 19.0483 236.387 18.5233 236.942 18.1333C237.497 17.7433 238.179 17.5483 238.989 17.5483C239.799 17.5483 240.467 17.6983 240.992 17.9983C241.517 18.2983 241.907 18.7483 242.162 19.3483C242.417 19.9333 242.544 20.6533 242.544 21.5083V28.2358H239.619V21.9358ZM246.88 25.7608L249.782 26.4808L247.06 32.1058L244.9 31.5883L246.88 25.7608ZM262.115 20.3608C262.115 21.3658 262.325 22.2583 262.745 23.0383C263.165 23.8183 263.743 24.4333 264.478 24.8833C265.213 25.3333 266.068 25.5583 267.043 25.5583C268.018 25.5583 268.873 25.3333 269.608 24.8833C270.343 24.4333 270.913 23.8183 271.318 23.0383C271.738 22.2583 271.948 21.3658 271.948 20.3608C271.948 19.3558 271.745 18.4633 271.34 17.6833C270.935 16.9033 270.365 16.2883 269.63 15.8383C268.895 15.3883 268.033 15.1633 267.043 15.1633C266.068 15.1633 265.213 15.3883 264.478 15.8383C263.743 16.2883 263.165 16.9033 262.745 17.6833C262.325 18.4633 262.115 19.3558 262.115 20.3608ZM258.718 20.3608C258.718 19.1608 258.928 18.0658 259.348 17.0758C259.768 16.0708 260.353 15.2008 261.103 14.4658C261.853 13.7308 262.73 13.1683 263.735 12.7783C264.755 12.3733 265.858 12.1708 267.043 12.1708C268.243 12.1708 269.345 12.3733 270.35 12.7783C271.355 13.1683 272.233 13.7308 272.983 14.4658C273.748 15.2008 274.333 16.0708 274.738 17.0758C275.158 18.0658 275.368 19.1608 275.368 20.3608C275.368 21.5458 275.158 22.6483 274.738 23.6683C274.333 24.6733 273.755 25.5508 273.005 26.3008C272.27 27.0508 271.393 27.6358 270.373 28.0558C269.368 28.4608 268.258 28.6633 267.043 28.6633C265.828 28.6633 264.71 28.4608 263.69 28.0558C262.685 27.6358 261.808 27.0508 261.058 26.3008C260.308 25.5508 259.73 24.6733 259.325 23.6683C258.92 22.6483 258.718 21.5458 258.718 20.3608ZM284.268 21.9358C284.268 21.2458 284.133 20.7208 283.863 20.3608C283.593 20.0008 283.158 19.8208 282.558 19.8208C282.153 19.8208 281.793 19.9108 281.478 20.0908C281.163 20.2558 280.923 20.4958 280.758 20.8108C280.593 21.1258 280.51 21.5008 280.51 21.9358V28.2358H277.585V17.8858H280.51V19.4608C280.825 18.8758 281.238 18.4333 281.748 18.1333C282.273 17.8183 282.903 17.6608 283.638 17.6608C284.868 17.6608 285.783 18.0133 286.383 18.7183C286.983 19.4083 287.283 20.3758 287.283 21.6208V28.2358H284.268V21.9358ZM295.036 28.4608C293.911 28.4608 292.928 28.2358 292.088 27.7858C291.248 27.3358 290.596 26.7133 290.131 25.9183C289.681 25.1083 289.456 24.1558 289.456 23.0608C289.456 21.9508 289.681 20.9983 290.131 20.2033C290.596 19.3933 291.248 18.7708 292.088 18.3358C292.928 17.8858 293.918 17.6608 295.058 17.6608C296.198 17.6608 297.166 17.8708 297.961 18.2908C298.771 18.6958 299.386 19.2958 299.806 20.0908C300.226 20.8708 300.436 21.8158 300.436 22.9258C300.436 23.0608 300.428 23.2033 300.413 23.3533C300.413 23.5033 300.406 23.6233 300.391 23.7133H291.121V21.9133H297.848L297.061 22.9483C297.121 22.8583 297.173 22.7383 297.218 22.5883C297.278 22.4233 297.308 22.2883 297.308 22.1833C297.308 21.6733 297.211 21.2383 297.016 20.8783C296.836 20.5183 296.573 20.2333 296.228 20.0233C295.883 19.8133 295.478 19.7083 295.013 19.7083C294.443 19.7083 293.963 19.8358 293.573 20.0908C293.198 20.3308 292.906 20.6983 292.696 21.1933C292.501 21.6733 292.396 22.2733 292.381 22.9933C292.381 23.6833 292.478 24.2683 292.673 24.7483C292.883 25.2283 293.191 25.5958 293.596 25.8508C294.001 26.1058 294.488 26.2333 295.058 26.2333C295.703 26.2333 296.251 26.1133 296.701 25.8733C297.166 25.6183 297.548 25.2433 297.848 24.7483L300.391 25.5358C299.851 26.5108 299.131 27.2458 298.231 27.7408C297.346 28.2208 296.281 28.4608 295.036 28.4608ZM312.237 20.3608C312.237 21.3958 312.469 22.3033 312.934 23.0833C313.414 23.8483 314.037 24.4408 314.802 24.8608C315.567 25.2658 316.399 25.4683 317.299 25.4683C318.049 25.4683 318.717 25.3708 319.302 25.1758C319.887 24.9808 320.412 24.7183 320.877 24.3883C321.357 24.0583 321.769 23.6983 322.114 23.3083V26.9308C321.469 27.4408 320.764 27.8383 319.999 28.1233C319.249 28.4083 318.297 28.5508 317.142 28.5508C315.942 28.5508 314.824 28.3558 313.789 27.9658C312.769 27.5758 311.877 27.0133 311.112 26.2783C310.362 25.5433 309.777 24.6808 309.357 23.6908C308.952 22.6858 308.749 21.5758 308.749 20.3608C308.749 19.1458 308.952 18.0433 309.357 17.0533C309.777 16.0483 310.362 15.1783 311.112 14.4433C311.877 13.7083 312.769 13.1458 313.789 12.7558C314.824 12.3658 315.942 12.1708 317.142 12.1708C318.297 12.1708 319.249 12.3133 319.999 12.5983C320.764 12.8833 321.469 13.2808 322.114 13.7908V17.4133C321.769 17.0233 321.357 16.6633 320.877 16.3333C320.412 16.0033 319.887 15.7408 319.302 15.5458C318.717 15.3508 318.049 15.2533 317.299 15.2533C316.399 15.2533 315.567 15.4633 314.802 15.8833C314.037 16.2883 313.414 16.8733 312.934 17.6383C312.469 18.4033 312.237 19.3108 312.237 20.3608ZM327.971 10.6858V28.2358H325.046V10.6858H327.971ZM331.728 21.9358C331.728 21.2458 331.593 20.7208 331.323 20.3608C331.068 20.0008 330.633 19.8208 330.018 19.8208C329.613 19.8208 329.253 19.9108 328.938 20.0908C328.623 20.2558 328.383 20.4958 328.218 20.8108C328.053 21.1258 327.971 21.5008 327.971 21.9358H327.386C327.386 21.1108 327.521 20.3683 327.791 19.7083C328.076 19.0483 328.496 18.5233 329.051 18.1333C329.606 17.7433 330.288 17.5483 331.098 17.5483C331.908 17.5483 332.576 17.6983 333.101 17.9983C333.626 18.2983 334.016 18.7483 334.271 19.3483C334.526 19.9333 334.653 20.6533 334.653 21.5083V28.2358H331.728V21.9358ZM339.596 25.0183C339.596 25.3183 339.671 25.5808 339.821 25.8058C339.971 26.0158 340.174 26.1808 340.429 26.3008C340.699 26.4058 340.991 26.4583 341.306 26.4583C341.756 26.4583 342.161 26.3683 342.521 26.1883C342.881 25.9933 343.174 25.7233 343.399 25.3783C343.624 25.0183 343.736 24.5908 343.736 24.0958L344.096 25.4458C344.096 26.1058 343.909 26.6608 343.534 27.1108C343.174 27.5608 342.701 27.8983 342.116 28.1233C341.546 28.3483 340.946 28.4608 340.316 28.4608C339.671 28.4608 339.071 28.3333 338.516 28.0783C337.961 27.8233 337.511 27.4558 337.166 26.9758C336.836 26.4808 336.671 25.8808 336.671 25.1758C336.671 24.1708 337.024 23.3758 337.729 22.7908C338.434 22.2058 339.431 21.9133 340.721 21.9133C341.381 21.9133 341.959 21.9808 342.454 22.1158C342.964 22.2508 343.391 22.4158 343.736 22.6108C344.081 22.8058 344.329 22.9933 344.479 23.1733V24.5233C344.074 24.2233 343.616 23.9983 343.106 23.8483C342.611 23.6983 342.086 23.6233 341.531 23.6233C341.081 23.6233 340.714 23.6833 340.429 23.8033C340.144 23.9083 339.934 24.0658 339.799 24.2758C339.664 24.4708 339.596 24.7183 339.596 25.0183ZM338.471 20.8108L337.391 18.8308C337.931 18.5458 338.591 18.2758 339.371 18.0208C340.151 17.7508 341.021 17.6158 341.981 17.6158C342.866 17.6158 343.654 17.7433 344.344 17.9983C345.034 18.2533 345.574 18.6283 345.964 19.1233C346.354 19.6033 346.549 20.1958 346.549 20.9008V28.2358H343.736V21.5083C343.736 21.2233 343.691 20.9833 343.601 20.7883C343.511 20.5783 343.369 20.4058 343.174 20.2708C342.994 20.1358 342.776 20.0383 342.521 19.9783C342.266 19.9183 341.981 19.8883 341.666 19.8883C341.186 19.8883 340.729 19.9408 340.294 20.0458C339.859 20.1508 339.484 20.2783 339.169 20.4283C338.854 20.5783 338.621 20.7058 338.471 20.8108ZM355.942 21.9358C355.942 21.2458 355.807 20.7208 355.537 20.3608C355.267 20.0008 354.832 19.8208 354.232 19.8208C353.827 19.8208 353.467 19.9108 353.152 20.0908C352.837 20.2558 352.597 20.4958 352.432 20.8108C352.267 21.1258 352.185 21.5008 352.185 21.9358V28.2358H349.26V17.8858H352.185V19.4608C352.5 18.8758 352.912 18.4333 353.422 18.1333C353.947 17.8183 354.577 17.6608 355.312 17.6608C356.542 17.6608 357.457 18.0133 358.057 18.7183C358.657 19.4083 358.957 20.3758 358.957 21.6208V28.2358H355.942V21.9358ZM364.033 23.0608C364.033 23.6608 364.168 24.1858 364.438 24.6358C364.708 25.0858 365.068 25.4383 365.518 25.6933C365.983 25.9483 366.493 26.0758 367.048 26.0758C367.498 26.0758 367.933 26.0083 368.353 25.8733C368.773 25.7233 369.148 25.5283 369.478 25.2883C369.823 25.0333 370.086 24.7408 370.266 24.4108V27.4033C369.906 27.7333 369.433 27.9958 368.848 28.1908C368.278 28.3708 367.611 28.4608 366.846 28.4608C365.751 28.4608 364.761 28.2358 363.876 27.7858C363.006 27.3358 362.316 26.7058 361.806 25.8958C361.311 25.0708 361.063 24.1258 361.063 23.0608C361.063 21.9808 361.311 21.0358 361.806 20.2258C362.316 19.4158 363.006 18.7858 363.876 18.3358C364.761 17.8858 365.751 17.6608 366.846 17.6608C367.611 17.6608 368.278 17.7583 368.848 17.9533C369.433 18.1333 369.906 18.3808 370.266 18.6958V21.6883C370.086 21.3583 369.816 21.0733 369.456 20.8333C369.111 20.5783 368.728 20.3833 368.308 20.2483C367.888 20.1133 367.468 20.0458 367.048 20.0458C366.493 20.0458 365.983 20.1808 365.518 20.4508C365.068 20.7058 364.708 21.0583 364.438 21.5083C364.168 21.9583 364.033 22.4758 364.033 23.0608ZM377.719 28.4608C376.594 28.4608 375.611 28.2358 374.771 27.7858C373.931 27.3358 373.279 26.7133 372.814 25.9183C372.364 25.1083 372.139 24.1558 372.139 23.0608C372.139 21.9508 372.364 20.9983 372.814 20.2033C373.279 19.3933 373.931 18.7708 374.771 18.3358C375.611 17.8858 376.601 17.6608 377.741 17.6608C378.881 17.6608 379.849 17.8708 380.644 18.2908C381.454 18.6958 382.069 19.2958 382.489 20.0908C382.909 20.8708 383.119 21.8158 383.119 22.9258C383.119 23.0608 383.111 23.2033 383.096 23.3533C383.096 23.5033 383.089 23.6233 383.074 23.7133H373.804V21.9133H380.531L379.744 22.9483C379.804 22.8583 379.856 22.7383 379.901 22.5883C379.961 22.4233 379.991 22.2883 379.991 22.1833C379.991 21.6733 379.894 21.2383 379.699 20.8783C379.519 20.5183 379.256 20.2333 378.911 20.0233C378.566 19.8133 378.161 19.7083 377.696 19.7083C377.126 19.7083 376.646 19.8358 376.256 20.0908C375.881 20.3308 375.589 20.6983 375.379 21.1933C375.184 21.6733 375.079 22.2733 375.064 22.9933C375.064 23.6833 375.161 24.2683 375.356 24.7483C375.566 25.2283 375.874 25.5958 376.279 25.8508C376.684 26.1058 377.171 26.2333 377.741 26.2333C378.386 26.2333 378.934 26.1133 379.384 25.8733C379.849 25.6183 380.231 25.2433 380.531 24.7483L383.074 25.5358C382.534 26.5108 381.814 27.2458 380.914 27.7408C380.029 28.2208 378.964 28.4608 377.719 28.4608Z" fill="#FFF3C2"/>
<path d="M116.861 55.6758C116.861 56.8422 117.12 57.8718 117.638 58.7646C118.171 59.6574 118.862 60.3558 119.712 60.8598C120.562 61.3638 121.483 61.6158 122.477 61.6158C123.197 61.6158 123.852 61.5222 124.442 61.335C125.047 61.1478 125.594 60.8886 126.084 60.5574C126.574 60.2118 126.991 59.8158 127.337 59.3694V61.7886C126.703 62.3502 126.012 62.7678 125.263 63.0414C124.514 63.315 123.586 63.4518 122.477 63.4518C121.426 63.4518 120.439 63.2646 119.518 62.8902C118.61 62.5014 117.811 61.9614 117.12 61.2702C116.429 60.5646 115.889 59.7366 115.5 58.7862C115.111 57.8358 114.917 56.799 114.917 55.6758C114.917 54.5526 115.111 53.5158 115.5 52.5654C115.889 51.615 116.429 50.7942 117.12 50.103C117.811 49.3974 118.61 48.8574 119.518 48.483C120.439 48.0942 121.426 47.8998 122.477 47.8998C123.586 47.8998 124.514 48.0366 125.263 48.3102C126.012 48.5838 126.703 49.0014 127.337 49.563V51.9822C126.991 51.5358 126.574 51.147 126.084 50.8158C125.594 50.4702 125.047 50.2038 124.442 50.0166C123.852 49.8294 123.197 49.7358 122.477 49.7358C121.483 49.7358 120.562 49.9878 119.712 50.4918C118.862 50.9958 118.171 51.6942 117.638 52.587C117.12 53.4654 116.861 54.495 116.861 55.6758ZM132.187 46.3878V63.2358H130.459V46.3878H132.187ZM136.831 57.1878C136.831 56.367 136.651 55.7478 136.291 55.3302C135.946 54.9126 135.42 54.7038 134.715 54.7038C134.211 54.7038 133.764 54.8118 133.375 55.0278C133.001 55.2438 132.706 55.539 132.49 55.9134C132.288 56.2878 132.187 56.7126 132.187 57.1878H131.626C131.626 56.3958 131.777 55.6974 132.079 55.0926C132.382 54.4734 132.792 53.9838 133.311 53.6238C133.843 53.2638 134.455 53.0838 135.147 53.0838C135.838 53.0838 136.435 53.2278 136.939 53.5158C137.458 53.8038 137.854 54.2358 138.127 54.8118C138.415 55.3878 138.559 56.1078 138.559 56.9718V63.2358H136.831V57.1878ZM140.944 58.2678C140.944 57.2598 141.167 56.367 141.613 55.5894C142.074 54.8118 142.693 54.1998 143.471 53.7534C144.249 53.307 145.12 53.0838 146.085 53.0838C147.064 53.0838 147.935 53.307 148.698 53.7534C149.476 54.1998 150.088 54.8118 150.534 55.5894C150.995 56.367 151.225 57.2598 151.225 58.2678C151.225 59.2614 150.995 60.1542 150.534 60.9462C150.088 61.7238 149.476 62.3358 148.698 62.7822C147.935 63.2286 147.064 63.4518 146.085 63.4518C145.12 63.4518 144.249 63.2286 143.471 62.7822C142.693 62.3358 142.074 61.7238 141.613 60.9462C141.167 60.1542 140.944 59.2614 140.944 58.2678ZM142.693 58.2678C142.693 58.959 142.837 59.571 143.125 60.1038C143.428 60.6366 143.831 61.0614 144.335 61.3782C144.853 61.6806 145.437 61.8318 146.085 61.8318C146.733 61.8318 147.309 61.6806 147.813 61.3782C148.331 61.0614 148.734 60.6366 149.022 60.1038C149.325 59.571 149.476 58.959 149.476 58.2678C149.476 57.5766 149.325 56.9646 149.022 56.4318C148.734 55.8846 148.331 55.4598 147.813 55.1574C147.309 54.855 146.733 54.7038 146.085 54.7038C145.437 54.7038 144.853 54.855 144.335 55.1574C143.831 55.4598 143.428 55.8846 143.125 56.4318C142.837 56.9646 142.693 57.5766 142.693 58.2678ZM152.735 58.2678C152.735 57.2598 152.958 56.367 153.405 55.5894C153.866 54.8118 154.485 54.1998 155.262 53.7534C156.04 53.307 156.911 53.0838 157.876 53.0838C158.855 53.0838 159.726 53.307 160.49 53.7534C161.267 54.1998 161.879 54.8118 162.326 55.5894C162.786 56.367 163.017 57.2598 163.017 58.2678C163.017 59.2614 162.786 60.1542 162.326 60.9462C161.879 61.7238 161.267 62.3358 160.49 62.7822C159.726 63.2286 158.855 63.4518 157.876 63.4518C156.911 63.4518 156.04 63.2286 155.262 62.7822C154.485 62.3358 153.866 61.7238 153.405 60.9462C152.958 60.1542 152.735 59.2614 152.735 58.2678ZM154.485 58.2678C154.485 58.959 154.629 59.571 154.917 60.1038C155.219 60.6366 155.622 61.0614 156.126 61.3782C156.645 61.6806 157.228 61.8318 157.876 61.8318C158.524 61.8318 159.1 61.6806 159.604 61.3782C160.122 61.0614 160.526 60.6366 160.814 60.1038C161.116 59.571 161.267 58.959 161.267 58.2678C161.267 57.5766 161.116 56.9646 160.814 56.4318C160.526 55.8846 160.122 55.4598 159.604 55.1574C159.1 54.855 158.524 54.7038 157.876 54.7038C157.228 54.7038 156.645 54.855 156.126 55.1574C155.622 55.4598 155.219 55.8846 154.917 56.4318C154.629 56.9646 154.485 57.5766 154.485 58.2678ZM165.801 60.1902C166.003 60.4926 166.233 60.7734 166.492 61.0326C166.751 61.2918 167.047 61.5006 167.378 61.659C167.723 61.803 168.098 61.875 168.501 61.875C168.991 61.875 169.372 61.767 169.646 61.551C169.934 61.3206 170.078 61.011 170.078 60.6222C170.078 60.2766 169.963 59.9886 169.732 59.7582C169.516 59.5134 169.235 59.3118 168.89 59.1534C168.544 58.9806 168.177 58.8222 167.788 58.6782C167.356 58.5054 166.917 58.3038 166.471 58.0734C166.039 57.8286 165.671 57.519 165.369 57.1446C165.081 56.7558 164.937 56.2734 164.937 55.6974C164.937 55.107 165.088 54.6174 165.391 54.2286C165.707 53.8398 166.111 53.5518 166.6 53.3646C167.104 53.1774 167.623 53.0838 168.155 53.0838C168.688 53.0838 169.185 53.1702 169.646 53.343C170.121 53.5158 170.539 53.7462 170.899 54.0342C171.259 54.3222 171.539 54.6534 171.741 55.0278L170.359 55.9134C170.085 55.539 169.739 55.2294 169.322 54.9846C168.919 54.7398 168.458 54.6174 167.939 54.6174C167.579 54.6174 167.27 54.6966 167.011 54.855C166.751 55.0134 166.622 55.2582 166.622 55.5894C166.622 55.8486 166.723 56.079 166.924 56.2806C167.126 56.4822 167.385 56.6622 167.702 56.8206C168.019 56.979 168.35 57.1302 168.695 57.2742C169.271 57.5046 169.797 57.7566 170.272 58.0302C170.747 58.2894 171.122 58.6062 171.395 58.9806C171.683 59.355 171.827 59.8374 171.827 60.4278C171.827 61.2918 171.511 62.0118 170.877 62.5878C170.258 63.1638 169.437 63.4518 168.415 63.4518C167.752 63.4518 167.155 63.3366 166.622 63.1062C166.089 62.8614 165.635 62.5518 165.261 62.1774C164.901 61.803 164.627 61.4214 164.44 61.0326L165.801 60.1902ZM177.947 63.4518C177.026 63.4518 176.205 63.2358 175.485 62.8038C174.779 62.3574 174.225 61.7454 173.822 60.9678C173.433 60.1902 173.238 59.2902 173.238 58.2678C173.238 57.231 173.44 56.3238 173.843 55.5462C174.261 54.7686 174.837 54.1638 175.571 53.7318C176.32 53.2998 177.184 53.0838 178.163 53.0838C179.142 53.0838 179.978 53.2926 180.669 53.7102C181.374 54.1134 181.914 54.6966 182.289 55.4598C182.663 56.223 182.85 57.1302 182.85 58.1814C182.85 58.2822 182.843 58.3902 182.829 58.5054C182.829 58.6062 182.829 58.671 182.829 58.6998H174.34V57.231H181.468L180.777 58.2246C180.82 58.1526 180.863 58.0446 180.906 57.9006C180.95 57.7422 180.971 57.6126 180.971 57.5118C180.971 56.9214 180.849 56.4102 180.604 55.9782C180.374 55.5462 180.05 55.2078 179.632 54.963C179.214 54.7182 178.725 54.5958 178.163 54.5958C177.501 54.5958 176.932 54.7398 176.457 55.0278C175.996 55.3014 175.636 55.7046 175.377 56.2374C175.132 56.7558 175.002 57.3966 174.988 58.1598C174.988 58.9374 175.11 59.5998 175.355 60.147C175.6 60.6942 175.96 61.1118 176.435 61.3998C176.91 61.6878 177.486 61.8318 178.163 61.8318C178.84 61.8318 179.438 61.6878 179.956 61.3998C180.474 61.0974 180.914 60.6438 181.274 60.039L182.678 60.9246C182.159 61.7598 181.504 62.3934 180.712 62.8254C179.934 63.243 179.013 63.4518 177.947 63.4518ZM190.183 53.2998H192.127L194.611 59.7582L197.311 52.5438L200.205 59.8014L202.711 53.2998H204.655L200.335 63.9918L197.332 56.7558L194.503 63.9918L190.183 53.2998ZM206.376 49.1958C206.376 48.8646 206.491 48.5838 206.721 48.3534C206.966 48.123 207.247 48.0078 207.564 48.0078C207.895 48.0078 208.176 48.123 208.406 48.3534C208.637 48.5838 208.752 48.8646 208.752 49.1958C208.752 49.5126 208.637 49.7934 208.406 50.0382C208.176 50.2686 207.895 50.3838 207.564 50.3838C207.247 50.3838 206.966 50.2686 206.721 50.0382C206.491 49.7934 206.376 49.5126 206.376 49.1958ZM206.7 53.2998H208.428V63.2358H206.7V53.2998ZM212.397 60.1902C212.599 60.4926 212.829 60.7734 213.088 61.0326C213.348 61.2918 213.643 61.5006 213.974 61.659C214.32 61.803 214.694 61.875 215.097 61.875C215.587 61.875 215.968 61.767 216.242 61.551C216.53 61.3206 216.674 61.011 216.674 60.6222C216.674 60.2766 216.559 59.9886 216.328 59.7582C216.112 59.5134 215.832 59.3118 215.486 59.1534C215.14 58.9806 214.773 58.8222 214.384 58.6782C213.952 58.5054 213.513 58.3038 213.067 58.0734C212.635 57.8286 212.268 57.519 211.965 57.1446C211.677 56.7558 211.533 56.2734 211.533 55.6974C211.533 55.107 211.684 54.6174 211.987 54.2286C212.304 53.8398 212.707 53.5518 213.196 53.3646C213.7 53.1774 214.219 53.0838 214.752 53.0838C215.284 53.0838 215.781 53.1702 216.242 53.343C216.717 53.5158 217.135 53.7462 217.495 54.0342C217.855 54.3222 218.136 54.6534 218.337 55.0278L216.955 55.9134C216.681 55.539 216.336 55.2294 215.918 54.9846C215.515 54.7398 215.054 54.6174 214.536 54.6174C214.176 54.6174 213.866 54.6966 213.607 54.855C213.348 55.0134 213.218 55.2582 213.218 55.5894C213.218 55.8486 213.319 56.079 213.52 56.2806C213.722 56.4822 213.981 56.6622 214.298 56.8206C214.615 56.979 214.946 57.1302 215.292 57.2742C215.868 57.5046 216.393 57.7566 216.868 58.0302C217.344 58.2894 217.718 58.6062 217.992 58.9806C218.28 59.355 218.424 59.8374 218.424 60.4278C218.424 61.2918 218.107 62.0118 217.473 62.5878C216.854 63.1638 216.033 63.4518 215.011 63.4518C214.348 63.4518 213.751 63.3366 213.218 63.1062C212.685 62.8614 212.232 62.5518 211.857 62.1774C211.497 61.803 211.224 61.4214 211.036 61.0326L212.397 60.1902ZM224.543 63.4518C223.622 63.4518 222.801 63.2358 222.081 62.8038C221.375 62.3574 220.821 61.7454 220.418 60.9678C220.029 60.1902 219.835 59.2902 219.835 58.2678C219.835 57.231 220.036 56.3238 220.439 55.5462C220.857 54.7686 221.433 54.1638 222.167 53.7318C222.916 53.2998 223.78 53.0838 224.759 53.0838C225.739 53.0838 226.574 53.2926 227.265 53.7102C227.971 54.1134 228.511 54.6966 228.885 55.4598C229.259 56.223 229.447 57.1302 229.447 58.1814C229.447 58.2822 229.439 58.3902 229.425 58.5054C229.425 58.6062 229.425 58.671 229.425 58.6998H220.936V57.231H228.064L227.373 58.2246C227.416 58.1526 227.459 58.0446 227.503 57.9006C227.546 57.7422 227.567 57.6126 227.567 57.5118C227.567 56.9214 227.445 56.4102 227.2 55.9782C226.97 55.5462 226.646 55.2078 226.228 54.963C225.811 54.7182 225.321 54.5958 224.759 54.5958C224.097 54.5958 223.528 54.7398 223.053 55.0278C222.592 55.3014 222.232 55.7046 221.973 56.2374C221.728 56.7558 221.599 57.3966 221.584 58.1598C221.584 58.9374 221.707 59.5998 221.951 60.147C222.196 60.6942 222.556 61.1118 223.031 61.3998C223.507 61.6878 224.083 61.8318 224.759 61.8318C225.436 61.8318 226.034 61.6878 226.552 61.3998C227.071 61.0974 227.51 60.6438 227.87 60.039L229.274 60.9246C228.755 61.7598 228.1 62.3934 227.308 62.8254C226.531 63.243 225.609 63.4518 224.543 63.4518ZM231.815 46.3878H233.543V63.2358H231.815V46.3878ZM244.677 53.2998L238.197 67.9878H236.253L238.975 61.8318L235.173 53.2998H237.225L240.379 61.0758L239.666 60.9894L242.733 53.2998H244.677ZM245.452 62.3718C245.452 62.0406 245.567 61.7598 245.797 61.5294C246.042 61.299 246.323 61.1838 246.64 61.1838C246.971 61.1838 247.252 61.299 247.482 61.5294C247.712 61.7598 247.828 62.0406 247.828 62.3718C247.828 62.6886 247.712 62.9694 247.482 63.2142C247.252 63.4446 246.971 63.5598 246.64 63.5598C246.323 63.5598 246.042 63.4446 245.797 63.2142C245.567 62.9694 245.452 62.6886 245.452 62.3718Z" fill="white"/>
<path d="M44.4233 86.8936C68.4183 86.8936 87.8701 67.4418 87.8701 43.4468C87.8701 19.4518 68.4183 0 44.4233 0C20.4283 0 0.976562 19.4518 0.976562 43.4468C0.976562 67.4418 20.4283 86.8936 44.4233 86.8936Z" fill="white"/>
<path d="M48.3391 23.2965L49.2096 23.4299C50.3749 23.6405 50.754 24.0897 50.754 25.2621V55.4481H55.8997C56.3392 55.3955 56.7824 55.5109 57.1404 55.7713C57.4984 56.0317 57.7448 56.4177 57.8302 56.8521C58.2863 58.4082 58.2863 60.0625 57.8302 61.6187C57.7419 62.0369 57.4992 62.4065 57.1505 62.6537C56.8018 62.9009 56.3727 63.0076 55.9488 62.9524H35.5908C35.151 63.0067 34.707 62.8919 34.3486 62.6313C33.9902 62.3706 33.7442 61.9836 33.6603 61.5484C33.4977 61.006 33.4102 60.4439 33.4006 59.8777C33.3776 58.9516 33.4435 58.0254 33.5971 57.1118C33.6229 56.864 33.6985 56.624 33.8195 56.4062C33.9405 56.1884 34.1043 55.9973 34.301 55.8445C34.4978 55.6917 34.7234 55.5803 34.9644 55.517C35.2054 55.4537 35.4567 55.4398 35.7031 55.4762C37.4932 55.5183 39.2833 55.4762 41.0804 55.4762H41.5227V47.6699C41.5163 47.4774 41.5424 47.2851 41.5999 47.1013C41.6547 46.9388 41.767 46.802 41.9158 46.7166C42.0645 46.6312 42.2393 46.6033 42.4072 46.638C42.5747 46.6577 42.7305 46.7337 42.8492 46.8536C42.9678 46.9735 43.0422 47.1302 43.0601 47.2979C43.0671 47.4147 43.0671 47.532 43.0601 47.6489V55.9816C43.0601 56.7608 42.8284 56.9995 42.0492 56.9995C39.8941 56.9995 37.7389 56.9995 35.5908 56.9995C35.5279 56.9886 35.4634 56.9905 35.4013 57.0053C35.3392 57.0201 35.2808 57.0474 35.2296 57.0854C35.1783 57.1235 35.1354 57.1717 35.1034 57.2269C35.0713 57.2821 35.0509 57.3433 35.0433 57.4067C34.7765 58.6041 34.7765 59.8456 35.0433 61.043C35.1064 61.3098 35.2609 61.401 35.5417 61.401C42.2996 61.401 49.0575 61.401 55.8154 61.401C56.1243 61.401 56.2717 61.2887 56.3279 61.0149C56.57 59.8362 56.57 58.6205 56.3279 57.4418C56.2647 57.1188 56.0892 56.9925 55.7312 56.9995C53.8709 56.9995 52.0176 56.9995 50.1573 56.9995C49.3641 56.9995 49.1254 56.7538 49.1254 55.9535V24.9953C48.8513 24.9469 48.5748 24.9141 48.297 24.897C46.893 24.897 45.5452 24.897 44.1622 24.897C43.9117 24.9101 43.6693 24.9901 43.4602 25.1287C40.8698 26.7994 38.2935 28.4913 35.6891 30.1339C35.3787 30.2896 35.1219 30.5345 34.9518 30.8373C34.7816 31.14 34.7059 31.4867 34.7344 31.8328C34.7905 32.6401 34.7976 33.4544 34.8256 34.2617C34.8501 34.3809 34.883 34.4982 34.9239 34.6127C35.303 34.4372 35.661 34.3038 35.998 34.1213C37.87 33.087 39.7537 32.0504 41.6491 31.0114C42.4213 30.5832 42.9759 30.9062 42.9759 31.7837C42.9759 34.5917 42.9759 37.416 42.9759 40.2568C42.9759 40.8254 42.7091 41.1483 42.2739 41.1624C42.164 41.17 42.0539 41.1536 41.951 41.1144C41.8482 41.0752 41.7551 41.014 41.6783 40.9352C41.6015 40.8564 41.5428 40.7618 41.5062 40.6579C41.4696 40.5541 41.4561 40.4436 41.4665 40.334C41.4665 39.632 41.4665 38.8879 41.4665 38.1648V32.9139L41.0313 33.1385C39.6273 33.9248 38.2233 34.718 36.7631 35.4832C36.3461 35.7115 35.9061 35.8951 35.4504 36.0308C35.2386 36.1165 35.0098 36.1523 34.7819 36.1354C34.554 36.1185 34.333 36.0493 34.1361 35.9332C33.9392 35.8171 33.7718 35.6573 33.6466 35.466C33.5215 35.2747 33.4421 35.0572 33.4146 34.8303C33.2918 34.135 33.2284 33.4304 33.2251 32.7243C33.2134 32.1075 33.2439 31.4907 33.3163 30.8781C33.3524 30.5421 33.4648 30.2189 33.6449 29.933C33.8249 29.647 34.0679 29.4061 34.3553 29.2284L40.0204 25.5359C40.8558 24.9953 41.6982 24.4688 42.5195 23.9072C42.9977 23.5777 43.555 23.3815 44.1341 23.3386C44.222 23.3234 44.3088 23.3023 44.3939 23.2754L48.3391 23.2965Z" fill="#5C036B"/>
<path d="M43.0894 43.902C43.0922 44.0022 43.0751 44.1019 43.0391 44.1954C43.0032 44.2889 42.949 44.3744 42.8798 44.4468C42.8106 44.5193 42.7278 44.5773 42.636 44.6176C42.5442 44.6578 42.4454 44.6795 42.3453 44.6813C42.2448 44.6813 42.1453 44.6615 42.0524 44.623C41.9596 44.5846 41.8752 44.5282 41.8042 44.4571C41.7331 44.3861 41.6768 44.3017 41.6383 44.2089C41.5999 44.1161 41.5801 44.0166 41.5801 43.9161C41.5801 43.8156 41.5999 43.7161 41.6383 43.6233C41.6768 43.5304 41.7331 43.4461 41.8042 43.375C41.8752 43.304 41.9596 43.2476 42.0524 43.2092C42.1453 43.1707 42.2448 43.1509 42.3453 43.1509C42.5433 43.1527 42.7325 43.2327 42.8719 43.3734C43.0112 43.514 43.0894 43.704 43.0894 43.902Z" fill="#5C036B"/>
</svg>
