<svg width="351" height="93" viewBox="0 0 351 93" fill="none" xmlns="http://www.w3.org/2000/svg">
<path d="M43.4468 87.3135C67.4418 87.3135 86.8935 67.8617 86.8935 43.8667C86.8935 19.8717 67.4418 0.419922 43.4468 0.419922C19.4518 0.419922 0 19.8717 0 43.8667C0 67.8617 19.4518 87.3135 43.4468 87.3135Z" fill="white"/>
<path d="M42.3367 18.6333C45.855 18.6326 49.2479 19.9406 51.8554 22.3028C54.4628 24.665 56.0985 27.9126 56.4442 31.414C56.7899 34.9153 55.821 38.4201 53.7259 41.2467C51.6308 44.0732 48.5592 46.0195 45.1087 46.7069C41.6581 47.3944 38.0752 46.7738 35.0568 44.966C32.0384 43.1581 29.8003 40.2923 28.7778 36.9258C27.7553 33.5593 28.0214 29.9328 29.5245 26.7516C31.0276 23.5705 33.6602 21.0621 36.9102 19.7144C38.6304 19.001 40.4744 18.6337 42.3367 18.6333ZM42.3367 20.1215C39.4026 20.1165 36.5576 21.1294 34.2868 22.9873C32.016 24.8453 30.4599 27.4334 29.8838 30.3103C29.3077 33.1873 29.7472 36.175 31.1276 38.7641C32.5079 41.3532 34.7435 43.3833 37.4532 44.5085C40.163 45.6337 43.1791 45.7841 45.9874 44.9343C48.7957 44.0844 51.2222 42.2868 52.8534 39.8479C54.4846 37.4091 55.2193 34.48 54.9324 31.56C54.6456 28.64 53.3548 25.9099 51.2801 23.8351C48.9164 21.4712 45.7147 20.1365 42.3718 20.1215H42.3367Z" fill="#5C036B"/>
<path d="M53.1831 55.1635C52.5308 54.5466 52.0207 53.7949 51.6886 52.9608C51.3564 52.1267 51.21 51.2302 51.2596 50.3337C51.1619 49.0468 51.3613 47.7546 51.8423 46.557C52.4414 45.3379 53.4359 44.3577 54.6636 43.7764C55.8913 43.195 57.2798 43.0468 58.6025 43.3559C59.9042 43.6376 61.0705 44.3557 61.9081 45.3912C62.7456 46.4266 63.2042 47.7173 63.2076 49.0491C63.2076 49.9336 63.1796 50.8181 63.1234 51.7026C62.9879 52.8532 62.4801 53.928 61.6773 54.7634L61.3403 55.1284C61.6823 55.1289 62.0234 55.1641 62.3582 55.2337C63.1641 55.3445 63.9075 55.7286 64.4642 56.3218C65.0188 56.9096 65.3535 57.6709 65.4119 58.4769C65.5242 60.5829 65.4119 62.6889 65.4119 64.837H63.9658V59.0807C63.9927 58.7542 63.9471 58.4257 63.8324 58.1189C63.6617 57.6548 63.3432 57.2598 62.9258 56.9946C62.5084 56.7295 62.0155 56.609 61.5228 56.6517H53.0076C52.6735 56.6203 52.3366 56.6631 52.0211 56.7772C51.7055 56.8913 51.4191 57.0738 51.1824 57.3116C50.9467 57.5514 50.769 57.842 50.6629 58.161C50.5524 58.4761 50.514 58.8119 50.5506 59.1438V64.8511H49.0694V59.2351C49.0294 58.7092 49.101 58.1808 49.2796 57.6846C49.4582 57.1883 49.7397 56.7354 50.1056 56.3556C50.4715 55.9758 50.9136 55.6776 51.4028 55.4806C51.892 55.2836 52.4174 55.1923 52.9444 55.2126L53.1831 55.1635ZM61.7966 49.1123C60.6445 48.9641 59.5356 48.5793 58.5393 47.982C58.3851 47.9262 58.2162 47.9262 58.062 47.982C57.1283 48.2066 56.2087 48.4804 55.254 48.684C54.4397 48.8595 53.6113 48.9648 52.7619 49.1052V50.8883C52.742 51.9963 53.1336 53.0724 53.861 53.9085C54.5884 54.7446 55.5999 55.2813 56.7 55.4149C57.8002 55.5485 58.9108 55.2695 59.8171 54.6318C60.7235 53.9941 61.3612 53.043 61.6071 51.9624C61.7497 51.019 61.8225 50.0664 61.8247 49.1123H61.7966ZM53.0778 47.5398C54.7272 47.3659 56.3491 46.991 57.9075 46.4236C58.1287 46.3291 58.3716 46.2975 58.6095 46.3323C58.8428 46.3678 59.0615 46.4674 59.2413 46.6202C59.8646 47.1101 60.6098 47.4207 61.3965 47.5187C61.0736 46.6531 60.4804 45.9145 59.7047 45.4127C58.9312 44.9065 58.0163 44.6605 57.0932 44.7107C56.2182 44.7132 55.365 44.9836 54.6483 45.4856C53.9317 45.9877 53.386 46.6972 53.0848 47.5187L53.0778 47.5398Z" fill="#5C036B"/>
<path d="M31.5892 55.0841C32.178 55.1618 32.7584 55.2934 33.3231 55.4772C33.9861 55.7147 34.5612 56.1479 34.9724 56.7195C35.3836 57.2912 35.6114 57.9743 35.6257 58.6784C35.6959 60.7001 35.6257 62.7429 35.6257 64.8138H34.1515V59.0855C34.1798 58.7618 34.1367 58.4359 34.0251 58.1308C33.8573 57.6716 33.5429 57.2804 33.1305 57.0178C32.7181 56.7551 32.2307 56.6356 31.7436 56.6776H23.116C22.7965 56.6518 22.4752 56.6974 22.1754 56.811C21.8779 56.9243 21.6076 57.0989 21.3821 57.3235C21.1589 57.5529 20.9846 57.8251 20.8696 58.1238C20.756 58.4235 20.7104 58.7449 20.7363 59.0645V64.8489H19.2199V64.3716C19.2199 62.7219 19.2831 61.0722 19.2199 59.4576C19.1618 58.8977 19.2265 58.3319 19.4095 57.7996C19.5926 57.2673 19.8897 56.7814 20.28 56.3758C20.6766 55.9721 21.1554 55.6585 21.684 55.4562C22.2092 55.2538 22.772 55.1675 23.3337 55.2035C23.2564 55.0982 23.2003 55.0139 23.1371 54.9437C22.5968 54.3988 22.1739 53.7489 21.8946 53.0343C21.613 52.3197 21.4792 51.5555 21.5014 50.7878C21.4638 49.7688 21.5249 48.7485 21.684 47.7412C22.0318 46.3376 22.8787 45.1086 24.0664 44.2837C25.2541 43.4588 26.7015 43.0945 28.1382 43.2587C29.5749 43.423 30.9027 44.1045 31.8736 45.1761C32.8445 46.2477 33.3922 47.6361 33.4144 49.082C33.4425 49.9058 33.4284 50.7306 33.3723 51.553C33.2258 52.9074 32.5921 54.1623 31.5892 55.0841ZM22.9967 48.4923V50.8089C22.9675 51.614 23.1729 52.4102 23.5879 53.1007C24.0029 53.7911 24.6097 54.3461 25.3344 54.698C26.0685 55.0988 26.9002 55.2861 27.7352 55.2385C28.5715 55.1885 29.3778 54.9092 30.0659 54.4312C30.837 53.9382 31.4146 53.1944 31.7015 52.3252C32.1227 51.0827 31.8981 49.8191 31.9332 48.5485L22.9967 48.4923ZM23.5513 46.9339H31.3926C30.7541 45.9061 29.7426 45.1654 28.57 44.867C27.3974 44.5686 26.1548 44.7357 25.1027 45.3333C24.4471 45.7219 23.903 46.2732 23.5232 46.9339H23.5513Z" fill="#5C036B"/>
<path d="M46.5706 42.1025C45.4443 42.0808 44.3711 41.6198 43.5801 40.8179C40.3509 37.6238 37.1217 34.4297 33.9346 31.1654C33.1245 30.3529 32.6656 29.255 32.6564 28.1077C32.6472 26.9604 33.0885 25.8553 33.8854 25.0299C34.2364 24.6508 34.5874 24.2858 34.9735 23.9488C35.5661 23.3848 36.3528 23.0703 37.1708 23.0703C37.9888 23.0703 38.7755 23.3848 39.3681 23.9488C39.698 24.2577 40.0209 24.5806 40.3298 24.9105C40.8855 25.4876 41.2041 26.2526 41.2223 27.0536C41.2405 27.8545 40.957 28.6331 40.4281 29.2349C39.9928 29.7403 39.9999 29.8737 40.4702 30.3159L44.3874 34.2401C44.8437 34.6964 44.97 34.6964 45.4755 34.2401C46.079 33.7131 46.8585 33.432 47.6595 33.4528C48.4605 33.4736 49.2245 33.7947 49.7998 34.3524C50.1367 34.6683 50.4386 34.9912 50.7826 35.3422C51.3248 35.9318 51.6257 36.7035 51.6257 37.5044C51.6257 38.3053 51.3248 39.0771 50.7826 39.6666C49.884 40.6564 48.9644 41.6392 47.5815 41.8989C47.2445 42.0323 46.9005 42.0534 46.5706 42.1025ZM46.718 40.6985C47.208 40.6098 47.6815 40.4464 48.122 40.2141C48.7805 39.7298 49.379 39.169 49.9051 38.5434C50.1286 38.2372 50.2356 37.8614 50.2069 37.4834C50.1775 37.1069 50.0188 36.7523 49.7577 36.4795C49.4769 36.1706 49.175 35.8758 48.8731 35.588C48.6408 35.3374 48.3381 35.163 48.0048 35.0879C47.6715 35.0127 47.3232 35.0402 47.0058 35.1667C46.7956 35.2487 46.6045 35.373 46.4442 35.5318C46.2461 35.7382 46.007 35.9008 45.7422 36.0092C45.4785 36.1208 45.1929 36.1712 44.9068 36.1566C44.6211 36.1465 44.3409 36.0747 44.0855 35.946C43.831 35.8188 43.608 35.6366 43.4326 35.4125L39.5085 31.4953C38.4204 30.4072 38.3782 29.5157 39.347 28.2942C39.6355 27.9731 39.7893 27.5533 39.7762 27.1218C39.7631 26.6904 39.5843 26.2806 39.2768 25.9776C38.989 25.6827 38.7082 25.3949 38.4133 25.1211C38.1767 24.8769 37.8717 24.7099 37.5384 24.6423C37.2051 24.5746 36.8592 24.6094 36.546 24.7421C36.3352 24.8293 36.1441 24.9582 35.9844 25.1211C35.6615 25.423 35.3456 25.76 35.0367 26.0689C34.4974 26.612 34.1948 27.3463 34.1948 28.1117C34.1948 28.877 34.4974 29.6114 35.0367 30.1545C38.2308 33.3486 41.4319 36.5427 44.626 39.7719C45.1936 40.3117 45.9357 40.6305 46.718 40.6704V40.6985Z" fill="#5C036B"/>
<path d="M50.0037 30.2973L48.5997 30.5781C48.3644 29.4626 47.808 28.4402 46.9992 27.6367C46.1907 26.8322 45.1667 26.2788 44.0508 26.0432L44.2895 24.6392C46.585 24.6322 49.3579 27.3279 50.0037 30.2973Z" fill="#5C036B"/>
<path d="M47.1389 30.8563L45.8543 31.2073C45.3622 30.1203 44.4913 29.2494 43.4043 28.7573L43.7062 27.5288C44.8715 27.5288 46.7669 29.0451 47.1389 30.8563Z" fill="#5C036B"/>
<path d="M119.106 19.3631V17.8106C119.571 17.8106 119.984 17.7506 120.344 17.6306C120.719 17.5106 121.034 17.3456 121.289 17.1356C121.544 16.9106 121.739 16.6631 121.874 16.3931C122.024 16.1081 122.099 15.8156 122.099 15.5156C122.099 15.1406 122.024 14.8106 121.874 14.5256C121.724 14.2406 121.506 14.0231 121.221 13.8731C120.936 13.7231 120.569 13.6481 120.119 13.6481C119.489 13.6481 118.956 13.8431 118.521 14.2331C118.101 14.6081 117.891 15.0881 117.891 15.6731H114.899C114.899 14.7731 115.116 13.9781 115.551 13.2881C116.001 12.5831 116.616 12.0281 117.396 11.6231C118.176 11.2181 119.084 11.0156 120.119 11.0156C121.214 11.0156 122.144 11.2106 122.909 11.6006C123.689 11.9906 124.281 12.5081 124.686 13.1531C125.091 13.7981 125.294 14.5181 125.294 15.3131C125.294 16.1681 125.024 16.9031 124.484 17.5181C123.944 18.1181 123.209 18.5756 122.279 18.8906C121.349 19.2056 120.291 19.3631 119.106 19.3631ZM119.984 27.3506C119.084 27.3506 118.281 27.2156 117.576 26.9456C116.871 26.6756 116.271 26.3081 115.776 25.8431C115.281 25.3631 114.899 24.8231 114.629 24.2231C114.359 23.6081 114.224 22.9631 114.224 22.2881H117.419C117.419 22.7981 117.539 23.2331 117.779 23.5931C118.019 23.9531 118.341 24.2306 118.746 24.4256C119.151 24.6056 119.594 24.6956 120.074 24.6956C120.569 24.6956 120.996 24.6131 121.356 24.4481C121.731 24.2681 122.024 24.0131 122.234 23.6831C122.444 23.3531 122.549 22.9406 122.549 22.4456C122.549 22.0856 122.474 21.7556 122.324 21.4556C122.174 21.1406 121.949 20.8781 121.649 20.6681C121.364 20.4581 121.004 20.3006 120.569 20.1956C120.149 20.0756 119.661 20.0156 119.106 20.0156V18.3056C120.066 18.3056 120.944 18.3881 121.739 18.5531C122.549 18.7181 123.254 18.9881 123.854 19.3631C124.454 19.7231 124.919 20.1881 125.249 20.7581C125.579 21.3131 125.744 21.9881 125.744 22.7831C125.744 23.6831 125.504 24.4781 125.024 25.1681C124.559 25.8581 123.891 26.3981 123.021 26.7881C122.166 27.1631 121.154 27.3506 119.984 27.3506ZM127.882 25.7081C127.882 25.1981 128.054 24.7706 128.399 24.4256C128.759 24.0656 129.202 23.8856 129.727 23.8856C130.267 23.8856 130.709 24.0656 131.054 24.4256C131.399 24.7706 131.572 25.1981 131.572 25.7081C131.572 26.1881 131.399 26.6081 131.054 26.9681C130.709 27.3281 130.267 27.5081 129.727 27.5081C129.202 27.5081 128.759 27.3281 128.399 26.9681C128.054 26.6081 127.882 26.1881 127.882 25.7081ZM143.097 21.7481C143.427 22.3331 143.787 22.8431 144.177 23.2781C144.582 23.7131 145.025 24.0506 145.505 24.2906C145.985 24.5306 146.502 24.6506 147.057 24.6506C147.702 24.6506 148.227 24.4856 148.632 24.1556C149.037 23.8256 149.24 23.3756 149.24 22.8056C149.24 22.3106 149.112 21.9131 148.857 21.6131C148.617 21.3131 148.25 21.0506 147.755 20.8256C147.275 20.5856 146.682 20.3306 145.977 20.0606C145.602 19.9256 145.167 19.7456 144.672 19.5206C144.192 19.2806 143.735 18.9806 143.3 18.6206C142.865 18.2456 142.505 17.7956 142.22 17.2706C141.935 16.7306 141.792 16.0856 141.792 15.3356C141.792 14.4356 142.017 13.6631 142.467 13.0181C142.932 12.3581 143.555 11.8556 144.335 11.5106C145.13 11.1506 146.015 10.9706 146.99 10.9706C147.995 10.9706 148.857 11.1431 149.577 11.4881C150.312 11.8181 150.92 12.2456 151.4 12.7706C151.895 13.2806 152.277 13.8131 152.547 14.3681L150.027 15.7631C149.817 15.3881 149.562 15.0506 149.262 14.7506C148.977 14.4356 148.647 14.1881 148.272 14.0081C147.897 13.8131 147.47 13.7156 146.99 13.7156C146.36 13.7156 145.887 13.8656 145.572 14.1656C145.257 14.4506 145.1 14.7881 145.1 15.1781C145.1 15.5681 145.227 15.9131 145.482 16.2131C145.737 16.4981 146.127 16.7756 146.652 17.0456C147.177 17.3006 147.837 17.5631 148.632 17.8331C149.142 18.0131 149.63 18.2381 150.095 18.5081C150.575 18.7781 151.002 19.1081 151.377 19.4981C151.767 19.8731 152.067 20.3231 152.277 20.8481C152.502 21.3581 152.615 21.9506 152.615 22.6256C152.615 23.3906 152.465 24.0731 152.165 24.6731C151.865 25.2731 151.452 25.7831 150.927 26.2031C150.402 26.6081 149.81 26.9156 149.15 27.1256C148.505 27.3506 147.822 27.4631 147.102 27.4631C146.142 27.4631 145.242 27.2831 144.402 26.9231C143.577 26.5481 142.857 26.0456 142.242 25.4156C141.627 24.7856 141.147 24.1031 140.802 23.3681L143.097 21.7481ZM153.64 16.6856H160.03V19.1381H153.64V16.6856ZM155.418 13.0856H158.23V27.0356H155.418V13.0856ZM163.652 23.8181C163.652 24.1181 163.727 24.3806 163.877 24.6056C164.027 24.8156 164.229 24.9806 164.484 25.1006C164.754 25.2056 165.047 25.2581 165.362 25.2581C165.812 25.2581 166.217 25.1681 166.577 24.9881C166.937 24.7931 167.229 24.5231 167.454 24.1781C167.679 23.8181 167.792 23.3906 167.792 22.8956L168.152 24.2456C168.152 24.9056 167.964 25.4606 167.589 25.9106C167.229 26.3606 166.757 26.6981 166.172 26.9231C165.602 27.1481 165.002 27.2606 164.372 27.2606C163.727 27.2606 163.127 27.1331 162.572 26.8781C162.017 26.6231 161.567 26.2556 161.222 25.7756C160.892 25.2806 160.727 24.6806 160.727 23.9756C160.727 22.9706 161.079 22.1756 161.784 21.5906C162.489 21.0056 163.487 20.7131 164.777 20.7131C165.437 20.7131 166.014 20.7806 166.509 20.9156C167.019 21.0506 167.447 21.2156 167.792 21.4106C168.137 21.6056 168.384 21.7931 168.534 21.9731V23.3231C168.129 23.0231 167.672 22.7981 167.162 22.6481C166.667 22.4981 166.142 22.4231 165.587 22.4231C165.137 22.4231 164.769 22.4831 164.484 22.6031C164.199 22.7081 163.989 22.8656 163.854 23.0756C163.719 23.2706 163.652 23.5181 163.652 23.8181ZM162.527 19.6106L161.447 17.6306C161.987 17.3456 162.647 17.0756 163.427 16.8206C164.207 16.5506 165.077 16.4156 166.037 16.4156C166.922 16.4156 167.709 16.5431 168.399 16.7981C169.089 17.0531 169.629 17.4281 170.019 17.9231C170.409 18.4031 170.604 18.9956 170.604 19.7006V27.0356H167.792V20.3081C167.792 20.0231 167.747 19.7831 167.657 19.5881C167.567 19.3781 167.424 19.2056 167.229 19.0706C167.049 18.9356 166.832 18.8381 166.577 18.7781C166.322 18.7181 166.037 18.6881 165.722 18.6881C165.242 18.6881 164.784 18.7406 164.349 18.8456C163.914 18.9506 163.539 19.0781 163.224 19.2281C162.909 19.3781 162.677 19.5056 162.527 19.6106ZM183.06 16.6856L176.31 31.9856H173.318L175.928 26.0006L171.63 16.6856H174.87L178.2 24.9206L176.76 24.8756L180.023 16.6856H183.06ZM190.978 12.6806C190.978 12.2006 191.15 11.8106 191.495 11.5106C191.84 11.1956 192.253 11.0381 192.733 11.0381C193.213 11.0381 193.618 11.1956 193.948 11.5106C194.293 11.8106 194.465 12.2006 194.465 12.6806C194.465 13.1456 194.293 13.5356 193.948 13.8506C193.618 14.1656 193.213 14.3231 192.733 14.3231C192.253 14.3231 191.84 14.1656 191.495 13.8506C191.15 13.5356 190.978 13.1456 190.978 12.6806ZM191.293 16.6856H194.128V27.0356H191.293V16.6856ZM203.904 20.7356C203.904 20.0456 203.769 19.5206 203.499 19.1606C203.229 18.8006 202.794 18.6206 202.194 18.6206C201.789 18.6206 201.429 18.7106 201.114 18.8906C200.799 19.0556 200.559 19.2956 200.394 19.6106C200.229 19.9256 200.146 20.3006 200.146 20.7356V27.0356H197.221V16.6856H200.146V18.2606C200.461 17.6756 200.874 17.2331 201.384 16.9331C201.909 16.6181 202.539 16.4606 203.274 16.4606C204.504 16.4606 205.419 16.8131 206.019 17.5181C206.619 18.2081 206.919 19.1756 206.919 20.4206V27.0356H203.904V20.7356ZM215.208 16.6856H221.598V19.1381H215.208V16.6856ZM216.985 13.0856H219.798V27.0356H216.985V13.0856ZM226.074 9.48564V27.0356H223.149V9.48564H226.074ZM229.831 20.7356C229.831 20.0456 229.696 19.5206 229.426 19.1606C229.171 18.8006 228.736 18.6206 228.121 18.6206C227.716 18.6206 227.356 18.7106 227.041 18.8906C226.726 19.0556 226.486 19.2956 226.321 19.6106C226.156 19.9256 226.074 20.3006 226.074 20.7356H225.489C225.489 19.9106 225.624 19.1681 225.894 18.5081C226.179 17.8481 226.599 17.3231 227.154 16.9331C227.709 16.5431 228.391 16.3481 229.201 16.3481C230.011 16.3481 230.679 16.4981 231.204 16.7981C231.729 17.0981 232.119 17.5481 232.374 18.1481C232.629 18.7331 232.756 19.4531 232.756 20.3081V27.0356H229.831V20.7356ZM240.512 27.2606C239.387 27.2606 238.404 27.0356 237.564 26.5856C236.724 26.1356 236.072 25.5131 235.607 24.7181C235.157 23.9081 234.932 22.9556 234.932 21.8606C234.932 20.7506 235.157 19.7981 235.607 19.0031C236.072 18.1931 236.724 17.5706 237.564 17.1356C238.404 16.6856 239.394 16.4606 240.534 16.4606C241.674 16.4606 242.642 16.6706 243.437 17.0906C244.247 17.4956 244.862 18.0956 245.282 18.8906C245.702 19.6706 245.912 20.6156 245.912 21.7256C245.912 21.8606 245.904 22.0031 245.889 22.1531C245.889 22.3031 245.882 22.4231 245.867 22.5131H236.597V20.7131H243.324L242.537 21.7481C242.597 21.6581 242.649 21.5381 242.694 21.3881C242.754 21.2231 242.784 21.0881 242.784 20.9831C242.784 20.4731 242.687 20.0381 242.492 19.6781C242.312 19.3181 242.049 19.0331 241.704 18.8231C241.359 18.6131 240.954 18.5081 240.489 18.5081C239.919 18.5081 239.439 18.6356 239.049 18.8906C238.674 19.1306 238.382 19.4981 238.172 19.9931C237.977 20.4731 237.872 21.0731 237.857 21.7931C237.857 22.4831 237.954 23.0681 238.149 23.5481C238.359 24.0281 238.667 24.3956 239.072 24.6506C239.477 24.9056 239.964 25.0331 240.534 25.0331C241.179 25.0331 241.727 24.9131 242.177 24.6731C242.642 24.4181 243.024 24.0431 243.324 23.5481L245.867 24.3356C245.327 25.3106 244.607 26.0456 243.707 26.5406C242.822 27.0206 241.757 27.2606 240.512 27.2606ZM254.856 9.48564H257.781V27.0356H254.856V9.48564ZM259.959 21.8606C259.959 20.7806 260.206 19.8356 260.701 19.0256C261.211 18.2156 261.894 17.5856 262.749 17.1356C263.619 16.6856 264.601 16.4606 265.696 16.4606C266.791 16.4606 267.766 16.6856 268.621 17.1356C269.491 17.5856 270.174 18.2156 270.669 19.0256C271.179 19.8356 271.434 20.7806 271.434 21.8606C271.434 22.9256 271.179 23.8706 270.669 24.6956C270.174 25.5056 269.491 26.1356 268.621 26.5856C267.766 27.0356 266.791 27.2606 265.696 27.2606C264.601 27.2606 263.619 27.0356 262.749 26.5856C261.894 26.1356 261.211 25.5056 260.701 24.6956C260.206 23.8706 259.959 22.9256 259.959 21.8606ZM262.929 21.8606C262.929 22.4456 263.049 22.9631 263.289 23.4131C263.544 23.8481 263.881 24.1931 264.301 24.4481C264.721 24.6881 265.186 24.8081 265.696 24.8081C266.206 24.8081 266.671 24.6881 267.091 24.4481C267.511 24.1931 267.841 23.8481 268.081 23.4131C268.336 22.9631 268.464 22.4456 268.464 21.8606C268.464 21.2756 268.336 20.7581 268.081 20.3081C267.841 19.8581 267.511 19.5131 267.091 19.2731C266.671 19.0331 266.206 18.9131 265.696 18.9131C265.186 18.9131 264.721 19.0331 264.301 19.2731C263.881 19.5131 263.544 19.8581 263.289 20.3081C263.049 20.7581 262.929 21.2756 262.929 21.8606ZM272.923 21.8606C272.923 20.7806 273.17 19.8356 273.665 19.0256C274.175 18.2156 274.858 17.5856 275.713 17.1356C276.583 16.6856 277.565 16.4606 278.66 16.4606C279.755 16.4606 280.73 16.6856 281.585 17.1356C282.455 17.5856 283.138 18.2156 283.633 19.0256C284.143 19.8356 284.398 20.7806 284.398 21.8606C284.398 22.9256 284.143 23.8706 283.633 24.6956C283.138 25.5056 282.455 26.1356 281.585 26.5856C280.73 27.0356 279.755 27.2606 278.66 27.2606C277.565 27.2606 276.583 27.0356 275.713 26.5856C274.858 26.1356 274.175 25.5056 273.665 24.6956C273.17 23.8706 272.923 22.9256 272.923 21.8606ZM275.893 21.8606C275.893 22.4456 276.013 22.9631 276.253 23.4131C276.508 23.8481 276.845 24.1931 277.265 24.4481C277.685 24.6881 278.15 24.8081 278.66 24.8081C279.17 24.8081 279.635 24.6881 280.055 24.4481C280.475 24.1931 280.805 23.8481 281.045 23.4131C281.3 22.9631 281.428 22.4456 281.428 21.8606C281.428 21.2756 281.3 20.7581 281.045 20.3081C280.805 19.8581 280.475 19.5131 280.055 19.2731C279.635 19.0331 279.17 18.9131 278.66 18.9131C278.15 18.9131 277.685 19.0331 277.265 19.2731C276.845 19.5131 276.508 19.8581 276.253 20.3081C276.013 20.7581 275.893 21.2756 275.893 21.8606ZM289.442 31.9856H286.517V16.6856H289.442V31.9856ZM297.947 21.8606C297.947 23.0306 297.714 24.0281 297.249 24.8531C296.784 25.6781 296.169 26.3006 295.404 26.7206C294.654 27.1406 293.844 27.3506 292.974 27.3506C292.089 27.3506 291.317 27.1256 290.657 26.6756C290.012 26.2256 289.509 25.5881 289.149 24.7631C288.804 23.9381 288.632 22.9706 288.632 21.8606C288.632 20.7356 288.804 19.7681 289.149 18.9581C289.509 18.1331 290.012 17.4956 290.657 17.0456C291.317 16.5956 292.089 16.3706 292.974 16.3706C293.844 16.3706 294.654 16.5806 295.404 17.0006C296.169 17.4206 296.784 18.0431 297.249 18.8681C297.714 19.6781 297.947 20.6756 297.947 21.8606ZM294.932 21.8606C294.932 21.2456 294.804 20.7206 294.549 20.2856C294.294 19.8506 293.949 19.5206 293.514 19.2956C293.094 19.0706 292.629 18.9581 292.119 18.9581C291.684 18.9581 291.257 19.0706 290.837 19.2956C290.432 19.5056 290.094 19.8281 289.824 20.2631C289.569 20.6981 289.442 21.2306 289.442 21.8606C289.442 22.4906 289.569 23.0231 289.824 23.4581C290.094 23.8931 290.432 24.2231 290.837 24.4481C291.257 24.6581 291.684 24.7631 292.119 24.7631C292.629 24.7631 293.094 24.6506 293.514 24.4256C293.949 24.2006 294.294 23.8706 294.549 23.4356C294.804 23.0006 294.932 22.4756 294.932 21.8606Z" fill="#FFF3C2"/>
<path d="M115.819 62.0356V60.3076H123.444V62.0356H115.819ZM115.819 48.6436V46.9156H123.444V48.6436H115.819ZM115.819 54.6916V52.9636H123.012V54.6916H115.819ZM114.804 46.9156H116.64V62.0356H114.804V46.9156ZM132.944 55.9876C132.944 55.1668 132.764 54.5476 132.404 54.13C132.044 53.7124 131.518 53.5036 130.827 53.5036C130.323 53.5036 129.877 53.6116 129.488 53.8276C129.114 54.0292 128.818 54.3172 128.602 54.6916C128.401 55.066 128.3 55.498 128.3 55.9876V62.0356H126.572V52.0996H128.3V53.6548C128.631 53.05 129.042 52.6036 129.531 52.3156C130.035 52.0276 130.611 51.8836 131.259 51.8836C132.31 51.8836 133.138 52.2364 133.743 52.942C134.362 53.6332 134.672 54.5764 134.672 55.7716V62.0356H132.944V55.9876ZM136.408 52.0996H141.376V53.7196H136.408V52.0996ZM138.028 48.6436H139.756V62.0356H138.028V48.6436ZM146.954 62.2516C146.033 62.2516 145.212 62.0356 144.492 61.6036C143.786 61.1572 143.232 60.5452 142.829 59.7676C142.44 58.99 142.245 58.09 142.245 57.0676C142.245 56.0308 142.447 55.1236 142.85 54.346C143.268 53.5684 143.844 52.9636 144.578 52.5316C145.327 52.0996 146.191 51.8836 147.17 51.8836C148.149 51.8836 148.985 52.0924 149.676 52.51C150.381 52.9132 150.921 53.4964 151.296 54.2596C151.67 55.0228 151.857 55.93 151.857 56.9812C151.857 57.082 151.85 57.19 151.836 57.3052C151.836 57.406 151.836 57.4708 151.836 57.4996H143.347V56.0308H150.475L149.784 57.0244C149.827 56.9524 149.87 56.8444 149.913 56.7004C149.957 56.542 149.978 56.4124 149.978 56.3116C149.978 55.7212 149.856 55.21 149.611 54.778C149.381 54.346 149.057 54.0076 148.639 53.7628C148.221 53.518 147.732 53.3956 147.17 53.3956C146.508 53.3956 145.939 53.5396 145.464 53.8276C145.003 54.1012 144.643 54.5044 144.384 55.0372C144.139 55.5556 144.009 56.1964 143.995 56.9596C143.995 57.7372 144.117 58.3996 144.362 58.9468C144.607 59.494 144.967 59.9116 145.442 60.1996C145.917 60.4876 146.493 60.6316 147.17 60.6316C147.847 60.6316 148.445 60.4876 148.963 60.1996C149.481 59.8972 149.921 59.4436 150.281 58.8388L151.685 59.7244C151.166 60.5596 150.511 61.1932 149.719 61.6252C148.941 62.0428 148.02 62.2516 146.954 62.2516ZM155.954 52.0996V62.0356H154.226V52.0996H155.954ZM158.956 54.0004C158.726 53.8276 158.517 53.7052 158.33 53.6332C158.143 53.5468 157.905 53.5036 157.617 53.5036C157.185 53.5036 156.847 53.6116 156.602 53.8276C156.357 54.0436 156.184 54.3388 156.083 54.7132C155.997 55.0876 155.954 55.5124 155.954 55.9876H155.176C155.176 55.1956 155.313 54.4972 155.587 53.8924C155.875 53.2732 156.242 52.7836 156.688 52.4236C157.135 52.0636 157.588 51.8836 158.049 51.8836C158.409 51.8836 158.74 51.934 159.043 52.0348C159.359 52.1212 159.647 52.3012 159.907 52.5748L158.956 54.0004ZM175.99 52.0996L169.51 66.7876H167.566L170.287 60.6316L166.486 52.0996H168.538L171.691 59.8756L170.978 59.7892L174.046 52.0996H175.99ZM176.438 57.0676C176.438 56.0596 176.662 55.1668 177.108 54.3892C177.569 53.6116 178.188 52.9996 178.966 52.5532C179.743 52.1068 180.614 51.8836 181.579 51.8836C182.558 51.8836 183.43 52.1068 184.193 52.5532C184.97 52.9996 185.582 53.6116 186.029 54.3892C186.49 55.1668 186.72 56.0596 186.72 57.0676C186.72 58.0612 186.49 58.954 186.029 59.746C185.582 60.5236 184.97 61.1356 184.193 61.582C183.43 62.0284 182.558 62.2516 181.579 62.2516C180.614 62.2516 179.743 62.0284 178.966 61.582C178.188 61.1356 177.569 60.5236 177.108 59.746C176.662 58.954 176.438 58.0612 176.438 57.0676ZM178.188 57.0676C178.188 57.7588 178.332 58.3708 178.62 58.9036C178.922 59.4364 179.326 59.8612 179.83 60.178C180.348 60.4804 180.931 60.6316 181.579 60.6316C182.227 60.6316 182.803 60.4804 183.307 60.178C183.826 59.8612 184.229 59.4364 184.517 58.9036C184.819 58.3708 184.97 57.7588 184.97 57.0676C184.97 56.3764 184.819 55.7644 184.517 55.2316C184.229 54.6844 183.826 54.2596 183.307 53.9572C182.803 53.6548 182.227 53.5036 181.579 53.5036C180.931 53.5036 180.348 53.6548 179.83 53.9572C179.326 54.2596 178.922 54.6844 178.62 55.2316C178.332 55.7644 178.188 56.3764 178.188 57.0676ZM190.822 58.1476C190.822 58.9396 191.002 59.5516 191.362 59.9836C191.722 60.4156 192.247 60.6316 192.939 60.6316C193.443 60.6316 193.882 60.5308 194.256 60.3292C194.645 60.1132 194.94 59.818 195.142 59.4436C195.358 59.0692 195.466 58.6372 195.466 58.1476V52.0996H197.194V62.0356H195.466V60.4804C195.135 61.0708 194.724 61.5172 194.235 61.8196C193.745 62.1076 193.169 62.2516 192.507 62.2516C191.47 62.2516 190.642 61.8988 190.023 61.1932C189.403 60.4876 189.094 59.5444 189.094 58.3636V52.0996H190.822V58.1476ZM202.17 52.0996V62.0356H200.442V52.0996H202.17ZM205.173 54.0004C204.942 53.8276 204.733 53.7052 204.546 53.6332C204.359 53.5468 204.121 53.5036 203.833 53.5036C203.401 53.5036 203.063 53.6116 202.818 53.8276C202.573 54.0436 202.401 54.3388 202.3 54.7132C202.213 55.0876 202.17 55.5124 202.17 55.9876H201.393C201.393 55.1956 201.529 54.4972 201.803 53.8924C202.091 53.2732 202.458 52.7836 202.905 52.4236C203.351 52.0636 203.805 51.8836 204.265 51.8836C204.625 51.8836 204.957 51.934 205.259 52.0348C205.576 52.1212 205.864 52.3012 206.123 52.5748L205.173 54.0004ZM221.774 45.1876H223.502V62.0356H221.774V45.1876ZM213.458 57.0676C213.458 55.9876 213.681 55.066 214.128 54.3028C214.574 53.5252 215.172 52.9276 215.92 52.51C216.669 52.0924 217.49 51.8836 218.383 51.8836C219.218 51.8836 219.945 52.0924 220.564 52.51C221.184 52.9276 221.666 53.5252 222.012 54.3028C222.372 55.066 222.552 55.9876 222.552 57.0676C222.552 58.1332 222.372 59.0548 222.012 59.8324C221.666 60.61 221.184 61.2076 220.564 61.6252C219.945 62.0428 219.218 62.2516 218.383 62.2516C217.49 62.2516 216.669 62.0428 215.92 61.6252C215.172 61.2076 214.574 60.61 214.128 59.8324C213.681 59.0548 213.458 58.1332 213.458 57.0676ZM215.208 57.0676C215.208 57.8308 215.359 58.4788 215.661 59.0116C215.978 59.5444 216.396 59.9476 216.914 60.2212C217.432 60.4948 217.994 60.6316 218.599 60.6316C219.103 60.6316 219.6 60.4948 220.089 60.2212C220.579 59.9476 220.982 59.5444 221.299 59.0116C221.616 58.4788 221.774 57.8308 221.774 57.0676C221.774 56.3044 221.616 55.6564 221.299 55.1236C220.982 54.5908 220.579 54.1876 220.089 53.914C219.6 53.6404 219.103 53.5036 218.599 53.5036C217.994 53.5036 217.432 53.6404 216.914 53.914C216.396 54.1876 215.978 54.5908 215.661 55.1236C215.359 55.6564 215.208 56.3044 215.208 57.0676ZM230.485 62.2516C229.564 62.2516 228.743 62.0356 228.023 61.6036C227.317 61.1572 226.763 60.5452 226.36 59.7676C225.971 58.99 225.777 58.09 225.777 57.0676C225.777 56.0308 225.978 55.1236 226.381 54.346C226.799 53.5684 227.375 52.9636 228.109 52.5316C228.858 52.0996 229.722 51.8836 230.701 51.8836C231.681 51.8836 232.516 52.0924 233.207 52.51C233.913 52.9132 234.453 53.4964 234.827 54.2596C235.201 55.0228 235.389 55.93 235.389 56.9812C235.389 57.082 235.381 57.19 235.367 57.3052C235.367 57.406 235.367 57.4708 235.367 57.4996H226.878V56.0308H234.006L233.315 57.0244C233.358 56.9524 233.401 56.8444 233.445 56.7004C233.488 56.542 233.509 56.4124 233.509 56.3116C233.509 55.7212 233.387 55.21 233.142 54.778C232.912 54.346 232.588 54.0076 232.17 53.7628C231.753 53.518 231.263 53.3956 230.701 53.3956C230.039 53.3956 229.47 53.5396 228.995 53.8276C228.534 54.1012 228.174 54.5044 227.915 55.0372C227.67 55.5556 227.541 56.1964 227.526 56.9596C227.526 57.7372 227.649 58.3996 227.893 58.9468C228.138 59.494 228.498 59.9116 228.973 60.1996C229.449 60.4876 230.025 60.6316 230.701 60.6316C231.378 60.6316 231.976 60.4876 232.494 60.1996C233.013 59.8972 233.452 59.4436 233.812 58.8388L235.216 59.7244C234.697 60.5596 234.042 61.1932 233.25 61.6252C232.473 62.0428 231.551 62.2516 230.485 62.2516ZM236.245 52.0996H241.213V53.7196H236.245V52.0996ZM237.865 48.6436H239.593V62.0356H237.865V48.6436ZM243.724 58.9684C243.724 59.3428 243.81 59.6668 243.983 59.9404C244.17 60.214 244.422 60.4228 244.739 60.5668C245.07 60.6964 245.445 60.7612 245.862 60.7612C246.395 60.7612 246.87 60.6532 247.288 60.4372C247.72 60.2212 248.058 59.9188 248.303 59.53C248.562 59.1268 248.692 58.666 248.692 58.1476L249.037 59.4436C249.037 60.0772 248.843 60.6028 248.454 61.0204C248.08 61.438 247.612 61.7476 247.05 61.9492C246.503 62.1508 245.956 62.2516 245.409 62.2516C244.804 62.2516 244.235 62.1292 243.702 61.8844C243.184 61.6252 242.766 61.258 242.449 60.7828C242.133 60.3076 241.974 59.7316 241.974 59.0548C241.974 58.09 242.313 57.3196 242.989 56.7436C243.681 56.1532 244.638 55.858 245.862 55.858C246.582 55.858 247.18 55.9444 247.655 56.1172C248.145 56.2756 248.533 56.4628 248.821 56.6788C249.109 56.8804 249.304 57.046 249.405 57.1756V58.1908C248.901 57.8452 248.382 57.6004 247.849 57.4564C247.317 57.298 246.748 57.2188 246.143 57.2188C245.581 57.2188 245.121 57.2908 244.761 57.4348C244.415 57.5788 244.156 57.7804 243.983 58.0396C243.81 58.2988 243.724 58.6084 243.724 58.9684ZM243.465 54.3892L242.622 53.1148C242.997 52.8412 243.508 52.5676 244.156 52.294C244.818 52.0204 245.61 51.8836 246.532 51.8836C247.309 51.8836 247.986 52.006 248.562 52.2508C249.153 52.4812 249.606 52.8196 249.923 53.266C250.254 53.7124 250.42 54.2596 250.42 54.9076V62.0356H248.692V55.1452C248.692 54.7996 248.634 54.5188 248.519 54.3028C248.404 54.0724 248.238 53.8924 248.022 53.7628C247.821 53.6332 247.583 53.5396 247.309 53.482C247.036 53.4244 246.748 53.3956 246.445 53.3956C245.956 53.3956 245.509 53.4532 245.106 53.5684C244.717 53.6836 244.386 53.8204 244.113 53.9788C243.839 54.1372 243.623 54.274 243.465 54.3892ZM253.345 47.9956C253.345 47.6644 253.461 47.3836 253.691 47.1532C253.936 46.9228 254.217 46.8076 254.533 46.8076C254.865 46.8076 255.145 46.9228 255.376 47.1532C255.606 47.3836 255.721 47.6644 255.721 47.9956C255.721 48.3124 255.606 48.5932 255.376 48.838C255.145 49.0684 254.865 49.1836 254.533 49.1836C254.217 49.1836 253.936 49.0684 253.691 48.838C253.461 48.5932 253.345 48.3124 253.345 47.9956ZM253.669 52.0996H255.397V62.0356H253.669V52.0996ZM258.956 45.1876H260.684V62.0356H258.956V45.1876ZM264.345 58.99C264.546 59.2924 264.777 59.5732 265.036 59.8324C265.295 60.0916 265.59 60.3004 265.922 60.4588C266.267 60.6028 266.642 60.6748 267.045 60.6748C267.534 60.6748 267.916 60.5668 268.19 60.3508C268.478 60.1204 268.622 59.8108 268.622 59.422C268.622 59.0764 268.506 58.7884 268.276 58.558C268.06 58.3132 267.779 58.1116 267.434 57.9532C267.088 57.7804 266.721 57.622 266.332 57.478C265.9 57.3052 265.461 57.1036 265.014 56.8732C264.582 56.6284 264.215 56.3188 263.913 55.9444C263.625 55.5556 263.481 55.0732 263.481 54.4972C263.481 53.9068 263.632 53.4172 263.934 53.0284C264.251 52.6396 264.654 52.3516 265.144 52.1644C265.648 51.9772 266.166 51.8836 266.699 51.8836C267.232 51.8836 267.729 51.97 268.19 52.1428C268.665 52.3156 269.082 52.546 269.442 52.834C269.802 53.122 270.083 53.4532 270.285 53.8276L268.902 54.7132C268.629 54.3388 268.283 54.0292 267.866 53.7844C267.462 53.5396 267.002 53.4172 266.483 53.4172C266.123 53.4172 265.814 53.4964 265.554 53.6548C265.295 53.8132 265.166 54.058 265.166 54.3892C265.166 54.6484 265.266 54.8788 265.468 55.0804C265.67 55.282 265.929 55.462 266.246 55.6204C266.562 55.7788 266.894 55.93 267.239 56.074C267.815 56.3044 268.341 56.5564 268.816 56.83C269.291 57.0892 269.666 57.406 269.939 57.7804C270.227 58.1548 270.371 58.6372 270.371 59.2276C270.371 60.0916 270.054 60.8116 269.421 61.3876C268.802 61.9636 267.981 62.2516 266.958 62.2516C266.296 62.2516 265.698 62.1364 265.166 61.906C264.633 61.6612 264.179 61.3516 263.805 60.9772C263.445 60.6028 263.171 60.2212 262.984 59.8324L264.345 58.99ZM278.366 52.0996H283.334V53.7196H278.366V52.0996ZM283.161 47.2612C283.017 47.0164 282.844 46.8652 282.643 46.8076C282.456 46.7356 282.276 46.6996 282.103 46.6996C281.887 46.6996 281.7 46.7644 281.541 46.894C281.397 47.0092 281.282 47.2108 281.196 47.4988C281.109 47.7868 281.066 48.1684 281.066 48.6436V62.0356H279.338V48.4276C279.338 47.6356 279.453 46.9876 279.684 46.4836C279.914 45.9796 280.238 45.6052 280.656 45.3604C281.088 45.1012 281.606 44.9716 282.211 44.9716C282.528 44.9716 282.808 45.0148 283.053 45.1012C283.298 45.1876 283.507 45.2956 283.68 45.4252C283.867 45.5548 284.011 45.6916 284.112 45.8356L283.161 47.2612ZM284.438 57.0676C284.438 56.0596 284.662 55.1668 285.108 54.3892C285.569 53.6116 286.188 52.9996 286.966 52.5532C287.743 52.1068 288.614 51.8836 289.579 51.8836C290.558 51.8836 291.43 52.1068 292.193 52.5532C292.97 52.9996 293.582 53.6116 294.029 54.3892C294.49 55.1668 294.72 56.0596 294.72 57.0676C294.72 58.0612 294.49 58.954 294.029 59.746C293.582 60.5236 292.97 61.1356 292.193 61.582C291.43 62.0284 290.558 62.2516 289.579 62.2516C288.614 62.2516 287.743 62.0284 286.966 61.582C286.188 61.1356 285.569 60.5236 285.108 59.746C284.662 58.954 284.438 58.0612 284.438 57.0676ZM286.188 57.0676C286.188 57.7588 286.332 58.3708 286.62 58.9036C286.922 59.4364 287.326 59.8612 287.83 60.178C288.348 60.4804 288.931 60.6316 289.579 60.6316C290.227 60.6316 290.803 60.4804 291.307 60.178C291.826 59.8612 292.229 59.4364 292.517 58.9036C292.819 58.3708 292.97 57.7588 292.97 57.0676C292.97 56.3764 292.819 55.7644 292.517 55.2316C292.229 54.6844 291.826 54.2596 291.307 53.9572C290.803 53.6548 290.227 53.5036 289.579 53.5036C288.931 53.5036 288.348 53.6548 287.83 53.9572C287.326 54.2596 286.922 54.6844 286.62 55.2316C286.332 55.7644 286.188 56.3764 286.188 57.0676ZM298.822 52.0996V62.0356H297.094V52.0996H298.822ZM301.824 54.0004C301.594 53.8276 301.385 53.7052 301.198 53.6332C301.011 53.5468 300.773 53.5036 300.485 53.5036C300.053 53.5036 299.715 53.6116 299.47 53.8276C299.225 54.0436 299.052 54.3388 298.951 54.7132C298.865 55.0876 298.822 55.5124 298.822 55.9876H298.044C298.044 55.1956 298.181 54.4972 298.455 53.8924C298.743 53.2732 299.11 52.7836 299.556 52.4236C300.003 52.0636 300.456 51.8836 300.917 51.8836C301.277 51.8836 301.608 51.934 301.911 52.0348C302.227 52.1212 302.515 52.3012 302.775 52.5748L301.824 54.0004ZM116.424 83.1476C116.424 83.9396 116.604 84.5516 116.964 84.9836C117.324 85.4156 117.85 85.6316 118.541 85.6316C119.045 85.6316 119.484 85.5308 119.859 85.3292C120.247 85.1132 120.543 84.818 120.744 84.4436C120.96 84.0692 121.068 83.6372 121.068 83.1476V77.0996H122.796V87.0356H121.068V85.4804C120.737 86.0708 120.327 86.5172 119.837 86.8196C119.347 87.1076 118.771 87.2516 118.109 87.2516C117.072 87.2516 116.244 86.8988 115.625 86.1932C115.006 85.4876 114.696 84.5444 114.696 83.3636V77.0996H116.424V83.1476ZM127.665 91.7876H125.937V77.0996H127.665V91.7876ZM135.981 82.0676C135.981 83.1332 135.757 84.0548 135.311 84.8324C134.865 85.61 134.267 86.2076 133.518 86.6252C132.784 87.0428 131.963 87.2516 131.056 87.2516C130.235 87.2516 129.508 87.0428 128.874 86.6252C128.255 86.2076 127.765 85.61 127.405 84.8324C127.06 84.0548 126.887 83.1332 126.887 82.0676C126.887 80.9876 127.06 80.066 127.405 79.3028C127.765 78.5252 128.255 77.9276 128.874 77.51C129.508 77.0924 130.235 76.8836 131.056 76.8836C131.963 76.8836 132.784 77.0924 133.518 77.51C134.267 77.9276 134.865 78.5252 135.311 79.3028C135.757 80.066 135.981 80.9876 135.981 82.0676ZM134.231 82.0676C134.231 81.3044 134.073 80.6564 133.756 80.1236C133.453 79.5908 133.043 79.1876 132.525 78.914C132.021 78.6404 131.459 78.5036 130.84 78.5036C130.336 78.5036 129.839 78.6404 129.349 78.914C128.86 79.1876 128.457 79.5908 128.14 80.1236C127.823 80.6564 127.665 81.3044 127.665 82.0676C127.665 82.8308 127.823 83.4788 128.14 84.0116C128.457 84.5444 128.86 84.9476 129.349 85.2212C129.839 85.4948 130.336 85.6316 130.84 85.6316C131.459 85.6316 132.021 85.4948 132.525 85.2212C133.043 84.9476 133.453 84.5444 133.756 84.0116C134.073 83.4788 134.231 82.8308 134.231 82.0676ZM145.815 70.1876H147.543V87.0356H145.815V70.1876ZM137.499 82.0676C137.499 80.9876 137.723 80.066 138.169 79.3028C138.615 78.5252 139.213 77.9276 139.962 77.51C140.711 77.0924 141.531 76.8836 142.424 76.8836C143.259 76.8836 143.987 77.0924 144.606 77.51C145.225 77.9276 145.707 78.5252 146.053 79.3028C146.413 80.066 146.593 80.9876 146.593 82.0676C146.593 83.1332 146.413 84.0548 146.053 84.8324C145.707 85.61 145.225 86.2076 144.606 86.6252C143.987 87.0428 143.259 87.2516 142.424 87.2516C141.531 87.2516 140.711 87.0428 139.962 86.6252C139.213 86.2076 138.615 85.61 138.169 84.8324C137.723 84.0548 137.499 83.1332 137.499 82.0676ZM139.249 82.0676C139.249 82.8308 139.4 83.4788 139.703 84.0116C140.019 84.5444 140.437 84.9476 140.955 85.2212C141.474 85.4948 142.035 85.6316 142.64 85.6316C143.144 85.6316 143.641 85.4948 144.131 85.2212C144.62 84.9476 145.023 84.5444 145.34 84.0116C145.657 83.4788 145.815 82.8308 145.815 82.0676C145.815 81.3044 145.657 80.6564 145.34 80.1236C145.023 79.5908 144.62 79.1876 144.131 78.914C143.641 78.6404 143.144 78.5036 142.64 78.5036C142.035 78.5036 141.474 78.6404 140.955 78.914C140.437 79.1876 140.019 79.5908 139.703 80.1236C139.4 80.6564 139.249 81.3044 139.249 82.0676ZM151.46 83.9684C151.46 84.3428 151.546 84.6668 151.719 84.9404C151.906 85.214 152.158 85.4228 152.475 85.5668C152.806 85.6964 153.181 85.7612 153.598 85.7612C154.131 85.7612 154.606 85.6532 155.024 85.4372C155.456 85.2212 155.794 84.9188 156.039 84.53C156.298 84.1268 156.428 83.666 156.428 83.1476L156.773 84.4436C156.773 85.0772 156.579 85.6028 156.19 86.0204C155.816 86.438 155.348 86.7476 154.786 86.9492C154.239 87.1508 153.692 87.2516 153.145 87.2516C152.54 87.2516 151.971 87.1292 151.438 86.8844C150.92 86.6252 150.502 86.258 150.185 85.7828C149.869 85.3076 149.71 84.7316 149.71 84.0548C149.71 83.09 150.049 82.3196 150.725 81.7436C151.417 81.1532 152.374 80.858 153.598 80.858C154.318 80.858 154.916 80.9444 155.391 81.1172C155.881 81.2756 156.269 81.4628 156.557 81.6788C156.845 81.8804 157.04 82.046 157.141 82.1756V83.1908C156.637 82.8452 156.118 82.6004 155.585 82.4564C155.053 82.298 154.484 82.2188 153.879 82.2188C153.317 82.2188 152.857 82.2908 152.497 82.4348C152.151 82.5788 151.892 82.7804 151.719 83.0396C151.546 83.2988 151.46 83.6084 151.46 83.9684ZM151.201 79.3892L150.358 78.1148C150.733 77.8412 151.244 77.5676 151.892 77.294C152.554 77.0204 153.346 76.8836 154.268 76.8836C155.045 76.8836 155.722 77.006 156.298 77.2508C156.889 77.4812 157.342 77.8196 157.659 78.266C157.99 78.7124 158.156 79.2596 158.156 79.9076V87.0356H156.428V80.1452C156.428 79.7996 156.37 79.5188 156.255 79.3028C156.14 79.0724 155.974 78.8924 155.758 78.7628C155.557 78.6332 155.319 78.5396 155.045 78.482C154.772 78.4244 154.484 78.3956 154.181 78.3956C153.692 78.3956 153.245 78.4532 152.842 78.5684C152.453 78.6836 152.122 78.8204 151.849 78.9788C151.575 79.1372 151.359 79.274 151.201 79.3892ZM159.569 77.0996H164.537V78.7196H159.569V77.0996ZM161.189 73.6436H162.917V87.0356H161.189V73.6436ZM170.115 87.2516C169.194 87.2516 168.373 87.0356 167.653 86.6036C166.947 86.1572 166.393 85.5452 165.99 84.7676C165.601 83.99 165.406 83.09 165.406 82.0676C165.406 81.0308 165.608 80.1236 166.011 79.346C166.429 78.5684 167.005 77.9636 167.739 77.5316C168.488 77.0996 169.352 76.8836 170.331 76.8836C171.31 76.8836 172.146 77.0924 172.837 77.51C173.542 77.9132 174.082 78.4964 174.457 79.2596C174.831 80.0228 175.018 80.93 175.018 81.9812C175.018 82.082 175.011 82.19 174.997 82.3052C174.997 82.406 174.997 82.4708 174.997 82.4996H166.508V81.0308H173.636L172.945 82.0244C172.988 81.9524 173.031 81.8444 173.074 81.7004C173.118 81.542 173.139 81.4124 173.139 81.3116C173.139 80.7212 173.017 80.21 172.772 79.778C172.542 79.346 172.218 79.0076 171.8 78.7628C171.382 78.518 170.893 78.3956 170.331 78.3956C169.669 78.3956 169.1 78.5396 168.625 78.8276C168.164 79.1012 167.804 79.5044 167.545 80.0372C167.3 80.5556 167.17 81.1964 167.156 81.9596C167.156 82.7372 167.278 83.3996 167.523 83.9468C167.768 84.494 168.128 84.9116 168.603 85.1996C169.078 85.4876 169.654 85.6316 170.331 85.6316C171.008 85.6316 171.606 85.4876 172.124 85.1996C172.642 84.8972 173.082 84.4436 173.442 83.8388L174.846 84.7244C174.327 85.5596 173.672 86.1932 172.88 86.6252C172.102 87.0428 171.181 87.2516 170.115 87.2516ZM177.797 83.99C177.999 84.2924 178.229 84.5732 178.488 84.8324C178.748 85.0916 179.043 85.3004 179.374 85.4588C179.72 85.6028 180.094 85.6748 180.497 85.6748C180.987 85.6748 181.368 85.5668 181.642 85.3508C181.93 85.1204 182.074 84.8108 182.074 84.422C182.074 84.0764 181.959 83.7884 181.728 83.558C181.512 83.3132 181.232 83.1116 180.886 82.9532C180.54 82.7804 180.173 82.622 179.784 82.478C179.352 82.3052 178.913 82.1036 178.467 81.8732C178.035 81.6284 177.668 81.3188 177.365 80.9444C177.077 80.5556 176.933 80.0732 176.933 79.4972C176.933 78.9068 177.084 78.4172 177.387 78.0284C177.704 77.6396 178.107 77.3516 178.596 77.1644C179.1 76.9772 179.619 76.8836 180.152 76.8836C180.684 76.8836 181.181 76.97 181.642 77.1428C182.117 77.3156 182.535 77.546 182.895 77.834C183.255 78.122 183.536 78.4532 183.737 78.8276L182.355 79.7132C182.081 79.3388 181.736 79.0292 181.318 78.7844C180.915 78.5396 180.454 78.4172 179.936 78.4172C179.576 78.4172 179.266 78.4964 179.007 78.6548C178.748 78.8132 178.618 79.058 178.618 79.3892C178.618 79.6484 178.719 79.8788 178.92 80.0804C179.122 80.282 179.381 80.462 179.698 80.6204C180.015 80.7788 180.346 80.93 180.692 81.074C181.268 81.3044 181.793 81.5564 182.268 81.83C182.744 82.0892 183.118 82.406 183.392 82.7804C183.68 83.1548 183.824 83.6372 183.824 84.2276C183.824 85.0916 183.507 85.8116 182.873 86.3876C182.254 86.9636 181.433 87.2516 180.411 87.2516C179.748 87.2516 179.151 87.1364 178.618 86.906C178.085 86.6612 177.632 86.3516 177.257 85.9772C176.897 85.6028 176.624 85.2212 176.436 84.8324L177.797 83.99Z" fill="white"/>
</svg>
