<svg width="352" height="93" viewBox="0 0 352 93" fill="none" xmlns="http://www.w3.org/2000/svg">
<path d="M44.4233 87.313C68.4183 87.313 87.8701 67.8612 87.8701 43.8662C87.8701 19.8712 68.4183 0.419434 44.4233 0.419434C20.4283 0.419434 0.976562 19.8712 0.976562 43.8662C0.976562 67.8612 20.4283 87.313 44.4233 87.313Z" fill="white"/>
<path d="M46.2692 21.248C47.252 21.3884 48.2348 21.4726 49.2176 21.6762C52.4409 22.2734 55.4894 23.5854 58.139 25.5158C60.7885 27.4462 62.9718 29.9459 64.5282 32.831C66.835 37.0315 67.7381 41.8595 67.1055 46.6097C66.4729 51.36 64.3377 55.7835 61.012 59.2338C57.6864 62.6842 53.3444 64.9806 48.6207 65.7876C43.8969 66.5945 39.0389 65.8697 34.7564 63.719C34.5349 63.625 34.2901 63.6004 34.0544 63.6487C30.6216 64.5613 27.1959 65.5021 23.742 66.4147C23.4527 66.4952 23.1468 66.4952 22.8575 66.4147C22.3731 66.2883 22.2046 65.825 22.3661 65.2634C23.1874 62.315 23.9526 59.3736 24.8442 56.5024C25.2232 55.2809 25.3566 54.1858 24.5493 53.1187C21.2008 45.3195 21.8185 37.8783 26.5079 30.753C26.5934 30.564 26.739 30.4085 26.9221 30.3108C27.1041 30.2113 27.313 30.172 27.5188 30.1985C27.6772 30.2268 27.8251 30.297 27.947 30.402C28.0671 30.5033 28.1589 30.6339 28.2138 30.7811C28.2637 30.9327 28.2758 31.0942 28.2489 31.2515C28.2204 31.4077 28.15 31.5533 28.0453 31.6727C27.3772 32.6815 26.7701 33.7293 26.2271 34.8106C24.8063 37.7606 24.118 41.0098 24.2207 44.2826C24.3233 47.5553 25.2139 50.755 26.8168 53.6102C26.9662 53.8667 27.0617 54.1509 27.0976 54.4455C27.133 54.7407 27.1043 55.04 27.0133 55.323C26.1709 58.2082 25.3777 61.1006 24.5704 63.9928C24.5757 64.1047 24.5515 64.2161 24.5002 64.3157C24.636 64.309 24.7704 64.2854 24.9003 64.2455C27.94 63.4242 30.9867 62.6098 34.0263 61.7745C34.221 61.7115 34.4266 61.69 34.63 61.7113C34.8323 61.7324 35.0282 61.7944 35.2057 61.8937C39.4193 64.1363 44.2802 64.8485 48.9601 63.909C53.6399 62.9694 57.8493 60.4362 60.8708 56.7411C63.6149 53.4735 65.2453 49.4159 65.5251 45.1581C65.8677 40.6625 64.7258 36.1787 62.2746 32.3947C59.8233 28.6107 56.1982 25.7356 51.9554 24.2104C45.3706 21.8728 39.1018 22.7362 33.2541 26.5551C33.1278 26.6393 33.0154 26.7306 32.8891 26.8078C32.7909 26.8723 32.6813 26.9176 32.5662 26.9412C32.4481 26.9658 32.3262 26.9658 32.2081 26.9412C32.094 26.9146 31.9849 26.8695 31.8852 26.8078C31.788 26.7399 31.7046 26.6542 31.6395 26.5551C31.5696 26.4624 31.5238 26.3539 31.5061 26.2392C31.4825 26.1266 31.4828 26.0103 31.507 25.8978C31.5312 25.7853 31.5787 25.6792 31.6465 25.5863C31.7124 25.4937 31.7959 25.415 31.8922 25.3547C32.8961 24.7159 33.8929 24.056 34.953 23.5084C37.5284 22.2092 40.3377 21.4383 43.2155 21.241L43.5525 21.1777L46.2692 21.248Z" fill="#5C036B"/>
<path d="M29.5336 59.3779L31.6396 58.7883C32.5944 58.5285 33.5491 58.2828 34.5038 58.0161C34.6914 57.9543 34.89 57.9327 35.0865 57.9528C35.2818 57.9797 35.4701 58.0441 35.641 58.1424C37.4398 59.2521 39.4189 60.0385 41.4887 60.466C45.7674 61.3641 50.2277 60.5717 53.9352 58.2547L54.3072 58.0231C54.4051 57.9403 54.5202 57.8804 54.6442 57.8476C54.767 57.823 54.8934 57.823 55.0162 57.8476C55.1389 57.8678 55.256 57.9132 55.3602 57.9809C55.4671 58.0469 55.5582 58.1356 55.627 58.2407C55.6981 58.3464 55.746 58.466 55.7674 58.5917C55.7956 58.7141 55.7956 58.8413 55.7674 58.9638C55.7321 59.0882 55.6698 59.2032 55.5849 59.3007C55.5001 59.3931 55.3974 59.4671 55.283 59.5183C54.1199 60.2127 52.9122 60.8295 51.6677 61.3645C49.0776 62.382 46.2919 62.8044 43.5166 62.6002C40.7413 62.3961 38.0474 61.5707 35.634 60.1852C35.4081 60.0463 35.1538 59.9599 34.8899 59.9325C34.6254 59.8982 34.3565 59.9246 34.1037 60.0097C32.3346 60.5292 30.5445 60.9785 28.7755 61.4769C27.7646 61.7507 27.2241 61.1751 27.4768 60.2133C27.9822 58.3881 28.4947 56.5348 29.0212 54.7307C29.0824 54.5844 29.1065 54.4252 29.0914 54.2673C29.0847 54.1079 29.0363 53.953 28.951 53.818C26.7003 50.3071 25.6854 46.1457 26.0669 41.9928C26.4483 37.8399 28.2044 33.933 31.057 30.8908C33.912 27.6664 37.8313 25.576 42.0994 25.001C45.2335 24.4889 48.4467 24.7936 51.4286 25.8855C54.4106 26.9775 57.0607 28.8199 59.1229 31.2348C61.7574 34.1302 63.3787 37.8039 63.7421 41.7016C64.2326 46.0504 63.1737 50.4328 60.7516 54.0778C60.6988 54.193 60.6194 54.2941 60.5199 54.3727C60.4246 54.4553 60.3118 54.5153 60.19 54.5482C60.0672 54.5727 59.9407 54.5727 59.8179 54.5482C59.6938 54.5293 59.5746 54.4865 59.4669 54.4218C59.3616 54.3539 59.2709 54.2656 59.2002 54.1621C59.129 54.0564 59.0811 53.9367 59.0598 53.8111C59.0353 53.6859 59.0353 53.5572 59.0598 53.432C59.0941 53.3108 59.1539 53.1983 59.2353 53.1021C60.5024 51.1379 61.358 48.9372 61.7506 46.6329C62.1431 44.3287 62.0644 41.9687 61.5191 39.6958C60.9738 37.4228 59.9734 35.2841 58.5781 33.4087C57.1829 31.5333 55.422 29.9603 53.4016 28.7848C51.3732 27.6239 49.1218 26.9062 46.7958 26.6788C42.5254 26.1967 38.2296 27.3361 34.7595 29.8714C31.2894 32.4067 28.8982 36.1528 28.0594 40.3678C27.2287 44.4818 27.9568 48.7577 30.1023 52.3649C31.2184 54.3165 31.1272 53.5443 30.5305 55.7626C30.2146 56.9279 29.8846 58.1213 29.5336 59.3779Z" fill="#5C036B"/>
<path d="M50.7906 54.9717C48.7989 54.9091 46.8454 54.4082 45.0694 53.5046C40.1939 51.2618 36.2555 47.3856 33.9356 42.5463C33.411 41.5505 33.1182 40.4491 33.0792 39.3242C33.0386 38.1997 33.2471 37.0802 33.6899 36.0458C34.0002 35.2771 34.4802 34.5884 35.0939 34.0311C35.6071 33.5729 36.2277 33.2518 36.8981 33.0975C37.5697 32.9428 38.2692 32.9572 38.9339 33.1395C39.2244 33.2017 39.4962 33.3316 39.7271 33.5186C39.9556 33.7062 40.1341 33.9473 40.2466 34.2206C40.8293 35.5755 41.426 36.9234 42.0016 38.2782C42.237 38.7333 42.3197 39.252 42.2375 39.7576C42.1553 40.2633 41.9127 40.7291 41.5453 41.0862C41.2785 41.36 41.0609 41.6759 40.8082 41.9426C40.7475 41.9786 40.6968 42.0293 40.6608 42.09C40.6201 42.148 40.5958 42.216 40.5906 42.2866C40.5724 42.3556 40.5724 42.4281 40.5906 42.4972C40.6135 42.5655 40.6548 42.6262 40.7099 42.6727C42.2128 44.9338 44.2954 46.7498 46.7401 47.9307L46.9016 48.0079C47.5615 48.2747 47.5615 48.2747 47.9897 47.7271C48.2986 47.327 48.5934 46.9198 48.9023 46.5337C49.2141 46.0477 49.7032 45.7026 50.2656 45.5715C50.8279 45.4404 51.4192 45.5337 51.9139 45.8317C53.0932 46.4073 54.2585 47.0041 55.4239 47.5657C55.825 47.7419 56.1612 48.0388 56.3856 48.4151C56.6106 48.7913 56.7158 49.2271 56.6875 49.6646C56.7717 53.287 54.0409 54.7681 51.5348 54.9647C51.2961 54.9928 51.0434 54.9717 50.7906 54.9717ZM51.0083 53.2308C51.3688 53.219 51.7279 53.1791 52.0823 53.1115C52.9171 53.0364 53.6887 52.6355 54.23 51.9956C54.7714 51.3557 55.0389 50.5283 54.9746 49.6927C54.9886 49.5748 54.9613 49.4557 54.8974 49.3557C54.8401 49.2551 54.7513 49.1762 54.6446 49.1311C53.4863 48.5765 52.328 48.0289 51.1978 47.4322C51.1285 47.3774 51.0464 47.3411 50.9591 47.3269C50.8734 47.3093 50.7851 47.3093 50.6994 47.3269C50.6138 47.3498 50.5329 47.3879 50.4607 47.4393C50.3957 47.4974 50.3411 47.5663 50.2992 47.6429C49.9342 48.1343 49.5621 48.6116 49.176 49.1171C48.9479 49.4744 48.6016 49.7403 48.1976 49.8686C47.7935 49.9969 47.3572 49.9793 46.9648 49.8191C45.9988 49.4382 45.0705 48.9682 44.1919 48.4151C42.1219 47.1383 40.3791 45.3955 39.1024 43.3256C38.8218 42.9645 38.6888 42.5104 38.7303 42.055C38.7695 41.6006 38.9773 41.1773 39.313 40.8686C39.6148 40.5246 39.9026 40.1666 40.2255 39.8437C40.3566 39.7354 40.4439 39.5832 40.4712 39.4155C40.5026 39.2476 40.4754 39.0741 40.394 38.924C39.8254 37.6253 39.2638 36.3267 38.6882 35.028C38.6616 34.9635 38.6208 34.906 38.5688 34.8595C38.5167 34.8148 38.4573 34.7791 38.3933 34.7542C38.034 34.6629 37.6575 34.6629 37.2982 34.7542C36.9371 34.8363 36.6034 35.0104 36.3295 35.2596C35.9176 35.6926 35.5764 36.1877 35.3186 36.7267C34.958 37.565 34.7993 38.4763 34.8554 39.3872C34.9115 40.298 35.1808 41.1829 35.6415 41.9707C37.8393 46.358 41.4774 49.8574 45.9469 51.883C47.5166 52.6932 49.2435 53.153 51.0083 53.2308Z" fill="#5C036B"/>
<path d="M29.66 29.3394C29.5403 29.3455 29.4208 29.3264 29.309 29.2833C29.199 29.2404 29.0988 29.176 29.0141 29.0937C28.9305 29.0088 28.8638 28.9088 28.8176 28.799C28.7719 28.6902 28.7503 28.5728 28.7544 28.4549C28.7543 28.3396 28.7757 28.2254 28.8176 28.118C28.8658 28.0129 28.9297 27.9159 29.0071 27.8302C29.0911 27.7504 29.1885 27.6862 29.2949 27.6406C29.5203 27.5508 29.7716 27.5508 29.9969 27.6406C30.1021 27.6847 30.1976 27.7491 30.2777 27.8302C30.3597 27.9138 30.4262 28.0112 30.4743 28.118C30.5161 28.2254 30.5376 28.3396 30.5375 28.4549C30.5442 28.57 30.525 28.6852 30.4813 28.7919C30.4383 28.8997 30.3738 28.9976 30.2918 29.0797C30.2135 29.1631 30.1176 29.2278 30.011 29.2692C29.9011 29.3198 29.7809 29.3438 29.66 29.3394Z" fill="#5C036B"/>
<path d="M58.5046 56.4425C58.5037 56.5564 58.4803 56.6689 58.4357 56.7738C58.3911 56.8786 58.3263 56.9736 58.2448 57.0532C58.1221 57.1777 57.9647 57.2623 57.7932 57.2962C57.6216 57.33 57.4439 57.3113 57.2831 57.2427C57.174 57.1989 57.0758 57.1319 56.9953 57.0462C56.9094 56.9631 56.8424 56.8625 56.7987 56.7513C56.7539 56.6421 56.7301 56.5254 56.7285 56.4073C56.7428 56.1785 56.8461 55.9643 57.0163 55.8107C57.1795 55.6513 57.399 55.563 57.6271 55.565C57.7446 55.5648 57.8612 55.5862 57.971 55.6281C58.0788 55.6712 58.1768 55.7357 58.2589 55.8177C58.3363 55.9034 58.4002 56.0004 58.4484 56.1054C58.4914 56.2123 58.5105 56.3274 58.5046 56.4425Z" fill="#5C036B"/>
<path d="M119.7 24.1331L122.332 21.7256H128.767L129.15 21.3881H132.705V24.1331H119.7ZM122.782 23.3456L119.7 24.1331L128.227 11.2856H130.41V27.0356H127.102V23.3231L127.395 23.0756V16.4156L122.782 23.3456ZM134.916 25.7081C134.916 25.1981 135.088 24.7706 135.433 24.4256C135.793 24.0656 136.236 23.8856 136.761 23.8856C137.301 23.8856 137.743 24.0656 138.088 24.4256C138.433 24.7706 138.606 25.1981 138.606 25.7081C138.606 26.1881 138.433 26.6081 138.088 26.9681C137.743 27.3281 137.301 27.5081 136.761 27.5081C136.236 27.5081 135.793 27.3281 135.433 26.9681C135.088 26.6081 134.916 26.1881 134.916 25.7081ZM149.513 11.2856H152.73V27.0356H149.513V11.2856ZM151.47 14.0081V11.2856H154.598C155.843 11.2856 156.9 11.4881 157.77 11.8931C158.655 12.2981 159.33 12.8756 159.795 13.6256C160.26 14.3756 160.493 15.2681 160.493 16.3031C160.493 17.3231 160.26 18.2156 159.795 18.9806C159.33 19.7306 158.655 20.3081 157.77 20.7131C156.9 21.1181 155.843 21.3206 154.598 21.3206H151.47V18.5981H154.598C155.453 18.5981 156.128 18.4031 156.623 18.0131C157.118 17.6231 157.365 17.0531 157.365 16.3031C157.365 15.5381 157.118 14.9681 156.623 14.5931C156.128 14.2031 155.453 14.0081 154.598 14.0081H151.47ZM164.101 23.8181C164.101 24.1181 164.176 24.3806 164.326 24.6056C164.476 24.8156 164.678 24.9806 164.933 25.1006C165.203 25.2056 165.496 25.2581 165.811 25.2581C166.261 25.2581 166.666 25.1681 167.026 24.9881C167.386 24.7931 167.678 24.5231 167.903 24.1781C168.128 23.8181 168.241 23.3906 168.241 22.8956L168.601 24.2456C168.601 24.9056 168.413 25.4606 168.038 25.9106C167.678 26.3606 167.206 26.6981 166.621 26.9231C166.051 27.1481 165.451 27.2606 164.821 27.2606C164.176 27.2606 163.576 27.1331 163.021 26.8781C162.466 26.6231 162.016 26.2556 161.671 25.7756C161.341 25.2806 161.176 24.6806 161.176 23.9756C161.176 22.9706 161.528 22.1756 162.233 21.5906C162.938 21.0056 163.936 20.7131 165.226 20.7131C165.886 20.7131 166.463 20.7806 166.958 20.9156C167.468 21.0506 167.896 21.2156 168.241 21.4106C168.586 21.6056 168.833 21.7931 168.983 21.9731V23.3231C168.578 23.0231 168.121 22.7981 167.611 22.6481C167.116 22.4981 166.591 22.4231 166.036 22.4231C165.586 22.4231 165.218 22.4831 164.933 22.6031C164.648 22.7081 164.438 22.8656 164.303 23.0756C164.168 23.2706 164.101 23.5181 164.101 23.8181ZM162.976 19.6106L161.896 17.6306C162.436 17.3456 163.096 17.0756 163.876 16.8206C164.656 16.5506 165.526 16.4156 166.486 16.4156C167.371 16.4156 168.158 16.5431 168.848 16.7981C169.538 17.0531 170.078 17.4281 170.468 17.9231C170.858 18.4031 171.053 18.9956 171.053 19.7006V27.0356H168.241V20.3081C168.241 20.0231 168.196 19.7831 168.106 19.5881C168.016 19.3781 167.873 19.2056 167.678 19.0706C167.498 18.9356 167.281 18.8381 167.026 18.7781C166.771 18.7181 166.486 18.6881 166.171 18.6881C165.691 18.6881 165.233 18.7406 164.798 18.8456C164.363 18.9506 163.988 19.0781 163.673 19.2281C163.358 19.3781 163.126 19.5056 162.976 19.6106ZM174.282 23.4581C174.717 23.8631 175.122 24.1931 175.497 24.4481C175.872 24.6881 176.224 24.8681 176.554 24.9881C176.899 25.1081 177.222 25.1681 177.522 25.1681C177.912 25.1681 178.212 25.0856 178.422 24.9206C178.632 24.7406 178.737 24.5006 178.737 24.2006C178.737 23.9306 178.647 23.7056 178.467 23.5256C178.302 23.3306 178.054 23.1581 177.724 23.0081C177.394 22.8581 176.974 22.7006 176.464 22.5356C175.984 22.3556 175.519 22.1456 175.069 21.9056C174.619 21.6506 174.244 21.3206 173.944 20.9156C173.659 20.4956 173.517 19.9631 173.517 19.3181C173.517 18.7031 173.682 18.1856 174.012 17.7656C174.342 17.3306 174.784 17.0081 175.339 16.7981C175.909 16.5731 176.539 16.4606 177.229 16.4606C177.814 16.4606 178.362 16.5356 178.872 16.6856C179.382 16.8356 179.854 17.0381 180.289 17.2931C180.724 17.5331 181.107 17.8181 181.437 18.1481L180.154 19.9481C179.779 19.5431 179.329 19.2131 178.804 18.9581C178.294 18.7031 177.792 18.5756 177.297 18.5756C176.967 18.5756 176.704 18.6431 176.509 18.7781C176.329 18.8981 176.239 19.0856 176.239 19.3406C176.239 19.5656 176.329 19.7681 176.509 19.9481C176.704 20.1131 176.974 20.2631 177.319 20.3981C177.679 20.5331 178.084 20.6981 178.534 20.8931C179.089 21.1031 179.599 21.3431 180.064 21.6131C180.544 21.8681 180.927 22.1906 181.212 22.5806C181.497 22.9706 181.639 23.4806 181.639 24.1106C181.639 25.1456 181.302 25.9556 180.627 26.5406C179.952 27.1106 179.022 27.3956 177.837 27.3956C177.102 27.3956 176.427 27.2981 175.812 27.1031C175.212 26.9081 174.664 26.6531 174.169 26.3381C173.689 26.0081 173.254 25.6556 172.864 25.2806L174.282 23.4581ZM184.169 23.4581C184.604 23.8631 185.009 24.1931 185.384 24.4481C185.759 24.6881 186.112 24.8681 186.442 24.9881C186.787 25.1081 187.109 25.1681 187.409 25.1681C187.799 25.1681 188.099 25.0856 188.309 24.9206C188.519 24.7406 188.624 24.5006 188.624 24.2006C188.624 23.9306 188.534 23.7056 188.354 23.5256C188.189 23.3306 187.942 23.1581 187.612 23.0081C187.282 22.8581 186.862 22.7006 186.352 22.5356C185.872 22.3556 185.407 22.1456 184.957 21.9056C184.507 21.6506 184.132 21.3206 183.832 20.9156C183.547 20.4956 183.404 19.9631 183.404 19.3181C183.404 18.7031 183.569 18.1856 183.899 17.7656C184.229 17.3306 184.672 17.0081 185.227 16.7981C185.797 16.5731 186.427 16.4606 187.117 16.4606C187.702 16.4606 188.249 16.5356 188.759 16.6856C189.269 16.8356 189.742 17.0381 190.177 17.2931C190.612 17.5331 190.994 17.8181 191.324 18.1481L190.042 19.9481C189.667 19.5431 189.217 19.2131 188.692 18.9581C188.182 18.7031 187.679 18.5756 187.184 18.5756C186.854 18.5756 186.592 18.6431 186.397 18.7781C186.217 18.8981 186.127 19.0856 186.127 19.3406C186.127 19.5656 186.217 19.7681 186.397 19.9481C186.592 20.1131 186.862 20.2631 187.207 20.3981C187.567 20.5331 187.972 20.6981 188.422 20.8931C188.977 21.1031 189.487 21.3431 189.952 21.6131C190.432 21.8681 190.814 22.1906 191.099 22.5806C191.384 22.9706 191.527 23.4806 191.527 24.1106C191.527 25.1456 191.189 25.9556 190.514 26.5406C189.839 27.1106 188.909 27.3956 187.724 27.3956C186.989 27.3956 186.314 27.2981 185.699 27.1031C185.099 26.9081 184.552 26.6531 184.057 26.3381C183.577 26.0081 183.142 25.6556 182.752 25.2806L184.169 23.4581ZM200.555 11.2856H203.818V27.0356H200.555V11.2856ZM205.615 16.6856H212.005V19.1381H205.615V16.6856ZM207.393 13.0856H210.205V27.0356H207.393V13.0856ZM223.07 19.1606C223.07 20.1656 223.28 21.0581 223.7 21.8381C224.12 22.6181 224.697 23.2331 225.432 23.6831C226.167 24.1331 227.022 24.3581 227.997 24.3581C228.972 24.3581 229.827 24.1331 230.562 23.6831C231.297 23.2331 231.867 22.6181 232.272 21.8381C232.692 21.0581 232.902 20.1656 232.902 19.1606C232.902 18.1556 232.7 17.2631 232.295 16.4831C231.89 15.7031 231.32 15.0881 230.585 14.6381C229.85 14.1881 228.987 13.9631 227.997 13.9631C227.022 13.9631 226.167 14.1881 225.432 14.6381C224.697 15.0881 224.12 15.7031 223.7 16.4831C223.28 17.2631 223.07 18.1556 223.07 19.1606ZM219.672 19.1606C219.672 17.9606 219.882 16.8656 220.302 15.8756C220.722 14.8706 221.307 14.0006 222.057 13.2656C222.807 12.5306 223.685 11.9681 224.69 11.5781C225.71 11.1731 226.812 10.9706 227.997 10.9706C229.197 10.9706 230.3 11.1731 231.305 11.5781C232.31 11.9681 233.187 12.5306 233.937 13.2656C234.702 14.0006 235.287 14.8706 235.692 15.8756C236.112 16.8656 236.322 17.9606 236.322 19.1606C236.322 20.3456 236.112 21.4481 235.692 22.4681C235.287 23.4731 234.71 24.3506 233.96 25.1006C233.225 25.8506 232.347 26.4356 231.327 26.8556C230.322 27.2606 229.212 27.4631 227.997 27.4631C226.782 27.4631 225.665 27.2606 224.645 26.8556C223.64 26.4356 222.762 25.8506 222.012 25.1006C221.262 24.3506 220.685 23.4731 220.28 22.4681C219.875 21.4481 219.672 20.3456 219.672 19.1606ZM245.222 20.7356C245.222 20.0456 245.087 19.5206 244.817 19.1606C244.547 18.8006 244.112 18.6206 243.512 18.6206C243.107 18.6206 242.747 18.7106 242.432 18.8906C242.117 19.0556 241.877 19.2956 241.712 19.6106C241.547 19.9256 241.465 20.3006 241.465 20.7356V27.0356H238.54V16.6856H241.465V18.2606C241.78 17.6756 242.192 17.2331 242.702 16.9331C243.227 16.6181 243.857 16.4606 244.592 16.4606C245.822 16.4606 246.737 16.8131 247.337 17.5181C247.937 18.2081 248.237 19.1756 248.237 20.4206V27.0356H245.222V20.7356Z" fill="#FFF3C2"/>
<path d="M115.781 46.9156H117.617V60.3076H123.557V62.0356H115.781V46.9156ZM129.242 62.2516C128.32 62.2516 127.499 62.0356 126.779 61.6036C126.074 61.1572 125.519 60.5452 125.116 59.7676C124.727 58.99 124.533 58.09 124.533 57.0676C124.533 56.0308 124.735 55.1236 125.138 54.346C125.555 53.5684 126.131 52.9636 126.866 52.5316C127.615 52.0996 128.479 51.8836 129.458 51.8836C130.437 51.8836 131.272 52.0924 131.963 52.51C132.669 52.9132 133.209 53.4964 133.583 54.2596C133.958 55.0228 134.145 55.93 134.145 56.9812C134.145 57.082 134.138 57.19 134.123 57.3052C134.123 57.406 134.123 57.4708 134.123 57.4996H125.635V56.0308H132.763L132.071 57.0244C132.115 56.9524 132.158 56.8444 132.201 56.7004C132.244 56.542 132.266 56.4124 132.266 56.3116C132.266 55.7212 132.143 55.21 131.899 54.778C131.668 54.346 131.344 54.0076 130.927 53.7628C130.509 53.518 130.019 53.3956 129.458 53.3956C128.795 53.3956 128.227 53.5396 127.751 53.8276C127.291 54.1012 126.931 54.5044 126.671 55.0372C126.427 55.5556 126.297 56.1964 126.283 56.9596C126.283 57.7372 126.405 58.3996 126.65 58.9468C126.895 59.494 127.255 59.9116 127.73 60.1996C128.205 60.4876 128.781 60.6316 129.458 60.6316C130.135 60.6316 130.732 60.4876 131.251 60.1996C131.769 59.8972 132.208 59.4436 132.568 58.8388L133.972 59.7244C133.454 60.5596 132.799 61.1932 132.007 61.6252C131.229 62.0428 130.307 62.2516 129.242 62.2516ZM135.001 52.0996H139.969V53.7196H135.001V52.0996ZM136.621 48.6436H138.349V62.0356H136.621V48.6436ZM156.062 52.0996L149.582 66.7876H147.638L150.36 60.6316L146.558 52.0996H148.61L151.764 59.8756L151.051 59.7892L154.118 52.0996H156.062ZM156.511 57.0676C156.511 56.0596 156.734 55.1668 157.181 54.3892C157.641 53.6116 158.261 52.9996 159.038 52.5532C159.816 52.1068 160.687 51.8836 161.652 51.8836C162.631 51.8836 163.502 52.1068 164.265 52.5532C165.043 52.9996 165.655 53.6116 166.101 54.3892C166.562 55.1668 166.793 56.0596 166.793 57.0676C166.793 58.0612 166.562 58.954 166.101 59.746C165.655 60.5236 165.043 61.1356 164.265 61.582C163.502 62.0284 162.631 62.2516 161.652 62.2516C160.687 62.2516 159.816 62.0284 159.038 61.582C158.261 61.1356 157.641 60.5236 157.181 59.746C156.734 58.954 156.511 58.0612 156.511 57.0676ZM158.261 57.0676C158.261 57.7588 158.405 58.3708 158.693 58.9036C158.995 59.4364 159.398 59.8612 159.902 60.178C160.421 60.4804 161.004 60.6316 161.652 60.6316C162.3 60.6316 162.876 60.4804 163.38 60.178C163.898 59.8612 164.301 59.4364 164.589 58.9036C164.892 58.3708 165.043 57.7588 165.043 57.0676C165.043 56.3764 164.892 55.7644 164.589 55.2316C164.301 54.6844 163.898 54.2596 163.38 53.9572C162.876 53.6548 162.3 53.5036 161.652 53.5036C161.004 53.5036 160.421 53.6548 159.902 53.9572C159.398 54.2596 158.995 54.6844 158.693 55.2316C158.405 55.7644 158.261 56.3764 158.261 57.0676ZM170.894 58.1476C170.894 58.9396 171.074 59.5516 171.434 59.9836C171.794 60.4156 172.32 60.6316 173.011 60.6316C173.515 60.6316 173.954 60.5308 174.329 60.3292C174.718 60.1132 175.013 59.818 175.214 59.4436C175.43 59.0692 175.538 58.6372 175.538 58.1476V52.0996H177.266V62.0356H175.538V60.4804C175.207 61.0708 174.797 61.5172 174.307 61.8196C173.818 62.1076 173.242 62.2516 172.579 62.2516C171.542 62.2516 170.714 61.8988 170.095 61.1932C169.476 60.4876 169.166 59.5444 169.166 58.3636V52.0996H170.894V58.1476ZM182.243 52.0996V62.0356H180.515V52.0996H182.243ZM185.245 54.0004C185.015 53.8276 184.806 53.7052 184.619 53.6332C184.432 53.5468 184.194 53.5036 183.906 53.5036C183.474 53.5036 183.136 53.6116 182.891 53.8276C182.646 54.0436 182.473 54.3388 182.373 54.7132C182.286 55.0876 182.243 55.5124 182.243 55.9876H181.465C181.465 55.1956 181.602 54.4972 181.876 53.8924C182.164 53.2732 182.531 52.7836 182.977 52.4236C183.424 52.0636 183.877 51.8836 184.338 51.8836C184.698 51.8836 185.029 51.934 185.332 52.0348C185.649 52.1212 185.937 52.3012 186.196 52.5748L185.245 54.0004ZM193.639 52.0996H198.607V53.7196H193.639V52.0996ZM198.434 47.2612C198.29 47.0164 198.117 46.8652 197.915 46.8076C197.728 46.7356 197.548 46.6996 197.375 46.6996C197.159 46.6996 196.972 46.7644 196.814 46.894C196.67 47.0092 196.555 47.2108 196.468 47.4988C196.382 47.7868 196.339 48.1684 196.339 48.6436V62.0356H194.611V48.4276C194.611 47.6356 194.726 46.9876 194.956 46.4836C195.187 45.9796 195.511 45.6052 195.928 45.3604C196.36 45.1012 196.879 44.9716 197.483 44.9716C197.8 44.9716 198.081 45.0148 198.326 45.1012C198.571 45.1876 198.779 45.2956 198.952 45.4252C199.139 45.5548 199.283 45.6916 199.384 45.8356L198.434 47.2612ZM202.303 52.0996V62.0356H200.575V52.0996H202.303ZM205.305 54.0004C205.075 53.8276 204.866 53.7052 204.679 53.6332C204.492 53.5468 204.254 53.5036 203.966 53.5036C203.534 53.5036 203.196 53.6116 202.951 53.8276C202.706 54.0436 202.533 54.3388 202.433 54.7132C202.346 55.0876 202.303 55.5124 202.303 55.9876H201.525C201.525 55.1956 201.662 54.4972 201.936 53.8924C202.224 53.2732 202.591 52.7836 203.037 52.4236C203.484 52.0636 203.937 51.8836 204.398 51.8836C204.758 51.8836 205.089 51.934 205.392 52.0348C205.709 52.1212 205.997 52.3012 206.256 52.5748L205.305 54.0004ZM207.979 47.9956C207.979 47.6644 208.094 47.3836 208.325 47.1532C208.569 46.9228 208.85 46.8076 209.167 46.8076C209.498 46.8076 209.779 46.9228 210.009 47.1532C210.24 47.3836 210.355 47.6644 210.355 47.9956C210.355 48.3124 210.24 48.5932 210.009 48.838C209.779 49.0684 209.498 49.1836 209.167 49.1836C208.85 49.1836 208.569 49.0684 208.325 48.838C208.094 48.5932 207.979 48.3124 207.979 47.9956ZM208.303 52.0996H210.031V62.0356H208.303V52.0996ZM217.435 62.2516C216.513 62.2516 215.692 62.0356 214.972 61.6036C214.267 61.1572 213.712 60.5452 213.309 59.7676C212.92 58.99 212.726 58.09 212.726 57.0676C212.726 56.0308 212.928 55.1236 213.331 54.346C213.748 53.5684 214.324 52.9636 215.059 52.5316C215.808 52.0996 216.672 51.8836 217.651 51.8836C218.63 51.8836 219.465 52.0924 220.156 52.51C220.862 52.9132 221.402 53.4964 221.776 54.2596C222.151 55.0228 222.338 55.93 222.338 56.9812C222.338 57.082 222.331 57.19 222.316 57.3052C222.316 57.406 222.316 57.4708 222.316 57.4996H213.828V56.0308H220.956L220.264 57.0244C220.308 56.9524 220.351 56.8444 220.394 56.7004C220.437 56.542 220.459 56.4124 220.459 56.3116C220.459 55.7212 220.336 55.21 220.092 54.778C219.861 54.346 219.537 54.0076 219.12 53.7628C218.702 53.518 218.212 53.3956 217.651 53.3956C216.988 53.3956 216.42 53.5396 215.944 53.8276C215.484 54.1012 215.124 54.5044 214.864 55.0372C214.62 55.5556 214.49 56.1964 214.476 56.9596C214.476 57.7372 214.598 58.3996 214.843 58.9468C215.088 59.494 215.448 59.9116 215.923 60.1996C216.398 60.4876 216.974 60.6316 217.651 60.6316C218.328 60.6316 218.925 60.4876 219.444 60.1996C219.962 59.8972 220.401 59.4436 220.761 58.8388L222.165 59.7244C221.647 60.5596 220.992 61.1932 220.2 61.6252C219.422 62.0428 218.5 62.2516 217.435 62.2516ZM231.078 55.9876C231.078 55.1668 230.898 54.5476 230.538 54.13C230.178 53.7124 229.653 53.5036 228.962 53.5036C228.458 53.5036 228.011 53.6116 227.622 53.8276C227.248 54.0292 226.953 54.3172 226.737 54.6916C226.535 55.066 226.434 55.498 226.434 55.9876V62.0356H224.706V52.0996H226.434V53.6548C226.766 53.05 227.176 52.6036 227.666 52.3156C228.17 52.0276 228.746 51.8836 229.394 51.8836C230.445 51.8836 231.273 52.2364 231.878 52.942C232.497 53.6332 232.806 54.5764 232.806 55.7716V62.0356H231.078V55.9876ZM243.507 45.1876H245.235V62.0356H243.507V45.1876ZM235.191 57.0676C235.191 55.9876 235.414 55.066 235.86 54.3028C236.307 53.5252 236.904 52.9276 237.653 52.51C238.402 52.0924 239.223 51.8836 240.116 51.8836C240.951 51.8836 241.678 52.0924 242.297 52.51C242.916 52.9276 243.399 53.5252 243.744 54.3028C244.104 55.066 244.284 55.9876 244.284 57.0676C244.284 58.1332 244.104 59.0548 243.744 59.8324C243.399 60.61 242.916 61.2076 242.297 61.6252C241.678 62.0428 240.951 62.2516 240.116 62.2516C239.223 62.2516 238.402 62.0428 237.653 61.6252C236.904 61.2076 236.307 60.61 235.86 59.8324C235.414 59.0548 235.191 58.1332 235.191 57.0676ZM236.94 57.0676C236.94 57.8308 237.092 58.4788 237.394 59.0116C237.711 59.5444 238.128 59.9476 238.647 60.2212C239.165 60.4948 239.727 60.6316 240.332 60.6316C240.836 60.6316 241.332 60.4948 241.822 60.2212C242.312 59.9476 242.715 59.5444 243.032 59.0116C243.348 58.4788 243.507 57.8308 243.507 57.0676C243.507 56.3044 243.348 55.6564 243.032 55.1236C242.715 54.5908 242.312 54.1876 241.822 53.914C241.332 53.6404 240.836 53.5036 240.332 53.5036C239.727 53.5036 239.165 53.6404 238.647 53.914C238.128 54.1876 237.711 54.5908 237.394 55.1236C237.092 55.6564 236.94 56.3044 236.94 57.0676ZM248.784 58.99C248.986 59.2924 249.216 59.5732 249.475 59.8324C249.734 60.0916 250.03 60.3004 250.361 60.4588C250.706 60.6028 251.081 60.6748 251.484 60.6748C251.974 60.6748 252.355 60.5668 252.629 60.3508C252.917 60.1204 253.061 59.8108 253.061 59.422C253.061 59.0764 252.946 58.7884 252.715 58.558C252.499 58.3132 252.218 58.1116 251.873 57.9532C251.527 57.7804 251.16 57.622 250.771 57.478C250.339 57.3052 249.9 57.1036 249.454 56.8732C249.022 56.6284 248.654 56.3188 248.352 55.9444C248.064 55.5556 247.92 55.0732 247.92 54.4972C247.92 53.9068 248.071 53.4172 248.374 53.0284C248.69 52.6396 249.094 52.3516 249.583 52.1644C250.087 51.9772 250.606 51.8836 251.138 51.8836C251.671 51.8836 252.168 51.97 252.629 52.1428C253.104 52.3156 253.522 52.546 253.882 52.834C254.242 53.122 254.522 53.4532 254.724 53.8276L253.342 54.7132C253.068 54.3388 252.722 54.0292 252.305 53.7844C251.902 53.5396 251.441 53.4172 250.922 53.4172C250.562 53.4172 250.253 53.4964 249.994 53.6548C249.734 53.8132 249.605 54.058 249.605 54.3892C249.605 54.6484 249.706 54.8788 249.907 55.0804C250.109 55.282 250.368 55.462 250.685 55.6204C251.002 55.7788 251.333 55.93 251.678 56.074C252.254 56.3044 252.78 56.5564 253.255 56.83C253.73 57.0892 254.105 57.406 254.378 57.7804C254.666 58.1548 254.81 58.6372 254.81 59.2276C254.81 60.0916 254.494 60.8116 253.86 61.3876C253.241 61.9636 252.42 62.2516 251.398 62.2516C250.735 62.2516 250.138 62.1364 249.605 61.906C249.072 61.6612 248.618 61.3516 248.244 60.9772C247.884 60.6028 247.61 60.2212 247.423 59.8324L248.784 58.99ZM263.561 47.9956C263.561 47.6644 263.676 47.3836 263.907 47.1532C264.151 46.9228 264.432 46.8076 264.749 46.8076C265.08 46.8076 265.361 46.9228 265.591 47.1532C265.822 47.3836 265.937 47.6644 265.937 47.9956C265.937 48.3124 265.822 48.5932 265.591 48.838C265.361 49.0684 265.08 49.1836 264.749 49.1836C264.432 49.1836 264.151 49.0684 263.907 48.838C263.676 48.5932 263.561 48.3124 263.561 47.9956ZM263.885 52.0996H265.613V62.0356H263.885V52.0996ZM275.544 55.9876C275.544 55.1668 275.364 54.5476 275.004 54.13C274.644 53.7124 274.118 53.5036 273.427 53.5036C272.923 53.5036 272.477 53.6116 272.088 53.8276C271.714 54.0292 271.418 54.3172 271.202 54.6916C271.001 55.066 270.9 55.498 270.9 55.9876V62.0356H269.172V52.0996H270.9V53.6548C271.231 53.05 271.642 52.6036 272.131 52.3156C272.635 52.0276 273.211 51.8836 273.859 51.8836C274.91 51.8836 275.738 52.2364 276.343 52.942C276.962 53.6332 277.272 54.5764 277.272 55.7716V62.0356H275.544V55.9876ZM286.132 57.0676C286.132 56.0596 286.355 55.1668 286.802 54.3892C287.263 53.6116 287.882 52.9996 288.659 52.5532C289.437 52.1068 290.308 51.8836 291.273 51.8836C292.252 51.8836 293.123 52.1068 293.887 52.5532C294.664 52.9996 295.276 53.6116 295.723 54.3892C296.183 55.1668 296.414 56.0596 296.414 57.0676C296.414 58.0612 296.183 58.954 295.723 59.746C295.276 60.5236 294.664 61.1356 293.887 61.582C293.123 62.0284 292.252 62.2516 291.273 62.2516C290.308 62.2516 289.437 62.0284 288.659 61.582C287.882 61.1356 287.263 60.5236 286.802 59.746C286.355 58.954 286.132 58.0612 286.132 57.0676ZM287.882 57.0676C287.882 57.7588 288.026 58.3708 288.314 58.9036C288.616 59.4364 289.019 59.8612 289.523 60.178C290.042 60.4804 290.625 60.6316 291.273 60.6316C291.921 60.6316 292.497 60.4804 293.001 60.178C293.519 59.8612 293.923 59.4364 294.211 58.9036C294.513 58.3708 294.664 57.7588 294.664 57.0676C294.664 56.3764 294.513 55.7644 294.211 55.2316C293.923 54.6844 293.519 54.2596 293.001 53.9572C292.497 53.6548 291.921 53.5036 291.273 53.5036C290.625 53.5036 290.042 53.6548 289.523 53.9572C289.019 54.2596 288.616 54.6844 288.314 55.2316C288.026 55.7644 287.882 56.3764 287.882 57.0676ZM305.16 55.9876C305.16 55.1668 304.98 54.5476 304.62 54.13C304.26 53.7124 303.734 53.5036 303.043 53.5036C302.539 53.5036 302.092 53.6116 301.704 53.8276C301.329 54.0292 301.034 54.3172 300.818 54.6916C300.616 55.066 300.516 55.498 300.516 55.9876V62.0356H298.788V52.0996H300.516V53.6548C300.847 53.05 301.257 52.6036 301.747 52.3156C302.251 52.0276 302.827 51.8836 303.475 51.8836C304.526 51.8836 305.354 52.2364 305.959 52.942C306.578 53.6332 306.888 54.5764 306.888 55.7716V62.0356H305.16V55.9876ZM315.1 52.0996H320.068V53.7196H315.1V52.0996ZM316.72 48.6436H318.448V62.0356H316.72V48.6436ZM323.529 45.1876V62.0356H321.801V45.1876H323.529ZM328.173 55.9876C328.173 55.1668 327.993 54.5476 327.633 54.13C327.287 53.7124 326.762 53.5036 326.056 53.5036C325.552 53.5036 325.106 53.6116 324.717 53.8276C324.342 54.0436 324.047 54.3388 323.831 54.7132C323.63 55.0876 323.529 55.5124 323.529 55.9876H322.967C322.967 55.1956 323.118 54.4972 323.421 53.8924C323.723 53.2732 324.134 52.7836 324.652 52.4236C325.185 52.0636 325.797 51.8836 326.488 51.8836C327.179 51.8836 327.777 52.0276 328.281 52.3156C328.799 52.6036 329.195 53.0356 329.469 53.6116C329.757 54.1876 329.901 54.9076 329.901 55.7716V62.0356H328.173V55.9876ZM336.994 62.2516C336.072 62.2516 335.252 62.0356 334.532 61.6036C333.826 61.1572 333.272 60.5452 332.868 59.7676C332.48 58.99 332.285 58.09 332.285 57.0676C332.285 56.0308 332.487 55.1236 332.89 54.346C333.308 53.5684 333.884 52.9636 334.618 52.5316C335.367 52.0996 336.231 51.8836 337.21 51.8836C338.189 51.8836 339.024 52.0924 339.716 52.51C340.421 52.9132 340.961 53.4964 341.336 54.2596C341.71 55.0228 341.897 55.93 341.897 56.9812C341.897 57.082 341.89 57.19 341.876 57.3052C341.876 57.406 341.876 57.4708 341.876 57.4996H333.387V56.0308H340.515L339.824 57.0244C339.867 56.9524 339.91 56.8444 339.953 56.7004C339.996 56.542 340.018 56.4124 340.018 56.3116C340.018 55.7212 339.896 55.21 339.651 54.778C339.42 54.346 339.096 54.0076 338.679 53.7628C338.261 53.518 337.772 53.3956 337.21 53.3956C336.548 53.3956 335.979 53.5396 335.504 53.8276C335.043 54.1012 334.683 54.5044 334.424 55.0372C334.179 55.5556 334.049 56.1964 334.035 56.9596C334.035 57.7372 334.157 58.3996 334.402 58.9468C334.647 59.494 335.007 59.9116 335.482 60.1996C335.957 60.4876 336.533 60.6316 337.21 60.6316C337.887 60.6316 338.484 60.4876 339.003 60.1996C339.521 59.8972 339.96 59.4436 340.32 58.8388L341.724 59.7244C341.206 60.5596 340.551 61.1932 339.759 61.6252C338.981 62.0428 338.06 62.2516 336.994 62.2516ZM116.45 82.0676C116.45 82.7588 116.594 83.3708 116.882 83.9036C117.185 84.4364 117.588 84.8612 118.092 85.178C118.61 85.4804 119.194 85.6316 119.842 85.6316C120.374 85.6316 120.871 85.5524 121.332 85.394C121.807 85.2212 122.218 84.998 122.563 84.7244C122.909 84.4364 123.154 84.134 123.298 83.8172V85.9772C122.952 86.3804 122.455 86.6972 121.807 86.9276C121.174 87.1436 120.518 87.2516 119.842 87.2516C118.877 87.2516 118.006 87.0284 117.228 86.582C116.45 86.1356 115.831 85.5236 115.37 84.746C114.924 83.954 114.701 83.0612 114.701 82.0676C114.701 81.0596 114.924 80.1668 115.37 79.3892C115.831 78.6116 116.45 77.9996 117.228 77.5532C118.006 77.1068 118.877 76.8836 119.842 76.8836C120.518 76.8836 121.174 76.9988 121.807 77.2292C122.455 77.4452 122.952 77.7548 123.298 78.158V80.318C123.154 79.9868 122.909 79.6844 122.563 79.4108C122.218 79.1372 121.807 78.9212 121.332 78.7628C120.871 78.59 120.374 78.5036 119.842 78.5036C119.194 78.5036 118.61 78.6548 118.092 78.9572C117.588 79.2596 117.185 79.6844 116.882 80.2316C116.594 80.7644 116.45 81.3764 116.45 82.0676ZM127.716 70.1876V87.0356H125.988V70.1876H127.716ZM132.36 80.9876C132.36 80.1668 132.18 79.5476 131.82 79.13C131.474 78.7124 130.948 78.5036 130.243 78.5036C129.739 78.5036 129.292 78.6116 128.904 78.8276C128.529 79.0436 128.234 79.3388 128.018 79.7132C127.816 80.0876 127.716 80.5124 127.716 80.9876H127.154C127.154 80.1956 127.305 79.4972 127.608 78.8924C127.91 78.2732 128.32 77.7836 128.839 77.4236C129.372 77.0636 129.984 76.8836 130.675 76.8836C131.366 76.8836 131.964 77.0276 132.468 77.3156C132.986 77.6036 133.382 78.0356 133.656 78.6116C133.944 79.1876 134.088 79.9076 134.088 80.7716V87.0356H132.36V80.9876ZM138.114 83.9684C138.114 84.3428 138.2 84.6668 138.373 84.9404C138.56 85.214 138.812 85.4228 139.129 85.5668C139.46 85.6964 139.834 85.7612 140.252 85.7612C140.785 85.7612 141.26 85.6532 141.678 85.4372C142.11 85.2212 142.448 84.9188 142.693 84.53C142.952 84.1268 143.082 83.666 143.082 83.1476L143.427 84.4436C143.427 85.0772 143.233 85.6028 142.844 86.0204C142.47 86.438 142.002 86.7476 141.44 86.9492C140.893 87.1508 140.346 87.2516 139.798 87.2516C139.194 87.2516 138.625 87.1292 138.092 86.8844C137.574 86.6252 137.156 86.258 136.839 85.7828C136.522 85.3076 136.364 84.7316 136.364 84.0548C136.364 83.09 136.702 82.3196 137.379 81.7436C138.07 81.1532 139.028 80.858 140.252 80.858C140.972 80.858 141.57 80.9444 142.045 81.1172C142.534 81.2756 142.923 81.4628 143.211 81.6788C143.499 81.8804 143.694 82.046 143.794 82.1756V83.1908C143.29 82.8452 142.772 82.6004 142.239 82.4564C141.706 82.298 141.138 82.2188 140.533 82.2188C139.971 82.2188 139.51 82.2908 139.15 82.4348C138.805 82.5788 138.546 82.7804 138.373 83.0396C138.2 83.2988 138.114 83.6084 138.114 83.9684ZM137.854 79.3892L137.012 78.1148C137.386 77.8412 137.898 77.5676 138.546 77.294C139.208 77.0204 140 76.8836 140.922 76.8836C141.699 76.8836 142.376 77.006 142.952 77.2508C143.542 77.4812 143.996 77.8196 144.313 78.266C144.644 78.7124 144.81 79.2596 144.81 79.9076V87.0356H143.082V80.1452C143.082 79.7996 143.024 79.5188 142.909 79.3028C142.794 79.0724 142.628 78.8924 142.412 78.7628C142.21 78.6332 141.973 78.5396 141.699 78.482C141.426 78.4244 141.138 78.3956 140.835 78.3956C140.346 78.3956 139.899 78.4532 139.496 78.5684C139.107 78.6836 138.776 78.8204 138.502 78.9788C138.229 79.1372 138.013 79.274 137.854 79.3892ZM154.107 80.9876C154.107 80.1668 153.927 79.5476 153.567 79.13C153.207 78.7124 152.682 78.5036 151.99 78.5036C151.486 78.5036 151.04 78.6116 150.651 78.8276C150.277 79.0292 149.982 79.3172 149.766 79.6916C149.564 80.066 149.463 80.498 149.463 80.9876V87.0356H147.735V77.0996H149.463V78.6548C149.794 78.05 150.205 77.6036 150.694 77.3156C151.198 77.0276 151.774 76.8836 152.422 76.8836C153.474 76.8836 154.302 77.2364 154.906 77.942C155.526 78.6332 155.835 79.5764 155.835 80.7716V87.0356H154.107V80.9876ZM159.861 82.0676C159.861 82.7588 160.005 83.3708 160.293 83.9036C160.596 84.4364 160.999 84.8612 161.503 85.178C162.021 85.4804 162.604 85.6316 163.252 85.6316C163.785 85.6316 164.282 85.5524 164.743 85.394C165.218 85.2212 165.628 84.998 165.974 84.7244C166.32 84.4364 166.564 84.134 166.708 83.8172V85.9772C166.363 86.3804 165.866 86.6972 165.218 86.9276C164.584 87.1436 163.929 87.2516 163.252 87.2516C162.288 87.2516 161.416 87.0284 160.639 86.582C159.861 86.1356 159.242 85.5236 158.781 84.746C158.335 83.954 158.112 83.0612 158.112 82.0676C158.112 81.0596 158.335 80.1668 158.781 79.3892C159.242 78.6116 159.861 77.9996 160.639 77.5532C161.416 77.1068 162.288 76.8836 163.252 76.8836C163.929 76.8836 164.584 76.9988 165.218 77.2292C165.866 77.4452 166.363 77.7548 166.708 78.158V80.318C166.564 79.9868 166.32 79.6844 165.974 79.4108C165.628 79.1372 165.218 78.9212 164.743 78.7628C164.282 78.59 163.785 78.5036 163.252 78.5036C162.604 78.5036 162.021 78.6548 161.503 78.9572C160.999 79.2596 160.596 79.6844 160.293 80.2316C160.005 80.7644 159.861 81.3764 159.861 82.0676ZM173.243 87.2516C172.322 87.2516 171.501 87.0356 170.781 86.6036C170.075 86.1572 169.521 85.5452 169.118 84.7676C168.729 83.99 168.535 83.09 168.535 82.0676C168.535 81.0308 168.736 80.1236 169.139 79.346C169.557 78.5684 170.133 77.9636 170.867 77.5316C171.616 77.0996 172.48 76.8836 173.459 76.8836C174.439 76.8836 175.274 77.0924 175.965 77.51C176.671 77.9132 177.211 78.4964 177.585 79.2596C177.959 80.0228 178.147 80.93 178.147 81.9812C178.147 82.082 178.139 82.19 178.125 82.3052C178.125 82.406 178.125 82.4708 178.125 82.4996H169.636V81.0308H176.764L176.073 82.0244C176.116 81.9524 176.159 81.8444 176.203 81.7004C176.246 81.542 176.267 81.4124 176.267 81.3116C176.267 80.7212 176.145 80.21 175.9 79.778C175.67 79.346 175.346 79.0076 174.928 78.7628C174.511 78.518 174.021 78.3956 173.459 78.3956C172.797 78.3956 172.228 78.5396 171.753 78.8276C171.292 79.1012 170.932 79.5044 170.673 80.0372C170.428 80.5556 170.299 81.1964 170.284 81.9596C170.284 82.7372 170.407 83.3996 170.651 83.9468C170.896 84.494 171.256 84.9116 171.731 85.1996C172.207 85.4876 172.783 85.6316 173.459 85.6316C174.136 85.6316 174.734 85.4876 175.252 85.1996C175.771 84.8972 176.21 84.4436 176.57 83.8388L177.974 84.7244C177.455 85.5596 176.8 86.1932 176.008 86.6252C175.231 87.0428 174.309 87.2516 173.243 87.2516ZM185.479 77.0996H190.447V78.7196H185.479V77.0996ZM187.099 73.6436H188.827V87.0356H187.099V73.6436ZM191.316 82.0676C191.316 81.0596 191.539 80.1668 191.985 79.3892C192.446 78.6116 193.065 77.9996 193.843 77.5532C194.621 77.1068 195.492 76.8836 196.457 76.8836C197.436 76.8836 198.307 77.1068 199.07 77.5532C199.848 77.9996 200.46 78.6116 200.906 79.3892C201.367 80.1668 201.597 81.0596 201.597 82.0676C201.597 83.0612 201.367 83.954 200.906 84.746C200.46 85.5236 199.848 86.1356 199.07 86.582C198.307 87.0284 197.436 87.2516 196.457 87.2516C195.492 87.2516 194.621 87.0284 193.843 86.582C193.065 86.1356 192.446 85.5236 191.985 84.746C191.539 83.954 191.316 83.0612 191.316 82.0676ZM193.065 82.0676C193.065 82.7588 193.209 83.3708 193.497 83.9036C193.8 84.4364 194.203 84.8612 194.707 85.178C195.225 85.4804 195.809 85.6316 196.457 85.6316C197.105 85.6316 197.681 85.4804 198.185 85.178C198.703 84.8612 199.106 84.4364 199.394 83.9036C199.697 83.3708 199.848 82.7588 199.848 82.0676C199.848 81.3764 199.697 80.7644 199.394 80.2316C199.106 79.6844 198.703 79.2596 198.185 78.9572C197.681 78.6548 197.105 78.5036 196.457 78.5036C195.809 78.5036 195.225 78.6548 194.707 78.9572C194.203 79.2596 193.8 79.6844 193.497 80.2316C193.209 80.7644 193.065 81.3764 193.065 82.0676ZM208.935 77.0996H210.879L213.363 83.558L216.063 76.3436L218.957 83.6012L221.463 77.0996H223.407L219.087 87.7916L216.085 80.5556L213.255 87.7916L208.935 77.0996ZM225.128 72.9956C225.128 72.6644 225.243 72.3836 225.474 72.1532C225.719 71.9228 225.999 71.8076 226.316 71.8076C226.647 71.8076 226.928 71.9228 227.159 72.1532C227.389 72.3836 227.504 72.6644 227.504 72.9956C227.504 73.3124 227.389 73.5932 227.159 73.838C226.928 74.0684 226.647 74.1836 226.316 74.1836C225.999 74.1836 225.719 74.0684 225.474 73.838C225.243 73.5932 225.128 73.3124 225.128 72.9956ZM225.452 77.0996H227.18V87.0356H225.452V77.0996ZM231.15 83.99C231.351 84.2924 231.582 84.5732 231.841 84.8324C232.1 85.0916 232.395 85.3004 232.726 85.4588C233.072 85.6028 233.446 85.6748 233.85 85.6748C234.339 85.6748 234.721 85.5668 234.994 85.3508C235.282 85.1204 235.426 84.8108 235.426 84.422C235.426 84.0764 235.311 83.7884 235.081 83.558C234.865 83.3132 234.584 83.1116 234.238 82.9532C233.893 82.7804 233.526 82.622 233.137 82.478C232.705 82.3052 232.266 82.1036 231.819 81.8732C231.387 81.6284 231.02 81.3188 230.718 80.9444C230.43 80.5556 230.286 80.0732 230.286 79.4972C230.286 78.9068 230.437 78.4172 230.739 78.0284C231.056 77.6396 231.459 77.3516 231.949 77.1644C232.453 76.9772 232.971 76.8836 233.504 76.8836C234.037 76.8836 234.534 76.97 234.994 77.1428C235.47 77.3156 235.887 77.546 236.247 77.834C236.607 78.122 236.888 78.4532 237.09 78.8276L235.707 79.7132C235.434 79.3388 235.088 79.0292 234.67 78.7844C234.267 78.5396 233.806 78.4172 233.288 78.4172C232.928 78.4172 232.618 78.4964 232.359 78.6548C232.1 78.8132 231.97 79.058 231.97 79.3892C231.97 79.6484 232.071 79.8788 232.273 80.0804C232.474 80.282 232.734 80.462 233.05 80.6204C233.367 80.7788 233.698 80.93 234.044 81.074C234.62 81.3044 235.146 81.5564 235.621 81.83C236.096 82.0892 236.47 82.406 236.744 82.7804C237.032 83.1548 237.176 83.6372 237.176 84.2276C237.176 85.0916 236.859 85.8116 236.226 86.3876C235.606 86.9636 234.786 87.2516 233.763 87.2516C233.101 87.2516 232.503 87.1364 231.97 86.906C231.438 86.6612 230.984 86.3516 230.61 85.9772C230.25 85.6028 229.976 85.2212 229.789 84.8324L231.15 83.99ZM241.179 70.1876V87.0356H239.451V70.1876H241.179ZM245.823 80.9876C245.823 80.1668 245.643 79.5476 245.283 79.13C244.937 78.7124 244.412 78.5036 243.706 78.5036C243.202 78.5036 242.756 78.6116 242.367 78.8276C241.992 79.0436 241.697 79.3388 241.481 79.7132C241.28 80.0876 241.179 80.5124 241.179 80.9876H240.617C240.617 80.1956 240.768 79.4972 241.071 78.8924C241.373 78.2732 241.784 77.7836 242.302 77.4236C242.835 77.0636 243.447 76.8836 244.138 76.8836C244.829 76.8836 245.427 77.0276 245.931 77.3156C246.449 77.6036 246.845 78.0356 247.119 78.6116C247.407 79.1876 247.551 79.9076 247.551 80.7716V87.0356H245.823V80.9876ZM255.763 77.0996H260.731V78.7196H255.763V77.0996ZM257.383 73.6436H259.111V87.0356H257.383V73.6436ZM261.6 82.0676C261.6 81.0596 261.823 80.1668 262.27 79.3892C262.731 78.6116 263.35 77.9996 264.127 77.5532C264.905 77.1068 265.776 76.8836 266.741 76.8836C267.72 76.8836 268.591 77.1068 269.355 77.5532C270.132 77.9996 270.744 78.6116 271.191 79.3892C271.651 80.1668 271.882 81.0596 271.882 82.0676C271.882 83.0612 271.651 83.954 271.191 84.746C270.744 85.5236 270.132 86.1356 269.355 86.582C268.591 87.0284 267.72 87.2516 266.741 87.2516C265.776 87.2516 264.905 87.0284 264.127 86.582C263.35 86.1356 262.731 85.5236 262.27 84.746C261.823 83.954 261.6 83.0612 261.6 82.0676ZM263.35 82.0676C263.35 82.7588 263.494 83.3708 263.782 83.9036C264.084 84.4364 264.487 84.8612 264.991 85.178C265.51 85.4804 266.093 85.6316 266.741 85.6316C267.389 85.6316 267.965 85.4804 268.469 85.178C268.987 84.8612 269.391 84.4364 269.679 83.9036C269.981 83.3708 270.132 82.7588 270.132 82.0676C270.132 81.3764 269.981 80.7644 269.679 80.2316C269.391 79.6844 268.987 79.2596 268.469 78.9572C267.965 78.6548 267.389 78.5036 266.741 78.5036C266.093 78.5036 265.51 78.6548 264.991 78.9572C264.487 79.2596 264.084 79.6844 263.782 80.2316C263.494 80.7644 263.35 81.3764 263.35 82.0676ZM273.392 82.0676C273.392 81.0596 273.615 80.1668 274.061 79.3892C274.522 78.6116 275.141 77.9996 275.919 77.5532C276.696 77.1068 277.568 76.8836 278.532 76.8836C279.512 76.8836 280.383 77.1068 281.146 77.5532C281.924 77.9996 282.536 78.6116 282.982 79.3892C283.443 80.1668 283.673 81.0596 283.673 82.0676C283.673 83.0612 283.443 83.954 282.982 84.746C282.536 85.5236 281.924 86.1356 281.146 86.582C280.383 87.0284 279.512 87.2516 278.532 87.2516C277.568 87.2516 276.696 87.0284 275.919 86.582C275.141 86.1356 274.522 85.5236 274.061 84.746C273.615 83.954 273.392 83.0612 273.392 82.0676ZM275.141 82.0676C275.141 82.7588 275.285 83.3708 275.573 83.9036C275.876 84.4364 276.279 84.8612 276.783 85.178C277.301 85.4804 277.884 85.6316 278.532 85.6316C279.18 85.6316 279.756 85.4804 280.26 85.178C280.779 84.8612 281.182 84.4364 281.47 83.9036C281.772 83.3708 281.924 82.7588 281.924 82.0676C281.924 81.3764 281.772 80.7644 281.47 80.2316C281.182 79.6844 280.779 79.2596 280.26 78.9572C279.756 78.6548 279.18 78.5036 278.532 78.5036C277.884 78.5036 277.301 78.6548 276.783 78.9572C276.279 79.2596 275.876 79.6844 275.573 80.2316C275.285 80.7644 275.141 81.3764 275.141 82.0676Z" fill="white"/>
</svg>
