<svg width="1069" height="562" viewBox="0 0 1069 562" fill="none" xmlns="http://www.w3.org/2000/svg">
<path d="M228.602 270.485L234.335 254.262H237.327L228.665 277.415L222.05 260.279L215.435 277.415L206.772 254.262H209.765L215.624 270.485L222.05 253.16L228.602 270.485ZM243.096 276.628C241.752 276.628 240.555 276.312 239.505 275.682C238.476 275.031 237.668 274.139 237.08 273.005C236.513 271.871 236.229 270.558 236.229 269.067C236.229 267.555 236.523 266.232 237.111 265.098C237.72 263.964 238.56 263.082 239.631 262.452C240.723 261.822 241.983 261.507 243.411 261.507C244.839 261.507 246.057 261.812 247.065 262.421C248.094 263.009 248.882 263.859 249.428 264.972C249.974 266.085 250.247 267.408 250.247 268.941C250.247 269.088 250.236 269.246 250.215 269.414C250.215 269.561 250.215 269.655 250.215 269.697H237.836V267.555H248.231L247.223 269.004C247.286 268.899 247.349 268.742 247.412 268.532C247.475 268.301 247.506 268.112 247.506 267.965C247.506 267.104 247.328 266.358 246.971 265.728C246.635 265.098 246.162 264.605 245.553 264.248C244.944 263.891 244.23 263.712 243.411 263.712C242.445 263.712 241.616 263.922 240.923 264.342C240.251 264.741 239.726 265.329 239.348 266.106C238.991 266.862 238.802 267.797 238.781 268.91C238.781 270.044 238.959 271.01 239.316 271.808C239.673 272.606 240.198 273.215 240.891 273.635C241.584 274.055 242.424 274.265 243.411 274.265C244.398 274.265 245.27 274.055 246.026 273.635C246.782 273.194 247.422 272.532 247.947 271.65L249.995 272.942C249.239 274.16 248.283 275.084 247.128 275.714C245.994 276.323 244.65 276.628 243.096 276.628ZM253.85 254.262H256.842L253.692 261.507H251.96L253.85 254.262ZM259.06 261.822H261.895L265.99 272.06L270.085 261.822H272.92L265.99 277.415L259.06 261.822ZM280.441 276.628C279.097 276.628 277.9 276.312 276.85 275.682C275.821 275.031 275.013 274.139 274.425 273.005C273.858 271.871 273.574 270.558 273.574 269.067C273.574 267.555 273.868 266.232 274.456 265.098C275.065 263.964 275.905 263.082 276.976 262.452C278.068 261.822 279.328 261.507 280.756 261.507C282.184 261.507 283.402 261.812 284.41 262.421C285.439 263.009 286.227 263.859 286.773 264.972C287.319 266.085 287.592 267.408 287.592 268.941C287.592 269.088 287.581 269.246 287.56 269.414C287.56 269.561 287.56 269.655 287.56 269.697H275.181V267.555H285.576L284.568 269.004C284.631 268.899 284.694 268.742 284.757 268.532C284.82 268.301 284.851 268.112 284.851 267.965C284.851 267.104 284.673 266.358 284.316 265.728C283.98 265.098 283.507 264.605 282.898 264.248C282.289 263.891 281.575 263.712 280.756 263.712C279.79 263.712 278.961 263.922 278.268 264.342C277.596 264.741 277.071 265.329 276.693 266.106C276.336 266.862 276.147 267.797 276.126 268.91C276.126 270.044 276.304 271.01 276.661 271.808C277.018 272.606 277.543 273.215 278.236 273.635C278.929 274.055 279.769 274.265 280.756 274.265C281.743 274.265 282.615 274.055 283.371 273.635C284.127 273.194 284.767 272.532 285.292 271.65L287.34 272.942C286.584 274.16 285.628 275.084 284.473 275.714C283.339 276.323 281.995 276.628 280.441 276.628ZM303.009 261.822V276.312H300.489V261.822H303.009ZM307.388 264.594C307.052 264.342 306.747 264.164 306.474 264.059C306.201 263.933 305.855 263.87 305.435 263.87C304.805 263.87 304.311 264.027 303.954 264.342C303.597 264.657 303.345 265.088 303.198 265.634C303.072 266.18 303.009 266.799 303.009 267.492H301.875C301.875 266.337 302.075 265.319 302.474 264.437C302.894 263.534 303.429 262.82 304.08 262.295C304.731 261.77 305.393 261.507 306.065 261.507C306.59 261.507 307.073 261.581 307.514 261.728C307.976 261.854 308.396 262.116 308.774 262.515L307.388 264.594ZM316.432 276.628C315.088 276.628 313.891 276.312 312.841 275.682C311.812 275.031 311.004 274.139 310.416 273.005C309.849 271.871 309.565 270.558 309.565 269.067C309.565 267.555 309.859 266.232 310.447 265.098C311.056 263.964 311.896 263.082 312.967 262.452C314.059 261.822 315.319 261.507 316.747 261.507C318.175 261.507 319.393 261.812 320.401 262.421C321.43 263.009 322.218 263.859 322.764 264.972C323.31 266.085 323.583 267.408 323.583 268.941C323.583 269.088 323.572 269.246 323.551 269.414C323.551 269.561 323.551 269.655 323.551 269.697H311.172V267.555H321.567L320.559 269.004C320.622 268.899 320.685 268.742 320.748 268.532C320.811 268.301 320.842 268.112 320.842 267.965C320.842 267.104 320.664 266.358 320.307 265.728C319.971 265.098 319.498 264.605 318.889 264.248C318.28 263.891 317.566 263.712 316.747 263.712C315.781 263.712 314.952 263.922 314.259 264.342C313.587 264.741 313.062 265.329 312.684 266.106C312.327 266.862 312.138 267.797 312.117 268.91C312.117 270.044 312.295 271.01 312.652 271.808C313.009 272.606 313.534 273.215 314.227 273.635C314.92 274.055 315.76 274.265 316.747 274.265C317.734 274.265 318.606 274.055 319.362 273.635C320.118 273.194 320.758 272.532 321.283 271.65L323.331 272.942C322.575 274.16 321.619 275.084 320.464 275.714C319.33 276.323 317.986 276.628 316.432 276.628ZM328.171 269.067C328.171 270.075 328.381 270.968 328.801 271.745C329.242 272.522 329.83 273.141 330.565 273.603C331.321 274.044 332.171 274.265 333.116 274.265C333.893 274.265 334.618 274.149 335.29 273.918C335.983 273.666 336.581 273.341 337.085 272.942C337.589 272.522 337.946 272.081 338.156 271.619V274.769C337.652 275.357 336.928 275.819 335.983 276.155C335.059 276.47 334.103 276.628 333.116 276.628C331.709 276.628 330.439 276.302 329.305 275.651C328.171 275 327.268 274.107 326.596 272.973C325.945 271.818 325.619 270.516 325.619 269.067C325.619 267.597 325.945 266.295 326.596 265.161C327.268 264.027 328.171 263.135 329.305 262.484C330.439 261.833 331.709 261.507 333.116 261.507C334.103 261.507 335.059 261.675 335.983 262.011C336.928 262.326 337.652 262.778 338.156 263.366V266.516C337.946 266.033 337.589 265.592 337.085 265.193C336.581 264.794 335.983 264.479 335.29 264.248C334.618 263.996 333.893 263.87 333.116 263.87C332.171 263.87 331.321 264.09 330.565 264.531C329.83 264.972 329.242 265.592 328.801 266.39C328.381 267.167 328.171 268.059 328.171 269.067ZM347.686 276.628C346.342 276.628 345.145 276.312 344.095 275.682C343.066 275.031 342.258 274.139 341.67 273.005C341.103 271.871 340.819 270.558 340.819 269.067C340.819 267.555 341.113 266.232 341.701 265.098C342.31 263.964 343.15 263.082 344.221 262.452C345.313 261.822 346.573 261.507 348.001 261.507C349.429 261.507 350.647 261.812 351.655 262.421C352.684 263.009 353.472 263.859 354.018 264.972C354.564 266.085 354.837 267.408 354.837 268.941C354.837 269.088 354.826 269.246 354.805 269.414C354.805 269.561 354.805 269.655 354.805 269.697H342.426V267.555H352.821L351.813 269.004C351.876 268.899 351.939 268.742 352.002 268.532C352.065 268.301 352.096 268.112 352.096 267.965C352.096 267.104 351.918 266.358 351.561 265.728C351.225 265.098 350.752 264.605 350.143 264.248C349.534 263.891 348.82 263.712 348.001 263.712C347.035 263.712 346.206 263.922 345.513 264.342C344.841 264.741 344.316 265.329 343.938 266.106C343.581 266.862 343.392 267.797 343.371 268.91C343.371 270.044 343.549 271.01 343.906 271.808C344.263 272.606 344.788 273.215 345.481 273.635C346.174 274.055 347.014 274.265 348.001 274.265C348.988 274.265 349.86 274.055 350.616 273.635C351.372 273.194 352.012 272.532 352.537 271.65L354.585 272.942C353.829 274.16 352.873 275.084 351.718 275.714C350.584 276.323 349.24 276.628 347.686 276.628ZM358.291 255.837C358.291 255.354 358.459 254.945 358.795 254.609C359.152 254.273 359.561 254.105 360.023 254.105C360.506 254.105 360.916 254.273 361.252 254.609C361.588 254.945 361.756 255.354 361.756 255.837C361.756 256.299 361.588 256.709 361.252 257.066C360.916 257.402 360.506 257.57 360.023 257.57C359.561 257.57 359.152 257.402 358.795 257.066C358.459 256.709 358.291 256.299 358.291 255.837ZM358.763 261.822H361.283V276.312H358.763V261.822ZM364.111 261.822H366.946L371.041 272.06L375.136 261.822H377.971L371.041 277.415L364.111 261.822ZM385.492 276.628C384.148 276.628 382.951 276.312 381.901 275.682C380.872 275.031 380.064 274.139 379.476 273.005C378.909 271.871 378.625 270.558 378.625 269.067C378.625 267.555 378.919 266.232 379.507 265.098C380.116 263.964 380.956 263.082 382.027 262.452C383.119 261.822 384.379 261.507 385.807 261.507C387.235 261.507 388.453 261.812 389.461 262.421C390.49 263.009 391.278 263.859 391.824 264.972C392.37 266.085 392.643 267.408 392.643 268.941C392.643 269.088 392.632 269.246 392.611 269.414C392.611 269.561 392.611 269.655 392.611 269.697H380.232V267.555H390.627L389.619 269.004C389.682 268.899 389.745 268.742 389.808 268.532C389.871 268.301 389.902 268.112 389.902 267.965C389.902 267.104 389.724 266.358 389.367 265.728C389.031 265.098 388.558 264.605 387.949 264.248C387.34 263.891 386.626 263.712 385.807 263.712C384.841 263.712 384.012 263.922 383.319 264.342C382.647 264.741 382.122 265.329 381.744 266.106C381.387 266.862 381.198 267.797 381.177 268.91C381.177 270.044 381.355 271.01 381.712 271.808C382.069 272.606 382.594 273.215 383.287 273.635C383.98 274.055 384.82 274.265 385.807 274.265C386.794 274.265 387.666 274.055 388.422 273.635C389.178 273.194 389.818 272.532 390.343 271.65L392.391 272.942C391.635 274.16 390.679 275.084 389.524 275.714C388.39 276.323 387.046 276.628 385.492 276.628ZM406.964 251.742H409.484V276.312H406.964V251.742ZM394.837 269.067C394.837 267.492 395.162 266.148 395.813 265.035C396.464 263.901 397.336 263.03 398.428 262.421C399.52 261.812 400.717 261.507 402.019 261.507C403.237 261.507 404.297 261.812 405.2 262.421C406.103 263.03 406.807 263.901 407.311 265.035C407.836 266.148 408.098 267.492 408.098 269.067C408.098 270.621 407.836 271.965 407.311 273.099C406.807 274.233 406.103 275.105 405.2 275.714C404.297 276.323 403.237 276.628 402.019 276.628C400.717 276.628 399.52 276.323 398.428 275.714C397.336 275.105 396.464 274.233 395.813 273.099C395.162 271.965 394.837 270.621 394.837 269.067ZM397.388 269.067C397.388 270.18 397.609 271.125 398.05 271.902C398.512 272.679 399.121 273.267 399.877 273.666C400.633 274.065 401.452 274.265 402.334 274.265C403.069 274.265 403.793 274.065 404.507 273.666C405.221 273.267 405.809 272.679 406.271 271.902C406.733 271.125 406.964 270.18 406.964 269.067C406.964 267.954 406.733 267.009 406.271 266.232C405.809 265.455 405.221 264.867 404.507 264.468C403.793 264.069 403.069 263.87 402.334 263.87C401.452 263.87 400.633 264.069 399.877 264.468C399.121 264.867 398.512 265.455 398.05 266.232C397.609 267.009 397.388 267.954 397.388 269.067ZM435.003 261.822L425.553 283.243H422.718L426.687 274.265L421.143 261.822H424.136L428.735 273.162L427.695 273.036L432.168 261.822H435.003ZM435.658 269.067C435.658 267.597 435.983 266.295 436.634 265.161C437.306 264.027 438.209 263.135 439.343 262.484C440.477 261.833 441.748 261.507 443.155 261.507C444.583 261.507 445.853 261.833 446.966 262.484C448.1 263.135 448.993 264.027 449.644 265.161C450.316 266.295 450.652 267.597 450.652 269.067C450.652 270.516 450.316 271.818 449.644 272.973C448.993 274.107 448.1 275 446.966 275.651C445.853 276.302 444.583 276.628 443.155 276.628C441.748 276.628 440.477 276.302 439.343 275.651C438.209 275 437.306 274.107 436.634 272.973C435.983 271.818 435.658 270.516 435.658 269.067ZM438.209 269.067C438.209 270.075 438.419 270.968 438.839 271.745C439.28 272.522 439.868 273.141 440.603 273.603C441.359 274.044 442.21 274.265 443.155 274.265C444.1 274.265 444.94 274.044 445.675 273.603C446.431 273.141 447.019 272.522 447.439 271.745C447.88 270.968 448.1 270.075 448.1 269.067C448.1 268.059 447.88 267.167 447.439 266.39C447.019 265.592 446.431 264.972 445.675 264.531C444.94 264.09 444.1 263.87 443.155 263.87C442.21 263.87 441.359 264.09 440.603 264.531C439.868 264.972 439.28 265.592 438.839 266.39C438.419 267.167 438.209 268.059 438.209 269.067ZM456.633 270.642C456.633 271.797 456.896 272.69 457.421 273.32C457.946 273.95 458.712 274.265 459.72 274.265C460.455 274.265 461.096 274.118 461.642 273.824C462.209 273.509 462.639 273.078 462.933 272.532C463.248 271.986 463.406 271.356 463.406 270.642V261.822H465.926V276.312H463.406V274.044C462.923 274.905 462.324 275.556 461.61 275.997C460.896 276.418 460.056 276.628 459.09 276.628C457.578 276.628 456.371 276.113 455.468 275.084C454.565 274.055 454.113 272.679 454.113 270.957V261.822H456.633V270.642ZM473.183 261.822V276.312H470.663V261.822H473.183ZM477.562 264.594C477.226 264.342 476.921 264.164 476.648 264.059C476.375 263.933 476.029 263.87 475.609 263.87C474.979 263.87 474.485 264.027 474.128 264.342C473.771 264.657 473.519 265.088 473.372 265.634C473.246 266.18 473.183 266.799 473.183 267.492H472.049C472.049 266.337 472.249 265.319 472.648 264.437C473.068 263.534 473.603 262.82 474.254 262.295C474.905 261.77 475.567 261.507 476.239 261.507C476.764 261.507 477.247 261.581 477.688 261.728C478.15 261.854 478.57 262.116 478.948 262.515L477.562 264.594ZM488.699 261.822H491.534L495.157 271.241L499.094 260.72L503.315 271.304L506.969 261.822H509.804L503.504 277.415L499.126 266.862L494.999 277.415L488.699 261.822ZM512.315 255.837C512.315 255.354 512.483 254.945 512.819 254.609C513.176 254.273 513.585 254.105 514.047 254.105C514.53 254.105 514.94 254.273 515.276 254.609C515.612 254.945 515.78 255.354 515.78 255.837C515.78 256.299 515.612 256.709 515.276 257.066C514.94 257.402 514.53 257.57 514.047 257.57C513.585 257.57 513.176 257.402 512.819 257.066C512.483 256.709 512.315 256.299 512.315 255.837ZM512.787 261.822H515.307V276.312H512.787V261.822ZM521.096 271.871C521.39 272.312 521.726 272.721 522.104 273.099C522.482 273.477 522.912 273.782 523.395 274.013C523.899 274.223 524.445 274.328 525.033 274.328C525.747 274.328 526.304 274.17 526.703 273.855C527.123 273.519 527.333 273.068 527.333 272.501C527.333 271.997 527.165 271.577 526.829 271.241C526.514 270.884 526.104 270.59 525.6 270.359C525.096 270.107 524.561 269.876 523.994 269.666C523.364 269.414 522.723 269.12 522.072 268.784C521.442 268.427 520.907 267.975 520.466 267.429C520.046 266.862 519.836 266.159 519.836 265.319C519.836 264.458 520.056 263.744 520.497 263.177C520.959 262.61 521.547 262.19 522.261 261.917C522.996 261.644 523.752 261.507 524.529 261.507C525.306 261.507 526.031 261.633 526.703 261.885C527.396 262.137 528.005 262.473 528.53 262.893C529.055 263.313 529.464 263.796 529.758 264.342L527.742 265.634C527.343 265.088 526.839 264.636 526.23 264.279C525.642 263.922 524.97 263.744 524.214 263.744C523.689 263.744 523.238 263.859 522.86 264.09C522.482 264.321 522.293 264.678 522.293 265.161C522.293 265.539 522.44 265.875 522.734 266.169C523.028 266.463 523.406 266.726 523.868 266.957C524.33 267.188 524.813 267.408 525.317 267.618C526.157 267.954 526.923 268.322 527.616 268.721C528.309 269.099 528.855 269.561 529.254 270.107C529.674 270.653 529.884 271.356 529.884 272.217C529.884 273.477 529.422 274.527 528.498 275.367C527.595 276.208 526.398 276.628 524.907 276.628C523.941 276.628 523.07 276.46 522.293 276.123C521.516 275.766 520.854 275.315 520.308 274.769C519.783 274.223 519.384 273.666 519.111 273.099L521.096 271.871ZM535.722 251.742V276.312H533.202V251.742H535.722ZM542.494 267.492C542.494 266.295 542.232 265.392 541.707 264.783C541.203 264.174 540.436 263.87 539.407 263.87C538.672 263.87 538.021 264.027 537.454 264.342C536.908 264.657 536.478 265.088 536.163 265.634C535.869 266.18 535.722 266.799 535.722 267.492H534.903C534.903 266.337 535.123 265.319 535.564 264.437C536.005 263.534 536.604 262.82 537.36 262.295C538.137 261.77 539.029 261.507 540.037 261.507C541.045 261.507 541.917 261.717 542.652 262.137C543.408 262.557 543.985 263.187 544.384 264.027C544.804 264.867 545.014 265.917 545.014 267.177V276.312H542.494V267.492ZM560.33 271.839C560.33 272.385 560.456 272.858 560.708 273.257C560.981 273.656 561.348 273.96 561.81 274.17C562.293 274.359 562.839 274.454 563.448 274.454C564.225 274.454 564.918 274.296 565.527 273.981C566.157 273.666 566.651 273.225 567.008 272.658C567.386 272.07 567.575 271.398 567.575 270.642L568.079 272.532C568.079 273.456 567.795 274.223 567.228 274.832C566.682 275.441 566 275.892 565.181 276.186C564.383 276.481 563.585 276.628 562.787 276.628C561.905 276.628 561.075 276.449 560.298 276.092C559.542 275.714 558.933 275.178 558.471 274.485C558.009 273.792 557.778 272.952 557.778 271.965C557.778 270.558 558.272 269.435 559.259 268.595C560.267 267.734 561.663 267.303 563.448 267.303C564.498 267.303 565.37 267.429 566.063 267.681C566.777 267.912 567.344 268.185 567.764 268.5C568.184 268.794 568.467 269.036 568.614 269.225V270.705C567.879 270.201 567.123 269.844 566.346 269.634C565.569 269.403 564.74 269.288 563.858 269.288C563.039 269.288 562.367 269.393 561.842 269.603C561.338 269.813 560.96 270.107 560.708 270.485C560.456 270.863 560.33 271.314 560.33 271.839ZM559.952 265.161L558.723 263.303C559.269 262.904 560.015 262.505 560.96 262.106C561.926 261.707 563.081 261.507 564.425 261.507C565.559 261.507 566.546 261.686 567.386 262.043C568.247 262.379 568.908 262.872 569.37 263.523C569.853 264.174 570.095 264.972 570.095 265.917V276.312H567.575V266.264C567.575 265.76 567.491 265.35 567.323 265.035C567.155 264.699 566.913 264.437 566.598 264.248C566.304 264.059 565.958 263.922 565.559 263.838C565.16 263.754 564.74 263.712 564.299 263.712C563.585 263.712 562.934 263.796 562.346 263.964C561.779 264.132 561.296 264.332 560.897 264.563C560.498 264.794 560.183 264.993 559.952 265.161ZM583.654 267.492C583.654 266.295 583.391 265.392 582.866 264.783C582.341 264.174 581.575 263.87 580.567 263.87C579.832 263.87 579.181 264.027 578.614 264.342C578.068 264.636 577.637 265.056 577.322 265.602C577.028 266.148 576.881 266.778 576.881 267.492V276.312H574.361V261.822H576.881V264.09C577.364 263.208 577.963 262.557 578.677 262.137C579.412 261.717 580.252 261.507 581.197 261.507C582.73 261.507 583.937 262.022 584.819 263.051C585.722 264.059 586.174 265.434 586.174 267.177V276.312H583.654V267.492ZM601.778 251.742H604.298V276.312H601.778V251.742ZM589.651 269.067C589.651 267.492 589.976 266.148 590.627 265.035C591.278 263.901 592.15 263.03 593.242 262.421C594.334 261.812 595.531 261.507 596.833 261.507C598.051 261.507 599.111 261.812 600.014 262.421C600.917 263.03 601.621 263.901 602.125 265.035C602.65 266.148 602.912 267.492 602.912 269.067C602.912 270.621 602.65 271.965 602.125 273.099C601.621 274.233 600.917 275.105 600.014 275.714C599.111 276.323 598.051 276.628 596.833 276.628C595.531 276.628 594.334 276.323 593.242 275.714C592.15 275.105 591.278 274.233 590.627 273.099C589.976 271.965 589.651 270.621 589.651 269.067ZM592.202 269.067C592.202 270.18 592.423 271.125 592.864 271.902C593.326 272.679 593.935 273.267 594.691 273.666C595.447 274.065 596.266 274.265 597.148 274.265C597.883 274.265 598.607 274.065 599.321 273.666C600.035 273.267 600.623 272.679 601.085 271.902C601.547 271.125 601.778 270.18 601.778 269.067C601.778 267.954 601.547 267.009 601.085 266.232C600.623 265.455 600.035 264.867 599.321 264.468C598.607 264.069 597.883 263.87 597.148 263.87C596.266 263.87 595.447 264.069 594.691 264.468C593.935 264.867 593.326 265.455 592.864 266.232C592.423 267.009 592.202 267.954 592.202 269.067ZM616.115 261.822H618.95L622.572 271.241L626.51 260.72L630.731 271.304L634.385 261.822H637.22L630.92 277.415L626.541 266.862L622.415 277.415L616.115 261.822ZM639.73 255.837C639.73 255.354 639.898 254.945 640.234 254.609C640.591 254.273 641 254.105 641.462 254.105C641.945 254.105 642.355 254.273 642.691 254.609C643.027 254.945 643.195 255.354 643.195 255.837C643.195 256.299 643.027 256.709 642.691 257.066C642.355 257.402 641.945 257.57 641.462 257.57C641 257.57 640.591 257.402 640.234 257.066C639.898 256.709 639.73 256.299 639.73 255.837ZM640.202 261.822H642.722V276.312H640.202V261.822ZM647.912 251.742H650.432V276.312H647.912V251.742ZM655.172 251.742H657.692V276.312H655.172V251.742ZM674.396 261.822V276.312H671.876V261.822H674.396ZM678.774 264.594C678.438 264.342 678.134 264.164 677.861 264.059C677.588 263.933 677.241 263.87 676.821 263.87C676.191 263.87 675.698 264.027 675.341 264.342C674.984 264.657 674.732 265.088 674.585 265.634C674.459 266.18 674.396 266.799 674.396 267.492H673.262C673.262 266.337 673.461 265.319 673.86 264.437C674.28 263.534 674.816 262.82 675.467 262.295C676.118 261.77 676.779 261.507 677.451 261.507C677.976 261.507 678.459 261.581 678.9 261.728C679.362 261.854 679.782 262.116 680.16 262.515L678.774 264.594ZM687.819 276.628C686.475 276.628 685.278 276.312 684.228 275.682C683.199 275.031 682.39 274.139 681.802 273.005C681.235 271.871 680.952 270.558 680.952 269.067C680.952 267.555 681.246 266.232 681.834 265.098C682.443 263.964 683.283 263.082 684.354 262.452C685.446 261.822 686.706 261.507 688.134 261.507C689.562 261.507 690.78 261.812 691.788 262.421C692.817 263.009 693.604 263.859 694.15 264.972C694.696 266.085 694.969 267.408 694.969 268.941C694.969 269.088 694.959 269.246 694.938 269.414C694.938 269.561 694.938 269.655 694.938 269.697H682.558V267.555H692.953L691.945 269.004C692.008 268.899 692.071 268.742 692.134 268.532C692.197 268.301 692.229 268.112 692.229 267.965C692.229 267.104 692.05 266.358 691.693 265.728C691.357 265.098 690.885 264.605 690.276 264.248C689.667 263.891 688.953 263.712 688.134 263.712C687.168 263.712 686.338 263.922 685.645 264.342C684.973 264.741 684.448 265.329 684.07 266.106C683.713 266.862 683.524 267.797 683.503 268.91C683.503 270.044 683.682 271.01 684.039 271.808C684.396 272.606 684.921 273.215 685.614 273.635C686.307 274.055 687.147 274.265 688.134 274.265C689.121 274.265 689.992 274.055 690.748 273.635C691.504 273.194 692.145 272.532 692.67 271.65L694.717 272.942C693.961 274.16 693.006 275.084 691.851 275.714C690.717 276.323 689.373 276.628 687.819 276.628ZM695.599 261.822H698.434L702.529 272.06L706.624 261.822H709.459L702.529 277.415L695.599 261.822ZM711.835 255.837C711.835 255.354 712.003 254.945 712.339 254.609C712.696 254.273 713.106 254.105 713.568 254.105C714.051 254.105 714.46 254.273 714.796 254.609C715.132 254.945 715.3 255.354 715.3 255.837C715.3 256.299 715.132 256.709 714.796 257.066C714.46 257.402 714.051 257.57 713.568 257.57C713.106 257.57 712.696 257.402 712.339 257.066C712.003 256.709 711.835 256.299 711.835 255.837ZM712.308 261.822H714.828V276.312H712.308V261.822ZM725.625 276.628C724.281 276.628 723.084 276.312 722.034 275.682C721.005 275.031 720.196 274.139 719.608 273.005C719.041 271.871 718.758 270.558 718.758 269.067C718.758 267.555 719.052 266.232 719.64 265.098C720.249 263.964 721.089 263.082 722.16 262.452C723.252 261.822 724.512 261.507 725.94 261.507C727.368 261.507 728.586 261.812 729.594 262.421C730.623 263.009 731.41 263.859 731.956 264.972C732.502 266.085 732.775 267.408 732.775 268.941C732.775 269.088 732.765 269.246 732.744 269.414C732.744 269.561 732.744 269.655 732.744 269.697H720.364V267.555H730.759L729.751 269.004C729.814 268.899 729.877 268.742 729.94 268.532C730.003 268.301 730.035 268.112 730.035 267.965C730.035 267.104 729.856 266.358 729.499 265.728C729.163 265.098 728.691 264.605 728.082 264.248C727.473 263.891 726.759 263.712 725.94 263.712C724.974 263.712 724.144 263.922 723.451 264.342C722.779 264.741 722.254 265.329 721.876 266.106C721.519 266.862 721.33 267.797 721.309 268.91C721.309 270.044 721.488 271.01 721.845 271.808C722.202 272.606 722.727 273.215 723.42 273.635C724.113 274.055 724.953 274.265 725.94 274.265C726.927 274.265 727.798 274.055 728.554 273.635C729.31 273.194 729.951 272.532 730.476 271.65L732.523 272.942C731.767 274.16 730.812 275.084 729.657 275.714C728.523 276.323 727.179 276.628 725.625 276.628ZM733.563 261.822H736.398L740.02 271.241L743.958 260.72L748.179 271.304L751.833 261.822H754.668L748.368 277.415L743.989 266.862L739.863 277.415L733.563 261.822ZM766.622 255.837C766.622 255.354 766.79 254.945 767.126 254.609C767.483 254.273 767.892 254.105 768.354 254.105C768.837 254.105 769.247 254.273 769.583 254.609C769.919 254.945 770.087 255.354 770.087 255.837C770.087 256.299 769.919 256.709 769.583 257.066C769.247 257.402 768.837 257.57 768.354 257.57C767.892 257.57 767.483 257.402 767.126 257.066C766.79 256.709 766.622 256.299 766.622 255.837ZM767.094 261.822H769.614V276.312H767.094V261.822ZM772.599 261.822H779.844V264.185H772.599V261.822ZM774.962 256.782H777.482V276.312H774.962V256.782ZM792.414 271.871C792.708 272.312 793.044 272.721 793.422 273.099C793.8 273.477 794.231 273.782 794.714 274.013C795.218 274.223 795.764 274.328 796.352 274.328C797.066 274.328 797.622 274.17 798.021 273.855C798.441 273.519 798.651 273.068 798.651 272.501C798.651 271.997 798.483 271.577 798.147 271.241C797.832 270.884 797.423 270.59 796.919 270.359C796.415 270.107 795.879 269.876 795.312 269.666C794.682 269.414 794.042 269.12 793.391 268.784C792.761 268.427 792.225 267.975 791.784 267.429C791.364 266.862 791.154 266.159 791.154 265.319C791.154 264.458 791.375 263.744 791.816 263.177C792.278 262.61 792.866 262.19 793.58 261.917C794.315 261.644 795.071 261.507 795.848 261.507C796.625 261.507 797.349 261.633 798.021 261.885C798.714 262.137 799.323 262.473 799.848 262.893C800.373 263.313 800.783 263.796 801.077 264.342L799.061 265.634C798.662 265.088 798.158 264.636 797.549 264.279C796.961 263.922 796.289 263.744 795.533 263.744C795.008 263.744 794.556 263.859 794.178 264.09C793.8 264.321 793.611 264.678 793.611 265.161C793.611 265.539 793.758 265.875 794.052 266.169C794.346 266.463 794.724 266.726 795.186 266.957C795.648 267.188 796.131 267.408 796.635 267.618C797.475 267.954 798.242 268.322 798.935 268.721C799.628 269.099 800.174 269.561 800.573 270.107C800.993 270.653 801.203 271.356 801.203 272.217C801.203 273.477 800.741 274.527 799.817 275.367C798.914 276.208 797.717 276.628 796.226 276.628C795.26 276.628 794.388 276.46 793.611 276.123C792.834 275.766 792.173 275.315 791.627 274.769C791.102 274.223 790.703 273.666 790.43 273.099L792.414 271.871ZM803.26 269.067C803.26 267.597 803.586 266.295 804.237 265.161C804.909 264.027 805.812 263.135 806.946 262.484C808.08 261.833 809.35 261.507 810.757 261.507C812.185 261.507 813.456 261.833 814.569 262.484C815.703 263.135 816.595 264.027 817.246 265.161C817.918 266.295 818.254 267.597 818.254 269.067C818.254 270.516 817.918 271.818 817.246 272.973C816.595 274.107 815.703 275 814.569 275.651C813.456 276.302 812.185 276.628 810.757 276.628C809.35 276.628 808.08 276.302 806.946 275.651C805.812 275 804.909 274.107 804.237 272.973C803.586 271.818 803.26 270.516 803.26 269.067ZM805.812 269.067C805.812 270.075 806.022 270.968 806.442 271.745C806.883 272.522 807.471 273.141 808.206 273.603C808.962 274.044 809.812 274.265 810.757 274.265C811.702 274.265 812.542 274.044 813.277 273.603C814.033 273.141 814.621 272.522 815.041 271.745C815.482 270.968 815.703 270.075 815.703 269.067C815.703 268.059 815.482 267.167 815.041 266.39C814.621 265.592 814.033 264.972 813.277 264.531C812.542 264.09 811.702 263.87 810.757 263.87C809.812 263.87 808.962 264.09 808.206 264.531C807.471 264.972 806.883 265.592 806.442 266.39C806.022 267.167 805.812 268.059 805.812 269.067ZM820.456 269.067C820.456 267.597 820.782 266.295 821.433 265.161C822.105 264.027 823.008 263.135 824.142 262.484C825.276 261.833 826.546 261.507 827.953 261.507C829.381 261.507 830.652 261.833 831.765 262.484C832.899 263.135 833.791 264.027 834.442 265.161C835.114 266.295 835.45 267.597 835.45 269.067C835.45 270.516 835.114 271.818 834.442 272.973C833.791 274.107 832.899 275 831.765 275.651C830.652 276.302 829.381 276.628 827.953 276.628C826.546 276.628 825.276 276.302 824.142 275.651C823.008 275 822.105 274.107 821.433 272.973C820.782 271.818 820.456 270.516 820.456 269.067ZM823.008 269.067C823.008 270.075 823.218 270.968 823.638 271.745C824.079 272.522 824.667 273.141 825.402 273.603C826.158 274.044 827.008 274.265 827.953 274.265C828.898 274.265 829.738 274.044 830.473 273.603C831.229 273.141 831.817 272.522 832.237 271.745C832.678 270.968 832.899 270.075 832.899 269.067C832.899 268.059 832.678 267.167 832.237 266.39C831.817 265.592 831.229 264.972 830.473 264.531C829.738 264.09 828.898 263.87 827.953 263.87C827.008 263.87 826.158 264.09 825.402 264.531C824.667 264.972 824.079 265.592 823.638 266.39C823.218 267.167 823.008 268.059 823.008 269.067ZM848.204 267.492C848.204 266.295 847.942 265.392 847.417 264.783C846.892 264.174 846.125 263.87 845.117 263.87C844.382 263.87 843.731 264.027 843.164 264.342C842.618 264.636 842.188 265.056 841.873 265.602C841.579 266.148 841.432 266.778 841.432 267.492V276.312H838.912V261.822H841.432V264.09C841.915 263.208 842.513 262.557 843.227 262.137C843.962 261.717 844.802 261.507 845.747 261.507C847.28 261.507 848.488 262.022 849.37 263.051C850.273 264.059 850.724 265.434 850.724 267.177V276.312H848.204V267.492ZM856.092 275.052C856.092 274.569 856.26 274.16 856.596 273.824C856.953 273.488 857.362 273.32 857.824 273.32C858.307 273.32 858.717 273.488 859.053 273.824C859.389 274.16 859.557 274.569 859.557 275.052C859.557 275.514 859.389 275.924 859.053 276.281C858.717 276.617 858.307 276.785 857.824 276.785C857.362 276.785 856.953 276.617 856.596 276.281C856.26 275.924 856.092 275.514 856.092 275.052ZM267.47 290.262H270.148V312.312H267.47V290.262ZM278.81 290.262H282.118L272.573 300.594L282.59 312.312H279.283L269.329 300.657L278.81 290.262ZM289.777 312.628C288.433 312.628 287.236 312.312 286.186 311.682C285.157 311.031 284.349 310.139 283.761 309.005C283.194 307.871 282.91 306.558 282.91 305.067C282.91 303.555 283.204 302.232 283.792 301.098C284.401 299.964 285.241 299.082 286.312 298.452C287.404 297.822 288.664 297.507 290.092 297.507C291.52 297.507 292.738 297.812 293.746 298.421C294.775 299.009 295.563 299.859 296.109 300.972C296.655 302.085 296.928 303.408 296.928 304.941C296.928 305.088 296.917 305.246 296.896 305.414C296.896 305.561 296.896 305.655 296.896 305.697H284.517V303.555H294.912L293.904 305.004C293.967 304.899 294.03 304.742 294.093 304.532C294.156 304.301 294.187 304.112 294.187 303.965C294.187 303.104 294.009 302.358 293.652 301.728C293.316 301.098 292.843 300.605 292.234 300.248C291.625 299.891 290.911 299.712 290.092 299.712C289.126 299.712 288.297 299.922 287.604 300.342C286.932 300.741 286.407 301.329 286.029 302.106C285.672 302.862 285.483 303.797 285.462 304.91C285.462 306.044 285.64 307.01 285.997 307.808C286.354 308.606 286.879 309.215 287.572 309.635C288.265 310.055 289.105 310.265 290.092 310.265C291.079 310.265 291.951 310.055 292.707 309.635C293.463 309.194 294.103 308.532 294.628 307.65L296.676 308.942C295.92 310.16 294.964 311.084 293.809 311.714C292.675 312.323 291.331 312.628 289.777 312.628ZM305.989 312.628C304.645 312.628 303.448 312.312 302.398 311.682C301.369 311.031 300.56 310.139 299.972 309.005C299.405 307.871 299.122 306.558 299.122 305.067C299.122 303.555 299.416 302.232 300.004 301.098C300.613 299.964 301.453 299.082 302.524 298.452C303.616 297.822 304.876 297.507 306.304 297.507C307.732 297.507 308.95 297.812 309.958 298.421C310.987 299.009 311.774 299.859 312.32 300.972C312.866 302.085 313.139 303.408 313.139 304.941C313.139 305.088 313.129 305.246 313.108 305.414C313.108 305.561 313.108 305.655 313.108 305.697H300.728V303.555H311.123L310.115 305.004C310.178 304.899 310.241 304.742 310.304 304.532C310.367 304.301 310.399 304.112 310.399 303.965C310.399 303.104 310.22 302.358 309.863 301.728C309.527 301.098 309.055 300.605 308.446 300.248C307.837 299.891 307.123 299.712 306.304 299.712C305.338 299.712 304.508 299.922 303.815 300.342C303.143 300.741 302.618 301.329 302.24 302.106C301.883 302.862 301.694 303.797 301.673 304.91C301.673 306.044 301.852 307.01 302.209 307.808C302.566 308.606 303.091 309.215 303.784 309.635C304.477 310.055 305.317 310.265 306.304 310.265C307.291 310.265 308.162 310.055 308.918 309.635C309.674 309.194 310.315 308.532 310.84 307.65L312.887 308.942C312.131 310.16 311.176 311.084 310.021 311.714C308.887 312.323 307.543 312.628 305.989 312.628ZM318.956 319.243H316.436V297.822H318.956V319.243ZM331.083 305.067C331.083 306.621 330.758 307.965 330.107 309.099C329.456 310.233 328.584 311.105 327.492 311.714C326.421 312.323 325.224 312.628 323.901 312.628C322.704 312.628 321.644 312.323 320.72 311.714C319.817 311.105 319.103 310.233 318.578 309.099C318.074 307.965 317.822 306.621 317.822 305.067C317.822 303.492 318.074 302.148 318.578 301.035C319.103 299.901 319.817 299.03 320.72 298.421C321.644 297.812 322.704 297.507 323.901 297.507C325.224 297.507 326.421 297.812 327.492 298.421C328.584 299.03 329.456 299.901 330.107 301.035C330.758 302.148 331.083 303.492 331.083 305.067ZM328.532 305.067C328.532 303.954 328.301 303.009 327.839 302.232C327.398 301.455 326.799 300.867 326.043 300.468C325.308 300.069 324.489 299.87 323.586 299.87C322.851 299.87 322.127 300.069 321.413 300.468C320.699 300.867 320.111 301.455 319.649 302.232C319.187 303.009 318.956 303.954 318.956 305.067C318.956 306.18 319.187 307.125 319.649 307.902C320.111 308.679 320.699 309.267 321.413 309.666C322.127 310.065 322.851 310.265 323.586 310.265C324.489 310.265 325.308 310.065 326.043 309.666C326.799 309.267 327.398 308.679 327.839 307.902C328.301 307.125 328.532 306.18 328.532 305.067ZM345.136 307.839C345.136 308.385 345.262 308.858 345.514 309.257C345.787 309.656 346.154 309.96 346.616 310.17C347.099 310.359 347.645 310.454 348.254 310.454C349.031 310.454 349.724 310.296 350.333 309.981C350.963 309.666 351.457 309.225 351.814 308.658C352.192 308.07 352.381 307.398 352.381 306.642L352.885 308.532C352.885 309.456 352.601 310.223 352.034 310.832C351.488 311.441 350.806 311.892 349.987 312.186C349.189 312.481 348.391 312.628 347.593 312.628C346.711 312.628 345.881 312.449 345.104 312.092C344.348 311.714 343.739 311.178 343.277 310.485C342.815 309.792 342.584 308.952 342.584 307.965C342.584 306.558 343.078 305.435 344.065 304.595C345.073 303.734 346.469 303.303 348.254 303.303C349.304 303.303 350.176 303.429 350.869 303.681C351.583 303.912 352.15 304.185 352.57 304.5C352.99 304.794 353.273 305.036 353.42 305.225V306.705C352.685 306.201 351.929 305.844 351.152 305.634C350.375 305.403 349.546 305.288 348.664 305.288C347.845 305.288 347.173 305.393 346.648 305.603C346.144 305.813 345.766 306.107 345.514 306.485C345.262 306.863 345.136 307.314 345.136 307.839ZM344.758 301.161L343.529 299.303C344.075 298.904 344.821 298.505 345.766 298.106C346.732 297.707 347.887 297.507 349.231 297.507C350.365 297.507 351.352 297.686 352.192 298.043C353.053 298.379 353.714 298.872 354.176 299.523C354.659 300.174 354.901 300.972 354.901 301.917V312.312H352.381V302.264C352.381 301.76 352.297 301.35 352.129 301.035C351.961 300.699 351.719 300.437 351.404 300.248C351.11 300.059 350.764 299.922 350.365 299.838C349.966 299.754 349.546 299.712 349.105 299.712C348.391 299.712 347.74 299.796 347.152 299.964C346.585 300.132 346.102 300.332 345.703 300.563C345.304 300.794 344.989 300.993 344.758 301.161ZM368.46 303.492C368.46 302.295 368.197 301.392 367.672 300.783C367.147 300.174 366.381 299.87 365.373 299.87C364.638 299.87 363.987 300.027 363.42 300.342C362.874 300.636 362.443 301.056 362.128 301.602C361.834 302.148 361.687 302.778 361.687 303.492V312.312H359.167V297.822H361.687V300.09C362.17 299.208 362.769 298.557 363.483 298.137C364.218 297.717 365.058 297.507 366.003 297.507C367.536 297.507 368.743 298.022 369.625 299.051C370.528 300.059 370.98 301.434 370.98 303.177V312.312H368.46V303.492ZM390.768 312.628C389.424 312.628 388.227 312.312 387.177 311.682C386.148 311.031 385.34 310.139 384.752 309.005C384.185 307.871 383.901 306.558 383.901 305.067C383.901 303.555 384.195 302.232 384.783 301.098C385.392 299.964 386.232 299.082 387.303 298.452C388.395 297.822 389.655 297.507 391.083 297.507C392.511 297.507 393.729 297.812 394.737 298.421C395.766 299.009 396.554 299.859 397.1 300.972C397.646 302.085 397.919 303.408 397.919 304.941C397.919 305.088 397.908 305.246 397.887 305.414C397.887 305.561 397.887 305.655 397.887 305.697H385.508V303.555H395.903L394.895 305.004C394.958 304.899 395.021 304.742 395.084 304.532C395.147 304.301 395.178 304.112 395.178 303.965C395.178 303.104 395 302.358 394.643 301.728C394.307 301.098 393.834 300.605 393.225 300.248C392.616 299.891 391.902 299.712 391.083 299.712C390.117 299.712 389.288 299.922 388.595 300.342C387.923 300.741 387.398 301.329 387.02 302.106C386.663 302.862 386.474 303.797 386.453 304.91C386.453 306.044 386.631 307.01 386.988 307.808C387.345 308.606 387.87 309.215 388.563 309.635C389.256 310.055 390.096 310.265 391.083 310.265C392.07 310.265 392.942 310.055 393.698 309.635C394.454 309.194 395.094 308.532 395.619 307.65L397.667 308.942C396.911 310.16 395.955 311.084 394.8 311.714C393.666 312.323 392.322 312.628 390.768 312.628ZM412.409 297.822L402.959 319.243H400.124L404.093 310.265L398.549 297.822H401.541L406.14 309.162L405.101 309.036L409.574 297.822H412.409ZM419.93 312.628C418.586 312.628 417.389 312.312 416.339 311.682C415.31 311.031 414.502 310.139 413.914 309.005C413.347 307.871 413.063 306.558 413.063 305.067C413.063 303.555 413.357 302.232 413.945 301.098C414.554 299.964 415.394 299.082 416.465 298.452C417.557 297.822 418.817 297.507 420.245 297.507C421.673 297.507 422.891 297.812 423.899 298.421C424.928 299.009 425.716 299.859 426.262 300.972C426.808 302.085 427.081 303.408 427.081 304.941C427.081 305.088 427.07 305.246 427.049 305.414C427.049 305.561 427.049 305.655 427.049 305.697H414.67V303.555H425.065L424.057 305.004C424.12 304.899 424.183 304.742 424.246 304.532C424.309 304.301 424.34 304.112 424.34 303.965C424.34 303.104 424.162 302.358 423.805 301.728C423.469 301.098 422.996 300.605 422.387 300.248C421.778 299.891 421.064 299.712 420.245 299.712C419.279 299.712 418.45 299.922 417.757 300.342C417.085 300.741 416.56 301.329 416.182 302.106C415.825 302.862 415.636 303.797 415.615 304.91C415.615 306.044 415.793 307.01 416.15 307.808C416.507 308.606 417.032 309.215 417.725 309.635C418.418 310.055 419.258 310.265 420.245 310.265C421.232 310.265 422.104 310.055 422.86 309.635C423.616 309.194 424.256 308.532 424.781 307.65L426.829 308.942C426.073 310.16 425.117 311.084 423.962 311.714C422.828 312.323 421.484 312.628 419.93 312.628ZM438.718 305.067C438.718 303.597 439.044 302.295 439.695 301.161C440.367 300.027 441.27 299.135 442.404 298.484C443.538 297.833 444.808 297.507 446.215 297.507C447.643 297.507 448.914 297.833 450.027 298.484C451.161 299.135 452.053 300.027 452.704 301.161C453.376 302.295 453.712 303.597 453.712 305.067C453.712 306.516 453.376 307.818 452.704 308.973C452.053 310.107 451.161 311 450.027 311.651C448.914 312.302 447.643 312.628 446.215 312.628C444.808 312.628 443.538 312.302 442.404 311.651C441.27 311 440.367 310.107 439.695 308.973C439.044 307.818 438.718 306.516 438.718 305.067ZM441.27 305.067C441.27 306.075 441.48 306.968 441.9 307.745C442.341 308.522 442.929 309.141 443.664 309.603C444.42 310.044 445.27 310.265 446.215 310.265C447.16 310.265 448 310.044 448.735 309.603C449.491 309.141 450.079 308.522 450.499 307.745C450.94 306.968 451.161 306.075 451.161 305.067C451.161 304.059 450.94 303.167 450.499 302.39C450.079 301.592 449.491 300.972 448.735 300.531C448 300.09 447.16 299.87 446.215 299.87C445.27 299.87 444.42 300.09 443.664 300.531C442.929 300.972 442.341 301.592 441.9 302.39C441.48 303.167 441.27 304.059 441.27 305.067ZM466.467 303.492C466.467 302.295 466.204 301.392 465.679 300.783C465.154 300.174 464.388 299.87 463.38 299.87C462.645 299.87 461.994 300.027 461.427 300.342C460.881 300.636 460.45 301.056 460.135 301.602C459.841 302.148 459.694 302.778 459.694 303.492V312.312H457.174V297.822H459.694V300.09C460.177 299.208 460.776 298.557 461.49 298.137C462.225 297.717 463.065 297.507 464.01 297.507C465.543 297.507 466.75 298.022 467.632 299.051C468.535 300.059 468.987 301.434 468.987 303.177V312.312H466.467V303.492ZM481.908 305.067C481.908 303.597 482.233 302.295 482.884 301.161C483.556 300.027 484.459 299.135 485.593 298.484C486.727 297.833 487.998 297.507 489.405 297.507C490.833 297.507 492.103 297.833 493.216 298.484C494.35 299.135 495.243 300.027 495.894 301.161C496.566 302.295 496.902 303.597 496.902 305.067C496.902 306.516 496.566 307.818 495.894 308.973C495.243 310.107 494.35 311 493.216 311.651C492.103 312.302 490.833 312.628 489.405 312.628C487.998 312.628 486.727 312.302 485.593 311.651C484.459 311 483.556 310.107 482.884 308.973C482.233 307.818 481.908 306.516 481.908 305.067ZM484.459 305.067C484.459 306.075 484.669 306.968 485.089 307.745C485.53 308.522 486.118 309.141 486.853 309.603C487.609 310.044 488.46 310.265 489.405 310.265C490.35 310.265 491.19 310.044 491.925 309.603C492.681 309.141 493.269 308.522 493.689 307.745C494.13 306.968 494.35 306.075 494.35 305.067C494.35 304.059 494.13 303.167 493.689 302.39C493.269 301.592 492.681 300.972 491.925 300.531C491.19 300.09 490.35 299.87 489.405 299.87C488.46 299.87 487.609 300.09 486.853 300.531C486.118 300.972 485.53 301.592 485.089 302.39C484.669 303.167 484.459 304.059 484.459 305.067ZM502.884 306.642C502.884 307.797 503.146 308.69 503.671 309.32C504.196 309.95 504.963 310.265 505.971 310.265C506.706 310.265 507.346 310.118 507.892 309.824C508.459 309.509 508.89 309.078 509.184 308.532C509.499 307.986 509.656 307.356 509.656 306.642V297.822H512.176V312.312H509.656V310.044C509.173 310.905 508.575 311.556 507.861 311.997C507.147 312.418 506.307 312.628 505.341 312.628C503.829 312.628 502.621 312.113 501.718 311.084C500.815 310.055 500.364 308.679 500.364 306.957V297.822H502.884V306.642ZM519.434 297.822V312.312H516.914V297.822H519.434ZM523.812 300.594C523.476 300.342 523.172 300.164 522.899 300.059C522.626 299.933 522.279 299.87 521.859 299.87C521.229 299.87 520.736 300.027 520.379 300.342C520.022 300.657 519.77 301.088 519.623 301.634C519.497 302.18 519.434 302.799 519.434 303.492H518.3C518.3 302.337 518.499 301.319 518.898 300.437C519.318 299.534 519.854 298.82 520.505 298.295C521.156 297.77 521.817 297.507 522.489 297.507C523.014 297.507 523.497 297.581 523.938 297.728C524.4 297.854 524.82 298.116 525.198 298.515L523.812 300.594ZM534.95 297.822H537.785L541.407 307.241L545.345 296.72L549.566 307.304L553.22 297.822H556.055L549.755 313.415L545.376 302.862L541.25 313.415L534.95 297.822ZM563.71 312.628C562.366 312.628 561.169 312.312 560.119 311.682C559.09 311.031 558.282 310.139 557.694 309.005C557.127 307.871 556.843 306.558 556.843 305.067C556.843 303.555 557.137 302.232 557.725 301.098C558.334 299.964 559.174 299.082 560.245 298.452C561.337 297.822 562.597 297.507 564.025 297.507C565.453 297.507 566.671 297.812 567.679 298.421C568.708 299.009 569.496 299.859 570.042 300.972C570.588 302.085 570.861 303.408 570.861 304.941C570.861 305.088 570.85 305.246 570.829 305.414C570.829 305.561 570.829 305.655 570.829 305.697H558.45V303.555H568.845L567.837 305.004C567.9 304.899 567.963 304.742 568.026 304.532C568.089 304.301 568.12 304.112 568.12 303.965C568.12 303.104 567.942 302.358 567.585 301.728C567.249 301.098 566.776 300.605 566.167 300.248C565.558 299.891 564.844 299.712 564.025 299.712C563.059 299.712 562.23 299.922 561.537 300.342C560.865 300.741 560.34 301.329 559.962 302.106C559.605 302.862 559.416 303.797 559.395 304.91C559.395 306.044 559.573 307.01 559.93 307.808C560.287 308.606 560.812 309.215 561.505 309.635C562.198 310.055 563.038 310.265 564.025 310.265C565.012 310.265 565.884 310.055 566.64 309.635C567.396 309.194 568.036 308.532 568.561 307.65L570.609 308.942C569.853 310.16 568.897 311.084 567.742 311.714C566.608 312.323 565.264 312.628 563.71 312.628ZM576.677 287.742V312.312H574.157V287.742H576.677ZM588.805 305.067C588.805 306.621 588.479 307.965 587.828 309.099C587.177 310.233 586.306 311.105 585.214 311.714C584.143 312.323 582.946 312.628 581.623 312.628C580.426 312.628 579.365 312.323 578.441 311.714C577.538 311.105 576.824 310.233 576.299 309.099C575.795 307.965 575.543 306.621 575.543 305.067C575.543 303.492 575.795 302.148 576.299 301.035C576.824 299.901 577.538 299.03 578.441 298.421C579.365 297.812 580.426 297.507 581.623 297.507C582.946 297.507 584.143 297.812 585.214 298.421C586.306 299.03 587.177 299.901 587.828 301.035C588.479 302.148 588.805 303.492 588.805 305.067ZM586.253 305.067C586.253 303.954 586.022 303.009 585.56 302.232C585.119 301.455 584.521 300.867 583.765 300.468C583.03 300.069 582.211 299.87 581.308 299.87C580.573 299.87 579.848 300.069 579.134 300.468C578.42 300.867 577.832 301.455 577.37 302.232C576.908 303.009 576.677 303.954 576.677 305.067C576.677 306.18 576.908 307.125 577.37 307.902C577.832 308.679 578.42 309.267 579.134 309.666C579.848 310.065 580.573 310.265 581.308 310.265C582.211 310.265 583.03 310.065 583.765 309.666C584.521 309.267 585.119 308.679 585.56 307.902C586.022 307.125 586.253 306.18 586.253 305.067ZM592.878 307.871C593.172 308.312 593.508 308.721 593.886 309.099C594.264 309.477 594.695 309.782 595.178 310.013C595.682 310.223 596.228 310.328 596.816 310.328C597.53 310.328 598.086 310.17 598.485 309.855C598.905 309.519 599.115 309.068 599.115 308.501C599.115 307.997 598.947 307.577 598.611 307.241C598.296 306.884 597.887 306.59 597.383 306.359C596.879 306.107 596.343 305.876 595.776 305.666C595.146 305.414 594.506 305.12 593.855 304.784C593.225 304.427 592.689 303.975 592.248 303.429C591.828 302.862 591.618 302.159 591.618 301.319C591.618 300.458 591.839 299.744 592.28 299.177C592.742 298.61 593.33 298.19 594.044 297.917C594.779 297.644 595.535 297.507 596.312 297.507C597.089 297.507 597.813 297.633 598.485 297.885C599.178 298.137 599.787 298.473 600.312 298.893C600.837 299.313 601.247 299.796 601.541 300.342L599.525 301.634C599.126 301.088 598.622 300.636 598.013 300.279C597.425 299.922 596.753 299.744 595.997 299.744C595.472 299.744 595.02 299.859 594.642 300.09C594.264 300.321 594.075 300.678 594.075 301.161C594.075 301.539 594.222 301.875 594.516 302.169C594.81 302.463 595.188 302.726 595.65 302.957C596.112 303.188 596.595 303.408 597.099 303.618C597.939 303.954 598.706 304.322 599.399 304.721C600.092 305.099 600.638 305.561 601.037 306.107C601.457 306.653 601.667 307.356 601.667 308.217C601.667 309.477 601.205 310.527 600.281 311.367C599.378 312.208 598.181 312.628 596.69 312.628C595.724 312.628 594.852 312.46 594.075 312.123C593.298 311.766 592.637 311.315 592.091 310.769C591.566 310.223 591.167 309.666 590.894 309.099L592.878 307.871ZM604.984 291.837C604.984 291.354 605.152 290.945 605.488 290.609C605.845 290.273 606.255 290.105 606.717 290.105C607.2 290.105 607.609 290.273 607.945 290.609C608.281 290.945 608.449 291.354 608.449 291.837C608.449 292.299 608.281 292.709 607.945 293.066C607.609 293.402 607.2 293.57 606.717 293.57C606.255 293.57 605.845 293.402 605.488 293.066C605.152 292.709 604.984 292.299 604.984 291.837ZM605.457 297.822H607.977V312.312H605.457V297.822ZM610.962 297.822H618.207V300.185H610.962V297.822ZM613.324 292.782H615.844V312.312H613.324V292.782ZM626.341 312.628C624.997 312.628 623.8 312.312 622.75 311.682C621.721 311.031 620.913 310.139 620.325 309.005C619.758 307.871 619.474 306.558 619.474 305.067C619.474 303.555 619.768 302.232 620.356 301.098C620.965 299.964 621.805 299.082 622.876 298.452C623.968 297.822 625.228 297.507 626.656 297.507C628.084 297.507 629.302 297.812 630.31 298.421C631.339 299.009 632.127 299.859 632.673 300.972C633.219 302.085 633.492 303.408 633.492 304.941C633.492 305.088 633.481 305.246 633.46 305.414C633.46 305.561 633.46 305.655 633.46 305.697H621.081V303.555H631.476L630.468 305.004C630.531 304.899 630.594 304.742 630.657 304.532C630.72 304.301 630.751 304.112 630.751 303.965C630.751 303.104 630.573 302.358 630.216 301.728C629.88 301.098 629.407 300.605 628.798 300.248C628.189 299.891 627.475 299.712 626.656 299.712C625.69 299.712 624.861 299.922 624.168 300.342C623.496 300.741 622.971 301.329 622.593 302.106C622.236 302.862 622.047 303.797 622.026 304.91C622.026 306.044 622.204 307.01 622.561 307.808C622.918 308.606 623.443 309.215 624.136 309.635C624.829 310.055 625.669 310.265 626.656 310.265C627.643 310.265 628.515 310.055 629.271 309.635C630.027 309.194 630.667 308.532 631.192 307.65L633.24 308.942C632.484 310.16 631.528 311.084 630.373 311.714C629.239 312.323 627.895 312.628 626.341 312.628ZM645.287 297.822H652.532V300.185H645.287V297.822ZM652.28 290.766C652.07 290.409 651.818 290.189 651.524 290.105C651.251 290 650.989 289.947 650.737 289.947C650.422 289.947 650.149 290.042 649.918 290.231C649.708 290.399 649.54 290.693 649.414 291.113C649.288 291.533 649.225 292.089 649.225 292.782V312.312H646.705V292.467C646.705 291.312 646.873 290.367 647.209 289.632C647.545 288.897 648.017 288.351 648.626 287.994C649.256 287.616 650.012 287.427 650.894 287.427C651.356 287.427 651.766 287.49 652.123 287.616C652.48 287.742 652.784 287.9 653.036 288.089C653.309 288.278 653.519 288.477 653.666 288.687L652.28 290.766ZM654.143 305.067C654.143 303.597 654.468 302.295 655.119 301.161C655.791 300.027 656.694 299.135 657.828 298.484C658.962 297.833 660.233 297.507 661.64 297.507C663.068 297.507 664.338 297.833 665.451 298.484C666.585 299.135 667.478 300.027 668.129 301.161C668.801 302.295 669.137 303.597 669.137 305.067C669.137 306.516 668.801 307.818 668.129 308.973C667.478 310.107 666.585 311 665.451 311.651C664.338 312.302 663.068 312.628 661.64 312.628C660.233 312.628 658.962 312.302 657.828 311.651C656.694 311 655.791 310.107 655.119 308.973C654.468 307.818 654.143 306.516 654.143 305.067ZM656.694 305.067C656.694 306.075 656.904 306.968 657.324 307.745C657.765 308.522 658.353 309.141 659.088 309.603C659.844 310.044 660.695 310.265 661.64 310.265C662.585 310.265 663.425 310.044 664.16 309.603C664.916 309.141 665.504 308.522 665.924 307.745C666.365 306.968 666.585 306.075 666.585 305.067C666.585 304.059 666.365 303.167 665.924 302.39C665.504 301.592 664.916 300.972 664.16 300.531C663.425 300.09 662.585 299.87 661.64 299.87C660.695 299.87 659.844 300.09 659.088 300.531C658.353 300.972 657.765 301.592 657.324 302.39C656.904 303.167 656.694 304.059 656.694 305.067ZM675.119 297.822V312.312H672.599V297.822H675.119ZM679.497 300.594C679.161 300.342 678.857 300.164 678.584 300.059C678.311 299.933 677.964 299.87 677.544 299.87C676.914 299.87 676.421 300.027 676.064 300.342C675.707 300.657 675.455 301.088 675.308 301.634C675.182 302.18 675.119 302.799 675.119 303.492H673.985C673.985 302.337 674.184 301.319 674.583 300.437C675.003 299.534 675.539 298.82 676.19 298.295C676.841 297.77 677.502 297.507 678.174 297.507C678.699 297.507 679.182 297.581 679.623 297.728C680.085 297.854 680.505 298.116 680.883 298.515L679.497 300.594ZM695.36 306.642C695.36 307.797 695.622 308.69 696.147 309.32C696.672 309.95 697.439 310.265 698.447 310.265C699.182 310.265 699.822 310.118 700.368 309.824C700.935 309.509 701.366 309.078 701.66 308.532C701.975 307.986 702.132 307.356 702.132 306.642V297.822H704.652V312.312H702.132V310.044C701.649 310.905 701.051 311.556 700.337 311.997C699.623 312.418 698.783 312.628 697.817 312.628C696.305 312.628 695.097 312.113 694.194 311.084C693.291 310.055 692.84 308.679 692.84 306.957V297.822H695.36V306.642ZM711.752 319.243H709.232V297.822H711.752V319.243ZM723.88 305.067C723.88 306.621 723.554 307.965 722.903 309.099C722.252 310.233 721.381 311.105 720.289 311.714C719.218 312.323 718.021 312.628 716.698 312.628C715.501 312.628 714.44 312.323 713.516 311.714C712.613 311.105 711.899 310.233 711.374 309.099C710.87 307.965 710.618 306.621 710.618 305.067C710.618 303.492 710.87 302.148 711.374 301.035C711.899 299.901 712.613 299.03 713.516 298.421C714.44 297.812 715.501 297.507 716.698 297.507C718.021 297.507 719.218 297.812 720.289 298.421C721.381 299.03 722.252 299.901 722.903 301.035C723.554 302.148 723.88 303.492 723.88 305.067ZM721.328 305.067C721.328 303.954 721.097 303.009 720.635 302.232C720.194 301.455 719.596 300.867 718.84 300.468C718.105 300.069 717.286 299.87 716.383 299.87C715.648 299.87 714.923 300.069 714.209 300.468C713.495 300.867 712.907 301.455 712.445 302.232C711.983 303.009 711.752 303.954 711.752 305.067C711.752 306.18 711.983 307.125 712.445 307.902C712.907 308.679 713.495 309.267 714.209 309.666C714.923 310.065 715.648 310.265 716.383 310.265C717.286 310.265 718.105 310.065 718.84 309.666C719.596 309.267 720.194 308.679 720.635 307.902C721.097 307.125 721.328 306.18 721.328 305.067ZM738.222 287.742H740.742V312.312H738.222V287.742ZM726.094 305.067C726.094 303.492 726.42 302.148 727.071 301.035C727.722 299.901 728.593 299.03 729.685 298.421C730.777 297.812 731.974 297.507 733.276 297.507C734.494 297.507 735.555 297.812 736.458 298.421C737.361 299.03 738.064 299.901 738.568 301.035C739.093 302.148 739.356 303.492 739.356 305.067C739.356 306.621 739.093 307.965 738.568 309.099C738.064 310.233 737.361 311.105 736.458 311.714C735.555 312.323 734.494 312.628 733.276 312.628C731.974 312.628 730.777 312.323 729.685 311.714C728.593 311.105 727.722 310.233 727.071 309.099C726.42 307.965 726.094 306.621 726.094 305.067ZM728.646 305.067C728.646 306.18 728.866 307.125 729.307 307.902C729.769 308.679 730.378 309.267 731.134 309.666C731.89 310.065 732.709 310.265 733.591 310.265C734.326 310.265 735.051 310.065 735.765 309.666C736.479 309.267 737.067 308.679 737.529 307.902C737.991 307.125 738.222 306.18 738.222 305.067C738.222 303.954 737.991 303.009 737.529 302.232C737.067 301.455 736.479 300.867 735.765 300.468C735.051 300.069 734.326 299.87 733.591 299.87C732.709 299.87 731.89 300.069 731.134 300.468C730.378 300.867 729.769 301.455 729.307 302.232C728.866 303.009 728.646 303.954 728.646 305.067ZM746.453 307.839C746.453 308.385 746.579 308.858 746.831 309.257C747.104 309.656 747.472 309.96 747.934 310.17C748.417 310.359 748.963 310.454 749.572 310.454C750.349 310.454 751.042 310.296 751.651 309.981C752.281 309.666 752.774 309.225 753.131 308.658C753.509 308.07 753.698 307.398 753.698 306.642L754.202 308.532C754.202 309.456 753.919 310.223 753.352 310.832C752.806 311.441 752.123 311.892 751.304 312.186C750.506 312.481 749.708 312.628 748.91 312.628C748.028 312.628 747.199 312.449 746.422 312.092C745.666 311.714 745.057 311.178 744.595 310.485C744.133 309.792 743.902 308.952 743.902 307.965C743.902 306.558 744.395 305.435 745.382 304.595C746.39 303.734 747.787 303.303 749.572 303.303C750.622 303.303 751.493 303.429 752.186 303.681C752.9 303.912 753.467 304.185 753.887 304.5C754.307 304.794 754.591 305.036 754.738 305.225V306.705C754.003 306.201 753.247 305.844 752.47 305.634C751.693 305.403 750.863 305.288 749.981 305.288C749.162 305.288 748.49 305.393 747.965 305.603C747.461 305.813 747.083 306.107 746.831 306.485C746.579 306.863 746.453 307.314 746.453 307.839ZM746.075 301.161L744.847 299.303C745.393 298.904 746.138 298.505 747.083 298.106C748.049 297.707 749.204 297.507 750.548 297.507C751.682 297.507 752.669 297.686 753.509 298.043C754.37 298.379 755.032 298.872 755.494 299.523C755.977 300.174 756.218 300.972 756.218 301.917V312.312H753.698V302.264C753.698 301.76 753.614 301.35 753.446 301.035C753.278 300.699 753.037 300.437 752.722 300.248C752.428 300.059 752.081 299.922 751.682 299.838C751.283 299.754 750.863 299.712 750.422 299.712C749.708 299.712 749.057 299.796 748.469 299.964C747.902 300.132 747.419 300.332 747.02 300.563C746.621 300.794 746.306 300.993 746.075 301.161ZM758.28 297.822H765.525V300.185H758.28V297.822ZM760.642 292.782H763.162V312.312H760.642V292.782ZM773.659 312.628C772.315 312.628 771.118 312.312 770.068 311.682C769.039 311.031 768.231 310.139 767.643 309.005C767.076 307.871 766.792 306.558 766.792 305.067C766.792 303.555 767.086 302.232 767.674 301.098C768.283 299.964 769.123 299.082 770.194 298.452C771.286 297.822 772.546 297.507 773.974 297.507C775.402 297.507 776.62 297.812 777.628 298.421C778.657 299.009 779.445 299.859 779.991 300.972C780.537 302.085 780.81 303.408 780.81 304.941C780.81 305.088 780.799 305.246 780.778 305.414C780.778 305.561 780.778 305.655 780.778 305.697H768.399V303.555H778.794L777.786 305.004C777.849 304.899 777.912 304.742 777.975 304.532C778.038 304.301 778.069 304.112 778.069 303.965C778.069 303.104 777.891 302.358 777.534 301.728C777.198 301.098 776.725 300.605 776.116 300.248C775.507 299.891 774.793 299.712 773.974 299.712C773.008 299.712 772.179 299.922 771.486 300.342C770.814 300.741 770.289 301.329 769.911 302.106C769.554 302.862 769.365 303.797 769.344 304.91C769.344 306.044 769.522 307.01 769.879 307.808C770.236 308.606 770.761 309.215 771.454 309.635C772.147 310.055 772.987 310.265 773.974 310.265C774.961 310.265 775.833 310.055 776.589 309.635C777.345 309.194 777.985 308.532 778.51 307.65L780.558 308.942C779.802 310.16 778.846 311.084 777.691 311.714C776.557 312.323 775.213 312.628 773.659 312.628ZM784.862 307.871C785.156 308.312 785.492 308.721 785.87 309.099C786.248 309.477 786.679 309.782 787.162 310.013C787.666 310.223 788.212 310.328 788.8 310.328C789.514 310.328 790.07 310.17 790.469 309.855C790.889 309.519 791.099 309.068 791.099 308.501C791.099 307.997 790.931 307.577 790.595 307.241C790.28 306.884 789.871 306.59 789.367 306.359C788.863 306.107 788.327 305.876 787.76 305.666C787.13 305.414 786.49 305.12 785.839 304.784C785.209 304.427 784.673 303.975 784.232 303.429C783.812 302.862 783.602 302.159 783.602 301.319C783.602 300.458 783.823 299.744 784.264 299.177C784.726 298.61 785.314 298.19 786.028 297.917C786.763 297.644 787.519 297.507 788.296 297.507C789.073 297.507 789.797 297.633 790.469 297.885C791.162 298.137 791.771 298.473 792.296 298.893C792.821 299.313 793.231 299.796 793.525 300.342L791.509 301.634C791.11 301.088 790.606 300.636 789.997 300.279C789.409 299.922 788.737 299.744 787.981 299.744C787.456 299.744 787.004 299.859 786.626 300.09C786.248 300.321 786.059 300.678 786.059 301.161C786.059 301.539 786.206 301.875 786.5 302.169C786.794 302.463 787.172 302.726 787.634 302.957C788.096 303.188 788.579 303.408 789.083 303.618C789.923 303.954 790.69 304.322 791.383 304.721C792.076 305.099 792.622 305.561 793.021 306.107C793.441 306.653 793.651 307.356 793.651 308.217C793.651 309.477 793.189 310.527 792.265 311.367C791.362 312.208 790.165 312.628 788.674 312.628C787.708 312.628 786.836 312.46 786.059 312.123C785.282 311.766 784.621 311.315 784.075 310.769C783.55 310.223 783.151 309.666 782.878 309.099L784.862 307.871ZM797.756 290.262H800.906L800.276 306.012H798.386L797.756 290.262ZM797.598 311.052C797.598 310.569 797.766 310.16 798.102 309.824C798.459 309.488 798.869 309.32 799.331 309.32C799.814 309.32 800.223 309.488 800.559 309.824C800.895 310.16 801.063 310.569 801.063 311.052C801.063 311.514 800.895 311.924 800.559 312.281C800.223 312.617 799.814 312.785 799.331 312.785C798.869 312.785 798.459 312.617 798.102 312.281C797.766 311.924 797.598 311.514 797.598 311.052Z" fill="#FFE161"/>
<path d="M238.203 199.312V174.641L216.699 132.112H229.947L248.763 170.032L263.067 132.112H266.139L250.683 172.912V199.312H238.203ZM289.315 201.233C277.795 201.233 264.931 193.264 264.931 175.12C264.931 157.36 277.795 149.392 289.315 149.392C300.835 149.392 313.699 157.36 313.699 175.12C313.699 193.264 300.835 201.233 289.315 201.233ZM277.891 174.928C277.891 191.632 281.731 199.312 289.315 199.312C296.899 199.312 300.739 191.632 300.739 174.928C300.739 158.704 296.899 151.312 289.315 151.312C281.731 151.312 277.891 158.704 277.891 174.928ZM338.335 201.233C328.351 201.233 321.919 197.104 321.919 187.216V165.424C321.919 156.208 320.287 152.176 317.023 152.176V151.312H333.439V187.792C333.439 196.048 336.703 199.312 340.831 199.312C345.727 199.312 351.007 191.728 351.007 176.08V165.424C351.007 156.208 349.375 152.176 346.111 152.176V151.312H362.527V199.312H351.007V194.416C348.031 198.64 343.807 201.233 338.335 201.233ZM373.2 165.424C373.2 156.208 371.568 152.176 368.304 152.176V151.312H384.72V155.44C387.6 151.504 391.728 149.392 397.104 149.392C404.592 149.392 410.064 154.096 410.064 164.752H399.312C399.024 154.096 397.872 151.312 394.608 151.312C389.808 151.312 384.72 158.128 384.72 173.969V199.312H373.2V165.424ZM453.089 199.312L429.665 132.112H442.145L464.321 195.568L474.881 165.328L463.265 132.112H475.745L481.121 147.376L486.401 132.112H489.473L482.657 151.792L497.921 195.568L520.001 132.112H523.073L499.649 199.312H486.689L476.417 169.744L466.049 199.312H453.089ZM528.262 165.424C528.262 156.208 526.63 152.176 523.366 152.176V151.312H539.782V199.312H528.262V165.424ZM527.686 135.376C527.686 132.4 530.086 130 533.062 130C536.038 130 538.438 132.4 538.438 135.376C538.438 138.352 536.038 140.752 533.062 140.752C530.086 140.752 527.686 138.352 527.686 135.376ZM571.025 201.233C562.481 201.233 552.497 198.928 547.985 196.528V182.704H548.273C553.553 190.672 560.465 199.312 573.617 199.312C580.049 199.312 583.697 195.28 583.697 191.536C583.697 177.712 548.369 179.344 548.369 163.984C548.369 157.36 553.841 149.392 569.681 149.392C578.321 149.392 586.865 151.6 589.553 154.096V164.944H589.265C585.233 158.416 577.073 151.312 566.897 151.312C561.713 151.312 557.105 154.768 557.105 157.936C557.105 169.648 592.145 165.904 592.145 185.488C592.145 195.856 584.561 201.233 571.025 201.233ZM601.398 143.344C601.398 134.128 599.767 130.096 596.503 130.096V129.232H612.919V157.36C616.567 152.176 622.039 149.392 628.279 149.392C638.263 149.392 642.007 153.52 642.007 163.408V199.312H630.487V162.832C630.487 154.864 629.431 151.312 625.783 151.312C620.983 151.312 612.919 158.128 612.919 173.969V199.312H601.398V143.344ZM672.356 165.424C672.356 156.208 670.724 152.176 667.46 152.176V151.312H683.876V199.312H672.356V165.424ZM671.78 135.376C671.78 132.4 674.18 130 677.156 130C680.132 130 682.532 132.4 682.532 135.376C682.532 138.352 680.132 140.752 677.156 140.752C674.18 140.752 671.78 138.352 671.78 135.376ZM715.119 201.233C706.575 201.233 696.591 198.928 692.079 196.528V182.704H692.367C697.647 190.672 704.559 199.312 717.711 199.312C724.143 199.312 727.791 195.28 727.791 191.536C727.791 177.712 692.463 179.344 692.463 163.984C692.463 157.36 697.935 149.392 713.775 149.392C722.415 149.392 730.959 151.6 733.647 154.096V164.944H733.359C729.327 158.416 721.167 151.312 710.991 151.312C705.807 151.312 701.199 154.768 701.199 157.936C701.199 169.648 736.239 165.904 736.239 185.488C736.239 195.856 728.655 201.233 715.119 201.233ZM764.231 165.424C764.231 156.208 762.599 152.176 759.335 152.176V151.312H775.751V199.312H764.231V165.424ZM763.655 135.376C763.655 132.4 766.055 130 769.031 130C772.007 130 774.407 132.4 774.407 135.376C774.407 138.352 772.007 140.752 769.031 140.752C766.055 140.752 763.655 138.352 763.655 135.376ZM786.45 165.424C786.45 156.208 784.818 152.176 781.554 152.176V151.312H797.97V157.36C801.618 152.176 807.09 149.392 813.33 149.392C823.314 149.392 827.058 153.52 827.058 163.408V199.312H815.538V162.832C815.538 154.864 814.482 151.312 810.834 151.312C806.034 151.312 797.97 158.128 797.97 173.969V199.312H786.45V165.424ZM841.08 183.664L837.24 132.112H847.8L843.96 183.664H841.08ZM837.144 193.84C837.144 190.864 839.544 188.464 842.616 188.464C845.592 188.464 847.992 190.864 847.992 193.84C847.992 196.912 845.592 199.312 842.616 199.312C839.544 199.312 837.144 196.912 837.144 193.84Z" fill="#FFD100"/>
<path d="M535.77 377.908L534.963 381.215L534.157 377.908C533.636 375.778 532.319 374.135 530.651 373.539L527.426 372.386L530.621 371.244C532.304 370.642 533.636 368.969 534.142 366.814L534.963 363.332L535.785 366.814C536.29 368.969 537.623 370.642 539.305 371.244L542.501 372.386L539.275 373.539C537.608 374.135 536.285 375.778 535.77 377.908Z" fill="#FFF3C2"/>
<path d="M665.8 371.433L547 371.433L547 373.233L665.8 373.233L665.8 371.433Z" fill="#FFF3C2"/>
<path d="M521.8 371.433L403 371.433L403 373.233L521.8 373.233L521.8 371.433Z" fill="#FFF3C2"/>
<path d="M253.39 467.112C253.881 467.966 254.403 468.723 254.958 469.384C255.534 470.024 256.163 470.526 256.846 470.888C257.529 471.23 258.297 471.4 259.15 471.4C260.174 471.4 261.006 471.123 261.646 470.568C262.286 470.014 262.606 469.299 262.606 468.424C262.606 467.592 262.403 466.931 261.998 466.44C261.593 465.928 261.027 465.502 260.302 465.16C259.598 464.798 258.777 464.446 257.838 464.104C257.283 463.912 256.665 463.656 255.982 463.336C255.299 462.995 254.649 462.579 254.03 462.088C253.411 461.576 252.899 460.958 252.494 460.232C252.089 459.486 251.886 458.59 251.886 457.544C251.886 456.35 252.195 455.304 252.814 454.408C253.433 453.491 254.265 452.787 255.31 452.296C256.377 451.784 257.582 451.528 258.926 451.528C260.249 451.528 261.401 451.763 262.382 452.232C263.363 452.702 264.185 453.299 264.846 454.024C265.529 454.75 266.062 455.507 266.446 456.296L263.374 458.024C263.097 457.47 262.745 456.958 262.318 456.488C261.891 455.998 261.39 455.614 260.814 455.336C260.259 455.038 259.609 454.888 258.862 454.888C257.817 454.888 257.049 455.134 256.558 455.624C256.067 456.094 255.822 456.648 255.822 457.288C255.822 457.865 255.993 458.387 256.334 458.856C256.697 459.304 257.251 459.731 257.998 460.136C258.745 460.542 259.715 460.958 260.91 461.384C261.571 461.619 262.233 461.918 262.894 462.28C263.577 462.643 264.195 463.102 264.75 463.656C265.305 464.19 265.742 464.819 266.062 465.544C266.403 466.27 266.574 467.123 266.574 468.104C266.574 469.15 266.371 470.088 265.966 470.92C265.561 471.752 265.006 472.456 264.302 473.032C263.598 473.587 262.798 474.014 261.902 474.312C261.027 474.633 260.11 474.793 259.15 474.793C257.827 474.793 256.601 474.537 255.47 474.024C254.361 473.491 253.39 472.787 252.558 471.912C251.726 471.038 251.065 470.088 250.574 469.064L253.39 467.112ZM270.449 451.912H274.225V474.312H270.449V451.912ZM272.689 455.24V451.912H277.201C278.822 451.912 280.23 452.2 281.425 452.776C282.641 453.331 283.58 454.131 284.241 455.176C284.902 456.2 285.233 457.427 285.233 458.856C285.233 460.286 284.902 461.523 284.241 462.568C283.58 463.614 282.641 464.424 281.425 465C280.23 465.555 278.822 465.832 277.201 465.832H272.689V462.504H277.201C278.502 462.504 279.548 462.195 280.337 461.576C281.126 460.958 281.521 460.051 281.521 458.856C281.521 457.662 281.126 456.766 280.337 456.168C279.548 455.55 278.502 455.24 277.201 455.24H272.689ZM293.557 463.624H297.653L305.237 474.312H300.693L293.557 463.624ZM288.949 451.912H292.725V474.312H288.949V451.912ZM291.189 455.176V451.912H295.861C297.482 451.912 298.89 452.2 300.085 452.776C301.301 453.352 302.24 454.163 302.901 455.208C303.562 456.232 303.893 457.448 303.893 458.856C303.893 460.264 303.562 461.491 302.901 462.536C302.24 463.582 301.301 464.392 300.085 464.968C298.89 465.544 297.482 465.832 295.861 465.832H291.189V462.728H295.701C296.554 462.728 297.301 462.579 297.941 462.28C298.602 461.982 299.114 461.555 299.477 461C299.84 460.424 300.021 459.742 300.021 458.952C300.021 458.142 299.84 457.459 299.477 456.904C299.114 456.35 298.602 455.923 297.941 455.624C297.301 455.326 296.554 455.176 295.701 455.176H291.189ZM310.316 474.312V470.984H321.612V474.312H310.316ZM310.316 455.24V451.912H321.612V455.24H310.316ZM310.316 463.944V460.68H320.972V463.944H310.316ZM307.98 451.912H311.692V474.312H307.98V451.912ZM328.95 468.552L329.654 465.352H340.054L340.79 468.552H328.95ZM334.806 458.248L331.286 466.472L331.222 467.304L328.118 474.312H323.862L334.806 450.664L345.75 474.312H341.494L338.454 467.496L338.358 466.568L334.806 458.248ZM348.355 451.912H352.195V474.312H348.355V451.912ZM355.587 474.312H350.691V470.76H355.491C356.601 470.76 357.625 470.6 358.563 470.28C359.502 469.96 360.313 469.48 360.995 468.84C361.699 468.2 362.243 467.4 362.627 466.44C363.033 465.48 363.235 464.371 363.235 463.112C363.235 461.854 363.033 460.744 362.627 459.784C362.243 458.824 361.699 458.024 360.995 457.384C360.313 456.744 359.502 456.264 358.563 455.944C357.625 455.624 356.601 455.464 355.491 455.464H350.691V451.912H355.587C357.87 451.912 359.875 452.382 361.603 453.32C363.331 454.238 364.675 455.539 365.635 457.224C366.617 458.888 367.107 460.851 367.107 463.112C367.107 465.374 366.617 467.347 365.635 469.032C364.675 470.696 363.331 471.998 361.603 472.936C359.875 473.854 357.87 474.312 355.587 474.312ZM378.147 455.4V451.912H393.763V455.4H387.843V474.312H384.035V455.4H378.147ZM398.016 464.04V460.552H413.984V464.04H398.016ZM411.552 451.912H415.328V474.312H411.552V451.912ZM396.512 451.912H400.288V474.312H396.512V451.912ZM422.66 474.312V470.984H433.956V474.312H422.66ZM422.66 455.24V451.912H433.956V455.24H422.66ZM422.66 463.944V460.68H433.316V463.944H422.66ZM420.324 451.912H424.036V474.312H420.324V451.912ZM443.495 477.129C443.772 477.449 444.135 477.715 444.583 477.929C445.031 478.142 445.522 478.249 446.055 478.249C446.546 478.249 447.026 478.035 447.495 477.609C447.964 477.203 448.199 476.489 448.199 475.465V451.912H452.071V476.169C452.071 477.107 451.922 477.918 451.623 478.601C451.324 479.283 450.908 479.849 450.375 480.297C449.863 480.745 449.244 481.065 448.519 481.257C447.794 481.47 447.004 481.577 446.151 481.577C445.49 481.577 444.85 481.481 444.231 481.289C443.612 481.118 443.068 480.905 442.599 480.649C442.13 480.393 441.756 480.147 441.479 479.913L443.495 477.129ZM459.763 463.112C459.763 464.648 460.083 466.024 460.723 467.24C461.384 468.435 462.291 469.374 463.443 470.056C464.595 470.739 465.907 471.08 467.379 471.08C468.872 471.08 470.184 470.739 471.315 470.056C472.467 469.374 473.363 468.435 474.003 467.24C474.664 466.024 474.995 464.648 474.995 463.112C474.995 461.576 474.675 460.211 474.035 459.016C473.395 457.8 472.499 456.851 471.347 456.168C470.216 455.486 468.894 455.144 467.379 455.144C465.907 455.144 464.595 455.486 463.443 456.168C462.291 456.851 461.384 457.8 460.723 459.016C460.083 460.211 459.763 461.576 459.763 463.112ZM455.763 463.112C455.763 461.427 456.051 459.88 456.627 458.472C457.203 457.064 458.014 455.848 459.059 454.824C460.126 453.779 461.363 452.968 462.771 452.392C464.2 451.816 465.736 451.528 467.379 451.528C469.064 451.528 470.611 451.816 472.019 452.392C473.427 452.968 474.654 453.779 475.699 454.824C476.766 455.848 477.587 457.064 478.163 458.472C478.739 459.88 479.027 461.427 479.027 463.112C479.027 464.776 478.739 466.323 478.163 467.752C477.587 469.182 476.776 470.419 475.731 471.464C474.686 472.51 473.448 473.331 472.019 473.928C470.611 474.505 469.064 474.793 467.379 474.793C465.715 474.793 464.168 474.505 462.739 473.928C461.31 473.331 460.072 472.51 459.027 471.464C458.003 470.419 457.203 469.182 456.627 467.752C456.051 466.323 455.763 464.776 455.763 463.112ZM494.05 451.912H498.37L490.754 464.872V474.312H486.914V464.905L479.33 451.912H483.618L488.834 461.512L494.05 451.912ZM498.613 468.264V465.16H505.173V468.264H498.613ZM517.418 451.912H521.226V474.312H517.418V451.912ZM542.582 451.912H546.294V475.433L529.942 459.272V474.312H526.23V450.792L542.582 466.952V451.912ZM559.806 467.656L566.398 451.912H570.75L559.806 475.561L548.862 451.912H553.214L559.806 467.656ZM573.355 451.912H577.163V474.312H573.355V451.912ZM579.928 455.4V451.912H595.544V455.4H589.624V474.312H585.816V455.4H579.928ZM600.629 474.312V470.984H611.925V474.312H600.629ZM600.629 455.24V451.912H611.925V455.24H600.629ZM600.629 463.944V460.68H611.285V463.944H600.629ZM598.293 451.912H602.005V474.312H598.293V451.912ZM628.888 463.112C628.888 464.648 629.208 466.024 629.848 467.24C630.509 468.435 631.416 469.374 632.568 470.056C633.72 470.739 635.032 471.08 636.504 471.08C637.997 471.08 639.309 470.739 640.44 470.056C641.592 469.374 642.488 468.435 643.128 467.24C643.789 466.024 644.12 464.648 644.12 463.112C644.12 461.576 643.8 460.211 643.16 459.016C642.52 457.8 641.624 456.851 640.472 456.168C639.341 455.486 638.019 455.144 636.504 455.144C635.032 455.144 633.72 455.486 632.568 456.168C631.416 456.851 630.509 457.8 629.848 459.016C629.208 460.211 628.888 461.576 628.888 463.112ZM624.888 463.112C624.888 461.427 625.176 459.88 625.752 458.472C626.328 457.064 627.139 455.848 628.184 454.824C629.251 453.779 630.488 452.968 631.896 452.392C633.325 451.816 634.861 451.528 636.504 451.528C638.189 451.528 639.736 451.816 641.144 452.392C642.552 452.968 643.779 453.779 644.824 454.824C645.891 455.848 646.712 457.064 647.288 458.472C647.864 459.88 648.152 461.427 648.152 463.112C648.152 464.776 647.864 466.323 647.288 467.752C646.712 469.182 645.901 470.419 644.856 471.464C643.811 472.51 642.573 473.331 641.144 473.928C639.736 474.505 638.189 474.793 636.504 474.793C634.84 474.793 633.293 474.505 631.864 473.928C630.435 473.331 629.197 472.51 628.152 471.464C627.128 470.419 626.328 469.182 625.752 467.752C625.176 466.323 624.888 464.776 624.888 463.112ZM648.615 455.4V451.912H664.231V455.4H658.311V474.312H654.503V455.4H648.615ZM668.484 464.04V460.552H684.452V464.04H668.484ZM682.02 451.912H685.796V474.312H682.02V451.912ZM666.98 451.912H670.756V474.312H666.98V451.912ZM693.129 474.312V470.984H704.425V474.312H693.129ZM693.129 455.24V451.912H704.425V455.24H693.129ZM693.129 463.944V460.68H703.785V463.944H693.129ZM690.793 451.912H694.505V474.312H690.793V451.912ZM713.682 463.624H717.778L725.362 474.312H720.818L713.682 463.624ZM709.074 451.912H712.85V474.312H709.074V451.912ZM711.314 455.176V451.912H715.986C717.607 451.912 719.015 452.2 720.21 452.776C721.426 453.352 722.365 454.163 723.026 455.208C723.687 456.232 724.018 457.448 724.018 458.856C724.018 460.264 723.687 461.491 723.026 462.536C722.365 463.582 721.426 464.392 720.21 464.968C719.015 465.544 717.607 465.832 715.986 465.832H711.314V462.728H715.826C716.679 462.728 717.426 462.579 718.066 462.28C718.727 461.982 719.239 461.555 719.602 461C719.965 460.424 720.146 459.742 720.146 458.952C720.146 458.142 719.965 457.459 719.602 456.904C719.239 456.35 718.727 455.923 718.066 455.624C717.426 455.326 716.679 455.176 715.826 455.176H711.314ZM729.577 467.112C730.068 467.966 730.591 468.723 731.145 469.384C731.721 470.024 732.351 470.526 733.033 470.888C733.716 471.23 734.484 471.4 735.337 471.4C736.361 471.4 737.193 471.123 737.833 470.568C738.473 470.014 738.793 469.299 738.793 468.424C738.793 467.592 738.591 466.931 738.185 466.44C737.78 465.928 737.215 465.502 736.489 465.16C735.785 464.798 734.964 464.446 734.025 464.104C733.471 463.912 732.852 463.656 732.169 463.336C731.487 462.995 730.836 462.579 730.217 462.088C729.599 461.576 729.087 460.958 728.681 460.232C728.276 459.486 728.073 458.59 728.073 457.544C728.073 456.35 728.383 455.304 729.001 454.408C729.62 453.491 730.452 452.787 731.497 452.296C732.564 451.784 733.769 451.528 735.113 451.528C736.436 451.528 737.588 451.763 738.569 452.232C739.551 452.702 740.372 453.299 741.033 454.024C741.716 454.75 742.249 455.507 742.633 456.296L739.561 458.024C739.284 457.47 738.932 456.958 738.505 456.488C738.079 455.998 737.577 455.614 737.001 455.336C736.447 455.038 735.796 454.888 735.049 454.888C734.004 454.888 733.236 455.134 732.745 455.624C732.255 456.094 732.009 456.648 732.009 457.288C732.009 457.865 732.18 458.387 732.521 458.856C732.884 459.304 733.439 459.731 734.185 460.136C734.932 460.542 735.903 460.958 737.097 461.384C737.759 461.619 738.42 461.918 739.081 462.28C739.764 462.643 740.383 463.102 740.937 463.656C741.492 464.19 741.929 464.819 742.249 465.544C742.591 466.27 742.761 467.123 742.761 468.104C742.761 469.15 742.559 470.088 742.153 470.92C741.748 471.752 741.193 472.456 740.489 473.032C739.785 473.587 738.985 474.014 738.089 474.312C737.215 474.633 736.297 474.793 735.337 474.793C734.015 474.793 732.788 474.537 731.657 474.024C730.548 473.491 729.577 472.787 728.745 471.912C727.913 471.038 727.252 470.088 726.761 469.064L729.577 467.112ZM753.99 455.4V451.912H769.606V455.4H763.686V474.312H759.878V455.4H753.99ZM773.482 463.112C773.482 464.648 773.802 466.024 774.442 467.24C775.103 468.435 776.01 469.374 777.162 470.056C778.314 470.739 779.626 471.08 781.098 471.08C782.591 471.08 783.903 470.739 785.034 470.056C786.186 469.374 787.082 468.435 787.722 467.24C788.383 466.024 788.714 464.648 788.714 463.112C788.714 461.576 788.394 460.211 787.754 459.016C787.114 457.8 786.218 456.851 785.066 456.168C783.935 455.486 782.612 455.144 781.098 455.144C779.626 455.144 778.314 455.486 777.162 456.168C776.01 456.851 775.103 457.8 774.442 459.016C773.802 460.211 773.482 461.576 773.482 463.112ZM769.482 463.112C769.482 461.427 769.77 459.88 770.346 458.472C770.922 457.064 771.732 455.848 772.778 454.824C773.844 453.779 775.082 452.968 776.49 452.392C777.919 451.816 779.455 451.528 781.098 451.528C782.783 451.528 784.33 451.816 785.738 452.392C787.146 452.968 788.372 453.779 789.418 454.824C790.484 455.848 791.306 457.064 791.882 458.472C792.458 459.88 792.746 461.427 792.746 463.112C792.746 464.776 792.458 466.323 791.882 467.752C791.306 469.182 790.495 470.419 789.45 471.464C788.404 472.51 787.167 473.331 785.738 473.928C784.33 474.505 782.783 474.793 781.098 474.793C779.434 474.793 777.887 474.505 776.458 473.928C775.028 473.331 773.791 472.51 772.746 471.464C771.722 470.419 770.922 469.182 770.346 467.752C769.77 466.323 769.482 464.776 769.482 463.112ZM799.138 463.112C799.138 464.648 799.458 466.024 800.098 467.24C800.759 468.435 801.666 469.374 802.818 470.056C803.97 470.739 805.282 471.08 806.754 471.08C808.247 471.08 809.559 470.739 810.69 470.056C811.842 469.374 812.738 468.435 813.378 467.24C814.039 466.024 814.37 464.648 814.37 463.112C814.37 461.576 814.05 460.211 813.41 459.016C812.77 457.8 811.874 456.851 810.722 456.168C809.591 455.486 808.269 455.144 806.754 455.144C805.282 455.144 803.97 455.486 802.818 456.168C801.666 456.851 800.759 457.8 800.098 459.016C799.458 460.211 799.138 461.576 799.138 463.112ZM795.138 463.112C795.138 461.427 795.426 459.88 796.002 458.472C796.578 457.064 797.389 455.848 798.434 454.824C799.501 453.779 800.738 452.968 802.146 452.392C803.575 451.816 805.111 451.528 806.754 451.528C808.439 451.528 809.986 451.816 811.394 452.392C812.802 452.968 814.029 453.779 815.074 454.824C816.141 455.848 816.962 457.064 817.538 458.472C818.114 459.88 818.402 461.427 818.402 463.112C818.402 464.776 818.114 466.323 817.538 467.752C816.962 469.182 816.151 470.419 815.106 471.464C814.061 472.51 812.823 473.331 811.394 473.928C809.986 474.505 808.439 474.793 806.754 474.793C805.09 474.793 803.543 474.505 802.114 473.928C800.685 473.331 799.447 472.51 798.402 471.464C797.378 470.419 796.578 469.182 796.002 467.752C795.426 466.323 795.138 464.776 795.138 463.112Z" fill="#FFF3C2"/>
<g filter="url(#filter0_dddddd_172_252)">
<path d="M231.556 458.699L226.383 458.229C222.974 457.788 220.299 455.113 219.858 451.704L219.359 446.531C219.359 446.473 219.271 446.473 219.241 446.531C219.153 447.237 218.947 450.117 218.742 451.704C218.301 455.084 215.626 457.788 212.217 458.229L207.044 458.729C206.985 458.729 206.985 458.817 207.044 458.846L212.217 459.346C215.626 459.787 218.301 462.461 218.742 465.87C218.947 467.458 219.153 470.338 219.241 471.043C219.241 471.102 219.329 471.102 219.359 471.043L219.858 465.87C220.299 462.461 222.974 459.787 226.383 459.346L231.556 458.846C231.615 458.817 231.615 458.729 231.556 458.699Z" fill="#FFFDF5"/>
</g>
<g filter="url(#filter1_dddddd_172_252)">
<path d="M217.524 476.403L215.307 476.201C213.846 476.012 212.7 474.866 212.511 473.405L212.297 471.188C212.297 471.163 212.259 471.163 212.246 471.188C212.208 471.49 212.12 472.725 212.032 473.405C211.843 474.853 210.697 476.012 209.236 476.201L207.019 476.415C206.994 476.415 206.994 476.453 207.019 476.466L209.236 476.68C210.697 476.869 211.843 478.015 212.032 479.476C212.12 480.156 212.208 481.391 212.246 481.693C212.246 481.718 212.284 481.718 212.297 481.693L212.511 479.476C212.7 478.015 213.846 476.869 215.307 476.68L217.524 476.466C217.549 476.453 217.549 476.415 217.524 476.403Z" fill="#FFFDF5"/>
</g>
<g filter="url(#filter2_dddddd_172_252)">
<path d="M837.044 469.325L842.216 469.796C845.626 470.236 848.3 472.911 848.741 476.32L849.241 481.493C849.241 481.552 849.329 481.552 849.358 481.493C849.447 480.788 849.652 477.907 849.858 476.32C850.299 472.94 852.973 470.236 856.383 469.796L861.556 469.296C861.614 469.296 861.614 469.208 861.556 469.178L856.383 468.679C852.973 468.238 850.299 465.563 849.858 462.154C849.652 460.567 849.447 457.687 849.358 456.981C849.358 456.922 849.27 456.922 849.241 456.981L848.741 462.154C848.3 465.563 845.626 468.238 842.216 468.679L837.044 469.178C836.985 469.208 836.985 469.296 837.044 469.325Z" fill="#FFFDF5"/>
</g>
<g filter="url(#filter3_dddddd_172_252)">
<path d="M851.076 451.622L853.293 451.823C854.754 452.012 855.9 453.159 856.089 454.62L856.303 456.837C856.303 456.862 856.341 456.862 856.353 456.837C856.391 456.534 856.479 455.3 856.568 454.62C856.756 453.171 857.903 452.012 859.364 451.823L861.581 451.609C861.606 451.609 861.606 451.571 861.581 451.559L859.364 451.345C857.903 451.156 856.756 450.01 856.568 448.548C856.479 447.868 856.391 446.634 856.353 446.332C856.353 446.306 856.316 446.306 856.303 446.332L856.089 448.548C855.9 450.01 854.754 451.156 853.293 451.345L851.076 451.559C851.05 451.571 851.05 451.609 851.076 451.622Z" fill="#FFFDF5"/>
</g>
<path d="M529.836 4.24785C530.193 6.95406 528.351 9.47237 525.645 9.86703C522.976 10.2429 520.514 8.36354 520.157 5.65733C519.8 2.93233 521.661 0.432889 524.348 0.0570268C527.036 -0.356421 529.479 1.52285 529.836 4.24785Z" fill="#FFD100"/>
<path d="M548.026 4.4496C548.402 7.19339 546.467 9.6741 543.817 10.05C541.129 10.4446 538.649 8.58407 538.292 5.84027C537.934 3.15286 539.814 0.634581 542.52 0.258719C545.189 -0.0983503 547.669 1.76219 548.026 4.4496Z" fill="#FFD100"/>
<path d="M498 22.7767C498.15 24.8064 501.646 72.0522 520.251 87.9324C525.156 92.1045 530.625 93.8335 536.601 93.0817C550.696 91.2776 567.929 77.9345 570.128 24.7124C570.147 23.8855 570.165 23.2278 570.203 22.7955L564.584 22.4572C564.546 22.9083 564.528 23.5848 564.49 24.4681C562.46 73.6121 547.839 85.7524 535.906 87.2747C531.452 87.8385 527.524 86.5605 523.822 83.4221C507.058 69.1205 503.657 22.8519 503.619 22.3633L498 22.7767Z" fill="#FFD100"/>
<defs>
<filter id="filter0_dddddd_172_252" x="127.62" y="367.107" width="183.36" height="183.36" filterUnits="userSpaceOnUse" color-interpolation-filters="sRGB">
<feFlood flood-opacity="0" result="BackgroundImageFix"/>
<feColorMatrix in="SourceAlpha" type="matrix" values="0 0 0 0 0 0 0 0 0 0 0 0 0 0 0 0 0 0 127 0" result="hardAlpha"/>
<feOffset/>
<feGaussianBlur stdDeviation="0.945"/>
<feColorMatrix type="matrix" values="0 0 0 0 1 0 0 0 0 1 0 0 0 0 1 0 0 0 1 0"/>
<feBlend mode="normal" in2="BackgroundImageFix" result="effect1_dropShadow_172_252"/>
<feColorMatrix in="SourceAlpha" type="matrix" values="0 0 0 0 0 0 0 0 0 0 0 0 0 0 0 0 0 0 127 0" result="hardAlpha"/>
<feOffset/>
<feGaussianBlur stdDeviation="1.89"/>
<feColorMatrix type="matrix" values="0 0 0 0 1 0 0 0 0 1 0 0 0 0 1 0 0 0 1 0"/>
<feBlend mode="normal" in2="effect1_dropShadow_172_252" result="effect2_dropShadow_172_252"/>
<feColorMatrix in="SourceAlpha" type="matrix" values="0 0 0 0 0 0 0 0 0 0 0 0 0 0 0 0 0 0 127 0" result="hardAlpha"/>
<feOffset/>
<feGaussianBlur stdDeviation="6.615"/>
<feColorMatrix type="matrix" values="0 0 0 0 1 0 0 0 0 1 0 0 0 0 1 0 0 0 1 0"/>
<feBlend mode="normal" in2="effect2_dropShadow_172_252" result="effect3_dropShadow_172_252"/>
<feColorMatrix in="SourceAlpha" type="matrix" values="0 0 0 0 0 0 0 0 0 0 0 0 0 0 0 0 0 0 127 0" result="hardAlpha"/>
<feOffset/>
<feGaussianBlur stdDeviation="13.23"/>
<feColorMatrix type="matrix" values="0 0 0 0 1 0 0 0 0 1 0 0 0 0 1 0 0 0 1 0"/>
<feBlend mode="normal" in2="effect3_dropShadow_172_252" result="effect4_dropShadow_172_252"/>
<feColorMatrix in="SourceAlpha" type="matrix" values="0 0 0 0 0 0 0 0 0 0 0 0 0 0 0 0 0 0 127 0" result="hardAlpha"/>
<feOffset/>
<feGaussianBlur stdDeviation="22.68"/>
<feColorMatrix type="matrix" values="0 0 0 0 1 0 0 0 0 1 0 0 0 0 1 0 0 0 1 0"/>
<feBlend mode="normal" in2="effect4_dropShadow_172_252" result="effect5_dropShadow_172_252"/>
<feColorMatrix in="SourceAlpha" type="matrix" values="0 0 0 0 0 0 0 0 0 0 0 0 0 0 0 0 0 0 127 0" result="hardAlpha"/>
<feOffset/>
<feGaussianBlur stdDeviation="39.69"/>
<feColorMatrix type="matrix" values="0 0 0 0 1 0 0 0 0 1 0 0 0 0 1 0 0 0 1 0"/>
<feBlend mode="normal" in2="effect5_dropShadow_172_252" result="effect6_dropShadow_172_252"/>
<feBlend mode="normal" in="SourceGraphic" in2="effect6_dropShadow_172_252" result="shape"/>
</filter>
<filter id="filter1_dddddd_172_252" x="127.62" y="391.789" width="169.303" height="169.303" filterUnits="userSpaceOnUse" color-interpolation-filters="sRGB">
<feFlood flood-opacity="0" result="BackgroundImageFix"/>
<feColorMatrix in="SourceAlpha" type="matrix" values="0 0 0 0 0 0 0 0 0 0 0 0 0 0 0 0 0 0 127 0" result="hardAlpha"/>
<feOffset/>
<feGaussianBlur stdDeviation="0.945"/>
<feColorMatrix type="matrix" values="0 0 0 0 1 0 0 0 0 1 0 0 0 0 1 0 0 0 1 0"/>
<feBlend mode="normal" in2="BackgroundImageFix" result="effect1_dropShadow_172_252"/>
<feColorMatrix in="SourceAlpha" type="matrix" values="0 0 0 0 0 0 0 0 0 0 0 0 0 0 0 0 0 0 127 0" result="hardAlpha"/>
<feOffset/>
<feGaussianBlur stdDeviation="1.89"/>
<feColorMatrix type="matrix" values="0 0 0 0 1 0 0 0 0 1 0 0 0 0 1 0 0 0 1 0"/>
<feBlend mode="normal" in2="effect1_dropShadow_172_252" result="effect2_dropShadow_172_252"/>
<feColorMatrix in="SourceAlpha" type="matrix" values="0 0 0 0 0 0 0 0 0 0 0 0 0 0 0 0 0 0 127 0" result="hardAlpha"/>
<feOffset/>
<feGaussianBlur stdDeviation="6.615"/>
<feColorMatrix type="matrix" values="0 0 0 0 1 0 0 0 0 1 0 0 0 0 1 0 0 0 1 0"/>
<feBlend mode="normal" in2="effect2_dropShadow_172_252" result="effect3_dropShadow_172_252"/>
<feColorMatrix in="SourceAlpha" type="matrix" values="0 0 0 0 0 0 0 0 0 0 0 0 0 0 0 0 0 0 127 0" result="hardAlpha"/>
<feOffset/>
<feGaussianBlur stdDeviation="13.23"/>
<feColorMatrix type="matrix" values="0 0 0 0 1 0 0 0 0 1 0 0 0 0 1 0 0 0 1 0"/>
<feBlend mode="normal" in2="effect3_dropShadow_172_252" result="effect4_dropShadow_172_252"/>
<feColorMatrix in="SourceAlpha" type="matrix" values="0 0 0 0 0 0 0 0 0 0 0 0 0 0 0 0 0 0 127 0" result="hardAlpha"/>
<feOffset/>
<feGaussianBlur stdDeviation="22.68"/>
<feColorMatrix type="matrix" values="0 0 0 0 1 0 0 0 0 1 0 0 0 0 1 0 0 0 1 0"/>
<feBlend mode="normal" in2="effect4_dropShadow_172_252" result="effect5_dropShadow_172_252"/>
<feColorMatrix in="SourceAlpha" type="matrix" values="0 0 0 0 0 0 0 0 0 0 0 0 0 0 0 0 0 0 127 0" result="hardAlpha"/>
<feOffset/>
<feGaussianBlur stdDeviation="39.69"/>
<feColorMatrix type="matrix" values="0 0 0 0 1 0 0 0 0 1 0 0 0 0 1 0 0 0 1 0"/>
<feBlend mode="normal" in2="effect5_dropShadow_172_252" result="effect6_dropShadow_172_252"/>
<feBlend mode="normal" in="SourceGraphic" in2="effect6_dropShadow_172_252" result="shape"/>
</filter>
<filter id="filter2_dddddd_172_252" x="757.62" y="377.557" width="183.36" height="183.36" filterUnits="userSpaceOnUse" color-interpolation-filters="sRGB">
<feFlood flood-opacity="0" result="BackgroundImageFix"/>
<feColorMatrix in="SourceAlpha" type="matrix" values="0 0 0 0 0 0 0 0 0 0 0 0 0 0 0 0 0 0 127 0" result="hardAlpha"/>
<feOffset/>
<feGaussianBlur stdDeviation="0.945"/>
<feColorMatrix type="matrix" values="0 0 0 0 1 0 0 0 0 1 0 0 0 0 1 0 0 0 1 0"/>
<feBlend mode="normal" in2="BackgroundImageFix" result="effect1_dropShadow_172_252"/>
<feColorMatrix in="SourceAlpha" type="matrix" values="0 0 0 0 0 0 0 0 0 0 0 0 0 0 0 0 0 0 127 0" result="hardAlpha"/>
<feOffset/>
<feGaussianBlur stdDeviation="1.89"/>
<feColorMatrix type="matrix" values="0 0 0 0 1 0 0 0 0 1 0 0 0 0 1 0 0 0 1 0"/>
<feBlend mode="normal" in2="effect1_dropShadow_172_252" result="effect2_dropShadow_172_252"/>
<feColorMatrix in="SourceAlpha" type="matrix" values="0 0 0 0 0 0 0 0 0 0 0 0 0 0 0 0 0 0 127 0" result="hardAlpha"/>
<feOffset/>
<feGaussianBlur stdDeviation="6.615"/>
<feColorMatrix type="matrix" values="0 0 0 0 1 0 0 0 0 1 0 0 0 0 1 0 0 0 1 0"/>
<feBlend mode="normal" in2="effect2_dropShadow_172_252" result="effect3_dropShadow_172_252"/>
<feColorMatrix in="SourceAlpha" type="matrix" values="0 0 0 0 0 0 0 0 0 0 0 0 0 0 0 0 0 0 127 0" result="hardAlpha"/>
<feOffset/>
<feGaussianBlur stdDeviation="13.23"/>
<feColorMatrix type="matrix" values="0 0 0 0 1 0 0 0 0 1 0 0 0 0 1 0 0 0 1 0"/>
<feBlend mode="normal" in2="effect3_dropShadow_172_252" result="effect4_dropShadow_172_252"/>
<feColorMatrix in="SourceAlpha" type="matrix" values="0 0 0 0 0 0 0 0 0 0 0 0 0 0 0 0 0 0 127 0" result="hardAlpha"/>
<feOffset/>
<feGaussianBlur stdDeviation="22.68"/>
<feColorMatrix type="matrix" values="0 0 0 0 1 0 0 0 0 1 0 0 0 0 1 0 0 0 1 0"/>
<feBlend mode="normal" in2="effect4_dropShadow_172_252" result="effect5_dropShadow_172_252"/>
<feColorMatrix in="SourceAlpha" type="matrix" values="0 0 0 0 0 0 0 0 0 0 0 0 0 0 0 0 0 0 127 0" result="hardAlpha"/>
<feOffset/>
<feGaussianBlur stdDeviation="39.69"/>
<feColorMatrix type="matrix" values="0 0 0 0 1 0 0 0 0 1 0 0 0 0 1 0 0 0 1 0"/>
<feBlend mode="normal" in2="effect5_dropShadow_172_252" result="effect6_dropShadow_172_252"/>
<feBlend mode="normal" in="SourceGraphic" in2="effect6_dropShadow_172_252" result="shape"/>
</filter>
<filter id="filter3_dddddd_172_252" x="771.677" y="366.932" width="169.303" height="169.303" filterUnits="userSpaceOnUse" color-interpolation-filters="sRGB">
<feFlood flood-opacity="0" result="BackgroundImageFix"/>
<feColorMatrix in="SourceAlpha" type="matrix" values="0 0 0 0 0 0 0 0 0 0 0 0 0 0 0 0 0 0 127 0" result="hardAlpha"/>
<feOffset/>
<feGaussianBlur stdDeviation="0.945"/>
<feColorMatrix type="matrix" values="0 0 0 0 1 0 0 0 0 1 0 0 0 0 1 0 0 0 1 0"/>
<feBlend mode="normal" in2="BackgroundImageFix" result="effect1_dropShadow_172_252"/>
<feColorMatrix in="SourceAlpha" type="matrix" values="0 0 0 0 0 0 0 0 0 0 0 0 0 0 0 0 0 0 127 0" result="hardAlpha"/>
<feOffset/>
<feGaussianBlur stdDeviation="1.89"/>
<feColorMatrix type="matrix" values="0 0 0 0 1 0 0 0 0 1 0 0 0 0 1 0 0 0 1 0"/>
<feBlend mode="normal" in2="effect1_dropShadow_172_252" result="effect2_dropShadow_172_252"/>
<feColorMatrix in="SourceAlpha" type="matrix" values="0 0 0 0 0 0 0 0 0 0 0 0 0 0 0 0 0 0 127 0" result="hardAlpha"/>
<feOffset/>
<feGaussianBlur stdDeviation="6.615"/>
<feColorMatrix type="matrix" values="0 0 0 0 1 0 0 0 0 1 0 0 0 0 1 0 0 0 1 0"/>
<feBlend mode="normal" in2="effect2_dropShadow_172_252" result="effect3_dropShadow_172_252"/>
<feColorMatrix in="SourceAlpha" type="matrix" values="0 0 0 0 0 0 0 0 0 0 0 0 0 0 0 0 0 0 127 0" result="hardAlpha"/>
<feOffset/>
<feGaussianBlur stdDeviation="13.23"/>
<feColorMatrix type="matrix" values="0 0 0 0 1 0 0 0 0 1 0 0 0 0 1 0 0 0 1 0"/>
<feBlend mode="normal" in2="effect3_dropShadow_172_252" result="effect4_dropShadow_172_252"/>
<feColorMatrix in="SourceAlpha" type="matrix" values="0 0 0 0 0 0 0 0 0 0 0 0 0 0 0 0 0 0 127 0" result="hardAlpha"/>
<feOffset/>
<feGaussianBlur stdDeviation="22.68"/>
<feColorMatrix type="matrix" values="0 0 0 0 1 0 0 0 0 1 0 0 0 0 1 0 0 0 1 0"/>
<feBlend mode="normal" in2="effect4_dropShadow_172_252" result="effect5_dropShadow_172_252"/>
<feColorMatrix in="SourceAlpha" type="matrix" values="0 0 0 0 0 0 0 0 0 0 0 0 0 0 0 0 0 0 127 0" result="hardAlpha"/>
<feOffset/>
<feGaussianBlur stdDeviation="39.69"/>
<feColorMatrix type="matrix" values="0 0 0 0 1 0 0 0 0 1 0 0 0 0 1 0 0 0 1 0"/>
<feBlend mode="normal" in2="effect5_dropShadow_172_252" result="effect6_dropShadow_172_252"/>
<feBlend mode="normal" in="SourceGraphic" in2="effect6_dropShadow_172_252" result="shape"/>
</filter>
</defs>
</svg>
