<svg width="1961" height="366" viewBox="0 0 1961 366" fill="none" xmlns="http://www.w3.org/2000/svg">
<path d="M533.321 209L515.753 158.6H525.113L541.745 206.192L549.665 183.512L540.953 158.6H550.313L554.345 170.048L558.305 158.6H560.609L555.497 173.36L566.945 206.192L583.505 158.6H585.809L568.241 209H558.521L550.817 186.824L543.041 209H533.321ZM591.889 167.024C591.889 160.112 590.665 157.088 588.217 157.088V156.44H600.529V177.536C603.265 173.648 607.369 171.56 612.049 171.56C619.537 171.56 622.345 174.656 622.345 182.072V209H613.705V181.64C613.705 175.664 612.913 173 610.177 173C606.577 173 600.529 178.112 600.529 189.992V209H591.889V167.024ZM649.629 204.248C647.757 207.632 644.589 210.44 639.765 210.44C632.925 210.44 627.741 207.2 627.741 200.648C627.741 187.616 646.821 188.264 649.557 182.432C649.269 174.944 647.253 173 644.445 173C640.773 173 637.965 177.248 637.965 183.08H630.837C630.837 176.024 637.173 171.56 644.949 171.56C653.661 171.56 658.269 175.304 658.269 184.736V209H649.629V204.248ZM635.877 203.384C635.877 206.408 637.461 209 641.205 209C646.317 209 648.981 202.232 649.629 197.552V183.944C646.317 188.696 635.877 191.216 635.877 203.384ZM673.39 210.44C668.278 210.44 666.046 206.192 666.046 200.432V174.44H663.67V173H666.046C669.718 173 673.894 165.8 673.894 162.2H674.686V173H682.102V174.44H674.686V200.288C674.686 203.816 675.838 205.904 678.142 205.976C679.726 205.976 680.95 204.824 682.318 203.384L682.606 203.96C680.518 206.48 677.782 210.44 673.39 210.44ZM686.124 161.192C686.124 159.032 687.78 157.16 690.228 157.16C692.676 157.16 694.548 158.6 694.548 161.48C694.548 164.288 691.884 168.032 688.14 168.032V167.744C688.644 167.744 690.66 166.664 690.948 165.296C688.212 165.152 686.124 163.496 686.124 161.192ZM716.062 210.44C709.654 210.44 702.166 208.712 698.782 206.912V196.544H698.998C702.958 202.52 708.142 209 718.006 209C722.83 209 725.566 205.976 725.566 203.168C725.566 192.8 699.07 194.024 699.07 182.504C699.07 177.536 703.174 171.56 715.054 171.56C721.534 171.56 727.942 173.216 729.958 175.088V183.224H729.742C726.718 178.328 720.598 173 712.966 173C709.078 173 705.622 175.592 705.622 177.968C705.622 186.752 731.902 183.944 731.902 198.632C731.902 206.408 726.214 210.44 716.062 210.44ZM768.88 210.44C760.168 210.44 750.304 204.464 750.304 190.856C750.304 177.536 759.952 171.56 768.592 171.56C777.016 171.56 785.656 177.248 785.656 190.568H759.376C759.592 200.288 764.704 205.832 772.264 205.832C777.736 205.832 782.056 202.232 783.856 198.632L784.504 199.136C782.344 203.528 777.232 210.44 768.88 210.44ZM759.376 189.128H777.088C776.8 177.32 773.56 173 768.592 173C763.048 173 759.52 178.616 759.376 189.128ZM800.137 209L787.465 173H801.577V173.576C796.249 173.576 797.545 177.176 801.793 189.128L807.985 206.768L814.321 187.976C815.689 183.8 813.673 177.392 811.009 173H820.441L808.777 209H800.137ZM841.161 210.44C832.449 210.44 822.585 204.464 822.585 190.856C822.585 177.536 832.233 171.56 840.873 171.56C849.297 171.56 857.937 177.248 857.937 190.568H831.657C831.873 200.288 836.985 205.832 844.545 205.832C850.017 205.832 854.337 202.232 856.137 198.632L856.785 199.136C854.625 203.528 849.513 210.44 841.161 210.44ZM831.657 189.128H849.369C849.081 177.32 845.841 173 840.873 173C835.329 173 831.801 178.616 831.657 189.128ZM863.779 183.584C863.779 176.672 862.555 173.648 860.107 173.648V173H872.419V176.096C874.579 173.144 877.675 171.56 881.707 171.56C887.323 171.56 891.427 175.088 891.427 183.08H883.363C883.147 175.088 882.283 173 879.835 173C876.235 173 872.419 178.112 872.419 189.992V209H863.779V183.584ZM901.218 224.552C897.546 224.552 894.522 222.896 892.794 220.664V212.6C894.522 214.616 897.762 217.64 902.874 217.64C908.85 217.64 911.01 214.04 912.666 209H905.538L892.866 173H906.978V173.576C901.65 173.576 902.946 177.176 907.194 189.128L913.386 206.768L919.578 187.976C920.946 183.8 919.074 177.392 916.41 173H925.842L914.178 209C911.874 216.128 908.994 224.552 901.218 224.552ZM946.342 210.44C937.702 210.44 928.054 204.464 928.054 190.856C928.054 177.536 937.702 171.56 946.342 171.56C954.982 171.56 964.63 177.536 964.63 190.856C964.63 204.464 954.982 210.44 946.342 210.44ZM937.774 190.712C937.774 203.24 940.654 209 946.342 209C952.03 209 954.91 203.24 954.91 190.712C954.91 178.544 952.03 173 946.342 173C940.654 173 937.774 178.544 937.774 190.712ZM970.794 183.584C970.794 176.672 969.57 173.648 967.122 173.648V173H979.434V177.536C982.17 173.648 986.274 171.56 990.954 171.56C998.442 171.56 1001.25 174.656 1001.25 182.072V209H992.61V181.64C992.61 175.664 991.818 173 989.082 173C985.482 173 979.434 178.112 979.434 189.992V209H970.794V183.584ZM1025.59 210.44C1016.88 210.44 1007.01 204.464 1007.01 190.856C1007.01 177.536 1016.66 171.56 1025.3 171.56C1033.73 171.56 1042.37 177.248 1042.37 190.568H1016.09C1016.3 200.288 1021.41 205.832 1028.97 205.832C1034.45 205.832 1038.77 202.232 1040.57 198.632L1041.21 199.136C1039.05 203.528 1033.94 210.44 1025.59 210.44ZM1016.09 189.128H1033.8C1033.51 177.32 1030.27 173 1025.3 173C1019.76 173 1016.23 178.616 1016.09 189.128ZM1071.26 209L1058.59 173H1072.7V173.576C1067.37 173.576 1068.67 177.176 1072.92 189.128L1079.11 206.696L1085.16 187.472L1080.05 173H1094.16V173.576C1088.83 173.576 1090.13 177.176 1094.37 189.128L1100.57 206.768L1106.9 187.976C1108.27 183.8 1106.25 177.392 1103.59 173H1113.02L1101.36 209H1092.72L1085.95 189.704L1079.9 209H1071.26ZM1118.59 183.584C1118.59 176.672 1117.37 173.648 1114.92 173.648V173H1127.23V209H1118.59V183.584ZM1118.16 161.048C1118.16 158.816 1119.96 157.016 1122.19 157.016C1124.42 157.016 1126.22 158.816 1126.22 161.048C1126.22 163.28 1124.42 165.08 1122.19 165.08C1119.96 165.08 1118.16 163.28 1118.16 161.048ZM1150.66 210.44C1144.26 210.44 1136.77 208.712 1133.38 206.912V196.544H1133.6C1137.56 202.52 1142.74 209 1152.61 209C1157.43 209 1160.17 205.976 1160.17 203.168C1160.17 192.8 1133.67 194.024 1133.67 182.504C1133.67 177.536 1137.78 171.56 1149.66 171.56C1156.14 171.56 1162.54 173.216 1164.56 175.088V183.224H1164.34C1161.32 178.328 1155.2 173 1147.57 173C1143.68 173 1140.22 175.592 1140.22 177.968C1140.22 186.752 1166.5 183.944 1166.5 198.632C1166.5 206.408 1160.82 210.44 1150.66 210.44ZM1173.44 167.024C1173.44 160.112 1172.22 157.088 1169.77 157.088V156.44H1182.08V177.536C1184.82 173.648 1188.92 171.56 1193.6 171.56C1201.09 171.56 1203.9 174.656 1203.9 182.072V209H1195.26V181.64C1195.26 175.664 1194.47 173 1191.73 173C1188.13 173 1182.08 178.112 1182.08 189.992V209H1173.44V167.024ZM1212.25 183.584C1212.25 176.672 1211.02 173.648 1208.58 173.648V173H1220.89V209H1212.25V183.584ZM1211.82 161.048C1211.82 158.816 1213.62 157.016 1215.85 157.016C1218.08 157.016 1219.88 158.816 1219.88 161.048C1219.88 163.28 1218.08 165.08 1215.85 165.08C1213.62 165.08 1211.82 163.28 1211.82 161.048ZM1228.91 183.584C1228.91 176.672 1227.69 173.648 1225.24 173.648V173H1237.55V177.536C1240.29 173.648 1244.39 171.56 1249.07 171.56C1256.56 171.56 1259.37 174.656 1259.37 182.072V209H1250.73V181.64C1250.73 175.664 1249.94 173 1247.2 173C1243.6 173 1237.55 178.112 1237.55 189.992V209H1228.91V183.584ZM1282.84 224.552C1276.08 224.552 1270.53 223.328 1267.51 221.528V210.44H1267.8C1270.53 215.912 1275.93 223.112 1282.77 223.112C1288.82 223.112 1290.4 217.064 1290.4 210.224V207.704C1288.1 209.432 1285.08 210.44 1282.05 210.44C1274.56 210.44 1265.13 204.968 1265.13 190.856C1265.13 177.176 1273.2 171.56 1281.84 171.56C1286.3 171.56 1289.9 173.72 1292.2 176.384L1298.83 173H1299.04V209.936C1299.04 221.096 1293.28 224.552 1282.84 224.552ZM1274.85 190.712C1274.85 203.816 1277.52 209 1282.05 209C1286.52 209 1289.18 206.048 1290.4 201.944V180.272C1288.96 176.096 1285.58 173 1281.84 173C1277.52 173 1274.85 178.472 1274.85 190.712ZM1320.29 173C1320.29 159.32 1324.61 154.208 1332.82 154.208C1339.15 154.208 1344.63 158.528 1344.63 167.168H1337.86C1337.86 159.896 1335.91 155.648 1332.1 155.648C1326.55 155.648 1328.93 162.416 1328.93 168.032V173H1337.79V174.44H1328.93V209H1320.29V173ZM1357.11 210.44C1348.47 210.44 1338.82 204.464 1338.82 190.856C1338.82 177.536 1348.47 171.56 1357.11 171.56C1365.75 171.56 1375.4 177.536 1375.4 190.856C1375.4 204.464 1365.75 210.44 1357.11 210.44ZM1348.54 190.712C1348.54 203.24 1351.42 209 1357.11 209C1362.8 209 1365.68 203.24 1365.68 190.712C1365.68 178.544 1362.8 173 1357.11 173C1351.42 173 1348.54 178.544 1348.54 190.712ZM1381.56 183.584C1381.56 176.672 1380.34 173.648 1377.89 173.648V173H1390.2V176.096C1392.36 173.144 1395.46 171.56 1399.49 171.56C1405.1 171.56 1409.21 175.088 1409.21 183.08H1401.14C1400.93 175.088 1400.06 173 1397.62 173C1394.02 173 1390.2 178.112 1390.2 189.992V209H1381.56V183.584ZM1424.54 190.208C1424.54 178.328 1433.4 182 1433.4 168.392C1433.4 160.976 1431.02 158.6 1427.57 158.6C1421.59 158.6 1419.5 163.712 1419.5 171.632H1413.17C1413.17 164.648 1417.49 157.16 1427.78 157.16C1438.01 157.16 1441.32 162.92 1441.32 167.96C1441.32 181.712 1426.7 179.48 1426.7 190.208V197.336H1424.54V190.208ZM1421.52 204.896C1421.52 202.664 1423.32 200.864 1425.62 200.864C1427.85 200.864 1429.65 202.664 1429.65 204.896C1429.65 207.2 1427.85 209 1425.62 209C1423.32 209 1421.52 207.2 1421.52 204.896Z" fill="#4A0258"/>
<mask id="mask0_120_73" style="mask-type:luminance" maskUnits="userSpaceOnUse" x="0" y="2" width="1961" height="364">
<path d="M1961 2.83984H0V365.38H1961V2.83984Z" fill="white"/>
</mask>
<g mask="url(#mask0_120_73)">
<path d="M189.92 84.5312H189.38V117.491H189.92V84.5312Z" fill="#D6A44D"/>
<path d="M191.94 101.021C191.962 101.478 191.847 101.931 191.609 102.322C191.371 102.713 191.021 103.023 190.605 103.213C190.189 103.404 189.726 103.465 189.275 103.39C188.823 103.314 188.405 103.105 188.074 102.79C187.742 102.474 187.513 102.067 187.416 101.62C187.318 101.173 187.356 100.707 187.526 100.282C187.696 99.857 187.989 99.4927 188.367 99.2359C188.746 98.979 189.193 98.8415 189.65 98.841C189.944 98.8316 190.237 98.8808 190.512 98.9857C190.787 99.0906 191.038 99.2491 191.251 99.4519C191.464 99.6548 191.635 99.8979 191.753 100.167C191.871 100.437 191.935 100.727 191.94 101.021Z" fill="#D6A44D"/>
<path d="M190.66 89.8398C190.66 90.0376 190.602 90.231 190.492 90.3954C190.382 90.5599 190.226 90.688 190.043 90.7637C189.86 90.8394 189.659 90.8592 189.465 90.8206C189.271 90.782 189.093 90.6868 188.953 90.547C188.813 90.4071 188.718 90.2289 188.679 90.0349C188.641 89.841 188.661 89.6399 188.736 89.4572C188.812 89.2744 188.94 89.1183 189.105 89.0084C189.269 88.8985 189.462 88.8398 189.66 88.8398C189.925 88.8398 190.18 88.9452 190.367 89.1327C190.555 89.3203 190.66 89.5746 190.66 89.8398Z" fill="#D6A44D"/>
<path d="M190.66 112.18C190.66 112.377 190.602 112.571 190.492 112.735C190.382 112.9 190.226 113.028 190.043 113.104C189.86 113.179 189.659 113.199 189.465 113.16C189.271 113.122 189.093 113.027 188.953 112.887C188.813 112.747 188.718 112.569 188.679 112.375C188.641 112.181 188.661 111.98 188.736 111.797C188.812 111.614 188.94 111.458 189.105 111.348C189.269 111.238 189.462 111.18 189.66 111.18C189.925 111.18 190.18 111.285 190.367 111.473C190.555 111.66 190.66 111.914 190.66 112.18Z" fill="#D6A44D"/>
<path d="M189.92 51.5703H189.38V84.5303H189.92V51.5703Z" fill="#D6A44D"/>
<path d="M189.65 70.2004C190.915 70.2004 191.94 69.2378 191.94 68.0504C191.94 66.863 190.915 65.9004 189.65 65.9004C188.386 65.9004 187.36 66.863 187.36 68.0504C187.36 69.2378 188.386 70.2004 189.65 70.2004Z" fill="#D6A44D"/>
<path d="M190.66 56.8906C190.66 57.0884 190.602 57.2817 190.492 57.4462C190.382 57.6106 190.226 57.7388 190.043 57.8145C189.86 57.8902 189.659 57.91 189.465 57.8714C189.271 57.8328 189.093 57.7376 188.953 57.5977C188.813 57.4579 188.718 57.2797 188.679 57.0857C188.641 56.8917 188.661 56.6907 188.736 56.5079C188.812 56.3252 188.94 56.169 189.105 56.0592C189.269 55.9493 189.462 55.8906 189.66 55.8906C189.925 55.8906 190.18 55.996 190.367 56.1835C190.555 56.3711 190.66 56.6254 190.66 56.8906Z" fill="#D6A44D"/>
<path d="M190.66 79.2188C190.66 79.4165 190.602 79.6099 190.492 79.7743C190.382 79.9388 190.226 80.0669 190.043 80.1426C189.86 80.2183 189.659 80.2381 189.465 80.1995C189.271 80.161 189.093 80.0657 188.953 79.9259C188.813 79.786 188.718 79.6078 188.679 79.4138C188.641 79.2199 188.661 79.0188 188.736 78.8361C188.812 78.6533 188.94 78.4972 189.105 78.3873C189.269 78.2774 189.462 78.2188 189.66 78.2188C189.925 78.2188 190.18 78.3241 190.367 78.5116C190.555 78.6992 190.66 78.9535 190.66 79.2188Z" fill="#D6A44D"/>
<path d="M189.92 18.5996H189.38V51.5596H189.92V18.5996Z" fill="#D6A44D"/>
<path d="M189.65 37.2414C190.915 37.2414 191.94 36.2788 191.94 35.0914C191.94 33.904 190.915 32.9414 189.65 32.9414C188.386 32.9414 187.36 33.904 187.36 35.0914C187.36 36.2788 188.386 37.2414 189.65 37.2414Z" fill="#D6A44D"/>
<path d="M190.66 23.9188C190.67 24.1184 190.62 24.3164 190.517 24.4873C190.413 24.6582 190.261 24.7941 190.079 24.8775C189.897 24.9609 189.695 24.988 189.498 24.9552C189.301 24.9225 189.118 24.8314 188.973 24.6938C188.828 24.5561 188.728 24.3782 188.685 24.183C188.642 23.9877 188.659 23.7842 188.733 23.5985C188.807 23.4129 188.935 23.2536 189.1 23.1414C189.265 23.0291 189.461 22.969 189.66 22.9688C189.917 22.9684 190.164 23.0669 190.35 23.2438C190.537 23.4206 190.648 23.6623 190.66 23.9188Z" fill="#D6A44D"/>
<path d="M190.66 46.2508C190.67 46.4504 190.62 46.6484 190.517 46.8193C190.413 46.9902 190.261 47.1261 190.079 47.2095C189.897 47.2929 189.695 47.32 189.498 47.2873C189.301 47.2545 189.118 47.1634 188.973 47.0258C188.828 46.8881 188.728 46.7102 188.685 46.515C188.642 46.3198 188.659 46.1162 188.733 45.9306C188.807 45.7449 188.935 45.5857 189.1 45.4734C189.265 45.3612 189.461 45.301 189.66 45.3008C189.917 45.3005 190.164 45.3989 190.35 45.5758C190.537 45.7526 190.648 45.9943 190.66 46.2508Z" fill="#D6A44D"/>
<path d="M189.92 -14.3594H189.38V18.6106H189.92V-14.3594Z" fill="#D6A44D"/>
<path d="M189.65 4.26875C190.915 4.26875 191.94 3.30616 191.94 2.11874C191.94 0.931332 190.915 -0.03125 189.65 -0.03125C188.386 -0.03125 187.36 0.931332 187.36 2.11874C187.36 3.30616 188.386 4.26875 189.65 4.26875Z" fill="#D6A44D"/>
<path d="M190.66 13.2891C190.66 13.4868 190.602 13.6802 190.492 13.8446C190.382 14.0091 190.226 14.1373 190.043 14.2129C189.86 14.2886 189.659 14.3084 189.465 14.2698C189.271 14.2313 189.093 14.136 188.953 13.9962C188.813 13.8563 188.718 13.6781 188.679 13.4842C188.641 13.2902 188.661 13.0891 188.736 12.9064C188.812 12.7237 188.94 12.5675 189.105 12.4576C189.269 12.3477 189.462 12.2891 189.66 12.2891C189.925 12.2891 190.18 12.3944 190.367 12.582C190.555 12.7695 190.66 13.0238 190.66 13.2891Z" fill="#D6A44D"/>
<path d="M212.66 146.21C214.9 158.539 212.437 171.259 205.758 181.861C199.079 192.464 188.669 200.177 176.582 203.481C164.494 206.784 151.608 205.437 140.465 199.706C129.322 193.974 120.732 184.274 116.39 172.52C118.064 174.153 119.87 175.645 121.79 176.98C130.862 183.271 142.061 185.7 152.924 183.734C163.787 181.768 173.424 175.567 179.715 166.495C186.006 157.423 188.436 146.224 186.469 135.361C184.503 124.498 178.302 114.861 169.23 108.57C167.292 107.216 165.237 106.038 163.09 105.05C174.876 104.977 186.309 109.066 195.377 116.595C204.445 124.124 210.565 134.611 212.66 146.21Z" fill="url(#paint0_linear_120_73)"/>
<path d="M163.29 200.64C157.128 200.626 151.033 199.361 145.374 196.922C139.716 194.483 134.611 190.92 130.37 186.45C135.225 188.138 140.33 188.996 145.47 188.99C154.259 188.996 162.867 186.496 170.286 181.783C177.704 177.071 183.625 170.341 187.354 162.382C191.084 154.424 192.467 145.568 191.341 136.851C190.216 128.135 186.629 119.92 181 113.17C190.678 117.259 198.643 124.569 203.547 133.86C208.45 143.152 209.989 153.853 207.903 164.15C205.817 174.447 200.234 183.705 192.102 190.356C183.969 197.006 173.786 200.64 163.28 200.64H163.29Z" fill="url(#paint1_linear_120_73)"/>
<path d="M1792.4 91.2891H1791.74V132.199H1792.4V91.2891Z" fill="#D6A44D"/>
<path d="M1794.92 111.749C1794.96 112.319 1794.82 112.888 1794.53 113.38C1794.24 113.871 1793.81 114.265 1793.29 114.508C1792.77 114.751 1792.19 114.833 1791.63 114.744C1791.06 114.654 1790.54 114.397 1790.12 114.006C1789.71 113.614 1789.42 113.106 1789.29 112.549C1789.17 111.991 1789.22 111.408 1789.43 110.877C1789.64 110.346 1790 109.89 1790.48 109.57C1790.95 109.249 1791.51 109.078 1792.08 109.079C1792.81 109.06 1793.52 109.33 1794.05 109.83C1794.58 110.33 1794.89 111.02 1794.92 111.749Z" fill="#D6A44D"/>
<path d="M1793.34 97.8896C1793.35 98.1413 1793.29 98.3914 1793.16 98.6077C1793.03 98.8239 1792.84 98.9962 1792.61 99.1024C1792.38 99.2086 1792.13 99.2437 1791.88 99.2033C1791.63 99.1629 1791.4 99.0487 1791.22 98.8756C1791.03 98.7025 1790.91 98.4784 1790.85 98.2323C1790.8 97.9862 1790.82 97.7293 1790.91 97.495C1791 97.2607 1791.17 97.0596 1791.37 96.9178C1791.58 96.776 1791.83 96.7 1792.08 96.6996C1792.4 96.6915 1792.72 96.8121 1792.96 97.035C1793.19 97.2579 1793.33 97.5651 1793.34 97.8896Z" fill="#D6A44D"/>
<path d="M1793.34 125.6C1793.36 125.852 1793.3 126.103 1793.17 126.321C1793.04 126.538 1792.85 126.712 1792.62 126.82C1792.39 126.928 1792.14 126.964 1791.89 126.925C1791.64 126.886 1791.41 126.773 1791.22 126.6C1791.04 126.427 1790.91 126.203 1790.85 125.957C1790.8 125.711 1790.82 125.453 1790.91 125.218C1791 124.984 1791.16 124.782 1791.37 124.639C1791.58 124.497 1791.83 124.421 1792.08 124.42C1792.4 124.412 1792.72 124.531 1792.95 124.752C1793.19 124.973 1793.33 125.278 1793.34 125.6Z" fill="#D6A44D"/>
<path d="M1792.4 50.3691H1791.74V91.2791H1792.4V50.3691Z" fill="#D6A44D"/>
<path d="M1792.08 73.5002C1793.65 73.5002 1794.92 72.3048 1794.92 70.8302C1794.92 69.3556 1793.65 68.1602 1792.08 68.1602C1790.51 68.1602 1789.24 69.3556 1789.24 70.8302C1789.24 72.3048 1790.51 73.5002 1792.08 73.5002Z" fill="#D6A44D"/>
<path d="M1793.34 56.9794C1793.35 57.2312 1793.29 57.4813 1793.16 57.6975C1793.03 57.9137 1792.84 58.086 1792.61 58.1922C1792.38 58.2984 1792.13 58.3336 1791.88 58.2931C1791.63 58.2527 1791.4 58.1386 1791.22 57.9655C1791.03 57.7924 1790.91 57.5683 1790.85 57.3221C1790.8 57.076 1790.82 56.8192 1790.91 56.5848C1791 56.3505 1791.17 56.1494 1791.37 56.0076C1791.58 55.8658 1791.83 55.7898 1792.08 55.7894C1792.4 55.7814 1792.72 55.9019 1792.96 56.1248C1793.19 56.3478 1793.33 56.655 1793.34 56.9794Z" fill="#D6A44D"/>
<path d="M1793.34 84.6904C1793.35 84.9421 1793.29 85.1922 1793.16 85.4084C1793.03 85.6246 1792.84 85.797 1792.61 85.9032C1792.38 86.0093 1792.13 86.0445 1791.88 86.0041C1791.63 85.9637 1791.4 85.8495 1791.22 85.6764C1791.03 85.5033 1790.91 85.2792 1790.85 85.0331C1790.8 84.787 1790.82 84.5301 1790.91 84.2958C1791 84.0614 1791.17 83.8604 1791.37 83.7186C1791.58 83.5768 1791.83 83.5008 1792.08 83.5004C1792.4 83.4923 1792.72 83.6129 1792.96 83.8358C1793.19 84.0587 1793.33 84.3659 1793.34 84.6904Z" fill="#D6A44D"/>
<path d="M1792.4 9.46094H1791.74V50.3709H1792.4V9.46094Z" fill="#D6A44D"/>
<path d="M1792.08 32.59C1793.65 32.59 1794.92 31.3946 1794.92 29.92C1794.92 28.4454 1793.65 27.25 1792.08 27.25C1790.51 27.25 1789.24 28.4454 1789.24 29.92C1789.24 31.3946 1790.51 32.59 1792.08 32.59Z" fill="#D6A44D"/>
<path d="M1793.34 16.0593C1793.36 16.3113 1793.3 16.5623 1793.17 16.7797C1793.04 16.9972 1792.85 17.1711 1792.62 17.2788C1792.39 17.3866 1792.14 17.4232 1791.89 17.384C1791.64 17.3448 1791.41 17.2316 1791.22 17.059C1791.04 16.8864 1790.91 16.6624 1790.85 16.416C1790.8 16.1697 1790.82 15.9124 1790.91 15.6774C1791 15.4425 1791.16 15.2408 1791.37 15.0985C1791.58 14.9562 1791.83 14.8798 1792.08 14.8793C1792.4 14.8712 1792.72 14.9903 1792.95 15.2111C1793.19 15.4319 1793.33 15.7366 1793.34 16.0593Z" fill="#D6A44D"/>
<path d="M1793.34 43.7702C1793.36 44.0222 1793.3 44.2732 1793.17 44.4907C1793.04 44.7081 1792.85 44.882 1792.62 44.9898C1792.39 45.0975 1792.14 45.1342 1791.89 45.095C1791.64 45.0558 1791.41 44.9425 1791.22 44.7699C1791.04 44.5973 1790.91 44.3733 1790.85 44.127C1790.8 43.8806 1790.82 43.6233 1790.91 43.3884C1791 43.1534 1791.16 42.9517 1791.37 42.8094C1791.58 42.6671 1791.83 42.5907 1792.08 42.5902C1792.4 42.5821 1792.72 42.7013 1792.95 42.9221C1793.19 43.1429 1793.33 43.4475 1793.34 43.7702Z" fill="#D6A44D"/>
<path d="M1792.4 -31.4609H1791.74V9.44906H1792.4V-31.4609Z" fill="#D6A44D"/>
<path d="M1793.34 2.84083C1793.33 3.16445 1793.19 3.47013 1792.95 3.69251C1792.72 3.91489 1792.4 4.03632 1792.08 4.03083C1791.76 4.03892 1791.44 3.91836 1791.21 3.69544C1790.97 3.47252 1790.83 3.16532 1790.82 2.84083C1790.83 2.68059 1790.86 2.52294 1790.93 2.3769C1790.99 2.23085 1791.09 2.09927 1791.21 1.98968C1791.32 1.88009 1791.46 1.79464 1791.61 1.73821C1791.76 1.68179 1791.92 1.65549 1792.08 1.66083C1792.4 1.65269 1792.72 1.77188 1792.95 1.99267C1793.19 2.21345 1793.33 2.5181 1793.34 2.84083Z" fill="#D6A44D"/>
<path d="M1820.64 167.839C1823.42 183.142 1820.37 198.932 1812.08 212.093C1803.79 225.254 1790.86 234.829 1775.86 238.928C1760.86 243.028 1744.86 241.355 1731.03 234.239C1717.2 227.123 1706.54 215.08 1701.15 200.489C1706.26 205.487 1712.35 209.37 1719.04 211.893C1725.73 214.416 1732.87 215.523 1740.01 215.144C1747.15 214.765 1754.13 212.91 1760.51 209.694C1766.9 206.478 1772.54 201.972 1777.1 196.462C1781.65 190.951 1785.01 184.556 1786.96 177.68C1788.92 170.804 1789.42 163.597 1788.45 156.515C1787.48 149.434 1785.04 142.631 1781.3 136.539C1777.56 130.446 1772.6 125.195 1766.73 121.119C1764.33 119.443 1761.78 117.98 1759.12 116.749C1773.75 116.664 1787.94 121.741 1799.19 131.086C1810.44 140.431 1818.04 153.445 1820.64 167.839Z" fill="url(#paint2_linear_120_73)"/>
<path d="M1759.36 235.39C1751.72 235.38 1744.15 233.82 1737.13 230.803C1730.11 227.786 1723.77 223.376 1718.5 217.84C1724.53 219.932 1730.87 220.997 1737.25 220.99C1748.17 221.005 1758.86 217.906 1768.08 212.055C1777.29 206.204 1784.65 197.845 1789.28 187.959C1793.91 178.074 1795.63 167.072 1794.23 156.245C1792.82 145.419 1788.36 135.218 1781.36 126.84C1793.38 131.909 1803.27 140.98 1809.37 152.515C1815.46 164.05 1817.37 177.337 1814.78 190.122C1812.19 202.906 1805.25 214.401 1795.15 222.654C1785.05 230.907 1772.4 235.41 1759.36 235.4V235.39Z" fill="url(#paint3_linear_120_73)"/>
<path d="M269.14 92.1094H268.76V116.819H269.14V92.1094Z" fill="#D6A44D"/>
<path d="M268.95 106.07C269.851 106.07 270.58 105.349 270.58 104.46C270.58 103.57 269.851 102.85 268.95 102.85C268.05 102.85 267.32 103.57 267.32 104.46C267.32 105.349 268.05 106.07 268.95 106.07Z" fill="#D6A44D"/>
<path d="M269.67 96.0913C269.678 96.279 269.613 96.4625 269.488 96.6026C269.362 96.7427 269.187 96.8284 269 96.8413C268.899 96.8532 268.797 96.8437 268.7 96.8132C268.603 96.7827 268.513 96.732 268.437 96.6645C268.361 96.5969 268.3 96.514 268.259 96.4213C268.217 96.3285 268.195 96.228 268.195 96.1263C268.195 96.0246 268.217 95.924 268.259 95.8312C268.3 95.7385 268.361 95.6556 268.437 95.588C268.513 95.5205 268.603 95.4698 268.7 95.4393C268.797 95.4089 268.899 95.3993 269 95.4113C269.176 95.421 269.343 95.4961 269.466 95.6218C269.59 95.7476 269.663 95.9149 269.67 96.0913Z" fill="#D6A44D"/>
<path d="M269.67 112.84C269.67 113.031 269.594 113.214 269.459 113.349C269.324 113.484 269.141 113.56 268.95 113.56C268.849 113.572 268.747 113.562 268.65 113.532C268.553 113.501 268.463 113.451 268.387 113.383C268.311 113.316 268.25 113.233 268.209 113.14C268.167 113.047 268.146 112.947 268.146 112.845C268.146 112.743 268.167 112.643 268.209 112.55C268.25 112.457 268.311 112.374 268.387 112.307C268.463 112.239 268.553 112.189 268.65 112.158C268.747 112.128 268.849 112.118 268.95 112.13C269.044 112.129 269.138 112.146 269.225 112.181C269.312 112.216 269.392 112.268 269.459 112.334C269.526 112.4 269.579 112.479 269.615 112.566C269.652 112.653 269.67 112.746 269.67 112.84Z" fill="#D6A44D"/>
<path d="M269.14 67.3906H268.76V92.1006H269.14V67.3906Z" fill="#D6A44D"/>
<path d="M268.95 81.3606C269.851 81.3606 270.58 80.6398 270.58 79.7506C270.58 78.8614 269.851 78.1406 268.95 78.1406C268.05 78.1406 267.32 78.8614 267.32 79.7506C267.32 80.6398 268.05 81.3606 268.95 81.3606Z" fill="#D6A44D"/>
<path d="M269.67 71.3791C269.67 71.57 269.594 71.7532 269.459 71.8882C269.324 72.0232 269.141 72.0991 268.95 72.0991C268.849 72.111 268.747 72.1015 268.65 72.071C268.553 72.0405 268.463 71.9898 268.387 71.9223C268.311 71.8547 268.25 71.7719 268.209 71.6791C268.167 71.5863 268.146 71.4858 268.146 71.3841C268.146 71.2824 268.167 71.1818 268.209 71.089C268.25 70.9963 268.311 70.9134 268.387 70.8458C268.463 70.7783 268.553 70.7276 268.65 70.6971C268.747 70.6667 268.849 70.6571 268.95 70.6691C269.044 70.6677 269.138 70.6851 269.225 70.7202C269.312 70.7553 269.392 70.8074 269.459 70.8734C269.526 70.9395 269.579 71.0182 269.615 71.105C269.652 71.1918 269.67 71.285 269.67 71.3791Z" fill="#D6A44D"/>
<path d="M269.67 88.1212C269.67 88.3039 269.602 88.4798 269.477 88.6135C269.353 88.7472 269.182 88.8286 269 88.8413C268.899 88.8532 268.797 88.8437 268.7 88.8132C268.603 88.7827 268.513 88.732 268.437 88.6645C268.361 88.5969 268.3 88.514 268.259 88.4213C268.217 88.3285 268.195 88.228 268.195 88.1263C268.195 88.0246 268.217 87.924 268.259 87.8312C268.3 87.7385 268.361 87.6556 268.437 87.588C268.513 87.5205 268.603 87.4698 268.7 87.4393C268.797 87.4089 268.899 87.3993 269 87.4113C269.181 87.4215 269.352 87.5008 269.476 87.6328C269.601 87.7649 269.67 87.9397 269.67 88.1212Z" fill="#D6A44D"/>
<path d="M269.14 42.6797H268.76V67.3897H269.14V42.6797Z" fill="#D6A44D"/>
<path d="M268.95 56.6497C269.851 56.6497 270.58 55.9289 270.58 55.0397C270.58 54.1505 269.851 53.4297 268.95 53.4297C268.05 53.4297 267.32 54.1505 267.32 55.0397C267.32 55.9289 268.05 56.6497 268.95 56.6497Z" fill="#D6A44D"/>
<path d="M269.67 46.6701C269.67 46.861 269.594 47.0442 269.459 47.1792C269.324 47.3142 269.141 47.3901 268.95 47.3901C268.849 47.402 268.747 47.3925 268.65 47.362C268.553 47.3315 268.463 47.2809 268.387 47.2133C268.311 47.1458 268.25 47.0629 268.209 46.9701C268.167 46.8773 268.146 46.7768 268.146 46.6751C268.146 46.5734 268.167 46.4728 268.209 46.3801C268.25 46.2873 268.311 46.2044 268.387 46.1368C268.463 46.0693 268.553 46.0186 268.65 45.9882C268.747 45.9577 268.849 45.9481 268.95 45.9601C269.044 45.9588 269.138 45.9761 269.225 46.0112C269.312 46.0463 269.392 46.0984 269.459 46.1645C269.526 46.2305 269.579 46.3092 269.615 46.396C269.652 46.4828 269.67 46.576 269.67 46.6701Z" fill="#D6A44D"/>
<path d="M269.67 63.4114C269.67 63.6024 269.594 63.7855 269.459 63.9205C269.324 64.0556 269.141 64.1314 268.95 64.1314C268.759 64.1314 268.576 64.0556 268.441 63.9205C268.306 63.7855 268.23 63.6024 268.23 63.4114C268.23 63.2205 268.306 63.0373 268.441 62.9023C268.576 62.7673 268.759 62.6914 268.95 62.6914C269.141 62.6914 269.324 62.7673 269.459 62.9023C269.594 63.0373 269.67 63.2205 269.67 63.4114Z" fill="#D6A44D"/>
<path d="M269.14 17.9688H268.76V42.6787H269.14V17.9688Z" fill="#D6A44D"/>
<path d="M268.95 31.9388C269.851 31.9388 270.58 31.2179 270.58 30.3288C270.58 29.4396 269.851 28.7188 268.95 28.7188C268.05 28.7188 267.32 29.4396 267.32 30.3288C267.32 31.2179 268.05 31.9388 268.95 31.9388Z" fill="#D6A44D"/>
<path d="M269.67 21.9591C269.67 22.1501 269.594 22.3332 269.459 22.4683C269.324 22.6033 269.141 22.6791 268.95 22.6791C268.849 22.6911 268.747 22.6815 268.65 22.6511C268.553 22.6206 268.463 22.5699 268.387 22.5024C268.311 22.4348 268.25 22.3519 268.209 22.2592C268.167 22.1664 268.146 22.0658 268.146 21.9641C268.146 21.8624 268.167 21.7619 268.209 21.6691C268.25 21.5764 268.311 21.4935 268.387 21.4259C268.463 21.3584 268.553 21.3077 268.65 21.2772C268.747 21.2467 268.849 21.2372 268.95 21.2491C269.044 21.2478 269.138 21.2652 269.225 21.3003C269.312 21.3354 269.392 21.3875 269.459 21.4535C269.526 21.5196 269.579 21.5983 269.615 21.6851C269.652 21.7719 269.67 21.8651 269.67 21.9591Z" fill="#D6A44D"/>
<path d="M269.67 38.7005C269.67 38.8914 269.594 39.0746 269.459 39.2096C269.324 39.3446 269.141 39.4205 268.95 39.4205C268.855 39.4205 268.762 39.4018 268.674 39.3657C268.587 39.3295 268.508 39.2764 268.441 39.2096C268.374 39.1427 268.321 39.0634 268.285 38.976C268.249 38.8886 268.23 38.795 268.23 38.7005C268.23 38.6059 268.249 38.5123 268.285 38.4249C268.321 38.3376 268.374 38.2582 268.441 38.1914C268.508 38.1245 268.587 38.0715 268.674 38.0353C268.762 37.9991 268.855 37.9805 268.95 37.9805C269.141 37.9805 269.324 38.0563 269.459 38.1914C269.594 38.3264 269.67 38.5095 269.67 38.7005Z" fill="#D6A44D"/>
<path d="M269.14 -6.74023H268.76V17.9698H269.14V-6.74023Z" fill="#D6A44D"/>
<path d="M268.95 7.22977C269.851 7.22977 270.58 6.50894 270.58 5.61977C270.58 4.73059 269.851 4.00977 268.95 4.00977C268.05 4.00977 267.32 4.73059 267.32 5.61977C267.32 6.50894 268.05 7.22977 268.95 7.22977Z" fill="#D6A44D"/>
<path d="M269.67 13.9898C269.67 14.0839 269.651 14.177 269.615 14.2638C269.579 14.3506 269.525 14.4293 269.458 14.4954C269.391 14.5614 269.312 14.6135 269.225 14.6486C269.137 14.6837 269.044 14.7011 268.95 14.6998C268.807 14.6998 268.667 14.6573 268.549 14.5777C268.43 14.4981 268.338 14.3851 268.284 14.2529C268.23 14.1208 268.216 13.9755 268.245 13.8356C268.273 13.6956 268.343 13.5674 268.444 13.4671C268.546 13.3668 268.675 13.299 268.816 13.2724C268.956 13.2458 269.101 13.2615 269.232 13.3175C269.364 13.3735 269.476 13.4674 269.553 13.5871C269.631 13.7068 269.672 13.847 269.67 13.9898Z" fill="#D6A44D"/>
<path d="M276.79 135.18L278.64 145.96L268.97 140.88L259.28 145.96L261.13 135.18L253.31 127.54L264.13 125.96L268.97 116.17L273.81 125.96L284.63 127.54L276.79 135.18Z" fill="url(#paint4_linear_120_73)"/>
<path d="M276.79 135.18L278.64 145.96L268.97 140.88V116.17L273.81 125.96L284.63 127.54L276.79 135.18Z" fill="url(#paint5_linear_120_73)"/>
<path d="M232.18 233.281H231.8V257.991H232.18V233.281Z" fill="#D6A44D"/>
<path d="M233.61 245.63C233.614 245.953 233.521 246.271 233.344 246.542C233.167 246.812 232.913 247.024 232.615 247.151C232.317 247.277 231.988 247.311 231.671 247.25C231.353 247.188 231.061 247.034 230.831 246.806C230.602 246.578 230.445 246.286 230.382 245.969C230.318 245.651 230.351 245.322 230.475 245.024C230.599 244.725 230.81 244.47 231.08 244.291C231.349 244.112 231.666 244.018 231.99 244.02C232.202 244.018 232.413 244.059 232.609 244.139C232.806 244.22 232.984 244.338 233.135 244.488C233.285 244.637 233.405 244.815 233.486 245.011C233.568 245.207 233.61 245.417 233.61 245.63Z" fill="#D6A44D"/>
<path d="M232.71 237.271C232.71 237.413 232.668 237.552 232.589 237.671C232.51 237.789 232.397 237.882 232.266 237.936C232.134 237.991 231.989 238.005 231.85 237.977C231.71 237.949 231.582 237.881 231.481 237.78C231.38 237.679 231.312 237.551 231.284 237.411C231.256 237.272 231.27 237.127 231.325 236.995C231.379 236.864 231.472 236.751 231.59 236.672C231.708 236.593 231.848 236.551 231.99 236.551C232.085 236.55 232.179 236.567 232.267 236.603C232.355 236.639 232.435 236.692 232.502 236.759C232.569 236.826 232.622 236.906 232.658 236.994C232.694 237.082 232.711 237.176 232.71 237.271Z" fill="#D6A44D"/>
<path d="M232.71 253.999C232.712 254.142 232.671 254.282 232.594 254.402C232.516 254.521 232.404 254.615 232.272 254.671C232.141 254.727 231.996 254.743 231.856 254.716C231.715 254.69 231.586 254.622 231.484 254.522C231.383 254.421 231.313 254.293 231.285 254.153C231.256 254.013 231.27 253.868 231.324 253.736C231.378 253.604 231.47 253.491 231.589 253.411C231.708 253.332 231.847 253.289 231.99 253.289C232.179 253.289 232.361 253.364 232.496 253.496C232.63 253.629 232.707 253.81 232.71 253.999Z" fill="#D6A44D"/>
<path d="M232.18 208.57H231.8V233.28H232.18V208.57Z" fill="#D6A44D"/>
<path d="M233.61 220.919C233.614 221.242 233.521 221.56 233.344 221.831C233.167 222.102 232.913 222.314 232.615 222.44C232.317 222.566 231.988 222.6 231.671 222.539C231.353 222.478 231.061 222.323 230.831 222.095C230.602 221.867 230.445 221.575 230.382 221.258C230.318 220.94 230.351 220.611 230.475 220.313C230.599 220.014 230.81 219.759 231.08 219.58C231.349 219.401 231.666 219.307 231.99 219.309C232.202 219.307 232.413 219.348 232.609 219.428C232.806 219.509 232.984 219.627 233.135 219.777C233.285 219.926 233.405 220.104 233.486 220.3C233.568 220.496 233.61 220.706 233.61 220.919Z" fill="#D6A44D"/>
<path d="M232.71 212.56C232.71 212.703 232.668 212.842 232.588 212.961C232.508 213.08 232.395 213.172 232.263 213.226C232.131 213.28 231.986 213.294 231.846 213.265C231.706 213.237 231.578 213.167 231.477 213.065C231.377 212.964 231.309 212.834 231.283 212.694C231.256 212.554 231.272 212.409 231.328 212.277C231.384 212.146 231.478 212.034 231.597 211.956C231.717 211.878 231.857 211.838 232 211.84C232.094 211.84 232.187 211.859 232.274 211.895C232.361 211.931 232.44 211.984 232.506 212.051C232.572 212.118 232.624 212.198 232.659 212.285C232.694 212.372 232.711 212.466 232.71 212.56Z" fill="#D6A44D"/>
<path d="M232.71 229.29C232.712 229.433 232.671 229.573 232.594 229.693C232.516 229.812 232.404 229.906 232.272 229.962C232.141 230.018 231.996 230.034 231.856 230.007C231.715 229.981 231.586 229.913 231.484 229.813C231.383 229.712 231.313 229.584 231.285 229.444C231.256 229.304 231.27 229.159 231.324 229.027C231.378 228.895 231.47 228.782 231.589 228.702C231.708 228.623 231.847 228.58 231.99 228.58C232.179 228.58 232.361 228.655 232.496 228.787C232.63 228.92 232.707 229.101 232.71 229.29Z" fill="#D6A44D"/>
<path d="M232.18 183.859H231.8V208.569H232.18V183.859Z" fill="#D6A44D"/>
<path d="M233.61 196.21C233.614 196.533 233.521 196.851 233.344 197.122C233.167 197.393 232.913 197.605 232.615 197.731C232.317 197.857 231.988 197.891 231.671 197.83C231.353 197.769 231.061 197.614 230.831 197.386C230.602 197.158 230.445 196.866 230.382 196.549C230.318 196.232 230.351 195.902 230.475 195.604C230.599 195.305 230.81 195.05 231.08 194.871C231.349 194.692 231.666 194.598 231.99 194.6C232.418 194.6 232.828 194.769 233.132 195.071C233.435 195.372 233.607 195.782 233.61 196.21Z" fill="#D6A44D"/>
<path d="M232.71 187.839C232.71 187.982 232.668 188.121 232.589 188.239C232.51 188.358 232.397 188.45 232.266 188.504C232.134 188.559 231.989 188.573 231.85 188.545C231.71 188.518 231.582 188.449 231.481 188.348C231.38 188.248 231.312 188.119 231.284 187.98C231.256 187.84 231.27 187.695 231.325 187.564C231.379 187.432 231.472 187.32 231.59 187.241C231.708 187.161 231.848 187.119 231.99 187.119C232.085 187.118 232.179 187.136 232.267 187.171C232.355 187.207 232.435 187.26 232.502 187.327C232.569 187.394 232.622 187.474 232.658 187.562C232.694 187.65 232.711 187.744 232.71 187.839Z" fill="#D6A44D"/>
<path d="M232.71 204.58C232.706 204.722 232.66 204.859 232.579 204.975C232.497 205.091 232.382 205.18 232.25 205.232C232.117 205.283 231.973 205.293 231.834 205.263C231.696 205.232 231.569 205.161 231.471 205.058C231.373 204.956 231.307 204.827 231.282 204.687C231.257 204.547 231.274 204.403 231.33 204.273C231.387 204.143 231.48 204.032 231.6 203.955C231.719 203.878 231.858 203.838 232 203.84C232.096 203.841 232.19 203.861 232.277 203.899C232.365 203.937 232.444 203.993 232.51 204.061C232.576 204.13 232.628 204.212 232.662 204.301C232.697 204.39 232.713 204.485 232.71 204.58Z" fill="#D6A44D"/>
<path d="M232.18 159.15H231.8V183.86H232.18V159.15Z" fill="#D6A44D"/>
<path d="M233.61 171.501C233.614 171.824 233.521 172.142 233.344 172.413C233.167 172.684 232.913 172.896 232.615 173.022C232.317 173.148 231.988 173.182 231.671 173.121C231.353 173.06 231.061 172.905 230.831 172.677C230.602 172.449 230.445 172.157 230.382 171.84C230.318 171.523 230.351 171.193 230.475 170.895C230.599 170.596 230.81 170.341 231.08 170.162C231.349 169.983 231.666 169.889 231.99 169.891C232.418 169.891 232.828 170.06 233.132 170.362C233.435 170.663 233.607 171.073 233.61 171.501Z" fill="#D6A44D"/>
<path d="M232.71 163.13C232.712 163.273 232.671 163.413 232.594 163.533C232.516 163.652 232.404 163.746 232.272 163.802C232.141 163.858 231.996 163.874 231.856 163.847C231.715 163.821 231.586 163.753 231.484 163.653C231.383 163.552 231.313 163.424 231.285 163.284C231.256 163.144 231.27 162.999 231.324 162.867C231.378 162.735 231.47 162.622 231.589 162.542C231.708 162.462 231.847 162.42 231.99 162.42C232.179 162.42 232.361 162.494 232.496 162.627C232.63 162.76 232.707 162.941 232.71 163.13Z" fill="#D6A44D"/>
<path d="M232.71 179.841C232.712 179.984 232.671 180.124 232.594 180.244C232.516 180.363 232.404 180.457 232.272 180.513C232.141 180.569 231.996 180.585 231.856 180.558C231.715 180.532 231.586 180.464 231.484 180.364C231.383 180.263 231.313 180.135 231.285 179.995C231.256 179.855 231.27 179.71 231.324 179.578C231.378 179.446 231.47 179.332 231.589 179.253C231.708 179.173 231.847 179.131 231.99 179.131C232.179 179.131 232.361 179.205 232.496 179.338C232.63 179.471 232.707 179.652 232.71 179.841Z" fill="#D6A44D"/>
<path d="M232.18 134.441H231.8V159.151H232.18V134.441Z" fill="#D6A44D"/>
<path d="M231.99 148.4C232.891 148.4 233.62 147.679 233.62 146.79C233.62 145.901 232.891 145.18 231.99 145.18C231.09 145.18 230.36 145.901 230.36 146.79C230.36 147.679 231.09 148.4 231.99 148.4Z" fill="#D6A44D"/>
<path d="M232.71 138.421C232.712 138.564 232.671 138.704 232.594 138.824C232.516 138.943 232.404 139.037 232.272 139.093C232.141 139.149 231.996 139.165 231.856 139.138C231.715 139.112 231.586 139.044 231.484 138.944C231.383 138.843 231.313 138.715 231.285 138.575C231.256 138.435 231.27 138.29 231.324 138.158C231.378 138.026 231.47 137.913 231.589 137.833C231.708 137.753 231.847 137.711 231.99 137.711C232.179 137.711 232.361 137.785 232.496 137.918C232.63 138.051 232.707 138.232 232.71 138.421Z" fill="#D6A44D"/>
<path d="M232.71 155.159C232.712 155.302 232.671 155.442 232.594 155.562C232.516 155.682 232.404 155.775 232.272 155.831C232.141 155.888 231.996 155.903 231.856 155.877C231.715 155.85 231.586 155.782 231.484 155.682C231.383 155.582 231.313 155.453 231.285 155.313C231.256 155.173 231.27 155.028 231.324 154.896C231.378 154.764 231.47 154.651 231.589 154.571C231.708 154.492 231.847 154.449 231.99 154.449C232.179 154.449 232.361 154.524 232.496 154.657C232.63 154.789 232.707 154.97 232.71 155.159Z" fill="#D6A44D"/>
<path d="M232.18 109.73H231.8V134.44H232.18V109.73Z" fill="#D6A44D"/>
<path d="M231.99 123.689C232.891 123.689 233.62 122.968 233.62 122.079C233.62 121.19 232.891 120.469 231.99 120.469C231.09 120.469 230.36 121.19 230.36 122.079C230.36 122.968 231.09 123.689 231.99 123.689Z" fill="#D6A44D"/>
<path d="M232.71 113.71C232.712 113.853 232.671 113.993 232.594 114.113C232.516 114.232 232.404 114.326 232.272 114.382C232.141 114.438 231.996 114.454 231.856 114.427C231.715 114.401 231.586 114.333 231.484 114.233C231.383 114.132 231.313 114.004 231.285 113.864C231.256 113.724 231.27 113.579 231.324 113.447C231.378 113.315 231.47 113.202 231.589 113.122C231.708 113.043 231.847 113 231.99 113C232.179 113 232.361 113.074 232.496 113.207C232.63 113.34 232.707 113.521 232.71 113.71Z" fill="#D6A44D"/>
<path d="M232.71 130.45C232.712 130.593 232.671 130.733 232.594 130.853C232.516 130.973 232.404 131.066 232.272 131.123C232.141 131.179 231.996 131.194 231.856 131.168C231.715 131.141 231.586 131.073 231.484 130.973C231.383 130.873 231.313 130.744 231.285 130.604C231.256 130.464 231.27 130.319 231.324 130.187C231.378 130.055 231.47 129.942 231.589 129.862C231.708 129.783 231.847 129.74 231.99 129.74C232.179 129.74 232.361 129.815 232.496 129.948C232.63 130.08 232.707 130.261 232.71 130.45Z" fill="#D6A44D"/>
<path d="M232.18 85.0098H231.8V109.72H232.18V85.0098Z" fill="#D6A44D"/>
<path d="M231.99 98.9798C232.891 98.9798 233.62 98.2589 233.62 97.3698C233.62 96.4806 232.891 95.7598 231.99 95.7598C231.09 95.7598 230.36 96.4806 230.36 97.3698C230.36 98.2589 231.09 98.9798 231.99 98.9798Z" fill="#D6A44D"/>
<path d="M232.71 88.9991C232.712 89.1419 232.671 89.2821 232.594 89.4018C232.516 89.5215 232.404 89.6153 232.272 89.6713C232.141 89.7274 231.996 89.7431 231.856 89.7164C231.715 89.6898 231.586 89.622 231.484 89.5217C231.383 89.4214 231.313 89.2932 231.285 89.1533C231.256 89.0133 231.27 88.868 231.324 88.7359C231.378 88.6037 231.47 88.4907 231.589 88.4111C231.708 88.3316 231.847 88.2891 231.99 88.2891C232.179 88.289 232.361 88.3635 232.496 88.4964C232.63 88.6293 232.707 88.8099 232.71 88.9991Z" fill="#D6A44D"/>
<path d="M232.71 105.741C232.712 105.884 232.671 106.024 232.594 106.144C232.516 106.264 232.404 106.357 232.272 106.414C232.141 106.47 231.996 106.485 231.856 106.459C231.715 106.432 231.586 106.364 231.484 106.264C231.383 106.164 231.313 106.035 231.285 105.895C231.256 105.755 231.27 105.61 231.324 105.478C231.378 105.346 231.47 105.233 231.589 105.153C231.708 105.074 231.847 105.031 231.99 105.031C232.179 105.031 232.361 105.106 232.496 105.239C232.63 105.371 232.707 105.552 232.71 105.741Z" fill="#D6A44D"/>
<path d="M232.18 60.3008H231.8V85.0108H232.18V60.3008Z" fill="#D6A44D"/>
<path d="M231.99 74.2708C232.891 74.2708 233.62 73.55 233.62 72.6608C233.62 71.7716 232.891 71.0508 231.99 71.0508C231.09 71.0508 230.36 71.7716 230.36 72.6608C230.36 73.55 231.09 74.2708 231.99 74.2708Z" fill="#D6A44D"/>
<path d="M232.71 64.2901C232.712 64.4329 232.671 64.5731 232.594 64.6928C232.516 64.8125 232.404 64.9063 232.272 64.9624C232.141 65.0184 231.996 65.0341 231.856 65.0074C231.715 64.9808 231.586 64.913 231.484 64.8127C231.383 64.7125 231.313 64.5842 231.285 64.4443C231.256 64.3043 231.27 64.1591 231.324 64.0269C231.378 63.8948 231.47 63.7817 231.589 63.7021C231.708 63.6226 231.847 63.5801 231.99 63.5801C232.179 63.5801 232.361 63.6545 232.496 63.7874C232.63 63.9203 232.707 64.1009 232.71 64.2901Z" fill="#D6A44D"/>
<path d="M232.71 81.0286C232.71 81.171 232.668 81.3102 232.589 81.4286C232.51 81.547 232.397 81.6393 232.266 81.6938C232.134 81.7483 231.989 81.7625 231.85 81.7348C231.71 81.707 231.582 81.6384 231.481 81.5377C231.38 81.437 231.312 81.3087 231.284 81.1691C231.256 81.0294 231.27 80.8846 231.325 80.7531C231.379 80.6215 231.472 80.509 231.59 80.4299C231.708 80.3508 231.848 80.3086 231.99 80.3086C232.181 80.3086 232.364 80.3845 232.499 80.5195C232.634 80.6545 232.71 80.8376 232.71 81.0286Z" fill="#D6A44D"/>
<path d="M232.18 35.5898H231.8V60.2999H232.18V35.5898Z" fill="#D6A44D"/>
<path d="M231.99 49.5598C232.891 49.5598 233.62 48.839 233.62 47.9498C233.62 47.0607 232.891 46.3398 231.99 46.3398C231.09 46.3398 230.36 47.0607 230.36 47.9498C230.36 48.839 231.09 49.5598 231.99 49.5598Z" fill="#D6A44D"/>
<path d="M232.71 39.5799C232.706 39.7218 232.66 39.8594 232.579 39.9753C232.497 40.0913 232.382 40.1804 232.25 40.2315C232.117 40.2827 231.973 40.2935 231.834 40.2627C231.696 40.2319 231.569 40.1608 231.471 40.0583C231.373 39.9559 231.307 39.8267 231.282 39.6869C231.257 39.5472 231.274 39.4032 231.33 39.273C231.387 39.1428 231.48 39.0322 231.6 38.9551C231.719 38.8781 231.858 38.838 232 38.8399C232.096 38.8412 232.19 38.8614 232.277 38.8995C232.365 38.9375 232.444 38.9925 232.51 39.0614C232.576 39.1302 232.628 39.2115 232.662 39.3005C232.697 39.3896 232.713 39.4845 232.71 39.5799Z" fill="#D6A44D"/>
<path d="M232.71 56.3196C232.71 56.462 232.668 56.6012 232.589 56.7196C232.51 56.838 232.397 56.9303 232.266 56.9848C232.134 57.0393 231.989 57.0536 231.85 57.0258C231.71 56.998 231.582 56.9294 231.481 56.8287C231.38 56.728 231.312 56.5997 231.284 56.4601C231.256 56.3204 231.27 56.1756 231.325 56.0441C231.379 55.9125 231.472 55.8001 231.59 55.721C231.708 55.6418 231.848 55.5996 231.99 55.5996C232.181 55.5996 232.364 55.6755 232.499 55.8105C232.634 55.9455 232.71 56.1287 232.71 56.3196Z" fill="#D6A44D"/>
<path d="M232.18 10.8809H231.8V35.5909H232.18V10.8809Z" fill="#D6A44D"/>
<path d="M231.99 24.8509C232.891 24.8509 233.62 24.13 233.62 23.2409C233.62 22.3517 232.891 21.6309 231.99 21.6309C231.09 21.6309 230.36 22.3517 230.36 23.2409C230.36 24.13 231.09 24.8509 231.99 24.8509Z" fill="#D6A44D"/>
<path d="M232.71 14.8409C232.712 14.9837 232.671 15.1238 232.594 15.2436C232.516 15.3633 232.404 15.4571 232.272 15.5131C232.141 15.5692 231.996 15.5849 231.856 15.5582C231.715 15.5316 231.586 15.4638 231.484 15.3635C231.383 15.2632 231.313 15.135 231.285 14.995C231.256 14.8551 231.27 14.7098 231.324 14.5777C231.378 14.4455 231.47 14.3325 231.589 14.2529C231.708 14.1734 231.847 14.1309 231.99 14.1309C232.179 14.1308 232.361 14.2053 232.496 14.3382C232.63 14.4711 232.707 14.6516 232.71 14.8409Z" fill="#D6A44D"/>
<path d="M232.71 31.6107C232.71 31.7531 232.668 31.8923 232.589 32.0107C232.51 32.1291 232.397 32.2214 232.266 32.2759C232.134 32.3304 231.989 32.3446 231.85 32.3169C231.71 32.2891 231.582 32.2205 231.481 32.1198C231.38 32.0191 231.312 31.8908 231.284 31.7512C231.256 31.6115 231.27 31.4667 231.325 31.3352C231.379 31.2036 231.472 31.0912 231.59 31.012C231.708 30.9329 231.848 30.8907 231.99 30.8907C232.085 30.8893 232.179 30.9071 232.267 30.9428C232.355 30.9785 232.435 31.0315 232.502 31.0986C232.569 31.1657 232.622 31.2456 232.658 31.3336C232.694 31.4215 232.711 31.5158 232.71 31.6107Z" fill="#D6A44D"/>
<path d="M232.18 -13.8301H231.8V10.8799H232.18V-13.8301Z" fill="#D6A44D"/>
<path d="M232.71 6.89976C232.71 7.04216 232.668 7.18137 232.589 7.29977C232.51 7.41817 232.397 7.51046 232.266 7.56495C232.134 7.61945 231.989 7.63371 231.85 7.60592C231.71 7.57814 231.582 7.50957 231.481 7.40888C231.38 7.30818 231.312 7.17989 231.284 7.04022C231.256 6.90056 231.27 6.75579 231.325 6.62423C231.379 6.49266 231.472 6.38022 231.59 6.3011C231.708 6.22199 231.848 6.17976 231.99 6.17976C232.085 6.17841 232.179 6.19612 232.267 6.23182C232.355 6.26753 232.435 6.32051 232.502 6.38764C232.569 6.45477 232.622 6.53468 232.658 6.62264C232.694 6.7106 232.711 6.80483 232.71 6.89976Z" fill="#D6A44D"/>
<path d="M239.83 276.35L241.69 287.13L232.01 282.05L222.32 287.13L224.17 276.35L216.35 268.71L227.17 267.14L232.01 257.34L236.85 267.14L247.67 268.71L239.83 276.35Z" fill="url(#paint6_linear_120_73)"/>
<path d="M239.83 276.35L241.69 287.13L232.01 282.05V257.34L236.85 267.14L247.67 268.71L239.83 276.35Z" fill="url(#paint7_linear_120_73)"/>
<path d="M1717.64 269.219H1717.17V299.889H1717.64V269.219Z" fill="#D6A44D"/>
<path d="M1719.42 284.559C1719.42 284.954 1719.3 285.341 1719.08 285.67C1718.86 285.999 1718.55 286.255 1718.19 286.406C1717.82 286.558 1717.42 286.597 1717.03 286.52C1716.64 286.443 1716.29 286.253 1716.01 285.973C1715.73 285.693 1715.54 285.337 1715.46 284.949C1715.38 284.561 1715.42 284.159 1715.57 283.793C1715.72 283.428 1715.98 283.115 1716.31 282.896C1716.64 282.676 1717.02 282.559 1717.42 282.559C1717.95 282.559 1718.46 282.769 1718.83 283.144C1719.21 283.519 1719.42 284.028 1719.42 284.559Z" fill="#D6A44D"/>
<path d="M1718.3 274.17C1718.28 274.392 1718.17 274.596 1718.01 274.745C1717.84 274.893 1717.63 274.976 1717.4 274.976C1717.18 274.976 1716.97 274.893 1716.8 274.745C1716.64 274.596 1716.53 274.392 1716.51 274.17C1716.53 273.949 1716.64 273.745 1716.8 273.596C1716.97 273.447 1717.18 273.365 1717.4 273.365C1717.63 273.365 1717.84 273.447 1718.01 273.596C1718.17 273.745 1718.28 273.949 1718.3 274.17Z" fill="#D6A44D"/>
<path d="M1718.3 294.949C1718.3 295.127 1718.25 295.302 1718.15 295.451C1718.06 295.601 1717.92 295.718 1717.75 295.787C1717.59 295.857 1717.41 295.876 1717.23 295.843C1717.06 295.809 1716.89 295.724 1716.77 295.599C1716.64 295.473 1716.55 295.313 1716.52 295.138C1716.48 294.963 1716.5 294.782 1716.57 294.617C1716.64 294.452 1716.75 294.31 1716.9 294.211C1717.05 294.112 1717.22 294.059 1717.4 294.059C1717.52 294.057 1717.63 294.079 1717.74 294.123C1717.85 294.168 1717.95 294.233 1718.04 294.316C1718.12 294.399 1718.19 294.497 1718.23 294.606C1718.28 294.714 1718.3 294.831 1718.3 294.949Z" fill="#D6A44D"/>
<path d="M1717.64 238.551H1717.17V269.221H1717.64V238.551Z" fill="#D6A44D"/>
<path d="M1719.42 253.891C1719.42 254.286 1719.3 254.673 1719.08 255.002C1718.86 255.331 1718.55 255.587 1718.19 255.738C1717.82 255.89 1717.42 255.929 1717.03 255.852C1716.64 255.775 1716.29 255.585 1716.01 255.305C1715.73 255.025 1715.54 254.669 1715.46 254.281C1715.38 253.893 1715.42 253.491 1715.57 253.125C1715.72 252.76 1715.98 252.447 1716.31 252.228C1716.64 252.008 1717.02 251.891 1717.42 251.891C1717.95 251.891 1718.46 252.101 1718.83 252.476C1719.21 252.851 1719.42 253.36 1719.42 253.891Z" fill="#D6A44D"/>
<path d="M1718.3 243.501C1718.28 243.722 1718.17 243.926 1718.01 244.075C1717.84 244.224 1717.63 244.306 1717.4 244.306C1717.18 244.306 1716.97 244.224 1716.8 244.075C1716.64 243.926 1716.53 243.722 1716.51 243.501C1716.53 243.28 1716.64 243.075 1716.8 242.926C1716.97 242.778 1717.18 242.695 1717.4 242.695C1717.63 242.695 1717.84 242.778 1718.01 242.926C1718.17 243.075 1718.28 243.28 1718.3 243.501Z" fill="#D6A44D"/>
<path d="M1718.3 264.281C1718.3 264.459 1718.25 264.634 1718.15 264.783C1718.06 264.933 1717.92 265.05 1717.75 265.119C1717.59 265.189 1717.41 265.208 1717.23 265.175C1717.06 265.141 1716.89 265.056 1716.77 264.931C1716.64 264.805 1716.55 264.645 1716.52 264.47C1716.48 264.295 1716.5 264.114 1716.57 263.949C1716.64 263.784 1716.75 263.642 1716.9 263.543C1717.05 263.444 1717.22 263.391 1717.4 263.391C1717.52 263.389 1717.63 263.411 1717.74 263.456C1717.85 263.5 1717.95 263.565 1718.04 263.648C1718.12 263.731 1718.19 263.829 1718.23 263.938C1718.28 264.046 1718.3 264.163 1718.3 264.281Z" fill="#D6A44D"/>
<path d="M1717.64 207.891H1717.17V238.561H1717.64V207.891Z" fill="#D6A44D"/>
<path d="M1717.4 225.219C1718.52 225.219 1719.42 224.323 1719.42 223.219C1719.42 222.114 1718.52 221.219 1717.4 221.219C1716.28 221.219 1715.38 222.114 1715.38 223.219C1715.38 224.323 1716.28 225.219 1717.4 225.219Z" fill="#D6A44D"/>
<path d="M1718.3 212.839C1718.3 213.018 1718.25 213.194 1718.16 213.344C1718.06 213.495 1717.92 213.613 1717.76 213.685C1717.59 213.756 1717.41 213.777 1717.24 213.744C1717.06 213.712 1716.9 213.628 1716.77 213.503C1716.64 213.378 1716.56 213.217 1716.52 213.042C1716.48 212.867 1716.5 212.685 1716.57 212.519C1716.63 212.354 1716.75 212.212 1716.9 212.112C1717.05 212.012 1717.22 211.959 1717.4 211.959C1717.52 211.958 1717.63 211.979 1717.74 212.023C1717.85 212.066 1717.95 212.131 1718.03 212.213C1718.12 212.294 1718.18 212.392 1718.23 212.499C1718.27 212.607 1718.3 212.722 1718.3 212.839Z" fill="#D6A44D"/>
<path d="M1718.3 233.611C1718.3 233.789 1718.25 233.964 1718.15 234.113C1718.06 234.263 1717.92 234.38 1717.75 234.449C1717.59 234.519 1717.41 234.538 1717.23 234.505C1717.06 234.471 1716.89 234.386 1716.77 234.261C1716.64 234.135 1716.55 233.975 1716.52 233.8C1716.48 233.625 1716.5 233.444 1716.57 233.279C1716.64 233.114 1716.75 232.972 1716.9 232.873C1717.05 232.774 1717.22 232.721 1717.4 232.721C1717.52 232.719 1717.63 232.741 1717.74 232.786C1717.85 232.83 1717.95 232.895 1718.04 232.978C1718.12 233.061 1718.19 233.159 1718.23 233.268C1718.28 233.376 1718.3 233.493 1718.3 233.611Z" fill="#D6A44D"/>
<path d="M1717.64 177.219H1717.17V207.889H1717.64V177.219Z" fill="#D6A44D"/>
<path d="M1717.4 194.551C1718.52 194.551 1719.42 193.655 1719.42 192.551C1719.42 191.446 1718.52 190.551 1717.4 190.551C1716.28 190.551 1715.38 191.446 1715.38 192.551C1715.38 193.655 1716.28 194.551 1717.4 194.551Z" fill="#D6A44D"/>
<path d="M1718.3 182.171C1718.3 182.35 1718.25 182.525 1718.15 182.674C1718.06 182.823 1717.92 182.94 1717.75 183.01C1717.59 183.08 1717.41 183.099 1717.23 183.065C1717.06 183.032 1716.89 182.947 1716.77 182.821C1716.64 182.696 1716.55 182.535 1716.52 182.361C1716.48 182.186 1716.5 182.004 1716.57 181.839C1716.64 181.674 1716.75 181.533 1716.9 181.434C1717.05 181.334 1717.22 181.281 1717.4 181.281C1717.52 181.28 1717.63 181.302 1717.74 181.346C1717.85 181.39 1717.95 181.456 1718.04 181.538C1718.12 181.621 1718.19 181.72 1718.23 181.828C1718.28 181.937 1718.3 182.054 1718.3 182.171Z" fill="#D6A44D"/>
<path d="M1718.3 202.941C1718.3 203.119 1718.25 203.294 1718.15 203.444C1718.06 203.593 1717.92 203.71 1717.75 203.779C1717.59 203.849 1717.41 203.868 1717.23 203.835C1717.06 203.801 1716.89 203.716 1716.77 203.591C1716.64 203.465 1716.55 203.305 1716.52 203.13C1716.48 202.955 1716.5 202.774 1716.57 202.609C1716.64 202.444 1716.75 202.303 1716.9 202.203C1717.05 202.104 1717.22 202.051 1717.4 202.051C1717.52 202.05 1717.63 202.072 1717.74 202.116C1717.85 202.16 1717.95 202.225 1718.04 202.308C1718.12 202.391 1718.19 202.489 1718.23 202.598C1718.28 202.707 1718.3 202.823 1718.3 202.941Z" fill="#D6A44D"/>
<path d="M1717.64 146.551H1717.17V177.221H1717.64V146.551Z" fill="#D6A44D"/>
<path d="M1717.4 163.881C1718.52 163.881 1719.42 162.985 1719.42 161.881C1719.42 160.776 1718.52 159.881 1717.4 159.881C1716.28 159.881 1715.38 160.776 1715.38 161.881C1715.38 162.985 1716.28 163.881 1717.4 163.881Z" fill="#D6A44D"/>
<path d="M1718.3 151.499C1718.3 151.678 1718.25 151.853 1718.15 152.002C1718.06 152.151 1717.92 152.268 1717.75 152.338C1717.59 152.408 1717.41 152.427 1717.23 152.393C1717.06 152.36 1716.89 152.275 1716.77 152.149C1716.64 152.024 1716.55 151.864 1716.52 151.689C1716.48 151.514 1716.5 151.332 1716.57 151.167C1716.64 151.002 1716.75 150.861 1716.9 150.762C1717.05 150.662 1717.22 150.609 1717.4 150.609C1717.52 150.608 1717.63 150.63 1717.74 150.674C1717.85 150.718 1717.95 150.784 1718.04 150.867C1718.12 150.949 1718.19 151.048 1718.23 151.157C1718.28 151.265 1718.3 151.382 1718.3 151.499Z" fill="#D6A44D"/>
<path d="M1718.3 172.271C1718.3 172.449 1718.25 172.624 1718.15 172.774C1718.06 172.923 1717.92 173.04 1717.75 173.11C1717.59 173.179 1717.41 173.198 1717.23 173.165C1717.06 173.131 1716.89 173.046 1716.77 172.921C1716.64 172.795 1716.55 172.635 1716.52 172.46C1716.48 172.285 1716.5 172.104 1716.57 171.939C1716.64 171.774 1716.75 171.633 1716.9 171.533C1717.05 171.434 1717.22 171.381 1717.4 171.381C1717.52 171.38 1717.63 171.402 1717.74 171.446C1717.85 171.49 1717.95 171.555 1718.04 171.638C1718.12 171.721 1718.19 171.819 1718.23 171.928C1718.28 172.037 1718.3 172.153 1718.3 172.271Z" fill="#D6A44D"/>
<path d="M1717.64 115.881H1717.17V146.551H1717.64V115.881Z" fill="#D6A44D"/>
<path d="M1717.4 133.211C1718.52 133.211 1719.42 132.316 1719.42 131.211C1719.42 130.106 1718.52 129.211 1717.4 129.211C1716.28 129.211 1715.38 130.106 1715.38 131.211C1715.38 132.316 1716.28 133.211 1717.4 133.211Z" fill="#D6A44D"/>
<path d="M1718.3 120.839C1718.3 121.018 1718.25 121.193 1718.15 121.342C1718.06 121.491 1717.92 121.608 1717.75 121.678C1717.59 121.748 1717.41 121.767 1717.23 121.733C1717.06 121.7 1716.89 121.615 1716.77 121.489C1716.64 121.364 1716.55 121.203 1716.52 121.029C1716.48 120.854 1716.5 120.672 1716.57 120.507C1716.64 120.342 1716.75 120.201 1716.9 120.102C1717.05 120.002 1717.22 119.949 1717.4 119.949C1717.52 119.948 1717.63 119.97 1717.74 120.014C1717.85 120.058 1717.95 120.124 1718.04 120.206C1718.12 120.289 1718.19 120.388 1718.23 120.496C1718.28 120.605 1718.3 120.722 1718.3 120.839Z" fill="#D6A44D"/>
<path d="M1718.3 141.599C1718.3 141.777 1718.25 141.952 1718.15 142.102C1718.06 142.251 1717.92 142.368 1717.75 142.438C1717.59 142.507 1717.41 142.527 1717.23 142.493C1717.06 142.459 1716.89 142.374 1716.77 142.249C1716.64 142.124 1716.55 141.963 1716.52 141.788C1716.48 141.613 1716.5 141.432 1716.57 141.267C1716.64 141.102 1716.75 140.961 1716.9 140.861C1717.05 140.762 1717.22 140.709 1717.4 140.709C1717.52 140.708 1717.63 140.73 1717.74 140.774C1717.85 140.818 1717.95 140.883 1718.04 140.966C1718.12 141.049 1718.19 141.147 1718.23 141.256C1718.28 141.365 1718.3 141.481 1718.3 141.599Z" fill="#D6A44D"/>
<path d="M1717.64 85.2109H1717.17V115.881H1717.64V85.2109Z" fill="#D6A44D"/>
<path d="M1717.4 102.539C1718.52 102.539 1719.42 101.644 1719.42 100.539C1719.42 99.4345 1718.52 98.5391 1717.4 98.5391C1716.28 98.5391 1715.38 99.4345 1715.38 100.539C1715.38 101.644 1716.28 102.539 1717.4 102.539Z" fill="#D6A44D"/>
<path d="M1718.3 90.1596C1718.3 90.338 1718.25 90.513 1718.15 90.6623C1718.06 90.8116 1717.92 90.9285 1717.75 90.9982C1717.59 91.0678 1717.41 91.0871 1717.23 91.0535C1717.06 91.0199 1716.89 90.935 1716.77 90.8095C1716.64 90.6841 1716.55 90.5237 1716.52 90.3489C1716.48 90.174 1716.5 89.9926 1716.57 89.8275C1716.64 89.6625 1716.75 89.5213 1716.9 89.422C1717.05 89.3226 1717.22 89.2696 1717.4 89.2696C1717.52 89.2683 1717.63 89.2903 1717.74 89.3344C1717.85 89.3786 1717.95 89.4439 1718.04 89.5267C1718.12 89.6095 1718.19 89.708 1718.23 89.8167C1718.28 89.9253 1718.3 90.0419 1718.3 90.1596Z" fill="#D6A44D"/>
<path d="M1718.3 110.929C1718.3 111.108 1718.25 111.283 1718.15 111.432C1718.06 111.581 1717.92 111.698 1717.75 111.768C1717.59 111.837 1717.41 111.857 1717.23 111.823C1717.06 111.789 1716.89 111.705 1716.77 111.579C1716.64 111.454 1716.55 111.293 1716.52 111.118C1716.48 110.944 1716.5 110.762 1716.57 110.597C1716.64 110.432 1716.75 110.291 1716.9 110.192C1717.05 110.092 1717.22 110.039 1717.4 110.039C1717.52 110.038 1717.63 110.06 1717.74 110.104C1717.85 110.148 1717.95 110.213 1718.04 110.296C1718.12 110.379 1718.19 110.478 1718.23 110.586C1718.28 110.695 1718.3 110.811 1718.3 110.929Z" fill="#D6A44D"/>
<path d="M1717.64 54.5391H1717.17V85.2091H1717.64V54.5391Z" fill="#D6A44D"/>
<path d="M1717.4 71.8691C1718.52 71.8691 1719.42 70.9737 1719.42 69.8691C1719.42 68.7646 1718.52 67.8691 1717.4 67.8691C1716.28 67.8691 1715.38 68.7646 1715.38 69.8691C1715.38 70.9737 1716.28 71.8691 1717.4 71.8691Z" fill="#D6A44D"/>
<path d="M1718.3 59.4897C1718.3 59.6681 1718.25 59.8431 1718.15 59.9924C1718.06 60.1417 1717.92 60.2586 1717.75 60.3283C1717.59 60.3979 1717.41 60.4172 1717.23 60.3836C1717.06 60.35 1716.89 60.2651 1716.77 60.1396C1716.64 60.0141 1716.55 59.8538 1716.52 59.679C1716.48 59.5041 1716.5 59.3226 1716.57 59.1576C1716.64 58.9926 1716.75 58.8514 1716.9 58.7521C1717.05 58.6527 1717.22 58.5997 1717.4 58.5997C1717.52 58.5983 1717.63 58.6204 1717.74 58.6645C1717.85 58.7087 1717.95 58.774 1718.04 58.8568C1718.12 58.9396 1718.19 59.0381 1718.23 59.1468C1718.28 59.2554 1718.3 59.3719 1718.3 59.4897Z" fill="#D6A44D"/>
<path d="M1718.3 80.2592C1718.3 80.4376 1718.25 80.6126 1718.15 80.7619C1718.06 80.9112 1717.92 81.0281 1717.75 81.0978C1717.59 81.1674 1717.41 81.1867 1717.23 81.1531C1717.06 81.1195 1716.89 81.0346 1716.77 80.9091C1716.64 80.7837 1716.55 80.6233 1716.52 80.4485C1716.48 80.2736 1716.5 80.0922 1716.57 79.9271C1716.64 79.7621 1716.75 79.6209 1716.9 79.5216C1717.05 79.4223 1717.22 79.3692 1717.4 79.3692C1717.52 79.3679 1717.63 79.3899 1717.74 79.4341C1717.85 79.4782 1717.95 79.5435 1718.04 79.6263C1718.12 79.7091 1718.19 79.8076 1718.23 79.9163C1718.28 80.0249 1718.3 80.1415 1718.3 80.2592Z" fill="#D6A44D"/>
<path d="M1717.64 23.8691H1717.17V54.5391H1717.64V23.8691Z" fill="#D6A44D"/>
<path d="M1717.4 41.1992C1718.52 41.1992 1719.42 40.3038 1719.42 39.1992C1719.42 38.0946 1718.52 37.1992 1717.4 37.1992C1716.28 37.1992 1715.38 38.0946 1715.38 39.1992C1715.38 40.3038 1716.28 41.1992 1717.4 41.1992Z" fill="#D6A44D"/>
<path d="M1718.3 28.8393C1718.3 29.0177 1718.25 29.1927 1718.15 29.342C1718.06 29.4913 1717.92 29.6082 1717.75 29.6779C1717.59 29.7475 1717.41 29.7668 1717.23 29.7332C1717.06 29.6996 1716.89 29.6147 1716.77 29.4892C1716.64 29.3638 1716.55 29.2034 1716.52 29.0286C1716.48 28.8537 1716.5 28.6722 1716.57 28.5072C1716.64 28.3422 1716.75 28.201 1716.9 28.1017C1717.05 28.0023 1717.22 27.9493 1717.4 27.9493C1717.52 27.948 1717.63 27.97 1717.74 28.0141C1717.85 28.0583 1717.95 28.1236 1718.04 28.2064C1718.12 28.2892 1718.19 28.3877 1718.23 28.4964C1718.28 28.605 1718.3 28.7216 1718.3 28.8393Z" fill="#D6A44D"/>
<path d="M1718.3 49.5893C1718.3 49.7677 1718.25 49.9427 1718.15 50.092C1718.06 50.2413 1717.92 50.3582 1717.75 50.4279C1717.59 50.4975 1717.41 50.5168 1717.23 50.4832C1717.06 50.4496 1716.89 50.3647 1716.77 50.2392C1716.64 50.1138 1716.55 49.9534 1716.52 49.7786C1716.48 49.6037 1716.5 49.4222 1716.57 49.2572C1716.64 49.0922 1716.75 48.951 1716.9 48.8517C1717.05 48.7523 1717.22 48.6993 1717.4 48.6993C1717.52 48.698 1717.63 48.72 1717.74 48.7641C1717.85 48.8083 1717.95 48.8736 1718.04 48.9564C1718.12 49.0392 1718.19 49.1377 1718.23 49.2464C1718.28 49.355 1718.3 49.4716 1718.3 49.5893Z" fill="#D6A44D"/>
<path d="M1717.64 -6.80078H1717.17V23.8692H1717.64V-6.80078Z" fill="#D6A44D"/>
<path d="M1717.4 10.5312C1718.52 10.5312 1719.42 9.63582 1719.42 8.53125C1719.42 7.42668 1718.52 6.53125 1717.4 6.53125C1716.28 6.53125 1715.38 7.42668 1715.38 8.53125C1715.38 9.63582 1716.28 10.5312 1717.4 10.5312Z" fill="#D6A44D"/>
<path d="M1718.3 18.9213C1718.3 19.0997 1718.25 19.2747 1718.15 19.424C1718.06 19.5733 1717.92 19.6902 1717.75 19.7599C1717.59 19.8295 1717.41 19.8488 1717.23 19.8152C1717.06 19.7816 1716.89 19.6967 1716.77 19.5712C1716.64 19.4458 1716.55 19.2854 1716.52 19.1106C1716.48 18.9357 1716.5 18.7543 1716.57 18.5892C1716.64 18.4242 1716.75 18.283 1716.9 18.1837C1717.05 18.0844 1717.22 18.0313 1717.4 18.0313C1717.52 18.03 1717.63 18.052 1717.74 18.0962C1717.85 18.1403 1717.95 18.2056 1718.04 18.2884C1718.12 18.3712 1718.19 18.4698 1718.23 18.5784C1718.28 18.687 1718.3 18.8036 1718.3 18.9213Z" fill="#D6A44D"/>
<path d="M1727.14 322.69L1729.44 336.06L1717.43 329.76L1705.4 336.06L1707.7 322.69L1697.99 313.21L1711.43 311.25L1717.43 299.09L1723.44 311.25L1736.87 313.21L1727.14 322.69Z" fill="url(#paint8_linear_120_73)"/>
<path d="M1727.14 322.69L1729.44 336.06L1717.43 329.76V299.09L1723.44 311.25L1736.87 313.21L1727.14 322.69Z" fill="url(#paint9_linear_120_73)"/>
<path d="M1844.95 221.719H1844.48V252.389H1844.95V221.719Z" fill="#D6A44D"/>
<path d="M1846.73 237.059C1846.73 237.454 1846.61 237.841 1846.39 238.17C1846.17 238.499 1845.86 238.755 1845.5 238.906C1845.13 239.058 1844.73 239.097 1844.34 239.02C1843.95 238.943 1843.6 238.753 1843.32 238.473C1843.04 238.193 1842.85 237.837 1842.77 237.449C1842.69 237.061 1842.73 236.659 1842.88 236.293C1843.03 235.928 1843.29 235.615 1843.62 235.396C1843.95 235.176 1844.33 235.059 1844.73 235.059C1845.26 235.059 1845.77 235.269 1846.14 235.644C1846.52 236.019 1846.73 236.528 1846.73 237.059Z" fill="#D6A44D"/>
<path d="M1845.61 226.671C1845.61 226.85 1845.56 227.025 1845.46 227.174C1845.37 227.323 1845.23 227.44 1845.06 227.51C1844.9 227.58 1844.72 227.599 1844.54 227.565C1844.37 227.532 1844.2 227.447 1844.08 227.321C1843.95 227.196 1843.86 227.035 1843.83 226.861C1843.79 226.686 1843.81 226.504 1843.88 226.339C1843.95 226.174 1844.06 226.033 1844.21 225.934C1844.36 225.834 1844.53 225.781 1844.71 225.781C1844.83 225.78 1844.95 225.802 1845.05 225.846C1845.16 225.89 1845.26 225.956 1845.35 226.038C1845.43 226.121 1845.5 226.22 1845.54 226.328C1845.59 226.437 1845.61 226.554 1845.61 226.671Z" fill="#D6A44D"/>
<path d="M1845.61 247.44C1845.59 247.661 1845.48 247.866 1845.32 248.014C1845.15 248.163 1844.94 248.245 1844.72 248.245C1844.49 248.245 1844.28 248.163 1844.11 248.014C1843.95 247.866 1843.84 247.661 1843.82 247.44C1843.84 247.219 1843.95 247.014 1844.11 246.866C1844.28 246.717 1844.49 246.635 1844.72 246.635C1844.94 246.635 1845.15 246.717 1845.32 246.866C1845.48 247.014 1845.59 247.219 1845.61 247.44Z" fill="#D6A44D"/>
<path d="M1844.95 191.051H1844.48V221.721H1844.95V191.051Z" fill="#D6A44D"/>
<path d="M1846.73 206.391C1846.73 206.786 1846.61 207.173 1846.39 207.502C1846.17 207.831 1845.86 208.087 1845.5 208.238C1845.13 208.39 1844.73 208.429 1844.34 208.352C1843.95 208.275 1843.6 208.085 1843.32 207.805C1843.04 207.525 1842.85 207.169 1842.77 206.781C1842.69 206.393 1842.73 205.991 1842.88 205.625C1843.03 205.26 1843.29 204.947 1843.62 204.728C1843.95 204.508 1844.33 204.391 1844.73 204.391C1845.26 204.391 1845.77 204.601 1846.14 204.976C1846.52 205.351 1846.73 205.86 1846.73 206.391Z" fill="#D6A44D"/>
<path d="M1845.61 195.999C1845.61 196.178 1845.56 196.353 1845.46 196.502C1845.37 196.651 1845.23 196.768 1845.06 196.838C1844.9 196.908 1844.72 196.927 1844.54 196.893C1844.37 196.86 1844.2 196.775 1844.08 196.649C1843.95 196.524 1843.86 196.364 1843.83 196.189C1843.79 196.014 1843.81 195.832 1843.88 195.667C1843.95 195.502 1844.06 195.361 1844.21 195.262C1844.36 195.162 1844.53 195.109 1844.71 195.109C1844.83 195.108 1844.95 195.13 1845.05 195.174C1845.16 195.218 1845.26 195.284 1845.35 195.367C1845.43 195.449 1845.5 195.548 1845.54 195.657C1845.59 195.765 1845.61 195.882 1845.61 195.999Z" fill="#D6A44D"/>
<path d="M1845.61 216.77C1845.59 216.991 1845.48 217.196 1845.32 217.344C1845.15 217.493 1844.94 217.575 1844.72 217.575C1844.49 217.575 1844.28 217.493 1844.11 217.344C1843.95 217.196 1843.84 216.991 1843.82 216.77C1843.84 216.549 1843.95 216.344 1844.11 216.196C1844.28 216.047 1844.49 215.965 1844.72 215.965C1844.94 215.965 1845.15 216.047 1845.32 216.196C1845.48 216.344 1845.59 216.549 1845.61 216.77Z" fill="#D6A44D"/>
<path d="M1844.95 160.381H1844.48V191.051H1844.95V160.381Z" fill="#D6A44D"/>
<path d="M1844.71 177.719C1845.83 177.719 1846.73 176.823 1846.73 175.719C1846.73 174.614 1845.83 173.719 1844.71 173.719C1843.59 173.719 1842.69 174.614 1842.69 175.719C1842.69 176.823 1843.59 177.719 1844.71 177.719Z" fill="#D6A44D"/>
<path d="M1845.61 165.33C1845.61 165.508 1845.56 165.683 1845.46 165.832C1845.37 165.982 1845.23 166.098 1845.06 166.168C1844.9 166.238 1844.72 166.257 1844.54 166.223C1844.37 166.19 1844.2 166.105 1844.08 165.979C1843.95 165.854 1843.86 165.694 1843.83 165.519C1843.79 165.344 1843.81 165.162 1843.88 164.997C1843.95 164.832 1844.06 164.691 1844.21 164.592C1844.36 164.493 1844.53 164.44 1844.71 164.44C1844.83 164.438 1844.95 164.46 1845.05 164.504C1845.16 164.548 1845.26 164.614 1845.35 164.697C1845.43 164.779 1845.5 164.878 1845.54 164.987C1845.59 165.095 1845.61 165.212 1845.61 165.33Z" fill="#D6A44D"/>
<path d="M1845.61 186.101C1845.61 186.28 1845.56 186.455 1845.47 186.606C1845.37 186.757 1845.23 186.875 1845.07 186.946C1844.9 187.018 1844.72 187.038 1844.55 187.006C1844.37 186.973 1844.21 186.889 1844.08 186.764C1843.95 186.639 1843.87 186.479 1843.83 186.304C1843.79 186.129 1843.81 185.947 1843.88 185.781C1843.94 185.616 1844.06 185.474 1844.21 185.374C1844.36 185.274 1844.53 185.221 1844.71 185.221C1844.83 185.219 1844.94 185.241 1845.05 185.285C1845.16 185.328 1845.26 185.393 1845.34 185.474C1845.43 185.556 1845.49 185.653 1845.54 185.761C1845.58 185.868 1845.61 185.984 1845.61 186.101Z" fill="#D6A44D"/>
<path d="M1844.95 129.711H1844.48V160.381H1844.95V129.711Z" fill="#D6A44D"/>
<path d="M1844.71 147.051C1845.83 147.051 1846.73 146.155 1846.73 145.051C1846.73 143.946 1845.83 143.051 1844.71 143.051C1843.59 143.051 1842.69 143.946 1842.69 145.051C1842.69 146.155 1843.59 147.051 1844.71 147.051Z" fill="#D6A44D"/>
<path d="M1845.61 134.66C1845.61 134.838 1845.56 135.013 1845.46 135.162C1845.37 135.312 1845.23 135.429 1845.06 135.498C1844.9 135.568 1844.72 135.587 1844.54 135.554C1844.37 135.52 1844.2 135.435 1844.08 135.31C1843.95 135.184 1843.86 135.024 1843.83 134.849C1843.79 134.674 1843.81 134.493 1843.88 134.328C1843.95 134.162 1844.06 134.021 1844.21 133.922C1844.36 133.823 1844.53 133.77 1844.71 133.77C1844.83 133.768 1844.95 133.79 1845.05 133.834C1845.16 133.879 1845.26 133.944 1845.35 134.027C1845.43 134.109 1845.5 134.208 1845.54 134.317C1845.59 134.425 1845.61 134.542 1845.61 134.66Z" fill="#D6A44D"/>
<path d="M1845.61 155.441C1845.61 155.619 1845.56 155.794 1845.46 155.944C1845.37 156.093 1845.23 156.21 1845.06 156.279C1844.9 156.349 1844.72 156.368 1844.54 156.335C1844.37 156.301 1844.2 156.216 1844.08 156.091C1843.95 155.965 1843.86 155.805 1843.83 155.63C1843.79 155.455 1843.81 155.274 1843.88 155.109C1843.95 154.944 1844.06 154.803 1844.21 154.703C1844.36 154.604 1844.53 154.551 1844.71 154.551C1844.83 154.55 1844.95 154.572 1845.05 154.616C1845.16 154.66 1845.26 154.725 1845.35 154.808C1845.43 154.891 1845.5 154.989 1845.54 155.098C1845.59 155.207 1845.61 155.323 1845.61 155.441Z" fill="#D6A44D"/>
<path d="M1844.95 99.0391H1844.48V129.709H1844.95V99.0391Z" fill="#D6A44D"/>
<path d="M1844.71 116.381C1845.83 116.381 1846.73 115.485 1846.73 114.381C1846.73 113.276 1845.83 112.381 1844.71 112.381C1843.59 112.381 1842.69 113.276 1842.69 114.381C1842.69 115.485 1843.59 116.381 1844.71 116.381Z" fill="#D6A44D"/>
<path d="M1845.61 103.99C1845.61 104.168 1845.56 104.343 1845.46 104.492C1845.37 104.642 1845.23 104.759 1845.06 104.828C1844.9 104.898 1844.72 104.917 1844.54 104.884C1844.37 104.85 1844.2 104.765 1844.08 104.64C1843.95 104.514 1843.86 104.354 1843.83 104.179C1843.79 104.004 1843.81 103.823 1843.88 103.658C1843.95 103.493 1844.06 103.351 1844.21 103.252C1844.36 103.153 1844.53 103.1 1844.71 103.1C1844.83 103.098 1844.95 103.12 1845.05 103.165C1845.16 103.209 1845.26 103.274 1845.35 103.357C1845.43 103.44 1845.5 103.538 1845.54 103.647C1845.59 103.755 1845.61 103.872 1845.61 103.99Z" fill="#D6A44D"/>
<path d="M1845.61 124.771C1845.61 124.949 1845.56 125.124 1845.46 125.274C1845.37 125.423 1845.23 125.54 1845.06 125.609C1844.9 125.679 1844.72 125.698 1844.54 125.665C1844.37 125.631 1844.2 125.546 1844.08 125.421C1843.95 125.295 1843.86 125.135 1843.83 124.96C1843.79 124.785 1843.81 124.604 1843.88 124.439C1843.95 124.274 1844.06 124.133 1844.21 124.033C1844.36 123.934 1844.53 123.881 1844.71 123.881C1844.83 123.88 1844.95 123.902 1845.05 123.946C1845.16 123.99 1845.26 124.055 1845.35 124.138C1845.43 124.221 1845.5 124.319 1845.54 124.428C1845.59 124.537 1845.61 124.653 1845.61 124.771Z" fill="#D6A44D"/>
<path d="M1844.95 68.3691H1844.48V99.0391H1844.95V68.3691Z" fill="#D6A44D"/>
<path d="M1844.71 85.7109C1845.83 85.7109 1846.73 84.8155 1846.73 83.7109C1846.73 82.6064 1845.83 81.7109 1844.71 81.7109C1843.59 81.7109 1842.69 82.6064 1842.69 83.7109C1842.69 84.8155 1843.59 85.7109 1844.71 85.7109Z" fill="#D6A44D"/>
<path d="M1845.61 73.3198C1845.61 73.4982 1845.56 73.6731 1845.46 73.8225C1845.37 73.9718 1845.23 74.0887 1845.06 74.1583C1844.9 74.228 1844.72 74.2472 1844.54 74.2137C1844.37 74.1801 1844.2 74.0952 1844.08 73.9697C1843.95 73.8442 1843.86 73.6839 1843.83 73.509C1843.79 73.3342 1843.81 73.1527 1843.88 72.9877C1843.95 72.8226 1844.06 72.6815 1844.21 72.5821C1844.36 72.4828 1844.53 72.4298 1844.71 72.4297C1844.83 72.4284 1844.95 72.4505 1845.05 72.4946C1845.16 72.5387 1845.26 72.6041 1845.35 72.6869C1845.43 72.7696 1845.5 72.8682 1845.54 72.9768C1845.59 73.0855 1845.61 73.202 1845.61 73.3198Z" fill="#D6A44D"/>
<path d="M1845.61 94.099C1845.61 94.2775 1845.56 94.4524 1845.46 94.6017C1845.37 94.7511 1845.23 94.868 1845.06 94.9376C1844.9 95.0073 1844.72 95.0265 1844.54 94.9929C1844.37 94.9594 1844.2 94.8744 1844.08 94.749C1843.95 94.6235 1843.86 94.4632 1843.83 94.2883C1843.79 94.1135 1843.81 93.932 1843.88 93.767C1843.95 93.6019 1844.06 93.4608 1844.21 93.3614C1844.36 93.2621 1844.53 93.2091 1844.71 93.209C1844.83 93.2077 1844.95 93.2298 1845.05 93.2739C1845.16 93.318 1845.26 93.3834 1845.35 93.4662C1845.43 93.5489 1845.5 93.6475 1845.54 93.7561C1845.59 93.8648 1845.61 93.9813 1845.61 94.099Z" fill="#D6A44D"/>
<path d="M1844.95 37.6992H1844.48V68.3692H1844.95V37.6992Z" fill="#D6A44D"/>
<path d="M1844.71 55.0391C1845.83 55.0391 1846.73 54.1436 1846.73 53.0391C1846.73 51.9345 1845.83 51.0391 1844.71 51.0391C1843.59 51.0391 1842.69 51.9345 1842.69 53.0391C1842.69 54.1436 1843.59 55.0391 1844.71 55.0391Z" fill="#D6A44D"/>
<path d="M1845.61 42.6498C1845.61 42.8282 1845.56 43.0032 1845.46 43.1525C1845.37 43.3018 1845.23 43.4188 1845.06 43.4884C1844.9 43.5581 1844.72 43.5773 1844.54 43.5437C1844.37 43.5101 1844.2 43.4252 1844.08 43.2998C1843.95 43.1743 1843.86 43.014 1843.83 42.8391C1843.79 42.6643 1843.81 42.4828 1843.88 42.3178C1843.95 42.1527 1844.06 42.0116 1844.21 41.9122C1844.36 41.8129 1844.53 41.7598 1844.71 41.7598C1844.83 41.7585 1844.95 41.7805 1845.05 41.8247C1845.16 41.8688 1845.26 41.9342 1845.35 42.0169C1845.43 42.0997 1845.5 42.1983 1845.54 42.3069C1845.59 42.4155 1845.61 42.5321 1845.61 42.6498Z" fill="#D6A44D"/>
<path d="M1845.61 63.4291C1845.61 63.6075 1845.56 63.7825 1845.46 63.9318C1845.37 64.0811 1845.23 64.1981 1845.06 64.2677C1844.9 64.3374 1844.72 64.3566 1844.54 64.323C1844.37 64.2894 1844.2 64.2045 1844.08 64.0791C1843.95 63.9536 1843.86 63.7933 1843.83 63.6184C1843.79 63.4436 1843.81 63.2621 1843.88 63.0971C1843.95 62.932 1844.06 62.7909 1844.21 62.6915C1844.36 62.5922 1844.53 62.5391 1844.71 62.5391C1844.83 62.5378 1844.95 62.5598 1845.05 62.604C1845.16 62.6481 1845.26 62.7135 1845.35 62.7962C1845.43 62.879 1845.5 62.9776 1845.54 63.0862C1845.59 63.1948 1845.61 63.3114 1845.61 63.4291Z" fill="#D6A44D"/>
<path d="M1844.95 7.03125H1844.48V37.7012H1844.95V7.03125Z" fill="#D6A44D"/>
<path d="M1844.71 24.3691C1845.83 24.3691 1846.73 23.4737 1846.73 22.3691C1846.73 21.2646 1845.83 20.3691 1844.71 20.3691C1843.59 20.3691 1842.69 21.2646 1842.69 22.3691C1842.69 23.4737 1843.59 24.3691 1844.71 24.3691Z" fill="#D6A44D"/>
<path d="M1845.61 11.9791C1845.59 12.2001 1845.48 12.4047 1845.32 12.5534C1845.15 12.7021 1844.94 12.7844 1844.72 12.7844C1844.49 12.7844 1844.28 12.7021 1844.11 12.5534C1843.95 12.4047 1843.84 12.2001 1843.82 11.9791C1843.84 11.758 1843.95 11.5535 1844.11 11.4048C1844.28 11.2561 1844.49 11.1738 1844.72 11.1738C1844.94 11.1738 1845.15 11.2561 1845.32 11.4048C1845.48 11.5535 1845.59 11.758 1845.61 11.9791Z" fill="#D6A44D"/>
<path d="M1845.61 32.7592C1845.61 32.9376 1845.56 33.1126 1845.46 33.2619C1845.37 33.4112 1845.23 33.5281 1845.06 33.5978C1844.9 33.6674 1844.72 33.6867 1844.54 33.6531C1844.37 33.6195 1844.2 33.5346 1844.08 33.4091C1843.95 33.2837 1843.86 33.1233 1843.83 32.9485C1843.79 32.7736 1843.81 32.5922 1843.88 32.4271C1843.95 32.2621 1844.06 32.1209 1844.21 32.0216C1844.36 31.9223 1844.53 31.8692 1844.71 31.8692C1844.83 31.8679 1844.95 31.8899 1845.05 31.9341C1845.16 31.9782 1845.26 32.0435 1845.35 32.1263C1845.43 32.2091 1845.5 32.3076 1845.54 32.4163C1845.59 32.5249 1845.61 32.6415 1845.61 32.7592Z" fill="#D6A44D"/>
<path d="M1844.95 -23.6309H1844.48V7.03914H1844.95V-23.6309Z" fill="#D6A44D"/>
<path d="M1845.61 2.08927C1845.61 2.207 1845.59 2.32355 1845.54 2.43219C1845.5 2.54083 1845.43 2.63939 1845.35 2.72216C1845.26 2.80494 1845.16 2.87029 1845.05 2.91442C1844.94 2.95855 1844.83 2.9806 1844.71 2.97927C1844.47 2.97927 1844.25 2.88551 1844.08 2.7186C1843.91 2.55169 1843.82 2.32532 1843.82 2.08927C1843.82 1.85323 1843.91 1.62686 1844.08 1.45995C1844.25 1.29304 1844.47 1.19927 1844.71 1.19927C1844.83 1.19795 1844.94 1.22 1845.05 1.26413C1845.16 1.30826 1845.26 1.37361 1845.35 1.45639C1845.43 1.53916 1845.5 1.63772 1845.54 1.74636C1845.59 1.855 1845.61 1.97155 1845.61 2.08927Z" fill="#D6A44D"/>
<path d="M1854.45 275.18L1856.75 288.56L1844.74 282.25L1832.71 288.56L1835.01 275.18L1825.3 265.7L1838.74 263.75L1844.74 251.58L1850.75 263.75L1864.18 265.7L1854.45 275.18Z" fill="url(#paint10_linear_120_73)"/>
<path d="M1854.45 275.18L1856.75 288.56L1844.74 282.25V251.58L1850.75 263.75L1864.18 265.7L1854.45 275.18Z" fill="url(#paint11_linear_120_73)"/>
</g>
<rect x="80.3906" width="1800" height="5" fill="url(#paint12_linear_120_73)"/>
<defs>
<linearGradient id="paint0_linear_120_73" x1="158.813" y1="127.401" x2="171.814" y2="199.224" gradientUnits="userSpaceOnUse">
<stop stop-color="#B57837"/>
<stop offset="0.2" stop-color="#D3A34E"/>
<stop offset="0.44" stop-color="#F3D166"/>
<stop offset="0.57" stop-color="#FFE370"/>
<stop offset="0.64" stop-color="#F8D96B"/>
<stop offset="0.76" stop-color="#E6BF5D"/>
<stop offset="0.91" stop-color="#C89446"/>
<stop offset="1" stop-color="#B57837"/>
</linearGradient>
<linearGradient id="paint1_linear_120_73" x1="169.694" y1="181.956" x2="169.696" y2="117.739" gradientUnits="userSpaceOnUse">
<stop stop-color="#B57837"/>
<stop offset="0.2" stop-color="#D3A34E"/>
<stop offset="0.44" stop-color="#F3D166"/>
<stop offset="0.57" stop-color="#FFE370"/>
<stop offset="0.64" stop-color="#F8D96B"/>
<stop offset="0.76" stop-color="#E6BF5D"/>
<stop offset="0.91" stop-color="#C89446"/>
<stop offset="1" stop-color="#B57837"/>
</linearGradient>
<linearGradient id="paint2_linear_120_73" x1="1753.78" y1="144.629" x2="1769.91" y2="233.77" gradientUnits="userSpaceOnUse">
<stop stop-color="#B57837"/>
<stop offset="0.2" stop-color="#D3A34E"/>
<stop offset="0.44" stop-color="#F3D166"/>
<stop offset="0.57" stop-color="#FFE370"/>
<stop offset="0.64" stop-color="#F8D96B"/>
<stop offset="0.76" stop-color="#E6BF5D"/>
<stop offset="0.91" stop-color="#C89446"/>
<stop offset="1" stop-color="#B57837"/>
</linearGradient>
<linearGradient id="paint3_linear_120_73" x1="1767.28" y1="212.337" x2="1767.28" y2="132.632" gradientUnits="userSpaceOnUse">
<stop stop-color="#B57837"/>
<stop offset="0.2" stop-color="#D3A34E"/>
<stop offset="0.44" stop-color="#F3D166"/>
<stop offset="0.57" stop-color="#FFE370"/>
<stop offset="0.64" stop-color="#F8D96B"/>
<stop offset="0.76" stop-color="#E6BF5D"/>
<stop offset="0.91" stop-color="#C89446"/>
<stop offset="1" stop-color="#B57837"/>
</linearGradient>
<linearGradient id="paint4_linear_120_73" x1="271.09" y1="120.06" x2="264.61" y2="142.9" gradientUnits="userSpaceOnUse">
<stop stop-color="#EBBD5C"/>
<stop offset="0.03" stop-color="#E0AE54"/>
<stop offset="0.1" stop-color="#D09949"/>
<stop offset="0.16" stop-color="#C68C42"/>
<stop offset="0.22" stop-color="#C38840"/>
<stop offset="0.36" stop-color="#C88F44"/>
<stop offset="0.56" stop-color="#D4A24E"/>
<stop offset="0.79" stop-color="#E9C15E"/>
<stop offset="1" stop-color="#FFE370"/>
</linearGradient>
<linearGradient id="paint5_linear_120_73" x1="267.67" y1="131.06" x2="279.64" y2="131.06" gradientUnits="userSpaceOnUse">
<stop stop-color="#EBBD5C"/>
<stop offset="0.03" stop-color="#E0AE54"/>
<stop offset="0.1" stop-color="#D09949"/>
<stop offset="0.16" stop-color="#C68C42"/>
<stop offset="0.22" stop-color="#C38840"/>
<stop offset="0.36" stop-color="#C88F44"/>
<stop offset="0.56" stop-color="#D4A24E"/>
<stop offset="0.79" stop-color="#E9C15E"/>
<stop offset="1" stop-color="#FFE370"/>
</linearGradient>
<linearGradient id="paint6_linear_120_73" x1="234.13" y1="261.24" x2="227.65" y2="284.08" gradientUnits="userSpaceOnUse">
<stop stop-color="#EBBD5C"/>
<stop offset="0.03" stop-color="#E0AE54"/>
<stop offset="0.1" stop-color="#D09949"/>
<stop offset="0.16" stop-color="#C68C42"/>
<stop offset="0.22" stop-color="#C38840"/>
<stop offset="0.36" stop-color="#C88F44"/>
<stop offset="0.56" stop-color="#D4A24E"/>
<stop offset="0.79" stop-color="#E9C15E"/>
<stop offset="1" stop-color="#FFE370"/>
</linearGradient>
<linearGradient id="paint7_linear_120_73" x1="230.71" y1="272.24" x2="242.68" y2="272.24" gradientUnits="userSpaceOnUse">
<stop stop-color="#EBBD5C"/>
<stop offset="0.03" stop-color="#E0AE54"/>
<stop offset="0.1" stop-color="#D09949"/>
<stop offset="0.16" stop-color="#C68C42"/>
<stop offset="0.22" stop-color="#C38840"/>
<stop offset="0.36" stop-color="#C88F44"/>
<stop offset="0.56" stop-color="#D4A24E"/>
<stop offset="0.79" stop-color="#E9C15E"/>
<stop offset="1" stop-color="#FFE370"/>
</linearGradient>
<linearGradient id="paint8_linear_120_73" x1="1720.07" y1="303.93" x2="1712.02" y2="332.27" gradientUnits="userSpaceOnUse">
<stop stop-color="#EBBD5C"/>
<stop offset="0.03" stop-color="#E0AE54"/>
<stop offset="0.1" stop-color="#D09949"/>
<stop offset="0.16" stop-color="#C68C42"/>
<stop offset="0.22" stop-color="#C38840"/>
<stop offset="0.36" stop-color="#C88F44"/>
<stop offset="0.56" stop-color="#D4A24E"/>
<stop offset="0.79" stop-color="#E9C15E"/>
<stop offset="1" stop-color="#FFE370"/>
</linearGradient>
<linearGradient id="paint9_linear_120_73" x1="1715.82" y1="317.58" x2="1730.67" y2="317.58" gradientUnits="userSpaceOnUse">
<stop stop-color="#EBBD5C"/>
<stop offset="0.03" stop-color="#E0AE54"/>
<stop offset="0.1" stop-color="#D09949"/>
<stop offset="0.16" stop-color="#C68C42"/>
<stop offset="0.22" stop-color="#C38840"/>
<stop offset="0.36" stop-color="#C88F44"/>
<stop offset="0.56" stop-color="#D4A24E"/>
<stop offset="0.79" stop-color="#E9C15E"/>
<stop offset="1" stop-color="#FFE370"/>
</linearGradient>
<linearGradient id="paint10_linear_120_73" x1="1847.38" y1="256.42" x2="1839.33" y2="284.77" gradientUnits="userSpaceOnUse">
<stop stop-color="#EBBD5C"/>
<stop offset="0.03" stop-color="#E0AE54"/>
<stop offset="0.1" stop-color="#D09949"/>
<stop offset="0.16" stop-color="#C68C42"/>
<stop offset="0.22" stop-color="#C38840"/>
<stop offset="0.36" stop-color="#C88F44"/>
<stop offset="0.56" stop-color="#D4A24E"/>
<stop offset="0.79" stop-color="#E9C15E"/>
<stop offset="1" stop-color="#FFE370"/>
</linearGradient>
<linearGradient id="paint11_linear_120_73" x1="1843.13" y1="270.07" x2="1857.98" y2="270.07" gradientUnits="userSpaceOnUse">
<stop stop-color="#EBBD5C"/>
<stop offset="0.03" stop-color="#E0AE54"/>
<stop offset="0.1" stop-color="#D09949"/>
<stop offset="0.16" stop-color="#C68C42"/>
<stop offset="0.22" stop-color="#C38840"/>
<stop offset="0.36" stop-color="#C88F44"/>
<stop offset="0.56" stop-color="#D4A24E"/>
<stop offset="0.79" stop-color="#E9C15E"/>
<stop offset="1" stop-color="#FFE370"/>
</linearGradient>
<linearGradient id="paint12_linear_120_73" x1="80.3911" y1="2.49457" x2="1880.39" y2="2.49457" gradientUnits="userSpaceOnUse">
<stop stop-color="#BD9336" stop-opacity="0"/>
<stop offset="0.29" stop-color="#FFFFDA"/>
<stop offset="0.41" stop-color="#FFDB77"/>
<stop offset="0.59" stop-color="#C89D3F"/>
<stop offset="0.77" stop-color="#956300"/>
<stop offset="1" stop-color="#FACF73" stop-opacity="0"/>
</linearGradient>
</defs>
</svg>
